<svg width="307" height="302" viewBox="0 0 307 302" fill="none" xmlns="http://www.w3.org/2000/svg">
<path d="M238.642 65.3597C237.236 61.4591 235.671 57.5857 233.957 53.8203C230.544 46.3269 229.759 39.2255 224.963 32.959" stroke="#CCDDE2" stroke-width="2.44712" stroke-miterlimit="10"/>
<path d="M213.846 25.7766C209.72 21.5787 205.86 17.0664 198.846 13.6964C184.025 6.59843 165.073 5.87849 140.882 15.9171" stroke="#CCDDE2" stroke-width="2.44712" stroke-miterlimit="10"/>
<path d="M39.1818 300.882C15.7415 267.748 8.16012 230.287 12.0775 191.975" stroke="#CCDDE2" stroke-width="2.44712" stroke-miterlimit="10"/>
<path d="M251.831 137.767V138.176C251.601 145.612 258.473 176.438 277.962 186.23C297.451 196.021 311.346 239.001 267.406 255.864C223.466 272.727 225.859 300.883 225.859 300.883" stroke="#CCDDE2" stroke-width="2.44712" stroke-miterlimit="10"/>
<path d="M140.879 47.7432V11.3271C140.873 8.82525 139.876 6.42768 138.107 4.65862C136.338 2.88957 133.941 1.89297 131.439 1.88672H10.8404C8.33856 1.89297 5.94099 2.88957 4.17193 4.65862C2.40287 6.42768 1.40628 8.82525 1.40002 11.3271V182.558C1.40449 185.058 2.40118 187.455 4.17122 189.221C5.94122 190.987 8.33987 191.979 10.8404 191.978H131.439C132.609 191.985 133.769 191.762 134.853 191.322" stroke="black" stroke-width="2" stroke-linecap="round" stroke-linejoin="round"/>
<path d="M128.211 7.65674H14.0684C9.41088 7.65674 5.63525 11.4324 5.63525 16.0898V177.792C5.63525 182.45 9.41088 186.225 14.0684 186.225H128.211C132.869 186.225 136.644 182.45 136.644 177.792V16.0898C136.644 11.4324 132.869 7.65674 128.211 7.65674Z" fill="#12B76A"/>
<path d="M126.146 21.4741H17.5665C15.2368 21.4741 13.3483 23.3629 13.3483 25.6924V50.6908C13.3483 53.0207 15.2368 54.9091 17.5665 54.9091H126.146C128.475 54.9091 130.364 53.0207 130.364 50.6908V25.6924C130.364 23.3629 128.475 21.4741 126.146 21.4741Z" fill="#12B76A"/>
<path d="M71.1396 35.5561C73.0493 35.5561 74.5974 34.0081 74.5974 32.0984C74.5974 30.1887 73.0493 28.6406 71.1396 28.6406C69.2299 28.6406 67.6819 30.1887 67.6819 32.0984C67.6819 34.0081 69.2299 35.5561 71.1396 35.5561Z" fill="#D7E8F0"/>
<path d="M61.4761 47.744C61.4761 45.1809 62.4941 42.723 64.3065 40.911C66.1185 39.0986 68.5764 38.0806 71.1395 38.0806C73.7025 38.0806 76.1601 39.0986 77.9725 40.911C79.7849 42.723 80.8029 45.1809 80.8029 47.744H61.4761Z" fill="#D7E8F0"/>
<path d="M71.8425 90.7334C68.1563 90.7314 64.5522 91.8228 61.4862 93.8697C58.4202 95.9163 56.0305 98.8265 54.6187 102.232C53.2072 105.637 52.8374 109.385 53.556 113C54.2746 116.616 56.0494 119.937 58.6561 122.544C61.2628 125.15 64.5839 126.925 68.1995 127.644C71.8151 128.363 75.5625 127.992 78.9679 126.581C82.3732 125.17 85.2834 122.78 87.33 119.714C89.3769 116.648 90.4683 113.044 90.4663 109.357C90.4636 104.419 88.5005 99.6833 85.0086 96.1914C81.5164 92.6992 76.781 90.7361 71.8425 90.7334ZM71.8425 123.489C71.1212 123.489 70.4296 123.203 69.9196 122.693C69.4099 122.183 69.1233 121.491 69.1233 120.77C69.1233 120.049 69.4099 119.357 69.9196 118.847C70.4296 118.337 71.1212 118.051 71.8425 118.051C72.5638 118.051 73.2553 118.337 73.7654 118.847C74.2751 119.357 74.5617 120.049 74.5617 120.77C74.5617 121.491 74.2751 122.183 73.7654 122.693C73.2553 123.203 72.5638 123.489 71.8425 123.489ZM75.2935 102.533C74.7087 106.569 74.2153 110.824 73.0289 114.748C72.7382 115.681 70.9671 115.681 70.6629 114.748C69.8125 111.795 69.1601 108.788 68.7092 105.747C68.3442 103.537 67.0497 99.9608 68.2901 97.8044C69.3683 95.8879 72.434 95.6513 74.2051 96.6552C76.4055 97.9193 75.547 100.539 75.2935 102.546V102.533Z" fill="#D7E8F0"/>
<path d="M25.0498 69.8354H116.036" stroke="white" stroke-width="2.44712" stroke-miterlimit="10"/>
<path d="M25.0498 78.7886H116.036" stroke="white" stroke-width="2.44712" stroke-miterlimit="10"/>
<path d="M25.0498 136.462H116.036" stroke="white" stroke-width="2.44712" stroke-miterlimit="10"/>
<path d="M46.1851 144.932H94.901" stroke="white" stroke-width="2.44712" stroke-miterlimit="10"/>
<path d="M34.7167 200.402C34.7167 200.402 50.9069 136.067 101.333 120.353L121.829 115.462C121.829 115.462 125.071 100.986 123.878 99.4647C122.685 97.9437 120.234 94.8273 115.745 95.5033C111.257 96.1793 99.6532 96.3956 96.6822 82.2098C93.7112 68.0239 104.689 34.305 133.22 29.2621C161.751 24.2191 162.416 45.1683 162.416 45.1683L141.46 93.7288L144.712 132.903L145.121 191.259L34.7167 200.402Z" fill="white"/>
<path d="M208.973 150.703C208.635 150.801 204.322 152.055 202.625 155.043C202.302 154.359 201.791 153.781 201.152 153.376C200.513 152.972 199.772 152.758 199.015 152.758H148.366C147.465 152.757 146.59 153.061 145.884 153.622C145.179 154.182 144.684 154.966 144.482 155.844L134.508 198.611C133.832 198.48 133.156 198.398 132.453 198.331L108.915 192.456C107.905 192.203 106.837 192.335 105.92 192.827C105.002 193.319 104.301 194.135 103.953 195.116C103.796 195.557 103.718 196.021 103.723 196.488C103.723 197.55 104.125 198.572 104.849 199.349C105.573 200.125 106.564 200.598 107.623 200.673L118.754 201.389C108.032 206.436 94.9889 216.048 84.1019 224.88C73.509 208.295 83.4496 191.713 90.9262 182.783C89.9629 172.94 85.0821 150.088 60.7292 150.71C69.1184 139.951 79.5795 130.731 92.5418 124.559C136.941 173.772 187.736 133.536 188.814 132.671C196.41 137.626 203.208 143.709 208.973 150.71" fill="#2E2E2E"/>
<path d="M204.359 291.878V300.382H57.7312V288.336C63.4434 288.674 69.453 287.322 74.9185 284.858C81.8374 281.708 87.8132 276.814 92.9238 271.23C98.1797 265.45 101.066 257.436 104.416 250.467C109.445 239.972 116.107 232.495 126.68 229.328L126.004 232.235C125.868 232.82 125.866 233.428 125.998 234.014C126.13 234.6 126.392 235.149 126.765 235.62C127.138 236.09 127.613 236.471 128.154 236.733C128.694 236.995 129.287 237.132 129.887 237.133H180.79C179.776 245.921 175.501 293.917 204.359 291.889" fill="#2E2E2E"/>
<path d="M180.814 68.2201C180.773 72.7672 180.181 77.292 179.05 81.6961C178.534 83.7843 177.426 85.6788 175.86 87.1532C174.294 88.6275 172.336 89.6185 170.221 90.0076C170.137 86.9385 168.832 84.2447 166.841 82.5716C167.023 79.9734 166.997 77.3647 166.763 74.7705C166.632 73.0569 166.425 71.4581 166.209 70.0216C166.08 69.204 165.894 68.3965 165.651 67.6049C164.972 66.8752 164.172 66.2678 163.285 65.8101C160.152 64.0458 153.703 62.1699 141.755 64.928C139.804 65.3748 137.969 66.2255 136.367 67.4258C136.332 67.4481 136.3 67.4751 136.272 67.5069C135.194 68.5006 133.822 69.758 132.402 70.4103C130.932 71.0863 129.398 71.1134 128.11 69.5146C128.076 69.4808 128.059 69.4504 128.029 69.4166C127.353 68.5344 126.707 67.3886 125.514 67.1621C122.999 66.6889 121.776 69.1901 121.458 71.2925C121.181 73.236 121.752 74.9497 122.587 76.5822C123.286 77.9095 124.2 79.1121 125.291 80.1413C125.571 80.4124 125.828 80.7061 126.058 81.0201C125.953 81.0387 125.85 81.0671 125.751 81.1046C125.519 81.1824 125.294 81.275 125.075 81.3818C122.033 82.7507 119.866 86.1814 119.819 90.1968C119.819 90.3219 114.718 90.2475 114.073 90.1968C111.585 89.967 109.134 89.2504 107.384 87.3745C102.415 82.051 102.439 74.152 104.48 67.9733C106.414 62.109 108.874 56.3833 112.099 51.1071C119.085 39.6895 129.925 31.2666 143.648 30.5094C146.939 30.3441 150.238 30.5368 153.487 31.084C155.024 31.3264 156.545 31.6651 158.04 32.098C172.029 38.2023 180.909 52.04 180.828 68.2201" fill="#2E2E2E"/>
<path d="M172.712 198.384C171.059 202.625 167.125 205.052 163.924 203.792C160.723 202.531 159.466 198.096 161.115 193.854C162.765 189.612 166.702 187.182 169.903 188.446C173.104 189.71 174.365 194.145 172.712 198.387" fill="#B453EC"/>
<path d="M181.216 236.267C181.216 236.267 172.239 298.847 208.148 291.912C243.861 285.006 257.378 139.717 154.004 118.822" stroke="black" stroke-width="2" stroke-miterlimit="10"/>
<path d="M97.1422 176.019C97.1422 176.019 68.1688 200.453 83.781 224.891" stroke="black" stroke-width="2" stroke-miterlimit="10"/>
<path d="M181.869 218.885C181.372 218.915 180.662 218.584 180.179 218.452C179.566 218.29 178.958 218.116 178.357 217.932C174.827 216.833 171.506 215.151 168.531 212.956C167.855 212.473 166.652 212.162 165.827 212.48C165.368 212.648 164.963 212.937 164.654 213.316C164.344 213.694 164.143 214.149 164.07 214.633C163.816 216.377 165.046 218.084 166.388 219.202C167.98 220.534 169.633 221.761 171.563 222.559C173.426 223.306 175.348 223.898 177.309 224.327C178.198 224.533 179.1 224.665 179.983 224.891" stroke="black" stroke-width="2" stroke-miterlimit="10"/>
<path d="M192.989 201.953C193.354 203.879 193.621 205.88 193.438 207.837C193.286 209.493 192.691 211.427 190.849 211.829C190.499 211.922 190.136 211.955 189.774 211.927C182.838 211.518 177.123 209.122 170.596 204.403C164.069 199.685 161.771 210.551 167.733 212.478" stroke="black" stroke-width="2" stroke-miterlimit="10"/>
<path d="M167.983 220.513C167.823 220.381 167.671 220.24 167.527 220.09C164.279 216.694 163.691 223.518 167.101 225.526L167.541 225.786C167.771 225.884 168.017 225.999 168.261 226.124C168.376 226.154 168.504 226.205 168.622 226.239M168.622 226.239C171.705 227.591 174.987 228.456 178.218 229.338C175.021 228.294 171.833 227.266 168.622 226.239ZM168.622 226.239C168.345 226.124 168.081 226.009 167.804 225.877C167.719 225.842 167.631 225.814 167.541 225.796C167.483 225.77 167.42 225.759 167.357 225.765C167.294 225.771 167.234 225.793 167.182 225.83C167.105 225.893 167.049 225.978 167.02 226.073C166.496 227.33 166.922 228.916 167.591 230.041C168.294 231.231 169.501 232.147 170.691 232.799C173.892 234.594 177.613 235.655 181.206 236.291C181.873 236.429 182.555 236.473 183.234 236.423" stroke="black" stroke-width="2" stroke-miterlimit="10"/>
<path d="M212.218 244.165C212.218 244.165 201.202 225.393 199.975 209.071C199.225 198.968 196.257 196.828 194.135 196.683" stroke="black" stroke-width="2" stroke-miterlimit="10"/>
<path d="M190.849 211.826L192.992 201.953L194.135 196.68L202.605 157.587C202.731 157.005 202.724 156.402 202.587 155.822C202.449 155.243 202.183 154.702 201.809 154.239C201.435 153.775 200.962 153.401 200.425 153.144C199.888 152.887 199.3 152.754 198.704 152.753H148.052C147.151 152.753 146.276 153.057 145.571 153.618C144.865 154.178 144.371 154.962 144.168 155.839L134.194 198.61L126.913 229.817L126.237 232.741C126.103 233.327 126.102 233.934 126.234 234.52C126.367 235.105 126.63 235.654 127.003 236.124C127.376 236.594 127.851 236.974 128.391 237.236C128.931 237.497 129.524 237.634 130.124 237.635H181.024" stroke="black" stroke-width="2" stroke-miterlimit="10"/>
<path d="M128.049 68.3897C128.049 68.3897 130.729 57.0228 145.865 55.5153C161 54.0078 164.793 65.3173 164.793 65.3173L164.316 66.4564C164.316 66.4564 144.418 58.4728 133.43 69.8668C133.43 69.8668 129.472 71.6616 128.049 68.3965" fill="#12B76A"/>
<path d="M132.132 198.33L108.59 192.449C108.029 192.31 107.444 192.289 106.874 192.388C106.304 192.487 105.761 192.703 105.279 193.023C104.798 193.343 104.388 193.761 104.075 194.248C103.763 194.735 103.556 195.281 103.467 195.853C103.377 196.424 103.408 197.008 103.556 197.567C103.705 198.127 103.968 198.649 104.329 199.101C104.69 199.553 105.141 199.925 105.653 200.193C106.166 200.461 106.729 200.62 107.306 200.659L118.436 201.392" stroke="black" stroke-width="2" stroke-miterlimit="10"/>
<path d="M188.51 132.654C188.51 132.654 137.09 174.309 92.2242 124.559" stroke="black" stroke-width="2" stroke-miterlimit="10"/>
<path d="M90.6118 182.775C89.6485 172.932 84.7711 150.063 60.3979 150.702" stroke="black" stroke-width="2" stroke-miterlimit="10"/>
<path d="M208.665 150.696C208.665 150.696 204.072 151.96 202.311 155.049" stroke="black" stroke-width="2" stroke-miterlimit="10"/>
<path d="M22.0588 300.889H240.376" stroke="black" stroke-width="2" stroke-miterlimit="10"/>
<path d="M166.841 82.5845C168.899 84.315 170.221 87.1407 170.221 90.3382C170.221 95.6448 166.533 99.9374 161.977 99.9374C161.462 99.9347 160.948 99.8745 160.446 99.7583C165.753 95.7023 166.827 82.5845 166.827 82.5845" fill="#12B76A"/>
<path d="M136.823 104.005C139.381 105.278 142.181 105.993 145.036 106.103C147.891 106.213 150.737 105.716 153.385 104.644C168.318 98.4076 167.747 80.0272 166.195 70.0359C166.072 69.2254 165.896 68.4236 165.668 67.6361V67.6192C163.955 61.907 159.483 57.2527 153.591 55.9312C142.181 53.3522 131.747 59.8215 127.417 68.5318" stroke="black" stroke-width="2" stroke-miterlimit="10"/>
<path d="M165.81 67.8149C165.81 67.8149 165.763 67.7473 165.665 67.6358V67.6189C164.651 66.4764 158.78 61.0245 141.785 64.9419C139.835 65.3877 138 66.2388 136.401 67.4397C136.363 67.4614 136.329 67.4887 136.299 67.5209" stroke="black" stroke-width="2" stroke-miterlimit="10"/>
<path d="M120.511 95.5038H112.105C106.038 95.5038 101.229 89.9471 99.1363 84.7318C96.1957 77.3972 98.0784 69.8902 100.725 62.7618C102.942 56.7961 105.761 50.9994 109.469 45.8111C117.77 34.2008 130.303 27.6233 144.709 28.8401C145.987 28.9483 147.258 29.1058 148.525 29.3133C167.869 32.4499 180.912 48.6232 180.814 68.2103C180.773 72.7605 180.181 77.289 179.05 81.6965C178.529 83.783 177.421 85.6758 175.855 87.1495C174.289 88.6232 172.332 89.6152 170.218 90.008" stroke="black" stroke-width="2" stroke-miterlimit="10"/>
<path d="M126.065 81.02C125.833 80.7057 125.577 80.4106 125.298 80.1379C124.206 79.1103 123.292 77.9087 122.594 76.5821C121.759 74.9495 121.187 73.2359 121.465 71.2924C121.776 69.2036 122.999 66.6888 125.521 67.162C126.714 67.3919 127.349 68.5343 128.035 69.4165C130.645 72.7965 134.238 69.3996 136.441 67.3581" stroke="black" stroke-width="2" stroke-miterlimit="10"/>
<path d="M166.841 82.5845C168.899 84.315 170.221 87.1407 170.221 90.3382C170.221 95.6448 166.533 99.9374 161.977 99.9374C161.462 99.9347 160.948 99.8745 160.446 99.7583" stroke="black" stroke-width="2" stroke-miterlimit="10"/>
<path d="M149.201 89.0985C151.046 90.3389 155.505 91.3563 154.609 87.6789C153.534 83.322 152.087 74.0135 160.946 73.3037C160.946 73.3037 164.847 73.4693 166.773 74.7943" stroke="black" stroke-width="2" stroke-miterlimit="10"/>
<path d="M152.537 96.3823C152.537 96.3823 148.075 98.7483 145.865 94.0332" stroke="black" stroke-width="2" stroke-miterlimit="10"/>
<path d="M143.489 79.6685C143.316 81.1658 143.901 82.4603 144.797 82.5651C145.692 82.6699 146.558 81.5511 146.733 80.0436C146.909 78.5362 146.318 77.2551 145.425 77.1504C144.533 77.0456 143.661 78.1644 143.489 79.6685Z" fill="black"/>
<path d="M158.016 80.5499C157.843 82.0438 158.428 83.3418 159.324 83.4465C160.22 83.5513 161.085 82.4325 161.257 80.9251C161.43 79.4176 160.845 78.1332 159.953 78.0318C159.06 77.9304 158.188 79.0458 158.016 80.5499Z" fill="black"/>
<path d="M149.201 74.2608C149.201 74.2608 146.47 70.0493 140.281 74.0445" stroke="black" stroke-width="2" stroke-miterlimit="10"/>
<path d="M154 104.365V127.728" stroke="black" stroke-width="2" stroke-miterlimit="10"/>
<path d="M61.6387 244.166C61.6387 244.166 71.2683 235.04 83.7743 224.9C94.6613 216.068 107.718 206.438 118.443 201.395C119.815 200.757 121.147 200.185 122.441 199.705C125.53 198.528 128.846 198.066 132.139 198.353C132.828 198.41 133.514 198.503 134.194 198.631" stroke="black" stroke-width="2" stroke-miterlimit="10"/>
<path d="M126.913 229.818C116.337 232.985 109.675 240.462 104.649 250.957C101.306 257.926 98.413 265.94 93.1571 271.72C88.0499 277.301 82.0741 282.198 75.1552 285.348C62.6019 291.061 47.1452 290.621 38.9892 278.2C33.4731 269.777 31.3031 259.312 30.2012 249.47C28.3084 232.363 34.2843 184.144 60.3981 150.699C68.7873 139.941 79.2518 130.72 92.2107 124.548C101.306 120.229 111.588 117.403 123.242 116.602L126.508 99.7593" stroke="black" stroke-width="2" stroke-miterlimit="10"/>
<path d="M204.592 292.445V300.889" stroke="black" stroke-width="2" stroke-miterlimit="10"/>
<path d="M57.9645 289.431V300.889" stroke="black" stroke-width="2" stroke-miterlimit="10"/>
<path d="M136.283 90.3394C136.315 92.8734 135.415 95.3307 133.754 97.2448C132.823 97.6754 131.809 97.8978 130.783 97.8971C126.23 97.8971 122.539 93.6045 122.539 88.2979C122.507 85.7643 123.408 83.3073 125.071 81.396C126.002 80.963 127.016 80.7392 128.042 80.7402C132.595 80.7402 136.283 85.0362 136.283 90.3394Z" fill="#12B76A"/>
<path d="M128.049 99.9386C132.596 99.9386 136.282 95.641 136.282 90.3394C136.282 85.0379 132.596 80.7402 128.049 80.7402C123.501 80.7402 119.815 85.0379 119.815 90.3394C119.815 95.641 123.501 99.9386 128.049 99.9386Z" stroke="black" stroke-width="2" stroke-miterlimit="10"/>
<path d="M225.94 6.4513C220.867 4.93912 215.46 4.96511 210.403 6.52599C205.345 8.08684 200.864 11.1125 197.525 15.2203C194.187 19.3281 192.142 24.3336 191.648 29.6037C191.155 34.8738 192.235 40.1719 194.753 44.8282C197.27 49.4841 201.112 53.2893 205.792 55.7618C210.472 58.2346 215.781 59.2638 221.046 58.72C226.311 58.1758 231.296 56.0826 235.372 52.7049C239.448 49.3273 242.43 44.817 243.942 39.7443C245.97 32.9421 245.212 25.6132 241.836 19.3694C238.46 13.1258 232.742 8.47903 225.94 6.4513ZM212.494 51.5541C212.002 51.407 211.544 51.1647 211.145 50.8405C210.747 50.5164 210.416 50.1169 210.172 49.665C209.927 49.2131 209.775 48.7176 209.722 48.2065C209.669 47.6954 209.718 47.179 209.865 46.6869C210.012 46.1947 210.254 45.7361 210.578 45.3376C210.902 44.9391 211.302 44.6082 211.754 44.3641C212.667 43.871 213.738 43.7604 214.732 44.0572C215.726 44.354 216.562 45.0334 217.055 45.9463C217.548 46.8589 217.658 47.9304 217.362 48.9244C217.065 49.9185 216.386 50.754 215.473 51.2472C214.56 51.7403 213.489 51.8508 212.494 51.5541ZM226.014 24.1963C225.958 24.3315 225.904 24.4634 225.852 24.5918C223.659 29.9869 220.931 35.1492 217.71 40.0012C216.929 41.1842 214.482 40.4541 214.475 39.0345C214.521 34.623 214.859 30.2192 215.489 25.8525C215.881 22.6618 215.577 17.1997 218.156 14.7458C220.444 12.5488 224.76 13.4918 226.795 15.601C229.043 17.9433 227.096 21.6242 226.004 24.1963H226.014Z" fill="#D7E8F0"/>
<path d="M244.456 159.909C242.599 161.797 241.343 164.194 240.849 166.795C240.354 169.397 240.641 172.087 241.675 174.525C242.71 176.963 244.443 179.04 246.658 180.492C248.872 181.944 251.468 182.708 254.115 182.685C256.764 182.662 259.346 181.855 261.535 180.365C263.724 178.874 265.422 176.768 266.414 174.313C267.406 171.858 267.648 169.163 267.109 166.57C266.569 163.978 265.273 161.603 263.384 159.747C260.852 157.26 257.436 155.879 253.886 155.91C250.337 155.94 246.945 157.379 244.456 159.909ZM261.248 176.414C260.884 176.784 260.387 176.995 259.868 176.999C259.349 177.004 258.85 176.801 258.479 176.437C258.109 176.074 257.899 175.578 257.894 175.058C257.89 174.539 258.092 174.04 258.456 173.669C258.636 173.486 258.851 173.34 259.087 173.24C259.324 173.139 259.578 173.086 259.835 173.084C260.092 173.082 260.347 173.13 260.585 173.227C260.823 173.323 261.041 173.465 261.224 173.646C261.407 173.826 261.553 174.04 261.654 174.277C261.754 174.514 261.807 174.768 261.809 175.025C261.811 175.282 261.763 175.537 261.666 175.775C261.57 176.014 261.428 176.231 261.248 176.414ZM252.243 164.094C254.025 166.426 255.961 168.826 257.361 171.408C257.699 172.03 256.803 172.943 256.174 172.611C254.232 171.559 252.364 170.378 250.58 169.076C249.262 168.156 246.774 167.011 246.294 165.297C245.858 163.769 247.285 162.083 248.694 161.677C250.425 161.183 251.344 162.951 252.243 164.094Z" fill="#B453EC"/>
<path d="M296.947 52.6795C298.281 51.0388 299.098 49.0392 299.295 46.9342C299.493 44.8291 299.062 42.7126 298.056 40.8525C297.051 38.9925 295.516 37.4725 293.647 36.4842C291.778 35.4962 289.658 35.0846 287.554 35.3016C285.451 35.5186 283.459 36.3544 281.831 37.7031C280.203 39.052 279.011 40.8532 278.407 42.8795C277.802 44.9055 277.812 47.0653 278.435 49.0859C279.058 51.1064 280.266 52.8968 281.906 54.2309C282.996 55.1168 284.249 55.7793 285.594 56.1808C286.94 56.5824 288.351 56.7149 289.748 56.5705C291.145 56.4266 292.499 56.0088 293.735 55.3412C294.97 54.6734 296.062 53.7689 296.947 52.6795ZM282.356 40.8191C282.485 40.6595 282.645 40.5274 282.825 40.4297C283.006 40.332 283.204 40.2708 283.408 40.2495C283.612 40.2283 283.818 40.2475 284.015 40.3063C284.212 40.3648 284.395 40.4615 284.554 40.5909C284.714 40.7204 284.846 40.8799 284.944 41.0604C285.041 41.2409 285.103 41.4386 285.124 41.6431C285.145 41.8473 285.126 42.0535 285.067 42.2502C285.009 42.4469 284.912 42.6301 284.783 42.7896C284.521 43.1114 284.143 43.3162 283.73 43.3591C283.318 43.4017 282.906 43.279 282.584 43.0178C282.262 42.7565 282.057 42.3779 282.014 41.9656C281.972 41.5532 282.094 41.1409 282.356 40.8191ZM290.444 49.9451C288.852 48.2247 287.138 46.4738 285.824 44.5134C285.506 44.0436 286.162 43.2527 286.675 43.469C288.303 44.1629 289.883 44.9646 291.404 45.8688C292.519 46.5009 294.585 47.2208 295.095 48.5525C295.555 49.7321 294.547 51.1822 293.456 51.5945C292.107 52.115 291.242 50.7799 290.444 49.9248V49.9451Z" fill="#B453EC"/>
<path d="M190.68 123.166C194.452 129.588 194.28 134.161 193.299 141.573C192.907 144.395 195.946 146.305 198.41 144.885C220.181 132.379 240.501 142.269 266.46 136.138C275.991 133.9 287.875 129.263 296.021 121.807C298.724 117.793 300.168 113.065 300.168 108.226C300.168 87.9459 272.452 71.4819 238.27 71.4819C216.365 71.4819 197.119 78.2419 186.117 88.4259C186.117 88.4259 186.117 88.4259 186.087 88.4563C183.295 92.6374 181.76 97.2071 181.76 101.976C181.743 109.253 187.155 117.142 190.68 123.166Z" fill="#D7E8F0"/>
<path d="M181.841 101.976C181.841 102.145 181.841 102.314 181.841 102.489C181.963 109.587 185.526 116.202 189.744 121.924C192.569 125.751 195.922 130.003 195.128 134.694C194.79 136.763 193.624 138.639 193.333 140.714C193.043 142.789 194.148 145.378 196.244 145.486C197.575 145.554 198.708 144.608 199.762 143.796C205.998 138.963 214.103 137.155 221.986 136.837C229.868 136.519 237.74 137.56 245.625 137.783C256.996 138.121 268.545 136.688 279.047 132.328C288.457 128.428 297.079 122.026 302.741 113.474C308.304 105.079 305.015 92.8869 299.08 85.5861C293.517 78.7348 285.455 74.3509 277.188 71.2616C254.951 62.9603 229.57 63.1496 207.641 72.2452C201.131 74.9492 194.834 78.4644 189.953 83.5513C185.198 88.5064 181.892 95.1109 181.841 101.976Z" stroke="black" stroke-width="2" stroke-miterlimit="10"/>
<path d="M273.081 110.053C277.796 110.053 281.619 106.231 281.619 101.515C281.619 96.8 277.796 92.9775 273.081 92.9775C268.366 92.9775 264.543 96.8 264.543 101.515C264.543 106.231 268.366 110.053 273.081 110.053Z" fill="white"/>
<path d="M245.466 110.053C250.182 110.053 254.004 106.231 254.004 101.515C254.004 96.8 250.182 92.9775 245.466 92.9775C240.751 92.9775 236.929 96.8 236.929 101.515C236.929 106.231 240.751 110.053 245.466 110.053Z" fill="white"/>
<path d="M217.314 110.053C222.03 110.053 225.852 106.231 225.852 101.515C225.852 96.8 222.03 92.9775 217.314 92.9775C212.599 92.9775 208.776 96.8 208.776 101.515C208.776 106.231 212.599 110.053 217.314 110.053Z" fill="white"/>
</svg>
