<svg width="283" height="306" viewBox="0 0 283 306" fill="none" xmlns="http://www.w3.org/2000/svg">
<path d="M80.9472 116.618H56.2259C55.5377 116.618 54.8563 116.482 54.2208 116.218C53.5851 115.955 53.0074 115.568 52.5214 115.082C52.035 114.595 51.6497 114.017 51.3867 113.381C51.1241 112.745 50.9892 112.063 50.9902 111.375V51.9378C50.9902 51.2503 51.1258 50.5696 51.3887 49.9345C51.652 49.2997 52.0377 48.7228 52.5241 48.2367C53.0101 47.7507 53.5874 47.3654 54.2225 47.1027C54.8576 46.8401 55.5384 46.7049 56.2259 46.7056H97.0394C97.7282 46.7032 98.4103 46.8371 99.0474 47.0987C99.6842 47.3606 100.263 47.7456 100.751 48.2317C101.239 48.7177 101.626 49.2954 101.891 49.9311C102.155 50.5672 102.292 51.249 102.292 51.9378V67.9692" stroke="#CCDDE2" stroke-width="1.521" stroke-miterlimit="10"/>
<path d="M95.7989 53.9077H58.0004C56.5537 53.9077 55.3809 55.0806 55.3809 56.5272V63.5847C55.3809 65.0313 56.5537 66.2042 58.0004 66.2042H95.7989C97.2455 66.2042 98.4184 65.0313 98.4184 63.5847V56.5272C98.4184 55.0806 97.2455 53.9077 95.7989 53.9077Z" stroke="#CCDDE2" stroke-width="1.521" stroke-miterlimit="10"/>
<path d="M76.6344 59.0862C77.3364 59.0862 77.9053 58.517 77.9053 57.8153C77.9053 57.1133 77.3364 56.5444 76.6344 56.5444C75.9324 56.5444 75.3635 57.1133 75.3635 57.8153C75.3635 58.517 75.9324 59.0862 76.6344 59.0862Z" fill="#D7E8F0"/>
<path d="M73.0819 63.5712C73.0522 63.0868 73.1215 62.6014 73.2864 62.1448C73.4513 61.6882 73.7079 61.2701 74.0405 60.9165C74.3727 60.563 74.7743 60.2811 75.2198 60.0884C75.6652 59.8958 76.1455 59.7964 76.6309 59.7964C77.1163 59.7964 77.5966 59.8958 78.0421 60.0884C78.4875 60.2811 78.8891 60.563 79.2217 60.9165C79.5539 61.2701 79.8105 61.6882 79.9754 62.1448C80.1404 62.6014 80.21 63.0868 80.1799 63.5712H73.0819Z" fill="#D7E8F0"/>
<path d="M76.8946 79.3833C75.5395 79.3833 74.2149 79.7852 73.0883 80.5379C71.9615 81.291 71.0833 82.3607 70.5648 83.6127C70.0463 84.8646 69.9105 86.2423 70.1748 87.5714C70.4394 88.9004 71.0918 90.1209 72.05 91.0791C73.0082 92.0373 74.2288 92.69 75.5578 92.9543C76.8868 93.2187 78.2645 93.0828 79.5164 92.5643C80.7684 92.0458 81.8385 91.1677 82.5912 90.0411C83.3439 88.9142 83.7458 87.5896 83.7458 86.2346C83.7462 85.3348 83.5694 84.4438 83.2253 83.6124C82.8809 82.7809 82.3762 82.0254 81.7401 81.389C81.1037 80.7529 80.3482 80.2482 79.5171 79.9042C78.6856 79.5597 77.7943 79.383 76.8946 79.3833ZM76.8946 91.4296C76.6573 91.3904 76.442 91.2684 76.2865 91.0852C76.131 90.902 76.0455 90.6695 76.0455 90.4291C76.0455 90.1888 76.131 89.9563 76.2865 89.7731C76.442 89.5899 76.6573 89.4679 76.8946 89.4287C77.0396 89.4047 77.1883 89.4128 77.3302 89.452C77.4719 89.4912 77.6033 89.5608 77.7156 89.6561C77.8278 89.7511 77.918 89.8697 77.9799 90.0033C78.0417 90.1368 78.0735 90.2821 78.0735 90.4291C78.0735 90.5762 78.0417 90.7219 77.9799 90.8554C77.918 90.9889 77.8278 91.1072 77.7156 91.2025C77.6033 91.2975 77.4719 91.3671 77.3302 91.4063C77.1883 91.4458 77.0396 91.4536 76.8946 91.4296ZM78.1621 83.7266C77.9988 85.2419 77.72 86.7426 77.3272 88.2152C77.286 88.294 77.2241 88.3596 77.1481 88.4055C77.072 88.4515 76.9851 88.4758 76.8962 88.4758C76.8074 88.4758 76.7205 88.4515 76.6444 88.4055C76.5684 88.3596 76.5065 88.294 76.4653 88.2152C76.1526 87.1296 75.913 86.024 75.7487 84.9062C75.6102 84.095 75.137 82.7768 75.5899 81.9859C75.9887 81.2795 77.1176 81.195 77.77 81.5634C78.571 82.0197 78.2567 82.9864 78.1621 83.7266Z" fill="#D7E8F0"/>
<path d="M59.6836 71.6938H93.149" stroke="#CCDDE2" stroke-width="1.521" stroke-miterlimit="10"/>
<path d="M59.6836 74.9893H93.149" stroke="#CCDDE2" stroke-width="1.521" stroke-miterlimit="10"/>
<path d="M59.6836 96.1987H93.149" stroke="#CCDDE2" stroke-width="1.521" stroke-miterlimit="10"/>
<path d="M67.4575 99.3159H85.3749" stroke="#CCDDE2" stroke-width="1.521" stroke-miterlimit="10"/>
<path d="M266.428 103.916H215.13C210.859 103.916 207.396 107.378 207.396 111.649V199.262C207.396 203.534 210.859 206.996 215.13 206.996H266.428C270.699 206.996 274.162 203.534 274.162 199.262V111.649C274.162 107.378 270.699 103.916 266.428 103.916Z" fill="#0BA5EC"/>
<path d="M196.307 103.916H160.587C156.316 103.916 152.853 107.378 152.853 111.649V199.262C152.853 203.534 156.316 206.996 160.587 206.996H196.307C200.578 206.996 204.04 203.534 204.04 199.262V111.649C204.04 107.378 200.578 103.916 196.307 103.916Z" fill="#0BA5EC"/>
<path d="M155.811 259.413H273.793C275.832 259.412 277.787 258.602 279.228 257.161C280.67 255.719 281.481 253.765 281.483 251.726V105.274C281.483 104.265 281.285 103.264 280.898 102.331C280.512 101.398 279.945 100.55 279.232 99.836C278.517 99.1219 277.669 98.5557 276.736 98.1694C275.803 97.783 274.803 97.5843 273.793 97.585H193.613L172.657 97.71H172.596L162 98.1224H161.966L159.177 98.2305H158.931L158.724 99.8901L158.319 102.976C158.323 102.982 158.326 102.989 158.326 102.996C158.326 103.003 158.323 103.011 158.319 103.017L155.02 107.904L154.344 108.894L152.482 120.812V120.87C152.441 120.853 152.4 120.829 152.35 120.802C152.309 120.779 152.271 120.751 152.235 120.721C151.608 120.249 151.137 119.601 150.883 118.859C150.264 117.29 150.116 115.212 150.109 113.562L149.703 122.617V122.651L149.139 134.748L149 137.996C149.264 137.526 149.642 136.85 150.082 136.043L148.679 145.006L148.388 151.466L147.665 167.788L147.638 168.396V168.629L147.449 172.604V172.695C147.449 172.695 146.908 184.36 146.908 184.377L146.857 185.458L146.232 190.18L144.407 203.392V251.726C144.407 253.104 144.778 254.455 145.481 255.639C146.184 256.823 147.193 257.796 148.402 258.456C150.69 259.697 153.222 259.531 155.736 259.446C156.412 259.426 157.088 259.396 157.764 259.359" fill="#0BA5EC"/>
<path d="M151.332 256.891C151.285 256.891 151.234 256.847 151.177 256.831C150.534 256.6 149.927 256.282 149.372 255.884C148.398 255.192 147.605 254.277 147.058 253.214C146.512 252.152 146.228 250.974 146.232 249.78V185.276L144.407 186.151L144.292 186.209L144.045 185.597L142.825 182.555L142.487 181.713L139.401 174.01C139.401 174.01 145.262 150.296 149.139 134.748C150.558 129.04 151.714 124.429 152.201 122.492C152.35 121.914 152.438 121.576 152.454 121.519C152.456 121.505 152.456 121.492 152.454 121.478C152.465 121.363 152.447 121.248 152.404 121.14C152.356 121.016 152.298 120.895 152.231 120.779C152.224 120.755 152.212 120.732 152.198 120.711C151.796 120.027 151.344 119.374 150.846 118.758L150.203 110.804L150.308 110.723L150.795 110.335L154.121 107.698L154.895 105.65L156.412 101.668L157.088 99.8938H158.697H159.11H162.02L172.775 99.86H173.698L194.103 99.7383H272.177C273.161 99.7383 274.134 99.932 275.042 100.308C275.951 100.685 276.776 101.237 277.47 101.933C278.165 102.628 278.716 103.454 279.091 104.363C279.466 105.271 279.659 106.245 279.657 107.228V249.78C279.659 250.763 279.466 251.737 279.091 252.645C278.716 253.554 278.165 254.38 277.47 255.076C276.776 255.771 275.951 256.323 275.042 256.699C274.134 257.076 273.161 257.27 272.177 257.27H155.953" fill="#0BA5EC"/>
<path d="M159.143 97.7844L161.908 97.7675H161.966L172.579 97.71H172.653L193.609 97.585H273.793C275.832 97.5856 277.788 98.3962 279.229 99.8381C280.671 101.28 281.482 103.235 281.483 105.274V251.726C281.481 253.765 280.67 255.719 279.228 257.161C277.786 258.602 275.832 259.412 273.793 259.413H151.887C149.9 259.413 147.995 258.623 146.59 257.219C145.186 255.814 144.396 253.909 144.396 251.923V235.932" stroke="black" stroke-width="1.521" stroke-miterlimit="10"/>
<path d="M266.428 214.566H160.587C156.316 214.566 152.853 218.028 152.853 222.299V243.8C152.853 248.071 156.316 251.533 160.587 251.533H266.428C270.699 251.533 274.161 248.071 274.161 243.8V222.299C274.161 218.028 270.699 214.566 266.428 214.566Z" fill="white"/>
<path d="M231.435 222.801H163.064C161.618 222.801 160.445 223.974 160.445 225.42V241.212C160.445 242.658 161.618 243.831 163.064 243.831H231.435C232.882 243.831 234.054 242.658 234.054 241.212V225.42C234.054 223.974 232.882 222.801 231.435 222.801Z" fill="#0BA5EC"/>
<path d="M219.169 231.659C220.371 231.659 221.346 230.685 221.346 229.482C221.346 228.28 220.371 227.306 219.169 227.306C217.967 227.306 216.992 228.28 216.992 229.482C216.992 230.685 217.967 231.659 219.169 231.659Z" fill="white"/>
<path d="M213.092 239.324C213.092 237.711 213.733 236.163 214.874 235.022C216.015 233.881 217.562 233.24 219.176 233.24C220.789 233.24 222.337 233.881 223.478 235.022C224.619 236.163 225.26 237.711 225.26 239.324H213.092Z" fill="white"/>
<path d="M252.624 222.804C250.505 222.802 248.432 223.428 246.668 224.605C244.905 225.781 243.53 227.454 242.718 229.412C241.905 231.369 241.692 233.524 242.104 235.603C242.517 237.683 243.537 239.593 245.035 241.092C246.534 242.592 248.443 243.613 250.522 244.026C252.601 244.44 254.756 244.228 256.714 243.417C258.673 242.606 260.346 241.232 261.524 239.469C262.701 237.707 263.329 235.635 263.329 233.515C263.329 232.109 263.052 230.716 262.515 229.417C261.977 228.117 261.189 226.937 260.195 225.942C259.201 224.948 258.021 224.158 256.722 223.62C255.423 223.082 254.03 222.804 252.624 222.804ZM252.624 241.64C252.412 241.65 252.201 241.617 252.002 241.543C251.803 241.468 251.622 241.355 251.469 241.208C251.315 241.062 251.193 240.886 251.11 240.691C251.026 240.496 250.983 240.286 250.983 240.074C250.983 239.862 251.026 239.652 251.11 239.457C251.193 239.262 251.315 239.086 251.469 238.939C251.622 238.793 251.803 238.679 252.002 238.605C252.201 238.531 252.412 238.497 252.624 238.507C253.027 238.526 253.407 238.699 253.686 238.991C253.964 239.283 254.12 239.67 254.12 240.074C254.12 240.477 253.964 240.865 253.686 241.156C253.407 241.448 253.027 241.622 252.624 241.64ZM254.595 229.591C254.257 231.916 253.983 234.357 253.29 236.608C253.134 237.152 252.11 237.152 251.938 236.608C251.447 234.911 251.072 233.183 250.816 231.436C250.599 230.169 249.859 228.107 250.569 226.877C251.194 225.771 252.959 225.64 253.973 226.201C255.237 226.917 254.73 228.435 254.595 229.591Z" fill="#0BA5EC"/>
<path d="M264.001 178.431C263.482 182.909 261.628 187.128 258.68 190.54C255.733 193.951 251.828 196.397 247.472 197.561C243.116 198.724 238.511 198.551 234.255 197.064C229.999 195.577 226.288 192.844 223.605 189.221C220.922 185.598 219.39 181.252 219.208 176.747C219.027 172.242 220.204 167.787 222.587 163.96C224.97 160.132 228.449 157.11 232.571 155.285C236.694 153.46 241.27 152.917 245.705 153.726C245.9 153.764 246.086 153.841 246.25 153.953C246.414 154.065 246.553 154.209 246.659 154.377C246.765 154.545 246.836 154.733 246.867 154.929C246.897 155.125 246.887 155.326 246.838 155.518L246.395 157.245L242.427 172.739C242.364 172.986 242.366 173.246 242.435 173.491C242.503 173.737 242.636 173.96 242.818 174.139C243 174.317 243.226 174.444 243.473 174.508C243.72 174.571 243.979 174.568 244.225 174.5L259.628 170.194L261.733 169.606C261.921 169.553 262.117 169.538 262.311 169.563C262.504 169.588 262.69 169.651 262.859 169.749C263.027 169.847 263.174 169.978 263.29 170.134C263.407 170.29 263.492 170.468 263.538 170.657C264.145 173.202 264.301 175.833 264.001 178.431Z" fill="white"/>
<path d="M264.532 162.464C264.605 162.653 264.637 162.855 264.627 163.057C264.617 163.259 264.564 163.457 264.473 163.638C264.382 163.818 264.253 163.978 264.096 164.106C263.939 164.234 263.757 164.327 263.562 164.38L262.112 164.786L249.569 168.291C249.323 168.359 249.064 168.362 248.817 168.299C248.57 168.235 248.344 168.108 248.162 167.929C247.979 167.751 247.847 167.528 247.779 167.282C247.71 167.036 247.707 166.777 247.771 166.53L251.012 153.916L251.323 152.706C251.372 152.514 251.46 152.333 251.582 152.176C251.703 152.019 251.856 151.89 252.03 151.794C252.204 151.699 252.396 151.641 252.593 151.623C252.791 151.606 252.99 151.629 253.179 151.692C255.73 152.572 258.064 153.99 260.022 155.848C261.981 157.706 263.518 159.962 264.532 162.464Z" fill="white"/>
<path d="M241.359 124.074C244.771 124.074 247.537 121.307 247.537 117.895C247.537 114.483 244.771 111.716 241.359 111.716C237.946 111.716 235.18 114.483 235.18 117.895C235.18 121.307 237.946 124.074 241.359 124.074Z" fill="#D7E8F0"/>
<path d="M264.15 131.55H219.172V132.787H264.15V131.55Z" fill="#D7E8F0"/>
<path d="M264.15 136.126H219.172V137.363H264.15V136.126Z" fill="#D7E8F0"/>
<path d="M264.15 140.298H219.172V141.535H264.15V140.298Z" fill="#D7E8F0"/>
<path d="M196.165 157.394H160.932V158.631H196.165V157.394Z" fill="#D7E8F0"/>
<path d="M196.165 162.386H160.932V163.623H196.165V162.386Z" fill="#D7E8F0"/>
<path d="M196.165 167.375H160.932V168.613H196.165V167.375Z" fill="#D7E8F0"/>
<path d="M196.165 172.368H160.932V173.605H196.165V172.368Z" fill="#D7E8F0"/>
<path d="M196.165 177.359H160.932V178.596H196.165V177.359Z" fill="#D7E8F0"/>
<path d="M156.098 122.242C156.098 122.242 166.806 139.105 179.008 144.405C191.21 149.705 195.022 152.047 199.69 150.151C204.358 148.255 213.318 145.598 219.632 126.829C225.946 108.06 228.954 98.1801 229.177 93.634C229.4 89.0879 216.847 92.8228 216.847 92.8228C216.847 92.8228 210.087 112.748 195.276 121.641L174.181 99.3597L156.098 122.242Z" fill="white"/>
<path d="M143.585 148.157L152.204 150.496C152.204 150.496 142.196 164.297 151.096 178.746C159.995 193.196 178.322 222.348 178.322 222.348L213.399 278.118L180.593 273.545L156.098 246.715L143.592 234.246L127.919 185.32L143.585 148.157Z" fill="white"/>
<path d="M2.85574 219.475C3.63071 219.894 4.52776 220.029 5.39183 219.857C6.25589 219.685 7.03271 219.216 7.58771 218.532L20.3438 202.893L30.6359 189.974L22.2096 185.242C21.3369 184.749 20.3039 184.623 19.3383 184.891C18.3723 185.159 17.5523 185.8 17.0585 186.672L1.35503 214.253C1.10487 214.693 0.945166 215.178 0.885306 215.681C0.825446 216.184 0.866614 216.693 1.00641 217.18C1.14621 217.666 1.38183 218.12 1.69941 218.514C2.017 218.908 2.41012 219.235 2.85574 219.475Z" fill="#2E2E2E"/>
<path d="M197.023 293.244L207.64 303.688C208.556 304.591 209.79 305.099 211.077 305.101H237.627C238.451 305.104 239.257 304.867 239.949 304.42C240.64 303.973 241.187 303.334 241.521 302.581C241.855 301.829 241.963 300.995 241.832 300.182C241.7 299.369 241.335 298.611 240.781 298.003C240.083 297.222 239.118 296.73 238.077 296.624L223.35 295.113L197.023 293.244Z" fill="#2E2E2E"/>
<path d="M100.071 162.612C100.071 162.612 120.605 168.324 134.294 170.028C147.983 171.731 147.023 166.053 147.023 166.053L148.696 158.88C153.09 151.722 155.642 136.491 155.642 136.491L157.406 124.577L159.982 129.109L168.307 137.495L168.408 137.576C168.155 133.571 168.347 127.943 169.28 120.277C171.43 102.532 178.548 104.591 178.548 104.591L177.504 103.445C172.586 95.2621 156.886 86.6126 151.87 84.5441C146.854 82.4755 149 85.406 149.639 87.5861C150.278 89.7662 148.453 95.9009 141.142 92.7778C133.831 89.6546 133.462 82.8608 133.462 82.8608H130.065C109.228 85.3654 98.6313 96.4789 98.6313 96.4789C120.767 101.701 115.687 120.477 115.687 120.477L113.679 122.312C105.821 129.126 105.273 135.697 105.952 138.435C106.632 141.173 111.479 144.857 120.23 146.993C128.98 149.129 130.572 149.132 132.55 145.35C134.527 141.568 136.832 141.102 139.986 140.534C143.139 139.966 147.003 142.207 146.12 143.971C145.238 145.736 144.599 144.194 146.796 148.96C148.993 153.726 147.973 156.149 142.064 160.54C136.156 164.931 109.887 162.467 109.887 162.467C97.3233 158.992 100.071 162.612 100.071 162.612Z" fill="#2E2E2E"/>
<path d="M148.098 82.9734V83.6934V83.8759C153.971 85.3435 159.502 87.9403 164.382 91.5214C165.173 92.0994 165.944 92.6875 166.705 93.3061C166.725 90.8218 166.512 88.3273 165.711 85.9749C165.062 83.956 163.839 82.17 162.192 80.8339C160.742 79.6779 159.029 78.9377 157.305 78.2685C155.581 77.5992 153.888 77.0111 152.306 76.1086C150.973 75.3796 149.808 74.3774 148.889 73.168C148.566 72.7307 148.365 72.2159 148.305 71.6758C148.246 71.1356 148.331 70.5894 148.551 70.0922C148.395 70.0814 148.242 70.051 148.094 70.001L148.098 82.9734Z" fill="#0BA5EC"/>
<path d="M148.098 82.9734V83.6934V83.8759C153.971 85.3435 159.502 87.9403 164.382 91.5214C165.173 92.0994 165.944 92.6875 166.705 93.3061C166.725 90.8218 166.512 88.3273 165.711 85.9749C165.062 83.956 163.839 82.17 162.192 80.8339C160.742 79.6779 159.029 78.9377 157.305 78.2685C155.581 77.5992 153.888 77.0111 152.306 76.1086C150.973 75.3796 149.808 74.3774 148.889 73.168C148.566 72.7307 148.365 72.2159 148.305 71.6758C148.246 71.1356 148.331 70.5894 148.551 70.0922C148.395 70.0814 148.242 70.051 148.094 70.001L148.098 82.9734Z" fill="#0BA5EC"/>
<path d="M66.9541 139.088C69.1609 140.668 71.6141 141.87 74.2143 142.648C75.3327 142.992 76.4691 143.277 77.6179 143.499C73.0786 132.802 76.4755 118.727 90.7999 103.72C93.2525 101.146 95.8639 98.7282 98.6179 96.4801C103.069 92.8601 107.024 90.1629 111.688 87.9929C113.777 87.0293 115.921 86.1931 118.11 85.4884C121.992 84.1962 125.999 83.3157 130.065 82.8621C130.988 82.7506 131.901 82.6694 132.823 82.6187C132.598 81.0339 132.643 79.4226 132.955 77.8529C133.807 73.5434 135.291 71.0659 137.988 67.669C139.678 65.5295 142.318 60.4189 138.799 58.6545C136.579 57.5493 136.376 55.2745 137.42 53.9225C138.302 52.7463 140.087 52.2089 142.287 53.5845C143.808 54.558 145.613 54.6188 147.357 54.1422C148.712 53.353 149.886 52.2893 150.805 51.0191C153.36 47.3586 153.452 41.812 149.453 39.1249C147.273 37.6546 144.495 37.2997 141.889 37.5836C140.722 37.7117 139.572 37.9632 138.458 38.334C138.453 38.3316 138.448 38.3306 138.443 38.3306C138.437 38.3306 138.432 38.3316 138.428 38.334C133.696 40.8791 130.332 45.5841 128.71 50.8873C127.757 54.0206 126.682 57.1234 125.425 60.1654C124.39 62.6598 123.67 65.6917 121.369 67.3952C120.407 68.1067 119.315 68.6235 118.154 68.9162C113.804 71.6743 107.771 70.0823 103.015 69.4942C99.2131 68.9744 95.342 69.3634 91.7193 70.6299C87.6633 72.6815 84.1751 75.9568 81.3461 80.2156C76.6715 87.2629 81.6199 97.4231 73.8019 102.98C71.4359 104.653 68.7319 105.667 66.1462 106.965C62.4553 108.841 59.4741 111.508 58.3722 115.614C56.1955 123.899 60.069 134.089 66.9541 139.088Z" fill="#0BA5EC"/>
<path d="M258.11 305.1H73.1428" stroke="black" stroke-width="1.521" stroke-miterlimit="10"/>
<path d="M154.881 47.6822C155.357 48.6672 155.763 49.6835 156.098 50.7242C156.585 52.4142 156.058 53.462 156.798 55.0743C157.051 55.632 157.416 56.575 157.812 57.5282C157.923 57.3051 158.025 57.1226 158.086 56.9806C160.986 50.5214 157.173 47.4085 155.338 46.3438C155.221 46.8014 155.068 47.2489 154.881 47.6822Z" fill="#0BA5EC"/>
<path d="M154.881 47.6822C155.357 48.6672 155.763 49.6835 156.098 50.7242C156.585 52.4142 156.058 53.462 156.798 55.0743C157.051 55.632 157.416 56.575 157.812 57.5282C157.923 57.3051 158.025 57.1226 158.086 56.9806C160.986 50.5214 157.173 47.4085 155.338 46.3438C155.221 46.8014 155.068 47.2489 154.881 47.6822Z" fill="#0BA5EC"/>
<path d="M90.6208 156.651C88.8497 170.617 90.2828 194.845 118.884 213.381C124.032 216.717 128.666 221.429 133.205 225.501C145.586 236.69 157.364 248.527 168.489 260.964C175.3 268.515 182.253 276.452 189.158 284.097C192.698 288.004 196.276 291.876 199.893 295.711C202.556 298.52 206.781 305.097 211.064 305.097H237.38C239.746 305.097 241.896 303.16 241.862 300.784C241.843 299.757 241.454 298.772 240.767 298.009C240.069 297.228 239.105 296.737 238.063 296.63L223.336 295.119L152.184 181.964C148.513 176.123 145.258 166.51 148.098 160.213C158.914 136.263 157.984 113.049 157.984 113.049" stroke="black" stroke-width="1.521" stroke-miterlimit="10"/>
<path d="M127.459 220.661C124.357 231.561 119.347 242.631 115.21 249.6C113.711 252.145 111.735 254.376 109.39 256.171C100.913 262.664 88.9308 261.971 80.8019 255.052L40.3737 220.64L20.3472 202.892L7.59109 218.531C6.9881 219.265 6.13161 219.746 5.19112 219.879C4.25067 220.012 3.29444 219.788 2.51122 219.251C1.72801 218.713 1.17474 217.902 0.960681 216.976C0.746626 216.051 0.887336 215.079 1.35499 214.252L17.0619 186.678C17.5557 185.806 18.3757 185.165 19.3417 184.897C20.3073 184.629 21.3403 184.755 22.213 185.248L30.6393 189.98L78.9192 217.02C79.7223 217.47 80.6207 217.722 81.5404 217.757C82.4605 217.791 83.3751 217.607 84.2096 217.218C85.0441 216.83 85.7749 216.25 86.341 215.524C86.9075 214.799 87.2935 213.949 87.4673 213.045L93.1862 183.058" stroke="black" stroke-width="1.521" stroke-miterlimit="10"/>
<path d="M148.098 67.9926V82.8646V83.5846V83.7671C149.629 85.9979 150.399 89.1751 148.939 91.5411C146.982 94.7149 142.663 94.1876 139.925 92.4131C139.119 91.8919 138.35 91.316 137.623 90.6893C135.186 88.5721 133.609 85.6359 133.188 82.4354C132.963 80.8505 133.008 79.2393 133.32 77.6696C134.179 73.3635 135.659 70.8893 138.36 67.4823C140.05 65.3529 142.686 60.2355 139.164 58.4712C135.037 56.4128 137.897 50.3896 142.652 53.4012C146.343 55.7435 151.647 52.8232 153.837 49.6832C156.392 46.0226 156.483 40.4761 152.485 37.789C150.305 36.3187 147.526 35.9638 144.92 36.2477C136.981 37.1197 131.329 43.3254 129.068 50.7073C128.115 53.8406 127.04 56.9434 125.783 59.9854C124.749 62.4799 124.029 65.5117 121.727 67.2152C117.333 70.4905 110.999 68.7768 106.04 68.1684C95.7178 66.9009 87.3928 71.474 81.7043 80.0356C77.0298 87.0829 81.9781 97.2432 74.1601 102.8C71.7941 104.473 69.0901 105.487 66.5044 106.785C62.8135 108.661 59.8323 111.328 58.7473 115.434C56.5571 123.709 60.4373 133.899 67.3156 138.898C70.4692 141.19 74.1601 142.559 77.9931 143.309" stroke="black" stroke-width="1.521" stroke-miterlimit="10"/>
<path d="M168.476 95.2323C168.496 95.043 168.503 94.8605 168.513 94.6813C168.685 91.4129 168.665 88.0261 167.6 84.8793C166.947 82.8628 165.724 81.0782 164.078 79.7417C162.625 78.5891 160.911 77.8422 159.194 77.1729C157.477 76.5037 155.774 75.9223 154.195 75.0165C152.859 74.2905 151.694 73.2866 150.778 72.0725C150.457 71.6365 150.257 71.1234 150.198 70.585C150.138 70.0469 150.222 69.5023 150.44 69.0068" stroke="black" stroke-width="1.521" stroke-miterlimit="10"/>
<path d="M144.897 64.6396C146.093 66.3499 147.716 68.1954 149.761 68.8613C152.407 69.7232 154.188 67.4755 155.138 65.2886C155.706 63.9873 156.098 62.6015 156.558 61.2563C156.706 60.8135 156.798 60.6005 157.305 60.5803C157.812 60.56 158.346 60.6614 158.866 60.6614C158.903 60.6604 158.94 60.6495 158.971 60.6303C159.002 60.611 159.029 60.5836 159.046 60.5509C159.063 60.5181 159.072 60.4816 159.071 60.4444C159.069 60.4075 159.058 60.3714 159.039 60.3403C158.339 59.2756 157.295 56.3722 156.767 55.2094C156.034 53.5972 156.564 52.5528 156.071 50.8594C155.735 49.8197 155.331 48.8033 154.861 47.8174" stroke="black" stroke-width="1.521" stroke-miterlimit="10"/>
<path d="M155.642 44.6909C155.642 44.6909 162.858 47.4591 159.13 55.7773C158.9 56.2809 158.336 57.3321 158.069 57.8053" stroke="black" stroke-width="1.521" stroke-miterlimit="10"/>
<path d="M233.48 20.9741C233.48 20.9741 233.521 20.9944 233.602 21.0248L233.48 20.9741Z" fill="#0BA5EC"/>
<path d="M155.243 65.0487C154.665 65.1281 154.079 64.9939 153.593 64.6718C153.107 64.3494 152.755 63.861 152.603 63.2979" stroke="black" stroke-width="1.521" stroke-miterlimit="10"/>
<path d="M156.463 53.9086C154.969 52.6918 153.33 54.2466 152.329 55.3755" stroke="black" stroke-width="1.521" stroke-miterlimit="10"/>
<path d="M133.199 82.4385C128.188 82.7559 123.239 83.7178 118.475 85.3013C110.701 87.8499 105.347 91.1386 98.9964 96.2931C96.2427 98.5455 93.6316 100.967 91.1784 103.543C76.8405 118.55 73.4503 132.631 77.9964 143.326C81.6908 152.039 90.2084 157.444 98.9355 160.199C104.644 161.997 110.593 162.771 116.562 162.943C123.677 163.146 130.853 162.876 137.856 161.524C140.807 160.956 144.207 160.489 145.968 157.748C147.729 155.007 147.878 151.309 146.57 148.372C145.343 145.638 142.031 142.697 139.036 144.843C138.704 145.083 138.431 145.395 138.237 145.756C138.043 146.117 137.934 146.517 137.917 146.925" stroke="black" stroke-width="1.521" stroke-miterlimit="10"/>
<path d="M127.787 100.521C128.159 111.73 118.661 117.979 118.661 117.979C115.511 120.531 112.449 123.272 109.873 126.412C108.227 128.417 106.699 130.661 105.942 133.172C105.376 134.885 105.386 136.735 105.969 138.442C106.615 140.02 107.681 141.39 109.052 142.403C111.614 144.407 114.73 145.445 117.82 146.344C121.224 147.318 124.691 148.057 128.196 148.555C130.224 148.845 131.079 148.217 132.006 146.462C132.844 144.874 133.53 143.035 135.081 141.997C137.231 140.554 140.118 140.22 142.605 140.814C146.441 141.727 147.422 144.769 144.295 145.384" stroke="black" stroke-width="1.521" stroke-miterlimit="10"/>
<path d="M125.445 176.562L67.1569 162.477L53.2854 219.883L109.958 233.971L111.776 233.136L125.445 176.562Z" fill="white"/>
<path d="M98.5504 168.491C101.315 149.137 107.308 144.351 111.208 143.394L110.952 143.252C99.1757 138.669 91.0096 161.345 89.2756 166.649L98.5504 168.491Z" fill="#D7E8F0"/>
<path d="M98.3879 170.025C101.153 150.671 107.308 144.337 111.208 143.394L110.951 143.252C99.1754 138.668 90.6714 162.437 88.9307 167.736L98.3879 170.025Z" fill="#D7E8F0"/>
<path d="M110.951 143.251C97.6342 138.073 88.9307 167.736 88.9307 167.736L98.3947 170.024C103.894 140.28 115.694 145.688 115.694 145.688C115.278 145.563 110.951 143.251 110.951 143.251Z" stroke="black" stroke-width="1.521" stroke-miterlimit="10"/>
<path d="M66.5075 165.213L53.2874 219.902L99.2726 231.018L112.493 176.33L66.5075 165.213Z" fill="#0BA5EC"/>
<path d="M67.2092 162.318L53.2883 219.904L101.708 231.609L115.629 174.023L67.2092 162.318Z" fill="white"/>
<path d="M67.4374 166.698L55.4479 216.294C55.1082 217.7 55.9725 219.115 57.3785 219.455L98.2718 229.341C99.6779 229.681 101.093 228.816 101.433 227.41L113.423 177.814C113.763 176.408 112.898 174.993 111.492 174.653L70.5991 164.767C69.193 164.427 67.7774 165.292 67.4374 166.698Z" fill="#0BA5EC"/>
<path d="M67.1663 162.498L53.2891 219.903L101.709 231.608L115.586 174.203L67.1663 162.498Z" stroke="black" stroke-width="1.521" stroke-miterlimit="10"/>
<path d="M115.789 174.249L101.912 231.654L111.578 233.99L125.455 176.585L115.789 174.249Z" fill="white"/>
<path d="M115.789 174.249L101.912 231.654L111.578 233.99L125.455 176.585L115.789 174.249Z" stroke="black" stroke-width="1.521" stroke-miterlimit="10"/>
<path d="M111.573 233.972L108.46 225.964L101.906 231.636" stroke="black" stroke-width="1.521" stroke-miterlimit="10"/>
<path d="M120.615 175.396L108.46 225.965" stroke="black" stroke-width="1.521" stroke-miterlimit="10"/>
<path d="M227.24 82.2734C227.058 82.3039 226.902 82.3343 226.703 82.3748C224.874 82.6939 223.141 83.422 221.633 84.5042C219.98 85.7819 218.479 88.0025 217.749 89.9122C216.645 92.8123 215.432 95.665 214.109 98.4704C212.112 102.795 209.737 106.935 207.011 110.841C204.182 114.816 200.785 118.845 196.506 121.319C195.969 121.644 195.403 121.919 194.816 122.141C194.096 122.445 183.966 110.79 182.851 109.493C178.379 104.291 173.755 99.1396 168.513 94.6882C167.185 93.5525 165.809 92.4574 164.396 91.4332C159.512 87.8491 153.978 85.2489 148.101 83.7775" stroke="black" stroke-width="1.521" stroke-miterlimit="10"/>
<path d="M245.465 81.8467C245.485 81.8517 245.506 81.8517 245.526 81.8467C250.211 82.3942 248.376 87.444 245.08 87.2817C241.44 87.0992 237.81 87.2817 234.18 87.3426C233.179 87.3098 232.183 87.493 231.259 87.88C229.434 88.752 229.262 90.6989 228.988 92.4633C228.623 94.7752 228.207 97.0871 227.717 99.3787C226.764 103.921 225.588 108.403 224.239 112.845C223.367 115.724 222.404 118.591 221.39 121.426C218.429 129.782 214.697 138.644 208.421 145.086C204.953 148.656 200.41 151.292 195.289 150.907C188.08 150.369 181.144 146.749 175.03 142.633C175.004 142.615 174.98 142.595 174.959 142.572C172.676 141.036 170.489 139.363 168.408 137.563C168.408 137.563 159.982 130.059 157.406 124.563" stroke="black" stroke-width="1.521" stroke-miterlimit="10"/>
<path d="M258.786 77.3053V77.7785C258.786 81.0436 256.156 81.6047 253.885 81.6588L209.921 82.6728C207.995 82.7235 206.376 81.0368 206.335 78.9311V78.8432C206.335 76.778 207.849 75.061 209.752 75.0137C209.752 75.0137 234.345 74.3208 253.392 73.7969C253.753 74.9495 254.639 75.8418 255.737 76.5381C256.655 77.09 257.716 77.357 258.786 77.3053Z" stroke="black" stroke-width="1.521" stroke-miterlimit="10"/>
<path d="M282.142 30.7857C282.141 31.3238 282.014 31.8541 281.77 32.3337L262.122 72.6402C261.891 73.106 261.562 73.5163 261.158 73.8428C260.754 74.1697 260.284 74.4049 259.78 74.533C258.968 74.7385 258.109 74.6496 257.356 74.2829C256.754 73.9868 256.248 73.5281 255.893 72.9589C255.539 72.3894 255.351 71.7323 255.352 71.0618C255.355 70.5253 255.477 69.9967 255.71 69.5137L275.368 29.2038C275.725 28.4839 276.315 27.9059 277.042 27.5632C277.769 27.2208 278.591 27.1339 279.373 27.3164C280.156 27.4993 280.854 27.9411 281.353 28.5701C281.854 29.1991 282.126 29.9785 282.128 30.7823L282.142 30.7857Z" stroke="black" stroke-width="1.521" stroke-miterlimit="10"/>
<path d="M228.677 22.4953C234.639 22.4953 239.473 17.6618 239.473 11.6995C239.473 5.73721 234.639 0.903809 228.677 0.903809C222.715 0.903809 217.881 5.73721 217.881 11.6995C217.881 17.6618 222.715 22.4953 228.677 22.4953Z" fill="#B453EC"/>
<path d="M225.246 15.4137C224.888 15.2797 224.553 15.0916 224.253 14.856C223.723 14.4565 223.359 13.8762 223.229 13.2255C223.099 12.5749 223.213 11.8993 223.55 11.3273C223.769 10.9558 224.071 10.6404 224.433 10.4058C224.795 10.1711 225.206 10.0238 225.635 9.9753C225.397 9.41716 225.348 8.79686 225.494 8.2082C225.641 7.61954 225.975 7.09456 226.446 6.71265C226.917 6.33075 227.5 6.11274 228.106 6.09154C228.713 6.07039 229.309 6.24719 229.806 6.5953C230.85 7.322 231.574 8.60302 232.016 9.7725C232.245 10.3866 232.413 11.0217 232.517 11.6687C232.567 12.0067 232.912 13.8657 232.642 14.055C230.857 15.292 227.535 16.2858 225.246 15.4137Z" fill="white"/>
<g opacity="0.72">
<path opacity="0.72" d="M219.568 45.0154C222.849 45.0154 225.51 42.3554 225.51 39.0734C225.51 35.7917 222.849 33.1313 219.568 33.1313C216.286 33.1313 213.626 35.7917 213.626 39.0734C213.626 42.3554 216.286 45.0154 219.568 45.0154Z" fill="#B453EC"/>
<path opacity="0.72" d="M220.744 41.5949C220.601 41.7504 220.434 41.8825 220.251 41.987C219.936 42.1708 219.564 42.2337 219.207 42.1634C218.849 42.0931 218.529 41.8947 218.307 41.605C218.162 41.4154 218.062 41.1947 218.017 40.9598C217.972 40.7252 217.982 40.4832 218.047 40.253C217.714 40.255 217.39 40.1493 217.122 39.9515C216.855 39.7535 216.659 39.4743 216.564 39.1555C216.468 38.8365 216.479 38.4954 216.594 38.1834C216.709 37.8711 216.923 37.6048 217.202 37.424C217.836 37.0731 218.558 36.9136 219.28 36.9643C219.642 36.9744 220.001 37.0221 220.352 37.1062C220.531 37.1468 221.552 37.3631 221.592 37.5389C221.853 38.7117 221.667 40.6147 220.744 41.5949Z" fill="white"/>
</g>
<path d="M253.019 26.1051L247.188 29.2136C245.073 30.3409 244.273 32.9698 245.4 35.0847L248.508 40.9159C249.636 43.0311 252.264 43.8318 254.379 42.7042L260.211 39.596C262.326 38.4684 263.127 35.8398 261.999 33.7246L258.891 27.8934C257.763 25.7785 255.135 24.9778 253.019 26.1051Z" fill="#B453EC"/>
<path d="M255.355 41.0473L259.577 38.7963C260.457 38.3237 261.115 37.5223 261.406 36.5668C261.697 35.611 261.599 34.579 261.132 33.6958L258.428 28.6258C257.956 27.745 257.154 27.0869 256.199 26.7956C255.243 26.5042 254.21 26.6033 253.327 27.071L253.043 27.2231C251.989 28.6867 250.586 31.1913 252.705 31.9788C255.747 33.1179 254.858 34.8248 253.719 37.0116C252.753 38.847 252.506 40.9933 255.355 41.0473Z" fill="white"/>
<path d="M248.781 34.9095C249.662 34.9095 250.377 34.1949 250.377 33.3141C250.377 32.4329 249.662 31.7188 248.781 31.7188C247.9 31.7188 247.186 32.4329 247.186 33.3141C247.186 34.1949 247.9 34.9095 248.781 34.9095Z" fill="white"/>
<path d="M229.13 61.5367C229.721 61.824 230.35 62.0245 230.999 62.1316C232.19 62.3141 233.407 62.1847 234.533 61.7557C235.659 61.3268 236.654 60.6133 237.421 59.6845C238.013 58.9476 238.455 58.0249 239.077 57.2813C239.502 56.7388 240.072 56.3268 240.72 56.0915C240.942 56.0442 241.15 55.9432 241.325 55.7975C241.751 55.3581 241.028 54.9863 240.882 54.6314C240.664 54.0588 240.664 53.4261 240.882 52.8535C241.437 51.3484 241.453 49.6973 240.926 48.1817C240.4 46.6661 239.364 45.38 237.996 44.5428C236.627 43.7052 235.011 43.3685 233.422 43.5896C231.833 43.811 230.37 44.5766 229.282 45.7555C228.207 46.9148 227.562 48.3953 226.892 49.8115C226.297 51.0722 225.665 52.3262 225.338 53.6816C224.577 56.8926 226.294 60.1543 229.13 61.5367Z" fill="#B453EC"/>
<path d="M235.166 50.1298C235.997 50.1298 236.671 49.4565 236.671 48.6257C236.671 47.7949 235.997 47.1216 235.166 47.1216C234.336 47.1216 233.662 47.7949 233.662 48.6257C233.662 49.4565 234.336 50.1298 235.166 50.1298Z" fill="white"/>
<path d="M233.196 54.2807C234.027 54.2807 234.7 53.6074 234.7 52.7766C234.7 51.9461 234.027 51.2725 233.196 51.2725C232.365 51.2725 231.692 51.9461 231.692 52.7766C231.692 53.6074 232.365 54.2807 233.196 54.2807Z" fill="white"/>
<path d="M231.347 58.1742C232.178 58.1742 232.851 57.5006 232.851 56.6701C232.851 55.8393 232.178 55.166 231.347 55.166C230.516 55.166 229.843 55.8393 229.843 56.6701C229.843 57.5006 230.516 58.1742 231.347 58.1742Z" fill="white"/>
<g opacity="0.54">
<path opacity="0.54" d="M195.242 67.665C195.699 67.6045 196.151 67.5109 196.594 67.3845L201.684 65.9514C203.242 65.512 204.882 65.0252 205.987 63.8389C208.035 61.6385 207.373 58.1436 206.578 55.2435C205.932 52.8708 205.284 50.498 204.635 48.1252C204.189 46.4893 203.729 44.8264 202.84 43.3932C201.951 41.9601 200.545 40.7298 198.869 40.4662C197.635 40.2735 196.384 40.6047 195.178 40.9326L190.293 42.2846C188.691 42.7206 187.001 43.2107 185.879 44.4377C183.885 46.6178 184.527 50.0383 185.291 52.8877L187.241 60.1716C188.438 64.5487 190.679 68.2396 195.242 67.665Z" fill="#B453EC"/>
<path opacity="0.54" d="M194.904 57.7313C195.205 58.0257 195.579 58.2353 195.987 58.3394C196.396 58.4435 196.824 58.4381 197.23 58.3242C197.635 58.21 198.004 57.9913 198.298 57.6894C198.592 57.3879 198.802 57.0141 198.906 56.6058L199.474 54.3818L200.038 52.1543C200.142 51.746 200.136 51.3175 200.021 50.9122C199.907 50.5066 199.688 50.1385 199.386 49.8448C199.084 49.5507 198.711 49.3415 198.302 49.2377C197.894 49.1343 197.465 49.1397 197.06 49.2543L194.853 49.8762L192.643 50.4981C192.238 50.6134 191.871 50.8334 191.577 51.1356C191.284 51.4378 191.076 51.812 190.973 52.2203C190.871 52.6282 190.877 53.0565 190.992 53.4614C191.107 53.8663 191.327 54.2337 191.629 54.5271L193.275 56.1292L194.904 57.7313Z" fill="white"/>
</g>
</svg>
