<svg width="934" height="238" viewBox="0 0 934 238" fill="none" xmlns="http://www.w3.org/2000/svg">
<g clip-path="url(#clip0_4926_48965)">
<path d="M217.687 237.417C221.57 237.417 225.346 237.243 229.014 236.897C253.784 234.613 273.368 224.848 286.391 211.215C293.28 204.109 298.49 195.55 301.637 186.167C304.602 177.284 305.466 167.835 304.163 158.562C295.164 94.6391 219.578 125.723 251.265 86.8445C282.952 47.9655 220.92 -1.48299 197.118 10.2197C173.316 21.9223 199.565 46.9515 140.745 35.119C81.9246 23.2864 94.0964 75.2754 94.0964 75.2754" stroke="#D0D5DD" stroke-width="1.73934" stroke-miterlimit="10"/>
<path d="M59.3239 182.248C59.3239 182.248 32.3858 162.931 21.9858 184.294C21.9858 184.294 32.9235 145.531 70.2291 131.666C70.2291 131.666 80.8925 125.734 81.3616 129.317C81.8307 132.901 84.9233 134.73 86.2765 134.687C87.6297 134.643 99.0545 135.358 99.4515 133.651C99.8484 131.944 99.0906 126.831 104.756 126.795C110.422 126.759 141.163 134.311 149.954 142.294C149.954 142.294 134.653 160.766 142.834 181.133L135.942 179.462C135.942 179.462 140.192 216.27 134.397 237.68H34.2947C34.2947 237.68 44.3014 238.939 54.5642 231.617L69.4677 212.492C69.4677 212.492 76.0029 202.59 89.3546 201.175C89.3546 201.175 96.9543 200.345 96.8822 196.733C96.81 193.121 99.6211 199.046 103.378 193.824C103.836 193.824 112.966 194.351 112.966 194.351C112.966 194.351 119.822 194.994 121.11 188.873C122.399 182.753 127.147 139.797 125.441 137.216C123.734 134.636 123.081 134.604 108.675 134.69C94.2695 134.777 81.6106 131.905 79.7774 139.071C77.9443 146.238 75.826 173.393 75.826 173.393C75.826 173.393 67.7067 175.518 61.5216 184.312C61.5432 184.309 59.3239 188.596 59.3239 182.248Z" fill="#0E0E19"/>
<path d="M59.324 169.203V186.112" stroke="#101828" stroke-width="1.73934" stroke-miterlimit="10"/>
<path d="M135.48 177.658C151.376 186.102 195.307 203.355 196.865 136.997C196.865 136.997 194.975 119.571 199.904 117.297C204.833 115.024 212.783 107.825 202.545 90.3953L209.225 83.7303C210.127 82.8014 210.624 81.5521 210.606 80.257C210.587 78.9622 210.055 77.7277 209.126 76.8252C208.197 75.9227 206.948 75.4262 205.653 75.4446C204.358 75.4634 203.123 75.9956 202.221 76.9245L188.945 90.998C188.945 90.998 187.021 87.3894 183.611 89.2695C180.201 91.1495 167.694 99.1281 173.374 115.789L158.6 158.226" stroke="#101828" stroke-width="1.73934" stroke-miterlimit="10"/>
<path d="M188.927 90.9893C188.927 90.9893 192.467 96.3769 184.932 101.884" stroke="#101828" stroke-width="1.73934" stroke-miterlimit="10"/>
<path d="M204.725 94.5811C204.725 94.5811 206.93 101.506 198.035 105.973C194.888 107.554 191.434 104.227 192.921 101.033C192.946 100.986 192.968 100.936 192.993 100.885" stroke="#101828" stroke-width="1.73934" stroke-miterlimit="10"/>
<path d="M207.417 103.133C207.417 103.133 205.472 109.896 200.149 110.22C195.44 110.505 196.23 105.702 196.23 105.702" stroke="#101828" stroke-width="1.73934" stroke-miterlimit="10"/>
<path d="M116.358 98.8971C115.997 98.9909 115.77 98.6914 115.434 98.7492C110.609 97.8687 107.022 94.058 106.618 92.2248C106.755 93.2244 108.588 93.1234 108.278 94.1446C108.22 94.3395 108.105 94.2637 108.011 94.4513C107.86 94.8122 107.863 94.3178 107.65 94.6426C106.467 92.8924 105.781 92.0227 105.572 91.0592C105.714 92.0935 105.63 93.1461 105.326 94.1446C105.271 94.3398 105.197 94.5296 105.106 94.7112C104.384 96.4144 102.88 97.8542 100.364 98.2115C99.734 98.2912 99.0971 98.3118 98.4627 98.2728C96.6584 98.1682 95.0995 98.0635 93.7716 98.0058C89.333 97.8073 87.7416 98.1429 88.2396 101.008C88.5142 102.304 88.9032 103.573 89.4016 104.801C90.2821 107.117 90.8955 111.13 89.9934 115.5V115.526C88.9469 120.614 85.6342 124.547 78.5361 128.242C77.2785 128.891 75.9819 129.461 74.6533 129.949C62.3371 134.518 32.8766 146.09 20.6651 188.527C19.3661 193.049 18.3954 197.163 17.7097 200.919L17.3742 200.724C9.03469 195.726 3.59655 184.515 5.24928 174.869C6.07204 170.08 9.18986 166.739 13.1882 164.223C15.9957 162.484 18.998 161.059 21.5131 158.912C29.849 151.792 23.1839 140.721 27.7993 132.208C33.0029 122.631 41.1511 116.727 51.7892 116.24C54.4668 116.355 57.48 116.669 60.4029 116.529C64.6466 116.68 68.9842 116.334 72.0912 113.552C74.5378 111.386 75.0466 107.857 75.974 104.913C77.0183 101.592 77.8891 98.2194 78.583 94.8086C79.2178 91.5746 80.4017 88.4733 82.0834 85.6392C83.8988 82.5679 86.4591 80.0036 89.5279 78.1838C92.2047 76.6729 95.1894 75.7881 98.257 75.5964C101.051 75.761 103.768 76.5715 106.196 77.9637C107.025 78.4537 107.809 79.0163 108.538 79.6453C113.911 84.2282 116.484 91.9867 116.358 98.8971Z" fill="#1D2939"/>
<path d="M197.883 109.816C197.883 109.816 196.162 111.952 197.104 113.98C198.045 116.008 200.384 116.481 202.657 115.594" stroke="#101828" stroke-width="1.73934" stroke-miterlimit="10"/>
<path d="M202.538 90.3945L197.782 95.147" stroke="#101828" stroke-width="1.73934" stroke-miterlimit="10"/>
<path d="M75.8442 172.927L79.7163 139.548C79.8729 138.197 80.5206 136.951 81.5357 136.047C82.5512 135.143 83.8632 134.643 85.223 134.644H120.782C121.56 134.643 122.329 134.807 123.04 135.123C123.751 135.44 124.387 135.902 124.907 136.481C125.427 137.06 125.82 137.742 126.059 138.482C126.298 139.222 126.379 140.004 126.296 140.778L121.114 188.877C120.967 190.237 120.323 191.495 119.305 192.408C118.287 193.323 116.968 193.828 115.6 193.828H102.876" stroke="#101828" stroke-width="1.73934" stroke-miterlimit="10"/>
<path d="M117.874 143.145C118.675 143.145 119.324 142.496 119.324 141.694C119.324 140.893 118.675 140.244 117.874 140.244C117.072 140.244 116.423 140.893 116.423 141.694C116.423 142.496 117.072 143.145 117.874 143.145Z" fill="#101828"/>
<path d="M93.9268 180.672C97.6797 181.516 98.4303 181.53 102.071 182.072C104.366 182.414 109.613 182.7 109.707 179.138C109.794 176.009 106.283 174.172 103.803 173.173C100.942 172.085 97.9482 171.384 94.9011 171.091C93.6453 170.946 92.3834 170.847 91.1157 170.795C82.3288 170.434 72.1922 172.559 66.1406 179.434C52.1212 195.34 33.4792 205.567 33.4792 205.567" stroke="#101828" stroke-width="1.73934" stroke-miterlimit="10"/>
<path d="M103.977 182.247C105.781 183.012 108.837 184.643 107.585 187.768C107.015 189.212 105.979 189.724 104.558 189.934C101.487 190.377 98.1922 189.724 95.1754 189.093C94.0603 188.858 92.0828 188.429 90.9822 188.126" stroke="#101828" stroke-width="1.73934" stroke-miterlimit="10"/>
<path d="M100.769 190.006C100.769 190.006 104.049 189.966 103.259 193.015C101.956 198.067 91.8338 195.78 87.0994 194.719" stroke="#101828" stroke-width="1.73934" stroke-miterlimit="10"/>
<path d="M100.971 127.068C116.394 127.743 139.897 132.265 161.209 150.701" stroke="#101828" stroke-width="1.73934" stroke-miterlimit="10"/>
<path d="M217.687 237.419L34.2949 237.693" stroke="#101828" stroke-width="1.73934" stroke-miterlimit="10"/>
<path d="M135.48 170.758C135.48 170.758 139.088 204.343 135.48 237.419" stroke="#101828" stroke-width="1.73934" stroke-miterlimit="10"/>
<path opacity="0.54" d="M294.734 155.418L326.45 74.1486C326.843 72.576 326.873 70.9348 326.537 69.3492C326.201 67.7636 325.508 66.2754 324.51 64.9976C323.513 63.7202 322.238 62.6863 320.781 61.9754C319.325 61.2642 317.725 60.8946 316.104 60.8943H190.11C187.282 60.8939 184.535 61.8459 182.313 63.5971C180.091 65.348 178.523 67.7964 177.863 70.5473L143.134 151.798C142.757 153.366 142.74 155 143.085 156.575C143.431 158.151 144.129 159.627 145.127 160.894C146.125 162.161 147.398 163.185 148.849 163.889C150.3 164.593 151.892 164.959 153.505 164.959H282.512C285.322 164.959 288.05 164.02 290.265 162.291C292.48 160.563 294.053 158.143 294.734 155.418Z" fill="white"/>
<path d="M294.734 155.418L326.45 74.1486C326.843 72.576 326.873 70.9348 326.537 69.3492C326.201 67.7636 325.508 66.2754 324.51 64.9976C323.513 63.7202 322.238 62.6863 320.781 61.9754C319.325 61.2642 317.725 60.8946 316.104 60.8943H190.11C187.282 60.8939 184.535 61.8459 182.313 63.5971C180.091 65.348 178.523 67.7964 177.863 70.5473L143.134 151.798C142.757 153.366 142.74 155 143.085 156.575C143.431 158.151 144.129 159.627 145.127 160.894C146.125 162.161 147.398 163.185 148.849 163.889C150.3 164.593 151.892 164.959 153.505 164.959H282.512C285.322 164.959 288.05 164.02 290.265 162.291C292.48 160.563 294.053 158.143 294.734 155.418Z" fill="#B453EC"/>
<path d="M294.734 155.418L326.45 74.1486C326.843 72.576 326.873 70.9348 326.537 69.3492C326.201 67.7636 325.508 66.2754 324.51 64.9976C323.513 63.7202 322.238 62.6863 320.781 61.9754C319.325 61.2642 317.725 60.8946 316.104 60.8943H190.11C187.282 60.8939 184.535 61.8459 182.313 63.5971C180.091 65.348 178.523 67.7964 177.863 70.5473L143.134 151.798C142.757 153.366 142.74 155 143.085 156.575C143.431 158.151 144.129 159.627 145.127 160.894C146.125 162.161 147.398 163.185 148.849 163.889C150.3 164.593 151.892 164.959 153.505 164.959H282.512C285.322 164.959 288.05 164.02 290.265 162.291C292.48 160.563 294.053 158.143 294.734 155.418Z" stroke="#101828" stroke-width="1.73934" stroke-linecap="square" stroke-linejoin="round"/>
<path d="M290.094 152.127L319.356 77.1517C319.718 75.7014 319.745 74.1876 319.435 72.7254C319.125 71.2628 318.486 69.8905 317.566 68.7119C316.647 67.5337 315.471 66.58 314.128 65.9239C312.784 65.2679 311.309 64.9265 309.814 64.9258H193.571C190.961 64.9251 188.427 65.8034 186.377 67.419C184.327 69.0349 182.881 71.2935 182.272 73.8318L150.232 148.789C149.884 150.236 149.869 151.743 150.188 153.196C150.507 154.649 151.151 156.012 152.072 157.18C152.993 158.349 154.168 159.293 155.506 159.943C156.845 160.592 158.314 160.929 159.802 160.929H278.82C281.411 160.927 283.928 160.061 285.97 158.466C288.012 156.872 289.464 154.641 290.094 152.127Z" fill="#B453EC"/>
<path d="M201.957 78.7099C203.498 76.3968 206.021 75.3684 207.59 76.4113C209.16 77.4541 209.182 80.1786 207.641 82.4918C207.402 82.8472 207.131 83.1806 206.833 83.4877L218.254 107.6C220.058 106.384 222.079 106.085 223.515 107.041C224.442 107.658 224.958 108.708 225.121 109.928L232.923 107.294L239.747 105.013C240.468 104.764 241.23 104.526 241.973 104.291C242.253 103.453 242.643 102.656 243.131 101.92C245.297 98.6727 248.837 97.2292 251.038 98.6727C253.239 100.116 253.268 103.894 251.164 107.124L264.155 124.889C266.988 122.565 270.326 121.847 272.639 123.384C275.785 125.477 275.832 130.941 272.743 135.585C272.621 135.769 272.48 135.921 272.35 136.097L281.011 147.93C281.036 147.966 281.068 148.009 281.09 148.045C281.309 148.376 281.461 148.746 281.537 149.135C281.613 149.523 281.611 149.924 281.532 150.312C281.454 150.701 281.299 151.069 281.077 151.398C280.856 151.727 280.572 152.009 280.242 152.228C279.912 152.446 279.542 152.598 279.153 152.674C278.764 152.75 278.363 152.749 277.975 152.67C277.587 152.591 277.218 152.437 276.889 152.215C276.561 151.994 276.279 151.71 276.06 151.38L268.37 139.778C265.938 141.189 263.354 141.46 261.459 140.197C258.45 138.198 258.305 133.131 260.987 128.649L248.533 109.859C246.697 111.108 244.669 111.425 243.214 110.462C242.402 109.889 241.848 109.019 241.673 108.041C241.363 108.124 241.056 108.214 240.746 108.3L233.807 110.195L224.926 112.587C224.654 113.652 224.205 114.663 223.598 115.579C221.433 118.827 217.896 120.27 215.692 118.809C213.487 117.347 213.454 113.518 215.616 110.267C215.938 109.795 216.3 109.352 216.698 108.943L205.826 84.3574C204.516 85.2487 203.069 85.4797 202.033 84.7904C200.442 83.7511 200.416 81.0266 201.957 78.7099Z" fill="white"/>
<path d="M284.666 80.0412H301.515C302.285 80.0412 303.04 79.8164 303.685 79.3949C304.33 78.973 304.839 78.3726 305.148 77.6667C305.247 77.4502 305.3 77.2156 305.304 76.9775C305.3 76.5174 305.114 76.0775 304.788 75.7531C304.462 75.4287 304.021 75.2464 303.561 75.2454H285.637C286.492 76.6708 286.066 78.641 284.666 80.0412Z" fill="#D7E8F0"/>
<path d="M273.772 78.3127C273.773 78.7717 273.956 79.2112 274.281 79.5352C274.605 79.8593 275.045 80.0412 275.504 80.0412H284.666C286.066 78.641 286.492 76.6708 285.651 75.2454H277.561C276.791 75.245 276.037 75.4687 275.392 75.8888C274.747 76.3092 274.238 76.9082 273.927 77.6126C273.829 77.8334 273.776 78.0712 273.772 78.3127Z" fill="#B453EC"/>
<path d="M277.987 80.0411C278.034 80.1338 278.09 80.2219 278.153 80.3045C279.354 81.9464 281.96 82.1088 283.988 80.6221C284.228 80.4452 284.454 80.2511 284.666 80.0411C286.066 78.641 286.492 76.6707 285.651 75.2453C285.604 75.154 285.548 75.067 285.485 74.9854C284.294 73.3327 281.689 73.1811 279.661 74.6571C279.418 74.8368 279.188 75.0334 278.972 75.2453C277.582 76.649 277.157 78.6085 277.987 80.0411Z" fill="white"/>
<path d="M269.535 88.8869C269.539 89.3467 269.724 89.7862 270.051 90.1099C270.377 90.4336 270.819 90.6154 271.278 90.6154H288.96C288.105 89.172 288.531 87.2234 289.935 85.8232H273.335C272.564 85.8232 271.81 86.048 271.165 86.4695C270.52 86.8914 270.011 87.4918 269.701 88.1977C269.6 88.4138 269.544 88.6484 269.535 88.8869Z" fill="#B453EC"/>
<path d="M288.957 90.6154H297.256C298.026 90.6162 298.779 90.3932 299.425 89.9735C300.07 89.5538 300.579 88.9555 300.89 88.2518C300.99 88.0317 301.043 87.7932 301.045 87.5518C301.046 87.3244 301.001 87.0996 300.915 86.8896C300.828 86.6796 300.701 86.489 300.54 86.3284C300.38 86.1679 300.189 86.0405 299.979 85.9539C299.769 85.8669 299.544 85.8225 299.317 85.8233H289.931C288.524 87.2234 288.101 89.1828 288.957 90.6154Z" fill="#D7E8F0"/>
<path d="M288.957 90.615C288.994 90.7096 289.045 90.7983 289.108 90.8784C290.303 92.5312 292.908 92.6827 294.933 91.2068C295.178 91.0286 295.408 90.8308 295.622 90.615C297.011 89.2149 297.426 87.2554 296.607 85.8228C296.561 85.7301 296.506 85.642 296.445 85.5594C295.239 83.9175 292.634 83.7551 290.609 85.2418C290.368 85.4168 290.141 85.611 289.931 85.8228C288.524 87.2229 288.101 89.1824 288.957 90.615Z" fill="white"/>
<path d="M283.068 101.116H293.652C294.422 101.117 295.175 100.893 295.82 100.473C296.466 100.053 296.975 99.4535 297.285 98.7491C297.385 98.5326 297.438 98.2977 297.441 98.0599C297.439 97.5984 297.254 97.1567 296.928 96.8308C296.601 96.505 296.159 96.3213 295.698 96.3206H284.053C284.883 97.7532 284.457 99.7126 283.068 101.116Z" fill="#B453EC"/>
<path d="M265.912 99.3951C265.914 99.8527 266.097 100.291 266.422 100.614C266.747 100.937 267.187 101.117 267.644 101.116H283.068C284.457 99.7126 284.872 97.7532 284.053 96.3206H269.701C268.931 96.3206 268.176 96.5454 267.531 96.9669C266.886 97.3887 266.377 97.9888 266.068 98.695C265.969 98.9151 265.916 99.1533 265.912 99.3951Z" fill="#D7E8F0"/>
<path d="M276.388 101.116C276.436 101.207 276.491 101.294 276.554 101.376C277.745 103.028 280.35 103.18 282.378 101.704C282.622 101.524 282.852 101.328 283.068 101.116C284.457 99.7121 284.872 97.7526 284.053 96.32C284.005 96.2272 283.949 96.1392 283.887 96.0566C282.685 94.4146 280.08 94.2739 278.052 95.739C277.812 95.9158 277.585 96.11 277.373 96.32C275.973 97.7201 275.533 99.6904 276.388 101.116Z" fill="white"/>
<path d="M214.641 150.643H225.225C225.995 150.644 226.749 150.42 227.394 150C228.039 149.579 228.548 148.981 228.859 148.276C228.98 148.012 229.032 147.723 229.01 147.434C228.989 147.144 228.895 146.866 228.736 146.623C228.577 146.381 228.36 146.182 228.104 146.046C227.847 145.911 227.561 145.842 227.271 145.847H215.63C216.456 147.28 216.031 149.239 214.641 150.643Z" fill="#B453EC"/>
<path d="M172.623 148.923C172.623 149.149 172.669 149.374 172.756 149.583C172.843 149.792 172.97 149.982 173.131 150.142C173.291 150.302 173.482 150.428 173.691 150.515C173.9 150.601 174.125 150.645 174.352 150.644H214.641C216.031 149.241 216.446 147.281 215.627 145.849H176.412C175.641 145.849 174.887 146.073 174.242 146.495C173.596 146.917 173.088 147.517 172.778 148.223C172.679 148.443 172.626 148.681 172.623 148.923Z" fill="#D7E8F0"/>
<path d="M207.962 150.644C208.01 150.735 208.065 150.822 208.128 150.903C209.319 152.56 211.924 152.708 213.952 151.232C214.195 151.052 214.426 150.855 214.641 150.644C216.031 149.24 216.446 147.28 215.627 145.848C215.579 145.755 215.524 145.667 215.461 145.584C214.255 143.942 211.65 143.802 209.625 145.267C209.386 145.444 209.159 145.638 208.947 145.848C207.547 147.248 207.121 149.218 207.962 150.644Z" fill="white"/>
<path d="M18.3122 202.622C16.9684 202.092 15.6688 201.456 14.4258 200.72C6.07911 195.722 0.640958 184.514 2.2973 174.864C3.12367 170.076 6.24149 166.738 10.2542 164.219C13.0581 162.48 16.0749 161.058 18.5793 158.911C26.9152 151.791 20.2465 140.716 24.8619 132.207C30.4733 121.887 39.4947 115.835 51.3814 116.228C57.0866 116.416 64.4951 117.726 69.1538 113.551C71.6004 111.386 72.1128 107.857 73.0402 104.912C74.0856 101.591 74.9575 98.2187 75.6528 94.8078C76.2775 91.5742 77.4542 88.4726 79.1315 85.6384C80.9466 82.5639 83.5069 79.9964 86.576 78.1722C92.3498 74.8415 100.401 74.5348 106.203 77.9593C107.029 78.4505 107.812 79.012 108.542 79.6373C113.911 84.2419 116.48 91.9968 116.358 98.9108" stroke="#101828" stroke-width="1.73934" stroke-miterlimit="10"/>
<path d="M105.453 90.448C105.752 92.4832 106.99 94.3597 109.188 94.9227C111.67 95.5542 112.987 97.9719 113.687 100.401C114.682 103.964 114.428 107.76 112.966 111.158C111.609 114.355 109.191 118.014 105.103 118.588C97.622 119.67 93.8979 116.502 93.8979 116.502" stroke="#101828" stroke-width="1.73934" stroke-miterlimit="10"/>
<path d="M99.2207 101.322C99.9301 101.322 100.505 100.746 100.505 100.037C100.505 99.3274 99.9301 98.7522 99.2207 98.7522C98.5112 98.7522 97.936 99.3274 97.936 100.037C97.936 100.746 98.5112 101.322 99.2207 101.322Z" fill="#101828"/>
<path d="M110.519 100.47C111.228 100.47 111.804 99.8949 111.804 99.185C111.804 98.4756 111.228 97.9004 110.519 97.9004C109.81 97.9004 109.234 98.4756 109.234 99.185C109.234 99.8949 109.81 100.47 110.519 100.47Z" fill="#101828"/>
<path d="M96.2399 196.151C98.1092 197.298 96.6008 199.189 95.244 199.828C92.9128 200.911 89.8996 201.102 87.3592 201.405C68.0424 203.678 61.5938 230.194 49.469 235.124C37.3441 240.053 4.80536 243.654 20.676 188.522C32.8947 146.092 62.3553 134.52 74.6714 129.951C75.9972 129.464 77.2912 128.895 78.547 128.248C85.6451 124.56 88.9686 120.612 90.0115 115.52C90.0115 115.52 90.0115 115.52 90.0115 115.499C90.9137 111.129 90.3074 107.116 89.4233 104.796C88.9163 103.57 88.5226 102.301 88.2469 101.003C87.5901 97.3115 90.4409 97.8312 98.4448 98.2714C102.118 98.4879 104.197 96.828 105.092 94.7134C105.179 94.53 105.251 94.3391 105.305 94.1432C105.681 92.9459 105.726 91.6688 105.435 90.448" stroke="#101828" stroke-width="1.73934" stroke-miterlimit="10"/>
<path d="M104.756 100.348C104.756 100.348 106.106 105.281 105.969 106.01C105.832 106.739 104.103 106.176 104.103 106.176" stroke="#101828" stroke-width="1.73934" stroke-miterlimit="10"/>
<path d="M103.825 110.693C101.238 112.086 98.2463 111.209 97.0771 108.889" stroke="#101828" stroke-width="1.73934" stroke-miterlimit="10"/>
<path d="M101.284 105.286C103.693 103.011 103.847 99.2596 101.627 96.9075C99.4063 94.5554 95.6527 94.493 93.2425 96.7682C90.8327 99.0434 90.679 102.795 92.8993 105.147C95.1197 107.499 98.8733 107.561 101.284 105.286Z" stroke="#101828" stroke-width="1.73934" stroke-miterlimit="10"/>
<path d="M116.27 103.919C118.68 101.643 118.834 97.8922 116.614 95.5401C114.393 93.188 110.64 93.1256 108.229 95.4008C105.819 97.676 105.665 101.427 107.886 103.779C110.106 106.131 113.86 106.194 116.27 103.919Z" stroke="#101828" stroke-width="1.73934" stroke-miterlimit="10"/>
<path d="M112.374 95.5441C113.388 95.5376 114.366 95.9193 115.108 96.6111C115.849 97.3029 116.298 98.2523 116.362 99.2645C116.426 100.367 116.061 101.451 115.342 102.289C114.623 103.127 113.607 103.654 112.508 103.757C112.381 103.757 112.251 103.757 112.125 103.757C111.117 103.764 110.144 103.388 109.403 102.703C108.662 102.019 108.21 101.079 108.138 100.073C108.068 98.9675 108.431 97.8788 109.151 97.0369C109.87 96.1947 110.889 95.666 111.992 95.5621C112.118 95.5621 112.248 95.5621 112.374 95.5621V95.5441ZM112.374 94.6924C112.222 94.6924 112.067 94.6924 111.912 94.7141C110.588 94.84 109.364 95.4741 108.498 96.4837C107.632 97.4931 107.191 98.799 107.268 100.127C107.349 101.358 107.896 102.513 108.799 103.354C109.702 104.196 110.891 104.661 112.125 104.656C112.277 104.656 112.432 104.656 112.587 104.634C113.912 104.51 115.136 103.876 116.002 102.866C116.868 101.856 117.307 100.549 117.228 99.2212C117.155 97.9845 116.612 96.8222 115.709 95.9738C114.807 95.1255 113.613 94.6553 112.374 94.6599V94.6924Z" fill="white"/>
<path d="M103.183 100.491L106.33 100.202" stroke="#101828" stroke-width="1.73934" stroke-miterlimit="10"/>
<path d="M97.3912 96.7967C98.4358 96.7866 99.4448 97.1781 100.209 97.8908C100.973 98.6031 101.435 99.5821 101.498 100.625C101.565 101.761 101.189 102.879 100.449 103.742C99.7082 104.606 98.661 105.149 97.5283 105.255C97.3984 105.255 97.2649 105.255 97.1349 105.255C96.0892 105.265 95.0799 104.872 94.3152 104.159C93.5505 103.446 93.0886 102.466 93.0248 101.423C92.958 100.288 93.3344 99.1711 94.0749 98.3079C94.8153 97.4451 95.8622 96.9031 96.9942 96.7967C97.1259 96.7833 97.2587 96.7775 97.3912 96.7786V96.7967ZM97.3912 95.9089C97.2324 95.9089 97.0736 95.9162 96.9148 95.9306C95.55 96.0572 94.2888 96.7126 93.4004 97.7562C92.5116 98.7998 92.0663 100.149 92.1587 101.517C92.2413 102.778 92.8021 103.961 93.727 104.823C94.6515 105.686 95.8705 106.163 97.1349 106.157C97.2901 106.157 97.4489 106.157 97.6077 106.136C98.9659 106.008 100.222 105.357 101.109 104.321C101.997 103.285 102.446 101.944 102.364 100.582C102.282 99.3205 101.722 98.138 100.798 97.2755C99.8735 96.4131 98.6552 95.936 97.3912 95.9414V95.9089Z" fill="white"/>
<path d="M115.701 103.314C117.767 101.363 117.898 98.145 115.992 96.1264C114.086 94.1074 110.866 94.0525 108.799 96.0033C106.733 97.9541 106.602 101.172 108.508 103.191C110.414 105.21 113.634 105.265 115.701 103.314Z" fill="#60BAAF"/>
<path d="M101.797 104.893C103.882 102.923 104.013 99.6753 102.089 97.64C100.165 95.6044 96.9152 95.5521 94.8305 97.5227C92.7454 99.493 92.6152 102.741 94.5389 104.776C96.4627 106.811 99.7122 106.864 101.797 104.893Z" fill="#60BAAF"/>
<path d="M84.541 134.686C82.9532 133.03 81.5747 130.594 80.6689 127.068" stroke="#101828" stroke-width="1.73934" stroke-miterlimit="10"/>
<path d="M99.2207 134.644L100.971 127.069L102.873 118.906" stroke="#101828" stroke-width="1.73934" stroke-miterlimit="10"/>
<path d="M106.375 164.803C107.047 161.502 105.228 158.345 102.31 157.75C99.3924 157.155 96.4821 159.349 95.8095 162.649C95.1368 165.95 96.9566 169.107 99.8742 169.701C102.792 170.296 105.702 168.103 106.375 164.803Z" fill="#12B76A"/>
<path d="M218.001 218.5L215.042 235.034C214.959 235.498 214.715 235.919 214.354 236.221C213.993 236.524 213.536 236.69 213.064 236.69H197.587C197.111 236.691 196.65 236.522 196.286 236.214C195.923 235.906 195.68 235.479 195.602 235.009L192.896 218.5H218.001Z" stroke="#D0D5DD" stroke-width="1.73934" stroke-miterlimit="10"/>
<path d="M220.816 216.651C220.774 217.154 220.545 217.623 220.174 217.965C219.803 218.308 219.317 218.498 218.813 218.499H192.109C191.611 218.499 191.131 218.315 190.761 217.981C190.392 217.648 190.158 217.19 190.107 216.695C190.08 216.416 190.112 216.134 190.2 215.868C190.289 215.602 190.432 215.358 190.621 215.151C190.809 214.943 191.039 214.778 191.296 214.665C191.552 214.551 191.829 214.493 192.109 214.493H218.813C219.089 214.494 219.362 214.551 219.615 214.662C219.869 214.772 220.096 214.934 220.284 215.136C220.472 215.339 220.616 215.578 220.708 215.838C220.799 216.099 220.836 216.376 220.816 216.651Z" stroke="#D0D5DD" stroke-width="1.73934" stroke-miterlimit="10"/>
<path d="M206.302 214.466C206.302 213.618 208.467 203.055 206.663 193.691C205.681 188.552 203.516 183.778 199.157 181.162" stroke="#D0D5DD" stroke-width="1.73934" stroke-miterlimit="10"/>
<path d="M206.67 193.705C206.67 193.705 207.164 186.589 213.313 186.098" stroke="#D0D5DD" stroke-width="1.73934" stroke-miterlimit="10"/>
<path d="M207.33 204.564C209.08 203.338 211.187 202.729 213.321 202.831" stroke="#D0D5DD" stroke-width="1.73934" stroke-miterlimit="10"/>
<path d="M207.33 199.507C207.33 199.507 202.863 194.217 195.725 198.403" stroke="#D0D5DD" stroke-width="1.73934" stroke-miterlimit="10"/>
<path d="M204.18 197.378C204.18 197.378 194.119 188.191 192.149 200.626C192.149 200.626 194.982 202.47 199.164 200.626C203.346 198.782 204.18 197.378 204.18 197.378Z" stroke="#D0D5DD" stroke-width="1.73934" stroke-miterlimit="10"/>
<path d="M208.882 188.264C208.882 188.264 208.521 184.128 213.314 182.775C218.106 181.422 220.823 187.084 220.823 187.084C220.823 187.084 217.124 191.172 208.882 188.264Z" stroke="#D0D5DD" stroke-width="1.73934" stroke-miterlimit="10"/>
<path d="M209.993 202.828C209.993 202.828 209.827 198.646 215.406 199.508C220.985 200.37 221.902 205.13 221.902 205.13C221.902 205.13 212.765 208.479 209.993 203.268" stroke="#D0D5DD" stroke-width="1.73934" stroke-miterlimit="10"/>
<path d="M203.271 185.045C203.271 185.341 199.077 184.684 198.81 184.59C196.779 183.984 195.335 182.576 194.386 180.714C194.094 180.137 192.402 176.9 192.882 176.337C192.896 176.337 202.863 173.126 203.271 185.045Z" stroke="#D0D5DD" stroke-width="1.73934" stroke-miterlimit="10"/>
<path d="M301.645 186.166C298.498 195.551 293.288 204.11 286.398 211.217C273.368 224.85 253.784 234.615 229.022 236.899V186.166H301.645Z" stroke="#D0D5DD" stroke-width="1.73934" stroke-miterlimit="10"/>
<path d="M286.398 211.218C273.368 224.851 253.784 234.616 229.022 236.9V211.218H286.398Z" stroke="#D0D5DD" stroke-width="1.73934" stroke-miterlimit="10"/>
<path d="M278.86 199.192C278.86 197.168 277.219 195.527 275.195 195.527C273.172 195.527 271.531 197.168 271.531 199.192C271.531 201.216 273.172 202.856 275.195 202.856C277.219 202.856 278.86 201.216 278.86 199.192Z" stroke="#D0D5DD" stroke-width="1.73934" stroke-miterlimit="10"/>
<rect x="225" y="152" width="32.75" height="32.7539" rx="16.375" fill="#12B76A"/>
<path d="M238.648 174.754C238.452 174.754 238.259 174.715 238.078 174.64C237.897 174.566 237.733 174.456 237.595 174.317L233.26 169.982C232.981 169.703 232.824 169.325 232.824 168.931C232.823 168.536 232.98 168.157 233.259 167.878C233.538 167.599 233.916 167.442 234.311 167.442C234.705 167.442 235.083 167.598 235.363 167.877L238.657 171.171L247.386 162.437C247.665 162.157 248.043 162 248.438 162C248.832 162 249.21 162.156 249.49 162.435C249.769 162.714 249.926 163.092 249.926 163.487C249.927 163.881 249.77 164.26 249.491 164.539L239.698 174.333C239.417 174.606 239.04 174.758 238.648 174.754Z" fill="white"/>
<path d="M40.9161 62.9107C41.0046 64.166 41.2756 65.4015 41.7194 66.5787C42.5534 68.7287 43.9307 70.6254 45.7171 72.0839C47.5035 73.5424 49.6375 74.5131 51.9108 74.9002C53.6873 75.1782 55.6495 75.0311 57.4783 75.3436C58.7836 75.5284 60.0108 76.0761 61.0198 76.9243C61.3104 77.2495 61.6763 77.4988 62.0854 77.6504C63.2209 77.9376 63.1463 76.3808 63.5985 75.8018C64.34 74.8943 65.3872 74.2897 66.5438 74.1013C69.5518 73.559 72.28 71.9946 74.2678 69.6732C76.2553 67.3513 77.3806 64.4148 77.4534 61.3593C77.5259 58.304 76.5415 55.3169 74.6666 52.9038C72.7915 50.4902 70.1402 48.7979 67.1619 48.1132C64.2164 47.4435 61.1575 47.809 58.1368 48.0446C55.4835 48.2729 52.8009 48.4318 50.239 49.1729C44.2536 50.9263 40.494 56.8893 40.9161 62.9107Z" fill="#B453EC"/>
<path d="M65.5953 62.0003C66.3889 63.3748 68.1465 63.8457 69.521 63.0522C70.8955 62.2586 71.3665 60.501 70.5729 59.1265C69.7793 57.752 68.0217 57.281 66.6472 58.0746C65.2727 58.8682 64.8017 60.6258 65.5953 62.0003Z" fill="white"/>
<path d="M56.8343 62.7059C57.6279 64.0803 59.3851 64.5515 60.76 63.7577C62.1345 62.9642 62.6055 61.2065 61.8119 59.8321C61.0183 58.4576 59.2607 57.9866 57.8862 58.7802C56.5113 59.574 56.0408 61.3314 56.8343 62.7059Z" fill="white"/>
<path d="M48.6144 63.3682C49.4079 64.7427 51.1656 65.2137 52.54 64.4201C53.9145 63.6265 54.3855 61.8689 53.5919 60.4944C52.7984 59.1199 51.0407 58.649 49.6662 59.4425C48.2917 60.2361 47.8208 61.9937 48.6144 63.3682Z" fill="white"/>
</g>
<path d="M448.504 199C448.504 199 448.989 193.336 452.001 191.637C454.612 190.164 454.911 197.121 454.945 199C454.987 201.358 452.004 203 452.004 203" fill="#ECFDF3"/>
<path d="M448.504 199C448.504 199 448.989 193.336 452.001 191.637C454.612 190.164 454.911 197.121 454.945 199C454.987 201.358 452.004 203 452.004 203" stroke="#D0D5DD" stroke-width="1.1997" stroke-miterlimit="10"/>
<path d="M368.986 163.452C368.986 163.452 336.837 201.158 368.986 237.405V163.452Z" fill="#F3E4FC"/>
<path d="M368.986 163.452C368.986 163.452 336.837 201.158 368.986 237.405" stroke="#D0D5DD" stroke-width="1.1997" stroke-miterlimit="10"/>
<path d="M422.161 107.918C422.161 107.918 417.187 60.5787 451.045 54.2041C484.902 47.8295 491.196 53.1762 514.778 36.99C538.36 20.8038 612.868 68.581 597.784 135.784C597.01 139.254 593.504 151.5 591.004 159C588.004 156.5 585.504 153.5 582.004 150.5C576.004 150.5 571.829 150.223 568.504 150.5" fill="#F3E4FC"/>
<path d="M422.161 107.918C422.161 107.918 417.187 60.5787 451.045 54.2041C484.902 47.8295 491.196 53.1762 514.778 36.99C538.36 20.8038 612.868 68.581 597.784 135.784C597.01 139.254 593.504 151.5 591.004 159C588.004 156.5 585.504 153.5 582.004 150.5C576.004 150.5 571.829 150.223 568.504 150.5" stroke="#D0D5DD" stroke-width="1.1997" stroke-miterlimit="10"/>
<path d="M568.181 76.5796H555.866V237.401H568.181V76.5796Z" fill="white" stroke="#D0D5DD" stroke-width="1.1997" stroke-miterlimit="10"/>
<path d="M458.006 200.353V76.5796H555.866V237.404H539.378V188.012C539.374 186.032 538.584 184.135 537.183 182.737C535.781 181.338 533.881 180.554 531.901 180.555H482.681C480.702 180.555 478.803 181.34 477.401 182.738C475.999 184.135 475.209 186.032 475.204 188.012V237.404H459.157M469.747 160.296C469.644 160.295 469.542 160.274 469.446 160.235C469.351 160.194 469.265 160.136 469.192 160.062C469.119 159.989 469.062 159.902 469.023 159.806C468.985 159.71 468.965 159.608 468.966 159.505V153.175C468.966 152.968 469.048 152.77 469.195 152.623C469.341 152.476 469.54 152.394 469.747 152.394H482.509C482.613 152.393 482.715 152.413 482.811 152.451C482.907 152.49 482.994 152.548 483.067 152.62C483.141 152.693 483.199 152.779 483.239 152.875C483.279 152.97 483.3 153.072 483.301 153.175V159.505C483.301 159.608 483.281 159.712 483.241 159.808C483.202 159.904 483.143 159.991 483.07 160.065C482.996 160.139 482.909 160.197 482.813 160.237C482.717 160.276 482.613 160.296 482.509 160.296H469.747ZM492.182 170.568C492.18 170.776 492.096 170.976 491.947 171.123C491.799 171.27 491.599 171.353 491.39 171.353H478.628C478.419 171.353 478.219 171.27 478.071 171.123C477.923 170.976 477.839 170.776 477.837 170.568V164.232C477.84 164.024 477.924 163.825 478.072 163.679C478.22 163.533 478.42 163.451 478.628 163.451H491.39C491.599 163.451 491.798 163.533 491.946 163.679C492.095 163.825 492.179 164.024 492.182 164.232V170.568ZM485.8 159.505V153.175C485.801 153.072 485.822 152.97 485.862 152.875C485.902 152.779 485.96 152.693 486.034 152.62C486.107 152.548 486.194 152.49 486.29 152.451C486.386 152.413 486.488 152.393 486.592 152.394H499.354C499.562 152.394 499.762 152.476 499.91 152.622C500.058 152.769 500.142 152.967 500.145 153.175V159.505C500.144 159.714 500.06 159.915 499.912 160.063C499.764 160.211 499.563 160.295 499.354 160.296H486.588C486.485 160.296 486.382 160.275 486.286 160.236C486.19 160.196 486.103 160.137 486.03 160.064C485.957 159.99 485.899 159.903 485.859 159.807C485.82 159.711 485.8 159.608 485.8 159.505ZM508.958 170.568C508.958 170.671 508.938 170.772 508.899 170.868C508.86 170.963 508.803 171.049 508.73 171.122C508.658 171.195 508.571 171.253 508.476 171.293C508.381 171.332 508.279 171.353 508.176 171.353H495.401C495.298 171.353 495.197 171.332 495.101 171.293C495.006 171.253 494.92 171.195 494.847 171.122C494.775 171.049 494.717 170.963 494.679 170.868C494.639 170.772 494.62 170.671 494.62 170.568V164.232C494.62 164.025 494.702 163.826 494.849 163.68C494.995 163.533 495.194 163.451 495.401 163.451H508.173C508.38 163.451 508.579 163.533 508.726 163.68C508.872 163.826 508.955 164.025 508.955 164.232L508.958 170.568ZM516.973 159.505C516.973 159.608 516.953 159.712 516.914 159.808C516.874 159.904 516.816 159.991 516.742 160.065C516.669 160.139 516.581 160.197 516.485 160.237C516.389 160.276 516.286 160.296 516.182 160.296H503.42C503.316 160.295 503.214 160.274 503.119 160.235C503.023 160.195 502.936 160.136 502.864 160.063C502.791 159.989 502.733 159.902 502.694 159.806C502.655 159.711 502.635 159.608 502.635 159.505V153.175C502.635 153.072 502.656 152.971 502.695 152.876C502.734 152.781 502.792 152.694 502.865 152.622C502.938 152.549 503.025 152.492 503.12 152.452C503.215 152.414 503.317 152.393 503.42 152.394H516.179C516.282 152.393 516.385 152.413 516.48 152.451C516.576 152.49 516.663 152.548 516.737 152.62C516.81 152.693 516.869 152.779 516.909 152.875C516.949 152.97 516.97 153.072 516.97 153.175L516.973 159.505ZM533.805 159.505C533.806 159.608 533.786 159.71 533.747 159.806C533.708 159.902 533.651 159.989 533.578 160.062C533.506 160.136 533.419 160.194 533.324 160.235C533.229 160.274 533.127 160.295 533.023 160.296H520.258C520.154 160.296 520.051 160.276 519.955 160.237C519.858 160.197 519.771 160.139 519.697 160.065C519.624 159.991 519.565 159.904 519.526 159.808C519.486 159.712 519.466 159.608 519.467 159.505V153.175C519.467 153.072 519.488 152.97 519.528 152.875C519.568 152.779 519.626 152.693 519.7 152.62C519.773 152.548 519.861 152.49 519.956 152.451C520.052 152.413 520.154 152.393 520.258 152.394H533.02C533.227 152.394 533.426 152.476 533.572 152.623C533.719 152.77 533.801 152.968 533.801 153.175L533.805 159.505ZM545.62 135.741C545.623 136.722 545.432 137.694 545.058 138.601C544.684 139.508 544.135 140.332 543.443 141.027C542.75 141.721 541.927 142.272 541.021 142.648C540.115 143.024 539.143 143.218 538.162 143.218H475.856C473.873 143.217 471.972 142.429 470.57 141.027C469.168 139.625 468.38 137.724 468.379 135.741V109.377C468.379 107.394 469.167 105.492 470.569 104.09C471.971 102.687 473.873 101.9 475.856 101.9H538.149C539.131 101.9 540.102 102.093 541.008 102.469C541.914 102.845 542.737 103.396 543.43 104.091C544.122 104.785 544.671 105.61 545.045 106.517C545.419 107.424 545.61 108.396 545.607 109.377L545.62 135.741ZM544.527 93.1679C544.184 93.5154 543.775 93.7911 543.324 93.9788C542.873 94.1662 542.389 94.2622 541.901 94.2606H472.685C471.699 94.2596 470.753 93.8676 470.056 93.1701C469.359 92.473 468.967 91.5275 468.966 90.5415C468.969 89.5561 469.362 88.6122 470.059 87.9154C470.756 87.2186 471.699 86.8257 472.685 86.8224H541.894C542.383 86.8218 542.867 86.9178 543.318 87.1045C543.77 87.2913 544.18 87.5653 544.525 87.9106C544.871 88.2562 545.145 88.6664 545.331 89.1177C545.518 89.5691 545.614 90.0529 545.614 90.5415C545.615 91.0295 545.52 91.5132 545.333 91.9643C545.146 92.4153 544.871 92.8245 544.524 93.1679H544.527Z" fill="white"/>
<path d="M458.006 200.353V76.5796H555.866V237.404H539.378V188.012C539.374 186.032 538.584 184.135 537.183 182.737C535.781 181.338 533.881 180.554 531.901 180.555H482.681C480.702 180.555 478.803 181.34 477.401 182.738C475.999 184.135 475.209 186.032 475.204 188.012V237.404H459.157M458.006 218.786V210.404M469.747 160.296C469.644 160.295 469.542 160.274 469.446 160.235C469.351 160.194 469.265 160.136 469.192 160.062C469.119 159.989 469.062 159.902 469.023 159.806C468.985 159.71 468.965 159.608 468.966 159.505V153.175C468.966 152.968 469.048 152.77 469.195 152.623C469.341 152.476 469.54 152.394 469.747 152.394H482.509C482.613 152.393 482.715 152.413 482.811 152.451C482.907 152.49 482.994 152.548 483.067 152.62C483.141 152.693 483.199 152.779 483.239 152.875C483.279 152.97 483.3 153.072 483.301 153.175V159.505C483.301 159.608 483.281 159.712 483.241 159.808C483.202 159.904 483.143 159.991 483.07 160.065C482.996 160.139 482.909 160.197 482.813 160.237C482.717 160.276 482.613 160.296 482.509 160.296H469.747ZM492.182 170.568C492.18 170.776 492.096 170.976 491.947 171.123C491.799 171.27 491.599 171.353 491.39 171.353H478.628C478.419 171.353 478.219 171.27 478.071 171.123C477.923 170.976 477.839 170.776 477.837 170.568V164.232C477.84 164.024 477.924 163.825 478.072 163.679C478.22 163.533 478.42 163.451 478.628 163.451H491.39C491.599 163.451 491.798 163.533 491.946 163.679C492.095 163.825 492.179 164.024 492.182 164.232V170.568ZM485.8 159.505V153.175C485.801 153.072 485.822 152.97 485.862 152.875C485.902 152.779 485.96 152.693 486.034 152.62C486.107 152.548 486.194 152.49 486.29 152.451C486.386 152.413 486.488 152.393 486.592 152.394H499.354C499.562 152.394 499.762 152.476 499.91 152.622C500.058 152.769 500.142 152.967 500.145 153.175V159.505C500.144 159.714 500.06 159.915 499.912 160.063C499.764 160.211 499.563 160.295 499.354 160.296H486.588C486.485 160.296 486.382 160.275 486.286 160.236C486.19 160.196 486.103 160.137 486.03 160.064C485.957 159.99 485.899 159.903 485.859 159.807C485.82 159.711 485.8 159.608 485.8 159.505ZM508.958 170.568C508.958 170.671 508.938 170.772 508.899 170.868C508.86 170.963 508.803 171.049 508.73 171.122C508.658 171.195 508.571 171.253 508.476 171.293C508.381 171.332 508.279 171.353 508.176 171.353H495.401C495.298 171.353 495.197 171.332 495.101 171.293C495.006 171.253 494.92 171.195 494.847 171.122C494.775 171.049 494.717 170.963 494.679 170.868C494.639 170.772 494.62 170.671 494.62 170.568V164.232C494.62 164.025 494.702 163.826 494.849 163.68C494.995 163.533 495.194 163.451 495.401 163.451H508.173C508.38 163.451 508.579 163.533 508.726 163.68C508.872 163.826 508.955 164.025 508.955 164.232L508.958 170.568ZM516.973 159.505C516.973 159.608 516.953 159.712 516.914 159.808C516.874 159.904 516.816 159.991 516.742 160.065C516.669 160.139 516.581 160.197 516.485 160.237C516.389 160.276 516.286 160.296 516.182 160.296H503.42C503.316 160.295 503.214 160.274 503.119 160.235C503.023 160.195 502.936 160.136 502.864 160.063C502.791 159.989 502.733 159.902 502.694 159.806C502.655 159.711 502.635 159.608 502.635 159.505V153.175C502.635 153.072 502.656 152.971 502.695 152.876C502.734 152.781 502.792 152.694 502.865 152.622C502.938 152.549 503.025 152.492 503.12 152.452C503.215 152.414 503.317 152.393 503.42 152.394H516.179C516.282 152.393 516.385 152.413 516.48 152.451C516.576 152.49 516.663 152.548 516.737 152.62C516.81 152.693 516.869 152.779 516.909 152.875C516.949 152.97 516.97 153.072 516.97 153.175L516.973 159.505ZM533.805 159.505C533.806 159.608 533.786 159.71 533.747 159.806C533.708 159.902 533.651 159.989 533.578 160.062C533.506 160.136 533.419 160.194 533.324 160.235C533.229 160.274 533.127 160.295 533.023 160.296H520.258C520.154 160.296 520.051 160.276 519.955 160.237C519.858 160.197 519.771 160.139 519.697 160.065C519.624 159.991 519.565 159.904 519.526 159.808C519.486 159.712 519.466 159.608 519.467 159.505V153.175C519.467 153.072 519.488 152.97 519.528 152.875C519.568 152.779 519.626 152.693 519.7 152.62C519.773 152.548 519.861 152.49 519.956 152.451C520.052 152.413 520.154 152.393 520.258 152.394H533.02C533.227 152.394 533.426 152.476 533.572 152.623C533.719 152.77 533.801 152.968 533.801 153.175L533.805 159.505ZM545.62 135.741C545.623 136.722 545.432 137.694 545.058 138.601C544.684 139.508 544.135 140.332 543.443 141.027C542.75 141.721 541.927 142.272 541.021 142.648C540.115 143.024 539.143 143.218 538.162 143.218H475.856C473.873 143.217 471.972 142.429 470.57 141.027C469.168 139.625 468.38 137.724 468.379 135.741V109.377C468.379 107.394 469.167 105.492 470.569 104.09C471.971 102.687 473.873 101.9 475.856 101.9H538.149C539.131 101.9 540.102 102.093 541.008 102.469C541.914 102.845 542.737 103.396 543.43 104.091C544.122 104.785 544.671 105.61 545.045 106.517C545.419 107.424 545.61 108.396 545.607 109.377L545.62 135.741ZM544.527 93.1679C544.184 93.5154 543.775 93.7911 543.324 93.9788C542.873 94.1662 542.389 94.2622 541.901 94.2606H472.685C471.699 94.2596 470.753 93.8676 470.056 93.1701C469.359 92.473 468.967 91.5275 468.966 90.5415C468.969 89.5561 469.362 88.6122 470.059 87.9154C470.756 87.2186 471.699 86.8257 472.685 86.8224H541.894C542.383 86.8218 542.867 86.9178 543.318 87.1045C543.77 87.2913 544.18 87.5653 544.525 87.9106C544.871 88.2562 545.145 88.6664 545.331 89.1177C545.518 89.5691 545.614 90.0529 545.614 90.5415C545.615 91.0295 545.52 91.5132 545.333 91.9643C545.146 92.4153 544.871 92.8245 544.524 93.1679H544.527Z" stroke="#D0D5DD" stroke-width="1.1997" stroke-miterlimit="10"/>
<path d="M482.509 160.296H469.747C469.644 160.296 469.542 160.275 469.446 160.235C469.351 160.195 469.265 160.136 469.192 160.063C469.119 159.989 469.062 159.902 469.023 159.807C468.985 159.711 468.965 159.608 468.966 159.505V153.176C468.966 152.969 469.048 152.77 469.195 152.623C469.341 152.477 469.54 152.394 469.747 152.394H482.509C482.613 152.393 482.715 152.413 482.811 152.452C482.907 152.491 482.994 152.548 483.067 152.621C483.141 152.693 483.199 152.78 483.239 152.875C483.279 152.97 483.3 153.072 483.301 153.176V159.505C483.301 159.609 483.281 159.712 483.241 159.808C483.202 159.904 483.143 159.992 483.07 160.065C482.996 160.139 482.909 160.197 482.813 160.237C482.717 160.276 482.613 160.296 482.509 160.296Z" stroke="#D0D5DD" stroke-width="1.1997" stroke-miterlimit="10"/>
<path d="M478.628 163.452H491.39C491.599 163.452 491.798 163.533 491.946 163.68C492.095 163.826 492.179 164.025 492.182 164.233V170.569C492.18 170.777 492.096 170.977 491.947 171.124C491.799 171.271 491.599 171.353 491.39 171.353H478.628C478.419 171.353 478.219 171.271 478.071 171.124C477.923 170.977 477.839 170.777 477.837 170.569V164.233C477.84 164.025 477.924 163.826 478.072 163.68C478.22 163.533 478.42 163.452 478.628 163.452Z" stroke="#D0D5DD" stroke-width="1.1997" stroke-miterlimit="10"/>
<path d="M500.142 153.176V159.505C500.141 159.714 500.057 159.915 499.909 160.063C499.761 160.212 499.56 160.295 499.351 160.296H486.588C486.484 160.296 486.381 160.276 486.285 160.237C486.189 160.197 486.102 160.139 486.028 160.065C485.955 159.992 485.896 159.904 485.857 159.808C485.817 159.712 485.797 159.609 485.797 159.505V153.176C485.798 153.072 485.819 152.97 485.859 152.875C485.898 152.78 485.957 152.693 486.03 152.621C486.104 152.548 486.191 152.491 486.287 152.452C486.383 152.413 486.485 152.393 486.588 152.394H499.351C499.559 152.394 499.758 152.476 499.907 152.623C500.055 152.769 500.139 152.968 500.142 153.176Z" stroke="#D0D5DD" stroke-width="1.1997" stroke-miterlimit="10"/>
<path d="M508.173 163.452H495.401C494.97 163.452 494.62 163.802 494.62 164.233V170.572C494.62 171.004 494.97 171.353 495.401 171.353H508.173C508.605 171.353 508.955 171.004 508.955 170.572V164.233C508.955 163.802 508.605 163.452 508.173 163.452Z" stroke="#D0D5DD" stroke-width="1.1997" stroke-miterlimit="10"/>
<path d="M503.42 160.296C503.316 160.296 503.214 160.275 503.119 160.235C503.023 160.195 502.936 160.137 502.864 160.063C502.791 159.99 502.733 159.902 502.694 159.807C502.655 159.711 502.635 159.608 502.635 159.505V153.176C502.635 153.073 502.656 152.971 502.695 152.876C502.734 152.781 502.792 152.695 502.865 152.622C502.938 152.549 503.025 152.492 503.12 152.453C503.215 152.414 503.317 152.394 503.42 152.394H516.179C516.282 152.393 516.385 152.413 516.48 152.452C516.576 152.491 516.663 152.548 516.737 152.621C516.81 152.693 516.869 152.78 516.909 152.875C516.949 152.97 516.97 153.072 516.97 153.176V159.505C516.97 159.609 516.95 159.712 516.911 159.808C516.871 159.904 516.813 159.992 516.739 160.065C516.665 160.139 516.578 160.197 516.482 160.237C516.386 160.276 516.283 160.296 516.179 160.296H503.42Z" stroke="#D0D5DD" stroke-width="1.1997" stroke-miterlimit="10"/>
<path d="M520.258 160.296C520.154 160.296 520.051 160.276 519.955 160.237C519.858 160.197 519.771 160.139 519.697 160.065C519.624 159.992 519.565 159.904 519.526 159.808C519.486 159.712 519.466 159.609 519.467 159.505V153.176C519.467 153.072 519.488 152.97 519.528 152.875C519.568 152.78 519.626 152.693 519.7 152.621C519.773 152.548 519.861 152.491 519.956 152.452C520.052 152.413 520.154 152.393 520.258 152.394H533.02C533.227 152.394 533.426 152.477 533.572 152.623C533.719 152.77 533.801 152.969 533.801 153.176V159.505C533.802 159.608 533.783 159.711 533.744 159.807C533.705 159.902 533.648 159.989 533.575 160.063C533.502 160.136 533.416 160.195 533.321 160.235C533.225 160.275 533.123 160.296 533.02 160.296H520.258Z" stroke="#D0D5DD" stroke-width="1.1997" stroke-miterlimit="10"/>
<path d="M539.378 188.013V237.405H475.204V188.013C475.209 186.033 475.999 184.136 477.401 182.738C478.803 181.34 480.702 180.555 482.681 180.555H531.901C533.881 180.554 535.781 181.339 537.183 182.738C538.584 184.136 539.374 186.033 539.378 188.013Z" stroke="#D0D5DD" stroke-width="1.1997" stroke-miterlimit="10"/>
<path d="M468.966 90.5416C468.969 89.5562 469.362 88.612 470.059 87.9155C470.756 87.2187 471.699 86.8258 472.685 86.8225H541.894C542.383 86.8219 542.867 86.9178 543.318 87.1046C543.77 87.2914 544.18 87.5654 544.525 87.9107C544.871 88.256 545.145 88.6662 545.331 89.1178C545.518 89.5692 545.614 90.0529 545.613 90.5416C545.61 91.5266 545.217 92.4708 544.52 93.1673C543.824 93.8641 542.88 94.2571 541.894 94.2606H472.685C471.699 94.2597 470.753 93.8677 470.056 93.1702C469.359 92.4731 468.967 91.5276 468.966 90.5416Z" stroke="#D0D5DD" stroke-width="1.1997" stroke-miterlimit="10"/>
<path d="M503.271 113.064V132.087C503.272 132.778 503.136 133.463 502.872 134.102C502.608 134.741 502.221 135.322 501.733 135.811C501.244 136.301 500.664 136.689 500.026 136.954C499.387 137.219 498.703 137.356 498.011 137.356H479.565C478.169 137.354 476.831 136.798 475.845 135.81C474.859 134.822 474.305 133.483 474.306 132.087V113.064C474.306 112.373 474.441 111.688 474.706 111.05C474.969 110.411 475.357 109.831 475.845 109.342C476.334 108.853 476.913 108.465 477.552 108.2C478.19 107.935 478.874 107.798 479.565 107.798H498.011C498.703 107.798 499.387 107.934 500.026 108.199C500.664 108.464 501.244 108.852 501.732 109.341C502.221 109.83 502.608 110.41 502.872 111.049C503.136 111.688 503.272 112.373 503.271 113.064Z" stroke="#D0D5DD" stroke-width="1.1997" stroke-miterlimit="10"/>
<path d="M539.492 113.041V132.113C539.493 132.804 539.357 133.489 539.093 134.128C538.83 134.767 538.442 135.348 537.954 135.837C537.466 136.326 536.886 136.714 536.247 136.98C535.608 137.244 534.924 137.381 534.233 137.382H515.751C515.059 137.381 514.375 137.244 513.736 136.98C513.097 136.715 512.517 136.326 512.028 135.837C511.54 135.348 511.152 134.767 510.888 134.128C510.624 133.489 510.488 132.804 510.488 132.113V113.041C510.488 112.349 510.624 111.664 510.888 111.025C511.152 110.386 511.54 109.806 512.028 109.316C512.517 108.827 513.097 108.439 513.736 108.174C514.375 107.909 515.059 107.772 515.751 107.772H534.233C534.924 107.772 535.608 107.909 536.247 108.174C536.886 108.439 537.466 108.827 537.954 109.316C538.442 109.806 538.83 110.386 539.093 111.025C539.357 111.665 539.493 112.349 539.492 113.041Z" stroke="#D0D5DD" stroke-width="1.1997" stroke-miterlimit="10"/>
<path d="M538.149 101.9H475.856C473.873 101.9 471.971 102.687 470.569 104.09C469.167 105.492 468.379 107.394 468.379 109.377V135.741C468.38 137.724 469.168 139.625 470.57 141.027C471.972 142.429 473.873 143.217 475.856 143.218H538.149C539.131 143.218 540.102 143.025 541.008 142.648C541.914 142.272 542.737 141.721 543.43 141.027C544.122 140.332 544.671 139.508 545.045 138.601C545.419 137.694 545.61 136.722 545.607 135.741V109.377C545.61 108.396 545.419 107.424 545.045 106.517C544.671 105.61 544.122 104.785 543.43 104.091C542.737 103.396 541.914 102.845 541.008 102.469C540.102 102.093 539.131 101.9 538.149 101.9ZM503.271 132.087C503.272 132.778 503.136 133.463 502.872 134.102C502.608 134.741 502.221 135.322 501.733 135.811C501.244 136.3 500.664 136.689 500.026 136.953C499.387 137.219 498.703 137.355 498.011 137.356H479.565C478.169 137.354 476.831 136.798 475.845 135.81C474.859 134.822 474.305 133.483 474.306 132.087V113.064C474.306 112.372 474.441 111.688 474.706 111.049C474.969 110.411 475.357 109.83 475.845 109.341C476.334 108.852 476.913 108.465 477.552 108.2C478.19 107.935 478.874 107.798 479.565 107.798H498.011C498.703 107.798 499.387 107.934 500.026 108.199C500.664 108.463 501.244 108.851 501.732 109.34C502.221 109.83 502.608 110.41 502.872 111.049C503.136 111.687 503.272 112.372 503.271 113.064V132.087ZM539.492 132.113C539.493 132.804 539.357 133.489 539.093 134.128C538.829 134.767 538.442 135.347 537.954 135.837C537.466 136.326 536.886 136.714 536.247 136.979C535.608 137.245 534.924 137.381 534.233 137.382H515.751C515.059 137.381 514.375 137.245 513.736 136.979C513.097 136.714 512.517 136.326 512.028 135.837C511.54 135.348 511.152 134.767 510.888 134.128C510.624 133.489 510.488 132.804 510.488 132.113V113.041C510.488 112.349 510.624 111.664 510.888 111.025C511.152 110.386 511.54 109.806 512.028 109.316C512.517 108.827 513.097 108.439 513.736 108.174C514.375 107.909 515.059 107.772 515.751 107.772H534.233C534.924 107.772 535.608 107.909 536.247 108.174C536.886 108.439 537.466 108.827 537.954 109.317C538.442 109.806 538.829 110.387 539.093 111.026C539.357 111.665 539.493 112.349 539.492 113.041V132.113Z" stroke="#D0D5DD" stroke-width="1.1997" stroke-miterlimit="10"/>
<path d="M503.271 113.064V132.087C503.272 132.778 503.136 133.463 502.872 134.102C502.608 134.741 502.221 135.322 501.733 135.811C501.244 136.301 500.664 136.689 500.026 136.954C499.387 137.219 498.703 137.356 498.011 137.356H479.565C478.169 137.354 476.831 136.798 475.845 135.81C474.859 134.822 474.305 133.483 474.306 132.087V113.064C474.306 112.373 474.441 111.688 474.706 111.05C474.969 110.411 475.357 109.831 475.845 109.342C476.334 108.853 476.913 108.465 477.552 108.2C478.19 107.935 478.874 107.798 479.565 107.798H498.011C498.703 107.798 499.387 107.934 500.026 108.199C500.664 108.464 501.244 108.852 501.732 109.341C502.221 109.83 502.608 110.41 502.872 111.049C503.136 111.688 503.272 112.373 503.271 113.064Z" stroke="#D0D5DD" stroke-width="1.1997" stroke-miterlimit="10"/>
<path d="M539.492 113.041V132.113C539.493 132.804 539.357 133.489 539.093 134.128C538.83 134.767 538.442 135.348 537.954 135.837C537.466 136.326 536.886 136.714 536.247 136.98C535.608 137.244 534.924 137.381 534.233 137.382H515.751C515.059 137.381 514.375 137.244 513.736 136.98C513.097 136.715 512.517 136.326 512.028 135.837C511.54 135.348 511.152 134.767 510.888 134.128C510.624 133.489 510.488 132.804 510.488 132.113V113.041C510.488 112.349 510.624 111.664 510.888 111.025C511.152 110.386 511.54 109.806 512.028 109.316C512.517 108.827 513.097 108.439 513.736 108.174C514.375 107.909 515.059 107.772 515.751 107.772H534.233C534.924 107.772 535.608 107.909 536.247 108.174C536.886 108.439 537.466 108.827 537.954 109.316C538.442 109.806 538.83 110.386 539.093 111.025C539.357 111.665 539.493 112.349 539.492 113.041Z" stroke="#D0D5DD" stroke-width="1.1997" stroke-miterlimit="10"/>
<path d="M539.492 113.041V132.113C539.493 132.804 539.357 133.489 539.093 134.128C538.83 134.767 538.442 135.348 537.954 135.837C537.466 136.326 536.886 136.714 536.247 136.98C535.608 137.244 534.924 137.381 534.233 137.382H515.751C515.059 137.381 514.375 137.244 513.736 136.98C513.097 136.715 512.517 136.326 512.028 135.837C511.54 135.348 511.152 134.767 510.888 134.128C510.624 133.489 510.488 132.804 510.488 132.113V113.041C510.488 112.349 510.624 111.664 510.888 111.025C511.152 110.386 511.54 109.806 512.028 109.316C512.517 108.827 513.097 108.439 513.736 108.174C514.375 107.909 515.059 107.772 515.751 107.772H534.233C534.924 107.772 535.608 107.909 536.247 108.174C536.886 108.439 537.466 108.827 537.954 109.316C538.442 109.806 538.83 110.386 539.093 111.025C539.357 111.665 539.493 112.349 539.492 113.041Z" fill="#F0F9FF" stroke="#D0D5DD" stroke-width="1.1997" stroke-miterlimit="10"/>
<path d="M503.271 113.064V132.087C503.272 132.778 503.136 133.463 502.872 134.102C502.608 134.741 502.221 135.322 501.733 135.811C501.244 136.301 500.664 136.689 500.026 136.954C499.387 137.219 498.703 137.356 498.011 137.356H479.565C478.169 137.354 476.831 136.798 475.845 135.81C474.859 134.822 474.305 133.483 474.306 132.087V113.064C474.306 112.373 474.441 111.688 474.706 111.05C474.969 110.411 475.357 109.831 475.845 109.342C476.334 108.853 476.913 108.465 477.552 108.2C478.19 107.935 478.874 107.798 479.565 107.798H498.011C498.703 107.798 499.387 107.934 500.026 108.199C500.664 108.464 501.244 108.852 501.732 109.341C502.221 109.83 502.608 110.41 502.872 111.049C503.136 111.688 503.272 112.373 503.271 113.064Z" fill="#F0F9FF" stroke="#D0D5DD" stroke-width="1.1997" stroke-miterlimit="10"/>
<path d="M539.378 188.013V237.405H475.204V188.013C475.209 186.033 475.999 184.136 477.401 182.738C478.803 181.34 480.702 180.555 482.681 180.555H531.901C533.881 180.554 535.781 181.339 537.183 182.738C538.584 184.136 539.374 186.033 539.378 188.013Z" stroke="#D0D5DD" stroke-width="1.1997" stroke-miterlimit="10"/>
<path d="M483.301 153.176V159.505C483.301 159.609 483.281 159.712 483.241 159.808C483.202 159.904 483.143 159.992 483.07 160.065C482.996 160.139 482.909 160.197 482.813 160.237C482.717 160.276 482.613 160.296 482.509 160.296H469.747C469.644 160.296 469.542 160.275 469.446 160.235C469.351 160.195 469.265 160.136 469.192 160.063C469.119 159.989 469.062 159.902 469.023 159.807C468.985 159.711 468.965 159.608 468.966 159.505V153.176C468.966 152.969 469.048 152.77 469.195 152.623C469.341 152.477 469.54 152.394 469.747 152.394H482.509C482.613 152.393 482.715 152.413 482.811 152.452C482.907 152.491 482.994 152.548 483.067 152.621C483.141 152.693 483.199 152.78 483.239 152.875C483.279 152.97 483.3 153.072 483.301 153.176Z" fill="#FEF3F2" stroke="#D0D5DD" stroke-width="1.1997" stroke-miterlimit="10"/>
<path d="M500.142 153.176V159.505C500.141 159.714 500.057 159.915 499.909 160.063C499.761 160.212 499.56 160.295 499.351 160.296H486.588C486.484 160.296 486.381 160.276 486.285 160.237C486.189 160.197 486.102 160.139 486.028 160.065C485.955 159.992 485.896 159.904 485.857 159.808C485.817 159.712 485.797 159.609 485.797 159.505V153.176C485.798 153.072 485.819 152.97 485.859 152.875C485.898 152.78 485.957 152.693 486.03 152.621C486.104 152.548 486.191 152.491 486.287 152.452C486.383 152.413 486.485 152.393 486.588 152.394H499.351C499.559 152.394 499.758 152.476 499.907 152.623C500.055 152.769 500.139 152.968 500.142 153.176Z" fill="#FEF3F2" stroke="#D0D5DD" stroke-width="1.1997" stroke-miterlimit="10"/>
<path d="M516.97 153.176V159.505C516.97 159.609 516.95 159.712 516.911 159.808C516.871 159.904 516.813 159.992 516.739 160.065C516.665 160.139 516.578 160.197 516.482 160.237C516.386 160.276 516.283 160.296 516.179 160.296H503.42C503.316 160.296 503.214 160.275 503.119 160.235C503.023 160.195 502.936 160.137 502.864 160.063C502.791 159.99 502.733 159.902 502.694 159.807C502.655 159.711 502.635 159.608 502.635 159.505V153.176C502.635 153.073 502.656 152.971 502.695 152.876C502.734 152.781 502.792 152.695 502.865 152.622C502.938 152.549 503.025 152.492 503.12 152.453C503.215 152.414 503.317 152.394 503.42 152.394H516.179C516.282 152.393 516.385 152.413 516.48 152.452C516.576 152.491 516.663 152.548 516.737 152.621C516.81 152.693 516.869 152.78 516.909 152.875C516.949 152.97 516.97 153.072 516.97 153.176Z" fill="#FEF3F2" stroke="#D0D5DD" stroke-width="1.1997" stroke-miterlimit="10"/>
<path d="M533.788 153.176V159.505C533.789 159.608 533.77 159.711 533.731 159.807C533.692 159.902 533.635 159.989 533.562 160.063C533.489 160.136 533.403 160.195 533.308 160.235C533.213 160.275 533.11 160.296 533.007 160.296H520.258C520.154 160.296 520.051 160.276 519.955 160.237C519.858 160.197 519.771 160.139 519.697 160.065C519.624 159.992 519.565 159.904 519.526 159.808C519.486 159.712 519.466 159.609 519.467 159.505V153.176C519.467 153.072 519.488 152.97 519.528 152.875C519.568 152.78 519.626 152.693 519.7 152.621C519.773 152.548 519.861 152.491 519.956 152.452C520.052 152.413 520.154 152.393 520.258 152.394H533.02C533.225 152.398 533.42 152.482 533.564 152.628C533.708 152.774 533.788 152.971 533.788 153.176Z" fill="#FEF3F2" stroke="#D0D5DD" stroke-width="1.1997" stroke-miterlimit="10"/>
<path d="M492.182 164.233V170.569C492.18 170.777 492.096 170.977 491.947 171.124C491.799 171.271 491.599 171.353 491.39 171.353H478.628C478.419 171.353 478.219 171.271 478.071 171.124C477.923 170.977 477.839 170.777 477.837 170.569V164.233C477.84 164.025 477.924 163.826 478.072 163.68C478.22 163.533 478.42 163.452 478.628 163.452H491.39C491.599 163.452 491.798 163.533 491.946 163.68C492.095 163.826 492.179 164.025 492.182 164.233Z" fill="#FEF3F2" stroke="#D0D5DD" stroke-width="1.1997" stroke-miterlimit="10"/>
<path d="M508.173 163.452H495.401C494.97 163.452 494.62 163.802 494.62 164.233V170.572C494.62 171.004 494.97 171.353 495.401 171.353H508.173C508.605 171.353 508.955 171.004 508.955 170.572V164.233C508.955 163.802 508.605 163.452 508.173 163.452Z" fill="#FEF3F2" stroke="#D0D5DD" stroke-width="1.1997" stroke-miterlimit="10"/>
<path d="M545.617 90.5416C545.613 91.5273 545.22 92.4718 544.522 93.1686C543.825 93.8654 542.88 94.2581 541.894 94.2606H472.685C471.699 94.2597 470.753 93.8677 470.056 93.1702C469.359 92.4731 468.967 91.5276 468.966 90.5416C468.969 89.5562 469.362 88.612 470.059 87.9155C470.756 87.2187 471.699 86.8258 472.685 86.8225H541.894C542.383 86.8215 542.867 86.9172 543.319 87.1036C543.771 87.2901 544.182 87.5641 544.527 87.9097C544.873 88.255 545.147 88.6652 545.334 89.1169C545.521 89.5685 545.617 90.0526 545.617 90.5416Z" fill="white" stroke="#D0D5DD" stroke-width="1.1997" stroke-miterlimit="10"/>
<path d="M531.7 186.267H482.691C481.529 186.267 480.587 187.209 480.587 188.372V188.453C480.587 189.615 481.529 190.557 482.691 190.557H531.7C532.862 190.557 533.805 189.615 533.805 188.453V188.372C533.805 187.209 532.862 186.267 531.7 186.267Z" stroke="#D0D5DD" stroke-width="1.1997" stroke-miterlimit="10"/>
<path d="M531.7 195.12H482.691C481.529 195.12 480.587 196.062 480.587 197.224V197.305C480.587 198.467 481.529 199.41 482.691 199.41H531.7C532.862 199.41 533.805 198.467 533.805 197.305V197.224C533.805 196.062 532.862 195.12 531.7 195.12Z" stroke="#D0D5DD" stroke-width="1.1997" stroke-miterlimit="10"/>
<path d="M531.7 203.972H482.691C481.529 203.972 480.587 204.914 480.587 206.076V206.157C480.587 207.319 481.529 208.261 482.691 208.261H531.7C532.862 208.261 533.805 207.319 533.805 206.157V206.076C533.805 204.914 532.862 203.972 531.7 203.972Z" stroke="#D0D5DD" stroke-width="1.1997" stroke-miterlimit="10"/>
<path d="M531.7 212.826H482.691C481.529 212.826 480.587 213.768 480.587 214.931V215.012C480.587 216.174 481.529 217.116 482.691 217.116H531.7C532.862 217.116 533.805 216.174 533.805 215.012V214.931C533.805 213.768 532.862 212.826 531.7 212.826Z" stroke="#D0D5DD" stroke-width="1.1997" stroke-miterlimit="10"/>
<path d="M531.7 221.678H482.691C481.529 221.678 480.587 222.62 480.587 223.783V223.864C480.587 225.026 481.529 225.968 482.691 225.968H531.7C532.862 225.968 533.805 225.026 533.805 223.864V223.783C533.805 222.62 532.862 221.678 531.7 221.678Z" stroke="#D0D5DD" stroke-width="1.1997" stroke-miterlimit="10"/>
<path d="M448.957 61.9304H574.14C576.103 61.9304 577.985 62.7099 579.372 64.0977C580.76 65.4851 581.54 67.3673 581.54 69.3296V76.463H441.557V69.3296C441.557 67.3673 442.337 65.4851 443.725 64.0977C445.112 62.7099 446.994 61.9304 448.957 61.9304Z" fill="white" stroke="#D0D5DD" stroke-width="1.1997" stroke-miterlimit="10"/>
<path d="M568.177 177.461H581.637V189.708H594.409V203.773H606.847V214.788H619.087V224.479H644.355V237.397H568.177V177.461Z" fill="#FEF3F2" stroke="#D0D5DD" stroke-width="1.1997" stroke-miterlimit="10"/>
<path d="M568.504 150.345H581.724H582.058L594.428 162.718L606.899 175.185L619.09 187.377L624.855 193.142" stroke="#D0D5DD" stroke-width="1.1997" stroke-miterlimit="10"/>
<path d="M581.724 189.708V150.345" stroke="#D0D5DD" stroke-width="1.1997" stroke-miterlimit="10"/>
<path d="M619.09 214.792V187.377" stroke="#D0D5DD" stroke-width="1.1997" stroke-miterlimit="10"/>
<path d="M594.428 195.22V162.714" stroke="#D0D5DD" stroke-width="1.1997" stroke-miterlimit="10"/>
<path d="M606.847 175.185V204.85" stroke="#D0D5DD" stroke-width="1.1997" stroke-miterlimit="10"/>
<path d="M457.958 210.475V218.786" stroke="#D0D5DD" stroke-width="1.1997" stroke-miterlimit="10"/>
<path d="M445.643 218.787V213.677C446.165 215.175 447.569 216.481 449.378 217.127C448.791 212.847 447.644 206.102 445.643 200.068" fill="#ECFDF3"/>
<path d="M445.643 218.787V213.677C446.165 215.175 447.569 216.481 449.378 217.127C448.791 212.847 447.644 206.102 445.643 200.068" stroke="#D0D5DD" stroke-width="1.1997" stroke-miterlimit="10"/>
<path d="M457.958 193.833V122.564H445.643V190.629" stroke="#D0D5DD" stroke-width="1.1997" stroke-miterlimit="10"/>
<path d="M445.643 213.682V218.786" stroke="#D0D5DD" stroke-width="1.1997" stroke-miterlimit="10"/>
<path d="M445.643 190.629V122.564H368.985V237.404H444.647H445.643" stroke="#D0D5DD" stroke-width="1.1997" stroke-miterlimit="10"/>
<path d="M392.302 139.383V184.255C392.302 188.303 395.584 191.586 399.633 191.586H416.818C420.867 191.586 424.149 188.303 424.149 184.255V139.383C424.149 135.334 420.867 132.052 416.818 132.052H399.633C395.584 132.052 392.302 135.334 392.302 139.383Z" stroke="#D0D5DD" stroke-width="1.1997" stroke-miterlimit="10"/>
<path d="M396.831 141.938V153.974C396.831 156.826 399.144 159.139 401.997 159.139H414.486C417.339 159.139 419.652 156.826 419.652 153.974V141.938C419.652 139.085 417.339 136.773 414.486 136.773H401.997C399.144 136.773 396.831 139.085 396.831 141.938Z" fill="#F0F9FF" stroke="#D0D5DD" stroke-width="1.1997" stroke-miterlimit="10"/>
<path d="M396.851 169.852V181.852C396.851 184.705 399.163 187.017 402.016 187.017H414.467C417.32 187.017 419.632 184.705 419.632 181.852V169.852C419.632 166.999 417.32 164.687 414.467 164.687H402.016C399.163 164.687 396.851 166.999 396.851 169.852Z" fill="#F0F9FF" stroke="#D0D5DD" stroke-width="1.1997" stroke-miterlimit="10"/>
<path d="M393.505 198.378H380.717C380.289 198.378 379.942 198.725 379.942 199.153V205.509C379.942 205.937 380.289 206.283 380.717 206.283H393.505C393.933 206.283 394.28 205.937 394.28 205.509V199.153C394.28 198.725 393.933 198.378 393.505 198.378Z" fill="#FEF3F2" stroke="#D0D5DD" stroke-width="1.1997" stroke-miterlimit="10"/>
<path d="M410.339 198.378H397.551C397.123 198.378 396.776 198.725 396.776 199.153V205.509C396.776 205.937 397.123 206.283 397.551 206.283H410.339C410.767 206.283 411.114 205.937 411.114 205.509V199.153C411.114 198.725 410.767 198.378 410.339 198.378Z" fill="#FEF3F2" stroke="#D0D5DD" stroke-width="1.1997" stroke-miterlimit="10"/>
<path d="M427.174 198.378H414.386C413.958 198.378 413.611 198.725 413.611 199.153V205.509C413.611 205.937 413.958 206.283 414.386 206.283H427.174C427.602 206.283 427.949 205.937 427.949 205.509V199.153C427.949 198.725 427.602 198.378 427.174 198.378Z" fill="#FEF3F2" stroke="#D0D5DD" stroke-width="1.1997" stroke-miterlimit="10"/>
<path d="M402.383 209.438H389.594C389.166 209.438 388.819 209.785 388.819 210.213V216.568C388.819 216.996 389.166 217.343 389.594 217.343H402.383C402.811 217.343 403.157 216.996 403.157 216.568V210.213C403.157 209.785 402.811 209.438 402.383 209.438Z" fill="#FEF3F2" stroke="#D0D5DD" stroke-width="1.1997" stroke-miterlimit="10"/>
<path d="M419.159 209.438H406.371C405.943 209.438 405.596 209.785 405.596 210.213V216.568C405.596 216.996 405.943 217.343 406.371 217.343H419.159C419.587 217.343 419.934 216.996 419.934 216.568V210.213C419.934 209.785 419.587 209.438 419.159 209.438Z" fill="#FEF3F2" stroke="#D0D5DD" stroke-width="1.1997" stroke-miterlimit="10"/>
<path d="M360.079 107.917H458V122.44H352.537V115.462C352.537 113.462 353.332 111.544 354.746 110.129C356.16 108.715 358.078 107.919 360.079 107.917Z" fill="white" stroke="#D0D5DD" stroke-width="1.1997" stroke-miterlimit="10"/>
<path d="M451.917 203.321C452.588 202.776 453.366 202.273 453.905 201.673C455.416 199.984 454.835 197.825 455.805 195.97C456.985 193.7 460.694 192.128 464.342 192.335C463.997 193.402 463.76 194.502 463.635 195.617C463.528 196.609 463.788 197.711 463.502 198.674C463.039 200.218 460.561 201.155 460.26 202.74C459.994 204.141 461.635 205.451 461.362 206.878C461.074 208.408 458.723 209.254 457.857 210.606C457.15 211.709 457.484 212.967 457.118 214.137C456.674 215.551 455.137 216.799 453.123 217.38L452.922 217.438C452.183 216.804 451.548 216.056 451.042 215.224" fill="#ECFDF3"/>
<path d="M451.917 203.321C452.588 202.776 453.366 202.273 453.905 201.673C455.416 199.984 454.835 197.825 455.805 195.97C456.985 193.7 460.694 192.128 464.342 192.335C463.997 193.402 463.76 194.502 463.635 195.617C463.528 196.609 463.788 197.711 463.502 198.674C463.039 200.218 460.561 201.155 460.26 202.74C459.994 204.141 461.635 205.451 461.362 206.878C461.074 208.408 458.723 209.254 457.857 210.606C457.15 211.709 457.484 212.967 457.118 214.137C456.674 215.551 455.137 216.799 453.123 217.38L452.922 217.438C452.183 216.804 451.548 216.056 451.042 215.224" stroke="#D0D5DD" stroke-width="1.1997" stroke-miterlimit="10"/>
<path d="M462.131 194.111C456.693 199.659 454.135 211.355 453.139 217.385C453.058 217.895 452.984 218.358 452.922 218.783" stroke="#D0D5DD" stroke-width="1.1997" stroke-miterlimit="10"/>
<path d="M462.617 222.181L460.114 236.169C460.045 236.561 459.839 236.917 459.534 237.173C459.228 237.429 458.843 237.569 458.444 237.569H445.367C444.965 237.569 444.576 237.426 444.269 237.165C443.963 236.905 443.759 236.543 443.694 236.146L441.379 222.181H462.617Z" stroke="#D0D5DD" stroke-width="1.1997" stroke-miterlimit="10"/>
<path d="M464.994 220.621C464.959 221.047 464.765 221.443 464.452 221.732C464.138 222.021 463.728 222.181 463.301 222.181H440.731C440.308 222.181 439.901 222.024 439.588 221.74C439.276 221.455 439.081 221.065 439.041 220.644C439.019 220.409 439.046 220.171 439.12 219.946C439.195 219.722 439.316 219.515 439.475 219.34C439.634 219.165 439.827 219.025 440.044 218.929C440.26 218.833 440.494 218.783 440.731 218.783H463.288C463.524 218.781 463.758 218.829 463.974 218.922C464.191 219.016 464.385 219.154 464.546 219.326C464.706 219.5 464.829 219.704 464.906 219.927C464.983 220.15 465.013 220.386 464.994 220.621Z" stroke="#D0D5DD" stroke-width="1.1997" stroke-miterlimit="10"/>
<path d="M445.643 213.676C445.605 213.57 445.572 213.462 445.546 213.352C445.186 211.997 445.507 210.528 444.829 209.257C443.996 207.691 441.746 206.712 441.46 204.935C441.207 203.288 442.783 201.764 442.52 200.139C442.235 198.307 439.855 197.221 439.405 195.428C439.135 194.319 439.382 193.038 439.285 191.887C439.164 190.603 438.934 189.332 438.597 188.087C441.288 187.902 444.012 188.937 445.643 190.616C446.132 191.101 446.525 191.675 446.801 192.306C447.731 194.449 447.177 196.952 448.629 198.91C449.42 199.971 450.734 200.762 451.408 201.871C451.634 202.233 451.792 202.633 451.875 203.051C451.878 203.082 451.884 203.112 451.891 203.142C451.907 203.2 451.914 203.255 451.924 203.304C452.167 204.945 451.541 206.721 451.742 208.411C451.924 209.811 452.682 211.215 452.248 212.584C451.943 213.504 451.539 214.388 451.042 215.22C450.638 215.937 450.142 216.598 449.566 217.185C449.501 217.169 449.443 217.143 449.378 217.12C448.791 212.84 447.644 206.096 445.643 200.061" fill="#ECFDF3"/>
<path d="M445.643 213.676C445.605 213.57 445.572 213.462 445.546 213.352C445.186 211.997 445.507 210.528 444.829 209.257C443.996 207.691 441.746 206.712 441.46 204.935C441.207 203.288 442.783 201.764 442.52 200.139C442.235 198.307 439.855 197.221 439.405 195.428C439.135 194.319 439.382 193.038 439.285 191.887C439.164 190.603 438.934 189.332 438.597 188.087C441.288 187.902 444.012 188.937 445.643 190.616C446.132 191.101 446.525 191.675 446.801 192.306C447.731 194.449 447.177 196.952 448.629 198.91C449.42 199.971 450.734 200.762 451.408 201.871C451.634 202.233 451.792 202.633 451.875 203.051C451.878 203.082 451.884 203.112 451.891 203.142C451.907 203.2 451.914 203.255 451.924 203.304C452.167 204.945 451.541 206.721 451.742 208.411C451.924 209.811 452.682 211.215 452.248 212.584C451.943 213.504 451.539 214.388 451.042 215.22C450.638 215.937 450.142 216.598 449.566 217.185C449.501 217.169 449.443 217.143 449.378 217.12C448.791 212.84 447.644 206.096 445.643 200.061" stroke="#D0D5DD" stroke-width="1.1997" stroke-miterlimit="10"/>
<path d="M449.592 218.779C449.534 218.28 449.459 217.735 449.378 217.132C448.791 212.852 447.644 206.108 445.643 200.073C444.382 196.231 442.773 192.661 440.744 190.165" stroke="#D0D5DD" stroke-width="1.1997" stroke-miterlimit="10"/>
<path d="M451.917 203.32C451.577 201.201 451.735 199.031 452.381 196.984" stroke="#D0D5DD" stroke-width="1.1997" stroke-miterlimit="10"/>
<path d="M471.903 191.005C470.881 191.151 469.845 191.18 468.817 191.092L467.195 190.962L471.903 191.005Z" fill="#D7E8F0"/>
<path d="M477.545 197.201C476.522 197.347 475.485 197.377 474.455 197.289L472.834 197.159L477.545 197.201Z" fill="#D7E8F0"/>
<path d="M548.976 175.879L549.002 175.905L549.021 175.925" stroke="#101828" stroke-width="1.1997" stroke-linejoin="round"/>
<path d="M528.023 98.8571V98.8484" stroke="#101828" stroke-width="1.1997" stroke-linejoin="round"/>
<path d="M721.784 79.9477C721.784 79.9477 705.99 33.216 761.078 38.9196C816.165 44.6232 789.845 23.9389 810.661 11.103C831.478 -1.73298 892.811 38.2008 867.151 76.7175C841.491 115.234 908.159 80.0005 922.066 137.922C930.647 173.666 909.356 199.975 891.79 214.888" stroke="#D0D5DD" stroke-width="1.60486" stroke-miterlimit="10"/>
<path d="M897.162 170.232C893.023 146.258 878.365 124.806 854.55 117.127C848.458 115.174 842.228 113.679 835.914 112.653V112.685C835.584 114.676 834.805 116.564 833.634 118.207C831.152 121.608 827.731 124.401 823.77 125.856C819.727 127.352 814.719 127.546 810.966 125.193C808.707 123.779 806.516 121.288 806.12 118.6C805.668 115.572 807.211 112.706 809.382 110.705C790.98 110.855 773.67 113.883 759.799 117.33C760.28 119.343 760.945 121.307 761.788 123.198C762.967 125.833 764.633 128.222 766.699 130.239C769.276 127.686 771.532 124.829 773.418 121.731C775.222 122.321 776.813 123.429 777.992 124.916C779.171 126.403 779.888 128.204 780.052 130.095V130.192C780.779 137.061 774.166 142.221 768.609 145.396C762.19 149.087 755.034 151.851 748.004 154.148C745.106 155.098 741.338 155.908 738.278 154.917C737.949 154.811 737.627 154.683 737.316 154.532C734.265 153.036 732.223 149.899 730.629 147.033C726.091 138.891 723.139 130.016 721.138 120.906C707.252 122.681 705.662 113.278 704.837 110.972L692.958 144.181C692.335 146.568 692.267 149.067 692.761 151.484C693.254 153.901 694.295 156.173 695.804 158.125C697.313 160.077 699.249 161.657 701.464 162.744C703.679 163.83 706.114 164.395 708.581 164.393H757.76L780.099 221.693L786.43 237.956H822.594C819.66 237.956 818.055 237.24 816.89 236.072C815.687 234.869 815.01 233.238 815.006 231.536C815.006 228.015 817.896 225.128 822.594 225.128H822.925C822.57 225.128 822.23 225.096 821.875 225.064C822.095 225.04 822.313 225.004 822.529 224.955C822.296 224.95 822.064 224.932 821.834 224.903C823.952 224.652 825.916 223.666 827.38 222.114C828.845 220.564 829.718 218.547 829.846 216.418C829.852 216.307 829.852 216.196 829.846 216.086V215.916C829.796 213.733 828.961 211.641 827.496 210.022C826.03 208.403 824.03 207.366 821.863 207.099C822.11 207.079 822.344 207.058 822.582 207.058C822.368 207.006 822.13 206.973 821.907 206.941C822.259 206.909 822.614 206.885 822.954 206.885L849.413 207.026L854.28 207.047H860.057C860.324 207.047 860.594 207.047 860.849 207.079L869.431 207.123L875.164 207.155C877.56 207.175 879.85 208.143 881.534 209.848C883.218 211.552 884.159 213.854 884.15 216.25C884.148 217.605 883.833 218.941 883.232 220.155C885.692 219.841 887.973 218.703 889.704 216.928C893.832 212.712 895.61 206.401 896.84 200.792C899.014 190.799 898.885 180.269 897.162 170.232ZM830.316 170.906C825.331 178.579 816.843 177.889 816.843 177.889C816.843 177.889 816.139 178.576 814.496 175.654C812.853 172.731 808.173 170.733 808.173 170.733C807.801 173.667 807.029 178.127 799.372 172.347C791.714 166.567 794.023 158.141 794.677 153.69C795.332 149.239 797.94 147.764 797.94 147.764L801.02 146.138C801.02 146.138 792.11 143.847 791.682 143.762C791.253 143.677 783.317 137.031 791.371 135.277C799.424 133.522 811.979 140.499 814.405 141.878C816.831 143.257 831.011 155.251 831.011 155.251C831.011 155.251 835.327 163.246 830.316 170.906Z" fill="#0E0E19"/>
<path d="M721.126 120.912C721.126 120.912 727.842 120.096 730.357 115.302L728.165 127.598C728.165 127.598 754.881 118.503 759.781 117.329C759.781 117.329 761.359 127.507 767.644 130.239L774.128 121.994C774.128 121.994 782.258 124.048 780.034 135.127C777.81 146.205 747.051 155.465 741.834 155.25C736.618 155.036 731.002 151.827 725.252 134.578L721.126 120.912Z" fill="#353642"/>
<path d="M732.067 93.5208C733.769 96.2904 735.479 99.0542 737.246 101.783C738.334 103.464 740.317 105.861 738.208 107.618C737.521 108.145 736.692 108.452 735.828 108.498C734.473 108.619 733.05 108.293 732.226 107.128L728.118 100.322C727.3 98.9641 725.999 97.9648 724.477 97.5221C722.955 97.0796 721.322 97.2266 719.903 97.9334" stroke="#101828" stroke-width="1.60486" stroke-miterlimit="10"/>
<path d="M747.602 102.486C748.676 105.038 747.948 106.684 746.693 107.512C744.639 108.858 741.89 108.213 740.435 106.247L732.082 93.5344" stroke="#101828" stroke-width="1.60486" stroke-miterlimit="10"/>
<path d="M739.138 89.8239C742.177 93.5207 746.012 100.386 748.133 103.253C750.255 106.119 753.535 104.391 753.535 104.391C756.199 102.956 755.747 100.577 754.582 97.6869C751.713 90.5926 747.617 85.8748 743.049 82.7825C728.893 73.2061 714.37 80.271 710.048 96.8008L692.958 144.181C692.335 146.568 692.267 149.066 692.761 151.484C693.254 153.901 694.295 156.173 695.804 158.125C697.313 160.077 699.249 161.657 701.464 162.744C703.679 163.83 706.114 164.394 708.581 164.393H757.76L786.439 237.958" stroke="#101828" stroke-width="1.60486" stroke-miterlimit="10"/>
<path d="M756.698 94.4329C760.218 93.2124 760.057 87.5968 755.06 85.7015C749.542 83.6067 739.742 80.6434 737.281 79.9041C737.265 79.8923 737.247 79.8853 737.228 79.8835C737.055 79.8307 736.935 79.7867 736.841 79.7662L736.703 79.7222" stroke="#101828" stroke-width="1.60486" stroke-miterlimit="10"/>
<path d="M808.716 150.579C805.635 146.877 797.203 144.779 791.699 143.764C790.774 143.59 789.931 143.12 789.296 142.426C788.661 141.731 788.269 140.849 788.179 139.911C788.115 139.28 788.188 138.641 788.393 138.04C788.721 137.116 789.35 136.33 790.178 135.807C791.006 135.283 791.986 135.053 792.961 135.153C802.349 136.103 812.031 139.058 819.193 145.421C819.193 145.421 853.91 171.915 858.056 174.494C859.767 175.532 861.363 174.306 860.204 172.675L859.84 172.053C857.799 168.551 855.384 165.281 852.637 162.3" stroke="#101828" stroke-width="1.60486" stroke-miterlimit="10"/>
<path d="M809.359 110.702C765.696 111.065 728.165 127.595 728.165 127.595L731.912 106.594" stroke="#101828" stroke-width="1.60486" stroke-miterlimit="10"/>
<path d="M877.174 224.998C877.174 224.998 872.418 223.922 871.153 227.73C869.889 231.538 868.568 237.597 877.661 237.955C886.753 238.313 881.413 236.526 880.888 233.583C880.363 230.64 877.174 224.998 877.174 224.998Z" fill="#353642"/>
<path d="M804.521 155.412C804.521 155.412 799.389 151.522 794.768 155.465C794.574 155.636 794.404 155.834 794.264 156.052" stroke="#101828" stroke-width="1.60486" stroke-miterlimit="10"/>
<g opacity="0.77">
<path opacity="0.77" d="M740.417 106.233C741.884 108.202 744.63 108.845 746.675 107.495C747.916 106.674 748.644 105.036 747.596 102.507C747.787 102.786 747.96 103.033 748.13 103.258C750.249 106.137 753.532 104.403 753.532 104.403C756.196 102.968 755.747 100.589 754.582 97.6957C753.442 94.8304 751.947 92.1198 750.131 89.6274C751.32 88.5155 752.731 87.3918 754.218 87.8847C755.823 88.4186 756.272 90.4313 756.454 92.1095C756.539 92.89 756.624 93.6616 756.709 94.442L757.994 105.931C758.423 109.745 758.851 113.615 759.781 117.338C760.262 119.351 760.928 121.316 761.77 123.206C762.949 125.842 764.616 128.231 766.682 130.248C769.259 127.695 771.515 124.838 773.4 121.739C775.204 122.33 776.795 123.437 777.974 124.925C779.154 126.412 779.87 128.213 780.034 130.104V130.201C780.762 137.069 774.149 142.23 768.592 145.404C762.172 149.095 755.016 151.859 747.987 154.156C745.088 155.107 741.321 155.917 738.261 154.925C737.931 154.82 737.61 154.691 737.298 154.541C734.247 153.044 732.205 149.908 730.612 147.042C722.984 133.325 719.815 117.576 718.146 101.979C721.484 101.519 724.812 101.005 728.098 100.298C728.098 100.298 728.098 100.322 728.118 100.33L731.906 106.612L732.217 107.134C733.038 108.308 734.461 108.622 735.82 108.504C736.683 108.462 737.513 108.154 738.196 107.624C740.303 105.864 738.325 103.476 737.234 101.794" fill="white"/>
<path opacity="0.77" d="M740.417 106.233C741.884 108.202 744.63 108.845 746.675 107.495C747.916 106.674 748.644 105.036 747.596 102.507C747.787 102.786 747.96 103.033 748.13 103.258C750.249 106.137 753.532 104.403 753.532 104.403C756.196 102.968 755.747 100.589 754.582 97.6957C753.442 94.8304 751.947 92.1198 750.131 89.6274C751.32 88.5155 752.731 87.3918 754.218 87.8847C755.823 88.4186 756.272 90.4313 756.454 92.1095C756.539 92.89 756.624 93.6616 756.709 94.442L757.994 105.931C758.423 109.745 758.851 113.615 759.781 117.338C760.262 119.351 760.928 121.316 761.77 123.206C762.949 125.842 764.616 128.231 766.682 130.248C769.259 127.695 771.515 124.838 773.4 121.739C775.204 122.33 776.795 123.437 777.974 124.925C779.154 126.412 779.87 128.213 780.034 130.104V130.201C780.762 137.069 774.149 142.23 768.592 145.404C762.172 149.095 755.016 151.859 747.987 154.156C745.088 155.107 741.321 155.917 738.261 154.925C737.931 154.82 737.61 154.691 737.298 154.541C734.247 153.044 732.205 149.908 730.612 147.042C722.984 133.325 719.815 117.576 718.146 101.979C721.484 101.519 724.812 101.005 728.098 100.298C728.098 100.298 728.098 100.322 728.118 100.33L731.906 106.612L732.217 107.134C733.038 108.308 734.461 108.622 735.82 108.504C736.683 108.462 737.513 108.154 738.196 107.624C740.303 105.864 738.325 103.476 737.234 101.794" fill="#12B76A"/>
<path opacity="0.77" d="M741.318 107.163C742.618 108.924 744.839 108.701 746.675 107.495C747.784 106.761 748.694 106.976 747.758 104.714C747.931 104.96 747.954 104.127 748.107 104.312C749.999 106.882 748.13 103.25 748.13 103.25C750.771 106.585 756.519 103.443 755.465 100.864C754.35 98.0859 753.177 93.9784 751.689 91.9246C752.863 90.8156 752.637 90.9799 754.13 91.863C754.531 92.1206 754.867 92.4683 755.111 92.8781C755.355 93.288 755.5 93.7489 755.536 94.2248C755.656 95.3426 755.776 96.4135 755.897 97.5049L757.041 107.774C757.425 111.186 757.807 114.633 758.637 117.954C759.066 119.75 759.661 121.502 760.415 123.189C761.465 125.509 764.839 129.373 766.682 131.142C768.973 128.869 771.719 124.688 773.4 121.909C776.628 122.901 776.487 125.988 776.716 129.359V129.447C777.367 135.576 771.464 140.179 766.517 143.016C760.784 146.311 754.397 148.775 748.122 150.829C745.534 151.68 742.172 152.414 739.44 151.516C739.146 151.423 738.858 151.308 738.58 151.172C735.858 149.835 734.033 147.039 732.61 144.477C726.381 133.29 723.491 120.589 721.901 107.856C721.784 106.903 722.042 105.942 722.62 105.176C723.198 104.41 724.051 103.898 724.999 103.748C726.786 103.455 728.567 103.162 730.336 102.768L730.386 102.792L733.766 108.399C734.502 109.44 734.623 108.625 735.834 108.519C736.6 108.451 738.085 108.302 738.677 107.806C740.558 106.239 739.496 105.591 738.522 104.092" fill="#12B76A"/>
</g>
<path d="M803.902 161.075C803.902 161.075 794.158 157.871 794.011 163.258" stroke="#101828" stroke-width="1.60486" stroke-miterlimit="10"/>
<path opacity="0.54" d="M716.685 215.947L697.576 166.991C697.339 166.044 697.321 165.055 697.524 164.1C697.727 163.145 698.144 162.248 698.745 161.479C699.346 160.709 700.115 160.087 700.993 159.659C701.87 159.23 702.834 159.008 703.81 159.008H779.711C781.416 159.008 783.07 159.581 784.409 160.636C785.748 161.691 786.692 163.166 787.09 164.823L808.009 213.767C808.235 214.711 808.244 215.694 808.036 216.643C807.827 217.591 807.407 218.479 806.806 219.242C806.205 220.004 805.439 220.62 804.565 221.044C803.692 221.468 802.734 221.688 801.763 221.689H724.046C722.354 221.69 720.711 221.125 719.377 220.085C718.043 219.044 717.096 217.588 716.685 215.947Z" fill="white"/>
<path d="M807.073 169.333C807.073 169.333 808.654 170.782 808.053 172.853C807.607 174.388 806.081 175.356 804.57 174.831C799.759 173.167 795.425 170.342 794.369 165.539C793.87 163.107 793.762 160.612 794.049 158.146C794.281 155.86 794.619 153.393 795.387 151.219C796.561 147.88 800.155 145.553 803.643 147.161" stroke="#101828" stroke-width="1.60486" stroke-miterlimit="10"/>
<path d="M716.685 215.947L697.576 166.991C697.339 166.044 697.321 165.055 697.524 164.1C697.727 163.145 698.144 162.248 698.745 161.479C699.346 160.709 700.115 160.087 700.993 159.659C701.87 159.23 702.834 159.008 703.81 159.008H779.711C781.416 159.008 783.07 159.581 784.409 160.636C785.748 161.691 786.692 163.166 787.09 164.823L808.009 213.767C808.235 214.711 808.244 215.694 808.036 216.643C807.827 217.591 807.407 218.479 806.806 219.242C806.205 220.004 805.439 220.62 804.565 221.044C803.692 221.468 802.734 221.688 801.763 221.689H724.046C722.354 221.69 720.711 221.125 719.377 220.085C718.043 219.044 717.096 217.588 716.685 215.947Z" fill="#B453EC"/>
<path d="M716.685 215.947L697.576 166.991C697.339 166.044 697.321 165.055 697.524 164.1C697.727 163.145 698.144 162.248 698.745 161.479C699.346 160.709 700.115 160.087 700.993 159.659C701.87 159.23 702.834 159.008 703.81 159.008H779.711C781.416 159.008 783.07 159.581 784.409 160.636C785.748 161.691 786.692 163.166 787.09 164.823L808.009 213.767C808.235 214.711 808.244 215.694 808.036 216.643C807.827 217.591 807.407 218.479 806.806 219.242C806.205 220.004 805.439 220.62 804.565 221.044C803.692 221.468 802.734 221.688 801.763 221.689H724.046C722.354 221.69 720.711 221.125 719.377 220.085C718.043 219.044 717.096 217.588 716.685 215.947Z" stroke="#101828" stroke-width="1.60486" stroke-linecap="square" stroke-linejoin="round"/>
<path d="M719.481 213.975L701.851 168.793C701.633 167.919 701.617 167.007 701.804 166.126C701.991 165.245 702.377 164.418 702.931 163.708C703.486 162.998 704.195 162.424 705.005 162.029C705.814 161.634 706.703 161.429 707.604 161.429H777.625C779.197 161.428 780.724 161.957 781.959 162.93C783.194 163.903 784.065 165.263 784.432 166.792L803.734 211.948C803.943 212.819 803.951 213.727 803.758 214.602C803.566 215.476 803.178 216.296 802.623 216.999C802.068 217.703 801.361 218.271 800.555 218.662C799.749 219.053 798.865 219.257 797.969 219.257H726.27C724.712 219.258 723.198 218.739 721.968 217.783C720.738 216.826 719.863 215.486 719.481 213.975Z" fill="#B453EC"/>
<path d="M869.337 206.888L882.763 237.955" stroke="#101828" stroke-width="1.60486" stroke-miterlimit="10"/>
<path d="M933.027 237.955H668.973" stroke="#101828" stroke-width="1.60486" stroke-miterlimit="10"/>
<path d="M808.15 97.7363C805.973 99.8869 802.722 99.884 800.871 97.8948" stroke="#101828" stroke-width="1.60486" stroke-miterlimit="10"/>
<path d="M750.131 89.6179C751.32 88.5059 752.731 87.3822 754.218 87.8751C755.823 88.4091 756.272 90.4218 756.454 92.1C756.968 96.7121 757.482 101.32 757.994 105.922C758.646 111.79 759.332 117.798 761.77 123.191C762.949 125.826 764.616 128.216 766.682 130.232" stroke="#101828" stroke-width="1.60486" stroke-miterlimit="10"/>
<path d="M780.034 130.197V130.1C779.87 128.21 779.154 126.408 777.974 124.921C776.795 123.434 775.204 122.326 773.4 121.736C771.515 124.834 769.259 127.692 766.682 130.244C759.926 136.962 751.247 141.411 741.849 142.975C742.301 144.773 743.231 146.41 743.873 148.141C744.516 149.872 744.836 151.876 744.055 153.546C743.069 155.676 740.241 155.397 738.275 154.924C738.255 154.924 738.243 154.924 738.223 154.924" stroke="#101828" stroke-width="1.60486" stroke-miterlimit="10"/>
<path d="M728.103 100.295C724.817 101.002 721.49 101.516 718.151 101.976C719.821 117.573 722.978 133.322 730.618 147.039C732.211 149.905 734.253 153.041 737.304 154.538C737.615 154.689 737.937 154.817 738.267 154.922C741.327 155.928 745.094 155.104 747.993 154.153C755.034 151.853 762.178 149.092 768.598 145.401C774.14 142.224 780.753 137.066 780.04 130.198C779.971 129.441 779.816 128.695 779.579 127.974" stroke="#101828" stroke-width="1.60486" stroke-miterlimit="10"/>
<path d="M783.05 69.1828C783.542 71.236 784.666 73.0826 786.264 74.4627C787.861 75.8431 789.852 76.6869 791.955 76.8756C792.129 76.0289 792.508 75.237 793.058 74.5698C795.405 71.8031 796.405 76.9932 803.913 73.2671C814.317 68.0917 818.266 71.0608 818.266 71.0608C818.612 71.319 818.559 73.7011 818.618 74.1353C818.912 76.6086 819.176 79.0702 819.466 81.5405C819.642 83.0486 819.815 84.5452 819.979 86.0415C820.121 85.7868 820.278 85.5407 820.449 85.3048C821.397 81.9513 823.089 77.9908 826.739 79.6954C827.478 80.0557 828.122 80.5853 828.617 81.2413C831.037 84.4217 829.204 87.4935 826.672 89.7673C826.037 90.4729 825.328 91.1072 824.556 91.66C824.973 92.5225 826.675 95.9464 826.675 95.9582C826.851 96.3044 832.798 89.5737 833.241 88.8402C833.903 87.0434 834.258 85.1481 834.291 83.2337C834.388 75.362 831.184 66.199 824.809 61.6837C823.227 60.5659 823.732 59.4891 823.635 57.9693C823.628 57.8872 823.597 57.8091 823.545 57.7452C823.493 57.6812 823.422 57.6346 823.344 57.6114C823.264 57.5882 823.18 57.5897 823.102 57.6152C823.023 57.641 822.955 57.6897 822.905 57.7554C820.907 60.0556 815.96 59.8268 815.96 59.8268C798.791 55.5256 793.02 63.1597 789.555 64.5211C788.141 65.0565 786.585 65.0823 785.154 64.5944C785.069 65.068 784.857 65.5095 784.54 65.8716C784.223 66.2336 783.814 66.5021 783.355 66.6482L783.443 67.443C783.518 68.0512 783.379 68.6662 783.05 69.1828Z" fill="#1D2939"/>
<path d="M791.966 76.8885C789.864 76.6996 787.873 75.8558 786.276 74.4757C784.678 73.0956 783.554 71.2486 783.062 69.1958C782.869 68.4083 782.747 67.605 782.698 66.7958L782.833 66.7811C783.018 66.7674 783.199 66.7277 783.373 66.6638C783.831 66.5177 784.241 66.2492 784.558 65.8872C784.875 65.5254 785.087 65.0836 785.171 64.61C785.225 64.3474 785.236 64.0778 785.204 63.812L784.763 59.9275C784.763 59.9275 787.868 62.2365 791.312 60.8869C794.756 59.5373 800.539 51.9032 817.717 56.1926C817.717 56.1926 821.596 56.4214 823.585 54.1212C823.635 54.0555 823.704 54.0068 823.782 53.9813C823.861 53.9554 823.945 53.9543 824.024 53.9775C824.103 54.0006 824.174 54.0473 824.225 54.111C824.278 54.1749 824.309 54.2532 824.316 54.3354C824.419 55.8581 824.982 56.9349 826.566 58.0498C832.942 62.568 836.145 71.7278 836.046 79.5995C836.016 82.865 834.931 86.0894 833.256 88.8561C832.813 89.5895 826.865 96.32 826.689 95.9738C826.689 95.9738 824.988 92.5381 824.571 91.6756L824.471 91.4849L824.662 91.3587C825.37 90.8778 826.047 90.3515 826.686 89.7832C829.216 87.5094 831.052 84.4376 828.632 81.2572C828.136 80.6011 827.493 80.0713 826.754 79.711C823.092 78.0064 821.411 81.9672 820.464 85.3207C820.28 85.9614 820.166 86.6207 820.126 87.2864C820.082 86.8756 820.038 86.4796 819.994 86.0688C819.83 84.5725 819.657 83.0762 819.481 81.5682C819.187 79.0978 818.912 76.6362 818.633 74.1629C818.589 73.7404 818.633 71.3463 818.281 71.0882C818.281 71.0882 814.329 68.119 803.928 73.2945C796.42 77.0206 795.42 71.8275 793.072 74.5971C792.523 75.2646 792.144 76.0562 791.969 76.9032C791.916 77.1752 791.881 77.4507 791.867 77.7276C791.861 77.7634 791.861 77.8001 791.867 77.8362C791.831 78.4435 791.82 79.0479 791.805 79.6406C791.749 85.3588 792.377 91.3323 794.622 96.6427C797.35 103.08 804.57 109.429 812.078 106.427C814.426 105.486 816.529 103.969 818.454 102.358" stroke="#101828" stroke-width="1.60486" stroke-miterlimit="10"/>
<path d="M797.104 90.8348C797.851 90.5848 798.211 89.6498 797.909 88.7464C797.607 87.8428 796.756 87.3129 796.009 87.5629C795.263 87.8125 794.902 88.7476 795.205 89.6512C795.507 90.5549 796.358 91.0848 797.104 90.8348Z" fill="#101828"/>
<path d="M808.275 90.4771C809.022 90.2274 809.382 89.2924 809.08 88.3887C808.778 87.4851 807.927 86.9552 807.18 87.2052C806.434 87.4552 806.074 88.3902 806.376 89.2936C806.678 90.1972 807.528 90.7271 808.275 90.4771Z" fill="#101828"/>
<path d="M804.004 92.4118C804.004 92.4118 800.287 94.5213 800.061 92.3326C799.991 91.6578 799.081 85.0477 799.081 85.0477C799.081 85.0477 796.077 81.8643 791.473 84.2174" stroke="#101828" stroke-width="1.60486" stroke-miterlimit="10"/>
<path d="M803.168 83.1956C803.168 83.1956 809.171 80.1972 813.143 84.5189" stroke="#101828" stroke-width="1.60486" stroke-miterlimit="10"/>
<path d="M808.672 107.164L809.362 110.702C807.188 112.706 805.65 115.578 806.099 118.603C806.498 121.285 808.693 123.781 810.943 125.187C814.704 127.534 819.707 127.349 823.756 125.856C827.713 124.389 831.137 121.604 833.619 118.207C834.788 116.564 835.567 114.677 835.896 112.688V112.653" stroke="#101828" stroke-width="1.60486" stroke-miterlimit="10"/>
<path d="M809.362 110.702L810.705 117.092" stroke="#101828" stroke-width="1.60486" stroke-miterlimit="10"/>
<path d="M828.365 94.4331L830.395 107.915C830.595 109.234 831.262 110.438 832.275 111.308C833.288 112.177 834.579 112.655 835.914 112.653C842.233 113.677 848.466 115.171 854.562 117.124C878.377 124.805 893.034 146.258 897.174 170.228C898.896 180.265 899.026 190.792 896.863 200.774C895.634 206.392 893.856 212.703 889.728 216.91C884.368 222.397 876.141 220.137 869.806 217.658C850.14 210.01 833.784 196.402 819.66 180.823C812.108 172.49 802.349 165.813 802.349 165.813" stroke="#101828" stroke-width="1.60486" stroke-miterlimit="10"/>
<path d="M725.979 203.863C723.773 203.843 721.851 202.062 721.355 199.583C720.375 194.706 720.117 187.166 727.267 185.52C736.201 183.467 743.072 193.196 746.441 199.345C747.573 201.399 746.291 204.039 744.181 204.039L725.979 203.863Z" fill="#D7E8F0"/>
<path d="M728.929 181.38C730.825 180.118 730.855 176.828 728.994 174.031C727.133 171.235 724.087 169.991 722.19 171.253C720.293 172.515 720.264 175.805 722.125 178.602C723.986 181.398 727.032 182.642 728.929 181.38Z" fill="#D7E8F0"/>
<path d="M875.748 225.159C875.61 225.18 875.454 225.201 875.319 225.233H875.267L854.398 225.124L823.084 224.963C822.963 224.963 822.846 224.963 822.729 224.963C822.496 224.957 822.264 224.94 822.033 224.91C824.155 224.664 826.121 223.677 827.587 222.123C829.053 220.57 829.924 218.549 830.046 216.416C830.052 216.306 830.052 216.195 830.046 216.085V215.915C830.037 213.828 829.31 211.809 827.987 210.195C826.664 208.582 824.826 207.474 822.781 207.057C822.567 207.004 822.333 206.972 822.107 206.94C822.462 206.908 822.814 206.884 823.157 206.884L849.612 207.025L854.483 207.045L861.052 207.078C863.301 207.283 865.393 208.32 866.918 209.986C868.443 211.651 869.292 213.826 869.299 216.085C869.299 216.511 869.267 216.937 869.202 217.358C868.889 219.508 867.815 221.475 866.175 222.9C864.535 224.325 862.438 225.115 860.265 225.124H876.161C875.246 225.124 875.501 225.124 875.748 225.159Z" fill="white"/>
<path d="M833.417 236.072C834.013 236.671 834.722 237.147 835.503 237.47C836.285 237.793 837.122 237.958 837.968 237.956H822.6C819.666 237.956 818.064 237.24 816.896 236.072C815.696 234.867 815.02 233.237 815.015 231.536C815.015 228.015 817.902 225.128 822.6 225.128H837.968C836.699 225.126 835.458 225.501 834.403 226.205C833.347 226.909 832.524 227.91 832.038 229.082C831.552 230.255 831.425 231.545 831.674 232.789C831.922 234.033 832.534 235.176 833.432 236.072H833.417Z" fill="#D7E8F0"/>
<path d="M884.171 216.246C884.167 217.601 883.852 218.937 883.25 220.151C882.82 221.069 882.23 221.903 881.507 222.613C880.316 223.793 878.819 224.619 877.185 224.998C876.512 225.154 875.823 225.233 875.132 225.233C875.272 225.201 875.425 225.18 875.56 225.159C875.314 225.136 875.058 225.127 875.977 225.127H860.078C862.252 225.119 864.351 224.33 865.992 222.904C867.633 221.478 868.708 219.51 869.02 217.358C869.085 216.937 869.117 216.511 869.117 216.085C869.11 213.826 868.261 211.651 866.735 209.985C865.209 208.319 863.117 207.282 860.867 207.078L869.449 207.122L875.182 207.154C877.577 207.174 879.868 208.142 881.552 209.846C883.237 211.549 884.178 213.85 884.171 216.246Z" fill="#60BAAF"/>
<path d="M884.171 216.244C884.153 218.641 883.186 220.934 881.481 222.619C879.777 224.305 877.473 225.246 875.076 225.237L822.875 224.967C822.526 224.967 822.177 224.94 821.825 224.905C824.025 224.656 826.058 223.608 827.537 221.96C829.017 220.312 829.84 218.179 829.852 215.964C829.863 213.75 829.062 211.608 827.6 209.945C826.138 208.282 824.117 207.213 821.919 206.941C822.268 206.904 822.618 206.886 822.969 206.888L875.17 207.158C877.567 207.174 879.86 208.139 881.547 209.842C883.234 211.545 884.177 213.847 884.171 216.244Z" stroke="#101828" stroke-width="1.60486" stroke-linecap="square" stroke-linejoin="round"/>
<path d="M869.111 216.082C869.107 218.479 868.152 220.776 866.457 222.471C864.763 224.166 862.466 225.12 860.069 225.125H822.928C822.577 225.122 822.227 225.103 821.878 225.066C824.076 224.805 826.103 223.746 827.574 222.091C829.045 220.435 829.857 218.298 829.857 216.084C829.857 213.869 829.045 211.732 827.574 210.076C826.103 208.421 824.076 207.363 821.878 207.101C822.227 207.069 822.579 207.046 822.928 207.046H860.069C862.464 207.051 864.76 208.005 866.455 209.698C868.149 211.391 869.104 213.687 869.111 216.082Z" stroke="#101828" stroke-width="1.60486" stroke-linecap="square" stroke-linejoin="round"/>
<path d="M815.015 231.538C815.015 232.379 815.181 233.213 815.503 233.99C815.825 234.767 816.297 235.473 816.893 236.068C818.067 237.241 819.66 237.954 822.597 237.954H875.974C875.055 237.954 875.305 237.937 875.554 237.913C873.992 237.73 872.552 236.979 871.507 235.803C870.462 234.628 869.885 233.11 869.885 231.538C869.885 229.965 870.462 228.448 871.507 227.272C872.552 226.097 873.992 225.346 875.554 225.162C875.305 225.139 875.055 225.121 875.974 225.121H822.597C817.896 225.124 815.015 228.011 815.015 231.538Z" stroke="#101828" stroke-width="1.60486" stroke-linecap="square" stroke-linejoin="round"/>
<path d="M831.533 231.538C831.537 233.239 832.215 234.868 833.417 236.071C834.62 237.273 836.249 237.951 837.95 237.954H874.809C875.055 237.954 875.305 237.937 875.554 237.913C873.992 237.73 872.552 236.979 871.507 235.803C870.462 234.628 869.885 233.11 869.885 231.538C869.885 229.965 870.462 228.448 871.507 227.272C872.552 226.097 873.992 225.346 875.554 225.162C875.305 225.139 875.055 225.121 874.809 225.121H837.95C836.25 225.126 834.62 225.803 833.418 227.006C832.215 228.208 831.538 229.838 831.533 231.538Z" stroke="#101828" stroke-width="1.60486" stroke-linecap="square" stroke-linejoin="round"/>
<path d="M771.784 182.583H755.319C754.565 182.582 753.828 182.361 753.198 181.949C752.568 181.536 752.071 180.949 751.768 180.259C751.652 180.003 751.602 179.72 751.623 179.439C751.645 179.158 751.737 178.886 751.892 178.65C752.046 178.414 752.258 178.221 752.508 178.089C752.757 177.957 753.035 177.89 753.318 177.894H770.821C769.997 179.282 770.417 181.21 771.784 182.583Z" fill="#D7E8F0"/>
<path d="M782.431 180.886C782.43 181.335 782.252 181.765 781.934 182.083C781.617 182.4 781.187 182.579 780.738 182.579H771.784C770.417 181.209 769.997 179.282 770.822 177.885H778.728C779.481 177.885 780.217 178.104 780.848 178.514C781.478 178.925 781.977 179.509 782.281 180.197C782.376 180.415 782.427 180.649 782.431 180.886Z" fill="#B453EC"/>
<path d="M778.312 182.583C778.266 182.672 778.212 182.757 778.15 182.838C776.977 184.443 774.427 184.598 772.447 183.149C772.213 182.976 771.991 182.787 771.784 182.583C770.417 181.212 769.997 179.285 770.822 177.888C770.868 177.799 770.922 177.713 770.983 177.633C772.156 176.016 774.694 175.873 776.675 177.31C776.913 177.489 777.138 177.685 777.347 177.897C778.702 179.261 779.125 181.177 778.312 182.583Z" fill="white"/>
<path d="M786.571 191.224C786.568 191.673 786.387 192.103 786.068 192.419C785.75 192.736 785.318 192.914 784.869 192.914H767.591C768.424 191.511 768.008 189.598 766.638 188.219H782.868C783.622 188.22 784.359 188.439 784.99 188.851C785.621 189.263 786.118 189.85 786.421 190.54C786.518 190.755 786.569 190.988 786.571 191.224Z" fill="#B453EC"/>
<path d="M767.591 192.913H759.461C758.709 192.913 757.972 192.695 757.341 192.284C756.71 191.874 756.213 191.289 755.908 190.601C755.812 190.385 755.762 190.153 755.759 189.917C755.758 189.695 755.802 189.475 755.887 189.27C755.971 189.065 756.096 188.878 756.253 188.721C756.41 188.564 756.596 188.44 756.801 188.355C757.007 188.27 757.227 188.227 757.449 188.227H766.638C768.008 189.597 768.433 191.51 767.591 192.913Z" fill="#D7E8F0"/>
<path d="M767.591 192.913C767.553 193.005 767.503 193.092 767.442 193.171C766.268 194.785 763.727 194.931 761.75 193.491C761.51 193.312 761.285 193.116 761.075 192.904C759.717 191.534 759.3 189.621 760.113 188.21C760.16 188.119 760.214 188.033 760.274 187.952C761.448 186.347 763.997 186.191 765.975 187.644C766.21 187.815 766.432 188.004 766.638 188.21C768.008 189.598 768.433 191.51 767.591 192.913Z" fill="white"/>
<path d="M773.348 203.174H763.003C762.25 203.173 761.515 202.954 760.884 202.544C760.253 202.133 759.755 201.549 759.45 200.862C759.333 200.604 759.284 200.321 759.305 200.04C759.327 199.758 759.42 199.486 759.574 199.249C759.729 199.013 759.941 198.819 760.19 198.686C760.44 198.553 760.719 198.485 761.002 198.488H772.385C771.57 199.894 771.989 201.804 773.348 203.174Z" fill="#B453EC"/>
<path d="M790.112 201.495C790.11 201.941 789.93 202.369 789.614 202.683C789.297 202.998 788.868 203.174 788.422 203.173H773.348C771.989 201.803 771.57 199.89 772.385 198.479H786.409C787.163 198.479 787.9 198.699 788.531 199.111C789.162 199.523 789.659 200.11 789.962 200.8C790.059 201.019 790.11 201.255 790.112 201.495Z" fill="#D7E8F0"/>
<path d="M779.876 203.173C779.829 203.263 779.775 203.35 779.714 203.432C778.541 205.045 776.003 205.192 774.022 203.751C773.784 203.572 773.56 203.376 773.351 203.165C771.992 201.794 771.573 199.882 772.388 198.47C772.433 198.38 772.486 198.293 772.547 198.212C773.72 196.607 776.27 196.469 778.25 197.904C778.485 198.075 778.707 198.264 778.913 198.47C780.28 199.858 780.697 201.783 779.876 203.173Z" fill="white"/>
<path d="M701.719 109.637L701.977 109.71L701.88 110.086C701.819 109.939 701.765 109.789 701.719 109.637Z" fill="#353642"/>
<path d="M747.633 133.109C751.496 131.976 753.525 127.304 752.166 122.676C750.807 118.047 746.575 115.214 742.713 116.348C738.851 117.482 736.822 122.153 738.181 126.782C739.539 131.41 743.772 134.243 747.633 133.109Z" fill="#D7E8F0"/>
<rect x="853" y="36" width="36.7949" height="36.5505" rx="18.2752" fill="#F04438"/>
<path d="M863.242 50.1146C863.397 49.4756 863.65 48.8643 863.99 48.3019C864.569 47.3214 865.485 46.5851 866.567 46.2314C867.649 45.8779 868.823 45.9308 869.869 46.3808C870.552 46.6765 871.157 47.1261 871.636 47.6951C872.115 48.2641 872.455 48.9367 872.63 49.6597C873.534 49.1474 874.579 48.9419 875.609 49.0742C876.639 49.2068 877.598 49.6701 878.343 50.3942C879.087 51.1185 879.577 52.0648 879.737 53.0908C879.898 54.1168 879.721 55.1673 879.234 56.0844C878.208 58.0126 876.172 59.5103 874.265 60.5041C873.265 61.0227 872.216 61.4377 871.133 61.7429C870.583 61.9003 867.469 62.8697 867.091 62.4427C864.599 59.6573 862.223 54.1913 863.242 50.1146Z" fill="white"/>
<rect x="681" y="80.2461" width="32.75" height="32.7539" rx="16.375" fill="#B453EC"/>
<path d="M694.648 103C694.452 103 694.259 102.961 694.078 102.887C693.897 102.812 693.733 102.702 693.595 102.563L689.26 98.2284C688.981 97.9495 688.824 97.5711 688.824 97.1766C688.823 96.7822 688.98 96.4035 689.259 96.1245C689.538 95.8452 689.916 95.6882 690.311 95.6879C690.705 95.6876 691.083 95.844 691.363 96.1229L694.657 99.4174L703.386 90.6827C703.665 90.4034 704.043 90.2464 704.438 90.2461C704.832 90.2458 705.21 90.4021 705.49 90.6811C705.769 90.9598 705.926 91.3382 705.926 91.7326C705.927 92.1271 705.77 92.5058 705.491 92.7851L695.698 102.579C695.417 102.852 695.04 103.004 694.648 103Z" fill="white"/>
<defs>
<clipPath id="clip0_4926_48965">
<rect width="327" height="231" fill="white" transform="translate(0.9729 7)"/>
</clipPath>
</defs>
</svg>
