<svg width="306" height="264" viewBox="0 0 306 264" fill="none" xmlns="http://www.w3.org/2000/svg">
<path d="M54.936 70.4536C53.9896 72.0354 52.0089 72.7047 50.3054 73.0461C48.1287 73.4922 45.8776 73.6105 43.6738 73.8066L42.3928 74.1209C42.1505 74.1956 41.925 74.3176 41.73 74.4795C41.5346 74.6418 41.3734 74.8408 41.2555 75.0653C41.1372 75.2897 41.0648 75.5354 41.0418 75.7883C41.0189 76.0408 41.0462 76.2956 41.1219 76.5376C41.9146 79.2653 43.0049 81.8969 44.3735 84.386L42.3455 86.414C41.7709 85.6366 41.7439 84.2744 40.9732 84.4062C40.233 83.666 39.3542 83.3044 38.445 84.2947C36.6671 86.2382 36.9544 90.2773 39.5671 91.3927L38.9824 94.3029C38.7806 95.3203 38.2327 96.2366 37.4317 96.8954C36.6303 97.5541 35.6257 97.9148 34.5884 97.9161L35.0379 94.4719C31.9959 96.0098 28.545 92.6839 28.7849 89.9427C28.9404 88.0634 28.5145 86.7655 27.1254 85.4033C27.0341 85.3121 27.5918 84.9741 27.5073 84.8828C27.1152 83.6964 27.0611 82.3106 27.4498 81.5265C28.1258 80.1272 30.1167 79.3092 29.2007 77.7814C28.7988 77.1156 28.5054 76.3899 28.332 75.6318C28.1482 74.6266 28.1816 73.5936 28.4307 72.6023C28.6798 71.6113 29.1382 70.6848 29.7753 69.8858C31.1273 68.2634 33.3243 68.6994 35.1191 68.1248C37.3059 67.4488 38.3165 65.1064 40.6048 64.3831C41.7439 64.0215 42.7984 64.1871 43.9375 64.4473C44.9008 64.6704 45.8539 64.9205 46.8003 65.218C47.7467 65.5154 48.5782 65.7622 49.5043 65.485C50.7279 65.147 51.6709 64.0046 53.006 63.9944C53.6722 63.9792 54.3242 64.1874 54.8583 64.5859C55.8452 66.3604 55.852 68.936 54.936 70.4536Z" fill="#F04438"/>
<path d="M13.1052 116.22C13.1052 116.22 -23.6929 75.6325 30.4986 55.3795C33.641 54.2273 36.9163 53.4755 40.2466 53.1419C48.896 52.2226 68.0166 48.9541 70.2204 37.915" stroke="#CCDDE2" stroke-width="1.38918" stroke-miterlimit="10"/>
<path d="M167.578 59.4013V59.3911" stroke="#CCDDE2" stroke-width="1.38918" stroke-miterlimit="10"/>
<path d="M71.0249 132.48V132.47" stroke="black" stroke-width="1.38918" stroke-miterlimit="10"/>
<path d="M42.2543 86.1439C41.894 85.5213 41.4654 84.9406 40.9766 84.4133C40.2364 83.6731 39.3576 83.3115 38.4484 84.3018C36.6705 86.2453 36.9578 90.2844 39.5705 91.3998L38.9858 94.31C38.784 95.3274 38.2361 96.2433 37.4351 96.9021C36.6337 97.5609 35.6291 97.9218 34.5918 97.9232" stroke="black" stroke-width="1.38918" stroke-linecap="round" stroke-linejoin="round"/>
<path d="M32.9559 110.801C33.1047 109.672 33.4731 106.708 33.828 103.882C34.166 101.263 34.4668 98.7411 34.5851 97.9096L35.038 94.4722" stroke="black" stroke-width="1.38918" stroke-linecap="round" stroke-linejoin="round"/>
<path d="M53.824 76.9302C53.824 76.9302 49.5077 77.1431 48.6729 80.7158" stroke="black" stroke-width="1.38918" stroke-miterlimit="10"/>
<path d="M55.3923 86.3707C56.5686 86.3403 58.0963 86.1679 58.6507 84.9748L55.6762 81.6928C54.9506 80.8887 54.5213 79.8608 54.4595 78.7792C54.3412 76.9642 54.5541 74.0844 52.8168 72.168" stroke="black" stroke-width="1.38918" stroke-miterlimit="10"/>
<path d="M52.8489 81.8272C53.336 81.2884 53.36 80.5171 52.903 80.1041C52.446 79.6907 51.6808 79.7928 51.1941 80.3315C50.707 80.87 50.6827 81.6416 51.1397 82.0547C51.5967 82.4677 52.3619 82.366 52.8489 81.8272Z" fill="black"/>
<path d="M52.5565 107.928L50.3156 97.0649" stroke="black" stroke-width="1.38918" stroke-miterlimit="10"/>
<path d="M109.364 156.82L94.9214 168.629C112.298 195.129 99.1464 199.993 99.1464 199.993C96.5951 200.481 94.0192 200.827 91.4298 201.03C78.8697 201.936 65.9852 198.695 55.6322 191.434C34.6762 176.731 16.4242 147.305 26.1586 121.685C26.9776 119.518 27.9784 117.423 29.1499 115.425C30.1595 113.688 31.445 112.126 32.9558 110.801C35.6003 108.486 38.857 106.984 42.3346 106.475C45.812 105.966 49.3627 106.472 52.5598 107.931C53.7837 108.49 54.9414 109.184 56.0108 110C61.483 114.188 66.4584 120.14 70.7476 126.386C74.5558 132.035 77.9832 137.932 81.0059 144.037C81.8408 145.703 82.5979 147.278 83.2671 148.721C89.3342 146.267 94.4211 142.1 99.1531 137.598C93.4308 148.278 109.364 156.82 109.364 156.82Z" fill="#353642"/>
<path d="M99.258 165.458C98.9808 165.671 98.6936 165.895 98.4062 166.107" stroke="black" stroke-width="1.38918" stroke-miterlimit="10"/>
<path d="M56.5585 120.562C60.389 127.897 64.2199 135.245 68.0505 142.607C70.9404 148.164 75.8245 151.594 82.7028 148.961C90.1861 146.095 96.2228 140.616 101.807 135.032C107.39 129.449 113.048 124.108 121.11 122.668C131.53 120.806 141.39 126.484 148.488 133.66C149.034 134.207 149.379 134.923 149.468 135.691C149.557 136.459 149.384 137.234 148.978 137.892C148.717 138.312 148.368 138.672 147.956 138.946C147.544 139.219 147.078 139.401 146.589 139.478C146.1 139.556 145.6 139.527 145.124 139.393C144.647 139.26 144.205 139.026 143.827 138.706C140.464 135.837 134.991 131.686 131.185 131.632" stroke="black" stroke-width="1.38918" stroke-miterlimit="10"/>
<path d="M120.802 141.478C121.972 142.258 123.594 143.124 124.946 143.124" stroke="black" stroke-width="1.38918" stroke-miterlimit="10"/>
<path d="M135.789 133.056C138.283 134.289 139.193 137.899 137.432 140.056C135.199 142.826 132.401 145.089 129.225 146.694C125.75 148.428 123.52 147.37 120.099 145.254" stroke="black" stroke-width="1.38918" stroke-miterlimit="10"/>
<path d="M130.016 136.29C130.016 136.29 134.958 137.514 134.826 142.31C134.817 142.514 134.78 142.717 134.718 142.911" stroke="black" stroke-width="1.38918" stroke-miterlimit="10"/>
<path d="M126.524 139.311C126.524 139.311 133.153 143.594 129.999 146.287" stroke="black" stroke-width="1.38918" stroke-miterlimit="10"/>
<path d="M254.562 156.096C246.754 177.556 224.896 178.161 222.395 178.161C223.443 175.954 223.726 172.077 221.431 165.283C222.969 163.038 223.778 160.374 223.75 157.653C223.721 154.932 222.857 152.286 221.273 150.073C221.303 150.046 221.32 150.009 221.347 149.982C222.44 149.915 223.525 149.751 224.588 149.492C228.36 148.593 235.796 146.619 241.698 143.841C245.7 141.951 250.368 144.98 250.026 149.397C250.026 149.455 250.026 149.509 250.006 149.573C250.787 149.573 251.557 149.761 252.25 150.122C252.943 150.483 253.539 151.005 253.986 151.646C254.433 152.287 254.719 153.026 254.82 153.801C254.92 154.575 254.832 155.363 254.562 156.096Z" fill="#F04438"/>
<path d="M154.369 206.428C151.739 210.941 147.646 214.784 143.691 218.137C129.769 229.919 111.581 235.902 93.3294 236.135C75.0166 235.902 56.7612 229.899 42.7747 218.221C-1.4188 181.318 6.56815 137.747 13.7168 117.572C13.9686 116.874 14.3095 116.212 14.7308 115.601C15.2898 114.783 16.0154 114.093 16.8601 113.576C17.7048 113.059 18.6493 112.726 19.6319 112.6C23.3837 113.117 26.7907 116.23 26.1891 121.05C26.1891 121.235 26.1147 121.492 26.0978 121.678C16.3701 147.299 34.6289 176.725 55.5714 191.428C65.0726 198.097 76.7066 201.375 88.2662 201.162H88.398C89.3893 201.142 90.3797 201.096 91.369 201.024C97.862 200.551 104.172 198.996 110.422 197.113C117.757 194.92 125.01 192.259 132.338 190.397C134.914 189.741 137.496 189.109 140.092 188.518C141.59 188.211 143.122 188.105 144.648 188.203C153.649 188.812 159.973 196.816 154.369 206.428Z" fill="#D7E8F0"/>
<path d="M156.593 206.428C153.963 210.941 149.867 214.784 145.912 218.137C131.436 230.399 112.335 236.389 93.3193 236.135C75.0064 235.902 56.7511 229.899 42.7646 218.221C-1.4187 181.318 6.56823 137.747 13.7169 117.572C13.9687 116.874 14.3095 116.212 14.7309 115.601C15.2899 114.783 16.0155 114.093 16.8602 113.576C17.7049 113.059 18.6497 112.726 19.6319 112.6C23.3837 113.117 26.7907 116.23 26.1891 121.05C26.1891 121.235 26.1147 121.492 26.0978 121.678C16.3702 147.299 34.629 176.725 55.5714 191.428C65.0726 198.097 76.7066 201.375 88.2662 201.162H88.398C90.1397 201.189 91.8716 201.143 93.5931 201.024C100.086 200.551 106.393 198.996 112.646 197.113C119.981 194.92 127.234 192.259 134.562 190.397C137.134 189.741 139.72 189.109 142.312 188.518C143.083 188.36 143.863 188.255 144.648 188.203C154.768 187.524 162.65 196.038 156.593 206.428Z" fill="#D7E8F0"/>
<path d="M96.3714 236.073L100.82 242.367C100.82 242.367 127.734 243.415 142.465 255.779C145.189 258.067 143.56 262.512 140.004 262.512C139.112 262.515 138.249 262.201 137.567 261.626C134.089 258.706 120.802 249.526 90.7471 249.249C61.4628 248.975 50.2311 258.037 47.1249 261.339C46.7706 261.712 46.3437 262.008 45.8705 262.21C45.3973 262.412 44.888 262.514 44.3735 262.512H43.7956C40.1452 262.512 38.6005 257.901 41.4836 255.664C53.7801 246.102 81.344 243.053 81.344 243.053L86.0489 235.955" fill="#353642"/>
<path d="M215.486 201.176C215.486 201.176 223.73 209.007 221.158 233.286C220.97 235.019 220.367 236.682 219.4 238.133L218.504 239.485C217.035 241.684 214.82 243.279 212.268 243.973C206.884 245.444 197.116 248.851 191.082 255.306C188.534 258.041 190.43 262.496 194.168 262.496C194.865 262.498 195.552 262.327 196.167 261.999C196.782 261.671 197.307 261.196 197.694 260.616C200.151 256.919 207.59 249.067 225.535 249.233C245.774 249.419 253.927 257.466 256.539 260.934C256.9 261.418 257.369 261.811 257.908 262.082C258.448 262.353 259.042 262.494 259.646 262.496C260.402 262.494 261.142 262.272 261.774 261.856C262.405 261.441 262.903 260.85 263.204 260.156C263.505 259.462 263.597 258.695 263.468 257.95C263.34 257.204 262.997 256.512 262.482 255.959C254.589 247.384 244.936 244.186 239.609 243C236.933 242.423 234.568 240.867 232.981 238.636C231.765 236.916 231.074 234.88 230.99 232.775C230.693 225.248 230.537 206.976 235.638 201.183" fill="#353642"/>
<path d="M110.49 197.122C124.987 190.085 140.72 185.468 156.191 181.121C171.759 176.748 187.479 172.932 203.247 169.346C209.547 167.916 215.905 166.642 222.175 165.029" stroke="black" stroke-width="1.38918" stroke-miterlimit="10"/>
<path d="M124.091 143.026H124.101H124.108" stroke="black" stroke-width="1.38918" stroke-miterlimit="10"/>
<path d="M122.465 142.111C121.556 143.01 118.311 147.813 117.496 148.674C113.021 153.47 108.268 157.999 103.26 162.235C101.999 163.283 100.664 164.364 99.2579 165.46C98.9808 165.672 98.6935 165.896 98.4062 166.109C88.8746 173.342 76.4362 180.305 64.9442 175.843C64.64 175.731 64.3425 175.603 64.0485 175.471C46.4218 167.579 34.1017 147.813 33.0268 128.732C32.9896 128.111 32.9694 127.492 32.9626 126.88C32.868 121.665 33.6386 116.45 38.641 113.698" stroke="black" stroke-width="1.38918" stroke-miterlimit="10"/>
<path d="M26.1857 121.61L26.2567 121.056C27.3789 112.058 14.6025 109.023 11.5706 117.571C4.42532 137.743 -3.565 181.305 40.6386 218.214C69.1692 242.046 115.36 242.212 143.783 218.136C147.737 214.787 151.83 210.937 154.463 206.425C161.125 195.014 150.952 185.864 139.477 188.673" stroke="black" stroke-width="1.38918" stroke-miterlimit="10"/>
<path d="M96.3714 236.073L100.82 242.367C100.82 242.367 127.734 243.415 142.465 255.779C145.189 258.067 143.56 262.512 140.004 262.512C139.112 262.515 138.249 262.201 137.567 261.626C134.089 258.706 120.802 249.526 90.7471 249.249C61.4628 248.975 50.2311 258.037 47.1249 261.339C46.7706 261.712 46.3437 262.008 45.8705 262.21C45.3973 262.412 44.888 262.514 44.3735 262.512H43.7956C40.1452 262.512 38.6005 257.901 41.4836 255.664C53.7801 246.102 81.344 243.053 81.344 243.053L86.0489 235.955" stroke="black" stroke-width="1.38918" stroke-miterlimit="10"/>
<path d="M81.344 143.496C92.6264 140.454 97.2739 124.538 99.1465 113.837" stroke="black" stroke-width="1.38918" stroke-miterlimit="10"/>
<path d="M70.7375 126.396C73.8718 125.986 76.8486 124.778 79.3829 122.889C81.9176 121.001 83.9253 118.493 85.2141 115.607C85.4838 115.033 85.615 114.404 85.5974 113.77C85.5798 113.136 85.4138 112.515 85.1127 111.957C83.8824 109.679 82.047 107.039 82.483 104.308C82.7974 102.381 84.3826 101.026 86.201 100.59C87.1228 100.348 88.0935 100.365 89.0065 100.637C89.5537 100.792 90.0597 101.067 90.4876 101.442C90.9155 101.816 91.2545 102.281 91.4806 102.804C91.9234 103.841 91.3961 104.869 90.5815 105.545C89.7669 106.221 88.8138 106.461 87.8201 106.731C87.6916 106.768 87.3401 106.843 86.9514 106.917" stroke="black" stroke-width="1.38918" stroke-miterlimit="10"/>
<path d="M222.161 165.023C222.161 165.023 244.402 160.365 248.58 153.656C249.363 152.433 249.851 151.044 250.006 149.6" stroke="black" stroke-width="1.38918" stroke-miterlimit="10"/>
<path d="M112.724 153.565C151.516 149.445 195.301 150.053 195.301 150.053H219.873C221.461 150.055 223.044 149.869 224.588 149.499C228.36 148.6 235.796 146.629 241.698 143.847C245.7 141.958 250.368 144.986 250.026 149.407C250.026 149.462 250.026 149.519 250.006 149.583C250.786 149.584 251.554 149.772 252.245 150.132C252.937 150.492 253.531 151.014 253.978 151.652C254.425 152.291 254.712 153.028 254.814 153.801C254.915 154.574 254.829 155.361 254.562 156.093C246.274 178.871 222.162 178.158 222.162 178.158C219.079 178.249 216.003 178.371 212.917 178.529C185.732 179.851 158.787 183.667 132.409 190.403C125.081 192.266 117.828 194.922 110.493 197.119C104.24 199.009 97.9229 200.554 91.4299 201.027C78.8698 201.936 65.9852 198.691 55.6323 191.431C32.9559 175.518 13.4398 142.34 29.15 115.408C34.6966 105.903 47.2567 103.301 56.0109 110C68.358 119.447 78.2208 137.851 83.2807 148.708" stroke="black" stroke-width="1.38918" stroke-miterlimit="10"/>
<path d="M254.048 201.176H200.063" stroke="black" stroke-width="1.38918" stroke-miterlimit="10"/>
<path d="M189.166 190.272C189.174 187.382 190.325 184.613 192.368 182.569C194.411 180.525 197.18 179.373 200.07 179.364H254.062C256.952 179.372 259.722 180.524 261.766 182.568C263.81 184.611 264.961 187.381 264.969 190.272" stroke="black" stroke-width="1.38918" stroke-miterlimit="10"/>
<path d="M266.031 194.139C266.033 195.064 265.853 195.98 265.5 196.836C265.147 197.691 264.629 198.468 263.974 199.122C263.32 199.776 262.543 200.294 261.687 200.646C260.832 200.999 259.915 201.179 258.99 201.176H195.108C193.509 201.024 192.033 200.252 190.998 199.024C189.963 197.795 189.451 196.21 189.572 194.609C189.693 193.007 190.438 191.517 191.647 190.459C192.855 189.401 194.431 188.859 196.034 188.95H259.916C261.05 188.949 262.168 189.221 263.173 189.746C264.179 190.271 265.042 191.031 265.689 191.962C265.915 192.665 266.031 193.4 266.031 194.139Z" fill="#D7E8F0"/>
<path d="M266.03 194.138C266.033 195.063 265.853 195.98 265.5 196.835C265.147 197.69 264.628 198.467 263.974 199.121C263.32 199.775 262.542 200.293 261.687 200.646C260.832 200.998 259.915 201.178 258.99 201.175H195.108C194.171 201.196 193.238 201.029 192.366 200.684C191.495 200.34 190.7 199.824 190.03 199.169C189.36 198.513 188.827 197.73 188.464 196.866C188.1 196.002 187.913 195.074 187.913 194.136C187.913 193.199 188.1 192.27 188.464 191.406C188.827 190.542 189.36 189.759 190.03 189.103C190.7 188.448 191.495 187.933 192.366 187.588C193.238 187.244 194.171 187.077 195.108 187.097H258.99C260.477 187.097 261.927 187.567 263.13 188.441C264.333 189.314 265.229 190.547 265.689 191.961C265.915 192.665 266.03 193.399 266.03 194.138Z" stroke="black" stroke-width="1.38918" stroke-miterlimit="10"/>
<path d="M99.0247 113.586L98.8962 114.671C98.8374 115.164 98.6005 115.618 98.23 115.947C97.8593 116.277 97.381 116.459 96.8851 116.46H89.8649C89.369 116.459 88.8908 116.277 88.52 115.947C88.1495 115.618 87.9126 115.164 87.8538 114.671L86.9479 106.897C87.3366 106.823 87.6882 106.749 87.8166 106.712C88.8103 106.441 89.7736 106.211 90.5781 105.525C91.3825 104.839 91.9301 103.835 91.4771 102.784C91.251 102.262 90.912 101.797 90.4841 101.422C90.0562 101.047 89.5502 100.773 89.003 100.617C88.0897 100.345 87.1193 100.328 86.1976 100.57L85.9846 98.7179C85.9532 98.435 85.9819 98.1483 86.0688 97.8773C86.1553 97.6059 86.2983 97.3561 86.4879 97.1438C86.6775 96.9312 86.9101 96.7612 87.1697 96.6446C87.4296 96.528 87.7111 96.4675 87.9957 96.4668H98.7678C99.0524 96.4678 99.3333 96.529 99.5929 96.6456C99.8521 96.7625 100.084 96.9326 100.273 97.1448C100.463 97.3571 100.605 97.6069 100.692 97.8779C100.778 98.149 100.807 98.435 100.776 98.7179L100.525 100.83" stroke="black" stroke-width="1.38918" stroke-miterlimit="10"/>
<path d="M99.9611 105.66L99.9509 105.735" stroke="black" stroke-width="1.38918" stroke-miterlimit="10"/>
<path d="M99.4337 110.126V110.095" stroke="black" stroke-width="1.38918" stroke-miterlimit="10"/>
<path d="M99.5352 110.125C99.5051 110.12 99.474 110.12 99.4439 110.125C99.4013 110.12 99.3581 110.12 99.3155 110.125C98.8774 110.126 98.456 110.292 98.1345 110.59C97.8131 110.887 97.615 111.295 97.5795 111.731C97.5444 112.168 97.6745 112.602 97.9439 112.947C98.2133 113.293 98.6026 113.524 99.0349 113.596C99.2212 113.633 99.4132 113.633 99.5994 113.596C100.443 113.461 101.213 113.035 101.776 112.393C102.526 111.159 103.047 109.8 103.314 108.381C103.319 108.366 103.319 108.351 103.314 108.337C103.52 107.291 103.599 106.224 103.547 105.159M103.547 105.159C103.547 104.703 103.49 104.25 103.436 103.807C103.333 103.067 102.994 102.379 102.47 101.845C101.946 101.311 101.264 100.96 100.526 100.843C100.488 100.843 100.444 100.843 100.407 100.823C98.9876 100.647 96.9968 101.185 96.6284 102.787C96.2904 104.233 97.8587 105.474 99.1465 105.585C99.1465 105.585 99.4845 105.629 99.9611 105.66C100.914 105.724 102.499 105.714 103.547 105.159ZM103.547 105.159C103.701 105.08 103.846 104.983 103.98 104.872" stroke="black" stroke-width="1.38918" stroke-miterlimit="10"/>
<path d="M101.016 105.738H100.782H98.9808H98.1865C97.6494 105.74 97.1336 105.947 96.7446 106.318C96.3552 106.688 96.1226 107.193 96.0942 107.729C96.0679 108.25 96.2359 108.762 96.5658 109.167C96.8953 109.572 97.3631 109.84 97.8789 109.919C100.211 110.295 102.875 110.372 103.331 108.283" stroke="black" stroke-width="1.38918" stroke-miterlimit="10"/>
<path d="M215.486 201.176C215.486 201.176 223.73 209.007 221.158 233.286C220.97 235.019 220.367 236.682 219.4 238.133L218.504 239.485C217.035 241.684 214.82 243.279 212.268 243.973C206.884 245.444 197.116 248.851 191.082 255.306C188.534 258.041 190.43 262.496 194.168 262.496C194.865 262.498 195.552 262.327 196.167 261.999C196.782 261.671 197.307 261.196 197.694 260.616C200.151 256.919 207.59 249.067 225.535 249.233C245.774 249.419 253.927 257.466 256.539 260.934C256.9 261.418 257.369 261.811 257.908 262.082C258.447 262.353 259.042 262.494 259.646 262.496C260.402 262.494 261.142 262.272 261.774 261.856C262.405 261.441 262.903 260.85 263.204 260.156C263.505 259.462 263.597 258.695 263.468 257.95C263.34 257.204 262.997 256.512 262.482 255.959C254.589 247.384 244.936 244.186 239.609 243C236.933 242.423 234.568 240.867 232.981 238.636C231.765 236.916 231.074 234.88 230.99 232.775C230.693 225.248 230.537 206.976 235.638 201.183" stroke="black" stroke-width="1.38918" stroke-miterlimit="10"/>
<path d="M198.349 144.428V144.976C198.349 148.724 195.328 149.37 192.718 149.434L142.218 150.61C140.004 150.664 138.141 148.731 138.094 146.311V146.209C138.094 143.843 139.838 141.866 142.022 141.815C142.022 141.815 170.275 141.018 192.15 140.416C192.57 141.741 193.584 142.762 194.854 143.563C195.907 144.192 197.124 144.494 198.349 144.428Z" stroke="black" stroke-width="1.38918" stroke-miterlimit="10"/>
<path d="M225.193 90.9901C225.196 91.6069 225.055 92.2153 224.781 92.768L202.196 139.067C201.931 139.605 201.552 140.078 201.085 140.453C200.617 140.829 200.074 141.097 199.492 141.241C198.559 141.48 197.572 141.379 196.707 140.957C196.013 140.615 195.429 140.085 195.022 139.428C194.616 138.77 194.402 138.012 194.405 137.239C194.407 137.049 194.42 136.859 194.446 136.671C194.506 136.252 194.631 135.845 194.817 135.464L217.399 89.1581C217.807 88.3273 218.484 87.6588 219.321 87.2619C220.157 86.8655 221.103 86.7634 222.005 86.9733C222.906 87.1829 223.71 87.6919 224.286 88.4169C224.861 89.1422 225.174 90.0406 225.173 90.9664L225.193 90.9901Z" stroke="black" stroke-width="1.38918" stroke-miterlimit="10"/>
<path d="M42.3489 86.4208C42.3218 86.3262 42.2847 86.2349 42.2542 86.1436C42.2238 86.0524 42.1799 85.9476 42.1528 85.8462" stroke="black" stroke-width="1.38918" stroke-linecap="round" stroke-linejoin="round"/>
<path d="M42.3489 86.4244L43.0418 85.7281L44.3667 84.3862" stroke="black" stroke-width="1.38918" stroke-linecap="round" stroke-linejoin="round"/>
<path d="M50.1466 88.2573C50.1466 88.2573 51.0355 90.9106 54.4324 91.0898" stroke="black" stroke-width="1.38918" stroke-miterlimit="10"/>
<path d="M35.038 94.4719C31.996 96.0098 28.545 92.6839 28.785 89.9427C28.9405 88.0634 28.5146 86.7658 27.1254 85.4033C27.0342 85.3121 26.9497 85.2174 26.8686 85.1262C26.3396 84.5509 25.9958 83.8299 25.8813 83.0566C25.7667 82.2836 25.887 81.4937 26.2264 80.7896C26.8584 79.3193 28.2206 78.4574 27.2742 76.8722C26.8588 76.1868 26.5556 75.4394 26.3751 74.6583C26.1861 73.6227 26.2216 72.5587 26.4788 71.5376C26.7361 70.5168 27.2089 69.563 27.8657 68.7399C29.2582 67.0499 31.5262 67.5164 33.3886 66.9249C35.6295 66.2117 36.6773 63.8017 39.0298 63.0615C40.206 62.6931 41.2978 62.8587 42.474 63.1258C43.4644 63.359 44.4581 63.6192 45.4214 63.9234C46.3847 64.2276 47.2635 64.4879 48.2268 64.2006C49.4875 63.8322 50.4576 62.6728 51.8299 62.6627C53.2021 62.6526 54.2567 63.4604 54.8719 64.5893C55.8453 66.3604 55.8521 68.936 54.9361 70.4637C53.9897 72.0456 52.009 72.7148 50.3055 73.0562C48.1288 73.5024 45.8777 73.6207 43.6739 73.8167L42.3929 74.131C41.9055 74.2825 41.4982 74.6204 41.2599 75.0717C41.0216 75.5229 40.9719 76.0502 41.122 76.5376C41.9146 79.2652 43.005 81.8973 44.3736 84.3859" stroke="black" stroke-width="1.38918" stroke-miterlimit="10"/>
<path d="M44.3668 94.8603C44.3668 94.8603 51.0727 99.7714 54.8955 97.064C58.7183 94.3566 56.5585 86.4204 56.5585 86.4204" stroke="black" stroke-width="1.38918" stroke-linecap="round" stroke-linejoin="round"/>
<path d="M91.751 93.0764C91.751 93.0764 88.9016 91.1498 90.7133 89.1826C92.525 87.2155 90.1117 84.6196 90.1117 84.6196" stroke="black" stroke-width="1.38918" stroke-miterlimit="10"/>
<path d="M94.3806 93.4105C94.3806 93.4105 96.2667 92.1362 95.0566 90.8316C93.8466 89.5269 95.4588 87.7896 95.4588 87.7896" stroke="black" stroke-width="1.38918" stroke-miterlimit="10"/>
<path d="M107.377 75.0515C127.896 75.0515 144.53 58.4175 144.53 37.8986C144.53 17.3796 127.896 0.745605 107.377 0.745605C86.8577 0.745605 70.2238 17.3796 70.2238 37.8986C70.2238 58.4175 86.8577 75.0515 107.377 75.0515Z" stroke="#CCDDE2" stroke-width="1.38918" stroke-miterlimit="10"/>
<path d="M107.377 58.3028C118.646 58.3028 127.782 49.167 127.782 37.8977C127.782 26.6281 118.646 17.4927 107.377 17.4927C96.1071 17.4927 86.9717 26.6281 86.9717 37.8977C86.9717 49.167 96.1071 58.3028 107.377 58.3028Z" stroke="#CCDDE2" stroke-width="1.38918" stroke-miterlimit="10"/>
<path d="M107.377 41.3955C109.309 41.3955 110.875 39.8292 110.875 37.8972C110.875 35.9652 109.309 34.3989 107.377 34.3989C105.445 34.3989 103.878 35.9652 103.878 37.8972C103.878 39.8292 105.445 41.3955 107.377 41.3955Z" stroke="#CCDDE2" stroke-width="1.38918" stroke-miterlimit="10"/>
<path d="M114.62 26.2168L109.219 34.9237" stroke="#CCDDE2" stroke-width="1.38918" stroke-miterlimit="10"/>
<path d="M107.377 17.4927V21.1228" stroke="#CCDDE2" stroke-width="1.38918" stroke-miterlimit="10"/>
<path d="M127.782 37.8979H124.341" stroke="#CCDDE2" stroke-width="1.38918" stroke-miterlimit="10"/>
<path d="M107.377 58.3066V54.7778" stroke="#CCDDE2" stroke-width="1.38918" stroke-miterlimit="10"/>
<path d="M86.9683 37.8979H90.0711" stroke="#CCDDE2" stroke-width="1.38918" stroke-miterlimit="10"/>
<path d="M142.985 99.6709C150.62 99.6709 156.809 93.4814 156.809 85.8467C156.809 78.2116 150.62 72.0225 142.985 72.0225C135.35 72.0225 129.161 78.2116 129.161 85.8467C129.161 93.4814 135.35 99.6709 142.985 99.6709Z" fill="#B453EC"/>
<path d="M147.531 81.2297C147.336 80.7801 147.074 80.363 146.754 79.9926C146.206 79.3446 145.441 78.9184 144.601 78.794C143.762 78.6696 142.906 78.8555 142.194 79.3166C141.73 79.6194 141.341 80.0257 141.06 80.5036C140.779 80.9816 140.611 81.518 140.572 82.0713C139.844 81.8046 139.049 81.7816 138.308 82.006C137.566 82.2301 136.917 82.6898 136.459 83.3151C136.001 83.9404 135.759 84.6975 135.769 85.4726C135.78 86.2473 136.042 86.998 136.516 87.6111C137.506 88.9023 139.189 89.7506 140.714 90.2441C141.513 90.5 142.336 90.6744 143.171 90.7646C143.593 90.812 146.003 91.1364 146.213 90.7646C147.717 88.4122 148.785 84.1027 147.531 81.2297Z" fill="white"/>
<g opacity="0.72">
<path opacity="0.72" d="M177.441 80.1244C181.645 80.1244 185.053 76.7167 185.053 72.5126C185.053 68.3089 181.645 64.9009 177.441 64.9009C173.237 64.9009 169.829 68.3089 169.829 72.5126C169.829 76.7167 173.237 80.1244 177.441 80.1244Z" fill="#B453EC"/>
<path opacity="0.72" d="M180.743 73.8608C180.932 73.6689 181.089 73.4488 181.209 73.2085C181.426 72.7941 181.485 72.3145 181.373 71.8602C181.262 71.4059 180.989 71.0078 180.604 70.7411C180.353 70.5677 180.066 70.4548 179.764 70.4112C179.462 70.3679 179.153 70.3953 178.864 70.491C178.848 70.0644 178.693 69.6548 178.423 69.3239C178.154 68.993 177.784 68.7587 177.369 68.6563C176.955 68.5542 176.519 68.5894 176.126 68.757C175.734 68.9243 175.406 69.215 175.193 69.5851C174.779 70.422 174.618 71.362 174.73 72.2891C174.768 72.7468 174.852 73.1997 174.98 73.6411C175.044 73.8676 175.382 75.1621 175.612 75.2027C177.123 75.4562 179.543 75.1013 180.743 73.8608Z" fill="white"/>
</g>
<path d="M166.533 108.457L162.915 116.109C161.603 118.883 162.788 122.195 165.562 123.507L173.213 127.126C175.988 128.438 179.3 127.252 180.613 124.478L184.231 116.827C185.543 114.053 184.357 110.74 181.583 109.428L173.932 105.81C171.158 104.498 167.845 105.683 166.533 108.457Z" fill="#B453EC"/>
<path d="M182.166 118.166L179.547 123.706C178.997 124.86 178.013 125.749 176.81 126.181C175.607 126.612 174.282 126.549 173.125 126.008L166.479 122.864C165.326 122.314 164.437 121.33 164.007 120.127C163.576 118.924 163.639 117.599 164.181 116.442L164.357 116.07C166.162 114.631 169.281 112.69 170.421 115.33C172.06 119.143 174.193 117.913 176.917 116.317C179.192 114.972 181.923 114.522 182.166 118.166Z" fill="white"/>
<path d="M171.874 112.278C173.003 112.278 173.919 111.363 173.919 110.233C173.919 109.104 173.003 108.188 171.874 108.188C170.745 108.188 169.829 109.104 169.829 110.233C169.829 111.363 170.745 112.278 171.874 112.278Z" fill="white"/>
<path d="M206.762 83.3623C207.169 84.1035 207.464 84.9009 207.638 85.7283C207.947 87.2418 207.858 88.8102 207.38 90.2788C206.901 91.7477 206.049 93.0669 204.907 94.1073C204.001 94.9084 202.848 95.5337 201.932 96.3719C201.264 96.9485 200.772 97.7019 200.513 98.5452C200.465 98.8335 200.349 99.106 200.175 99.3395C199.641 99.9141 199.117 99.0015 198.654 98.8461C197.907 98.6034 197.098 98.6429 196.379 98.9576C194.488 99.7482 192.383 99.8604 190.419 99.2757C188.455 98.6909 186.755 97.4447 185.604 95.749C184.455 94.0532 183.927 92.0117 184.11 89.9712C184.293 87.9304 185.177 86.0159 186.611 84.552C188.027 83.1088 189.879 82.186 191.681 81.2464C193.256 80.4115 194.824 79.5226 196.534 79.0224C200.543 77.8225 204.822 79.82 206.762 83.3623Z" fill="#B453EC"/>
<path d="M190.619 93.8029C191.683 93.8029 192.546 92.9403 192.546 91.8763C192.546 90.8123 191.683 89.9497 190.619 89.9497C189.555 89.9497 188.693 90.8123 188.693 91.8763C188.693 92.9403 189.555 93.8029 190.619 93.8029Z" fill="white"/>
<path d="M195.808 91.028C196.872 91.028 197.734 90.1654 197.734 89.1014C197.734 88.0374 196.872 87.1748 195.808 87.1748C194.744 87.1748 193.881 88.0374 193.881 89.1014C193.881 90.1654 194.744 91.028 195.808 91.028Z" fill="white"/>
<path d="M200.675 88.4255C201.739 88.4255 202.601 87.5629 202.601 86.4989C202.601 85.4348 201.739 84.5723 200.675 84.5723C199.611 84.5723 198.748 85.4348 198.748 86.4989C198.748 87.5629 199.611 88.4255 200.675 88.4255Z" fill="white"/>
<path d="M141.934 24.2393C141.934 24.2393 154.619 63.4743 203.45 61.355C219.674 59.327 238.984 61.355 256.178 84.001C282.315 118.45 271.82 156.826 259.943 181.186" stroke="#CCDDE2" stroke-width="1.38918" stroke-miterlimit="10"/>
<g opacity="0.54">
<path opacity="0.54" d="M212.518 39.6486C212.47 40.2404 212.379 40.8278 212.245 41.4062L210.724 48.0039C210.257 50.0319 209.733 52.1546 208.287 53.635C205.583 56.3931 201.087 55.761 197.329 54.9262L188.101 52.8779C185.982 52.4081 183.829 51.9247 181.929 50.8735C180.03 49.8224 178.38 48.1019 177.941 45.9759C177.603 44.4076 177.965 42.7852 178.309 41.2236L179.702 34.8895C180.165 32.8142 180.686 30.624 182.183 29.1131C184.85 26.426 189.281 27.0378 192.965 27.8388L202.416 29.8939C208.114 31.1242 212.971 33.7674 212.518 39.6486Z" fill="#B453EC"/>
<path opacity="0.54" d="M199.793 39.8248C200.188 40.1922 200.48 40.6572 200.638 41.173C200.796 41.6892 200.816 42.2377 200.695 42.7637C200.574 43.2896 200.317 43.7743 199.949 44.1694C199.581 44.5642 199.116 44.8552 198.6 45.0131L195.787 45.875L192.975 46.7368C192.459 46.8947 191.911 46.914 191.385 46.7926C190.859 46.6713 190.374 46.4141 189.979 46.046C189.584 45.6782 189.293 45.2132 189.135 44.697C188.977 44.1812 188.957 43.6327 189.078 43.1067L189.754 40.2405L190.413 37.3776C190.534 36.8514 190.79 36.3663 191.158 35.9709C191.526 35.5758 191.991 35.2841 192.507 35.1259C193.023 34.9674 193.572 34.9481 194.098 35.0691C194.624 35.1904 195.109 35.448 195.504 35.8161L197.657 37.8204L199.793 39.8248Z" fill="white"/>
</g>
<path d="M13.2302 262.496H305.1" stroke="black" stroke-width="1.38918" stroke-miterlimit="10"/>
</svg>
