<svg width="228" height="225" viewBox="0 0 228 225" fill="none" xmlns="http://www.w3.org/2000/svg">
<path d="M11 126.056C10.825 123.831 10.69 121.603 10.5825 119.381" stroke="black" stroke-width="1.0125" stroke-miterlimit="10"/>
<path d="M137.535 206.089H74.03" stroke="#CCDDE2" stroke-width="1.0125" stroke-miterlimit="10"/>
<path d="M156.075 47.0008C156.075 47.0008 174.79 38.1633 190.667 55.4058C195.855 61.0408 199.395 68.5183 199.645 76.2333C199.758 79.9978 199.152 83.749 197.857 87.2858C196.54 90.8958 194.175 93.2858 192.357 96.5008C189.57 101.458 195.397 102.336 198.525 104.738C200.604 106.349 202.575 108.092 204.427 109.958C208.602 114.127 212.275 118.77 215.372 123.791C221.506 133.793 225.199 145.097 226.152 156.791C227.095 168.321 226.372 180.841 220.46 191.083C217.615 196.016 213.33 200.853 208.06 203.153C201.06 206.206 193.197 206.091 185.717 206.091H169.8" stroke="#CCDDE2" stroke-width="1.0125" stroke-miterlimit="10"/>
<path d="M78.0626 162.213C77.4351 166.678 76.5001 171.801 75.4676 176.928L74.2501 177.276C70.3536 178.37 66.2159 178.249 62.3901 176.928L63.9851 171.508L54.2751 143.258C54.2751 143.258 61.6976 140.858 67.7926 139.076L68.4926 139.046C71.8226 139.748 78.6851 142.386 78.9001 152.263C78.9151 152.738 78.9001 153.238 78.9001 153.783C79.8676 156.971 79.4826 159.781 78.0626 162.213Z" fill="#B453EC"/>
<path d="M55.2076 54.6789C55.1119 54.4352 54.9246 54.2389 54.6859 54.1319C54.4469 54.0247 54.1756 54.0157 53.9301 54.1064C53.7926 54.1479 53.6654 54.2187 53.5576 54.3139C53.1726 54.6264 53.0851 55.1739 53.0726 55.6939C53.0376 56.8814 52.9701 58.0714 52.8826 59.2539C52.8826 59.3339 52.8701 59.4239 52.8701 59.5039C52.8151 60.4564 52.8551 61.6114 52.4501 62.4414C52.4241 62.5047 52.3799 62.5587 52.3226 62.5964C52.1876 62.6589 52.0451 62.5239 51.9576 62.4014C51.7076 62.0364 51.4576 61.6789 51.2076 61.3064C51.0101 61.0089 50.7876 60.6864 50.4426 60.5914C49.9301 60.4489 49.4426 60.9014 49.1601 61.3614C48.2476 62.8614 48.1601 65.3189 49.5726 66.5764C50.9851 67.8339 47.8226 70.3064 45.5576 71.3464C45.1784 71.5597 44.7811 71.7387 44.3701 71.8814C44.3501 71.8814 45.1876 72.0689 45.1676 72.0764C43.4051 72.6899 41.5691 73.0674 39.7076 73.1989C37.4976 73.3464 35.3426 73.0689 33.7751 72.1089C33.8426 71.8589 34.3776 70.1089 34.4101 69.8589C34.5251 68.9864 34.6076 68.1214 34.6601 67.2439C34.7551 65.5964 34.7476 63.9464 34.6851 62.3039C34.4576 56.3939 35.5101 51.4289 37.9501 50.6714C38.1429 50.6137 38.3276 50.5322 38.5001 50.4289C39.6001 49.8214 40.1876 48.5389 39.6826 47.3289C39.6476 47.2464 39.6076 47.1664 39.5726 47.0789C39.5331 46.9927 39.4881 46.9092 39.4376 46.8289C44.2026 45.3489 47.4376 46.3764 50.7076 48.1664C51.3299 48.6637 51.9149 49.2059 52.4576 49.7889C53.7376 51.1784 54.6789 52.8452 55.2076 54.6589V54.6789Z" fill="#667085"/>
<path d="M169.75 111.501H153.5V72.661C153.5 72.661 150.5 106.408 142.28 125.528H91.9526C97.8851 121.758 102.643 116.063 105.81 109.933C107.06 107.508 109.06 103.908 112.385 104.853C113.175 105.076 114.338 105.218 114.925 104.496C115.128 104.219 115.243 103.887 115.255 103.543C115.54 100.003 111.87 97.0235 108.845 96.0835C105.82 95.1435 102.285 95.5835 99.8776 97.781C98.1426 99.3685 97.0551 101.476 95.7851 103.428C95.0229 104.585 94.1194 105.643 93.0951 106.576C94.4001 98.651 95.5626 91.076 95.7301 88.2885C98.9126 85.776 101.25 81.6785 102.08 78.0535C102.993 74.0935 103.798 70.221 105.215 66.5135L116.818 66.5535C117.255 66.5535 117.674 66.38 117.983 66.071C118.292 65.762 118.465 65.343 118.465 64.906V45.636C118.466 45.203 118.295 44.7875 117.99 44.48C117.685 44.1727 117.271 43.9987 116.838 43.996L108.938 43.9285C111.809 43.3285 114.72 42.94 117.648 42.766C117.708 42.766 117.763 42.766 117.815 42.766C119.743 42.6385 123.12 42.5835 125.065 42.5635C122.748 43.8135 121.315 46.4685 121.565 48.8135C121.609 49.313 121.737 49.8015 121.943 50.2585C123.923 54.6085 129.138 55.8935 133.443 54.6285C138.233 53.231 141.753 48.826 141.543 43.7585C144.543 44.1985 147.513 44.7567 150.453 45.4335C154.92 46.461 159.278 47.846 162.81 50.866C165.89 53.4885 168.5 56.866 169.708 60.6835C174.893 77.006 173.298 95.221 169.75 111.501Z" fill="#2E2E2E"/>
<path d="M95.8602 88.2891C95.4952 94.2541 94.5552 100.214 93.5352 106.159" stroke="black" stroke-width="1.0125" stroke-miterlimit="10"/>
<path d="M105.345 66.5137C103.925 70.2212 103.123 74.0937 102.21 78.0537C101.373 81.6662 99.0401 85.7762 95.8601 88.2887C93.1901 90.3962 89.9201 91.3887 86.4201 90.0587C81.7251 88.2687 80.0776 83.0938 79.5026 78.5312C78.7553 72.85 78.7098 67.0985 79.3676 61.4062C80.0301 62.8787 82.7376 67.3588 91.1351 66.1813C91.3606 66.3498 91.6316 66.4465 91.9126 66.4587L105.345 66.5137Z" fill="#2E2E2E"/>
<path d="M100.63 53.6967C102.585 53.1967 103.775 55.0767 103.485 56.5067C103.013 58.8392 99.6576 59.7567 97.6601 59.7992C96.0601 59.8317 92.1601 59.4092 90.5701 59.2242" stroke="black" stroke-width="1.0125" stroke-miterlimit="10"/>
<path d="M89.9126 54.8515C92.3311 55.5505 94.8924 55.5928 97.3326 54.974C99.3851 54.4465 101.81 53.474 102.885 51.5215C103.513 50.3865 103.013 48.5765 101.703 48.1765C100.19 47.719 98.7901 49.224 97.4201 49.604C96.5364 49.8448 95.6341 50.012 94.7226 50.104C94.4726 50.1315 94.2376 50.1515 93.9951 50.1715C92.7194 50.2738 91.4369 50.2645 90.1626 50.144C90.0271 50.144 89.8949 50.1013 89.7851 50.022C89.6751 49.9425 89.5929 49.8305 89.5504 49.7018C89.5076 49.5733 89.5066 49.4343 89.5476 49.305C89.5884 49.1758 89.6689 49.0625 89.7776 48.9815L90.0076 48.814" stroke="black" stroke-width="1.0125" stroke-miterlimit="10"/>
<path d="M105.345 66.5135C103.925 70.221 103.123 74.0935 102.21 78.0535C100.67 84.701 94.1027 92.9835 86.4202 90.0535C81.7252 88.2635 80.0777 83.0885 79.5027 78.526C78.6027 71.461 78.6777 64.2035 80.0027 57.1985C81.1027 51.4285 83.0552 45.3685 88.6702 42.531L91.3052 41.2135C91.9337 40.896 92.6614 40.837 93.3327 41.049C94.0042 41.2612 94.5657 41.7277 94.8977 42.3485C95.0999 42.7345 95.2072 43.163 95.2102 43.5985C95.2127 43.6622 95.2077 43.726 95.1952 43.7885" stroke="black" stroke-width="1.0125" stroke-miterlimit="10"/>
<path d="M158.865 120.744C160.222 120.702 161.581 120.736 162.935 120.846C164.04 120.936 165.185 120.989 166.237 121.401C167.105 121.746 168.01 122.569 167.965 123.574C167.882 125.544 165.302 125.529 163.887 125.529" stroke="black" stroke-width="1.0125" stroke-miterlimit="10"/>
<path opacity="0.54" d="M134.585 118.866L146.35 88.7236C146.496 88.1394 146.506 87.5296 146.38 86.9409C146.255 86.3519 145.997 85.7996 145.625 85.3256C145.254 84.8516 144.78 84.4686 144.238 84.2056C143.696 83.9429 143.102 83.8069 142.5 83.8086H95.78C94.7327 83.8109 93.717 84.1654 92.8955 84.8146C92.074 85.4639 91.4945 86.3704 91.25 87.3886L78.355 117.524C78.2152 118.105 78.209 118.711 78.337 119.296C78.4652 119.88 78.7242 120.428 79.0945 120.898C79.4647 121.368 79.937 121.748 80.4752 122.009C81.0135 122.27 81.6042 122.406 82.2025 122.406H130.052C131.094 122.405 132.106 122.057 132.927 121.415C133.749 120.774 134.332 119.877 134.585 118.866Z" fill="white"/>
<path d="M134.585 118.866L146.35 88.7236C146.496 88.1394 146.506 87.5296 146.38 86.9409C146.255 86.3519 145.997 85.7996 145.625 85.3256C145.254 84.8516 144.78 84.4686 144.238 84.2056C143.696 83.9429 143.102 83.8069 142.5 83.8086H95.78C94.7327 83.8109 93.717 84.1654 92.8955 84.8146C92.074 85.4639 91.4945 86.3704 91.25 87.3886L78.355 117.524C78.2152 118.105 78.209 118.711 78.337 119.296C78.4652 119.88 78.7242 120.428 79.0945 120.898C79.4647 121.368 79.937 121.748 80.4752 122.009C81.0135 122.27 81.6042 122.406 82.2025 122.406H130.052C131.094 122.405 132.106 122.057 132.927 121.415C133.749 120.774 134.332 119.877 134.585 118.866Z" fill="#B453EC"/>
<path d="M134.585 118.866L146.35 88.7236C146.496 88.1394 146.506 87.5296 146.38 86.9409C146.255 86.3519 145.997 85.7996 145.625 85.3256C145.254 84.8516 144.78 84.4686 144.238 84.2056C143.696 83.9429 143.102 83.8069 142.5 83.8086H95.78C94.7327 83.8109 93.717 84.1654 92.8955 84.8146C92.074 85.4639 91.4945 86.3704 91.25 87.3886L78.355 117.524C78.2152 118.105 78.209 118.711 78.337 119.296C78.4652 119.88 78.7242 120.428 79.0945 120.898C79.4647 121.368 79.937 121.748 80.4752 122.009C81.0135 122.27 81.6042 122.406 82.2025 122.406H130.052C131.094 122.405 132.106 122.057 132.927 121.415C133.749 120.774 134.332 119.877 134.585 118.866Z" stroke="black" stroke-width="1.0125" stroke-linecap="square" stroke-linejoin="round"/>
<path d="M132.863 117.646L143.718 89.8387C143.852 89.3005 143.862 88.7387 143.747 88.196C143.632 87.6532 143.395 87.144 143.053 86.7067C142.711 86.2697 142.275 85.916 141.776 85.673C141.277 85.4297 140.73 85.3035 140.175 85.3037H97.0626C96.0948 85.3035 95.1548 85.629 94.3948 86.2282C93.6346 86.8275 93.0983 87.665 92.8726 88.6062L81.0001 116.409C80.8721 116.945 80.8673 117.504 80.9861 118.042C81.1046 118.581 81.3438 119.085 81.6853 119.518C82.0268 119.951 82.4621 120.301 82.9583 120.542C83.4543 120.783 83.9986 120.908 84.5501 120.909H128.683C129.644 120.909 130.577 120.589 131.335 119.997C132.092 119.406 132.63 118.578 132.863 117.646Z" fill="#B453EC"/>
<path d="M100.173 90.429C100.745 89.5715 101.673 89.179 102.263 89.5765C102.853 89.974 102.853 90.974 102.283 91.8265C102.193 91.9578 102.092 92.0815 101.983 92.1965L106.218 101.139C106.893 100.689 107.635 100.577 108.17 100.932C108.342 101.057 108.484 101.218 108.586 101.403C108.689 101.589 108.75 101.795 108.765 102.007L111.66 101.032L114.19 100.179L115.015 99.909C115.12 99.5983 115.264 99.3025 115.445 99.029C116.248 97.8215 117.56 97.279 118.378 97.829C119.195 98.379 119.205 99.7665 118.425 100.964L123.25 107.552C124.303 106.689 125.54 106.422 126.398 106.992C127.565 107.769 127.583 109.797 126.438 111.517C126.39 111.587 126.338 111.642 126.29 111.707L129.5 116.097L129.53 116.139C129.694 116.387 129.753 116.69 129.694 116.981C129.635 117.272 129.463 117.528 129.215 117.692C128.967 117.856 128.665 117.915 128.374 117.856C128.082 117.797 127.827 117.624 127.663 117.377L124.813 113.074C123.91 113.597 122.95 113.697 122.248 113.229C121.133 112.479 121.078 110.609 122.073 108.942L117.455 101.972C116.773 102.434 116.02 102.552 115.48 102.194C115.18 101.981 114.975 101.659 114.91 101.297L114.565 101.392L111.993 102.094L108.698 102.984C108.595 103.379 108.426 103.753 108.198 104.092C107.395 105.297 106.083 105.842 105.265 105.292C104.448 104.742 104.435 103.329 105.238 102.122C105.355 101.944 105.487 101.777 105.633 101.622L101.6 92.5115C101.115 92.844 100.578 92.929 100.193 92.6715C99.6125 92.2865 99.6025 91.2765 100.173 90.429Z" fill="#D7E8F0"/>
<path d="M130.85 90.9082H137.1C137.386 90.9077 137.665 90.8245 137.904 90.6682C138.144 90.512 138.332 90.2897 138.448 90.0282C138.482 89.9492 138.501 89.8645 138.503 89.7782C138.502 89.6077 138.434 89.4442 138.313 89.3237C138.192 89.2035 138.028 89.1357 137.858 89.1357H131.215C131.528 89.6582 131.37 90.3907 130.85 90.9082Z" fill="#D7E8F0"/>
<path d="M126.81 90.2684C126.811 90.4381 126.879 90.6011 126.999 90.7209C127.12 90.8409 127.283 90.9084 127.453 90.9084H130.85C131.37 90.3909 131.528 89.6584 131.215 89.1309H128.215C127.93 89.1306 127.65 89.2136 127.411 89.3694C127.172 89.5251 126.983 89.7471 126.868 90.0084C126.831 90.0901 126.811 90.1786 126.81 90.2684Z" fill="#B453EC"/>
<path d="M128.372 90.909C128.391 90.9432 128.411 90.9757 128.435 91.0065C128.88 91.6165 129.848 91.674 130.598 91.1265C130.687 91.0607 130.77 90.988 130.848 90.909C131.368 90.3915 131.525 89.659 131.212 89.1315C131.196 89.097 131.176 89.0642 131.152 89.034C130.71 88.4215 129.742 88.369 128.992 88.9115C128.904 88.9785 128.82 89.052 128.742 89.1315C128.222 89.6515 128.065 90.379 128.372 90.909Z" fill="white"/>
<path d="M125.25 94.1912C125.251 94.3615 125.32 94.5242 125.441 94.644C125.562 94.764 125.725 94.8312 125.895 94.8312H132.453C132.135 94.3012 132.293 93.5812 132.813 93.0537H126.645C126.359 93.054 126.079 93.1372 125.84 93.2935C125.6 93.4497 125.411 93.672 125.295 93.9337C125.264 94.016 125.248 94.1032 125.25 94.1912Z" fill="#B453EC"/>
<path d="M132.442 94.831H135.527C135.813 94.831 136.092 94.7485 136.331 94.593C136.57 94.4377 136.759 94.2165 136.875 93.956C136.91 93.8772 136.93 93.7922 136.932 93.706C136.933 93.6215 136.916 93.5377 136.884 93.4597C136.852 93.3817 136.805 93.3107 136.745 93.251C136.685 93.1912 136.614 93.144 136.536 93.1117C136.458 93.0795 136.374 93.0632 136.29 93.0635H132.802C132.282 93.5735 132.125 94.301 132.442 94.831Z" fill="#D7E8F0"/>
<path d="M132.443 94.8312C132.457 94.8657 132.476 94.8984 132.498 94.9287C132.94 95.5412 133.908 95.5962 134.658 95.0512C134.746 94.9842 134.83 94.9104 134.908 94.8312C135.423 94.3112 135.58 93.5812 135.273 93.0537C135.254 93.0199 135.234 92.9874 135.213 92.9562C134.765 92.3462 133.798 92.2912 133.048 92.8387C132.959 92.9037 132.875 92.9754 132.798 93.0537C132.283 93.5737 132.125 94.3012 132.443 94.8312Z" fill="white"/>
<path d="M130.25 98.7262H134.175C134.461 98.7257 134.74 98.6427 134.98 98.4869C135.219 98.3314 135.409 98.1097 135.525 97.8487C135.559 97.7697 135.578 97.6847 135.58 97.5987C135.58 97.4274 135.512 97.2629 135.391 97.1417C135.27 97.0204 135.106 96.9517 134.935 96.9512H130.622C130.932 97.4787 130.772 98.2062 130.25 98.7262Z" fill="#B453EC"/>
<path d="M123.895 98.0888C123.895 98.173 123.912 98.256 123.945 98.3335C123.977 98.411 124.025 98.4815 124.084 98.5408C124.144 98.5998 124.215 98.6468 124.293 98.6785C124.37 98.7105 124.454 98.7268 124.538 98.7263H130.25C130.765 98.2063 130.925 97.4763 130.615 96.9463H125.3C125.014 96.946 124.734 97.0295 124.494 97.1863C124.255 97.343 124.067 97.5663 123.953 97.8288C123.916 97.9105 123.896 97.9993 123.895 98.0888Z" fill="#D7E8F0"/>
<path d="M127.78 98.7263C127.798 98.7606 127.819 98.793 127.843 98.8238C128.285 99.4363 129.25 99.4888 130.003 98.9438C130.091 98.8778 130.175 98.8053 130.253 98.7263C130.768 98.2063 130.928 97.4763 130.618 96.9463C130.601 96.9118 130.581 96.879 130.558 96.8488C130.11 96.2413 129.145 96.1888 128.393 96.7313C128.304 96.797 128.221 96.8688 128.143 96.9463C127.628 97.4663 127.468 98.1988 127.78 98.7263Z" fill="white"/>
<path d="M104.877 117.096H108.805C109.09 117.095 109.369 117.012 109.608 116.856C109.848 116.701 110.036 116.479 110.152 116.218C110.187 116.139 110.205 116.054 110.207 115.968C110.207 115.797 110.139 115.633 110.018 115.512C109.897 115.391 109.733 115.323 109.562 115.323H105.25C105.552 115.848 105.392 116.576 104.877 117.096Z" fill="#B453EC"/>
<path d="M89.2925 116.458C89.2927 116.542 89.3097 116.625 89.3422 116.703C89.3745 116.781 89.422 116.851 89.4817 116.91C89.5412 116.969 89.612 117.016 89.6897 117.048C89.7677 117.08 89.851 117.096 89.935 117.096H104.877C105.392 116.576 105.552 115.846 105.242 115.318H90.6975C90.4117 115.318 90.132 115.401 89.8925 115.557C89.6532 115.714 89.4647 115.936 89.35 116.198C89.3142 116.28 89.2947 116.369 89.2925 116.458Z" fill="#D7E8F0"/>
<path d="M102.4 117.096C102.418 117.13 102.439 117.163 102.463 117.194C102.905 117.806 103.87 117.859 104.623 117.316C104.711 117.249 104.794 117.175 104.873 117.096C105.388 116.576 105.548 115.846 105.238 115.319C105.221 115.284 105.201 115.251 105.178 115.221C104.73 114.611 103.765 114.559 103.013 115.101C102.924 115.167 102.84 115.24 102.763 115.319C102.25 115.836 102.088 116.569 102.4 117.096Z" fill="white"/>
<path d="M6.04497 126.724C6.04497 126.724 -2.20503 163.991 19.0174 171.776C40.2399 179.561 97.5674 172.249 73.7424 145.359C49.9174 118.469 6.04497 126.724 6.04497 126.724Z" fill="#2E2E2E"/>
<path d="M109.02 43.9286C111.905 43.3268 114.829 42.9368 117.77 42.7611C117.833 42.7611 117.885 42.7611 117.94 42.7611C119.873 42.6336 123.258 42.5786 125.19 42.5586" stroke="black" stroke-width="1.0125" stroke-miterlimit="10"/>
<path d="M94.7227 50.0967C94.7027 50.1092 94.6902 50.1242 94.6702 50.1367" stroke="black" stroke-width="1.0125" stroke-miterlimit="10"/>
<path d="M127.612 34.4284C126.137 35.2034 124.442 34.6784 123.792 33.3584" stroke="black" stroke-width="1.0125" stroke-miterlimit="10"/>
<path d="M119.05 15.5909C118.983 16.7379 119.278 17.8769 119.891 18.8479C120.505 19.8192 121.408 20.5737 122.472 21.0059C122.698 20.5927 123.02 20.2409 123.413 19.9809C125.07 18.9084 124.775 21.7734 129.275 21.0184C135.512 19.9659 137.102 22.1384 137.102 22.1384C137.24 22.3284 136.852 23.5684 136.797 23.7959C136.547 25.1284 136.298 26.4534 136.07 27.7959C135.923 28.6092 135.775 29.4174 135.625 30.2209C135.738 30.1109 135.859 30.0082 135.985 29.9134C137.01 28.3134 138.512 26.5184 140.15 27.9834C140.479 28.2884 140.731 28.6672 140.885 29.0884C141.635 31.1259 140.2 32.4359 138.523 33.2209C138.08 33.4887 137.61 33.7074 137.12 33.8734C137.202 34.3884 137.545 36.4409 137.545 36.4459C137.58 36.6559 141.745 34.0884 142.092 33.7759C142.72 32.9457 143.204 32.0162 143.525 31.0259C144.82 26.9409 144.6 21.6609 141.992 18.3009C141.345 17.4684 141.777 16.9884 141.965 16.1784C141.974 16.1347 141.97 16.0894 141.953 16.0484C141.936 16.0072 141.907 15.9722 141.87 15.9477C141.833 15.9232 141.789 15.9104 141.744 15.9109C141.7 15.9117 141.656 15.9254 141.62 15.9509C140.215 16.8334 137.672 15.9309 137.672 15.9309C129.422 10.9758 125.195 14.0409 123.172 14.1959C122.352 14.2522 121.538 14.0204 120.87 13.5409C120.752 13.7729 120.574 13.9684 120.354 14.1067C120.134 14.2449 119.88 14.3207 119.62 14.3259L119.54 14.7559C119.479 15.0827 119.305 15.3779 119.05 15.5909Z" fill="#667085"/>
<path d="M122.478 21.016C121.413 20.584 120.511 19.8295 119.897 18.8582C119.283 17.887 118.989 16.748 119.055 15.601C119.08 15.1605 119.143 14.723 119.245 14.2935L119.318 14.3085C119.416 14.3307 119.517 14.3382 119.618 14.331C119.878 14.326 120.131 14.2502 120.352 14.112C120.572 13.9737 120.75 13.778 120.868 13.546C120.937 13.417 120.985 13.2777 121.01 13.1335L121.395 11.041C121.395 11.041 122.645 12.7335 124.645 12.576C126.645 12.4185 130.873 9.35351 139.145 14.311C139.145 14.311 141.13 15.0435 142.535 14.161C142.572 14.1357 142.615 14.1217 142.659 14.1212C142.704 14.1207 142.748 14.1335 142.785 14.158C142.822 14.1825 142.851 14.2175 142.868 14.2585C142.885 14.2997 142.889 14.345 142.88 14.3885C142.693 15.196 142.818 15.8485 143.465 16.681C146.073 20.041 146.293 25.321 144.998 29.406C144.431 31.099 143.424 32.6105 142.08 33.786C141.733 34.0985 137.568 36.666 137.533 36.456C137.533 36.456 137.19 34.3985 137.108 33.8835L137.088 33.766L137.205 33.731C137.651 33.5932 138.087 33.4262 138.51 33.231C140.188 32.446 141.63 31.136 140.873 29.0985C140.718 28.6775 140.466 28.2987 140.138 27.9935C138.5 26.5285 136.998 28.3235 135.973 29.9235C135.774 30.2272 135.612 30.5527 135.488 30.8935C135.528 30.6735 135.568 30.4585 135.61 30.2385C135.76 29.4335 135.908 28.6252 136.055 27.8135C136.305 26.4785 136.538 25.1535 136.783 23.8135C136.828 23.586 137.225 22.346 137.088 22.156C137.088 22.156 135.498 19.9835 129.26 21.036C124.76 21.786 125.055 18.926 123.398 19.9985C123.005 20.2585 122.683 20.6105 122.458 21.0235C122.388 21.1582 122.326 21.2967 122.273 21.4385C122.264 21.4562 122.256 21.4747 122.25 21.4935C122.138 21.8035 122.035 22.116 121.935 22.421C121 25.3935 120.383 28.6035 120.713 31.726C121.115 35.511 123.873 39.961 128.26 39.5835C129.641 39.4217 130.987 39.0437 132.25 38.4635" stroke="black" stroke-width="1.0125" stroke-miterlimit="10"/>
<path d="M122.956 29.0831C123.386 29.0709 123.722 28.6404 123.707 28.1214C123.692 27.6024 123.333 27.1916 122.903 27.2039C122.474 27.2159 122.138 27.6464 122.153 28.1654C122.167 28.6844 122.527 29.0951 122.956 29.0831Z" fill="black"/>
<path d="M128.831 30.6617C129.26 30.6495 129.596 30.219 129.582 29.7002C129.567 29.1812 129.207 28.7702 128.778 28.7825C128.349 28.7947 128.013 29.2252 128.027 29.744C128.042 30.263 128.402 30.674 128.831 30.6617Z" fill="black"/>
<path d="M126.295 31.0083C126.295 31.0083 124.023 31.5083 124.253 30.3433C124.323 29.9783 124.893 26.3933 124.893 26.3933C124.893 26.3933 123.833 24.2583 121.06 24.7558" stroke="black" stroke-width="1.0125" stroke-miterlimit="10"/>
<path d="M127.315 26.0741C127.315 26.0741 130.917 25.4616 132.297 28.3391" stroke="black" stroke-width="1.0125" stroke-miterlimit="10"/>
<path d="M125.23 42.5283C122.393 44.0283 120.878 47.6383 122.065 50.2508C124.045 54.6033 129.258 55.8833 133.565 54.6258C138.355 53.2258 141.875 48.8108 141.665 43.7483" stroke="black" stroke-width="1.0125" stroke-miterlimit="10"/>
<path d="M142.41 125.526C150.638 106.406 153.625 72.6589 153.625 72.6589V119.744C153.625 120.503 153.774 121.255 154.065 121.957C154.355 122.659 154.781 123.296 155.318 123.833C155.855 124.37 156.493 124.796 157.194 125.087C157.896 125.377 158.648 125.527 159.408 125.526H177.658C178.342 125.537 179.006 125.295 179.522 124.846C180.038 124.397 180.371 123.773 180.455 123.094C180.492 122.72 180.45 122.342 180.332 121.985C180.213 121.629 180.022 121.301 179.769 121.022C179.516 120.744 179.208 120.522 178.864 120.37C178.52 120.219 178.148 120.141 177.773 120.141H170.298C170 120.14 169.706 120.071 169.438 119.94C169.171 119.808 168.937 119.617 168.755 119.381C168.572 119.145 168.446 118.871 168.386 118.579C168.326 118.287 168.333 117.985 168.408 117.696C172.908 99.9464 175.69 79.1114 169.833 60.6739C168.623 56.8689 166.015 53.4789 162.935 50.8589C159.4 47.8389 155.043 46.4539 150.578 45.4289C147.633 44.7539 144.662 44.1954 141.665 43.7539C141.656 43.7569 141.647 43.7569 141.638 43.7539C141.618 43.7539 141.598 43.7539 141.585 43.7539H141.565H141.538H141.498" stroke="black" stroke-width="1.0125" stroke-miterlimit="10"/>
<path d="M139.78 35.2588L139.45 41.2313C139.419 41.815 139.602 42.39 139.965 42.8478C140.329 43.3055 140.847 43.6145 141.423 43.7163H141.498C141.511 43.7128 141.525 43.7128 141.538 43.7163H141.55H141.585" stroke="black" stroke-width="1.0125" stroke-miterlimit="10"/>
<path d="M141.638 43.7436H141.585H141.565H141.55H141.538H141.498H141.423C140.847 43.6419 140.329 43.3329 139.965 42.8751C139.602 42.4171 139.419 41.8421 139.45 41.2586L139.78 35.2861" stroke="black" stroke-width="1.0125" stroke-miterlimit="10"/>
<path d="M125.703 39.2114C125.54 39.1464 125.703 45.8814 121.685 48.8064" stroke="black" stroke-width="1.0125" stroke-miterlimit="10"/>
<path d="M71.9152 125.528H59.0452" stroke="black" stroke-width="1.0125" stroke-miterlimit="10"/>
<path d="M197.648 125.528H91.9526" stroke="black" stroke-width="1.0125" stroke-miterlimit="10"/>
<path d="M34.6877 62.2958C34.8117 64.8173 34.7214 67.3448 34.4177 69.8508C34.0277 72.7958 31.3052 76.5383 30.7152 79.4508C29.8727 83.6408 31.1477 87.9708 32.8977 91.8608C35.0127 96.5633 38.3452 101.293 38.0202 106.678C37.8537 109.024 37.1559 111.3 35.9794 113.336C34.8032 115.372 33.1789 117.113 31.2302 118.428C28.5609 120.214 25.5117 121.353 22.3252 121.753C21.8802 121.806 21.4277 121.848 20.9752 121.861C20.7252 121.861 20.4752 121.833 20.2252 121.813C11.7502 121.096 3.05767 114.631 3.07767 105.631C3.07767 99.8808 7.44765 95.3808 8.18515 89.8008C8.63765 86.3883 7.63767 82.8433 8.56267 79.5308C10.0627 74.2408 15.8602 71.3558 18.4002 66.4858C20.2702 62.8908 20.5752 58.6958 22.0552 54.9258C24.1152 49.6758 27.4052 43.6758 31.9052 43.1758C33.2109 43.3238 34.4732 43.7355 35.6152 44.3858C38.4052 45.8858 39.1152 45.9808 39.6827 47.3183C40.2627 48.7158 39.3977 50.2083 37.9527 50.6558C35.5127 51.4283 34.4602 56.3858 34.6877 62.2958Z" fill="#667085"/>
<path d="M37.1401 45.1992C44.4651 43.0767 49.1201 46.1992 52.4501 49.7992C55.7801 53.3992 55.6251 57.4867 55.6251 57.4867" stroke="black" stroke-width="1.0125" stroke-miterlimit="10"/>
<path d="M59.86 115.608C59.7495 121.331 59.0245 127.025 57.6975 132.593" stroke="black" stroke-width="1.0125" stroke-miterlimit="10"/>
<path d="M78.0626 162.213C75.3801 166.828 69.0176 170.106 61.2326 172.146C47.4176 175.766 29.1276 175.483 19.0226 171.773C-2.21247 163.991 6.04253 126.723 6.04253 126.723C6.04253 126.723 42.7701 119.811 67.2601 139.223C69.5996 141.073 71.7713 143.125 73.7501 145.356C76.4576 148.418 78.1201 151.221 78.9051 153.781C79.8676 156.971 79.4826 159.781 78.0626 162.213Z" stroke="black" stroke-width="1.0125" stroke-miterlimit="10"/>
<path d="M63.985 171.517C63.985 171.517 51.1175 207.234 72.735 216.357C94.3525 225.479 -6.65003 226.694 15.645 216.357C37.94 206.019 25.125 173.699 25.125 173.699" stroke="black" stroke-width="1.0125" stroke-miterlimit="10"/>
<path d="M90.16 50.1364C89.8925 49.3189 90.0025 46.4764 90.09 44.8714C90.1067 44.5684 90.241 44.2837 90.464 44.0779C90.687 43.8722 90.9815 43.7612 91.285 43.7689L116.967 43.9939C117.4 43.9979 117.814 44.1727 118.119 44.4802C118.424 44.7879 118.595 45.2034 118.595 45.6364V64.9089C118.595 65.1252 118.552 65.3394 118.469 65.5392C118.386 65.7389 118.264 65.9204 118.111 66.0729C117.958 66.2257 117.776 66.3464 117.576 66.4284C117.376 66.5107 117.161 66.5524 116.945 66.5514L91.9175 66.4589C91.555 66.4439 91.2122 66.2894 90.961 66.0277C90.7097 65.7657 90.5697 65.4167 90.57 65.0539V63.5839C92.35 64.4139 95.715 64.6689 95.715 64.6689C96.9125 64.6364 98.805 64.4914 99.8425 63.8964C100.792 63.3514 101.992 62.5689 102.155 61.3839C102.218 60.9257 102.096 60.4612 101.818 60.0919C101.539 59.7227 101.125 59.4789 100.667 59.4139C100.392 59.3589 100.107 59.3789 99.8425 59.4714" stroke="black" stroke-width="1.0125" stroke-miterlimit="10"/>
<path d="M115.225 103.544C115.213 103.888 115.097 104.22 114.893 104.496C114.305 105.219 113.143 105.076 112.353 104.854C109.03 103.909 107.035 107.509 105.78 109.934C102.61 116.064 97.8551 121.759 91.9226 125.529C91.5376 125.779 91.1451 126.014 90.7476 126.244C84.9501 129.589 77.4376 128.966 71.8301 125.494L79.0001 107.881L79.7101 108.449C84.0401 111.866 89.3701 109.949 93.0601 106.576C94.0843 105.643 94.9881 104.586 95.7501 103.429C97.0201 101.476 98.1076 99.3689 99.8451 97.7814C102.25 95.5839 105.77 95.1539 108.81 96.0839C111.85 97.0139 115.5 100.004 115.225 103.544Z" fill="white"/>
<path d="M115.195 102.296C115.195 102.296 114.38 97.9811 107.032 101.349" stroke="black" stroke-width="1.0125" stroke-miterlimit="10"/>
<path d="M111.108 97.1167C111.108 97.1167 106.528 95.6517 103.978 99.1517" stroke="black" stroke-width="1.0125" stroke-miterlimit="10"/>
<path d="M18.6551 121.822C19.8778 121.931 21.1088 121.91 22.3276 121.762C25.5133 121.356 28.5608 120.215 31.2301 118.429C33.1788 117.114 34.8028 115.372 35.9793 113.337C37.1556 111.301 37.8536 109.024 38.0201 106.679C38.3451 101.292 35.0201 96.5616 32.8976 91.8591C31.1476 87.9666 29.8726 83.6366 30.7176 79.4516C31.3051 76.5366 34.0226 72.7963 34.4151 69.8488C34.7203 67.3428 34.8123 64.8156 34.6901 62.2938C34.4626 56.3813 35.5126 51.4191 37.9526 50.6641C39.3976 50.2166 40.2651 48.7216 39.6826 47.3266C39.1251 45.9866 38.4076 45.9066 35.6151 44.3891C28.3351 40.4291 23.2726 47.8116 20.4776 54.9291C18.9951 58.7016 18.6951 62.8916 16.8226 66.4866C14.2826 71.3591 8.47253 74.2366 6.98753 79.5366C6.06003 82.8466 7.06003 86.3941 6.61003 89.8016C5.87503 95.3791 1.51253 99.8766 1.50003 105.632C1.48003 114.629 10.1825 121.099 18.6551 121.822Z" stroke="black" stroke-width="1.0125" stroke-miterlimit="10"/>
<path d="M78.0625 162.214C77.435 166.679 76.5 171.801 75.47 176.929C72.55 191.461 68.835 206.081 68.835 206.081" stroke="black" stroke-width="1.0125" stroke-miterlimit="10"/>
<path d="M78.895 153.781C78.9075 153.236 78.915 152.736 78.895 152.261C78.6725 142.011 71.3025 139.561 68.1325 138.974C67.6595 138.881 67.181 138.82 66.7 138.791" stroke="black" stroke-width="1.0125" stroke-miterlimit="10"/>
<path d="M69.9351 201.649C70.3431 201.399 70.8104 201.262 71.2886 201.253C71.7669 201.244 72.2391 201.363 72.6564 201.597C73.0736 201.831 73.4209 202.172 73.6624 202.585C73.9039 202.998 74.0309 203.468 74.0301 203.946C74.0301 203.981 74.0301 204.024 74.0301 204.074C73.9901 205.308 73.6649 206.517 73.0799 207.605C72.4946 208.693 71.6656 209.63 70.6576 210.344L67.1826 212.816" stroke="black" stroke-width="1.0125" stroke-miterlimit="10"/>
<path d="M30.46 82.7559C30.945 82.5584 31.44 82.3834 31.94 82.2209C32.9925 80.2759 32.83 76.0184 32.73 74.4709L33.7825 72.0984C36.6875 73.8834 40.5325 73.2134 44.1 71.9709C44.601 71.7959 45.0882 71.5836 45.5575 71.3359C47.8225 70.2959 50.9975 67.8359 49.5725 66.5659C48.1475 65.2959 48.2475 62.8509 49.16 61.3509C49.4375 60.8909 49.93 60.4384 50.4425 60.5809C50.7875 60.6759 51.01 60.9984 51.2075 61.2959C51.4575 61.6684 51.7075 62.0259 51.9575 62.3909C52.045 62.5134 52.1875 62.6409 52.3225 62.5859C52.3797 62.5484 52.424 62.4944 52.45 62.4309C52.89 61.5259 52.8075 60.2284 52.8825 59.2359C52.97 58.0534 53.0375 56.8634 53.0725 55.6759C53.0925 55.0209 53.2275 54.3184 53.93 54.0884C54.0717 54.0339 54.2242 54.0121 54.3757 54.0251C54.527 54.0381 54.6735 54.0854 54.804 54.1634C54.9342 54.2416 55.0452 54.3484 55.128 54.4756C55.211 54.6031 55.2637 54.7476 55.2825 54.8984C55.7937 57.7716 55.8687 60.7054 55.505 63.6009C55.16 66.6334 54.5375 69.8509 52.5925 72.2959C51.4845 73.7064 49.9997 74.7741 48.31 75.3759C46.675 75.9434 46.7275 77.9159 46.7275 79.6459V82.5184C51.755 83.5384 56.4775 84.7684 60.3825 88.2684C62.965 90.6294 65.395 93.1519 67.6575 95.8209C74.78 104.178 76.32 105.746 79.75 108.448C84.08 111.866 89.4125 109.948 93.1 106.576C94.1225 105.643 95.0245 104.585 95.785 103.428C97.055 101.476 98.1425 99.3684 99.8775 97.7809C102.285 95.5834 105.805 95.1534 108.845 96.0834C111.885 97.0134 115.54 100.003 115.25 103.543C115.238 103.887 115.123 104.219 114.92 104.496C114.332 105.218 113.17 105.076 112.38 104.853C109.055 103.908 107.062 107.508 105.805 109.933C102.637 116.063 97.88 121.758 91.9475 125.528C91.5625 125.778 91.1725 126.013 90.7725 126.243C84.145 130.068 75.26 128.703 69.56 123.831L55.81 112.158" stroke="black" stroke-width="1.0125" stroke-miterlimit="10"/>
<path d="M31.9399 82.2215C31.9399 82.2215 38.5074 80.1915 46.7274 82.5265" stroke="black" stroke-width="1.0125" stroke-miterlimit="10"/>
<path d="M90.5701 63.584C90.5701 63.584 90.6201 72.084 92.6476 75.3565" stroke="black" stroke-width="1.0125" stroke-miterlimit="10"/>
<path d="M97.2325 24.6787C95.6725 27.3412 95.745 29.2312 96.15 32.2987C96.1835 32.56 96.1425 32.8252 96.0315 33.0642C95.9207 33.3032 95.7447 33.506 95.5235 33.6492C95.3025 33.7925 95.0455 33.8702 94.782 33.8737C94.5187 33.877 94.2597 33.806 94.035 33.6687C85.035 28.4887 76.6125 32.5862 65.8675 30.0487C61.9225 29.1212 57.005 27.2037 53.6325 24.1162C52.5137 22.4545 51.9165 20.4967 51.9175 18.4937C51.9175 10.0961 63.39 3.28613 77.535 3.28613C86.6025 3.28613 94.5675 6.08363 99.1225 10.2986C99.1225 10.2986 99.1225 10.2986 99.135 10.3136C100.278 11.9567 100.901 13.905 100.925 15.9062C100.925 18.9287 98.685 22.1787 97.2325 24.6787Z" fill="#D7E8F0"/>
<path d="M100.885 15.9115V16.124C100.833 19.0665 99.3602 21.8015 97.6127 24.169C96.4427 25.754 95.0552 27.5115 95.3852 29.454C95.5302 30.309 96.0077 31.0865 96.1352 31.954C96.2627 32.8215 95.7977 33.884 94.9302 33.929C94.3802 33.9565 93.9102 33.564 93.4752 33.2265C90.8927 31.2265 87.5377 30.4765 84.2752 30.3465C81.0127 30.2165 77.7552 30.644 74.4902 30.7365C69.7852 30.8715 65.0052 30.284 60.6577 28.4865C56.7502 26.8565 53.1877 24.2065 50.8427 20.679C48.5402 17.2015 49.9027 12.1564 52.3577 9.13391C54.6627 6.29891 57.9977 4.48391 61.4202 3.20641C70.6227 -0.231091 81.1277 -0.148592 90.2052 3.61391C92.9002 4.71891 95.5002 6.17891 97.5252 8.28391C99.5002 10.3364 100.868 13.0715 100.885 15.9115Z" stroke="black" stroke-width="1.0125" stroke-miterlimit="10"/>
<path d="M63.12 19.2565C65.0722 19.2565 66.655 17.674 66.655 15.7215C66.655 13.7693 65.0722 12.1865 63.12 12.1865C61.1677 12.1865 59.585 13.7693 59.585 15.7215C59.585 17.674 61.1677 19.2565 63.12 19.2565Z" fill="white"/>
<path d="M74.5501 19.2565C76.5024 19.2565 78.0851 17.674 78.0851 15.7215C78.0851 13.7693 76.5024 12.1865 74.5501 12.1865C72.5979 12.1865 71.0151 13.7693 71.0151 15.7215C71.0151 17.674 72.5979 19.2565 74.5501 19.2565Z" fill="white"/>
<path d="M86.2025 19.2565C88.1547 19.2565 89.7375 17.674 89.7375 15.7215C89.7375 13.7693 88.1547 12.1865 86.2025 12.1865C84.2502 12.1865 82.6675 13.7693 82.6675 15.7215C82.6675 17.674 84.2502 19.2565 86.2025 19.2565Z" fill="white"/>
<g opacity="0.54">
<path opacity="0.54" d="M154.13 163.929L152.693 184.679C152.035 185.932 151.214 187.091 150.25 188.127C150.145 188.089 150.04 188.049 149.938 188.002C149.745 187.937 149.555 187.859 149.375 187.784C146.463 186.507 144.25 184.127 143.605 181.429C143.023 179.067 143.548 176.514 142.423 174.294C141.05 171.559 137.318 169.844 136.86 166.759C136.43 163.872 139.03 161.224 138.61 158.394C138.11 155.194 134.198 153.297 133.465 150.172C133.008 148.229 133.418 145.999 133.245 143.999C133.055 141.762 132.679 139.544 132.123 137.369C137.915 136.949 143.81 140.142 145.688 144.714C147.22 148.464 146.298 152.832 148.688 156.242C149.993 158.089 152.165 159.472 153.29 161.404C153.637 162.007 153.89 162.66 154.04 163.339C154.04 163.387 154.04 163.434 154.058 163.472C154.058 163.549 154.078 163.604 154.088 163.662C154.113 163.834 154.13 163.929 154.13 163.929Z" fill="#B453EC"/>
<path opacity="0.54" d="M154.14 163.911C154.14 163.911 154.123 163.826 154.103 163.661C154.12 163.727 154.132 163.794 154.14 163.861C154.144 163.869 154.146 163.877 154.146 163.886C154.146 163.895 154.144 163.903 154.14 163.911Z" fill="#B453EC"/>
</g>
<path d="M173.277 155.814C172.527 158.509 168.42 160.147 167.925 162.909C167.487 165.359 170.192 167.644 169.745 170.132C169.267 172.799 165.38 174.274 163.952 176.632C162.79 178.547 163.332 180.749 162.732 182.787C162.037 185.102 159.732 187.169 156.692 188.264C156.502 188.332 156.322 188.397 156.13 188.454C156.025 188.484 155.91 188.522 155.805 188.549C154.805 187.722 153.642 186.264 152.7 184.692L154.13 163.929C155.245 162.984 156.52 162.119 157.407 161.069C158.37 159.937 158.817 158.699 159.102 157.402H159.132V157.259C159.55 155.212 159.587 153.067 160.55 151.124C162.502 147.172 168.63 144.417 174.66 144.779C174.091 146.646 173.702 148.563 173.497 150.504C173.325 152.222 173.75 154.147 173.277 155.814Z" fill="#B453EC"/>
<path d="M159.143 157.241V157.384H159.113L159.143 157.241Z" fill="#B453EC"/>
<path d="M159.143 157.241L159.113 157.384C158.828 158.681 158.38 159.919 157.418 161.051C156.53 162.101 155.255 162.966 154.14 163.911C154.145 163.898 154.145 163.884 154.14 163.871C154.132 163.804 154.12 163.737 154.103 163.671C154.103 163.614 154.083 163.559 154.073 163.481C154.073 163.444 154.073 163.396 154.055 163.349C153.905 162.669 153.652 162.017 153.305 161.414C152.18 159.481 150.008 158.099 148.703 156.251C148.703 156.251 149.293 146.514 154.275 143.551C159 140.751 159.143 155.621 159.143 157.241Z" fill="#B453EC"/>
<path d="M159.143 157.241V157.384H159.113L159.143 157.241Z" fill="#B453EC"/>
<path d="M154.13 163.871V163.929C154.13 163.929 154.113 163.844 154.093 163.679C154.109 163.742 154.122 163.806 154.13 163.871Z" fill="#B453EC"/>
<path d="M153.685 163.928C154.795 162.983 156.085 162.106 156.975 161.058C159.475 158.111 158.51 154.343 160.113 151.111C162.063 147.163 168.195 144.411 174.223 144.771C173.65 146.637 173.26 148.554 173.058 150.496C172.878 152.226 173.308 154.148 172.835 155.823C172.068 158.518 167.975 160.153 167.478 162.916C167.035 165.363 169.748 167.648 169.3 170.133C168.823 172.803 164.938 174.278 163.508 176.633C162.34 178.551 162.888 180.748 162.283 182.791C161.55 185.253 159 187.428 155.678 188.456C155.573 188.491 155.458 188.528 155.35 188.556C154.35 187.728 153.188 186.271 152.243 184.696" stroke="black" stroke-width="1.0125" stroke-miterlimit="10"/>
<path d="M170.543 147.863C161.555 157.536 157.328 177.928 155.683 188.458C155.548 189.346 155.433 190.158 155.323 190.891" stroke="black" stroke-width="1.0125" stroke-miterlimit="10"/>
<path d="M171.372 196.821L167.25 221.218C167.152 221.886 166.82 222.498 166.314 222.946C165.808 223.393 165.16 223.646 164.485 223.661H142.865C142.183 223.645 141.529 223.387 141.021 222.931C140.513 222.476 140.185 221.854 140.095 221.178L136.282 196.818L171.372 196.821Z" stroke="black" stroke-width="1.0125" stroke-miterlimit="10"/>
<path d="M175.3 194.097C175.263 194.82 174.954 195.503 174.435 196.008C173.916 196.514 173.225 196.804 172.5 196.822H135.223C134.506 196.804 133.822 196.52 133.305 196.024C132.788 195.528 132.475 194.857 132.428 194.142C132.27 192.392 133.565 190.892 135.223 190.892H172.5C174.143 190.894 175.433 192.372 175.3 194.097Z" stroke="black" stroke-width="1.0125" stroke-miterlimit="10"/>
<path d="M149.808 188.121C151.408 186.534 153.368 182.994 154.235 180.104C154.95 177.721 153.693 175.269 153.403 172.824C152.953 168.996 154.853 164.881 152.85 161.411C151.733 159.476 149.56 158.101 148.255 156.249C145.853 152.836 146.775 148.471 145.24 144.729C143.363 140.151 137.47 136.959 131.68 137.384C132.233 139.559 132.609 141.777 132.803 144.014C132.975 146.014 132.553 148.244 133.018 150.184C133.75 153.309 137.68 155.201 138.163 158.404C138.588 161.234 135.985 163.884 136.413 166.766C136.873 169.856 140.6 171.564 141.978 174.304C143.098 176.526 142.573 179.076 143.153 181.436C143.88 184.386 146.458 186.979 149.808 188.121Z" stroke="black" stroke-width="1.0125" stroke-miterlimit="10"/>
<path d="M135.215 140.969C143.843 152.179 147.903 175.801 149.5 187.996C149.635 189.054 149.75 190.024 149.853 190.891" stroke="black" stroke-width="1.0125" stroke-miterlimit="10"/>
<path d="M148.25 156.249C148.25 156.249 148.842 146.511 153.822 143.551C158.802 140.591 158.697 157.179 158.697 157.179" stroke="black" stroke-width="1.0125" stroke-miterlimit="10"/>
<path d="M153.685 163.928C153.685 163.928 152.668 158.358 154.453 152.881" stroke="black" stroke-width="1.0125" stroke-miterlimit="10"/>
</svg>
