<svg width="228" height="204" viewBox="0 0 228 204" fill="none" xmlns="http://www.w3.org/2000/svg">
<path d="M186.972 131.977H131.36C130.168 131.977 129.202 132.943 129.202 134.134V173.337C129.202 174.528 130.168 175.494 131.36 175.494H186.972C188.164 175.494 189.13 174.528 189.13 173.337V134.134C189.13 132.943 188.164 131.977 186.972 131.977Z" fill="#B453EC"/>
<path d="M184.168 134.014H134.168C132.976 134.014 132.01 134.98 132.01 136.171V171.299C132.01 172.49 132.976 173.456 134.168 173.456H184.168C185.359 173.456 186.325 172.49 186.325 171.299V136.171C186.325 134.98 185.359 134.014 184.168 134.014Z" fill="#B453EC"/>
<path d="M213.562 175.494H193.5C192.926 175.494 192.358 175.381 191.828 175.161C191.298 174.942 190.816 174.62 190.411 174.214C190.005 173.808 189.683 173.326 189.464 172.796C189.245 172.266 189.132 171.698 189.132 171.124V139.841C189.132 139.56 189.188 139.282 189.297 139.022C189.406 138.763 189.566 138.528 189.767 138.332C189.968 138.135 190.206 137.98 190.468 137.877C190.729 137.773 191.009 137.723 191.29 137.729L202.45 137.829C202.75 137.836 203.045 137.906 203.315 138.035C203.586 138.165 203.826 138.35 204.02 138.579L217.54 154.579C219.68 156.782 220.877 159.732 220.875 162.804V168.179C220.876 169.139 220.687 170.091 220.32 170.978C219.952 171.866 219.414 172.673 218.735 173.352C218.056 174.031 217.249 174.57 216.362 174.938C215.474 175.305 214.523 175.494 213.562 175.494Z" fill="#B453EC"/>
<path d="M159.165 166.354C166.133 166.354 171.782 160.705 171.782 153.737C171.782 146.768 166.133 141.119 159.165 141.119C152.196 141.119 146.547 146.768 146.547 153.737C146.547 160.705 152.196 166.354 159.165 166.354Z" fill="#D7E8F0"/>
<path d="M193.5 153.656V143.023C193.5 142.708 193.625 142.406 193.848 142.184C194.07 141.961 194.373 141.836 194.688 141.836H200.655C200.837 141.836 201.017 141.878 201.18 141.959C201.344 142.04 201.486 142.156 201.598 142.301L209.775 152.928C209.91 153.104 209.994 153.315 210.016 153.535C210.038 153.756 209.998 153.979 209.9 154.178C209.802 154.377 209.649 154.545 209.461 154.662C209.272 154.779 209.055 154.841 208.833 154.841H194.695C194.539 154.842 194.384 154.812 194.239 154.753C194.094 154.694 193.963 154.607 193.851 154.497C193.74 154.386 193.652 154.256 193.592 154.111C193.532 153.967 193.5 153.812 193.5 153.656Z" fill="white"/>
<path d="M134.302 175.401V175.486C134.302 178.075 135.331 180.557 137.161 182.388C138.991 184.218 141.474 185.246 144.062 185.246C146.651 185.246 149.133 184.218 150.964 182.388C152.794 180.557 153.822 178.075 153.822 175.486" stroke="#CCDDE2" stroke-width="1.1425" stroke-miterlimit="10"/>
<path d="M193.5 175.486C193.5 178.075 194.528 180.557 196.358 182.387C198.188 184.217 200.67 185.245 203.259 185.245C205.847 185.245 208.329 184.217 210.159 182.387C211.989 180.557 213.018 178.075 213.018 175.486" fill="#B453EC"/>
<path d="M193.525 85.0709C201.64 83.3359 210.377 86.4684 216.32 92.2584C222.262 98.0484 225.57 106.213 226.422 114.466C227.795 127.598 224.115 142.768 216.875 153.798" stroke="#CCDDE2" stroke-width="1.1425" stroke-miterlimit="10"/>
<path d="M120.84 32.2762C134.435 27.3762 150.732 31.7212 163.482 65.5262C167.647 76.5737 172.937 81.7762 180.39 82.4262" stroke="#CCDDE2" stroke-width="1.1425" stroke-miterlimit="10"/>
<path d="M68.8824 48.5233C68.8824 48.5233 84.0574 46.7733 84.1499 65.3958L126.63 53.0258L133.3 50.9283C133.3 50.9283 123.73 39.3183 112.69 37.3208C112.809 38.449 113.032 39.5638 113.357 40.6508C113.927 42.6508 112.037 43.8258 109.415 44.5708C106.792 45.3158 101.482 40.9083 100.57 37.0208C100.57 37.0208 101.88 35.8383 96.9999 36.6858C92.1199 37.5333 77.3124 40.9733 68.8824 48.5233Z" fill="#2E2E2E"/>
<path d="M2.99992 138.899C3.41412 139.123 3.87692 139.24 4.34742 139.242C4.77144 139.241 5.18992 139.145 5.57199 138.962C5.95404 138.778 6.28994 138.51 6.55492 138.179L16.1299 126.442L23.8574 116.744L17.5324 113.197C16.8769 112.827 16.1014 112.732 15.3762 112.934C14.6509 113.136 14.0354 113.617 13.6649 114.272L1.87242 134.979C1.68512 135.31 1.56564 135.674 1.52099 136.052C1.47637 136.429 1.50747 136.811 1.61247 137.176C1.71747 137.541 1.89427 137.882 2.13252 138.178C2.37077 138.474 2.66564 138.719 2.99992 138.899Z" fill="#2E2E2E"/>
<path d="M148.75 194.276L156.72 202.116C157.409 202.797 158.339 203.178 159.307 203.179H179.25C180.07 203.184 180.86 202.873 181.456 202.31C182.052 201.747 182.408 200.976 182.45 200.158C182.492 199.339 182.217 198.536 181.682 197.915C181.147 197.294 180.393 196.903 179.577 196.824L168.512 195.679L148.75 194.276Z" fill="#2E2E2E"/>
<path d="M112.03 36.429V36.969V37.1065C116.439 38.2122 120.591 40.165 124.255 42.8565C124.847 43.2915 125.427 43.7315 126.005 44.1965C126.02 42.3315 125.86 40.459 125.255 38.6965C124.766 37.182 123.848 35.8417 122.612 34.839C121.525 33.9715 120.237 33.414 118.942 32.9115C117.647 32.409 116.377 31.969 115.192 31.2915C114.192 30.743 113.319 29.991 112.627 29.084C112.386 28.7557 112.235 28.3692 112.191 27.964C112.147 27.5587 112.212 27.149 112.377 26.7765C112.261 26.7687 112.146 26.746 112.035 26.709L112.03 36.429Z" fill="#B453EC"/>
<path d="M112.03 36.429V36.969V37.1065C116.439 38.2122 120.591 40.165 124.255 42.8565C124.847 43.2915 125.427 43.7315 126.005 44.1965C126.02 42.3315 125.86 40.459 125.255 38.6965C124.766 37.182 123.848 35.8417 122.612 34.839C121.525 33.9715 120.237 33.414 118.942 32.9115C117.647 32.409 116.377 31.969 115.192 31.2915C114.192 30.743 113.319 29.991 112.627 29.084C112.386 28.7557 112.235 28.3692 112.191 27.964C112.147 27.5587 112.212 27.149 112.377 26.7765C112.261 26.7687 112.146 26.746 112.035 26.709L112.03 36.429Z" fill="#667085"/>
<path d="M51.1174 78.5538C52.7727 79.7415 54.6147 80.6448 56.5674 81.2263C57.4049 81.4763 55.4249 82.4113 56.2849 82.5788C52.8824 74.5488 55.3099 62.2038 66.0749 50.9388C67.9074 49.0188 72.1224 46.5863 74.1999 44.8963C77.5424 42.1788 81.1999 41.8263 84.6999 40.1963C86.2642 39.474 87.8704 38.8463 89.5099 38.3163C92.4244 37.3478 95.4327 36.6875 98.4849 36.3463C99.1774 36.2613 99.8624 36.2013 100.555 36.1638C100.386 34.9735 100.42 33.763 100.655 32.5838C101.292 29.3488 102.405 27.4913 104.43 24.9413C105.7 23.3363 107.68 19.4988 105.037 18.1763C103.372 17.3463 103.22 15.6488 104.002 14.6138C104.665 13.7288 106.002 13.3263 107.657 14.3638C108.8 15.0938 110.157 15.1413 111.462 14.7838C112.48 14.1913 113.362 13.3925 114.052 12.4388C115.97 9.68879 116.037 5.52629 113.04 3.50879C111.402 2.40629 109.317 2.13879 107.36 2.35129C106.485 2.45254 105.624 2.64604 104.79 2.92879C104.786 2.92729 104.782 2.92654 104.779 2.92654C104.775 2.92654 104.771 2.92729 104.767 2.92879C101.227 4.83879 98.6924 8.37129 97.4749 12.3513C96.7599 14.7038 95.9524 17.0338 95.0074 19.3163C94.2324 21.1888 93.6924 23.4663 91.9624 24.7438C91.2412 25.2795 90.4214 25.6678 89.5499 25.8863C86.2849 27.9563 81.7549 26.7613 78.1849 26.3213C75.3302 25.931 72.4237 26.225 69.7049 27.1788C66.6599 28.7163 64.0424 31.1788 61.9174 34.3713C58.4174 39.6613 62.1224 47.2888 56.2549 51.4613C54.4874 52.7113 52.4399 53.4788 50.5049 54.4613C47.7349 55.8713 45.5049 57.8713 44.6824 60.9613C43.0399 67.1513 45.9474 74.8013 51.1174 78.5538Z" fill="#667085"/>
<path d="M123.5 123.834L168.637 195.606L149.387 194.696L142.207 188.146H134C134 188.146 111.63 155.341 106.5 149.781C101.37 144.221 106.5 130.129 106.5 130.129L123.5 123.834Z" fill="white"/>
<path d="M194.615 203.176H55.7625" stroke="black" stroke-width="1.1425" stroke-miterlimit="10"/>
<path d="M117.122 9.92883C117.479 10.6678 117.784 11.4303 118.035 12.2113C118.4 13.4838 118.005 14.2688 118.56 15.4788C118.75 15.8963 119.025 16.6038 119.31 17.3213C119.392 17.1538 119.47 17.0163 119.515 16.9088C121.692 12.0613 118.83 9.72383 117.452 8.92383C117.367 9.26658 117.257 9.60258 117.122 9.92883Z" fill="#B453EC"/>
<path d="M117.122 9.92883C117.479 10.6678 117.784 11.4303 118.035 12.2113C118.4 13.4838 118.005 14.2688 118.56 15.4788C118.75 15.8963 119.025 16.6038 119.31 17.3213C119.392 17.1538 119.47 17.0163 119.515 16.9088C121.692 12.0613 118.83 9.72383 117.452 8.92383C117.367 9.26658 117.257 9.60258 117.122 9.92883Z" fill="#667085"/>
<path d="M96.5374 139.788C94.2099 147.971 90.4549 156.268 87.3424 161.513C85.0922 165.298 81.4934 168.091 77.2689 169.332C73.0444 170.573 68.5069 170.169 64.5674 168.203L30.4049 151.251V143.578L16.1299 126.451L6.55497 138.178C6.28902 138.507 5.95267 138.773 5.57067 138.955C5.18865 139.137 4.77067 139.231 4.34747 139.231C3.85085 139.228 3.36352 139.096 2.93365 138.847C2.50377 138.598 2.14622 138.242 1.8963 137.812C1.64637 137.383 1.5127 136.896 1.50852 136.4C1.50435 135.903 1.6298 135.414 1.87247 134.981L13.665 114.283C14.0357 113.628 14.6512 113.147 15.3762 112.945C16.1014 112.744 16.8769 112.838 17.5324 113.208L23.8574 116.756L60.1074 137.058C60.7104 137.396 61.3847 137.585 62.0752 137.611C62.7654 137.637 63.4522 137.498 64.0784 137.207C64.7049 136.915 65.2532 136.479 65.6779 135.934C66.1029 135.39 66.3922 134.752 66.5224 134.073L70.8174 111.573" stroke="black" stroke-width="1.1425" stroke-miterlimit="10"/>
<path d="M80.8149 126.771L90.1024 134.326C99.8774 142.038 108.384 151.233 115.315 161.576L133.87 188.219H163.82" stroke="black" stroke-width="1.1425" stroke-miterlimit="10"/>
<path d="M142.607 188.224L148.75 194.276L156.72 202.116C157.409 202.797 158.339 203.179 159.307 203.179H179.25C180.07 203.184 180.86 202.873 181.456 202.31C182.052 201.747 182.408 200.977 182.45 200.158C182.492 199.339 182.217 198.536 181.682 197.915C181.147 197.294 180.393 196.903 179.577 196.824L168.512 195.679L115.097 110.741C112.347 106.356 109.897 99.1388 112.03 94.4113C120.152 76.4288 119.45 59.0088 119.45 59.0088" stroke="black" stroke-width="1.1425" stroke-miterlimit="10"/>
<path d="M112.03 25.1791V36.3541V36.8941V37.0316C113.177 38.7066 113.757 41.0816 112.66 42.8616C111.192 45.2441 107.95 44.8491 105.892 43.5166C105.288 43.1244 104.711 42.6916 104.165 42.2216C102.336 40.6324 101.154 38.4286 100.84 36.0266C100.671 34.8371 100.704 33.6276 100.937 32.4491C101.58 29.2166 102.687 27.3591 104.72 24.8041C105.99 23.2016 107.97 19.3616 105.322 18.0391C102.225 16.4941 104.37 11.9716 107.942 14.2316C110.712 15.9816 114.692 13.7991 116.337 11.4466C118.255 8.69661 118.325 4.53411 115.325 2.51661C113.687 1.41411 111.602 1.14661 109.647 1.35911C103.685 2.01411 99.445 6.67411 97.7475 12.2141C97.0325 14.5666 96.225 16.8966 95.2825 19.1791C94.505 21.0541 93.965 23.3291 92.2375 24.6066C88.95 27.0666 84.185 25.7791 80.4625 25.3241C72.7125 24.3716 66.4625 27.8041 62.1925 34.2291C58.6925 39.5191 62.3975 47.1466 56.5275 51.3191C54.7625 52.5691 52.715 53.3366 50.7775 54.3191C48.005 55.7266 45.7775 57.7291 44.9525 60.8191C43.31 67.0291 46.2175 74.6816 51.385 78.4341C53.7525 80.1541 56.5225 81.1841 59.4 81.7441" stroke="black" stroke-width="1.1425" stroke-miterlimit="10"/>
<path d="M127.327 45.6336C127.342 45.4911 127.35 45.3536 127.355 45.2186C127.485 42.7661 127.47 40.2186 126.67 37.8711C126.18 36.3578 125.262 35.0188 124.027 34.0161C122.935 33.1486 121.65 32.5861 120.36 32.0861C119.07 31.5861 117.792 31.1461 116.61 30.4661C115.608 29.9213 114.734 29.1688 114.047 28.2586C113.804 27.9321 113.652 27.5471 113.606 27.1428C113.56 26.7383 113.622 26.3291 113.785 25.9561" stroke="black" stroke-width="1.1425" stroke-miterlimit="10"/>
<path d="M30.4075 143.581V120.421" stroke="black" stroke-width="1.1425" stroke-miterlimit="10"/>
<path d="M109.627 22.6783C110.525 23.9608 111.742 25.3458 113.277 25.8483C115.265 26.4933 116.602 24.8083 117.315 23.1658C117.742 22.1883 118.035 21.1483 118.38 20.1383C118.492 19.8058 118.56 19.6383 118.942 19.6183C119.325 19.5983 119.722 19.6783 120.112 19.6783C120.142 19.6798 120.171 19.6728 120.197 19.6581C120.223 19.6433 120.244 19.6216 120.258 19.5951C120.271 19.5688 120.277 19.5391 120.274 19.5096C120.272 19.4801 120.261 19.4518 120.242 19.4283C119.717 18.6308 118.935 16.4508 118.537 15.5783C117.987 14.3683 118.385 13.5783 118.015 12.3133C117.762 11.5328 117.459 10.7696 117.107 10.0283" stroke="black" stroke-width="1.1425" stroke-miterlimit="10"/>
<path d="M117.692 7.69336C117.692 7.69336 123.11 9.76836 120.312 16.0134C120.14 16.3934 119.715 17.1809 119.515 17.5384" stroke="black" stroke-width="1.1425" stroke-miterlimit="10"/>
<path d="M117.392 22.9761C116.959 23.0349 116.519 22.9339 116.154 22.6919C115.79 22.4499 115.526 22.0834 115.412 21.6611" stroke="black" stroke-width="1.1425" stroke-miterlimit="10"/>
<path d="M118.31 14.6112C117.187 13.6987 115.957 14.8612 115.207 15.7137" stroke="black" stroke-width="1.1425" stroke-miterlimit="10"/>
<path d="M112.03 37.0312C116.441 38.1372 120.596 40.0903 124.262 42.7812C125.327 43.5512 126.355 44.3712 127.352 45.2237C131.287 48.5637 134.75 52.4288 138.115 56.3363" stroke="black" stroke-width="1.1425" stroke-miterlimit="10"/>
<path d="M143.162 93.1991C143.142 93.1868 143.124 93.1716 143.107 93.1541C138.692 88.7391 134.245 84.3566 129.817 79.9566C126.107 76.2716 121.282 72.4991 119.017 67.6641" stroke="black" stroke-width="1.1425" stroke-miterlimit="10"/>
<path d="M91.3949 124.986C91.7549 124.871 92.0974 124.756 92.4224 124.636C92.4282 124.638 92.4342 124.638 92.4399 124.636" stroke="black" stroke-width="1.1425" stroke-miterlimit="10"/>
<path d="M57.7874 73.0714L84.1499 65.3964L132.562 51.2989C134.888 50.6292 137.385 50.9077 139.506 52.0732C141.627 53.2387 143.2 55.1964 143.882 57.5189L154.28 93.2364C154.95 95.5619 154.673 98.0579 153.509 100.18C152.345 102.302 150.389 103.877 148.067 104.561L96.4724 119.581L91.5474 121.011L86.5474 122.474L81.6224 123.911L77.6224 125.069L63.4224 129.204C61.0966 129.875 58.5996 129.597 56.4781 128.431C54.3564 127.266 52.7831 125.307 52.1024 122.984L41.7049 87.2664C41.0344 84.9422 41.3111 82.4469 42.4746 80.3262C43.6384 78.2054 45.5944 76.6317 47.9149 75.9489L48.2874 75.8414L48.5999 75.7489L55.2299 73.8164L57.7874 73.0714Z" fill="white"/>
<path d="M61.75 74.0034L86.175 66.8934L131.035 53.8309C133.191 53.2064 135.507 53.4622 137.476 54.5424C139.444 55.6224 140.904 57.4389 141.535 59.5934L151.165 92.6784C151.785 94.8332 151.529 97.1457 150.452 99.1124C149.375 101.079 147.564 102.54 145.415 103.178L97.6025 117.098L93.04 118.428L88.3975 119.781L83.835 121.116L80.125 122.178L64.9425 126.678C62.786 127.304 60.4695 127.048 58.5012 125.968C56.5327 124.888 55.0732 123.071 54.4425 120.916L44.8175 87.8134C44.193 85.6587 44.4475 83.3442 45.525 81.3764C46.6027 79.4087 48.4157 77.9479 50.5675 77.3134L50.9125 77.2134L51.2025 77.1309L59.38 74.6809L61.75 74.0034Z" fill="#B453EC"/>
<path d="M64.3949 75.1782L87.0424 68.5857L130.292 55.9232C132.29 55.3482 134.435 55.5872 136.257 56.5882C138.079 57.5892 139.431 59.2709 140.017 61.2657L148.952 91.9532C149.528 93.9512 149.29 96.0957 148.29 97.9187C147.29 99.7417 145.609 101.095 143.615 101.683L97.6299 115.146L93.3999 116.376L89.0974 117.626L84.8649 118.861L81.4374 119.861L65.9849 124.411C63.9854 124.991 61.8377 124.754 60.0124 123.753C58.1874 122.751 56.8342 121.066 56.2499 119.068L47.3124 88.3832C46.7364 86.3859 46.9744 84.2417 47.9744 82.4194C48.9747 80.5972 50.6557 79.2449 52.6499 78.6582L54.3449 78.1757L54.6149 78.0957L62.1974 75.8257L64.3949 75.1782Z" fill="#B453EC"/>
<path d="M98.0574 93.4415L57.3549 104.929C57.1379 104.99 56.9109 105.008 56.6869 104.982C56.4632 104.955 56.2467 104.885 56.0499 104.774C55.8532 104.664 55.6802 104.516 55.5407 104.339C55.4014 104.162 55.2982 103.959 55.2374 103.741C55.1929 103.591 55.1702 103.436 55.1699 103.279C55.1717 102.905 55.2942 102.542 55.5197 102.244C55.7449 101.947 56.0609 101.73 56.4199 101.626L97.1224 90.1465C96.9584 90.707 96.9507 91.3017 97.0999 91.8665C97.2617 92.4725 97.5939 93.019 98.0574 93.4415Z" fill="#B453EC"/>
<path d="M107.565 89.4515C107.564 89.8262 107.442 90.1905 107.217 90.49C106.991 90.7892 106.675 91.0075 106.315 91.1115L103.377 91.9415C103.545 91.3587 103.546 90.741 103.383 90.1572C103.219 89.5735 102.896 89.047 102.45 88.6365L105.387 87.809C105.825 87.6872 106.294 87.7437 106.69 87.9662C107.086 88.1887 107.378 88.5592 107.502 88.9965C107.546 89.144 107.568 89.2975 107.565 89.4515Z" fill="#D7E8F0"/>
<path d="M109.415 96.0067C109.414 96.3804 109.291 96.7434 109.066 97.0414C108.84 97.3394 108.524 97.5562 108.165 97.6592L67.7149 109.069C67.9574 108.508 68.0361 107.891 67.9419 107.287C67.8476 106.684 67.5841 106.119 67.1824 105.659L107.23 94.3542C107.668 94.2332 108.136 94.2902 108.532 94.5124C108.928 94.7349 109.22 95.1049 109.345 95.5417C109.391 95.6922 109.415 95.8489 109.415 96.0067Z" fill="#D7E8F0"/>
<path d="M62.8499 110.429L59.2049 111.456C58.9826 111.544 58.7446 111.584 58.5059 111.574C58.2674 111.564 58.0334 111.504 57.8192 111.399C57.6049 111.293 57.4152 111.144 57.2622 110.96C57.1092 110.777 56.9961 110.563 56.9304 110.334C56.8646 110.104 56.8479 109.863 56.8807 109.627C56.9137 109.39 56.9956 109.163 57.1216 108.96C57.2476 108.757 57.4146 108.583 57.6119 108.448C57.8091 108.314 58.0324 108.222 58.2674 108.179L61.5174 107.264C61.4474 107.712 61.4686 108.171 61.5799 108.611C61.7746 109.348 62.2246 109.992 62.8499 110.429Z" fill="#B453EC"/>
<path d="M99.0849 107.371L61.3199 118.028C60.8822 118.147 60.4149 118.09 60.0194 117.867C59.6239 117.645 59.3314 117.277 59.2049 116.841C59.1609 116.693 59.1399 116.538 59.1424 116.383C59.1432 116.009 59.2654 115.645 59.4909 115.345C59.7162 115.046 60.0327 114.828 60.3924 114.723L98.1024 104.091C97.9447 104.675 97.9532 105.291 98.1267 105.871C98.3002 106.45 98.6322 106.97 99.0849 107.371Z" fill="#B453EC"/>
<path d="M111.537 102.559C111.538 102.933 111.416 103.297 111.19 103.595C110.964 103.894 110.647 104.11 110.287 104.211L104.365 105.879L99.0899 107.379C98.6371 106.978 98.3051 106.458 98.1316 105.879C97.9581 105.299 97.9496 104.683 98.1074 104.099L103.482 102.584L109.357 100.924C109.795 100.8 110.263 100.855 110.66 101.077C111.057 101.298 111.35 101.667 111.475 102.104C111.517 102.252 111.538 102.405 111.537 102.559Z" fill="#D7E8F0"/>
<path d="M103.377 91.941C103.181 92.627 102.764 93.2295 102.192 93.6552C101.619 94.081 100.922 94.3065 100.209 94.297C99.4951 94.2872 98.8044 94.043 98.2436 93.6017C97.6826 93.1607 97.2824 92.547 97.1049 91.856C96.9971 91.4425 96.9721 91.012 97.0311 90.589C97.0899 90.166 97.2316 89.7587 97.4479 89.3905C97.6644 89.0222 97.9511 88.7002 98.2921 88.443C98.6331 88.1855 99.0214 87.998 99.4349 87.891C99.9601 87.7542 100.511 87.7512 101.038 87.8822C101.564 88.0132 102.05 88.274 102.45 88.641C102.896 89.0515 103.219 89.578 103.383 90.1617C103.546 90.7455 103.545 91.3632 103.377 91.946V91.941Z" fill="white"/>
<g opacity="0.72">
<path opacity="0.72" d="M101.632 90.3817C101.672 90.7754 101.6 91.1727 101.422 91.5267C101.337 91.7017 101.237 91.8692 101.122 92.0267C101.06 92.1092 100.732 92.5817 100.637 92.5617C99.9924 92.4467 99.0699 91.9442 98.7724 91.2717C98.7279 91.1659 98.6969 91.0552 98.6799 90.9417C98.6569 90.7769 98.6844 90.6092 98.7584 90.4604C98.8324 90.3117 98.9497 90.1884 99.0947 90.1074C99.2399 90.0264 99.4059 89.9912 99.5716 90.0062C99.7371 90.0212 99.8942 90.0857 100.022 90.1917C100.092 90.0224 100.214 89.8802 100.371 89.7867C100.528 89.6929 100.712 89.6532 100.893 89.6729C101.075 89.6927 101.246 89.7709 101.379 89.8962C101.512 90.0214 101.601 90.1864 101.632 90.3667V90.3817Z" fill="#B453EC"/>
</g>
<path d="M67.7149 109.068C67.4481 109.692 66.9929 110.217 66.4129 110.569C65.8331 110.921 65.1574 111.082 64.4809 111.031C63.8046 110.98 63.1611 110.718 62.6409 110.283C62.1206 109.847 61.7496 109.26 61.5799 108.603C61.4686 108.163 61.4474 107.705 61.5174 107.256C61.6224 106.637 61.9039 106.061 62.3279 105.599C62.7516 105.136 63.3001 104.805 63.9074 104.646C64.4939 104.49 65.1126 104.503 65.6919 104.684C66.2714 104.864 66.7879 105.205 67.1824 105.666C67.5844 106.126 67.8476 106.69 67.9419 107.294C68.0361 107.897 67.9574 108.515 67.7149 109.076V109.068Z" fill="white"/>
<g opacity="0.72">
<path opacity="0.72" d="M66.11 107.126C66.1492 107.521 66.0757 107.918 65.8975 108.271C65.8145 108.448 65.714 108.615 65.5975 108.771C65.535 108.854 65.2075 109.326 65.115 109.306C64.4675 109.191 63.5475 108.689 63.25 108.014C63.2042 107.909 63.173 107.798 63.1575 107.684C63.1345 107.519 63.1617 107.352 63.2357 107.203C63.3097 107.054 63.427 106.931 63.5722 106.85C63.7172 106.769 63.8835 106.733 64.0492 106.748C64.2147 106.763 64.3717 106.828 64.5 106.934C64.5492 106.813 64.626 106.705 64.724 106.618C64.822 106.531 64.9387 106.468 65.065 106.434C65.1792 106.407 65.298 106.404 65.4135 106.424C65.5292 106.445 65.6395 106.489 65.7372 106.554C65.8352 106.619 65.9187 106.703 65.983 106.802C66.047 106.9 66.0902 107.011 66.11 107.126Z" fill="#B453EC"/>
</g>
<path d="M104.36 105.878C104.132 106.627 103.642 107.267 102.978 107.682C102.315 108.096 101.524 108.257 100.752 108.134C99.9796 108.01 99.2781 107.612 98.7769 107.011C98.2759 106.411 98.0089 105.649 98.0256 104.867C98.0424 104.085 98.3416 103.336 98.8681 102.757C99.3946 102.179 100.113 101.811 100.889 101.721C101.666 101.631 102.45 101.825 103.094 102.267C103.739 102.71 104.202 103.371 104.397 104.128C104.545 104.704 104.532 105.309 104.36 105.878Z" fill="white"/>
<g opacity="0.72">
<path opacity="0.72" d="M102.63 104.289C102.668 104.683 102.594 105.079 102.417 105.434C102.333 105.609 102.233 105.777 102.117 105.934C102.055 106.016 101.727 106.489 101.635 106.469C100.987 106.354 100.065 105.851 99.7674 105.179C99.7227 105.072 99.6917 104.96 99.6749 104.846C99.6519 104.682 99.6792 104.514 99.7534 104.365C99.8274 104.216 99.9447 104.093 100.09 104.012C100.235 103.931 100.401 103.896 100.567 103.911C100.732 103.926 100.889 103.99 101.017 104.096C101.088 103.927 101.21 103.786 101.368 103.693C101.525 103.6 101.708 103.56 101.89 103.58C102.072 103.6 102.242 103.679 102.376 103.804C102.509 103.929 102.598 104.094 102.63 104.274V104.289Z" fill="#B453EC"/>
</g>
<path d="M97.6524 114.626C95.4849 114.746 93.1524 111.626 92.4399 110.849C92.3609 110.766 92.2709 110.694 92.1724 110.636L90.2349 109.069L90.5599 111.534C91.0774 112.721 93.8099 115.311 95.7574 118.284C97.7049 121.256 95.8499 121.906 94.8074 122.284C93.7649 122.661 92.6749 120.691 93.0999 122.831C93.5249 124.971 90.9999 125.001 89.4249 124.734C87.8499 124.466 87.2849 122.734 87.6424 124.094C87.9999 125.454 86.8199 126.446 85.7549 126.491C84.9474 126.531 83.3949 125.441 82.6949 124.916C82.5349 125.776 81.9574 127.391 79.9449 126.531C77.2724 125.389 74.6774 118.561 72.6949 111.574C70.7124 104.586 57.8724 91.8412 55.9999 78.3462C55.9999 78.3237 55.9999 78.2912 55.9999 78.2687C55.8999 77.2487 55.8492 76.2212 55.8474 75.1862C55.8479 73.219 56.0389 71.2565 56.4174 69.3262C56.6882 67.9217 57.0497 66.5362 57.4999 65.1787L78.6999 69.3887C78.5549 69.5487 78.4099 69.7087 78.2649 69.8762C73.3024 75.6387 76.2024 82.9462 79.9774 88.3112C83.8074 93.7712 88.2149 99.1662 93.2524 103.561C94.7314 104.848 96.1137 106.243 97.3874 107.734L97.1124 107.886C97.4117 108.469 97.7457 109.033 98.1124 109.576C99.6099 111.641 99.8299 114.504 97.6524 114.626Z" fill="white"/>
<path d="M84.1499 65.3964L132.562 51.2989C134.888 50.6292 137.385 50.9077 139.506 52.0732C141.627 53.2387 143.2 55.1964 143.882 57.5189L154.28 93.2364C154.95 95.5619 154.673 98.0579 153.509 100.18C152.345 102.302 150.389 103.877 148.067 104.561L96.4724 119.581" stroke="black" stroke-width="1.1425" stroke-miterlimit="10"/>
<path d="M77.6099 125.069L63.4224 129.204C61.0966 129.875 58.5996 129.597 56.4781 128.431C54.3564 127.266 52.7831 125.307 52.1024 122.984L41.7049 87.2664C41.0344 84.9422 41.3111 82.4469 42.4746 80.3264C43.6384 78.2057 45.5944 76.6317 47.9149 75.9489L48.2874 75.8414L48.5999 75.7489L55.2299 73.8164" stroke="black" stroke-width="1.1425" stroke-miterlimit="10"/>
<path d="M91.5474 121.011H91.5399" stroke="black" stroke-width="1.1425" stroke-miterlimit="10"/>
<path d="M81.6075 123.911H81.6" stroke="black" stroke-width="1.1425" stroke-miterlimit="10"/>
<path d="M84.3049 110.219C85.0024 114.024 88.1724 118.146 91.5349 121.001C92.5124 121.831 94.6724 122.841 95.8449 121.894C98.3749 119.854 94.0499 116.494 92.8574 115.144C91.4099 113.504 90.2399 111.581 89.8049 109.414C89.7669 109.28 89.7749 109.137 89.8274 109.009C89.8781 108.939 89.9499 108.887 90.0324 108.861C90.1149 108.836 90.2034 108.837 90.2849 108.866C90.4461 108.926 90.5916 109.021 90.7099 109.146C92.0799 110.396 93.3024 111.779 94.5424 113.146C95.4199 114.124 97.7024 115.336 98.8224 114.091C101.252 111.389 94.3749 105.091 92.6149 103.546C87.5824 99.1462 83.1674 93.7512 79.3374 88.2962C75.5624 82.9312 72.6624 75.6237 77.6249 69.8612C80.2149 66.8612 84.0499 65.5512 87.4749 63.7787C92.9999 60.9287 94.1374 56.1787 94.1374 56.1787" stroke="black" stroke-width="1.1425" stroke-miterlimit="10"/>
<path d="M81.095 114.086C81.095 114.086 83.955 122.238 90.03 124.776C90.3907 124.936 90.783 125.014 91.1777 125.002C91.5722 124.99 91.9592 124.89 92.31 124.708C93.06 124.288 93.6725 123.458 92.62 121.793" stroke="black" stroke-width="1.1425" stroke-miterlimit="10"/>
<path d="M77.135 115.991C78.25 119.016 79.73 122.179 82.11 124.429C83.195 125.451 84.57 126.464 86.11 126.529C87.965 126.606 88.11 124.736 87.36 123.464C87.1978 123.191 87.003 122.939 86.78 122.714" stroke="black" stroke-width="1.1425" stroke-miterlimit="10"/>
<path d="M82.1099 124.429C82.1099 124.429 81.9749 127.679 79.3024 126.532C76.6299 125.384 74.0274 118.559 72.0524 111.569C70.0774 104.579 57.1649 91.7967 55.3324 78.2692L55.3524 78.4342C55.3524 78.4042 55.3524 78.3817 55.3524 78.3517C55.0401 75.3389 55.1781 72.2962 55.7624 69.3242C61.5499 40.0342 100.57 36.1592 100.57 36.1592" stroke="black" stroke-width="1.1425" stroke-miterlimit="10"/>
<path d="M158.382 98.0158C157.302 101.203 154.632 103.236 151.342 103.731C149.932 103.938 148.412 104.128 147.092 103.481C146.125 103.008 145.172 101.906 145.462 100.748C145.032 100.754 144.603 100.705 144.185 100.603C143.612 100.466 143.02 100.193 142.767 99.6658C142.515 99.1383 142.692 98.4033 143.102 97.9308C143.549 97.4903 144.099 97.1688 144.702 96.9958C144.849 96.9418 144.998 96.8958 145.15 96.8583C144.662 96.8626 144.174 96.8316 143.69 96.7658C142.76 96.6458 141.717 96.2483 141.44 95.3583C141.363 95.0558 141.364 94.7388 141.442 94.4368C141.521 94.1346 141.675 93.8573 141.89 93.6308C142.327 93.1813 142.876 92.8553 143.48 92.6858C143.542 92.6708 143.595 92.6483 143.655 92.6333C142.552 92.6183 141.425 92.3983 140.937 91.3533C140.781 90.9821 140.736 90.5731 140.81 90.1766C140.883 89.7803 141.071 89.4141 141.35 89.1233C142.325 88.0283 143.785 87.8733 145.162 87.7683C146.54 87.6633 148.215 87.6158 149.837 87.5858C150.19 87.5766 150.535 87.4866 150.848 87.3233C151.16 87.1598 151.431 86.9271 151.64 86.6428C151.848 86.3588 151.989 86.0306 152.052 85.6836C152.114 85.3366 152.096 84.9801 152 84.6408C151.367 82.3908 151.1 79.9358 152.432 79.3358C154.42 78.4358 155.79 80.8883 156.36 82.3958C158.102 87.0158 160.042 93.1358 158.382 98.0158Z" fill="white"/>
<path d="M150 96.1592C148.392 96.5017 146.765 96.8517 145.135 96.8667C144.983 96.9044 144.834 96.9504 144.687 97.0042C144.084 97.1769 143.534 97.4984 143.087 97.9392C142.677 98.4117 142.48 99.1117 142.752 99.6742C143.025 100.237 143.597 100.474 144.17 100.612C144.588 100.713 145.017 100.762 145.447 100.757C146.327 100.739 147.203 100.629 148.06 100.429C148.205 100.399 149.98 100.194 150.117 100.162" stroke="black" stroke-width="1.1425" stroke-miterlimit="10"/>
<path d="M143.637 92.6416C143.577 92.6566 143.525 92.6791 143.462 92.6941C142.858 92.8634 142.31 93.1894 141.872 93.6391C141.658 93.8654 141.504 94.1426 141.425 94.4449C141.346 94.7469 141.345 95.0641 141.422 95.3666C141.712 96.2566 142.755 96.6541 143.672 96.7741C144.156 96.8396 144.644 96.8706 145.132 96.8666" stroke="black" stroke-width="1.1425" stroke-miterlimit="10"/>
<path d="M151.35 92.474C151.227 92.474 151.112 92.474 150.992 92.474L145.182 92.604C144.727 92.604 144.182 92.649 143.637 92.634C142.535 92.619 141.407 92.399 140.92 91.354C140.763 90.9827 140.719 90.5735 140.792 90.1772C140.865 89.781 141.053 89.4147 141.332 89.124C142.307 88.029 143.767 87.874 145.145 87.769C146.522 87.664 148.2 87.6215 149.822 87.5865C150.176 87.5785 150.523 87.4892 150.837 87.326C151.151 87.163 151.423 86.9297 151.632 86.645C151.842 86.36 151.983 86.0307 152.046 85.6825C152.108 85.3342 152.09 84.9765 151.992 84.6365C151.36 82.3865 151.087 79.929 152.422 79.329C154.41 78.429 155.78 80.8815 156.35 82.389C158.1 87.009 160.042 93.139 158.382 98.009C157.3 101.196 154.632 103.234 151.345 103.724C149.937 103.934 148.412 104.124 147.095 103.474C146.132 103.004 145.177 101.904 145.465 100.746" stroke="black" stroke-width="1.1425" stroke-miterlimit="10"/>
<g opacity="0.54">
<path opacity="0.54" d="M105.307 79.3764C105.264 79.0877 105.198 78.8027 105.11 78.5239L104.127 75.3464C103.827 74.3739 103.495 73.3464 102.73 72.6764C101.312 71.4264 99.1275 71.8939 97.315 72.4389L92.8675 73.7739C91.845 74.0814 90.8075 74.3964 89.915 74.9789C89.0225 75.5614 88.2775 76.4664 88.1375 77.5239C88.0325 78.3039 88.2625 79.0839 88.49 79.8389L89.405 82.8889C89.7075 83.8889 90.0425 84.9439 90.83 85.6389C92.2325 86.8589 94.375 86.4014 96.16 85.8739L100.71 84.5314C103.455 83.7114 105.75 82.2439 105.307 79.3764Z" fill="white"/>
<path opacity="0.54" d="M99.0675 79.7493C99.251 79.5563 99.38 79.3175 99.4407 79.0583C99.5015 78.7988 99.492 78.5278 99.4135 78.273C99.3347 78.0185 99.1897 77.7895 98.993 77.6095C98.7965 77.4295 98.5555 77.3053 98.295 77.2493L96.885 76.9293L95.4775 76.6093C95.2185 76.5468 94.9475 76.5543 94.6925 76.6313C94.4372 76.7083 94.2072 76.8518 94.026 77.047C93.8447 77.2423 93.7187 77.4823 93.661 77.7423C93.6032 78.0025 93.616 78.2733 93.6975 78.5268L94.125 79.9068L94.55 81.2868C94.6252 81.5428 94.7672 81.774 94.9615 81.9568C95.156 82.1395 95.3955 82.267 95.6555 82.3265C95.9155 82.3858 96.1867 82.3748 96.441 82.2945C96.6955 82.214 96.9237 82.0673 97.1025 81.8693L98.085 80.8093L99.0675 79.7493Z" fill="#B453EC"/>
</g>
<path d="M199.762 185.246H187.505" stroke="#CCDDE2" stroke-width="1.1425" stroke-miterlimit="10"/>
<path d="M185.417 108.611C192.913 108.611 198.99 102.534 198.99 95.0383C198.99 87.5426 192.913 81.4658 185.417 81.4658C177.921 81.4658 171.845 87.5426 171.845 95.0383C171.845 102.534 177.921 108.611 185.417 108.611Z" fill="#B453EC"/>
<path d="M183.22 101.124C183.062 101.124 182.906 101.093 182.76 101.032C182.614 100.972 182.481 100.883 182.37 100.771L178.87 97.2712C178.644 97.0459 178.518 96.7404 178.517 96.4219C178.517 96.1034 178.644 95.7977 178.869 95.5724C179.094 95.3469 179.399 95.2202 179.718 95.2199C180.036 95.2197 180.342 95.3459 180.567 95.5712L183.227 98.2312L190.275 91.1787C190.5 90.9532 190.805 90.8264 191.124 90.8262C191.443 90.8259 191.748 90.9522 191.974 91.1774C192.199 91.4024 192.326 91.7079 192.326 92.0264C192.326 92.3449 192.2 92.6507 191.975 92.8762L184.067 100.784C183.841 101.004 183.536 101.127 183.22 101.124Z" fill="white"/>
</svg>
