<svg width="57" height="19" viewBox="0 0 57 19" fill="none" xmlns="http://www.w3.org/2000/svg">
<path d="M16.0755 6.61321H13.7781C8.01085 6.61321 2.34937 11.621 1.10581 17.7542L0.868164 18.9358H5.49755L5.76236 17.6696C6.42392 14.3216 9.5716 11.5647 12.7726 11.5647H18.11L19.9069 6.1624L15.5888 9.47779L16.0755 6.61321Z" fill="#B453EC"/>
<path d="M20.2179 4.8594L21.5815 0.0975342H5.29515L4.31641 5.02123H16.3459L16.8469 2.06995L20.2179 4.8594Z" fill="#B453EC"/>
<path d="M33.9428 0.136902H22.6006L16.8037 18.8996H25.1213L25.726 16.2189H30.8174L31.4221 18.8996H37.2545V10.8554L33.9428 0.136902ZM26.8352 11.3945L28.1711 5.49774H28.3727L29.7087 11.3945H26.8352Z" fill="#B453EC"/>
<path d="M53.3861 9.62543V9.41106C55.2764 8.98179 57.3697 7.93673 57.3697 5.28337C57.3697 0.136903 52.6297 0.136902 47.7908 0.136902H37.2549V10.856L39.74 18.9001H48.0423C53.0832 18.9001 57.4186 18.9001 57.4186 13.7804C57.4186 10.9122 55.5535 9.94698 53.3861 9.62543ZM44.8165 5.49774H47.7908C49.0008 5.49774 49.3535 5.73891 49.3535 6.57012C49.3535 7.40133 49.0008 7.6425 47.7908 7.6425H44.8165V5.49774ZM48.0428 13.5387H44.8165V11.3945H48.0428C49.4543 11.3945 49.8575 11.6357 49.8575 12.4669C49.8575 13.2976 49.4538 13.5387 48.0428 13.5387Z" fill="#B453EC"/>
</svg>
