<svg width="301" height="192" viewBox="0 0 301 192" fill="none" xmlns="http://www.w3.org/2000/svg">
<path d="M284.833 190.619H189.755H196.342L256.476 189.923C267.593 188.956 275.426 178.052 271.203 167.729C270.473 165.946 271.236 165.449 270.333 163.729C260.879 145.929 244.489 131.429 225.916 123.005C226.376 122.919 226.839 122.855 227.312 122.792C223.854 121.06 220.291 119.543 216.646 118.249C214.712 117.559 212.756 116.935 210.802 116.388C201.199 113.682 188.222 114.918 184.135 125.552C180.699 134.479 185.262 145.262 193.845 149.172L209.262 155.066C209.132 154.872 209.015 154.679 208.895 154.476L222.302 159.599C222.568 159.785 222.771 160.049 222.883 160.353C222.996 160.658 223.012 160.99 222.931 161.304C222.849 161.619 222.673 161.901 222.427 162.113C222.181 162.324 221.875 162.456 221.552 162.489L188.992 166.046C184.299 166.519 178.422 168.482 174.962 171.712C172.438 174.046 170.312 177.222 170.332 181.242C168.204 181.403 166.088 181.7 163.998 182.132C160.808 182.819 157.562 184.003 157.332 185.946C156.878 189.846 162.422 190.639 165.915 190.639L143.808 190.553C146.182 190.553 146.475 190.533 148.048 188.966C149.622 187.399 151.382 186.193 151.382 183.819L151.575 176.212C151.575 174.646 151.948 173.379 150.382 173.379H136.381C136.951 173.395 137.514 173.246 138.001 172.95C138.489 172.655 138.881 172.225 139.131 171.712C139.142 171.7 139.149 171.685 139.151 171.669C139.851 170.369 140.011 168.499 139.881 166.729L140.045 166.149L140.465 164.602L149.358 159.369C149.425 159.33 149.49 159.288 149.552 159.242C154.192 156.406 154.772 151.336 153.182 146.802C153.148 146.715 153.128 146.639 153.095 146.565C153.022 146.372 152.955 146.189 152.872 146.005C152.447 144.972 151.921 143.982 151.302 143.052C149.005 139.465 145.672 136.542 142.505 135.779C141.616 135.578 140.709 135.477 139.798 135.479C150.818 125.145 163.515 115.962 178.512 112.908C191.633 110.198 205.203 110.551 218.166 113.942C233.312 117.972 246.953 126.339 257.769 137.639C272.329 152.829 279.14 170.576 284.833 190.619Z" fill="#353642"/>
<path d="M136.698 144.949C136.176 145.979 135.32 146.801 134.272 147.283C133.376 147.733 132.428 148.069 131.448 148.283C129.835 148.553 129.265 147.533 128.235 146.533C127.648 145.965 126.972 145.497 126.235 145.146C125.793 144.929 125.309 144.813 124.817 144.805C124.324 144.798 123.837 144.899 123.388 145.103C123.085 145.238 122.827 145.458 122.646 145.737C122.465 146.015 122.369 146.341 122.368 146.673C122.435 147.896 124.122 148.863 125.075 149.369C126.32 149.957 127.613 150.435 128.942 150.796C132.198 151.796 126.775 153.879 125.635 154.009C123.197 154.34 120.722 154.281 118.302 153.836C118.996 155.388 119.529 157.008 119.892 158.669C120.268 160.259 120.708 162.173 120.398 163.773C120.022 165.653 118.752 167.05 117.185 167.996L111.095 142.589C113.341 141.52 115.783 140.926 118.269 140.844C120.755 140.763 123.231 141.196 125.542 142.116C126.312 142.4 127.148 142.457 127.95 142.28C128.752 142.102 129.486 141.699 130.065 141.116L130.688 140.513C131.556 140.324 132.461 140.396 133.288 140.719C134.765 141.276 137.498 143.066 136.698 144.949Z" fill="#344054"/>
<path d="M142.952 173.358H117.805C117.55 175.73 116.428 177.924 114.653 179.519C112.879 181.113 110.577 181.995 108.191 181.994H23.6504C23.6557 184.281 24.5664 186.472 26.1831 188.088C27.7998 189.705 29.9908 190.616 32.2771 190.621H142.945C145.231 190.613 147.422 189.702 149.04 188.086C150.658 186.47 151.571 184.281 151.582 181.994V176.194C151.582 175.442 151.283 174.72 150.751 174.188C150.219 173.656 149.497 173.358 148.745 173.358H142.952Z" stroke="black" stroke-miterlimit="10"/>
<path d="M104.118 116.964C104.861 117.988 105.394 119.148 105.688 120.378L117.601 170.045C117.865 171.123 117.933 172.24 117.805 173.342C117.55 175.714 116.428 177.908 114.653 179.503C112.879 181.097 110.577 181.979 108.191 181.978H22.0805C19.9065 181.977 17.7958 181.244 16.0889 179.898C14.382 178.551 13.1779 176.669 12.6704 174.555L0.770296 124.888C0.426592 123.465 0.410459 121.983 0.723129 120.553C1.03577 119.123 1.66907 117.783 2.57525 116.633C3.48142 115.484 4.6368 114.555 5.95421 113.917C7.27163 113.279 8.71668 112.949 10.1804 112.951H96.2779C97.6923 112.949 99.0896 113.259 100.37 113.859C101.651 114.458 102.784 115.333 103.688 116.421L104.118 116.964Z" stroke="black" stroke-miterlimit="10"/>
<path d="M62.3417 161.084C67.2454 159.538 69.8121 153.817 68.0744 148.305C66.3367 142.794 60.9526 139.58 56.0486 141.126C51.1449 142.672 48.5782 148.393 50.3159 153.904C52.0536 159.416 57.4376 162.63 62.3417 161.084Z" fill="#9ED5CF"/>
<path d="M227.783 122.502C220.186 123.772 214.346 127.245 210.426 134.435C206.916 140.869 206.506 148.719 210.249 155.102L194.966 149.242C186.116 145.189 183.002 136.182 186.549 126.932C190.766 115.912 204.146 114.632 214.049 117.438C216.066 118.005 218.079 118.652 220.073 119.365C222.677 120.298 225.247 121.344 227.783 122.502Z" fill="#353642"/>
<path d="M49.7907 112.959C55.8541 105.124 64.2152 99.3802 73.7043 96.5319C72.4403 93.1368 71.4376 89.6498 70.7043 86.1018C62.8309 47.8081 87.4545 10.371 125.738 2.47426C164.022 -5.42249 201.472 19.1911 209.366 57.4748C210.248 61.7649 210.739 66.1262 210.832 70.5049C213.567 69.5346 216.366 68.7549 219.209 68.1716C252.666 61.2548 285.4 82.7817 292.307 116.245C294.256 125.655 293.983 135.389 291.511 144.674C289.038 153.959 284.433 162.539 278.063 169.733" stroke="#9F9F9F" stroke-miterlimit="10"/>
<path d="M133.242 173.362H135.605C136.284 173.379 136.958 173.236 137.573 172.947C138.188 172.658 138.728 172.229 139.148 171.695C139.159 171.683 139.167 171.668 139.172 171.652C140.019 170.493 140.405 169.06 140.255 167.632L140.062 166.129L139.902 164.915L140.482 164.582L149.568 159.222L150.182 158.868C154.618 156.258 154.939 151.392 153.198 146.782C153.168 146.698 153.145 146.622 153.115 146.545C153.038 146.352 152.962 146.172 152.888 145.988C152.443 144.964 151.918 143.977 151.318 143.035C149.022 139.445 145.692 136.525 142.522 135.762C141.634 135.559 140.726 135.459 139.815 135.462C137.915 135.462 135.815 135.825 134.712 136.922C146.498 125.325 160.269 114.441 176.832 111.065C189.959 108.359 203.534 108.719 216.499 112.118C231.646 116.148 245.299 124.525 256.116 135.825C256.686 136.419 257.243 137.018 257.783 137.632C271.34 152.532 279.986 171.352 285.45 190.612" stroke="black" stroke-miterlimit="10"/>
<path d="M137.398 190.623H300.5" stroke="black" stroke-miterlimit="10"/>
<path d="M178.458 190.619H196.965" stroke="black" stroke-miterlimit="10"/>
<path d="M193.929 149.084C185.342 145.174 180.782 134.391 184.216 125.468C188.309 114.831 201.286 113.594 210.883 116.301C212.843 116.85 214.79 117.47 216.726 118.161C238.303 125.828 257.91 141.744 268.616 161.911C269.52 163.618 270.24 165.371 270.97 167.158C271.954 169.558 272.36 172.156 272.155 174.742C271.949 177.329 271.139 179.83 269.789 182.045C268.438 184.26 266.586 186.126 264.381 187.494C262.176 188.861 259.681 189.69 257.096 189.915L196.966 190.618H178.459C176.824 190.619 175.23 190.107 173.9 189.155C172.571 188.203 171.573 186.859 171.046 185.311C169.016 179.311 171.639 174.785 174.956 171.701C178.416 168.488 182.929 166.651 187.622 166.178L221.403 162.765C221.726 162.732 222.032 162.6 222.279 162.389C222.526 162.177 222.702 161.895 222.784 161.58C222.866 161.266 222.851 160.934 222.739 160.628C222.627 160.323 222.425 160.059 222.159 159.871L193.929 149.084Z" stroke="black" stroke-miterlimit="10"/>
<path d="M183.859 172.732C180.776 174.505 177.606 177.282 176.546 180.798C175.326 184.848 178.189 188.529 181.443 190.635" stroke="black" stroke-miterlimit="10"/>
<path d="M187.165 177.379C184.289 180.116 181.795 183.586 183.459 187.712C183.934 188.845 184.675 189.846 185.619 190.632" stroke="black" stroke-miterlimit="10"/>
<path d="M192.809 182.733C192.809 182.733 186.186 187.656 190.392 190.609" stroke="black" stroke-miterlimit="10"/>
<path d="M175.809 190.149L175.926 190.623H165.239C161.745 190.623 156.905 190.086 157.362 186.186C157.819 182.286 170.329 181.223 170.329 181.223" stroke="black" stroke-miterlimit="10"/>
<path d="M156.638 67.5105L133.895 70.9139L137.858 73.7073L145.271 79.644C146.431 80.4607 146.141 82.3874 146.785 83.5574C147.029 85.3234 146.751 87.1221 145.986 88.7324C145.221 90.3425 144.002 91.6938 142.479 92.6198C140.955 93.5462 139.194 94.0065 137.413 93.9445C135.631 93.8821 133.907 93.3005 132.451 92.2708L114.568 79.6907C112.594 78.3277 111.009 76.4733 109.971 74.3106C108.508 67.0272 112.998 58.9271 121.638 57.6438L146.498 53.9104L142.831 51.0637L131.541 42.2769C130.574 41.5283 129.767 40.5929 129.168 39.5269C128.917 37.7222 129.211 35.8836 130.011 34.2465C130.812 32.6099 132.084 31.2495 133.663 30.3402C135.242 29.4308 137.057 29.0138 138.874 29.1428C140.692 29.2715 142.43 29.9405 143.865 31.0635L164.005 46.7303C165.652 47.9954 166.983 49.6244 167.895 51.4904C169.268 58.5304 164.875 66.2739 156.638 67.5105Z" fill="#9ED5CF"/>
<path d="M139.905 164.912C139.905 164.912 139.212 158.812 136.862 156.662" stroke="black" stroke-miterlimit="10"/>
<path d="M110.861 143.016C113.131 141.901 115.608 141.275 118.135 141.177C120.661 141.079 123.18 141.513 125.528 142.449C126.3 142.734 127.137 142.791 127.94 142.613C128.743 142.436 129.478 142.032 130.058 141.449L134.702 136.902" stroke="black" stroke-miterlimit="10"/>
<path d="M125.622 168.928L129.499 170.671C129.585 170.707 129.678 170.724 129.771 170.722C129.864 170.719 129.956 170.697 130.04 170.657C130.124 170.617 130.199 170.559 130.26 170.488C130.32 170.417 130.365 170.334 130.392 170.245L131.002 168.865" stroke="black" stroke-miterlimit="10"/>
<path d="M126.255 161.229C126.58 161.975 126.693 162.795 126.581 163.601C126.469 164.407 126.138 165.166 125.622 165.795" stroke="black" stroke-miterlimit="10"/>
<path d="M135.049 173.358C135.659 172.455 135.655 170.271 135.499 169.394C135.399 168.838 134.462 168.638 134.362 169.198C134.089 170.761 132.325 173.165 130.695 173.358" stroke="black" stroke-miterlimit="10"/>
<path d="M127.221 167.466C129.97 167.466 132.198 165.237 132.198 162.489C132.198 159.74 129.97 157.512 127.221 157.512C124.472 157.512 122.244 159.74 122.244 162.489C122.244 165.237 124.472 167.466 127.221 167.466Z" stroke="black" stroke-miterlimit="10"/>
<path d="M125.555 167.175L124.668 169.669C124.052 169.449 123.399 169.353 122.746 169.386C122.094 169.419 121.454 169.581 120.863 169.861C120.273 170.142 119.744 170.536 119.306 171.021C118.868 171.506 118.53 172.073 118.311 172.689" stroke="black" stroke-miterlimit="10"/>
<path opacity="0.53" d="M127.221 166.702C129.548 166.702 131.435 164.816 131.435 162.489C131.435 160.162 129.548 158.276 127.221 158.276C124.894 158.276 123.008 160.162 123.008 162.489C123.008 164.816 124.894 166.702 127.221 166.702Z" fill="white"/>
<path d="M117.165 168.323C118.732 167.376 119.999 165.989 120.375 164.103C120.689 162.499 120.249 160.589 119.872 158.999C119.51 157.338 118.977 155.718 118.282 154.166C120.702 154.61 123.177 154.667 125.615 154.336C126.752 154.209 132.179 152.136 128.922 151.126C127.594 150.766 126.301 150.287 125.059 149.696C124.099 149.199 122.415 148.233 122.355 147.006C122.351 146.675 122.444 146.349 122.621 146.069C122.799 145.789 123.054 145.567 123.355 145.429C123.804 145.227 124.292 145.126 124.784 145.135C125.276 145.144 125.761 145.261 126.202 145.479C126.941 145.827 127.617 146.296 128.202 146.866C129.235 147.866 129.799 148.866 131.419 148.609C132.397 148.399 133.343 148.062 134.235 147.609C135.286 147.128 136.144 146.306 136.669 145.276C137.475 143.399 134.735 141.609 133.249 141.073C132.423 140.748 131.52 140.674 130.652 140.859" stroke="black" stroke-miterlimit="10"/>
<path d="M156.639 67.5114L133.895 70.9148L137.858 73.7081L142.985 77.3082C143.992 77.9898 144.852 78.8652 145.517 79.8829C146.181 80.9005 146.636 82.0406 146.855 83.2359C147.074 84.4316 147.052 85.6586 146.792 86.8459C146.531 88.0329 146.037 89.1563 145.337 90.1503C144.638 91.1443 143.747 91.989 142.718 92.635C141.688 93.281 140.541 93.7153 139.341 93.913C138.142 94.1103 136.915 94.067 135.733 93.7853C134.551 93.5033 133.436 92.989 132.455 92.2717L114.572 79.6915C112.598 78.3285 111.013 76.4742 109.975 74.3115C106.171 66.4147 110.618 55.898 120.555 54.4146L140.278 51.4612L142.832 51.0646L131.542 42.2778C130.594 41.5401 129.8 40.6228 129.207 39.5784C128.614 38.5341 128.232 37.3828 128.083 36.1908C127.935 34.9991 128.022 33.7894 128.341 32.6311C128.66 31.473 129.204 30.389 129.942 29.441C130.679 28.4933 131.597 27.7 132.641 27.1063C133.686 26.513 134.837 26.131 136.029 25.9826C137.221 25.834 138.43 25.9217 139.588 26.2407C140.746 26.5593 141.831 27.1033 142.779 27.841L162.919 43.5078C165.497 45.4685 167.263 48.3089 167.882 51.4879C169.269 58.5313 164.875 66.2747 156.639 67.5114Z" stroke="black" stroke-miterlimit="10"/>
<path d="M106.718 106.174L106.498 100.364L103.921 103.004C103.484 103.451 102.888 103.706 102.263 103.714C101.638 103.721 101.036 103.48 100.588 103.044C100.141 102.607 99.8862 102.011 99.8785 101.386C99.8712 100.761 100.112 100.159 100.548 99.711L105.165 94.9976C105.64 94.5106 106.249 94.1739 106.914 94.0293C107.579 93.8846 108.272 93.9379 108.907 94.1833C109.542 94.4283 110.091 94.8543 110.487 95.4086C110.882 95.9626 111.106 96.6206 111.131 97.301L111.348 103.228L113.248 101.084C113.453 100.852 113.703 100.662 113.982 100.526C114.26 100.39 114.563 100.311 114.873 100.292C115.183 100.273 115.493 100.316 115.786 100.418C116.079 100.52 116.35 100.678 116.581 100.884C116.814 101.09 117.003 101.339 117.139 101.618C117.275 101.896 117.355 102.199 117.374 102.509C117.393 102.818 117.35 103.129 117.249 103.422C117.148 103.715 116.99 103.986 116.785 104.218L113.041 108.441C112.564 108.986 111.933 109.375 111.232 109.556C110.53 109.738 109.79 109.705 109.108 109.46C108.426 109.216 107.833 108.771 107.407 108.185C106.981 107.599 106.741 106.899 106.718 106.174Z" fill="#9ED5CF"/>
<path d="M126.032 116.656L128.775 116.042L127.292 115.042C127.04 114.873 126.866 114.611 126.808 114.314C126.749 114.016 126.81 113.708 126.978 113.456C127.148 113.204 127.41 113.03 127.707 112.972C128.005 112.914 128.313 112.976 128.565 113.146L131.212 114.916C131.486 115.099 131.701 115.358 131.829 115.662C131.957 115.966 131.993 116.301 131.932 116.625C131.871 116.95 131.717 117.249 131.487 117.486C131.258 117.723 130.964 117.887 130.642 117.959L127.832 118.592L129.022 119.309C129.15 119.386 129.262 119.488 129.351 119.609C129.44 119.729 129.504 119.867 129.54 120.012C129.576 120.158 129.583 120.309 129.56 120.457C129.538 120.605 129.486 120.748 129.408 120.876C129.252 121.135 128.999 121.322 128.706 121.395C128.412 121.468 128.101 121.421 127.842 121.266L125.508 119.856C125.208 119.676 124.969 119.411 124.822 119.094C124.674 118.777 124.626 118.423 124.682 118.078C124.738 117.733 124.897 117.412 125.138 117.159C125.379 116.905 125.69 116.73 126.032 116.656Z" fill="#9ED5CF"/>
<path d="M119.094 132.678L119.318 130.844L118.374 131.544C118.295 131.603 118.206 131.646 118.11 131.67C118.014 131.694 117.915 131.699 117.818 131.685C117.72 131.671 117.626 131.638 117.542 131.587C117.457 131.537 117.383 131.47 117.324 131.391C117.206 131.231 117.156 131.031 117.185 130.834C117.213 130.638 117.319 130.46 117.478 130.341L119.144 129.091C119.318 128.962 119.526 128.886 119.742 128.873C119.958 128.861 120.173 128.912 120.361 129.021C120.548 129.129 120.699 129.291 120.796 129.484C120.893 129.678 120.93 129.896 120.904 130.111L120.678 131.984L121.381 131.404C121.457 131.342 121.545 131.295 121.639 131.266C121.734 131.237 121.833 131.227 121.931 131.237C122.029 131.246 122.124 131.275 122.211 131.322C122.298 131.368 122.375 131.431 122.438 131.508C122.5 131.584 122.547 131.671 122.576 131.766C122.605 131.86 122.615 131.959 122.605 132.057C122.596 132.156 122.567 132.251 122.52 132.338C122.474 132.425 122.411 132.502 122.334 132.564L120.948 133.704C120.77 133.845 120.555 133.931 120.329 133.95C120.103 133.969 119.876 133.92 119.678 133.81C119.48 133.7 119.318 133.534 119.214 133.332C119.111 133.131 119.069 132.903 119.094 132.678Z" fill="#9ED5CF"/>
<path d="M227.782 122.731L227.642 122.968C227.536 122.901 227.425 122.843 227.309 122.794L227.782 122.731Z" fill="#353642"/>
</svg>
