<svg width="40" height="40" viewBox="0 0 40 40" fill="none" xmlns="http://www.w3.org/2000/svg">
<rect width="40" height="40" rx="12" fill="#F5F3FF"/>
<path d="M25.9998 15.9098C25.9698 15.9098 25.9498 15.9098 25.9198 15.9098H25.8698C23.9798 15.8498 22.5698 14.3898 22.5698 12.5898C22.5698 10.7498 24.0698 9.25977 25.8998 9.25977C27.7298 9.25977 29.2298 10.7598 29.2298 12.5898C29.2198 14.3998 27.8098 15.8598 26.0098 15.9198C26.0098 15.9098 26.0098 15.9098 25.9998 15.9098ZM25.8998 10.7498C24.8898 10.7498 24.0698 11.5698 24.0698 12.5798C24.0698 13.5698 24.8398 14.3698 25.8298 14.4098C25.8398 14.3998 25.9198 14.3998 26.0098 14.4098C26.9798 14.3598 27.7298 13.5598 27.7398 12.5798C27.7398 11.5698 26.9198 10.7498 25.8998 10.7498Z" fill="#B453EC"/>
<path d="M26.01 23.2806C25.62 23.2806 25.23 23.2506 24.84 23.1806C24.43 23.1106 24.16 22.7206 24.23 22.3106C24.3 21.9006 24.69 21.6306 25.1 21.7006C26.33 21.9106 27.63 21.6806 28.5 21.1006C28.97 20.7906 29.22 20.4006 29.22 20.0106C29.22 19.6206 28.96 19.2406 28.5 18.9306C27.63 18.3506 26.31 18.1206 25.07 18.3406C24.66 18.4206 24.27 18.1406 24.2 17.7306C24.13 17.3206 24.4 16.9306 24.81 16.8606C26.44 16.5706 28.13 16.8806 29.33 17.6806C30.21 18.2706 30.72 19.1106 30.72 20.0106C30.72 20.9006 30.22 21.7506 29.33 22.3506C28.42 22.9506 27.24 23.2806 26.01 23.2806Z" fill="#B453EC"/>
<path d="M13.97 15.91C13.96 15.91 13.95 15.91 13.95 15.91C12.15 15.85 10.74 14.39 10.73 12.59C10.73 10.75 12.23 9.25 14.06 9.25C15.89 9.25 17.39 10.75 17.39 12.58C17.39 14.39 15.98 15.85 14.18 15.91L13.97 15.16L14.04 15.91C14.02 15.91 13.99 15.91 13.97 15.91ZM14.07 14.41C14.13 14.41 14.18 14.41 14.24 14.42C15.13 14.38 15.91 13.58 15.91 12.59C15.91 11.58 15.09 10.76 14.08 10.76C13.07 10.76 12.25 11.58 12.25 12.59C12.25 13.57 13.01 14.36 13.98 14.42C13.99 14.41 14.03 14.41 14.07 14.41Z" fill="#B453EC"/>
<path d="M13.96 23.2806C12.73 23.2806 11.55 22.9506 10.64 22.3506C9.76 21.7606 9.25 20.9106 9.25 20.0106C9.25 19.1206 9.76 18.2706 10.64 17.6806C11.84 16.8806 13.53 16.5706 15.16 16.8606C15.57 16.9306 15.84 17.3206 15.77 17.7306C15.7 18.1406 15.31 18.4206 14.9 18.3406C13.66 18.1206 12.35 18.3506 11.47 18.9306C11 19.2406 10.75 19.6206 10.75 20.0106C10.75 20.4006 11.01 20.7906 11.47 21.1006C12.34 21.6806 13.64 21.9106 14.87 21.7006C15.28 21.6306 15.67 21.9106 15.74 22.3106C15.81 22.7206 15.54 23.1106 15.13 23.1806C14.74 23.2506 14.35 23.2806 13.96 23.2806Z" fill="#B453EC"/>
<path d="M19.9998 23.3805C19.9698 23.3805 19.9498 23.3805 19.9198 23.3805H19.8698C17.9798 23.3205 16.5698 21.8605 16.5698 20.0605C16.5698 18.2205 18.0698 16.7305 19.8998 16.7305C21.7298 16.7305 23.2298 18.2305 23.2298 20.0605C23.2198 21.8705 21.8098 23.3305 20.0098 23.3905C20.0098 23.3805 20.0098 23.3805 19.9998 23.3805ZM19.8998 18.2205C18.8898 18.2205 18.0698 19.0405 18.0698 20.0505C18.0698 21.0405 18.8398 21.8405 19.8298 21.8805C19.8398 21.8705 19.9198 21.8705 20.0098 21.8805C20.9798 21.8305 21.7298 21.0305 21.7398 20.0505C21.7398 19.0505 20.9198 18.2205 19.8998 18.2205Z" fill="#7B2AAB"/>
<path d="M19.9998 30.7607C18.7998 30.7607 17.5998 30.4507 16.6698 29.8207C15.7898 29.2307 15.2798 28.3907 15.2798 27.4907C15.2798 26.6007 15.7798 25.7407 16.6698 25.1507C18.5398 23.9107 21.4698 23.9107 23.3298 25.1507C24.2098 25.7407 24.7198 26.5807 24.7198 27.4807C24.7198 28.3707 24.2198 29.2307 23.3298 29.8207C22.3998 30.4407 21.1998 30.7607 19.9998 30.7607ZM17.4998 26.4107C17.0298 26.7207 16.7798 27.1107 16.7798 27.5007C16.7798 27.8907 17.0398 28.2707 17.4998 28.5807C18.8498 29.4907 21.1398 29.4907 22.4898 28.5807C22.9598 28.2707 23.2098 27.8807 23.2098 27.4907C23.2098 27.1007 22.9498 26.7207 22.4898 26.4107C21.1498 25.5007 18.8598 25.5107 17.4998 26.4107Z" fill="#7B2AAB"/>
</svg>
