<svg width="41" height="40" viewBox="0 0 41 40" fill="none" xmlns="http://www.w3.org/2000/svg">
<rect x="0.5" width="40" height="40" rx="12" fill="#FFFAEB"/>
<path d="M20.5 20.75C17.33 20.75 14.75 18.17 14.75 15C14.75 11.83 17.33 9.25 20.5 9.25C23.67 9.25 26.25 11.83 26.25 15C26.25 18.17 23.67 20.75 20.5 20.75ZM20.5 10.75C18.16 10.75 16.25 12.66 16.25 15C16.25 17.34 18.16 19.25 20.5 19.25C22.84 19.25 24.75 17.34 24.75 15C24.75 12.66 22.84 10.75 20.5 10.75Z" fill="#F79009"/>
<path d="M11.9102 30.75C11.5002 30.75 11.1602 30.41 11.1602 30C11.1602 25.73 15.3502 22.25 20.5002 22.25C21.5102 22.25 22.5002 22.38 23.4602 22.65C23.8602 22.76 24.0902 23.17 23.9802 23.57C23.8702 23.97 23.4602 24.2 23.0602 24.09C22.2402 23.86 21.3802 23.75 20.5002 23.75C16.1802 23.75 12.6602 26.55 12.6602 30C12.6602 30.41 12.3202 30.75 11.9102 30.75Z" fill="#F79009"/>
<path d="M26.5 30.75C25.32 30.75 24.2 30.31 23.33 29.52C22.98 29.22 22.67 28.85 22.43 28.44C21.99 27.72 21.75 26.87 21.75 26C21.75 24.75 22.23 23.58 23.09 22.69C23.99 21.76 25.2 21.25 26.5 21.25C27.86 21.25 29.15 21.83 30.03 22.83C30.81 23.7 31.25 24.82 31.25 26C31.25 26.38 31.2 26.76 31.1 27.12C31 27.57 30.81 28.04 30.55 28.45C29.72 29.87 28.16 30.75 26.5 30.75ZM26.5 22.75C25.61 22.75 24.79 23.1 24.17 23.73C23.58 24.34 23.25 25.14 23.25 26C23.25 26.59 23.41 27.17 23.72 27.67C23.88 27.95 24.09 28.2 24.33 28.41C24.93 28.96 25.7 29.26 26.5 29.26C27.63 29.26 28.7 28.66 29.28 27.69C29.45 27.41 29.58 27.09 29.65 26.78C29.72 26.52 29.75 26.27 29.75 26.01C29.75 25.21 29.45 24.44 28.91 23.84C28.31 23.14 27.43 22.75 26.5 22.75Z" fill="#F79009"/>
<path d="M27.9998 26.7305H25.0098C24.5998 26.7305 24.2598 26.3905 24.2598 25.9805C24.2598 25.5705 24.5998 25.2305 25.0098 25.2305H27.9998C28.4098 25.2305 28.7498 25.5705 28.7498 25.9805C28.7498 26.3905 28.4098 26.7305 27.9998 26.7305Z" fill="#F79009"/>
</svg>
