<svg width="41" height="40" viewBox="0 0 41 40" fill="none" xmlns="http://www.w3.org/2000/svg">
<rect x="0.25" width="40" height="40" rx="12" fill="#FEF3F2"/>
<path d="M23.8399 29.6593C23.6499 29.6593 23.4599 29.5893 23.3099 29.4393C23.0199 29.1493 23.0199 28.6693 23.3099 28.3793L26.1299 25.5593C26.4199 25.2693 26.8999 25.2693 27.1899 25.5593C27.4799 25.8493 27.4799 26.3293 27.1899 26.6193L24.3699 29.4393C24.2199 29.5893 24.0299 29.6593 23.8399 29.6593Z" fill="#F04438"/>
<path d="M26.6599 29.6593C26.4699 29.6593 26.2799 29.5893 26.1299 29.4393L23.3099 26.6193C23.0199 26.3293 23.0199 25.8493 23.3099 25.5593C23.5999 25.2693 24.0799 25.2693 24.3699 25.5593L27.1899 28.3793C27.4799 28.6693 27.4799 29.1493 27.1899 29.4393C27.0399 29.5893 26.8499 29.6593 26.6599 29.6593Z" fill="#F04438"/>
<path d="M20.4099 19.62C20.3799 19.62 20.3599 19.62 20.3299 19.62C20.2799 19.61 20.2099 19.61 20.1499 19.62C17.2499 19.53 15.0599 17.25 15.0599 14.44C15.0599 11.58 17.3899 9.25 20.2499 9.25C23.1099 9.25 25.4399 11.58 25.4399 14.44C25.4299 17.25 23.2299 19.53 20.4399 19.62C20.4299 19.62 20.4199 19.62 20.4099 19.62ZM20.2499 10.75C18.2199 10.75 16.5599 12.41 16.5599 14.44C16.5599 16.44 18.1199 18.05 20.1099 18.12C20.1699 18.11 20.2999 18.11 20.4299 18.12C22.3899 18.03 23.9299 16.42 23.9399 14.44C23.9399 12.41 22.2799 10.75 20.2499 10.75Z" fill="#F04438"/>
<path d="M20.2499 30.5597C18.2099 30.5597 16.2799 30.0297 14.8199 29.0497C13.4299 28.1197 12.6699 26.8497 12.6699 25.4797C12.6699 24.1097 13.4399 22.8497 14.8199 21.9297C17.8099 19.9297 22.6699 19.9297 25.6599 21.9297C25.9999 22.1597 26.0999 22.6297 25.8699 22.9697C25.6399 23.3197 25.1699 23.4097 24.8299 23.1797C22.3399 21.5197 18.1399 21.5197 15.6499 23.1797C14.6899 23.8197 14.1699 24.6297 14.1699 25.4797C14.1699 26.3297 14.6999 27.1597 15.6499 27.7997C16.8599 28.6097 18.4899 29.0497 20.2399 29.0497C20.6499 29.0497 20.9899 29.3897 20.9899 29.7997C20.9899 30.2097 20.6599 30.5597 20.2499 30.5597Z" fill="#F04438"/>
</svg>
