<svg width="41" height="40" viewBox="0 0 41 40" fill="none" xmlns="http://www.w3.org/2000/svg">
<rect x="0.75" width="40" height="40" rx="12" fill="#ECFDF3"/>
<path d="M20.75 20.75C17.58 20.75 15 18.17 15 15C15 11.83 17.58 9.25 20.75 9.25C23.92 9.25 26.5 11.83 26.5 15C26.5 18.17 23.92 20.75 20.75 20.75ZM20.75 10.75C18.41 10.75 16.5 12.66 16.5 15C16.5 17.34 18.41 19.25 20.75 19.25C23.09 19.25 25 17.34 25 15C25 12.66 23.09 10.75 20.75 10.75Z" fill="#12B76A"/>
<path d="M12.1602 30.75C11.7502 30.75 11.4102 30.41 11.4102 30C11.4102 25.73 15.6002 22.25 20.7502 22.25C21.7602 22.25 22.7501 22.38 23.7101 22.65C24.1101 22.76 24.3402 23.17 24.2302 23.57C24.1202 23.97 23.7101 24.2 23.3102 24.09C22.4902 23.86 21.6302 23.75 20.7502 23.75C16.4302 23.75 12.9102 26.55 12.9102 30C12.9102 30.41 12.5702 30.75 12.1602 30.75Z" fill="#12B76A"/>
<path d="M26.75 30.75C25.09 30.75 23.53 29.87 22.69 28.44C22.24 27.72 22 26.87 22 26C22 24.54 22.65 23.19 23.78 22.29C24.62 21.62 25.68 21.25 26.75 21.25C29.37 21.25 31.5 23.38 31.5 26C31.5 26.87 31.26 27.72 30.81 28.45C30.56 28.87 30.24 29.25 29.86 29.57C29.03 30.33 27.92 30.75 26.75 30.75ZM26.75 22.75C26.01 22.75 25.31 23 24.72 23.47C23.95 24.08 23.5 25.01 23.5 26C23.5 26.59 23.66 27.17 23.97 27.67C24.55 28.65 25.62 29.25 26.75 29.25C27.54 29.25 28.3 28.96 28.88 28.44C29.14 28.22 29.36 27.96 29.52 27.68C29.84 27.17 30 26.59 30 26C30 24.21 28.54 22.75 26.75 22.75Z" fill="#12B76A"/>
<path d="M26.1799 27.7396C25.9899 27.7396 25.7999 27.6696 25.6499 27.5196L24.6599 26.5296C24.3699 26.2396 24.3699 25.7595 24.6599 25.4695C24.9499 25.1795 25.4299 25.1795 25.7199 25.4695L26.1999 25.9496L27.7999 24.4695C28.0999 24.1895 28.5799 24.2096 28.8599 24.5096C29.1399 24.8096 29.1199 25.2896 28.8199 25.5696L26.6899 27.5396C26.5399 27.6696 26.3599 27.7396 26.1799 27.7396Z" fill="#12B76A"/>
</svg>
