<svg width="25" height="24" viewBox="0 0 25 24" fill="none" xmlns="http://www.w3.org/2000/svg">
<path d="M12.4998 13.3C12.3698 13.3 12.2398 13.27 12.1198 13.2L3.28985 8.09002C2.92985 7.88002 2.80983 7.41999 3.01983 7.05999C3.22983 6.69999 3.67983 6.57997 4.04983 6.78997L12.4998 11.68L20.8998 6.82C21.2598 6.61 21.7198 6.74002 21.9298 7.09002C22.1398 7.45002 22.0098 7.90999 21.6598 8.11999L12.8899 13.2C12.7599 13.26 12.6298 13.3 12.4998 13.3Z" fill="#F79009"/>
<path d="M12.5 22.36C12.09 22.36 11.75 22.02 11.75 21.61V12.54C11.75 12.13 12.09 11.79 12.5 11.79C12.91 11.79 13.25 12.13 13.25 12.54V21.61C13.25 22.02 12.91 22.36 12.5 22.36Z" fill="#F79009"/>
<path d="M12.4999 22.75C11.5899 22.75 10.7199 22.54 10.0599 22.17L4.71988 19.21C3.26988 18.41 2.12988 16.48 2.12988 14.82V9.15997C2.12988 7.49997 3.26988 5.58001 4.71988 4.77001L10.0599 1.80999C11.4199 1.04999 13.5599 1.04999 14.9299 1.80999L20.2699 4.77001C21.7199 5.57001 22.8599 7.49997 22.8599 9.15997V12.82C22.8599 13.23 22.5199 13.57 22.1099 13.57C21.6999 13.57 21.3599 13.23 21.3599 12.82V9.15997C21.3599 8.05997 20.5099 6.62002 19.5499 6.09002L14.2099 3.13C13.2999 2.62 11.7099 2.62 10.7999 3.13L5.45987 6.09002C4.48987 6.63002 3.64987 8.05997 3.64987 9.15997V14.82C3.64987 15.92 4.49987 17.36 5.45987 17.89L10.7999 20.85C11.6799 21.34 13.3399 21.34 14.2099 20.85C14.5699 20.65 15.0299 20.78 15.2299 21.14C15.4299 21.5 15.2999 21.96 14.9399 22.16C14.2799 22.54 13.4099 22.75 12.4999 22.75Z" fill="#F79009"/>
<path d="M19.7 22.15C17.52 22.15 15.75 20.38 15.75 18.2C15.75 16.02 17.52 14.25 19.7 14.25C21.88 14.25 23.65 16.02 23.65 18.2C23.65 20.38 21.88 22.15 19.7 22.15ZM19.7 15.75C18.35 15.75 17.25 16.85 17.25 18.2C17.25 19.55 18.35 20.65 19.7 20.65C21.05 20.65 22.15 19.55 22.15 18.2C22.15 16.85 21.05 15.75 19.7 15.75Z" fill="#F79009"/>
<path d="M23.4999 22.75C23.3099 22.75 23.1199 22.68 22.9699 22.53L21.9699 21.53C21.6799 21.24 21.6799 20.7599 21.9699 20.4699C22.2599 20.1799 22.7399 20.1799 23.0299 20.4699L24.0299 21.4699C24.3199 21.7599 24.3199 22.24 24.0299 22.53C23.8799 22.68 23.6899 22.75 23.4999 22.75Z" fill="#F79009"/>
</svg>
