<svg width="25" height="24" viewBox="0 0 25 24" fill="none" xmlns="http://www.w3.org/2000/svg">
<path d="M12.2498 13.3C12.1198 13.3 11.9898 13.27 11.8698 13.2L3.03985 8.09002C2.67985 7.88002 2.55983 7.41999 2.76983 7.05999C2.97983 6.69999 3.42983 6.57997 3.79983 6.78997L12.2498 11.68L20.6498 6.82C21.0098 6.61 21.4698 6.74002 21.6798 7.09002C21.8898 7.45002 21.7598 7.90999 21.4098 8.11999L12.6399 13.2C12.5099 13.26 12.3798 13.3 12.2498 13.3Z" fill="#0BA5EC"/>
<path d="M12.25 22.36C11.84 22.36 11.5 22.02 11.5 21.61V12.54C11.5 12.13 11.84 11.79 12.25 11.79C12.66 11.79 13 12.13 13 12.54V21.61C13 22.02 12.66 22.36 12.25 22.36Z" fill="#0BA5EC"/>
<path d="M12.2499 22.75C11.3699 22.75 10.4899 22.56 9.80988 22.17L4.46988 19.21C3.01988 18.41 1.87988 16.48 1.87988 14.82V9.15997C1.87988 7.49997 3.01988 5.58001 4.46988 4.77001L9.80988 1.80999C11.1699 1.04999 13.3099 1.04999 14.6799 1.80999L20.0199 4.77001C21.4699 5.57001 22.6099 7.49997 22.6099 9.15997V14.82C22.6099 14.89 22.6099 14.99 22.5799 15.12C22.5199 15.38 22.3299 15.59 22.0799 15.67C21.8299 15.75 21.5499 15.7 21.3499 15.52C20.2099 14.52 18.4299 14.48 17.2099 15.45C16.4399 16.06 15.9899 16.99 15.9899 17.98C15.9899 18.57 16.1499 19.15 16.4599 19.65C16.5399 19.79 16.6199 19.9 16.7099 20C16.8599 20.17 16.9199 20.4 16.8799 20.62C16.8399 20.84 16.6999 21.04 16.4999 21.14L14.6699 22.15C13.9999 22.56 13.1299 22.75 12.2499 22.75ZM12.2499 2.74999C11.6299 2.74999 10.9999 2.88 10.5499 3.13L5.20987 6.09002C4.23987 6.63002 3.39987 8.05997 3.39987 9.15997V14.82C3.39987 15.92 4.24987 17.36 5.20987 17.89L10.5499 20.85C11.4599 21.36 13.0499 21.36 13.9599 20.85L15.0799 20.23C14.7099 19.56 14.5099 18.78 14.5099 17.98C14.5099 16.52 15.1599 15.17 16.2899 14.27C17.6599 13.18 19.5999 12.95 21.1199 13.61V9.15002C21.1199 8.05002 20.2699 6.61001 19.3099 6.08001L13.9699 3.11999C13.4999 2.87999 12.8699 2.74999 12.2499 2.74999Z" fill="#0BA5EC"/>
<path d="M19.25 22.75C16.63 22.75 14.5 20.62 14.5 18C14.5 16.54 15.15 15.19 16.28 14.29C17.12 13.62 18.18 13.25 19.25 13.25C21.87 13.25 24 15.38 24 18C24 19.36 23.41 20.66 22.38 21.56C21.51 22.33 20.4 22.75 19.25 22.75ZM19.25 14.75C18.51 14.75 17.81 15 17.22 15.47C16.45 16.08 16 17.01 16 18C16 19.79 17.46 21.25 19.25 21.25C20.03 21.25 20.79 20.96 21.4 20.44C22.1 19.82 22.5 18.94 22.5 18C22.5 16.21 21.04 14.75 19.25 14.75Z" fill="#0BA5EC"/>
<path d="M18.2499 19.75C17.9999 19.75 17.7499 19.62 17.6099 19.39C17.3999 19.03 17.5099 18.57 17.8699 18.36L18.7599 17.83V16.75C18.7599 16.34 19.0999 16 19.5099 16C19.9199 16 20.2599 16.34 20.2599 16.75V18.25C20.2599 18.51 20.1199 18.76 19.8999 18.89L18.6499 19.64C18.5099 19.72 18.3799 19.75 18.2499 19.75Z" fill="#0BA5EC"/>
</svg>
