<svg width="25" height="24" viewBox="0 0 25 24" fill="none" xmlns="http://www.w3.org/2000/svg">
<path d="M19.7501 22.7499C18.1301 22.7499 16.6001 21.9099 15.7401 20.5299C15.2801 19.8199 15.0201 18.9699 15.0001 18.0999C14.9701 16.6399 15.5901 15.2799 16.7001 14.3599C17.5301 13.6699 18.5701 13.2799 19.6401 13.2499C20.9401 13.2399 22.1101 13.6899 23.0301 14.5699C23.9501 15.4499 24.4701 16.6299 24.4901 17.8999C24.5101 18.7699 24.2901 19.6199 23.8501 20.3699C23.6101 20.7899 23.3001 21.1799 22.9301 21.5099C22.1101 22.2799 21.0101 22.7299 19.8401 22.7499C19.8201 22.7499 19.7901 22.7499 19.7501 22.7499ZM19.7501 14.7499C19.7301 14.7499 19.7001 14.7499 19.6801 14.7499C18.9401 14.7699 18.2401 15.0299 17.6601 15.5099C16.9001 16.1399 16.4801 17.0699 16.5001 18.0699C16.5101 18.6599 16.6901 19.2399 17.0001 19.7299C17.6101 20.7099 18.6701 21.3099 19.8101 21.2499C20.6001 21.2299 21.3501 20.9299 21.9201 20.3999C22.1801 20.1699 22.3901 19.9099 22.5501 19.6299C22.8501 19.1099 23.0001 18.5299 22.9901 17.9399C22.9701 17.0699 22.6201 16.2599 21.9901 15.6599C21.3901 15.0699 20.5901 14.7499 19.7501 14.7499Z" fill="#12B76A"/>
<path d="M19.1999 19.7499C19.0099 19.7499 18.8299 19.6799 18.6799 19.5399L17.6699 18.5799C17.3699 18.2899 17.3599 17.8199 17.6499 17.5199C17.9399 17.2199 18.4099 17.2099 18.7099 17.4999L19.1999 17.9699L20.7699 16.4499C21.0699 16.1599 21.5399 16.1699 21.8299 16.4699C22.1199 16.7699 22.1099 17.24 21.8099 17.53L19.7199 19.5499C19.5699 19.6799 19.3799 19.7499 19.1999 19.7499Z" fill="#12B76A"/>
<path d="M12.7498 13.2999C12.6198 13.2999 12.4898 13.2699 12.3698 13.1999L3.53985 8.0899C3.17985 7.8799 3.05983 7.41987 3.26983 7.05987C3.47983 6.69987 3.93985 6.57985 4.28985 6.78985L12.7398 11.6799L21.1399 6.81988C21.4999 6.60988 21.9598 6.7399 22.1598 7.0899C22.3698 7.4499 22.2399 7.90987 21.8899 8.11987L13.1198 13.1999C13.0098 13.2599 12.8798 13.2999 12.7498 13.2999Z" fill="#12B76A"/>
<path d="M12.75 22.3598C12.34 22.3598 12 22.0198 12 21.6098V12.5398C12 12.1298 12.34 11.7898 12.75 11.7898C13.16 11.7898 13.5 12.1298 13.5 12.5398V21.6098C13.5 22.0198 13.16 22.3598 12.75 22.3598Z" fill="#12B76A"/>
<path d="M12.7499 22.7499C11.8699 22.7499 10.9899 22.5599 10.3099 22.1699L4.96988 19.2099C3.51988 18.4099 2.37988 16.4799 2.37988 14.8199V9.1599C2.37988 7.4999 3.51988 5.57994 4.96988 4.76994L10.3099 1.80992C11.6699 1.03992 13.8099 1.03992 15.1799 1.80992L20.5199 4.76994C21.9699 5.56994 23.1099 7.4999 23.1099 9.1599V14.8199C23.1099 14.9199 23.1099 14.9999 23.0899 15.0999C23.0399 15.3599 22.8499 15.5799 22.5999 15.6599C22.3499 15.7499 22.0699 15.6899 21.8599 15.5199C20.7099 14.5199 18.9299 14.4799 17.7199 15.4499C16.9499 16.0599 16.4999 16.9899 16.4999 17.9799C16.4999 18.5699 16.6599 19.1499 16.9699 19.6499C17.0499 19.7899 17.1299 19.8999 17.2199 20.0099C17.3699 20.1799 17.4299 20.4099 17.3899 20.6299C17.3499 20.8499 17.2099 21.0399 17.0099 21.1499L15.1799 22.1599C14.4999 22.5599 13.6299 22.7499 12.7499 22.7499ZM12.7499 2.74992C12.1299 2.74992 11.4999 2.87993 11.0499 3.12993L5.70987 6.08995C4.73987 6.61995 3.89987 8.0599 3.89987 9.1599V14.8199C3.89987 15.9199 4.74987 17.3599 5.70987 17.8899L11.0499 20.8499C11.9599 21.3599 13.5499 21.3599 14.4599 20.8499L15.5799 20.2299C15.2099 19.5599 15.0099 18.7799 15.0099 17.9799C15.0099 16.5199 15.6599 15.1699 16.7899 14.2699C18.1499 13.1799 20.0899 12.9499 21.6199 13.5999V9.13994C21.6199 8.03994 20.7699 6.59993 19.8099 6.06993L14.4699 3.10991C13.9999 2.87991 13.3699 2.74992 12.7499 2.74992Z" fill="#12B76A"/>
</svg>
