<svg width="25" height="24" viewBox="0 0 25 24" fill="none" xmlns="http://www.w3.org/2000/svg">
<g id="vuesax/outline/check">
<g id="check">
<path id="Vector" d="M11.27 20.25H7.75C7 20.25 6.45 20.22 5.98 20.15C2.65 19.78 2 17.8 2 14.5V9.5C2 6.2 2.66 4.21 6.01 3.84C6.45 3.78 7 3.75 7.75 3.75H11.21C11.62 3.75 11.96 4.09 11.96 4.5C11.96 4.91 11.62 5.25 11.21 5.25H7.75C7.07 5.25 6.59 5.28 6.2 5.33C4.17 5.55 3.5 6.19 3.5 9.5V14.5C3.5 17.81 4.17 18.44 6.17 18.67C6.59 18.73 7.07 18.75 7.75 18.75H11.27C11.68 18.75 12.02 19.09 12.02 19.5C12.02 19.91 11.68 20.25 11.27 20.25Z" fill="#12B76A"/>
<path id="Vector_2" d="M16.75 20.25H15.27C14.86 20.25 14.52 19.91 14.52 19.5C14.52 19.09 14.86 18.75 15.27 18.75H16.75C17.43 18.75 17.91 18.72 18.3 18.67C20.33 18.45 21 17.81 21 14.5V9.5C21 6.19 20.33 5.56 18.33 5.33C17.91 5.27 17.43 5.25 16.75 5.25H15.27C14.86 5.25 14.52 4.91 14.52 4.5C14.52 4.09 14.86 3.75 15.27 3.75H16.75C17.5 3.75 18.05 3.78 18.52 3.85C21.85 4.22 22.5 6.2 22.5 9.5V14.5C22.5 17.8 21.84 19.79 18.49 20.16C18.05 20.22 17.5 20.25 16.75 20.25Z" fill="#12B76A"/>
<path id="Vector_3" d="M15.25 22.75C14.84 22.75 14.5 22.41 14.5 22V2C14.5 1.59 14.84 1.25 15.25 1.25C15.66 1.25 16 1.59 16 2V22C16 22.41 15.66 22.75 15.25 22.75Z" fill="#12B76A"/>
<path id="Vector_4" d="M8.25 16.25C7.84 16.25 7.5 15.91 7.5 15.5V8.5C7.5 8.09 7.84 7.75 8.25 7.75C8.66 7.75 9 8.09 9 8.5V15.5C9 15.91 8.66 16.25 8.25 16.25Z" fill="#12B76A"/>
</g>
</g>
</svg>
