<svg width="24" height="24" viewBox="0 0 24 24" fill="none" xmlns="http://www.w3.org/2000/svg">
<rect y="0.000976562" width="24" height="24" rx="12" fill="#B453EC"/>
<g clip-path="url(#clip0_8727_208179)">
<path d="M11.9999 5.33447C15.6819 5.33447 18.6666 8.31914 18.6666 12.0011C18.668 13.7515 17.9809 15.4321 16.7539 16.6802C15.5268 17.9284 13.858 18.6438 12.1079 18.6722C10.3578 18.7006 8.66681 18.0395 7.39992 16.8318C6.13302 15.6241 5.39191 13.9666 5.33659 12.2171L5.33325 12.0011L5.33592 11.8145C5.43459 8.21914 8.37992 5.33447 11.9999 5.33447ZM11.9999 11.3345H11.3333L11.2553 11.3391C11.0932 11.3584 10.9439 11.4364 10.8355 11.5584C10.7272 11.6805 10.6673 11.838 10.6673 12.0011C10.6673 12.1643 10.7272 12.3218 10.8355 12.4438C10.9439 12.5658 11.0932 12.6439 11.2553 12.6631L11.3333 12.6678V14.6678L11.3379 14.7458C11.3555 14.8946 11.4226 15.0332 11.5286 15.1391C11.6345 15.2451 11.7731 15.3123 11.9219 15.3298L11.9999 15.3345H12.6666L12.7446 15.3298C12.8934 15.3123 13.032 15.2451 13.1379 15.1391C13.2439 15.0332 13.311 14.8946 13.3286 14.7458L13.3333 14.6678L13.3286 14.5898C13.3126 14.4538 13.2552 14.326 13.1641 14.2238C13.073 14.1215 12.9526 14.0499 12.8193 14.0185L12.7446 14.0051L12.6666 14.0011V12.0011L12.6619 11.9231C12.6444 11.7743 12.5772 11.6358 12.4712 11.5298C12.3653 11.4239 12.2267 11.3567 12.0779 11.3391L11.9999 11.3345ZM12.0066 9.33447L11.9219 9.33914C11.7599 9.35841 11.6105 9.43644 11.5022 9.55845C11.3938 9.68046 11.334 9.83796 11.334 10.0011C11.334 10.1643 11.3938 10.3218 11.5022 10.4438C11.6105 10.5658 11.7599 10.6439 11.9219 10.6631L11.9999 10.6678L12.0846 10.6631C12.2466 10.6439 12.396 10.5658 12.5043 10.4438C12.6127 10.3218 12.6725 10.1643 12.6725 10.0011C12.6725 9.83796 12.6127 9.68046 12.5043 9.55845C12.396 9.43644 12.2466 9.35841 12.0846 9.33914L12.0066 9.33447Z" fill="white"/>
</g>
<defs>
<clipPath id="clip0_8727_208179">
<rect width="16" height="16" fill="white" transform="translate(4 4.00098)"/>
</clipPath>
</defs>
</svg>
