<svg width="100" height="100" viewBox="0 0 100 100" fill="none" xmlns="http://www.w3.org/2000/svg">
<circle cx="50" cy="50" r="46" stroke="#F04438" stroke-width="8"/>
<path d="M31.9244 53.9834L39.959 52.6244" stroke="#F04438" stroke-linecap="round" stroke-linejoin="round"/>
<path d="M36.8354 48.44L30.86 49.4714C30.6416 49.509 30.4172 49.4583 30.2362 49.3305C30.0551 49.2027 29.9323 49.0082 29.8946 48.7898L29.2256 44.9036C29.1883 44.686 29.2387 44.4624 29.3657 44.2819C29.4928 44.1013 29.6862 43.9784 29.9036 43.94L34.9106 43.076" stroke="#F04438" stroke-linecap="round" stroke-linejoin="round"/>
<path d="M32.9372 59.864L51.5816 56.7104" stroke="#F04438" stroke-linecap="round" stroke-linejoin="round"/>
<path d="M33.9506 65.7446L52.5944 62.591" stroke="#F04438" stroke-linecap="round" stroke-linejoin="round"/>
<path d="M23.7704 42.332L34.5968 40.4678" stroke="#F04438" stroke-linecap="round" stroke-linejoin="round"/>
<path d="M24.8762 39.1934C24.8762 39.502 24.9988 39.7979 25.217 40.0161C25.4351 40.2343 25.731 40.3568 26.0396 40.3568C26.3482 40.3568 26.6441 40.2343 26.8622 40.0161C27.0804 39.7979 27.203 39.502 27.203 39.1934C27.203 38.8849 27.0804 38.589 26.8622 38.3708C26.6441 38.1526 26.3482 38.03 26.0396 38.03C25.731 38.03 25.4351 38.1526 25.217 38.3708C24.9988 38.589 24.8762 38.8849 24.8762 39.1934Z" stroke="#F04438" stroke-linecap="round" stroke-linejoin="round"/>
<path d="M28.595 38.5532C28.595 38.8617 28.7176 39.1576 28.9358 39.3758C29.1539 39.594 29.4498 39.7166 29.7584 39.7166C30.067 39.7166 30.3629 39.594 30.581 39.3758C30.7992 39.1576 30.9218 38.8617 30.9218 38.5532C30.9218 38.2446 30.7992 37.9487 30.581 37.7305C30.3629 37.5123 30.067 37.3898 29.7584 37.3898C29.4498 37.3898 29.1539 37.5123 28.9358 37.7305C28.7176 37.9487 28.595 38.2446 28.595 38.5532Z" stroke="#F04438" stroke-linecap="round" stroke-linejoin="round"/>
<path d="M32.3144 37.9124C32.3144 38.221 32.437 38.5169 32.6552 38.7351C32.8733 38.9533 33.1692 39.0758 33.4778 39.0758C33.7864 39.0758 34.0823 38.9533 34.3004 38.7351C34.5186 38.5169 34.6412 38.221 34.6412 37.9124C34.6412 37.6039 34.5186 37.308 34.3004 37.0898C34.0823 36.8716 33.7864 36.749 33.4778 36.749C33.1692 36.749 32.8733 36.8716 32.6552 37.0898C32.437 37.308 32.3144 37.6039 32.3144 37.9124Z" stroke="#F04438" stroke-linecap="round" stroke-linejoin="round"/>
<path d="M55.8968 54.6992L57.9116 66.3956C57.9619 66.6927 57.8926 66.9976 57.7188 67.2437C57.545 67.4898 57.2808 67.6571 56.984 67.709L30.08 72.3428C29.9334 72.3679 29.7833 72.3637 29.6383 72.3305C29.4933 72.2973 29.3563 72.2357 29.2352 72.1493C29.1141 72.0629 29.0114 71.9534 28.9328 71.8271C28.8542 71.7008 28.8014 71.5602 28.7774 71.4134L23.0174 37.955C22.9671 37.658 23.0364 37.353 23.2102 37.1069C23.384 36.8608 23.6482 36.6935 23.945 36.6416L35.7458 34.6088" stroke="#F04438" stroke-linecap="round" stroke-linejoin="round"/>
<path d="M62.6888 43.9928L66.6254 45.5636L65.0834 49.4288L61.1108 47.8436" stroke="#F04438" stroke-linecap="round" stroke-linejoin="round"/>
<path d="M75.2534 48.26C75.5931 48.3939 75.9031 48.5935 76.1655 48.8475C76.4279 49.1015 76.6375 49.4048 76.7824 49.74C76.9272 50.0752 77.0045 50.4357 77.0097 50.8008C77.0148 51.1659 76.9479 51.5285 76.8126 51.8677C76.6773 52.2068 76.4763 52.5159 76.2212 52.7773C75.9662 53.0386 75.662 53.2469 75.3262 53.3904C74.9904 53.5338 74.6296 53.6096 74.2644 53.6132C73.8993 53.6169 73.537 53.5483 73.1984 53.4116L65.471 50.3282C65.3006 50.2599 65.1642 50.1268 65.0917 49.9581C65.0191 49.7895 65.0164 49.5989 65.084 49.4282L66.6254 45.5648C66.6936 45.3943 66.8267 45.2578 66.9954 45.1853C67.1641 45.1127 67.3547 45.11 67.5254 45.1778L75.2534 48.26Z" stroke="#F04438" stroke-linecap="round" stroke-linejoin="round"/>
<path d="M55.1084 34.406L42.1892 36.6314" stroke="#F04438" stroke-linecap="round" stroke-linejoin="round"/>
<path d="M57.1244 46.1198L54.9452 33.4658" stroke="#F04438" stroke-linecap="round" stroke-linejoin="round"/>
<path d="M44.3438 47.6066L52.7312 46.16C52.9486 46.1224 53.1422 46.0004 53.2699 45.8205C53.3976 45.6407 53.449 45.4176 53.4128 45.2L52.3682 39.1316C52.3304 38.9133 52.2075 38.719 52.0264 38.5913C51.8454 38.4636 51.6211 38.413 51.4028 38.4506L41.0912 40.2266" stroke="#F04438" stroke-linecap="round" stroke-linejoin="round"/>
<path d="M39.4412 42.7004C39.9123 45.4302 41.4486 47.8612 43.712 49.4584C44.8327 50.2492 46.0983 50.8116 47.4363 51.1133C48.7744 51.4151 50.1588 51.4503 51.5105 51.2171C52.8622 50.9838 54.1547 50.4866 55.3142 49.7538C56.4738 49.021 57.4776 48.067 58.2685 46.9463C59.0593 45.8256 59.6217 44.56 59.9234 43.2219C60.2252 41.8839 60.2605 40.4995 60.0272 39.1478C59.5561 36.4179 58.0198 33.987 55.7564 32.3898C53.493 30.7926 50.6878 30.16 47.9579 30.6311C45.228 31.1022 42.7971 32.6384 41.1999 34.9019C39.6027 37.1653 38.9701 39.9705 39.4412 42.7004Z" stroke="#F04438" stroke-linecap="round" stroke-linejoin="round"/>
<path d="M36.4424 40.9436C36.4424 42.6901 36.7864 44.4195 37.4548 46.0331C38.1231 47.6467 39.1028 49.1128 40.3378 50.3478C41.5727 51.5828 43.0389 52.5624 44.6525 53.2308C46.266 53.8992 47.9955 54.2432 49.742 54.2432C51.4885 54.2432 53.218 53.8992 54.8315 53.2308C56.4451 52.5624 57.9113 51.5828 59.1462 50.3478C60.3812 49.1128 61.3609 47.6467 62.0292 46.0331C62.6976 44.4195 63.0416 42.6901 63.0416 40.9436C63.0416 39.1971 62.6976 37.4676 62.0292 35.854C61.3609 34.2405 60.3812 32.7743 59.1462 31.5393C57.9113 30.3044 56.4451 29.3247 54.8315 28.6564C53.218 27.988 51.4885 27.644 49.742 27.644C47.9955 27.644 46.266 27.988 44.6525 28.6564C43.0389 29.3247 41.5727 30.3044 40.3378 31.5393C39.1028 32.7743 38.1231 34.2405 37.4548 35.854C36.7864 37.4676 36.4424 39.1971 36.4424 40.9436Z" stroke="#F04438" stroke-linecap="round" stroke-linejoin="round"/>
</svg>
