<svg width="100" height="100" viewBox="0 0 100 100" fill="none" xmlns="http://www.w3.org/2000/svg">
<circle cx="50" cy="50" r="46" stroke="#F04438" stroke-width="8"/>
<path d="M50.2921 61.8575V68.2344C50.2921 68.4691 50.2459 68.7016 50.156 68.9184C50.0661 69.1352 49.9344 69.3321 49.7682 69.4979C49.6021 69.6637 49.4049 69.795 49.1879 69.8845C48.971 69.9739 48.7385 70.0197 48.5038 70.0191H24.8528C24.6184 70.0193 24.3862 69.9733 24.1696 69.8836C23.9529 69.794 23.7561 69.6626 23.5903 69.4968C23.4245 69.3311 23.293 69.1343 23.2033 68.9177C23.1136 68.7011 23.0674 68.4689 23.0675 68.2344V35.9604C23.0688 35.4874 23.2573 35.0341 23.5918 34.6997C23.9264 34.3652 24.3798 34.1769 24.8528 34.1757H29.7605V37.5668C29.7618 37.8031 29.8562 38.0294 30.0232 38.1966C30.1903 38.3638 30.4165 38.4583 30.6529 38.4597H42.7031C42.9395 38.4585 43.1659 38.364 43.3331 38.1968C43.5003 38.0296 43.5948 37.8032 43.5961 37.5668V34.1756H48.5038C48.9768 34.1767 49.4302 34.3651 49.7647 34.6995C50.0993 35.034 50.2878 35.4873 50.2891 35.9603V41.2529" stroke="#F04438" stroke-linecap="round" stroke-linejoin="round"/>
<path d="M50.2897 47.5546V49.0006L48.9868 48.4021C49.4021 48.0915 49.8374 47.8084 50.2897 47.5546Z" stroke="#F04438" stroke-linecap="round" stroke-linejoin="round"/>
<path d="M40.4719 36.6744H32.8853" stroke="#F04438" stroke-linecap="round" stroke-linejoin="round"/>
<path d="M47.612 51.9457C47.4325 51.8116 47.2463 51.6692 47.05 51.5267C46.9497 51.4552 46.8515 51.3808 46.7555 51.3035C46.6657 51.2617 46.5796 51.2137 46.4963 51.161L46.3892 51.0802C46.3207 51.0309 46.2578 50.9741 46.2019 50.9108C45.7385 51.4018 45.2949 51.9109 44.872 52.4371C44.5731 52.8008 44.1428 53.032 43.6745 53.0803C43.2062 53.1286 42.7378 52.9902 42.3709 52.6951C42.0041 52.4 41.7686 51.9721 41.7154 51.5043C41.6623 51.0365 41.7959 50.5667 42.0872 50.1968C43.6412 48.198 45.5067 46.4621 47.612 45.0557" stroke="#F04438" stroke-linecap="round" stroke-linejoin="round"/>
<path d="M43.596 36.6744H46.7202C46.9565 36.6759 47.1826 36.7703 47.3497 36.9374C47.5167 37.1044 47.6112 37.3306 47.6126 37.5668V42.4589" stroke="#F04438" stroke-linecap="round" stroke-linejoin="round"/>
<path d="M47.612 59.889V64.7889C47.6104 65.0251 47.5159 65.2511 47.3489 65.418C47.1818 65.5849 46.9558 65.6793 46.7196 65.6807H26.6375C26.4014 65.6793 26.1753 65.5849 26.0083 65.418C25.8413 65.2511 25.7467 65.0251 25.7451 64.7889V37.5668C25.7466 37.3306 25.841 37.1044 26.0081 36.9374C26.1751 36.7703 26.4013 36.6759 26.6375 36.6744H29.7617" stroke="#F04438" stroke-linecap="round" stroke-linejoin="round"/>
<path d="M45.9901 55.4464V55.4553L46.3025 55.8923C46.4414 56.0847 46.6508 56.2144 46.8849 56.2529C47.1191 56.2913 47.359 56.2355 47.5522 56.0976L47.612 56.0534" stroke="#F04438" stroke-linecap="round" stroke-linejoin="round"/>
<path d="M28.8628 43.8145H42.4978" stroke="#F04438" stroke-linecap="round" stroke-linejoin="round"/>
<path d="M41.168 47.831H28.8597" stroke="#F04438" stroke-linecap="round" stroke-linejoin="round"/>
<path d="M28.8628 52.2941H38.3657" stroke="#F04438" stroke-linecap="round" stroke-linejoin="round"/>
<path d="M29.7617 35.657V33.5508C29.7629 33.3145 29.8573 33.0882 30.0244 32.921C30.1915 32.7539 30.4177 32.6593 30.654 32.6579H34.7148" stroke="#F04438" stroke-linecap="round" stroke-linejoin="round"/>
<path d="M39.0881 32.6579H42.7031C42.9395 32.6592 43.1659 32.7536 43.3331 32.9208C43.5003 33.088 43.5948 33.3144 43.5961 33.5508V35.657" stroke="#F04438" stroke-linecap="round" stroke-linejoin="round"/>
<path d="M36.9019 34.4432C37.1964 34.4456 37.4885 34.3897 37.7613 34.2786C38.0341 34.1676 38.2823 34.0036 38.4914 33.7962C38.7005 33.5888 38.8665 33.342 38.9798 33.0701C39.0931 32.7982 39.1514 32.5066 39.1514 32.212C39.1514 31.9175 39.0931 31.6258 38.9798 31.3539C38.8665 31.082 38.7005 30.8353 38.4914 30.6278C38.2823 30.4204 38.0341 30.2565 37.7613 30.1454C37.4885 30.0344 37.1964 29.9784 36.9019 29.9808C36.3133 29.9857 35.7505 30.2229 35.336 30.6408C34.9215 31.0587 34.6889 31.6234 34.6889 32.212C34.6889 32.8006 34.9215 33.3654 35.336 33.7833C35.7505 34.2012 36.3133 34.4384 36.9019 34.4432Z" stroke="#F04438" stroke-linecap="round" stroke-linejoin="round"/>
<path d="M30.2255 56.9348C29.9954 57.1652 29.8256 57.4488 29.7311 57.7605C29.6367 58.0722 29.6206 58.4023 29.6842 58.7217C29.7478 59.0411 29.8892 59.3399 30.0958 59.5916C30.3024 59.8434 30.5679 60.0403 30.8687 60.165C31.1696 60.2897 31.4965 60.3382 31.8206 60.3064C32.1447 60.2746 32.456 60.1634 32.7269 59.9826C32.9977 59.8018 33.2199 59.557 33.3736 59.2699C33.5273 58.9828 33.6079 58.6622 33.6082 58.3366V58.7291C33.6152 59.1458 33.7856 59.5431 34.0828 59.8353C34.38 60.1276 34.7801 60.2913 35.1969 60.2913C35.6137 60.2913 36.0138 60.1276 36.3109 59.8353C36.6081 59.5431 36.7786 59.1458 36.7856 58.7291C36.7856 59.0548 36.8855 59.3719 37.0711 59.6395" stroke="#F04438" stroke-linecap="round" stroke-linejoin="round"/>
<path d="M50.6021 54.1679C52.0834 55.2302 53.1637 55.9634 54.0028 56.4889L53.9047 58.379C53.8856 58.7315 53.7624 59.0703 53.5506 59.3527C53.3388 59.635 53.0479 59.8481 52.7149 59.965C52.3819 60.082 52.0216 60.0974 51.6798 60.0094C51.338 59.9214 51.03 59.7339 50.7949 59.4707C50.4796 59.1182 50.3171 58.655 50.3431 58.1828L50.5573 54.2644V54.1417" stroke="#F04438" stroke-linecap="round" stroke-linejoin="round"/>
<path d="M50.6021 54.1679L50.5573 54.266L50.2897 54.7837L49.2992 56.7115C49.1395 57.0156 48.8953 57.267 48.5959 57.4355C48.2965 57.6039 47.9548 57.6822 47.612 57.6608C47.3555 57.6493 47.1051 57.5791 46.88 57.4555C46.5227 57.268 46.2419 56.962 46.0858 56.59" stroke="#F04438" stroke-linecap="round" stroke-linejoin="round"/>
<path d="M50.4328 54.0428C50.3879 54.0075 50.3347 53.9715 50.2897 53.9363C49.4218 53.3003 48.5589 52.6575 47.7011 52.0079" stroke="#F04438" stroke-linecap="round" stroke-linejoin="round"/>
<path d="M47.612 56.0514L47.5522 56.0957C47.359 56.2336 47.1191 56.2894 46.8849 56.2509C46.6508 56.2124 46.4414 56.0828 46.3025 55.8903L45.9901 55.4534" stroke="#F04438" stroke-linecap="round" stroke-linejoin="round"/>
<path d="M76.9325 57.6572L73.9274 54.6521C73.7601 54.4848 73.5332 54.3909 73.2966 54.3909C73.06 54.3909 72.8331 54.4848 72.6657 54.6521L64.1456 63.1724C63.9783 63.3398 63.8843 63.5668 63.8843 63.8035C63.8843 64.0402 63.9783 64.2672 64.1456 64.4346L67.1501 67.4391" stroke="#F04438" stroke-linecap="round" stroke-linejoin="round"/>
<path d="M72.6651 54.6503L64.142 63.1736L62.8851 61.9065C62.7812 61.8033 62.7048 61.6756 62.663 61.5351C62.6212 61.3947 62.6152 61.246 62.6457 61.1027C62.6566 61.0482 62.6716 60.9946 62.6906 60.9423C62.7354 60.8322 62.8025 60.7317 62.8869 60.6479L70.1396 53.3916C70.1672 53.3622 70.197 53.336 70.2288 53.3114C70.4017 53.18 70.6164 53.1157 70.8331 53.1304C71.0498 53.1452 71.2538 53.238 71.4072 53.3916L72.6651 54.6503Z" stroke="#F04438" stroke-linecap="round" stroke-linejoin="round"/>
<path d="M50.486 49.0897L50.2896 49.0004M50.6051 54.1679C50.6009 54.1597 50.5945 54.1529 50.5865 54.1482C50.5786 54.1435 50.5695 54.1412 50.5602 54.1415C50.5228 54.1038 50.481 54.0707 50.4357 54.0428L50.6051 54.1679ZM53.1188 50.2855L50.4854 49.0885L53.1188 50.2933C53.2809 50.3711 53.448 50.44 53.6186 50.4986C53.4494 50.4337 53.2827 50.3627 53.1188 50.2856V50.2855Z" stroke="#F04438" stroke-linecap="round" stroke-linejoin="round"/>
<path d="M59.09 42.9671L54.5916 46.1696C53.069 46.2873 51.5954 46.7613 50.2896 47.5534C49.8373 47.8073 49.4021 48.0907 48.9867 48.4015L48.2369 48.0622C48.0415 47.9676 47.8288 47.9142 47.612 47.9054C47.2537 47.881 46.8964 47.9655 46.5869 48.1478C46.2775 48.33 46.0303 48.6015 45.8779 48.9267C45.7254 49.2518 45.6748 49.6155 45.7326 49.9699C45.7905 50.3244 45.9541 50.6531 46.202 50.9129C45.7387 51.4039 45.295 51.913 44.8721 52.4392C44.5732 52.8029 44.1429 53.0341 43.6746 53.0824C43.2063 53.1307 42.7379 52.9922 42.3711 52.6971C42.0042 52.4021 41.7687 51.9741 41.7156 51.5064C41.6624 51.0386 41.796 50.5687 42.0873 50.1989C43.6415 48.2002 45.5069 46.4643 47.6121 45.0578C48.4585 44.5024 49.355 44.0273 50.2898 43.6388C52.487 42.7054 54.8894 42.3607 57.2604 42.6385C57.8769 42.7072 58.4881 42.817 59.09 42.9671Z" stroke="#F04438" stroke-linecap="round" stroke-linejoin="round"/>
<path d="M50.6021 54.1679C52.0833 55.2302 53.1636 55.9634 54.0027 56.4888C54.9018 57.0743 55.8626 57.559 56.8677 57.9342C59.5095 58.9697 60.6783 59.4609 62.6241 61.2188C62.6258 61.1797 62.6318 61.141 62.6421 61.1033C62.6529 61.0482 62.6679 60.995 62.687 60.9423C62.7318 60.8322 62.7989 60.7317 62.8833 60.6479L70.1396 53.3916C70.1672 53.3628 70.197 53.336 70.2288 53.3114C67.9617 51.3477 67.2926 47.3312 63.4191 44.8235L58.3851 48.3935C58.3805 48.7333 58.2783 49.0647 58.0907 49.3481C57.7382 49.8107 57.2787 50.1807 56.7516 50.4264C56.2245 50.6721 55.6456 50.7862 55.0647 50.7587C54.9156 50.7587 54.7667 50.7491 54.6188 50.7317C54.2779 50.6916 53.9424 50.6137 53.6187 50.4995C53.4482 50.4409 53.2813 50.3724 53.1189 50.2941L50.4855 49.0893" stroke="#F04438" stroke-linecap="round" stroke-linejoin="round"/>
<path d="M50.4327 54.0428C50.3879 54.0076 50.3347 53.9716 50.2897 53.9363C49.4218 53.3003 48.5589 52.6575 47.7011 52.0079C47.6677 51.994 47.6374 51.9737 47.6118 51.9481C47.4323 51.814 47.2462 51.6716 47.0498 51.5291C46.9495 51.4576 46.8513 51.3831 46.7554 51.3059C46.6655 51.2641 46.5794 51.2161 46.4962 51.1634L46.3891 51.0826C46.3205 51.0332 46.2577 50.9764 46.2017 50.9132C45.9543 50.6532 45.7911 50.3245 45.7335 49.9701C45.6759 49.6158 45.7267 49.2524 45.879 48.9273C46.0314 48.6023 46.2784 48.3309 46.5876 48.1485C46.8968 47.9661 47.2538 47.8814 47.612 47.9053C47.8291 47.9155 48.0418 47.9703 48.2369 48.0662L48.9867 48.4055L50.2897 49.004" stroke="#F04438" stroke-linecap="round" stroke-linejoin="round"/>
<path d="M72.6651 54.6503L64.142 63.1736L62.8851 61.9065C62.7812 61.8033 62.7048 61.6756 62.663 61.5351C62.6212 61.3947 62.6152 61.246 62.6457 61.1027C62.6566 61.0482 62.6716 60.9946 62.6906 60.9423C62.7354 60.8322 62.8025 60.7317 62.8869 60.6479L70.1396 53.3916C70.1672 53.3622 70.197 53.336 70.2288 53.3114C70.4017 53.18 70.6164 53.1157 70.8331 53.1304C71.0498 53.1452 71.2538 53.238 71.4072 53.3916L72.6651 54.6503Z" stroke="#F04438" stroke-linecap="round" stroke-linejoin="round"/>
<path d="M64.4897 43.0292C64.4895 43.3494 64.4124 43.6649 64.2649 43.9491C64.1174 44.2333 63.9039 44.478 63.6422 44.6625L63.419 44.8235L58.385 48.3935L56.5464 49.7054L54.2255 46.4298L54.5918 46.1706L59.0901 42.9669L61.3124 41.3868C61.6142 41.1755 61.968 41.0508 62.3356 41.0262C62.7032 41.0016 63.0705 41.078 63.3978 41.2471C63.725 41.4163 63.9998 41.6718 64.1923 41.9859C64.3848 42.3 64.4877 42.6608 64.4898 43.0292H64.4897Z" stroke="#F04438" stroke-linecap="round" stroke-linejoin="round"/>
<path d="M54.5378 44.5639L59.6311 40.9453C59.7731 40.8399 59.935 40.7643 60.1069 40.7231C60.2789 40.6818 60.4574 40.6758 60.6318 40.7053C60.8062 40.7348 60.9728 40.7993 61.1216 40.8948C61.2704 40.9904 61.3984 41.115 61.4978 41.2613" stroke="#F04438" stroke-linecap="round" stroke-linejoin="round"/>
<path d="M43.8637 57.0779L43.1317 57.5956C43.1675 58.64 41.0165 58.9075 39.5167 58.9721C39.4216 58.9751 39.3281 58.9474 39.25 58.893C39.172 58.8386 39.1136 58.7604 39.0835 58.6702C39.0535 58.58 39.0533 58.4824 39.0832 58.3921C39.113 58.3017 39.1712 58.2235 39.2491 58.1689L42.8281 55.6253L43.8635 57.0779H43.8637Z" stroke="#F04438" stroke-linecap="round" stroke-linejoin="round"/>
<path d="M46.5587 56.2567L46.0859 56.587L44.7381 57.541C44.6434 57.6094 44.5254 57.6376 44.4099 57.6192C44.2945 57.6008 44.191 57.5374 44.1222 57.4429L43.8636 57.0772L42.8282 55.6258C42.7935 55.578 42.7687 55.5237 42.7553 55.4662C42.7419 55.4086 42.7401 55.349 42.7501 55.2908C42.7601 55.2325 42.7816 55.1769 42.8134 55.1271C42.8452 55.0773 42.8866 55.0344 42.9353 55.0009L44.747 53.707L44.9265 53.9464C44.9469 53.987 44.9708 54.026 44.9984 54.0625C45.0008 54.0625 45.0031 54.0634 45.0048 54.0651C45.0064 54.0668 45.0074 54.0691 45.0074 54.0715L45.989 55.448V55.457L46.3014 55.894L46.5588 56.2567H46.5587Z" stroke="#F04438" stroke-linecap="round" stroke-linejoin="round"/>
<path d="M47.612 56.0514L50.2897 54.15L50.4328 54.0429C50.3879 54.0077 50.3347 53.9717 50.2897 53.9364C49.4218 53.3004 48.5589 52.6576 47.7011 52.008C47.6677 51.9941 47.6374 51.9738 47.6119 51.9482C47.4323 51.8141 47.2462 51.6717 47.0498 51.5292L45.2203 52.8321C45.0456 52.9519 44.9197 53.1304 44.8656 53.3351C44.8114 53.5399 44.8326 53.7572 44.9252 53.9477C44.9456 53.9883 44.9695 54.0273 44.9971 54.0638C44.9994 54.0638 45.0017 54.0647 45.0034 54.0664C45.0051 54.0681 45.0061 54.0704 45.0061 54.0728L45.9877 55.4493" stroke="#F04438" stroke-linecap="round" stroke-linejoin="round"/>
<path d="M56.5465 49.7055L55.0646 50.7588C54.9155 50.7588 54.7666 50.7492 54.6187 50.7318C54.2777 50.6918 53.9423 50.6139 53.6186 50.4996C53.4481 50.4411 53.2812 50.3725 53.1188 50.2943L50.4854 49.0895L54.2249 46.4297L56.5465 49.7052V49.7055Z" stroke="#F04438" stroke-linecap="round" stroke-linejoin="round"/>
<path d="M50.486 49.0897L50.2896 49.0004" stroke="#F04438" stroke-linecap="round" stroke-linejoin="round"/>
<path d="M50.6021 54.1679C50.5978 54.1597 50.5914 54.1529 50.5835 54.1482C50.5755 54.1436 50.5664 54.1412 50.5572 54.1415C50.5198 54.1038 50.478 54.0706 50.4327 54.0428" stroke="#F04438" stroke-linecap="round" stroke-linejoin="round"/>
<path d="M50.486 49.0897L50.2896 49.0004" stroke="#F04438" stroke-linecap="round" stroke-linejoin="round"/>
<path d="M50.6021 54.1679C50.5978 54.1597 50.5914 54.1529 50.5835 54.1482C50.5755 54.1436 50.5664 54.1412 50.5572 54.1415C50.5198 54.1038 50.478 54.0706 50.4327 54.0428" stroke="#F04438" stroke-linecap="round" stroke-linejoin="round"/>
</svg>
