<svg width="100" height="100" viewBox="0 0 100 100" fill="none" xmlns="http://www.w3.org/2000/svg">
<circle cx="50" cy="50" r="46" stroke="#F04438" stroke-width="8"/>
<path d="M51.38 63.0482H28.5062C28.1771 63.0482 27.8512 62.9834 27.5471 62.8574C27.2431 62.7315 26.9668 62.5469 26.734 62.3142C26.5013 62.0814 26.3167 61.8052 26.1908 61.5011C26.0648 61.197 26 60.8711 26 60.542V33.602C26 32.9373 26.264 32.2997 26.734 31.8297C27.204 31.3596 27.8415 31.0954 28.5062 31.0952H62.3408C63.0055 31.0954 63.643 31.3596 64.113 31.8297C64.583 32.2997 64.847 32.9373 64.847 33.602V45.6158" stroke="#F04438" stroke-linecap="round" stroke-linejoin="round"/>
<path d="M28.5062 34.8524C28.5062 35.1848 28.6382 35.5036 28.8733 35.7387C29.1084 35.9737 29.4272 36.1058 29.7596 36.1058C30.092 36.1058 30.4108 35.9737 30.6459 35.7387C30.8809 35.5036 31.013 35.1848 31.013 34.8524C31.013 34.52 30.8809 34.2012 30.6459 33.9661C30.4108 33.7311 30.092 33.599 29.7596 33.599C29.4272 33.599 29.1084 33.7311 28.8733 33.9661C28.6382 34.2012 28.5062 34.52 28.5062 34.8524Z" stroke="#F04438" stroke-linecap="round" stroke-linejoin="round"/>
<path d="M33.5186 34.8524C33.5186 35.1848 33.6507 35.5036 33.8857 35.7387C34.1208 35.9737 34.4396 36.1058 34.772 36.1058C35.1044 36.1058 35.4232 35.9737 35.6583 35.7387C35.8934 35.5036 36.0254 35.1848 36.0254 34.8524C36.0254 34.52 35.8934 34.2012 35.6583 33.9661C35.4232 33.7311 35.1044 33.599 34.772 33.599C34.4396 33.599 34.1208 33.7311 33.8857 33.9661C33.6507 34.2012 33.5186 34.52 33.5186 34.8524Z" stroke="#F04438" stroke-linecap="round" stroke-linejoin="round"/>
<path d="M38.531 34.8524C38.531 35.017 38.5634 35.18 38.6264 35.3321C38.6894 35.4841 38.7817 35.6223 38.8981 35.7387C39.0145 35.8551 39.1527 35.9474 39.3048 36.0104C39.4568 36.0734 39.6198 36.1058 39.7844 36.1058C39.949 36.1058 40.112 36.0734 40.2641 36.0104C40.4161 35.9474 40.5543 35.8551 40.6707 35.7387C40.7871 35.6223 40.8794 35.4841 40.9424 35.3321C41.0054 35.18 41.0378 35.017 41.0378 34.8524C41.0378 34.6878 41.0054 34.5248 40.9424 34.3727C40.8794 34.2207 40.7871 34.0825 40.6707 33.9661C40.5543 33.8497 40.4161 33.7574 40.2641 33.6944C40.112 33.6314 39.949 33.599 39.7844 33.599C39.6198 33.599 39.4568 33.6314 39.3048 33.6944C39.1527 33.7574 39.0145 33.8497 38.8981 33.9661C38.7817 34.0825 38.6894 34.2207 38.6264 34.3727C38.5634 34.5248 38.531 34.6878 38.531 34.8524Z" stroke="#F04438" stroke-linecap="round" stroke-linejoin="round"/>
<path d="M30.8024 41.2424H43.328V58.3226H30.8024V41.2424Z" stroke="#F04438" stroke-linecap="round" stroke-linejoin="round"/>
<path d="M33.6494 48.074C33.6494 48.5226 33.7378 48.9667 33.9094 49.3812C34.0811 49.7956 34.3327 50.1722 34.6499 50.4893C34.9671 50.8065 35.3436 51.0581 35.758 51.2298C36.1725 51.4015 36.6166 51.4898 37.0652 51.4898C37.5138 51.4898 37.958 51.4015 38.3724 51.2298C38.7868 51.0581 39.1634 50.8065 39.4805 50.4893C39.7977 50.1722 40.0493 49.7956 40.221 49.3812C40.3927 48.9667 40.481 48.5226 40.481 48.074C40.481 47.6254 40.3927 47.1813 40.221 46.7668C40.0493 46.3524 39.7977 45.9759 39.4805 45.6587C39.1634 45.3415 38.7868 45.0899 38.3724 44.9182C37.958 44.7466 37.5138 44.6582 37.0652 44.6582C36.6166 44.6582 36.1725 44.7466 35.758 44.9182C35.3436 45.0899 34.9671 45.3415 34.6499 45.6587C34.3327 45.9759 34.0811 46.3524 33.9094 46.7668C33.7378 47.1813 33.6494 47.6254 33.6494 48.074Z" stroke="#F04438" stroke-linecap="round" stroke-linejoin="round"/>
<path d="M47.0408 43.4702H53.642" stroke="#F04438" stroke-linecap="round" stroke-linejoin="round"/>
<path d="M47.0408 51.7214H52.5464" stroke="#F04438" stroke-linecap="round" stroke-linejoin="round"/>
<path d="M47.0408 47.5958H56.1176" stroke="#F04438" stroke-linecap="round" stroke-linejoin="round"/>
<path d="M47.0408 55.847H50.897" stroke="#F04438" stroke-linecap="round" stroke-linejoin="round"/>
<path d="M30.8 57.4496C30.8802 55.8426 31.5751 54.328 32.7408 53.2191C33.9065 52.1101 35.4538 51.4916 37.0628 51.4916C38.6717 51.4916 40.2191 52.1101 41.3848 53.2191C42.5505 54.328 43.2454 55.8426 43.3256 57.4496V57.5288C43.3256 57.7393 43.242 57.9412 43.0931 58.0901C42.9442 58.2389 42.7423 58.3226 42.5318 58.3226H31.5956C31.4912 58.3229 31.3877 58.3026 31.2912 58.2628C31.1946 58.2231 31.1069 58.1646 31.0329 58.0909C30.959 58.0171 30.9004 57.9295 30.8604 57.8331C30.8204 57.7366 30.7999 57.6332 30.8 57.5288V57.4496Z" stroke="#F04438" stroke-linecap="round" stroke-linejoin="round"/>
<path d="M52.5464 58.1804C52.5464 59.5891 52.8238 60.9839 53.3629 62.2854C53.902 63.5868 54.6921 64.7693 55.6882 65.7654C56.6843 66.7615 57.8668 67.5516 59.1682 68.0907C60.4697 68.6298 61.8645 68.9072 63.2732 68.9072C64.6819 68.9072 66.0767 68.6298 67.3782 68.0907C68.6796 67.5516 69.8621 66.7615 70.8582 65.7654C71.8543 64.7693 72.6444 63.5868 73.1835 62.2854C73.7225 60.9839 74 59.5891 74 58.1804C74 56.7717 73.7225 55.3769 73.1835 54.0754C72.6444 52.774 71.8543 51.5915 70.8582 50.5954C69.8621 49.5993 68.6796 48.8092 67.3782 48.2701C66.0767 47.7311 64.6819 47.4536 63.2732 47.4536C61.8645 47.4536 60.4697 47.7311 59.1682 48.2701C57.8668 48.8092 56.6843 49.5993 55.6882 50.5954C54.6921 51.5915 53.902 52.774 53.3629 54.0754C52.8238 55.3769 52.5464 56.7717 52.5464 58.1804Z" stroke="#F04438" stroke-linecap="round" stroke-linejoin="round"/>
<path d="M61.1036 63.4736C60.8984 63.4738 60.6953 63.4335 60.5058 63.355C60.3162 63.2765 60.144 63.1615 59.999 63.0164L56.8754 59.8922C56.5825 59.5993 56.418 59.2021 56.418 58.7879C56.418 58.3737 56.5825 57.9765 56.8754 57.6836C57.1683 57.3907 57.5655 57.2262 57.9797 57.2262C58.3939 57.2262 58.7911 57.3907 59.084 57.6836L61.1036 59.7032L67.4636 53.3432C67.7565 53.0503 68.1538 52.8858 68.5681 52.8859C68.9823 52.8859 69.3796 53.0505 69.6725 53.3435C69.9654 53.6364 70.1299 54.0338 70.1298 54.448C70.1298 54.8623 69.9651 55.2595 69.6722 55.5524L62.2076 63.0164C62.0628 63.1616 61.8907 63.2767 61.7012 63.3552C61.5118 63.4336 61.3086 63.4739 61.1036 63.4736Z" stroke="#F04438" stroke-linecap="round" stroke-linejoin="round"/>
<path d="M26 38.612H64.847" stroke="#F04438" stroke-linecap="round" stroke-linejoin="round"/>
</svg>
