<svg width="24" height="24" viewBox="0 0 24 24" fill="none" xmlns="http://www.w3.org/2000/svg">
<rect y="0.000976562" width="24" height="24" rx="12" fill="#F79009"/>
<g clip-path="url(#clip0_6183_13533)">
<path d="M11.9599 5.33423C12.2807 5.33445 12.5967 5.41208 12.881 5.56052C13.1654 5.70896 13.4097 5.92384 13.5933 6.1869L13.6653 6.29623L19.2859 15.6789C19.4543 15.9709 19.5459 16.3009 19.5521 16.6379C19.5583 16.9749 19.4789 17.308 19.3213 17.606C19.1637 17.904 18.9331 18.1571 18.6511 18.3417C18.369 18.5264 18.0447 18.6364 17.7086 18.6616L17.5753 18.6676H6.33792C6.00138 18.6635 5.67134 18.5744 5.37856 18.4084C5.08578 18.2424 4.83981 18.0049 4.66356 17.7182C4.48732 17.4315 4.38654 17.1048 4.37064 16.7686C4.35473 16.4324 4.4242 16.0977 4.57259 15.7956L4.63992 15.6696L10.2566 6.2929C10.4342 6.00024 10.6843 5.75829 10.9826 5.59037C11.281 5.42246 11.6176 5.33424 11.9599 5.33423ZM12.0066 14.6676L11.9219 14.6722C11.7599 14.6915 11.6106 14.7695 11.5022 14.8915C11.3938 15.0135 11.334 15.1711 11.334 15.3342C11.334 15.4974 11.3938 15.6549 11.5022 15.7769C11.6106 15.8989 11.7599 15.977 11.9219 15.9962L11.9999 16.0009L12.0846 15.9962C12.2466 15.977 12.396 15.8989 12.5043 15.7769C12.6127 15.6549 12.6725 15.4974 12.6725 15.3342C12.6725 15.1711 12.6127 15.0135 12.5043 14.8915C12.396 14.7695 12.2466 14.6915 12.0846 14.6722L12.0066 14.6676ZM11.9999 9.33423C11.8366 9.33425 11.679 9.3942 11.557 9.50271C11.435 9.61121 11.357 9.76073 11.3379 9.9229L11.3333 10.0009V12.6676L11.3379 12.7456C11.3572 12.9076 11.4352 13.0569 11.5572 13.1653C11.6792 13.2736 11.8367 13.3335 11.9999 13.3335C12.1631 13.3335 12.3206 13.2736 12.4426 13.1653C12.5646 13.0569 12.6426 12.9076 12.6619 12.7456L12.6666 12.6676V10.0009L12.6619 9.9229C12.6428 9.76073 12.5649 9.61121 12.4428 9.50271C12.3208 9.3942 12.1632 9.33425 11.9999 9.33423Z" fill="white"/>
</g>
<defs>
<clipPath id="clip0_6183_13533">
<rect width="16" height="16" fill="white" transform="translate(4 4.00098)"/>
</clipPath>
</defs>
</svg>
