<svg width="92" height="92" viewBox="0 0 92 92" fill="none" xmlns="http://www.w3.org/2000/svg">
<rect width="92" height="92" fill="#EBEBEB"/>
<path d="M52.9652 37H39.0359C37.9131 37 37 37.9737 37 39.1729V52.8296C37 54.0273 37.9131 55 39.0359 55H52.9652C54.088 55 55.0001 54.0273 55.0001 52.8296V39.1729C55.0001 37.9737 54.088 37 52.9652 37ZM48.6398 40.2315C49.7256 40.2315 50.6062 41.1709 50.6062 42.3291C50.6062 43.4874 49.7255 44.4268 48.6398 44.4268C47.5537 44.4268 46.6734 43.4874 46.6734 42.3291C46.6734 41.1709 47.5537 40.2315 48.6398 40.2315ZM52.3268 52.9925H45.9999H39.9549C39.4118 52.9925 39.1699 52.5733 39.4147 52.0562L42.7894 44.9257C43.0339 44.4087 43.4999 44.3625 43.83 44.8226L47.2233 49.5532C47.5533 50.0133 48.1302 50.0525 48.5119 49.6403L49.3421 48.7435C49.7236 48.3313 50.2856 48.3823 50.597 48.8568L52.7466 52.1323C53.0573 52.6075 52.8699 52.9925 52.3268 52.9925Z" fill="#ADADAD"/>
</svg>
