<svg width="216" height="73" viewBox="0 0 216 73" fill="none" xmlns="http://www.w3.org/2000/svg">
<path d="M214.892 64.8104C215.063 64.5939 215.027 64.2795 214.81 64.108L211.283 61.3143C211.066 61.1429 210.752 61.1794 210.58 61.3959C210.409 61.6124 210.445 61.9269 210.662 62.0983L213.798 64.5816L211.314 67.7174C211.143 67.9339 211.179 68.2483 211.396 68.4198C211.612 68.5912 211.927 68.5547 212.098 68.3382L214.892 64.8104ZM1.19109 1.39316C1.93476 1.97747 2.70085 2.62506 3.49446 3.33073L4.15895 2.58344C3.35395 1.86763 2.57205 1.20645 1.80891 0.606841L1.19109 1.39316ZM7.91514 7.51533C9.27548 8.856 10.7115 10.3002 12.2442 11.8319L12.9511 11.1246C11.4216 9.59608 9.98072 8.14702 8.61707 6.80309L7.91514 7.51533ZM16.5853 16.1216C17.9933 17.4909 19.4745 18.9046 21.0378 20.3509L21.7169 19.6168C20.1609 18.1773 18.6858 16.7694 17.2824 15.4047L16.5853 16.1216ZM25.5973 24.4419C27.0902 25.7388 28.651 27.052 30.2855 28.3738L30.9143 27.5963C29.2896 26.2823 27.7378 24.9767 26.253 23.687L25.5973 24.4419ZM35.1239 32.1397C36.7196 33.3339 38.379 34.5292 40.1064 35.7202L40.674 34.8969C38.9577 33.7135 37.3088 32.5258 35.7231 31.3391L35.1239 32.1397ZM45.2246 39.1028C46.9125 40.1713 48.6596 41.2319 50.4691 42.2805L50.9705 41.4153C49.1725 40.3733 47.4365 39.3195 45.7594 38.2579L45.2246 39.1028ZM55.8302 45.2502C57.5975 46.1852 59.4195 47.1069 61.2986 48.0121L61.7326 47.1112C59.8649 46.2115 58.0541 45.2955 56.2978 44.3663L55.8302 45.2502ZM66.8665 50.569C68.7024 51.3719 70.5889 52.1583 72.5277 52.9256L72.8957 51.9958C70.9678 51.2328 69.0923 50.451 67.2672 49.6528L66.8665 50.569ZM78.2785 55.088C80.1733 55.764 82.1148 56.4216 84.1046 57.0588L84.4096 56.1064C82.4302 55.4726 80.499 54.8185 78.6145 54.1461L78.2785 55.088ZM89.9375 58.8266C91.8631 59.378 93.8311 59.9103 95.8426 60.422L96.0892 59.4529C94.0872 58.9436 92.1288 58.4139 90.2128 57.8653L89.9375 58.8266ZM101.825 61.8529C103.784 62.292 105.781 62.712 107.818 63.1114L108.011 62.1301C105.982 61.7324 103.994 61.3143 102.044 60.8771L101.825 61.8529ZM113.818 64.2075C115.809 64.5453 117.837 64.8638 119.901 65.1621L120.044 64.1723C117.988 63.8752 115.968 63.558 113.985 63.2216L113.818 64.2075ZM125.952 65.9641C127.944 66.205 129.97 66.4274 132.029 66.6305L132.128 65.6353C130.076 65.433 128.057 65.2113 126.072 64.9713L125.952 65.9641ZM138.169 67.1699C140.159 67.3237 142.178 67.4598 144.229 67.5775L144.286 66.5792C142.242 66.4618 140.229 66.3261 138.246 66.1728L138.169 67.1699ZM150.407 67.8724C152.397 67.9484 154.415 68.0075 156.461 68.049L156.482 67.0492C154.441 67.0078 152.43 66.9489 150.445 66.8731L150.407 67.8724ZM162.635 68.1201C164.631 68.1259 166.653 68.1154 168.702 68.088L168.688 67.088C166.645 67.1154 164.629 67.1259 162.638 67.1201L162.635 68.1201ZM174.876 67.9562C176.871 67.8979 178.89 67.824 180.934 67.734L180.89 66.735C178.851 66.8248 176.837 66.8985 174.847 66.9566L174.876 67.9562ZM187.121 67.4164C189.108 67.3 191.117 67.1688 193.149 67.0223L193.077 66.0249C191.05 66.1711 189.045 66.302 187.062 66.4181L187.121 67.4164ZM199.312 66.5366C201.303 66.3666 203.315 66.1822 205.348 65.9832L205.25 64.9879C203.222 65.1866 201.214 65.3706 199.227 65.5403L199.312 66.5366ZM211.456 65.3475C212.485 65.2343 213.519 65.1173 214.558 64.9967L214.442 64.0034C213.405 64.1238 212.373 64.2405 211.347 64.3536L211.456 65.3475ZM215.284 65.1208C215.627 64.6879 215.554 64.0589 215.121 63.7161L208.065 58.1287C207.632 57.7858 207.003 57.8589 206.66 58.2918C206.318 58.7248 206.391 59.3537 206.824 59.6966L213.095 64.6631L208.129 70.9348C207.786 71.3677 207.859 71.9967 208.292 72.3396C208.725 72.6824 209.354 72.6094 209.697 72.1764L215.284 65.1208ZM0.882178 1.78632C1.61611 2.36298 2.3743 3.00377 3.16221 3.70438L4.4912 2.20979C3.6805 1.48892 2.8907 0.820941 2.11782 0.213682L0.882178 1.78632ZM7.56417 7.87145C8.92286 9.21049 10.3565 10.6523 11.8908 12.1856L13.3045 10.7709C11.7766 9.24401 10.3333 7.79252 8.96804 6.44697L7.56417 7.87145ZM16.2367 16.4801C17.647 17.8516 19.1313 19.2682 20.6982 20.7179L22.0564 19.2498C20.5041 17.8136 19.0321 16.4087 17.631 15.0463L16.2367 16.4801ZM25.2694 24.8194C26.7664 26.1198 28.3317 27.4368 29.9711 28.7626L31.2288 27.2075C29.6089 25.8975 28.0616 24.5957 26.5809 23.3095L25.2694 24.8194ZM34.8244 32.54C36.425 33.7379 38.0897 34.937 39.8226 36.1318L40.9578 34.4852C39.247 33.3057 37.6034 32.1217 36.0227 30.9388L34.8244 32.54ZM44.9571 39.5253C46.6505 40.5972 48.4032 41.6612 50.2184 42.7131L51.2212 40.9827C49.4289 39.9441 47.6986 38.8936 46.0269 37.8354L44.9571 39.5253ZM55.5963 45.6921C57.3692 46.6301 59.1968 47.5546 61.0816 48.4626L61.9496 46.6607C60.0876 45.7638 58.2824 44.8506 56.5316 43.9243L55.5963 45.6921ZM66.6661 51.0271C68.5075 51.8324 70.3994 52.621 72.3437 53.3905L73.0797 51.5309C71.1573 50.7701 69.2873 49.9905 67.4675 49.1947L66.6661 51.0271ZM78.1105 55.5589C80.0104 56.2368 81.9572 56.8961 83.9521 57.535L84.5621 55.6303C82.5879 54.998 80.6619 54.3457 78.7825 53.6752L78.1105 55.5589ZM89.7999 59.3073C91.7302 59.86 93.703 60.3936 95.7194 60.9066L96.2125 58.9683C94.2152 58.4602 92.2616 57.9318 90.3504 57.3846L89.7999 59.3073ZM101.716 62.3407C103.679 62.7809 105.68 63.2018 107.722 63.602L108.107 61.6394C106.083 61.2426 104.099 60.8254 102.154 60.3892L101.716 62.3407ZM113.734 64.7004C115.729 65.0389 117.761 65.3581 119.83 65.6569L120.116 63.6775C118.063 63.3809 116.048 63.0643 114.068 62.7286L113.734 64.7004ZM125.892 66.4605C127.888 66.7018 129.917 66.9247 131.98 67.1281L132.177 65.1377C130.128 64.9357 128.113 64.7145 126.132 64.4749L125.892 66.4605ZM138.131 67.6684C140.124 67.8225 142.146 67.9588 144.2 68.0767L144.315 66.08C142.274 65.9628 140.264 65.8274 138.285 65.6743L138.131 67.6684ZM150.388 68.372C152.381 68.4482 154.402 68.5073 156.451 68.5489L156.492 66.5493C154.455 66.5079 152.446 66.4492 150.464 66.3735L150.388 68.372ZM162.633 68.6201C164.633 68.6259 166.657 68.6154 168.708 68.5879L168.682 66.5881C166.641 66.6154 164.627 66.6259 162.639 66.6201L162.633 68.6201ZM174.891 68.4559C176.888 68.3976 178.91 68.3236 180.956 68.2335L180.868 66.2355C178.832 66.3251 176.82 66.3988 174.833 66.4568L174.891 68.4559ZM187.15 67.9155C189.139 67.799 191.151 67.6677 193.185 67.521L193.041 65.5262C191.016 65.6722 189.013 65.803 187.033 65.9189L187.15 67.9155ZM199.355 67.0348C201.348 66.8646 203.362 66.68 205.397 66.4808L205.202 64.4903C203.175 64.6888 201.169 64.8726 199.185 65.0421L199.355 67.0348ZM211.511 65.8445C212.54 65.7312 213.575 65.6141 214.615 65.4933L214.385 63.5067C213.349 63.627 212.318 63.7436 211.292 63.8566L211.511 65.8445Z" fill="#FECDC9"/>
</svg>
