<svg width="201" height="200" viewBox="0 0 201 200" fill="none" xmlns="http://www.w3.org/2000/svg">
<path d="M37.6398 46.4201C48.8078 22.6401 88.4638 26.0001 103.764 42.7161C119.064 59.4321 124.044 70.1561 137.848 63.9161C151.652 57.6761 169.256 59.3401 170.268 79.1801C171.28 99.0201 155.1 122.48 129.432 129.424C103.764 136.368 103.764 160.928 69.7918 155.968C51.2678 153.268 50.8438 133.224 53.4598 116.648C56.0758 100.072 24.6878 74.0001 37.6398 46.4201Z" fill="#EF7B71"/>
<path opacity="0.9" d="M37.6398 46.4201C48.8078 22.6401 88.4638 26.0001 103.764 42.7161C119.064 59.4321 124.044 70.1561 137.848 63.9161C151.652 57.6761 169.256 59.3401 170.268 79.1801C171.28 99.0201 155.1 122.48 129.432 129.424C103.764 136.368 103.764 160.928 69.7918 155.968C51.2678 153.268 50.8438 133.224 53.4598 116.648C56.0758 100.072 24.6878 74.0001 37.6398 46.4201Z" fill="white"/>
<path d="M100.5 170.804C143.333 170.804 178.056 168.777 178.056 166.276C178.056 163.775 143.333 161.748 100.5 161.748C57.6673 161.748 22.9443 163.775 22.9443 166.276C22.9443 168.777 57.6673 170.804 100.5 170.804Z" fill="#F5F5F5"/>
<path d="M48.8123 150.707C48.7469 150.703 48.6856 150.674 48.6416 150.625C48.5975 150.577 48.5741 150.513 48.5763 150.447C48.8723 138.691 49.4763 119.407 49.5083 119.299C49.5295 119.235 49.5745 119.182 49.634 119.15C49.6936 119.118 49.7631 119.11 49.8283 119.127C49.8931 119.148 49.9473 119.193 49.9795 119.252C50.0116 119.312 50.0191 119.382 50.0003 119.447C50.0003 119.471 49.3803 138.823 49.0843 150.459C49.0838 150.493 49.0766 150.526 49.0632 150.557C49.0498 150.587 49.0305 150.615 49.0063 150.638C48.9821 150.661 48.9535 150.679 48.9223 150.691C48.891 150.703 48.8577 150.708 48.8243 150.707H48.8123Z" fill="#263238"/>
<path d="M47.2321 111.452C47.3321 112.356 48.4321 115.496 49.3201 115.4C50.2081 115.304 50.6121 112 50.5201 111.096C50.4729 110.661 50.2548 110.262 49.9139 109.988C49.573 109.714 49.1371 109.586 48.7021 109.634C48.2672 109.681 47.8688 109.899 47.5946 110.24C47.3204 110.581 47.1929 111.017 47.2401 111.452H47.2321Z" fill="#EF7B71"/>
<path d="M51.628 121.356C51.528 120.448 50.428 117.308 49.54 117.408C48.652 117.508 48.252 120.804 48.34 121.712C48.3872 122.147 48.6053 122.545 48.9462 122.819C49.2872 123.093 49.7231 123.221 50.158 123.174C50.593 123.126 50.9914 122.908 51.2655 122.567C51.5397 122.226 51.6672 121.791 51.62 121.356H51.628Z" fill="#EF7B71"/>
<path d="M44.4995 118.599C45.4035 118.503 48.5435 117.419 48.4435 116.511C48.3435 115.603 45.0475 115.223 44.1435 115.311C43.9281 115.335 43.7195 115.4 43.5295 115.504C43.3394 115.608 43.1717 115.749 43.036 115.917C42.9002 116.086 42.799 116.28 42.7382 116.488C42.6774 116.696 42.6581 116.914 42.6815 117.129C42.7049 117.345 42.7704 117.553 42.8745 117.743C42.9785 117.933 43.1189 118.101 43.2877 118.237C43.4565 118.372 43.6504 118.474 43.8584 118.534C44.0663 118.595 44.2841 118.615 44.4995 118.591V118.599Z" fill="#EF7B71"/>
<path d="M54.3799 114.208C53.4759 114.304 50.3359 115.408 50.4359 116.296C50.5359 117.184 53.8319 117.584 54.7359 117.496C54.9544 117.477 55.1668 117.414 55.3608 117.312C55.5548 117.209 55.7264 117.069 55.8656 116.9C56.0048 116.73 56.1087 116.535 56.1714 116.325C56.234 116.115 56.2541 115.894 56.2304 115.676C56.2067 115.458 56.1397 115.247 56.0334 115.055C55.9271 114.863 55.7835 114.695 55.6112 114.559C55.4389 114.423 55.2412 114.324 55.0298 114.265C54.8183 114.207 54.5974 114.192 54.3799 114.22V114.208Z" fill="#EF7B71"/>
<path d="M44.3754 114.456C45.0834 115.028 48.0714 116.48 48.6434 115.772C49.2154 115.064 47.1514 112.456 46.4434 111.884C46.276 111.736 46.0803 111.623 45.8681 111.553C45.656 111.482 45.4317 111.456 45.2089 111.475C44.9862 111.493 44.7696 111.557 44.5722 111.662C44.3749 111.767 44.2009 111.911 44.0608 112.086C43.9208 112.26 43.8175 112.461 43.7573 112.676C43.6971 112.891 43.6812 113.116 43.7106 113.338C43.7401 113.56 43.8141 113.773 43.9284 113.965C44.0427 114.157 44.1947 114.324 44.3754 114.456Z" fill="#EF7B71"/>
<path d="M54.4997 118.351C53.7917 117.779 50.8037 116.327 50.2357 117.035C49.6677 117.743 51.7237 120.351 52.4357 120.919C52.6034 121.062 52.7982 121.17 53.0083 121.236C53.2185 121.303 53.4398 121.326 53.6592 121.305C53.8787 121.285 54.0917 121.22 54.2857 121.116C54.4798 121.011 54.6509 120.869 54.789 120.697C54.927 120.525 55.0292 120.328 55.0895 120.116C55.1499 119.904 55.167 119.682 55.1401 119.463C55.1131 119.244 55.0425 119.033 54.9325 118.842C54.8225 118.651 54.6753 118.484 54.4997 118.351Z" fill="#EF7B71"/>
<path d="M47.4837 121.456C48.0557 120.748 49.5077 117.76 48.7957 117.192C48.0837 116.624 45.4837 118.68 44.9117 119.392C44.638 119.733 44.511 120.169 44.5586 120.603C44.6063 121.038 44.8247 121.436 45.1657 121.71C45.5068 121.983 45.9426 122.11 46.3773 122.063C46.812 122.015 47.21 121.797 47.4837 121.456Z" fill="#EF7B71"/>
<path d="M51.3761 111.348C50.8081 112.06 49.3521 115.044 50.0641 115.616C50.7761 116.188 53.3761 114.124 53.9481 113.416C54.0963 113.249 54.2089 113.053 54.2793 112.841C54.3496 112.629 54.3762 112.404 54.3573 112.182C54.3385 111.959 54.2746 111.742 54.1696 111.545C54.0646 111.348 53.9206 111.174 53.7464 111.033C53.5722 110.893 53.3713 110.79 53.156 110.73C52.9408 110.67 52.7155 110.654 52.4939 110.683C52.2723 110.713 52.059 110.787 51.8668 110.901C51.6747 111.015 51.5077 111.167 51.3761 111.348Z" fill="#EF7B71"/>
<g opacity="0.6">
<path d="M47.2311 111.452C47.3311 112.356 48.4311 115.496 49.3191 115.4C50.2071 115.304 50.6111 112 50.5191 111.096C50.4719 110.661 50.2539 110.262 49.9129 109.988C49.572 109.714 49.1361 109.586 48.7011 109.634C48.2662 109.681 47.8678 109.899 47.5936 110.24C47.3194 110.581 47.1919 111.017 47.2391 111.452H47.2311Z" fill="white"/>
<path d="M51.6271 121.356C51.5271 120.448 50.4271 117.308 49.5391 117.408C48.6511 117.508 48.2511 120.804 48.3391 121.712C48.3863 122.147 48.6043 122.545 48.9453 122.819C49.2862 123.093 49.7221 123.221 50.157 123.174C50.592 123.126 50.9904 122.908 51.2646 122.567C51.5388 122.226 51.6663 121.791 51.6191 121.356H51.6271Z" fill="white"/>
<path d="M44.4995 118.599C45.4035 118.503 48.5435 117.419 48.4435 116.511C48.3435 115.603 45.0475 115.223 44.1435 115.311C43.9281 115.335 43.7195 115.4 43.5295 115.504C43.3394 115.608 43.1717 115.749 43.036 115.917C42.9002 116.086 42.799 116.28 42.7382 116.488C42.6774 116.696 42.6581 116.914 42.6815 117.129C42.7049 117.345 42.7704 117.553 42.8745 117.743C42.9785 117.933 43.1189 118.101 43.2877 118.237C43.4565 118.372 43.6504 118.474 43.8584 118.534C44.0663 118.595 44.2841 118.615 44.4995 118.591V118.599Z" fill="white"/>
<path d="M54.3799 114.208C53.4759 114.304 50.3359 115.408 50.4359 116.296C50.5359 117.184 53.8319 117.584 54.7359 117.496C54.9544 117.477 55.1668 117.414 55.3608 117.312C55.5548 117.209 55.7264 117.069 55.8656 116.9C56.0048 116.73 56.1087 116.535 56.1714 116.325C56.234 116.115 56.2541 115.894 56.2304 115.676C56.2067 115.458 56.1397 115.247 56.0334 115.055C55.9271 114.863 55.7835 114.695 55.6112 114.559C55.4389 114.423 55.2412 114.324 55.0298 114.265C54.8183 114.207 54.5974 114.192 54.3799 114.22V114.208Z" fill="white"/>
<path d="M44.3754 114.456C45.0834 115.028 48.0714 116.48 48.6434 115.772C49.2154 115.064 47.1514 112.456 46.4434 111.884C46.276 111.736 46.0803 111.623 45.8681 111.553C45.656 111.482 45.4317 111.456 45.2089 111.475C44.9862 111.493 44.7696 111.557 44.5722 111.662C44.3749 111.767 44.2009 111.911 44.0608 112.086C43.9208 112.26 43.8175 112.461 43.7573 112.676C43.6971 112.891 43.6812 113.116 43.7106 113.338C43.7401 113.56 43.8141 113.773 43.9284 113.965C44.0427 114.157 44.1947 114.324 44.3754 114.456Z" fill="white"/>
<path d="M54.4997 118.351C53.7917 117.779 50.8037 116.327 50.2357 117.035C49.6677 117.743 51.7237 120.351 52.4357 120.919C52.6034 121.062 52.7982 121.17 53.0083 121.236C53.2185 121.303 53.4398 121.326 53.6592 121.305C53.8787 121.285 54.0917 121.22 54.2857 121.116C54.4798 121.011 54.6509 120.869 54.789 120.697C54.927 120.525 55.0292 120.328 55.0895 120.116C55.1499 119.904 55.167 119.682 55.1401 119.463C55.1131 119.244 55.0425 119.033 54.9325 118.842C54.8225 118.651 54.6753 118.484 54.4997 118.351Z" fill="white"/>
<path d="M47.4837 121.456C48.0557 120.748 49.5077 117.76 48.7957 117.192C48.0837 116.624 45.4837 118.68 44.9117 119.392C44.638 119.733 44.511 120.169 44.5586 120.603C44.6063 121.038 44.8247 121.436 45.1657 121.71C45.5068 121.983 45.9426 122.11 46.3773 122.063C46.812 122.015 47.21 121.797 47.4837 121.456Z" fill="white"/>
<path d="M51.3751 111.348C50.8071 112.06 49.3511 115.044 50.0631 115.616C50.7751 116.188 53.3751 114.124 53.9471 113.416C54.0953 113.249 54.208 113.053 54.2783 112.841C54.3487 112.629 54.3752 112.404 54.3564 112.182C54.3375 111.959 54.2736 111.742 54.1686 111.545C54.0636 111.348 53.9196 111.174 53.7454 111.033C53.5712 110.893 53.3704 110.79 53.1551 110.73C52.9398 110.67 52.7145 110.654 52.4929 110.683C52.2713 110.713 52.058 110.787 51.8658 110.901C51.6737 111.015 51.5067 111.167 51.3751 111.348Z" fill="white"/>
</g>
<path d="M47.4875 116.615C47.53 116.999 47.6852 117.361 47.9334 117.656C48.1816 117.952 48.5118 118.167 48.8822 118.275C49.2526 118.382 49.6466 118.378 50.0146 118.262C50.3825 118.146 50.7078 117.923 50.9494 117.623C51.191 117.322 51.338 116.956 51.372 116.572C51.406 116.188 51.3253 115.802 51.1402 115.464C50.9551 115.125 50.6739 114.849 50.3321 114.67C49.9902 114.492 49.603 114.418 49.2195 114.459C48.964 114.487 48.7165 114.564 48.491 114.688C48.2656 114.811 48.0667 114.977 47.9058 115.178C47.7449 115.378 47.6251 115.608 47.5533 115.855C47.4815 116.102 47.4592 116.36 47.4875 116.615Z" fill="#EF7B71"/>
<path d="M47.6999 142.096C45.4479 142.144 41.5919 140.064 40.0759 138.032C38.5599 136 42.8519 137.232 42.4039 135.632C41.9559 134.032 36.6399 135.232 35.6519 132.904C34.6639 130.576 38.5039 131.108 38.3479 129.92C38.1919 128.732 34.2159 128.984 32.9319 126.52C31.6479 124.056 35.1519 125.424 34.5999 124.404C34.0479 123.384 29.6519 119.084 31.4839 118.18C33.3159 117.276 37.4359 121.752 38.8159 122.252C40.1959 122.752 40.5079 119.648 42.2999 121.124C44.0919 122.6 42.7759 129.088 44.8879 129.924C46.4599 130.556 45.7839 127.592 47.5919 128.324C50.7439 129.632 48.5959 142.076 47.6999 142.096Z" fill="#EF7B71"/>
<g opacity="0.2">
<path d="M47.6999 142.096C45.4479 142.144 41.5919 140.064 40.0759 138.032C38.5599 136 42.8519 137.232 42.4039 135.632C41.9559 134.032 36.6399 135.232 35.6519 132.904C34.6639 130.576 38.5039 131.108 38.3479 129.92C38.1919 128.732 34.2159 128.984 32.9319 126.52C31.6479 124.056 35.1519 125.424 34.5999 124.404C34.0479 123.384 29.6519 119.084 31.4839 118.18C33.3159 117.276 37.4359 121.752 38.8159 122.252C40.1959 122.752 40.5079 119.648 42.2999 121.124C44.0919 122.6 42.7759 129.088 44.8879 129.924C46.4599 130.556 45.7839 127.592 47.5919 128.324C50.7439 129.632 48.5959 142.076 47.6999 142.096Z" fill="white"/>
</g>
<path d="M50.9197 139.236C50.9557 139.3 50.6197 139.636 51.7197 139.664C54.4597 139.776 59.3197 139.592 61.1237 137.1C63.7237 133.544 57.7317 133.872 58.3237 131.9C58.9157 129.928 65.3437 131.54 66.5997 128.74C67.8557 125.94 63.1717 126.488 63.3997 125.044C63.6277 123.6 68.5277 125.472 70.1477 122.5C71.7677 119.528 67.4757 121.12 68.1477 119.888C68.8197 118.656 74.3077 113.544 72.0997 112.4C69.8917 111.256 64.7757 116.608 63.0877 117.2C61.3997 117.792 61.0077 112.528 58.7917 114.284C56.5757 116.04 58.0277 123.956 55.4397 124.94C53.5117 125.672 54.5637 122.832 52.1837 122.94C48.9557 123.072 47.8917 134.176 50.9197 139.236Z" fill="#EF7B71"/>
<g opacity="0.3">
<path d="M50.9197 139.236C50.9557 139.3 50.6197 139.636 51.7197 139.664C54.4597 139.776 59.3197 139.592 61.1237 137.1C63.7237 133.544 57.7317 133.872 58.3237 131.9C58.9157 129.928 65.3437 131.54 66.5997 128.74C67.8557 125.94 63.1717 126.488 63.3997 125.044C63.6277 123.6 68.5277 125.472 70.1477 122.5C71.7677 119.528 67.4757 121.12 68.1477 119.888C68.8197 118.656 74.3077 113.544 72.0997 112.4C69.8917 111.256 64.7757 116.608 63.0877 117.2C61.3997 117.792 61.0077 112.528 58.7917 114.284C56.5757 116.04 58.0277 123.956 55.4397 124.94C53.5117 125.672 54.5637 122.832 52.1837 122.94C48.9557 123.072 47.8917 134.176 50.9197 139.236Z" fill="white"/>
</g>
<path d="M48.8677 148.931C48.8442 148.929 48.8214 148.922 48.8007 148.91C48.7799 148.899 48.7617 148.883 48.7472 148.864C48.7326 148.846 48.722 148.824 48.7159 148.801C48.7098 148.779 48.7084 148.755 48.7117 148.731C50.9597 130.331 61.5637 122.843 61.6717 122.771C61.6909 122.758 61.7125 122.749 61.7352 122.744C61.758 122.739 61.7814 122.739 61.8043 122.743C61.8271 122.748 61.8489 122.756 61.8684 122.769C61.8878 122.782 61.9046 122.798 61.9177 122.817C61.9309 122.836 61.9401 122.858 61.9449 122.881C61.9497 122.903 61.95 122.927 61.9457 122.95C61.9414 122.973 61.9327 122.994 61.92 123.014C61.9073 123.033 61.8909 123.05 61.8717 123.063C61.7677 123.139 51.2957 130.539 49.0717 148.775C49.0688 148.799 49.0611 148.822 49.0492 148.843C49.0374 148.863 49.0214 148.881 49.0025 148.896C48.9835 148.91 48.9618 148.921 48.9386 148.927C48.9155 148.933 48.8914 148.935 48.8677 148.931Z" fill="#263238"/>
<path d="M59.2398 125.328C59.204 125.327 59.1693 125.315 59.1406 125.293C59.1119 125.272 59.0907 125.242 59.0798 125.208C59.0646 125.163 59.0678 125.113 59.0888 125.071C59.1097 125.028 59.1468 124.995 59.1918 124.98C59.2598 124.96 60.8398 124.46 63.4238 125.008C63.4699 125.018 63.5102 125.046 63.5363 125.086C63.5624 125.125 63.5722 125.173 63.5638 125.22C63.5542 125.266 63.5265 125.307 63.4867 125.334C63.447 125.36 63.3985 125.369 63.3518 125.36C60.8638 124.832 59.3198 125.316 59.3038 125.32C59.2832 125.327 59.2615 125.329 59.2398 125.328Z" fill="#263238"/>
<path d="M57.2997 127.564C57.2537 127.563 57.2099 127.544 57.1778 127.511C57.1457 127.478 57.1277 127.434 57.1277 127.388C57.0717 121.82 60.2957 117.472 60.3277 117.428C60.3568 117.392 60.3986 117.368 60.4446 117.361C60.4906 117.355 60.5374 117.366 60.5757 117.392C60.5946 117.406 60.6105 117.424 60.6226 117.444C60.6346 117.465 60.6425 117.487 60.6459 117.511C60.6492 117.534 60.6479 117.558 60.642 117.581C60.6362 117.604 60.6259 117.625 60.6117 117.644C60.5797 117.684 57.4117 121.944 57.4837 127.384C57.4837 127.431 57.4653 127.476 57.4324 127.51C57.3995 127.544 57.3547 127.563 57.3077 127.564H57.2997Z" fill="#263238"/>
<path d="M54.1243 132.276C54.1015 132.275 54.079 132.27 54.0584 132.26C54.0377 132.251 54.0193 132.237 54.0043 132.22C53.9875 132.203 53.9741 132.184 53.965 132.162C53.9559 132.14 53.9512 132.117 53.9512 132.094C53.9512 132.07 53.9559 132.047 53.965 132.025C53.9741 132.004 53.9875 131.984 54.0043 131.968C54.0283 131.948 56.4043 129.74 59.5403 130.86C59.579 130.88 59.6092 130.913 59.6251 130.954C59.6411 130.994 59.6419 131.039 59.6272 131.08C59.6125 131.121 59.5835 131.156 59.5454 131.177C59.5074 131.198 59.4629 131.205 59.4203 131.196C56.5003 130.148 54.2723 132.208 54.2523 132.228C54.2354 132.244 54.2153 132.257 54.1933 132.265C54.1712 132.273 54.1478 132.277 54.1243 132.276Z" fill="#263238"/>
<path d="M52.4716 135.564C52.4383 135.562 52.4061 135.551 52.3786 135.532C52.3511 135.513 52.3294 135.486 52.3156 135.456C51.5249 133.244 51.3277 130.864 51.7436 128.552C51.747 128.529 51.755 128.506 51.7672 128.486C51.7794 128.466 51.7954 128.449 51.8144 128.435C51.8334 128.421 51.855 128.411 51.8779 128.406C51.9008 128.401 51.9245 128.4 51.9476 128.404C51.9941 128.412 52.0356 128.438 52.0633 128.476C52.091 128.514 52.1026 128.561 52.0956 128.608C51.7 130.854 51.8887 133.164 52.6436 135.316C52.6529 135.337 52.6578 135.36 52.6582 135.383C52.6586 135.406 52.6544 135.429 52.6459 135.451C52.6373 135.473 52.6246 135.492 52.6084 135.509C52.5922 135.526 52.5729 135.539 52.5516 135.548C52.5264 135.559 52.4991 135.564 52.4716 135.564Z" fill="#263238"/>
<path d="M48.9358 155.508C48.8912 155.506 48.849 155.487 48.8178 155.455C48.7866 155.423 48.7687 155.38 48.7678 155.336L48.5358 150.46C47.8518 134.248 36.7358 123.224 36.6238 123.116C36.5972 123.081 36.5838 123.039 36.5862 122.995C36.5886 122.952 36.6065 122.911 36.6367 122.88C36.6668 122.849 36.7072 122.83 36.7504 122.826C36.7936 122.822 36.8367 122.834 36.8718 122.86C36.9838 122.972 48.2038 134.088 48.8918 150.46L49.1238 155.336C49.1249 155.383 49.1075 155.428 49.0753 155.463C49.0432 155.497 48.9988 155.518 48.9518 155.52L48.9358 155.508Z" fill="#263238"/>
<path d="M41.2075 129.2H41.1795C41.1605 129.198 41.1424 129.192 41.1275 129.18L41.0675 129.16C39.6213 128.555 38.0668 128.253 36.4995 128.272C36.4524 128.273 36.4068 128.256 36.3724 128.223C36.338 128.191 36.3176 128.147 36.3155 128.1C36.3149 128.076 36.3191 128.053 36.3276 128.031C36.3362 128.009 36.349 127.988 36.3654 127.971C36.3817 127.954 36.4012 127.941 36.4229 127.931C36.4445 127.922 36.4678 127.916 36.4915 127.916C38.1117 127.897 39.7188 128.207 41.2155 128.828L41.2715 128.852H41.3035C41.3389 128.869 41.3674 128.898 41.3842 128.934C41.4009 128.969 41.4049 129.01 41.3955 129.048C41.3895 129.092 41.3667 129.133 41.3317 129.161C41.2967 129.19 41.2523 129.203 41.2075 129.2Z" fill="#263238"/>
<path d="M42.7797 131.292C42.7564 131.29 42.7336 131.284 42.7127 131.273C42.6919 131.263 42.6734 131.248 42.6584 131.23C42.6434 131.212 42.6323 131.191 42.6256 131.169C42.619 131.147 42.617 131.123 42.6197 131.1C43.0477 126.3 40.5717 122.376 40.5437 122.34C40.521 122.3 40.5147 122.252 40.526 122.207C40.5373 122.163 40.5653 122.124 40.6044 122.099C40.6434 122.074 40.6905 122.066 40.7358 122.075C40.7811 122.084 40.8212 122.11 40.8477 122.148C40.8717 122.188 43.4157 126.22 42.9717 131.132C42.9697 131.155 42.9632 131.177 42.9524 131.198C42.9416 131.219 42.9269 131.237 42.9091 131.252C42.8912 131.267 42.8706 131.278 42.8484 131.285C42.8262 131.292 42.8029 131.294 42.7797 131.292Z" fill="#263238"/>
<path d="M44.4036 134.064C44.3583 134.063 44.3152 134.044 44.2836 134.012C43.6887 133.473 42.9693 133.091 42.19 132.9C41.4108 132.709 40.5962 132.714 39.8196 132.916C39.7735 132.928 39.7244 132.921 39.6831 132.897C39.6419 132.873 39.6118 132.834 39.5996 132.788C39.5936 132.765 39.5922 132.742 39.5954 132.718C39.5986 132.695 39.6064 132.673 39.6183 132.653C39.6303 132.633 39.6461 132.615 39.6648 132.601C39.6836 132.587 39.7049 132.577 39.7276 132.572C40.5638 132.348 41.4432 132.341 42.2829 132.551C43.1226 132.761 43.8951 133.181 44.5276 133.772C44.5444 133.788 44.5578 133.808 44.5669 133.829C44.576 133.851 44.5807 133.874 44.5807 133.898C44.5807 133.921 44.576 133.945 44.5669 133.966C44.5578 133.988 44.5444 134.007 44.5276 134.024C44.5107 134.038 44.491 134.049 44.4697 134.056C44.4484 134.063 44.4259 134.066 44.4036 134.064Z" fill="#263238"/>
<path d="M46.4637 138.631C46.4372 138.631 46.4111 138.624 46.3877 138.611C46.3668 138.601 46.3482 138.586 46.333 138.568C46.3178 138.55 46.3063 138.53 46.2992 138.507C46.2921 138.485 46.2896 138.461 46.2918 138.438C46.2939 138.415 46.3007 138.392 46.3117 138.371C47.1271 136.529 47.4562 134.509 47.2677 132.503C47.2644 132.456 47.2797 132.41 47.3104 132.374C47.3411 132.338 47.3847 132.315 47.4317 132.311C47.4552 132.309 47.4788 132.312 47.5013 132.319C47.5237 132.326 47.5445 132.337 47.5624 132.353C47.5803 132.368 47.595 132.387 47.6055 132.408C47.616 132.429 47.6222 132.452 47.6237 132.475C47.8279 134.548 47.4844 136.637 46.6277 138.535C46.6125 138.565 46.5889 138.59 46.5598 138.607C46.5307 138.624 46.4974 138.633 46.4637 138.631Z" fill="#263238"/>
<path d="M58.9644 156.275C58.9644 161.959 56.4044 166.571 48.6604 166.571C41.2684 166.571 38.3604 161.959 38.3604 156.275C38.3588 154.211 38.9791 152.194 40.1404 150.487H57.1844C58.3456 152.194 58.9659 154.211 58.9644 156.275Z" fill="#EF7B71"/>
<path opacity="0.7" d="M58.9644 156.275C58.9644 161.959 56.4044 166.571 48.6604 166.571C41.2684 166.571 38.3604 161.959 38.3604 156.275C38.3588 154.211 38.9791 152.194 40.1404 150.487H57.1844C58.3456 152.194 58.9659 154.211 58.9644 156.275Z" fill="white"/>
<path d="M118.14 161.545L122.124 160.965L121.12 151.645L117.132 152.225L118.14 161.545Z" fill="#E8BFBF"/>
<path d="M125.188 161.105C125.534 161.078 125.86 160.937 126.116 160.705C126.17 160.637 126.206 160.557 126.222 160.472C126.238 160.387 126.234 160.299 126.208 160.217C126.197 160.165 126.172 160.118 126.137 160.079C126.102 160.04 126.058 160.01 126.008 159.993C125.476 159.801 124.008 160.877 123.856 160.997C123.84 161.009 123.828 161.026 123.822 161.045C123.815 161.064 123.815 161.085 123.82 161.105C123.827 161.122 123.839 161.138 123.855 161.149C123.871 161.159 123.889 161.165 123.908 161.165C124.336 161.183 124.764 161.163 125.188 161.105ZM125.748 160.169C125.808 160.155 125.869 160.155 125.928 160.169C125.949 160.175 125.968 160.187 125.983 160.203C125.998 160.219 126.008 160.239 126.012 160.261C126.029 160.315 126.032 160.374 126.022 160.43C126.011 160.486 125.987 160.539 125.952 160.585C125.748 160.837 125.096 160.985 124.192 160.985C124.666 160.631 125.196 160.36 125.76 160.185L125.748 160.169Z" fill="#EF7B71"/>
<path d="M123.933 161.168H123.965C124.409 160.876 125.205 159.86 125.053 159.424C125.021 159.347 124.964 159.284 124.891 159.245C124.818 159.206 124.733 159.195 124.653 159.212C124.557 159.215 124.463 159.237 124.376 159.278C124.289 159.318 124.212 159.376 124.149 159.448C123.721 159.944 123.805 161.048 123.805 161.08C123.805 161.096 123.808 161.112 123.815 161.126C123.822 161.141 123.832 161.154 123.845 161.164C123.858 161.171 123.873 161.175 123.888 161.175C123.903 161.176 123.918 161.173 123.933 161.168ZM124.601 159.4L124.657 159.372C124.833 159.372 124.853 159.432 124.857 159.452C124.953 159.72 124.421 160.5 123.981 160.86C123.941 160.4 124.049 159.939 124.289 159.544C124.373 159.456 124.487 159.404 124.609 159.396L124.601 159.4Z" fill="#EF7B71"/>
<path d="M121.7 159.312L118.168 160.156C118.092 160.172 118.024 160.215 117.977 160.278C117.931 160.34 117.909 160.418 117.916 160.496L118.032 165.612C118.044 165.697 118.073 165.779 118.116 165.852C118.159 165.926 118.217 165.991 118.285 166.043C118.354 166.094 118.431 166.132 118.514 166.153C118.597 166.175 118.684 166.18 118.768 166.168C118.794 166.17 118.819 166.17 118.844 166.168C120.372 165.768 121.096 165.528 123.04 165.076C124.24 164.804 128.012 164.516 129.56 163.828C131.108 163.14 130.504 161.572 129.8 161.72C127.528 162.208 124.6 161.236 122.956 159.756C122.748 159.632 121.96 159.252 121.7 159.312Z" fill="#263238"/>
<path opacity="0.2" d="M121.12 151.645L121.636 156.449L117.652 157.033L117.132 152.229L121.12 151.645Z" fill="black"/>
<path d="M123.248 154.472L115.876 155.848C115.876 155.848 112.296 150.736 111.62 147.108C110.916 143.328 111.668 130.464 111.62 130.308C109.536 123.268 103.868 105.028 101.136 98.3082C99.6197 94.5882 98.5557 92.0842 98.5557 92.0842L99.3197 91.9122L105.34 89.4482L109.74 90.2722C109.74 90.2722 123.064 117.22 124.46 127.356C125.488 134.916 123.248 154.472 123.248 154.472Z" fill="#EF7B71"/>
<path opacity="0.3" d="M123.248 154.472L115.876 155.848C115.876 155.848 112.296 150.736 111.62 147.108C110.916 143.328 111.668 130.464 111.62 130.308C109.536 123.268 103.868 105.028 101.136 98.3082C99.6197 94.5882 98.5557 92.0842 98.5557 92.0842L99.3197 91.9122L105.34 89.4482L109.74 90.2722C109.74 90.2722 123.064 117.22 124.46 127.356C125.488 134.916 123.248 154.472 123.248 154.472Z" fill="white"/>
<path opacity="0.2" d="M109.884 124.197C107.8 117.157 103.592 106.481 100.856 99.7687L99.0443 93.3687L98.6963 92.1367L99.3323 93.3007L106.472 109.117C109.624 115.201 109.932 124.369 109.884 124.197Z" fill="black"/>
<path d="M77.5283 159.353L81.0803 160.849L84.8683 152.717L81.3203 151.221L77.5283 159.353Z" fill="#E8BFBF"/>
<path d="M83.3924 162.548C83.6737 162.724 84.0067 162.799 84.3364 162.76C84.4165 162.739 84.4903 162.698 84.551 162.642C84.6117 162.585 84.6575 162.514 84.6844 162.436C84.7048 162.39 84.7129 162.34 84.708 162.29C84.7031 162.24 84.6853 162.193 84.6564 162.152C84.3524 161.704 82.6204 161.708 82.4284 161.708C82.4093 161.71 82.3912 161.717 82.3757 161.728C82.3603 161.739 82.3481 161.755 82.3404 161.772C82.3354 161.79 82.3358 161.809 82.3415 161.827C82.3472 161.845 82.3579 161.86 82.3724 161.872C82.6908 162.128 83.0322 162.355 83.3924 162.548ZM84.3524 162.148C84.4077 162.171 84.456 162.208 84.4924 162.256C84.5022 162.274 84.5073 162.294 84.5073 162.314C84.5073 162.334 84.5022 162.354 84.4924 162.372C84.4737 162.423 84.4434 162.469 84.4038 162.507C84.3642 162.544 84.3165 162.572 84.2644 162.588C83.9604 162.668 83.3804 162.412 82.6644 161.9C83.2347 161.887 83.8029 161.972 84.3444 162.152L84.3524 162.148Z" fill="#EF7B71"/>
<path d="M82.3883 161.889H82.4203C82.9283 161.917 84.1163 161.581 84.2483 161.161C84.2698 161.083 84.2626 160.999 84.2281 160.926C84.1937 160.853 84.1341 160.794 84.0603 160.761C83.9855 160.708 83.9006 160.672 83.811 160.655C83.7214 160.638 83.6291 160.64 83.5403 160.661C82.9243 160.797 82.3763 161.689 82.3403 161.725C82.3336 161.738 82.3301 161.754 82.3301 161.769C82.3301 161.784 82.3336 161.799 82.3403 161.813C82.3411 161.828 82.346 161.844 82.3544 161.857C82.3628 161.87 82.3744 161.881 82.3883 161.889ZM83.9043 160.901H83.9603C84.1003 160.993 84.0763 161.057 84.0683 161.077C83.9923 161.333 83.1443 161.637 82.6003 161.669C82.8273 161.291 83.1693 160.995 83.5763 160.825C83.6928 160.805 83.8126 160.829 83.9123 160.893L83.9043 160.901Z" fill="#EF7B71"/>
<path d="M81.7241 159.201L78.5241 157.857C78.4548 157.822 78.3747 157.815 78.3003 157.837C78.2259 157.859 78.1629 157.909 78.1241 157.977L75.3241 161.977C75.2848 162.049 75.2601 162.128 75.2515 162.21C75.2429 162.292 75.2505 162.374 75.2739 162.453C75.2973 162.532 75.3361 162.605 75.3879 162.669C75.4398 162.733 75.5038 162.786 75.5761 162.825L75.6441 162.857C77.0401 163.429 77.7441 163.637 79.5001 164.389C80.5761 164.853 83.6561 166.769 85.2401 167.109C86.8241 167.449 87.2401 165.909 86.6161 165.617C84.5881 164.709 82.8841 162.309 82.4401 160.233C82.3401 160.033 81.9481 159.293 81.7241 159.201Z" fill="#263238"/>
<path opacity="0.2" d="M85.0241 152.812L82.9721 156.952L79.4561 155.376L81.5041 151.232L85.0241 152.812Z" fill="black"/>
<path d="M85.7645 157.324L78.6925 153.556C78.6925 153.556 77.3365 148.52 78.6925 145.308C81.3005 139.128 88.0925 130.04 88.1365 129.868C89.9485 122.756 93.1245 103.272 94.2125 96.1083C94.8125 92.1363 95.1685 91.2803 95.1685 91.2803L95.9165 91.5243L106.717 91.5443C106.717 91.5443 108.757 107.944 100.933 133.304C98.9885 139.616 95.7325 144.864 90.3605 151.964C88.9221 153.829 87.3881 155.618 85.7645 157.324Z" fill="#EF7B71"/>
<path opacity="0.3" d="M85.7645 157.324L78.6925 153.556C78.6925 153.556 77.3365 148.52 78.6925 145.308C81.3005 139.128 88.0925 130.04 88.1365 129.868C89.9485 122.756 93.1245 103.272 94.2125 96.1083C94.8125 92.1363 95.1685 91.2803 95.1685 91.2803L95.9165 91.5243L106.717 91.5443C106.717 91.5443 108.757 107.944 100.933 133.304C98.9885 139.616 95.7325 144.864 90.3605 151.964C88.9221 153.829 87.3881 155.618 85.7645 157.324Z" fill="white"/>
<path d="M116.324 78.156C116.488 76.8561 117.038 75.6354 117.904 74.652C118.124 74.42 118.968 74.068 119.448 73.756C121.796 72.216 126.5 70.292 126.5 70.292L127.952 71.556C127.952 71.556 125.088 74.324 123.384 75.652C123.048 75.916 122.66 76.232 122.252 76.568C121.508 77.184 118.02 79.484 117.356 80.064L116.324 78.156Z" fill="#E8BFBF"/>
<path d="M130.636 69.576L127.952 71.576L126.448 70.468C126.834 69.9793 127.25 69.5145 127.692 69.076C127.828 68.9439 127.937 68.786 128.011 68.6116C128.085 68.4371 128.123 68.2496 128.124 68.06C128.094 67.4414 128.232 66.8262 128.524 66.28C128.523 66.2693 128.523 66.2586 128.524 66.248C128.661 66.0555 128.85 65.9059 129.069 65.8167C129.287 65.7275 129.527 65.7024 129.759 65.7444C129.992 65.7863 130.207 65.8936 130.381 66.0536C130.555 66.2136 130.679 66.4198 130.74 66.648L131.14 68.08C131.214 68.3512 131.205 68.6382 131.115 68.9045C131.026 69.1708 130.859 69.4045 130.636 69.576Z" fill="#E8BFBF"/>
<path d="M117.18 78.6921L116.472 79.3401C116.252 79.1641 115.904 78.8801 115.464 78.5121C112.016 75.6521 103.372 68.7081 106.816 66.7281C109.772 65.0281 112.908 70.2241 114.472 71.7881C115.206 72.5709 115.843 73.44 116.368 74.3761C117.104 75.7041 117.648 77.3081 117.18 78.6921Z" fill="#263238"/>
<path d="M116.365 73.7559C115.138 74.6534 114.101 75.7844 113.312 77.0839C113.601 78.0291 114.089 78.9015 114.743 79.6425C115.397 80.3835 116.202 80.9759 117.105 81.3799C118.107 79.1064 118.537 76.6219 118.357 74.1439C117.733 73.9999 116.989 73.8919 116.365 73.7559Z" fill="#263238"/>
<path d="M97.384 66.3247C96.148 66.7247 94.736 66.4007 93.944 67.4287C93.152 68.4567 92.916 69.8047 92.916 71.1007C92.9889 72.9034 93.2653 74.6921 93.74 76.4327C94.236 78.5661 94.7334 80.6927 95.232 82.8127C95.572 84.2687 95.212 91.0327 95.576 91.1447C95.576 91.1447 106.884 90.9247 109.72 90.5247C109.72 90.5247 109.964 83.5727 110.192 81.2047C110.244 80.6807 111.04 78.4487 111.132 77.8887C111.576 75.2487 110.708 73.3887 109.796 70.8687C109.796 70.8687 107.796 66.8407 106.816 66.7287C105.076 66.5327 100.82 65.2007 97.384 66.3247Z" fill="#263238"/>
<path d="M96.8998 69.656C96.8598 69.424 94.8518 65.368 92.9278 68.204C90.2518 72.148 90.0718 77.1 90.0718 77.1C90.0718 77.1 88.4278 81.9 89.5718 82.964C90.7158 84.028 91.9718 84.692 92.7718 84.096C93.3365 83.603 93.7869 82.9928 94.0918 82.308C94.0918 82.308 97.6118 73.784 96.8998 69.656Z" fill="#263238"/>
<path d="M96.7765 64.8208C96.5814 64.9963 96.429 65.2142 96.3311 65.4578C96.2332 65.7013 96.1924 65.964 96.2117 66.2258C96.231 66.4876 96.3099 66.7414 96.4425 66.968C96.5751 67.1945 96.7577 67.3877 96.9765 67.5328C96.8591 67.9441 96.8603 68.3801 96.9797 68.7908C97.0992 69.2014 97.3322 69.5701 97.6519 69.8542C97.9715 70.1383 98.3649 70.3265 98.7868 70.397C99.2086 70.4675 99.6418 70.4175 100.036 70.2528C99.7005 70.8608 100.08 71.6648 100.668 72.0408C101.289 72.3615 101.971 72.5443 102.668 72.5768C103.369 72.6101 104.041 72.8635 104.588 73.3008L106.724 70.2248C107.038 69.8488 107.242 69.3933 107.312 68.9088C107.332 68.4248 106.964 67.8888 106.48 67.9248C106.723 67.6629 106.858 67.3193 106.859 66.9624C106.86 66.6054 106.726 66.2613 106.484 65.9985C106.243 65.7357 105.911 65.5735 105.555 65.5443C105.199 65.5151 104.846 65.6209 104.564 65.8408C104.599 65.631 104.571 65.4158 104.484 65.2217C104.397 65.0276 104.256 64.8632 104.076 64.7488C103.713 64.5295 103.301 64.4044 102.876 64.3848L96.7765 64.8208Z" fill="#263238"/>
<path d="M98.0603 59.6006C98.6163 61.6406 99.2923 65.4046 97.9443 66.8926C100.415 67.9589 102.638 69.5235 104.476 71.4886C104.962 71.0421 105.295 70.4544 105.428 69.8085C105.562 69.1625 105.489 68.4909 105.22 67.8886C105.063 67.5061 104.831 67.1591 104.536 66.8684C104.242 66.5777 103.893 66.3492 103.508 66.1966C102.02 65.5646 102.008 64.1046 102.256 62.7006L98.0603 59.6006Z" fill="#E8BFBF"/>
<path opacity="0.2" d="M98.9004 63.0762L100.304 63.4562C100.906 63.6197 101.536 63.6565 102.152 63.5642C102.101 63.9967 102.146 64.4353 102.284 64.8482C101.814 65.0296 101.302 65.0706 100.809 64.9663C100.316 64.8619 99.8644 64.6166 99.5084 64.2602C99.2487 63.8975 99.0438 63.4985 98.9004 63.0762Z" fill="black"/>
<path d="M95.3363 57.8601C96.8203 60.9961 97.3843 62.3561 99.6723 63.3561C103.12 64.8641 106.64 62.3442 106.12 58.8282C105.648 55.6642 103.296 51.0601 99.6363 51.0441C98.8305 51.0367 98.0362 51.2351 97.3286 51.6206C96.621 52.006 96.0236 52.5658 95.5929 53.2469C95.1622 53.9279 94.9126 54.7077 94.8677 55.5122C94.8228 56.3167 94.9841 57.1194 95.3363 57.8441V57.8601Z" fill="#E8BFBF"/>
<path d="M96.968 51.8682C95.884 51.3642 94.54 51.7762 93.636 52.5682C92.732 53.3602 92.16 54.5042 91.636 55.6042C91.3203 56.1894 91.0785 56.8115 90.916 57.4562C90.7542 58.1086 90.8427 58.7979 91.164 59.3882C91.3353 59.664 91.5698 59.8953 91.8479 60.0628C92.1261 60.2304 92.44 60.3296 92.764 60.3522C92.9632 60.3645 93.1554 60.431 93.3196 60.5445C93.4839 60.658 93.614 60.8142 93.696 60.9962C93.778 61.3326 93.778 61.6838 93.696 62.0202C93.6199 62.3465 93.6199 62.6859 93.696 63.0122C93.805 63.2688 93.9839 63.4896 94.2124 63.6494C94.4408 63.8093 94.7095 63.9017 94.988 63.9162C95.545 63.9317 96.1 63.8421 96.624 63.6522C96.7836 63.5977 96.9548 63.5868 97.12 63.6205C97.2853 63.6543 97.4385 63.7315 97.564 63.8442C97.628 63.9031 97.6821 63.972 97.724 64.0482C97.7648 64.1176 97.824 64.1744 97.8951 64.2121C97.9662 64.2499 98.0463 64.2673 98.1267 64.2623C98.207 64.2574 98.2844 64.2303 98.3503 64.184C98.4162 64.1377 98.468 64.0741 98.5 64.0002C98.984 62.8482 98.28 61.0122 97.232 59.6002C96.676 58.8562 96.704 59.0442 96.488 58.1402C96.304 57.3882 96.58 56.6042 96.916 55.9082C97.368 54.9762 97.944 54.0722 97.764 52.9602C97.7301 52.7272 97.6399 52.506 97.5011 52.3157C97.3624 52.1254 97.1794 51.9718 96.968 51.8682Z" fill="#263238"/>
<path d="M95.4284 61.0727C95.9224 61.5968 96.6044 61.9033 97.3244 61.9247C98.2804 61.9487 98.5244 61.0367 98.0604 60.2567C97.6604 59.5567 96.6444 58.7047 95.7804 59.0567C94.9164 59.4087 94.8284 60.4007 95.4284 61.0727Z" fill="#E8BFBF"/>
<path d="M101.3 57.3045C101.412 57.5765 101.632 57.7245 101.804 57.6525C101.976 57.5805 102.02 57.3205 101.924 57.0525C101.828 56.7845 101.596 56.6525 101.42 56.7045C101.244 56.7565 101.208 57.0405 101.3 57.3045Z" fill="#263238"/>
<path d="M104.24 56.0408C104.348 56.3168 104.568 56.4608 104.74 56.3928C104.912 56.3248 104.956 56.0608 104.86 55.7928C104.764 55.5248 104.532 55.3928 104.36 55.4448C104.188 55.4968 104.136 55.7808 104.24 56.0408Z" fill="#263238"/>
<path d="M104.284 55.4926L104.84 55.0566C104.84 55.0566 104.72 55.6766 104.284 55.4926Z" fill="#263238"/>
<path d="M103.48 56.6279C104.16 57.2999 104.68 57.4279 105.408 57.8839C105.401 58.0676 105.336 58.2442 105.221 58.388C105.107 58.5319 104.95 58.6356 104.772 58.6839L103.48 56.6279Z" fill="#ED847E"/>
<path d="M104.46 59.968C104.587 59.9213 104.711 59.8638 104.828 59.796C104.847 59.7859 104.86 59.7688 104.866 59.7486C104.872 59.7284 104.87 59.7066 104.86 59.688C104.848 59.67 104.831 59.6567 104.81 59.6508C104.789 59.645 104.767 59.6468 104.748 59.656C104.442 59.8338 104.098 59.9359 103.745 59.954C103.391 59.9721 103.039 59.9056 102.716 59.76C102.696 59.7502 102.674 59.7484 102.653 59.7552C102.632 59.7619 102.614 59.7766 102.604 59.796C102.598 59.8054 102.595 59.8158 102.593 59.8266C102.592 59.8375 102.593 59.8485 102.596 59.8589C102.599 59.8694 102.604 59.8792 102.611 59.8876C102.618 59.8961 102.626 59.903 102.636 59.908C102.921 60.0393 103.229 60.1122 103.542 60.1225C103.855 60.1328 104.167 60.0803 104.46 59.968Z" fill="#263238"/>
<path d="M101.204 55.1241C101.203 55.1608 101.189 55.196 101.166 55.2247C101.143 55.2534 101.112 55.2742 101.076 55.2841C100.308 55.5121 99.9685 56.4841 99.9685 56.4841C99.9614 56.5057 99.9501 56.5256 99.9353 56.5428C99.9206 56.56 99.9025 56.5741 99.8823 56.5843C99.862 56.5945 99.84 56.6006 99.8174 56.6023C99.7948 56.604 99.772 56.6012 99.7505 56.5941C99.729 56.587 99.709 56.5758 99.6918 56.561C99.6747 56.5462 99.6606 56.5282 99.6504 56.5079C99.6401 56.4877 99.634 56.4656 99.6323 56.443C99.6306 56.4204 99.6334 56.3977 99.6405 56.3761C99.6685 56.3361 100.04 55.2201 100.976 54.9401C101.021 54.9288 101.068 54.9349 101.108 54.9572C101.148 54.9795 101.179 55.0163 101.192 55.0601C101.202 55.0801 101.206 55.1021 101.204 55.1241Z" fill="#263238"/>
<path d="M104.744 54.6522C104.714 54.6733 104.679 54.6847 104.642 54.6847C104.606 54.6847 104.57 54.6733 104.54 54.6522C103.916 54.1482 102.92 54.4242 102.916 54.4282C102.894 54.4349 102.871 54.4373 102.849 54.4351C102.826 54.4329 102.804 54.4262 102.784 54.4154C102.764 54.4046 102.746 54.3899 102.732 54.3722C102.717 54.3545 102.707 54.3341 102.7 54.3122C102.688 54.2681 102.693 54.221 102.714 54.1806C102.736 54.1403 102.772 54.11 102.816 54.0962C102.864 54.0962 104.016 53.7682 104.756 54.3762C104.791 54.4057 104.813 54.4473 104.818 54.4926C104.823 54.5379 104.811 54.5835 104.784 54.6202C104.773 54.6331 104.759 54.644 104.744 54.6522Z" fill="#263238"/>
<path d="M101.364 56.7484L101.92 56.3164C101.92 56.3164 101.792 56.9364 101.364 56.7484Z" fill="#263238"/>
<path d="M97.2085 51.3443C96.7708 51.3829 96.3475 51.5203 95.9706 51.7462C95.5937 51.9721 95.2729 52.2805 95.0325 52.6483C94.7125 53.1443 94.6005 53.8963 95.0725 54.2483C95.3133 54.3952 95.5905 54.4715 95.8725 54.4683C97.0725 54.5763 98.5885 53.6363 98.5885 53.6363C98.1205 51.6363 102.292 50.1083 104.348 53.1883C104.952 54.0923 104.788 54.7483 105.792 55.1683C106.264 55.3643 106.888 55.3083 107.192 55.7243C107.692 56.4083 106.728 57.5683 107.34 58.1563C107.76 58.5563 108.712 58.4043 108.772 58.9843C108.796 59.2563 108.62 59.6483 108.88 59.7283C109.024 59.7723 109.16 59.6403 109.252 59.5203C109.502 59.2519 109.686 58.9286 109.788 58.5763C109.837 58.4003 109.827 58.213 109.758 58.0437C109.689 57.8744 109.566 57.7326 109.408 57.6403C109.152 57.5243 108.476 57.6403 108.52 57.9283C108.417 57.2939 108.383 56.6501 108.42 56.0083C108.532 55.4723 109.044 55.0043 108.888 54.4763C108.732 53.9483 108.056 53.6763 107.476 53.6043C106.896 53.5323 106.236 53.4483 105.876 52.9843C105.516 52.5203 105.66 51.7203 105.532 51.0763C105.425 50.6739 105.225 50.3024 104.947 49.9923C104.668 49.6823 104.321 49.4424 103.932 49.2923C101.592 48.2883 98.0045 48.4323 97.2085 51.3443Z" fill="#263238"/>
<path d="M103.796 62.0003L95.7963 66.0203C94.5244 66.6577 93.5372 67.7482 93.0294 69.0772C92.5215 70.4061 92.5297 71.8771 93.0523 73.2003L96.9003 83.0403C97.4195 84.3623 98.4133 85.4431 99.6872 86.0711C100.961 86.6992 102.424 86.8294 103.788 86.4363L112.388 83.9563C113.151 83.7376 113.86 83.3619 114.469 82.8534C115.078 82.3449 115.574 81.7148 115.925 81.0035C116.276 80.2921 116.475 79.5152 116.509 78.7225C116.543 77.9298 116.41 77.1389 116.12 76.4003L111.66 65.0323C111.373 64.2929 110.934 63.6216 110.373 63.0614C109.811 62.5012 109.138 62.0645 108.398 61.7791C107.658 61.4937 106.866 61.3659 106.074 61.404C105.281 61.4421 104.506 61.6452 103.796 62.0003ZM102.472 78.8963C101.834 79.1467 101.135 79.202 100.465 79.0553C99.7947 78.9086 99.1832 78.5664 98.7075 78.072C98.2319 77.5777 97.9135 76.9534 97.7928 76.2781C97.672 75.6028 97.7542 74.9068 98.029 74.2782C98.3039 73.6497 98.7589 73.1167 99.3367 72.7468C99.9144 72.3769 100.589 72.1867 101.275 72.2002C101.961 72.2137 102.627 72.4303 103.19 72.8227C103.753 73.215 104.186 73.7654 104.436 74.4043C104.605 74.8291 104.687 75.283 104.68 75.7399C104.672 76.1968 104.574 76.6476 104.391 77.0666C104.209 77.4855 103.945 77.8642 103.616 78.1809C103.287 78.4977 102.898 78.7462 102.472 78.9123V78.8963Z" fill="#EF7B71"/>
<path d="M103.796 62.0003L95.7963 66.0203C94.5244 66.6577 93.5372 67.7482 93.0294 69.0772C92.5215 70.4061 92.5297 71.8771 93.0523 73.2003L96.9003 83.0403C97.4195 84.3623 98.4133 85.4431 99.6872 86.0711C100.961 86.6992 102.424 86.8294 103.788 86.4363L112.388 83.9563C113.151 83.7376 113.86 83.3619 114.469 82.8534C115.078 82.3449 115.574 81.7148 115.925 81.0035C116.276 80.2921 116.475 79.5152 116.509 78.7225C116.543 77.9298 116.41 77.1389 116.12 76.4003L111.66 65.0323C111.373 64.2929 110.934 63.6216 110.373 63.0614C109.811 62.5012 109.138 62.0645 108.398 61.7791C107.658 61.4937 106.866 61.3659 106.074 61.404C105.281 61.4421 104.506 61.6452 103.796 62.0003ZM102.472 78.8963C101.834 79.1467 101.135 79.202 100.465 79.0553C99.7947 78.9086 99.1832 78.5664 98.7075 78.072C98.2319 77.5777 97.9135 76.9534 97.7928 76.2781C97.672 75.6028 97.7542 74.9068 98.029 74.2782C98.3039 73.6497 98.7589 73.1167 99.3367 72.7468C99.9144 72.3769 100.589 72.1867 101.275 72.2002C101.961 72.2137 102.627 72.4303 103.19 72.8227C103.753 73.215 104.186 73.7654 104.436 74.4043C104.605 74.8291 104.687 75.283 104.68 75.7399C104.672 76.1968 104.574 76.6476 104.391 77.0666C104.209 77.4855 103.945 77.8642 103.616 78.1809C103.287 78.4977 102.898 78.7462 102.472 78.9123V78.8963Z" fill="#EF7B71"/>
<path opacity="0.1" d="M116.121 76.4003L111.661 65.0323C111.373 64.2929 110.935 63.6216 110.373 63.0614C109.811 62.5012 109.139 62.0645 108.398 61.7791C107.658 61.4937 106.867 61.3659 106.074 61.404C105.282 61.4421 104.506 61.6452 103.797 62.0003L101.473 63.2003L99.9126 64.0003L95.8006 66.0683C94.5393 66.7042 93.5594 67.7864 93.0515 69.1045C92.5436 70.4226 92.544 71.8825 93.0526 73.2003L96.9006 83.0403C97.4198 84.3623 98.4136 85.4431 99.6875 86.0711C100.961 86.6992 102.424 86.8294 103.789 86.4363L112.393 83.9563C113.074 83.76 113.711 83.437 114.273 83.0043C114.694 82.6867 115.068 82.3094 115.381 81.8843C115.961 81.1091 116.334 80.1984 116.464 79.2385C116.593 78.2787 116.475 77.3017 116.121 76.4003ZM102.473 78.9043C101.834 79.1536 101.136 79.2082 100.467 79.0612C99.7975 78.9141 99.1866 78.572 98.7115 78.0781C98.2364 77.5841 97.9183 76.9605 97.7974 76.2859C97.6764 75.6113 97.7581 74.916 98.032 74.2878C98.306 73.6595 98.7599 73.1265 99.3366 72.7561C99.9132 72.3857 100.587 72.1944 101.272 72.2065C101.957 72.2185 102.623 72.4333 103.187 72.8238C103.75 73.2142 104.185 73.7628 104.437 74.4003C104.606 74.8254 104.689 75.2796 104.681 75.737C104.674 76.1943 104.576 76.6456 104.394 77.065C104.211 77.4844 103.947 77.8635 103.618 78.1805C103.288 78.4976 102.899 78.7463 102.473 78.9123V78.9043Z" fill="white"/>
<path d="M103.877 62.7686L96.3765 66.5366C95.1867 67.134 94.263 68.1543 93.7864 69.3974C93.3099 70.6406 93.3149 72.0169 93.8005 73.2566L97.4205 82.4806C97.9044 83.7234 98.8352 84.7406 100.03 85.3327C101.225 85.9247 102.599 86.0488 103.881 85.6806L111.945 83.3526C112.658 83.1467 113.322 82.7941 113.891 82.3173C114.461 81.8406 114.925 81.2501 115.254 80.5838C115.583 79.9174 115.769 79.1898 115.8 78.4474C115.832 77.7051 115.708 76.9643 115.437 76.2726L111.257 65.6006C110.986 64.9077 110.573 64.279 110.045 63.7546C109.518 63.2302 108.886 62.8217 108.192 62.5552C107.497 62.2887 106.755 62.17 106.012 62.2067C105.269 62.2435 104.541 62.4348 103.877 62.7686ZM97.9765 76.9486C97.7265 76.31 97.6714 75.6116 97.8182 74.9417C97.9651 74.2718 98.3072 73.6605 98.8014 73.185C99.2956 72.7095 99.9197 72.3913 100.595 72.2704C101.27 72.1496 101.966 72.2317 102.594 72.5062C103.223 72.7807 103.755 73.2354 104.126 73.8128C104.496 74.3902 104.686 75.0643 104.673 75.75C104.66 76.4357 104.444 77.1021 104.052 77.665C103.661 78.2279 103.111 78.6621 102.473 78.9126C102.048 79.0795 101.596 79.1612 101.14 79.1528C100.684 79.1444 100.235 79.0462 99.8169 78.8637C99.3992 78.6813 99.0217 78.4182 98.7058 78.0896C98.39 77.7609 98.1422 77.3732 97.9765 76.9486Z" fill="#EF7B71"/>
<path opacity="0.1" d="M103.877 62.7686L96.3765 66.5366C95.1867 67.134 94.263 68.1543 93.7864 69.3974C93.3099 70.6406 93.3149 72.0169 93.8005 73.2566L97.4205 82.4806C97.9044 83.7234 98.8352 84.7406 100.03 85.3327C101.225 85.9247 102.599 86.0488 103.881 85.6806L111.945 83.3526C112.658 83.1467 113.322 82.7941 113.891 82.3173C114.461 81.8406 114.925 81.2501 115.254 80.5838C115.583 79.9174 115.769 79.1898 115.8 78.4474C115.832 77.7051 115.708 76.9643 115.437 76.2726L111.257 65.6006C110.986 64.9077 110.573 64.279 110.045 63.7546C109.518 63.2302 108.886 62.8217 108.192 62.5552C107.497 62.2887 106.755 62.17 106.012 62.2067C105.269 62.2435 104.541 62.4348 103.877 62.7686ZM97.9765 76.9486C97.7265 76.31 97.6714 75.6116 97.8182 74.9417C97.9651 74.2718 98.3072 73.6605 98.8014 73.185C99.2956 72.7095 99.9197 72.3913 100.595 72.2704C101.27 72.1496 101.966 72.2317 102.594 72.5062C103.223 72.7807 103.755 73.2354 104.126 73.8128C104.496 74.3902 104.686 75.0643 104.673 75.75C104.66 76.4357 104.444 77.1021 104.052 77.665C103.661 78.2279 103.111 78.6621 102.473 78.9126C102.048 79.0795 101.596 79.1612 101.14 79.1528C100.684 79.1444 100.235 79.0462 99.8169 78.8637C99.3992 78.6813 99.0217 78.4182 98.7058 78.0896C98.39 77.7609 98.1422 77.3732 97.9765 76.9486Z" fill="#EF7B71"/>
<path d="M141.149 59.2003L140.921 59.6003L140.793 59.8323L140.429 60.4923L140.581 62.1843C140.589 62.2558 140.581 62.3283 140.557 62.3963C140.532 62.4699 140.492 62.5373 140.438 62.5939C140.385 62.6505 140.32 62.695 140.249 62.7243L137.089 63.9603C137.016 63.989 136.939 64.0011 136.861 63.9956C136.783 63.99 136.708 63.967 136.641 63.9283C136.596 63.9059 136.555 63.8762 136.521 63.8403L134.733 62.0203L132.189 63.0163L132.557 63.9563L130.017 64.9483L130.621 66.4963L128.753 67.2283C128.678 67.2572 128.598 67.27 128.518 67.2659C128.438 67.2618 128.36 67.2408 128.289 67.2043C128.24 67.1811 128.195 67.15 128.157 67.1123L127.081 66.1003L124.537 67.0923L125.145 68.6403L122.473 69.6883L123.081 71.2403C123.105 71.3007 123.116 71.3652 123.115 71.4301C123.114 71.495 123.1 71.5591 123.074 71.6186C123.048 71.6781 123.01 71.7318 122.963 71.7768C122.916 71.8217 122.861 71.8568 122.801 71.8803L115.485 74.7443L112.309 66.6443L138.781 56.2803L139.181 56.4923L140.521 57.1843C140.697 57.272 140.855 57.3946 140.983 57.5448C141.111 57.695 141.207 57.8695 141.266 58.058C141.324 58.2464 141.344 58.4448 141.324 58.6411C141.304 58.8375 141.244 59.0277 141.149 59.2003Z" fill="#EF7B71"/>
<g opacity="0.1">
<path d="M141.149 59.2003L140.921 59.6003L140.793 59.8323L140.429 60.4923L140.581 62.1843C140.589 62.2558 140.581 62.3283 140.557 62.3963C140.532 62.4699 140.492 62.5373 140.438 62.5939C140.385 62.6505 140.32 62.695 140.249 62.7243L137.089 63.9603C137.016 63.989 136.939 64.0011 136.861 63.9956C136.783 63.99 136.708 63.967 136.641 63.9283C136.596 63.9059 136.555 63.8762 136.521 63.8403L134.733 62.0203L132.189 63.0163L132.557 63.9563L130.017 64.9483L130.621 66.4963L128.753 67.2283C128.678 67.2572 128.598 67.27 128.518 67.2659C128.438 67.2618 128.36 67.2408 128.289 67.2043C128.24 67.1811 128.195 67.15 128.157 67.1123L127.081 66.1003L124.537 67.0923L125.145 68.6403L122.473 69.6883L123.081 71.2403C123.105 71.3007 123.116 71.3652 123.115 71.4301C123.114 71.495 123.1 71.5591 123.074 71.6186C123.048 71.6781 123.01 71.7318 122.963 71.7768C122.916 71.8217 122.861 71.8568 122.801 71.8803L115.485 74.7443L112.309 66.6443L138.781 56.2803L139.181 56.4923L140.521 57.1843C140.697 57.272 140.855 57.3946 140.983 57.5448C141.111 57.695 141.207 57.8695 141.266 58.058C141.324 58.2464 141.344 58.4448 141.324 58.6411C141.304 58.8375 141.244 59.0277 141.149 59.2003Z" fill="white"/>
</g>
<path d="M141.044 58.2886L112.74 69.3686L111.916 67.2886L138.9 56.7246L140.244 57.4126C140.756 57.6766 141.048 57.9206 141.044 58.2886Z" fill="#EF7B71"/>
<path opacity="0.1" d="M141.044 58.2886L112.74 69.3686L111.916 67.2886L138.9 56.7246L140.244 57.4126C140.756 57.6766 141.048 57.9206 141.044 58.2886Z" fill="black"/>
<path d="M140.5 59.8482L140.228 60.4642C140.226 60.4747 140.226 60.4856 140.228 60.4962L140.384 62.1682C140.394 62.2277 140.394 62.2886 140.384 62.3482C140.382 62.3582 140.377 62.3674 140.37 62.3751C140.363 62.3828 140.354 62.3886 140.344 62.3922L136.908 63.7442C136.9 63.7491 136.89 63.7517 136.88 63.7517C136.87 63.7517 136.861 63.7491 136.852 63.7442C136.818 63.7236 136.787 63.698 136.76 63.6682L134.792 61.6922C134.782 61.6853 134.77 61.6816 134.758 61.6816C134.746 61.6816 134.734 61.6853 134.724 61.6922L131.924 62.7882C131.909 62.7952 131.897 62.8077 131.89 62.8232C131.883 62.8388 131.883 62.8562 131.888 62.8722L132.22 63.7162C132.224 63.724 132.225 63.7325 132.225 63.741C132.225 63.7495 132.223 63.7579 132.22 63.7657C132.217 63.7736 132.212 63.7806 132.206 63.7865C132.199 63.7925 132.192 63.7971 132.184 63.8002L129.804 64.7362C129.796 64.7393 129.789 64.7439 129.783 64.7498C129.777 64.7557 129.772 64.7628 129.769 64.7706C129.765 64.7784 129.764 64.7869 129.763 64.7954C129.763 64.8039 129.765 64.8123 129.768 64.8202L130.34 66.2722C130.344 66.28 130.346 66.2885 130.347 66.2972C130.347 66.3059 130.345 66.3145 130.342 66.3225C130.338 66.3305 130.333 66.3376 130.327 66.3435C130.32 66.3493 130.313 66.3536 130.304 66.3562L128.56 67.0442C128.552 67.0491 128.542 67.0517 128.532 67.0517C128.522 67.0517 128.513 67.0491 128.504 67.0442C128.468 67.0234 128.434 66.9979 128.404 66.9682L127.124 65.7922C127.115 65.7866 127.104 65.7836 127.092 65.7836C127.081 65.7836 127.07 65.7866 127.06 65.7922L124.288 66.8842C124.28 66.8867 124.272 66.8911 124.266 66.8969C124.259 66.9027 124.254 66.9099 124.251 66.9179C124.247 66.9258 124.246 66.9345 124.246 66.9432C124.246 66.9519 124.248 66.9604 124.252 66.9682L124.836 68.4562C124.84 68.464 124.842 68.4725 124.843 68.4812C124.843 68.4899 124.841 68.4985 124.838 68.5065C124.834 68.5145 124.829 68.5216 124.823 68.5274C124.816 68.5333 124.809 68.5376 124.8 68.5402L114.156 72.7282C114.141 72.7335 114.124 72.7327 114.109 72.726C114.094 72.7193 114.083 72.7072 114.076 72.6922L112.98 70.0002C112.975 69.9842 112.975 69.9668 112.982 69.9512C112.989 69.9357 113.001 69.9232 113.016 69.9162L140.752 59.0002C140.764 58.9957 140.777 58.9949 140.79 58.9979C140.802 59.0009 140.814 59.0076 140.822 59.017C140.831 59.0265 140.836 59.0384 140.838 59.051C140.84 59.0637 140.838 59.0767 140.832 59.0882L140.5 59.8482Z" fill="#EF7B71"/>
<path opacity="0.1" d="M140.5 59.8482L140.228 60.4642C140.226 60.4747 140.226 60.4856 140.228 60.4962L140.384 62.1682C140.394 62.2277 140.394 62.2886 140.384 62.3482C140.382 62.3582 140.377 62.3674 140.37 62.3751C140.363 62.3828 140.354 62.3886 140.344 62.3922L136.908 63.7442C136.9 63.7491 136.89 63.7517 136.88 63.7517C136.87 63.7517 136.861 63.7491 136.852 63.7442C136.818 63.7236 136.787 63.698 136.76 63.6682L134.792 61.6922C134.782 61.6853 134.77 61.6816 134.758 61.6816C134.746 61.6816 134.734 61.6853 134.724 61.6922L131.924 62.7882C131.909 62.7952 131.897 62.8077 131.89 62.8232C131.883 62.8388 131.883 62.8562 131.888 62.8722L132.22 63.7162C132.224 63.724 132.225 63.7325 132.225 63.741C132.225 63.7495 132.223 63.7579 132.22 63.7657C132.217 63.7736 132.212 63.7806 132.206 63.7865C132.199 63.7925 132.192 63.7971 132.184 63.8002L129.804 64.7362C129.796 64.7393 129.789 64.7439 129.783 64.7498C129.777 64.7557 129.772 64.7628 129.769 64.7706C129.765 64.7784 129.764 64.7869 129.763 64.7954C129.763 64.8039 129.765 64.8123 129.768 64.8202L130.34 66.2722C130.344 66.28 130.346 66.2885 130.347 66.2972C130.347 66.3059 130.345 66.3145 130.342 66.3225C130.338 66.3305 130.333 66.3376 130.327 66.3435C130.32 66.3493 130.313 66.3536 130.304 66.3562L128.56 67.0442C128.552 67.0491 128.542 67.0517 128.532 67.0517C128.522 67.0517 128.513 67.0491 128.504 67.0442C128.468 67.0234 128.434 66.9979 128.404 66.9682L127.124 65.7922C127.115 65.7866 127.104 65.7836 127.092 65.7836C127.081 65.7836 127.07 65.7866 127.06 65.7922L124.288 66.8842C124.28 66.8867 124.272 66.8911 124.266 66.8969C124.259 66.9027 124.254 66.9099 124.251 66.9179C124.247 66.9258 124.246 66.9345 124.246 66.9432C124.246 66.9519 124.248 66.9604 124.252 66.9682L124.836 68.4562C124.84 68.464 124.842 68.4725 124.843 68.4812C124.843 68.4899 124.841 68.4985 124.838 68.5065C124.834 68.5145 124.829 68.5216 124.823 68.5274C124.816 68.5333 124.809 68.5376 124.8 68.5402L114.156 72.7282C114.141 72.7335 114.124 72.7327 114.109 72.726C114.094 72.7193 114.083 72.7072 114.076 72.6922L112.98 70.0002C112.975 69.9842 112.975 69.9668 112.982 69.9512C112.989 69.9357 113.001 69.9232 113.016 69.9162L140.752 59.0002C140.764 58.9957 140.777 58.9949 140.79 58.9979C140.802 59.0009 140.814 59.0076 140.822 59.017C140.831 59.0265 140.836 59.0384 140.838 59.051C140.84 59.0637 140.838 59.0767 140.832 59.0882L140.5 59.8482Z" fill="black"/>
<path opacity="0.3" d="M99.7284 71.6005C98.9284 71.9149 98.2395 72.4594 97.7488 73.1652C97.258 73.871 96.9876 74.7064 96.9715 75.5659C96.9554 76.4253 97.1944 77.2703 97.6583 77.9939C98.1223 78.7176 98.7903 79.2875 99.578 79.6316C100.366 79.9758 101.238 80.0787 102.084 79.9274C102.93 79.7761 103.713 79.3774 104.332 78.7816C104.952 78.1858 105.381 77.4198 105.565 76.5802C105.75 75.7406 105.681 74.8652 105.368 74.0645C105.161 73.5314 104.851 73.0445 104.455 72.6318C104.059 72.2192 103.585 71.8888 103.061 71.6598C102.537 71.4309 101.972 71.3077 101.4 71.2976C100.829 71.2874 100.26 71.3903 99.7284 71.6005ZM102.472 78.9205C101.834 79.1709 101.135 79.2262 100.465 79.0795C99.7948 78.9328 99.1832 78.5906 98.7076 78.0963C98.2319 77.6019 97.9136 76.9776 97.7928 76.3023C97.6721 75.627 97.7543 74.931 98.0291 74.3025C98.3039 73.6739 98.759 73.141 99.3367 72.7711C99.9145 72.4012 100.589 72.2109 101.275 72.2244C101.961 72.2379 102.627 72.4545 103.19 72.8469C103.753 73.2392 104.187 73.7896 104.436 74.4285C104.769 75.2837 104.749 76.2358 104.381 77.0762C104.012 77.9166 103.326 78.5769 102.472 78.9125V78.9205Z" fill="white"/>
<path opacity="0.1" d="M115.384 81.8807C115.073 82.3057 114.701 82.683 114.28 83.0007L99.9082 63.9647C99.9082 63.9647 101.176 63.3287 101.464 63.1367C101.466 63.1579 101.473 63.1784 101.484 63.1967C102.1 64.5287 113.396 79.2007 115.384 81.8807Z" fill="white"/>
<path opacity="0.1" d="M113.3 83.6004C113.212 83.6404 109.024 84.9164 109.024 84.9164L104.356 78.7364C105.06 78.0324 105.502 77.1079 105.606 76.1175C105.711 75.1271 105.472 74.1308 104.93 73.2952C104.388 72.4596 103.576 71.8354 102.629 71.5269C101.682 71.2184 100.658 71.2444 99.7279 71.6004C99.5349 71.6726 99.3487 71.7623 99.1719 71.8684L95.0439 66.4004C95.0439 66.4004 98.6719 64.6724 99.0719 64.4004C99.1799 65.1724 113.3 83.4404 113.3 83.6004Z" fill="white"/>
<path d="M96.1762 53.5765C95.9416 53.855 95.7739 54.1836 95.6862 54.537C95.5986 54.8905 95.5931 55.2593 95.6704 55.6152C95.7477 55.9711 95.9056 56.3045 96.132 56.5897C96.3584 56.8749 96.6472 57.1044 96.9762 57.2605C97.3202 57.4205 97.6962 57.4965 98.0322 57.6605C98.2076 57.7313 98.3625 57.8449 98.4827 57.9909C98.6028 58.1369 98.6845 58.3108 98.7202 58.4965C98.7602 58.8965 98.4522 59.2965 98.4842 59.6965C98.5186 59.8838 98.5914 60.0619 98.6981 60.2195C98.8049 60.3772 98.9431 60.511 99.1042 60.6125C99.4282 60.815 99.7018 61.0886 99.9042 61.4125C99.9497 61.4948 99.9777 61.5855 99.9866 61.6791C99.9954 61.7727 99.9849 61.8671 99.9556 61.9565C99.9263 62.0458 99.8789 62.1281 99.8164 62.1983C99.7539 62.2685 99.6776 62.3251 99.5922 62.3645C99.5491 62.4408 99.5265 62.5269 99.5265 62.6145C99.5265 62.7021 99.5491 62.7882 99.5922 62.8645C99.6436 62.9165 99.7108 62.9498 99.7833 62.9593C99.8558 62.9687 99.9293 62.9536 99.9922 62.9165C100.277 62.7387 100.513 62.4934 100.68 62.2024C100.846 61.9115 100.939 61.5838 100.948 61.2485C100.944 60.9163 100.847 60.5919 100.667 60.3124C100.488 60.033 100.233 59.8098 99.9322 59.6685C99.8941 59.5488 99.8805 59.4227 99.8922 59.2976C99.9039 59.1725 99.9406 59.0511 100 58.9405C100.18 58.4845 100.364 58.0245 100.548 57.5685C100.578 57.4566 100.583 57.3397 100.563 57.2258C100.543 57.1118 100.498 57.0036 100.432 56.9085C100.296 56.7712 100.13 56.666 99.9482 56.6005L98.7682 56.0965C98.3242 55.9045 97.0002 54.1365 98.5682 53.6205C98.4739 53.4204 98.3262 53.2502 98.1412 53.1288C97.9563 53.0073 97.7414 52.9394 97.5202 52.9325C97.2604 52.9199 97.0014 52.9722 96.7668 53.0846C96.5322 53.197 96.3292 53.3661 96.1762 53.5765Z" fill="#263238"/>
<path d="M98.3163 51.6728L98.1963 53.0688C98.5963 52.4288 99.3123 51.1848 99.2883 51.2328C98.9803 51.4008 98.6243 51.5048 98.3163 51.6728Z" fill="#263238"/>
<path d="M98.8438 52.4366L100.484 50.9206C100.27 50.8467 100.04 50.8345 99.8203 50.8854C99.6002 50.9364 99.399 51.0484 99.2398 51.2086C99.2518 51.1726 98.9957 51.9486 98.8438 52.4366Z" fill="#263238"/>
<path d="M95.5125 90.2803C93.3805 92.9283 94.0885 94.9563 91.1445 99.6443C94.8605 102.396 98.9325 102.844 103.993 102.444C104.593 101.384 104.893 100.28 105.493 99.2203C106.349 100.284 107.037 101.176 107.893 102.244C110.545 101.844 113.697 101.08 115.793 99.7283C113.941 97.6043 112.789 94.9523 111.605 92.6123C111.049 91.5123 111.281 91.0523 109.805 89.6123C105.105 89.8283 100.445 89.9403 95.7485 90.1603C95.8765 90.1803 95.3885 90.2723 95.5125 90.2803Z" fill="#263238"/>
<path d="M96.1002 89.8364L95.8082 91.0724C95.7642 91.1724 95.8802 91.2644 96.0362 91.2524L108.992 90.6804C109.042 90.6864 109.091 90.6748 109.133 90.6478C109.175 90.6207 109.206 90.5799 109.22 90.5324L109.288 89.3044C109.288 89.2244 109.18 89.1524 109.044 89.1644L96.3202 89.7244C96.277 89.7226 96.2341 89.732 96.1956 89.7516C96.1571 89.7712 96.1242 89.8004 96.1002 89.8364Z" fill="#EF7B71"/>
<path d="M96.1002 89.8364L95.8082 91.0724C95.7642 91.1724 95.8802 91.2644 96.0362 91.2524L108.992 90.6804C109.042 90.6864 109.091 90.6748 109.133 90.6478C109.175 90.6207 109.206 90.5799 109.22 90.5324L109.288 89.3044C109.288 89.2244 109.18 89.1524 109.044 89.1644L96.3202 89.7244C96.277 89.7226 96.2341 89.732 96.1956 89.7516C96.1571 89.7712 96.1242 89.8004 96.1002 89.8364Z" fill="#EF7B71"/>
<path d="M98.9524 91.2567H98.5764C98.5044 91.2567 98.4444 91.2247 98.4484 91.1807L98.5484 89.5807C98.5484 89.5327 98.6164 89.4927 98.6884 89.4927L99.0684 89.4727C99.1364 89.4727 99.1964 89.5047 99.1924 89.5527L99.0924 91.1527C99.0884 91.2007 99.0244 91.2527 98.9524 91.2567Z" fill="#263238"/>
<path d="M108.304 90.852H107.928C107.856 90.852 107.796 90.82 107.8 90.776L107.9 89.176C107.9 89.128 107.968 89.084 108.04 89.084H108.416C108.488 89.084 108.544 89.116 108.54 89.16L108.44 90.76C108.44 90.8 108.38 90.848 108.304 90.852Z" fill="#263238"/>
<path d="M100.624 83.4887C100.648 83.6047 101.652 85.2047 102.444 85.0887C102.557 85.0732 102.671 85.0876 102.777 85.1304C102.882 85.1732 102.974 85.243 103.044 85.3327C103.36 85.7327 103.552 85.9807 103.764 86.2527C103.932 86.4674 104.168 86.6184 104.434 86.681C104.699 86.7435 104.978 86.7138 105.224 86.5967C105.372 86.5287 105.52 86.4527 105.668 86.3727C105.907 86.2479 106.097 86.0462 106.207 85.8002C106.317 85.5542 106.342 85.2782 106.276 85.0167C106.129 84.427 105.902 83.8603 105.6 83.3327C105.511 83.1449 105.373 82.9846 105.2 82.8687C104.369 82.5506 103.498 82.3461 102.612 82.2607C101.932 82.2887 101.268 83.2007 100.624 83.4887Z" fill="#E8BFBF"/>
<path d="M102.652 82.2128C102.652 82.2128 92.0202 78.9928 89.7242 81.1368C88.3762 82.3968 89.0122 83.5888 89.7682 84.3368C90.3282 84.9088 91.5482 84.7688 92.3482 84.7368L100.724 83.9128L102.652 82.2128Z" fill="#E8BFBF"/>
<path d="M96.5403 80.7405C96.4925 80.4544 96.3742 80.1846 96.1962 79.9555C96.0181 79.7265 95.7858 79.5454 95.5203 79.4285C94.9878 79.2029 94.4213 79.0677 93.8443 79.0285L89.8443 78.5205C89.1254 79.4071 88.7216 80.5074 88.6963 81.6485C88.7246 82.7521 89.1281 83.813 89.8403 84.6565C90.4803 83.4205 91.3243 82.1485 92.5723 81.5325C93.8203 80.9165 95.1723 80.4925 96.5403 80.7405Z" fill="#263238"/>
<path opacity="0.1" d="M93.7998 61.3206C93.7998 61.2966 93.7998 61.2846 93.7998 61.2806C93.8838 61.2566 93.8718 61.2726 93.7998 61.3206Z" fill="white"/>
<path d="M120.216 44.1041L123.176 49.6001L135.264 39.3361C135.285 39.3177 135.298 39.2919 135.302 39.264C135.305 39.2361 135.297 39.2081 135.281 39.1854C135.264 39.1628 135.239 39.1472 135.212 39.1418C135.184 39.1363 135.156 39.1415 135.132 39.1561L123.8 46.6361L122.056 43.2281L120.216 44.1041Z" fill="#EF7B71"/>
<path d="M113.536 55.052L118.424 49.6C117.691 48.8866 117.107 48.0358 116.703 47.0961C116.299 46.1565 116.085 45.1465 116.072 44.124C116.072 39.092 121.336 35 127.808 35C134.28 35 139.548 39.092 139.548 44.124C139.548 49.156 134.28 53.244 127.808 53.244C125.53 53.2636 123.282 52.7296 121.256 51.688L113.536 55.052ZM127.808 35.528C121.624 35.528 116.608 39.388 116.608 44.132C116.624 45.1276 116.843 46.1095 117.251 47.0179C117.659 47.9263 118.247 48.7422 118.98 49.416L119.156 49.588L115.536 53.624L121.3 51.12L121.412 51.18C123.385 52.2168 125.584 52.7499 127.812 52.732C134 52.732 139.032 48.876 139.032 44.132C139.032 39.388 133.996 35.528 127.808 35.528Z" fill="#EF7B71"/>
</svg>
