<svg width="225" height="225" viewBox="0 0 225 225" fill="none" xmlns="http://www.w3.org/2000/svg">
<path fill-rule="evenodd" clip-rule="evenodd" d="M73.53 126.281C70.1866 125.716 66.7912 125.519 63.405 125.696C63.3663 125.706 63.332 125.729 63.3075 125.76C63.2829 125.792 63.2696 125.831 63.2696 125.871C63.2696 125.91 63.2829 125.949 63.3075 125.981C63.332 126.012 63.3663 126.035 63.405 126.045C66.7484 126.61 70.1438 126.807 73.53 126.63C73.5687 126.62 73.603 126.597 73.6275 126.566C73.6521 126.534 73.6654 126.495 73.6654 126.456C73.6654 126.416 73.6521 126.377 73.6275 126.345C73.603 126.314 73.5687 126.291 73.53 126.281ZM48.51 84.3749C48.5478 84.4412 48.5988 84.4992 48.6598 84.5452C48.7207 84.5912 48.7904 84.6243 48.8646 84.6425C48.9388 84.6607 49.0159 84.6636 49.0912 84.651C49.1665 84.6384 49.2385 84.6107 49.3028 84.5694C49.367 84.5281 49.4222 84.4741 49.4649 84.4108C49.5076 84.3475 49.537 84.2761 49.5512 84.2011C49.5655 84.1261 49.5643 84.0489 49.5477 83.9743C49.5312 83.8998 49.4996 83.8294 49.455 83.7674C49.2695 83.4616 49.0588 83.1718 48.825 82.9012C48.7727 82.8484 48.7105 82.8066 48.642 82.778C48.5734 82.7495 48.4999 82.7348 48.4256 82.7348C48.3514 82.7348 48.2778 82.7495 48.2093 82.778C48.1408 82.8066 48.0785 82.8484 48.0263 82.9012C47.9735 82.9534 47.9317 83.0157 47.9031 83.0842C47.8746 83.1528 47.8599 83.2263 47.8599 83.3005C47.8599 83.3748 47.8746 83.4483 47.9031 83.5169C47.9317 83.5854 47.9735 83.6476 48.0263 83.6999C48.2028 83.9135 48.3645 84.139 48.51 84.3749ZM51.9975 90.8099C52.1663 90.8099 52.2675 90.8099 52.29 90.6974C52.3125 90.5849 51.0638 89.1674 51.75 88.8749C51.8177 88.8394 51.893 88.8209 51.9694 88.8209C52.0458 88.8209 52.1211 88.8394 52.1888 88.8749C52.2231 88.9047 52.2678 88.9197 52.3132 88.9166C52.3585 88.9134 52.4008 88.8923 52.4306 88.858C52.4605 88.8237 52.4754 88.779 52.4723 88.7336C52.4691 88.6882 52.4481 88.646 52.4138 88.6161C52.3144 88.4743 52.1757 88.3645 52.0148 88.3004C51.8539 88.2363 51.6777 88.2206 51.508 88.2553C51.3383 88.2899 51.1824 88.3734 51.0595 88.4955C50.9366 88.6176 50.852 88.7729 50.8162 88.9424C50.625 89.5724 51.12 90.7649 51.9975 90.8099ZM66.2738 84.9712C68.3663 86.6249 101.441 97.9874 103.005 97.5937C105.12 97.0649 111.476 92.9587 112.162 92.2724C113.76 90.6749 117.473 76.8262 117.979 74.2724C118.091 73.7099 118.215 73.1474 117.979 72.9224C115.729 70.6724 79.83 61.0874 78.84 60.1199C78.7983 60.0871 78.7468 60.0692 78.6937 60.0692C78.6407 60.0692 78.5892 60.0871 78.5475 60.1199C78.2325 60.2999 71.2575 67.2299 71.3588 67.1849C71.0438 67.4099 66.5438 82.0912 66.0825 84.6112C66.0829 84.6822 66.1005 84.752 66.1338 84.8147C66.1671 84.8774 66.2151 84.9311 66.2738 84.9712ZM102.656 96.7499C99.2812 96.2212 70.425 86.4787 66.915 84.6562C67.7138 84.1949 68.8725 83.5874 70.0763 82.9687C75.5213 84.6449 90.7987 90.2024 106.425 95.0061C105.278 95.799 104.003 96.3888 102.656 96.7499ZM106.875 94.7474C96.5588 91.0237 81.9788 85.7474 70.5825 82.7212C72.045 81.9787 73.5188 81.2587 74.4188 80.8312C84.2175 83.2499 101.216 88.7062 111.094 92.0812C110.25 92.6549 108.529 93.7574 106.875 94.7474ZM78.75 60.6149C80.055 61.3012 86.3663 63.2474 93.5438 65.4524C92.7143 67.4376 92.1251 69.5148 91.7887 71.6399C91.7887 72.3487 92.1825 72.6412 92.7675 72.5399C93.78 72.3712 95.4 70.8412 96.2213 70.1324C96.7388 71.3249 97.965 74.7112 99.09 73.8787C99.9 73.2937 100.98 69.3112 101.34 67.8599C109.035 70.2449 115.965 72.5062 117.259 73.4287C117.09 75.2287 112.905 90.5624 111.409 91.7887C97.3575 86.1637 77.9738 80.6511 74.61 80.1786C76.327 73.7333 77.7088 67.2033 78.75 60.6149ZM71.6063 67.3649C72.135 66.8587 76.7025 62.4149 78.2887 60.9412C76.3537 68.6249 75.2063 74.7449 74.25 80.1562C74.0813 80.1562 68.7263 83.0587 66.7238 84.3412C67.3875 81.0787 71.1338 68.4899 71.5725 67.3874L71.6063 67.3649ZM110.677 65.4187C111.724 65.5087 115.279 62.4824 115.56 61.8749C116.111 60.6487 119.171 49.2299 119.205 48.3749C119.21 48.3114 119.201 48.2476 119.18 48.1876C119.158 48.1276 119.125 48.0726 119.081 48.0262C118.429 47.3737 108.293 44.1787 102.274 43.1099C100.122 42.7399 97.9266 42.6906 95.76 42.9637C95.58 42.9637 95.58 43.1437 95.2313 44.1562C90.7313 57.0824 90.36 58.3649 90.7313 58.7812C92.025 60.0074 108.911 65.2499 110.677 65.4187ZM110.745 64.5637C110.858 64.5637 96.66 60.8737 91.8 58.5224C93.24 58.0949 98.0775 56.8349 98.0888 56.9362C98.01 56.6999 111.476 61.0312 114.638 61.6612C113.514 62.8422 112.198 63.8236 110.745 64.5637ZM113.153 46.5637C114.93 47.0705 116.668 47.7098 118.35 48.4762C118.024 50.1524 115.515 59.4787 114.851 61.3012C114.739 61.3012 102.746 56.9924 98.4713 56.1712C99.8331 52.0279 100.986 47.8189 101.925 43.5599C103.669 43.8749 105.671 44.3699 107.685 44.9324C107.058 46.2952 106.604 47.7315 106.335 49.2074C106.335 49.8712 106.988 50.0062 107.618 49.7474C108.402 49.337 109.155 48.8669 109.868 48.3412C110.419 49.1348 110.915 49.9655 111.353 50.8274C111.713 51.2887 112.151 51.2549 112.376 50.8949C112.912 49.5225 113.175 48.0591 113.153 46.5862V46.5637ZM95.895 43.1887C97.7714 42.9895 99.6669 43.0691 101.52 43.4249C99.935 47.5118 98.7666 51.7483 98.0325 56.0699C95.7372 56.6353 93.4822 57.3532 91.2825 58.2187C91.125 58.0949 95.625 44.3362 95.895 43.2562V43.1887ZM148.804 157.995C148.928 156.521 149.4 139.624 148.984 138.33C148.952 138.224 148.891 138.13 148.807 138.058C148.723 137.986 148.621 137.94 148.511 137.925C145.845 137.171 115.785 137.149 113.76 138.161C113.699 138.205 113.648 138.263 113.611 138.329C113.574 138.395 113.552 138.468 113.546 138.544C113.333 140.04 113.209 156.544 113.546 158.434C107.741 158.602 103.849 158.805 103.511 159.019C100.868 160.639 102.386 201.6 102.656 205.83C102.692 206.875 102.828 207.915 103.061 208.935C104.186 210.949 172.193 211.444 174.589 208.226C174.86 207.371 174.997 206.479 174.994 205.582C175.5 198.135 175.883 159.952 174.656 158.749C174.06 158.197 162.473 157.984 148.804 157.995ZM114.21 138.735C116.317 138.456 118.441 138.317 120.566 138.319C120.431 139.438 120.371 140.566 120.386 141.694C120.386 142.132 120.386 142.661 120.791 142.819C121.916 143.404 128.171 143.235 129.082 142.819C129.2 142.757 129.289 142.652 129.33 142.526C129.428 141.109 129.36 139.686 129.128 138.285H135.405C134.997 142.639 134.963 147.02 135.304 151.38C135.304 151.402 135.308 151.424 135.317 151.444C135.325 151.465 135.338 151.484 135.353 151.499C135.369 151.515 135.387 151.527 135.408 151.536C135.428 151.544 135.45 151.549 135.473 151.549C135.495 151.549 135.517 151.544 135.537 151.536C135.558 151.527 135.576 151.515 135.592 151.499C135.607 151.484 135.62 151.465 135.628 151.444C135.637 151.424 135.641 151.402 135.641 151.38C136.048 147.026 136.086 142.645 135.754 138.285H139.05C138.925 139.879 138.894 141.48 138.96 143.077C138.96 143.696 140.085 143.64 144.9 143.336C145.003 143.328 145.098 143.282 145.169 143.207C145.24 143.132 145.28 143.034 145.283 142.931C145.268 141.418 145.098 139.91 144.776 138.431C145.905 138.459 147.032 138.549 148.151 138.701C148.433 140.782 148.072 155.756 147.949 157.736C145.08 158.04 116.764 158.119 113.816 158.355C113.625 156.544 113.996 140.546 114.21 138.735ZM173.723 207.799C168.941 210.307 108.169 210.049 103.624 208.53C102.836 205.909 101.374 160.717 103.624 159.311C104.006 159.064 109.598 158.895 117.484 158.782C117.306 162.197 117.329 165.619 117.551 169.031C117.664 169.819 117.832 170.066 118.676 170.291C121.275 170.955 129.454 170.764 131.051 170.37C131.158 170.335 131.253 170.271 131.327 170.186C131.4 170.101 131.449 169.997 131.467 169.886C131.906 168.266 131.468 160.627 131.321 158.771C131.321 158.659 149.647 158.692 150.626 158.704C150.041 173.407 150.626 200.542 150.514 203.996C150.524 204.035 150.546 204.069 150.578 204.094C150.609 204.118 150.648 204.132 150.688 204.132C150.728 204.132 150.767 204.118 150.798 204.094C150.83 204.069 150.853 204.035 150.863 203.996C151.526 192.746 150.975 163.204 150.986 158.692L157.826 158.771C157.759 160.83 157.601 167.006 158.062 168.896C158.175 169.324 158.332 169.459 158.569 169.526C159.536 169.841 165.319 169.909 166.523 169.414C166.632 169.379 166.73 169.316 166.807 169.231C166.884 169.146 166.937 169.042 166.961 168.93C167.174 165.619 167.103 162.295 166.748 158.996C169.149 159.012 171.549 159.151 173.936 159.412C174.87 162.821 174.724 207.259 173.723 207.799Z" fill="#B32318"/>
<path fill-rule="evenodd" clip-rule="evenodd" d="M136.012 171.529C139.534 168.851 142.627 173.374 145.687 170.404C145.717 170.369 145.733 170.325 145.733 170.28C145.733 170.235 145.717 170.191 145.687 170.156C145.451 169.864 145.125 170.707 143.561 170.685C141.12 170.685 138.409 168.345 135.765 171.259C135.729 171.291 135.708 171.337 135.706 171.386C135.704 171.434 135.721 171.482 135.754 171.517C135.787 171.553 135.832 171.575 135.881 171.577C135.929 171.579 135.977 171.561 136.012 171.529ZM136.012 175.691C139.522 173.002 142.627 177.525 145.687 174.566C145.717 174.532 145.733 174.488 145.733 174.442C145.733 174.397 145.717 174.353 145.687 174.319C145.451 174.026 145.125 174.87 143.561 174.847C141.12 174.847 138.42 172.507 135.765 175.421C135.729 175.454 135.708 175.5 135.706 175.548C135.704 175.597 135.721 175.644 135.754 175.68C135.787 175.716 135.832 175.737 135.881 175.739C135.929 175.741 135.977 175.724 136.012 175.691ZM108.247 181.912C107.37 180.787 107.201 199.462 109.294 203.726C110.284 205.762 139.95 204.66 142.267 204.536C144.585 204.412 144.922 204.39 145.08 204.075C145.834 202.556 146.284 183.06 145.372 181.811C144.461 180.562 109.744 180.855 108.247 181.912ZM144.371 203.524C141.502 203.906 112.32 204.716 109.901 203.389C108.022 199.62 107.651 182.734 108.439 182.194C108.844 181.271 141.739 181.676 144.72 182.385C145.327 184.32 144.945 201.24 144.371 203.524Z" fill="#B32318"/>
<path fill-rule="evenodd" clip-rule="evenodd" d="M139.028 188.64C131.636 188.224 121.028 188.314 113.434 188.516C113.395 188.526 113.361 188.549 113.336 188.58C113.312 188.612 113.298 188.651 113.298 188.691C113.298 188.731 113.312 188.769 113.336 188.801C113.361 188.833 113.395 188.855 113.434 188.865C129.184 189.034 136.834 188.944 139.016 188.989C139.055 188.98 139.09 188.959 139.116 188.928C139.142 188.897 139.156 188.859 139.158 188.819C139.159 188.779 139.147 188.739 139.123 188.707C139.1 188.675 139.066 188.651 139.028 188.64ZM138.758 197.246C136.879 197.314 136.699 197.246 126.383 197.156C111.758 197.1 123.176 197.359 113.501 197.235C113.475 197.228 113.447 197.228 113.42 197.233C113.393 197.239 113.368 197.25 113.346 197.267C113.325 197.284 113.307 197.306 113.295 197.33C113.283 197.355 113.277 197.382 113.277 197.409C113.277 197.437 113.283 197.464 113.295 197.489C113.307 197.513 113.325 197.535 113.346 197.552C113.368 197.568 113.393 197.58 113.42 197.586C113.447 197.591 113.475 197.591 113.501 197.584C121.922 198.017 130.359 198.017 138.78 197.584C138.814 197.569 138.842 197.544 138.861 197.512C138.88 197.481 138.889 197.444 138.887 197.407C138.884 197.37 138.871 197.335 138.848 197.306C138.824 197.278 138.793 197.257 138.758 197.246ZM169.279 192.982C169.317 192.973 169.352 192.95 169.376 192.918C169.401 192.887 169.414 192.848 169.414 192.808C169.414 192.768 169.401 192.729 169.376 192.698C169.352 192.666 169.317 192.644 169.279 192.634C167.598 192.5 165.911 192.474 164.228 192.555C159.334 192.746 157.478 193.106 156.713 193.162C156.686 193.156 156.658 193.155 156.631 193.161C156.604 193.166 156.579 193.178 156.557 193.195C156.536 193.211 156.518 193.233 156.506 193.258C156.494 193.282 156.488 193.309 156.488 193.337C156.488 193.364 156.494 193.391 156.506 193.416C156.518 193.441 156.536 193.462 156.557 193.479C156.579 193.496 156.604 193.508 156.631 193.513C156.658 193.519 156.686 193.518 156.713 193.511C160.908 193.617 165.107 193.441 169.279 192.982ZM169.605 199.125C165.314 199.109 161.028 199.403 156.78 200.002C156.741 200.012 156.707 200.035 156.682 200.067C156.658 200.098 156.645 200.137 156.645 200.177C156.645 200.217 156.658 200.256 156.682 200.287C156.707 200.319 156.741 200.341 156.78 200.351C160.967 200.471 165.155 200.196 169.29 199.53C169.875 199.395 169.807 199.125 169.605 199.125ZM142.178 149.411C144.563 149.344 145.901 148.725 143.404 148.545C138.915 148.241 138.263 149.512 142.178 149.411ZM142.166 152.449C144.608 152.449 145.845 151.762 143.393 151.594C138.904 151.279 138.251 152.572 142.166 152.449ZM118.958 154.575C120.814 155.295 130.466 154.8 131.018 154.215C131.783 153.427 130.95 146.644 130.928 146.43C130.826 145.429 119.61 145.496 118.688 145.901C118.526 145.979 118.402 146.116 118.339 146.284C117.799 147.532 118.136 153.247 118.418 154.102C118.468 154.216 118.542 154.317 118.636 154.398C118.729 154.48 118.839 154.54 118.958 154.575ZM119.048 146.621C119.711 146.385 129.544 145.957 130.59 146.531C131.018 153.765 130.59 153.607 130.511 153.72C130.433 153.832 121.714 154.609 119.261 153.72C118.541 151.065 119.16 146.587 119.048 146.621Z" fill="#B32318"/>
<path fill-rule="evenodd" clip-rule="evenodd" d="M121.354 149.04C122.561 149.21 123.78 149.277 124.999 149.242C125.823 149.248 126.645 149.165 127.451 148.995C127.496 148.995 127.539 148.977 127.571 148.946C127.602 148.914 127.62 148.871 127.62 148.826C127.62 148.781 127.602 148.739 127.571 148.707C127.539 148.675 127.496 148.657 127.451 148.657C125.433 148.235 123.349 148.235 121.331 148.657C121.306 148.659 121.282 148.665 121.259 148.676C121.236 148.687 121.216 148.703 121.199 148.721C121.183 148.74 121.17 148.762 121.162 148.786C121.153 148.81 121.15 148.835 121.151 148.86C121.153 148.885 121.159 148.91 121.17 148.932C121.181 148.955 121.196 148.975 121.215 148.992C121.234 149.009 121.256 149.021 121.28 149.03C121.303 149.038 121.329 149.041 121.354 149.04ZM121.41 151.537C121.185 151.537 121.208 151.909 121.41 151.886C122.621 152.05 123.844 152.118 125.066 152.089C125.89 152.093 126.712 152.01 127.519 151.841C127.564 151.841 127.606 151.823 127.638 151.792C127.67 151.76 127.688 151.717 127.688 151.672C127.688 151.628 127.67 151.585 127.638 151.553C127.606 151.521 127.564 151.504 127.519 151.504C125.502 151.094 123.422 151.106 121.41 151.537ZM39.375 39.0037C38.9813 39.0037 36.2138 42.5812 36 42.7612C36 42.7612 37.2375 49.0275 37.4175 49.6912C37.4304 49.7587 37.4612 49.8215 37.5067 49.873C37.5523 49.9244 37.6108 49.9627 37.6763 49.9837C40.3269 49.9425 42.9661 49.6257 45.5513 49.0387C46.0013 48.8812 45.9 48.8137 46.8113 47.3737C48.195 45.2137 48.2625 45.2812 48.1838 45C48.1838 45.135 46.5187 39.0712 46.3387 38.7675C46.2959 38.7006 46.2399 38.6432 46.1741 38.5987C46.1084 38.5543 46.0342 38.5236 45.9562 38.5087C44.6407 38.4463 43.3221 38.5103 42.0187 38.7C47.6437 36.45 51.5475 28.0687 50.5575 22.6125C50.5762 22.3173 50.5056 22.0233 50.355 21.7687C50.0092 20.0732 49.3075 18.4704 48.2963 17.0662C46.9313 14.6297 44.7823 12.7266 42.1987 11.6662C39.7088 10.9071 37.0626 10.8194 34.5279 11.4121C31.9932 12.0048 29.6601 13.2567 27.765 15.0412C26.0656 16.7614 24.8341 18.8875 24.1875 21.2175C23.8866 22.7507 23.807 24.3191 23.9513 25.875C24.0439 27.172 24.3361 28.447 24.8175 29.655C24.8102 30.0204 24.9054 30.3806 25.0923 30.6948C25.2792 31.0089 25.5503 31.2645 25.875 31.4325C28.8 35.55 30.8588 37.8337 39.375 39.0037ZM37.9462 48.8587C37.4625 47.25 36.3375 42.8062 36.3375 42.8062L39.375 39.6675C39.478 40.6586 39.6739 41.6379 39.96 42.5925C40.1829 43.5025 40.4957 44.3881 40.8937 45.2362C39.7388 46.3075 38.7289 47.5253 37.89 48.8587H37.9462ZM38.0812 49.3087C38.3737 48.9937 41.22 46.0237 41.5125 45.9337C42.4364 45.7828 43.3678 45.6814 44.3025 45.63C43.4125 46.5406 42.7395 47.6405 42.3338 48.8475C40.5675 49.0612 38.7 49.275 38.025 49.3087H38.0812ZM45.2925 48.1837C44.554 48.3916 43.8023 48.5494 43.0425 48.6562C43.8549 47.7125 44.505 46.6404 44.9663 45.4837L47.1262 45.315C46.5075 46.1812 45.6075 47.565 45.2362 48.2287L45.2925 48.1837ZM45.6638 39.2625C45.8213 39.735 46.9912 43.875 47.2612 44.8875C45.3079 44.6402 43.3287 44.6857 41.3888 45.0225C41.168 43.1271 40.6398 41.2804 39.825 39.555C41.7472 39.3759 43.6771 39.2932 45.6075 39.3075L45.6638 39.2625ZM45.2925 28.395C44.843 28.5016 44.3778 28.5245 43.92 28.4625C43.3913 28.4625 43.4362 28.6987 43.2225 29.0925C43.3061 26.0898 42.9266 23.0921 42.0975 20.205C42.4162 20.0413 42.7642 19.9421 43.1213 19.9131C43.4785 19.8842 43.8378 19.926 44.1788 20.0362C45.3038 20.3512 45.3038 21.1612 45.9338 21.5662C46.1627 23.7076 46.1928 25.8655 46.0238 28.0125C45.789 28.2011 45.5223 28.3459 45.2362 28.44L45.2925 28.395ZM45.9113 29.025C45.4163 32.13 44.1 34.8412 41.4113 38.3737C42.3357 35.8 42.9329 33.1202 43.1887 30.3975C43.5866 30.1096 43.901 29.7214 44.1 29.2725C44.6928 29.3499 45.2955 29.2803 45.855 29.07L45.9113 29.025ZM42.2775 29.9475C41.4945 30.3101 40.6906 30.6256 39.87 30.8925C38.7141 31.4084 37.418 31.5194 36.1912 31.2075C34.5877 28.6555 33.2602 25.9403 32.2313 23.1075C32.67 23.0175 32.2313 22.5675 33.5925 21.4425C36.5175 18.9562 38.925 19.125 41.625 20.25C42.2135 23.4618 42.4137 26.7328 42.2212 29.9925L42.2775 29.9475ZM34.9988 30.9037C34.1325 31.005 33.1425 31.4887 32.445 31.5225C30.7886 29.9816 29.4108 28.1661 28.3725 26.1562C28.5243 25.6557 28.752 25.1815 29.0475 24.75C29.4777 24.13 30.0383 23.6117 30.69 23.2312C31.1625 22.995 31.0275 23.0962 31.815 23.1525C32.4309 25.9027 33.487 28.5353 34.9425 30.9487L34.9988 30.9037ZM35.5837 31.9162C36.7112 33.8708 38.0181 35.7163 39.4875 37.4287C36.945 35.3812 34.9088 33.7837 33.2325 32.2537C35.2463 31.7587 34.7175 31.7025 35.5275 31.9612L35.5837 31.9162ZM36.7762 32.1975C37.927 32.317 39.0892 32.1388 40.1512 31.68C40.7475 31.4325 41.4788 31.23 42.165 30.9262C41.9435 33.4494 41.5222 35.9509 40.905 38.4075C39.3837 36.4411 37.986 34.3821 36.72 32.2425L36.7762 32.1975ZM41.94 38.25C44.6486 35.6333 46.3661 32.1585 46.8 28.4175C48.0037 27.2925 47.925 26.0437 48.1613 25.83C48.8025 25.3012 49.4325 25.515 50.175 23.8162C50.0737 28.89 46.3162 35.8425 41.94 38.25ZM49.5 23.625C48.9938 24.6375 48.7237 24.6825 48.4875 24.8062C48.0487 25.0312 47.4862 25.2787 47.3625 25.7062C47.2403 26.1868 47.0707 26.6541 46.8563 27.1012C46.8361 25.2989 46.6478 23.5023 46.2938 21.735C46.7663 21.6337 47.565 21.0712 47.5875 21.1612C48.2063 21.2037 48.8069 21.3885 49.3425 21.7012C50.085 22.1737 49.905 22.815 49.5 23.625ZM47.7225 17.4262C48.6114 18.5836 49.3032 19.8798 49.77 21.2625C49.1109 20.8512 48.353 20.6257 47.5763 20.61C47.1416 20.7348 46.7282 20.9244 46.35 21.1725C45.225 16.785 42.0975 12.87 37.845 11.8912C42.4237 11.79 45.1462 13.7362 47.745 17.3925L47.7225 17.4262ZM45.9113 21.0375C45.669 20.656 45.3649 20.3176 45.0112 20.0362C44.5517 19.7742 44.0361 19.6262 43.5076 19.6047C42.979 19.5831 42.4531 19.6887 41.9738 19.9125C41.0963 16.6275 38.9025 13.275 35.955 12.15C40.7025 12.7687 44.1788 16.7287 45.9338 21.0037L45.9113 21.0375ZM39.6112 16.245C40.4781 17.3204 41.1587 18.5335 41.625 19.8337C41.1444 19.5164 40.6166 19.2772 40.0613 19.125C37.5975 18.3375 33.21 20.25 32.0175 22.2525C31.1962 19.0462 31.2525 14.9287 33.5925 12.6112C36 12.4537 38.1825 14.265 39.6337 16.2112L39.6112 16.245ZM32.085 13.1287C30.375 15.975 30.5663 19.3275 31.7138 22.5C31.32 22.4212 31.2075 22.2075 30.5212 22.5C29.4368 23.0508 28.5489 23.923 27.9788 24.9975C26.6288 19.0012 29.1375 14.3887 32.1075 13.095L32.085 13.1287ZM24.8962 28.8787C24.3464 26.4567 24.3119 23.9462 24.795 21.51C25.5003 19.2114 26.7822 17.1316 28.5188 15.4687C26.4263 18.2587 26.2688 22.005 27.675 25.6837C27.54 26.0212 27.7538 25.7737 26.7638 26.1337C25.8441 26.7677 25.188 27.7159 24.9188 28.8L24.8962 28.8787ZM27 26.8537C27.3488 26.7075 28.0463 26.505 28.0575 26.4937C29.61 30.4425 31.4325 31.4212 29.9587 30.3412C29.61 30.105 28.9238 30.6 28.62 30.6787C24.12 31.8037 25.7063 27.9225 27 26.8537ZM26.6175 31.6912C27.372 31.7817 28.137 31.7205 28.8675 31.5112L29.6775 31.1625C30.354 31.7949 31.1903 32.2305 32.0963 32.4225C34.6811 34.7935 37.4877 36.9107 40.4775 38.745C32.7488 36.9562 30.4875 36.2025 26.5837 31.6912H26.6175ZM200.104 56.25C198.81 51.2662 196.987 46.9575 192.938 43.65C189.9 41.1637 185.569 39.285 179.246 38.6775C168.401 37.665 157.365 43.8862 153.979 56.8912C153.279 59.304 153.012 61.8216 153.191 64.3275C153.09 64.7567 153.082 65.2027 153.167 65.6354C153.253 66.0681 153.43 66.4775 153.686 66.8362C156.577 76.2637 158.625 81 173.722 88.875L172.001 88.4812C171.844 88.4812 172.328 88.2112 164.486 92.5875C164.455 92.5957 164.426 92.6128 164.404 92.6367C164.383 92.6607 164.368 92.6904 164.363 92.7225C164.363 92.79 162.878 104.389 162.81 105.322C162.802 105.398 162.811 105.475 162.837 105.547C162.862 105.619 162.903 105.684 162.956 105.739C163.598 106.211 174.285 108.697 176.726 108.675C176.973 108.69 177.219 108.622 177.424 108.484C178.459 107.539 181.924 104.839 183.049 103.984C183.097 103.946 183.138 103.898 183.167 103.844C183.196 103.79 183.213 103.73 183.217 103.669C183.217 103.545 183.893 92.6212 183.78 92.0475C183.755 91.9545 183.711 91.8676 183.651 91.7921C183.591 91.7167 183.516 91.6543 183.431 91.6087C182.419 90.9675 178.087 89.8987 174.971 89.1675C174.735 88.9762 173.925 88.5487 171.596 87.1312C160.279 80.1 157.725 76.8262 154.339 67.5C155.635 68.3717 157.153 68.8557 158.715 68.895L160.447 68.7825C161.572 70.4812 162.405 71.7975 163.924 72.4387C166.039 76.6462 174.589 89.8312 175.174 88.9762C178.474 84.8984 181.23 80.4097 183.375 75.6225C184.296 75.3994 185.122 74.8915 185.738 74.1712C186.981 74.8229 188.409 75.0331 189.787 74.7675C184.5 85.2075 173.362 89.2012 175.759 89.1562C187.875 88.965 201.487 73.5637 200.846 65.7112C201.51 62.6625 200.88 59.2425 200.104 56.25ZM164.7 92.8462C172.575 88.7737 171.934 89.055 172.057 89.0887C171.511 92.741 171.27 96.4326 171.337 100.125C169.639 100.575 164.588 103.792 163.564 104.625C163.777 102.015 164.599 94.005 164.7 92.8462ZM163.519 105.221C163.519 104.805 170.989 100.969 171.664 100.901C173.573 101.186 175.454 101.63 177.289 102.229C175.039 103.484 173.01 105.099 171.281 107.01C168.019 106.357 164.363 105.502 163.519 105.21V105.221ZM176.906 107.797C175.205 107.724 173.514 107.494 171.855 107.111C173.985 105.726 175.978 104.14 177.806 102.375C179.516 102.859 181.181 103.354 182.126 103.646C180.776 104.625 177.919 106.875 176.906 107.786V107.797ZM183.015 92.25C183.015 93.1275 182.497 101.914 182.419 103.275C179.64 102.071 173.734 100.035 171.765 100.012C172.361 96.4227 172.576 92.7799 172.406 89.145C174.712 89.7412 181.586 91.485 183.015 92.25ZM180.641 39.6562C184.556 40.1737 191.104 45.495 193.376 55.0912C193.702 56.4637 194.434 59.9737 194.006 61.785C193.714 61.2675 193.691 60.5475 193.264 59.7825C192.68 58.9257 191.868 58.25 190.919 57.8323C189.97 57.4146 188.923 57.2717 187.897 57.42C188.516 55.26 187.605 43.7175 180.641 39.6787V39.6562ZM178.031 39.4875C186.604 41.8162 188.156 56.205 187.481 57.2287C181.361 50.9625 171.945 53.2012 169.481 55.8787C169.595 52.6189 170.332 49.4111 171.652 46.4287C172.921 43.4583 175.174 41.0152 178.031 39.51V39.4875ZM169.121 55.9012C168.593 55.5213 167.974 55.287 167.326 55.2218C166.678 55.1567 166.025 55.2629 165.431 55.53C163.708 56.1085 162.146 57.0878 160.875 58.3875C161.044 54.0313 162.414 49.8067 164.835 46.1812C167.749 42.1425 173.16 39.4312 176.445 39.4312C171.09 42.8737 169.132 49.5 169.121 55.9237V55.9012ZM153.506 63.3262C153.506 58.7475 156.083 51.6262 157.646 49.5225C161.039 44.7806 166.008 41.3993 171.664 39.9825C163.935 42.7612 160.279 50.4112 160.481 58.8037C159.93 59.4562 158.827 58.8037 157.961 59.1412C156.034 59.985 154.459 61.4723 153.506 63.3487V63.3262ZM161.021 68.0962C160.983 68.0414 160.933 67.9965 160.874 67.9651C160.816 67.9338 160.75 67.917 160.684 67.9162C160.38 67.9162 158.906 68.04 158.794 68.0287C156.982 67.8712 154.8 67.4775 154.102 65.7787C153.225 63.6975 156.206 60.615 158.243 59.8612C158.456 59.7825 160.312 59.9175 160.493 59.8612C160.665 63.6966 161.599 67.4594 163.238 70.9312C162.391 70.0843 161.647 69.1403 161.021 68.1187V68.0962ZM160.875 59.625C162.129 58.0533 163.814 56.8806 165.724 56.25C166.247 56.011 166.825 55.9174 167.397 55.9787C167.969 56.0401 168.514 56.2542 168.975 56.5987C168.367 59.5687 168.806 65.9137 170.01 72.5512C169.706 72.3037 169.549 72.225 168.502 72.135C167.177 72.137 165.854 72.0089 164.554 71.7525C162.58 67.9755 161.332 63.8619 160.875 59.625ZM165.083 72.7425C166.095 72.9225 168.458 72.855 169.335 73.0912C169.628 73.3275 169.92 73.5637 170.257 73.8112C171.104 78.6187 172.485 83.3166 174.375 87.8175C170.314 81.585 167.242 76.9387 165.038 72.765L165.083 72.7425ZM175.208 88.4925C173.539 83.9404 172.245 79.2599 171.337 74.4975C173.342 75.6248 175.637 76.1299 177.93 75.9487C179.291 75.87 180.934 75.9487 182.43 75.78C180.406 80.2541 177.961 84.5258 175.129 88.5375L175.208 88.4925ZM182.857 74.8575C181.204 75.0593 179.539 75.1383 177.874 75.0937C175.487 75.2914 173.104 74.6639 171.124 73.3162C169.785 66.5662 168.874 59.8162 169.38 56.6775C170.145 56.8575 169.695 55.8562 172.755 54.7087C179.595 52.11 183.769 54.09 187.56 57.645C186.813 63.5992 185.202 69.4127 182.779 74.9025L182.857 74.8575ZM185.299 73.44C184.937 73.9279 184.457 74.3152 183.904 74.565C187.717 65.3175 187.594 58.5112 187.92 57.8025C188.885 57.6604 189.871 57.7966 190.762 58.1951C191.653 58.5937 192.411 59.238 192.949 60.0525C193.41 60.9412 193.32 61.83 193.928 62.4712C193.112 66.3699 191.906 70.1765 190.327 73.8337C188.415 74.4862 185.22 73.485 185.22 73.485L185.299 73.44ZM176.299 88.74C184.309 84.4087 188.381 80.01 190.924 74.4075C193.061 73.5525 193.747 72.225 194.715 70.8862C194.89 70.7391 195.106 70.6488 195.334 70.6275C197.055 70.2225 197.46 70.6275 199.44 68.67C199.729 68.3786 199.996 68.0665 200.239 67.7362C197.494 77.1075 185.94 87.8962 176.231 88.785L176.299 88.74ZM198.923 68.1862C196.436 70.65 194.906 69.3112 194.074 70.4362C193.394 71.6249 192.422 72.6201 191.25 73.3275C192.539 69.8764 193.507 66.3138 194.141 62.685C195.041 62.6768 195.939 62.6091 196.83 62.4825C197.922 62.9228 198.891 63.6215 199.654 64.5187C200.745 65.9475 200.047 67.05 198.855 68.2312L198.923 68.1862ZM200.689 64.8112C199.886 63.4663 198.635 62.4467 197.156 61.9312C196.318 61.9266 195.481 62.0057 194.659 62.1675C195.176 53.055 191.542 43.8075 183.488 40.1175C192.904 42.21 197.167 47.7 199.597 56.34C200.482 59.0868 200.829 61.9781 200.621 64.8562L200.689 64.8112ZM128.025 32.7937C127.631 32.6362 123.851 34.38 123.3 34.5375C123.3 34.4137 121.365 41.0062 121.298 41.2875C121.279 41.3536 121.277 41.4234 121.293 41.4904C121.309 41.5573 121.341 41.6191 121.388 41.67C123.744 42.8713 126.217 43.8288 128.768 44.5275C130.278 43.9521 131.698 43.1642 132.986 42.1875C132.986 42.3675 134.303 36.1912 134.28 35.82C134.276 35.7409 134.255 35.6637 134.218 35.5937C134.181 35.5237 134.129 35.4627 134.066 35.415C132.937 34.7409 131.742 34.1831 130.5 33.75C136.586 34.4137 143.921 28.8112 145.598 23.5575C145.755 23.3051 145.834 23.0112 145.822 22.7137C146.309 21.0535 146.44 19.3091 146.205 17.595C146.138 14.8054 145.135 12.1193 143.359 9.96746C141.516 8.12848 139.22 6.80928 136.703 6.1435C134.186 5.47771 131.537 5.489 129.026 6.17621C126.722 6.89943 124.639 8.19625 122.974 9.94496C121.998 11.1738 121.206 12.5381 120.623 13.995C120.091 15.1837 119.746 16.4473 119.599 17.7412C119.429 18.0552 119.347 18.4095 119.363 18.7662C119.379 19.1229 119.492 19.4686 119.689 19.7662C120.375 24.75 121.106 27.7762 128.025 32.7937ZM123.93 16.4475C123.514 20.9475 124.695 22.5112 123.795 20.7225C123.615 20.3512 122.76 20.4637 122.456 20.3962C117.956 19.2712 121.264 16.5937 122.816 16.2562C123.131 16.2787 123.84 16.4362 123.93 16.4475ZM120.206 20.34C120.823 20.77 121.519 21.0722 122.254 21.2287L123.131 21.3075C123.433 22.1886 123.974 22.9679 124.695 23.5575C125.849 26.8635 127.326 30.0477 129.105 33.0637C122.389 27.2475 121.331 25.3912 120.206 20.34ZM134.831 26.19C133.949 26.147 133.069 26.0493 132.199 25.8975C130.943 25.8051 129.755 25.2941 128.824 24.4462C128.601 21.444 128.703 18.4266 129.128 15.4462C129.443 15.5362 134.089 11.7787 138.881 17.3025C137.95 20.4307 136.603 23.4199 134.876 26.19H134.831ZM139.196 17.5162C139.554 17.5172 139.908 17.5905 140.236 17.7316C140.565 17.8727 140.862 18.0788 141.109 18.3375C141.964 19.1362 141.581 19.9125 141.952 20.5087C141.112 22.4929 140.123 24.4109 138.994 26.2462C138.249 26.321 137.504 26.1076 136.912 25.65C136.463 25.3912 136.373 25.65 136.024 25.8637C137.523 23.265 138.608 20.4488 139.241 17.5162H139.196ZM129.623 33.03C129.216 30.5657 128.964 28.0783 128.869 25.5825C129.826 26.254 130.952 26.6437 132.12 26.7075C132.784 26.775 133.549 26.9437 134.302 26.9887C132.919 29.1211 131.369 31.1411 129.668 33.03H129.623ZM128.846 31.5C127.575 28.53 126.518 26.1562 125.741 23.985C127.834 24.48 127.35 24.1537 127.991 24.7725C128.069 27.0365 128.355 29.2885 128.846 31.5ZM127.935 23.625C127.125 23.31 126.034 23.2762 125.393 22.9725C124.658 20.8338 124.297 18.5848 124.324 16.3237C125.809 15.1987 127.283 14.2987 128.824 15.2775C128.08 17.994 127.78 20.8128 127.935 23.625ZM123.604 34.7512L127.755 33.4012C127.383 34.3244 127.1 35.2813 126.911 36.2587C126.671 37.1669 126.531 38.0987 126.495 39.0375C124.968 39.4396 123.5 40.0411 122.13 40.8262C122.49 39.2625 123.458 35.3587 123.604 34.74V34.7512ZM126 42.8287C124.346 42.2437 122.558 41.535 122.018 41.2762C123.531 40.7194 125.074 40.2499 126.641 39.87C127.53 40.1649 128.402 40.5105 129.251 40.905C128.035 41.2901 126.923 41.9481 126 42.8287ZM128.88 43.7062C128.116 43.5394 127.365 43.3214 126.63 43.0537C127.791 42.6045 128.868 41.9616 129.814 41.1525L131.816 42.0187C131.006 42.4912 129.533 43.3125 128.914 43.7062H128.88ZM133.38 36C133.301 36.4612 132.401 40.59 132.165 41.7037C130.551 40.5727 128.781 39.6822 126.911 39.06C127.046 38.7337 127.192 38.3512 127.316 37.935C127.595 36.9199 127.82 35.891 127.991 34.8525C128.048 34.38 128.081 33.93 128.093 33.4687C129.917 34.2186 131.7 35.0635 133.436 36H133.38ZM130.005 33.1987C132.05 31.3657 133.857 29.2831 135.382 27C135.858 26.9411 136.309 26.7545 136.688 26.46C137.207 26.8283 137.818 27.0463 138.454 27.09C136.201 29.7849 133.318 31.883 130.061 33.1987H130.005ZM130.624 33.345C134.263 32.3375 137.437 30.094 139.601 27C141.21 26.5612 141.705 25.4025 142.009 25.3462C142.774 25.2 143.28 25.6612 144.731 24.5137C142.256 28.935 135.664 33.2775 130.68 33.345H130.624ZM144.214 23.9625C143.291 24.615 143.033 24.5362 142.763 24.5362C142.268 24.5362 141.637 24.5362 141.334 24.7837C140.997 25.1584 140.62 25.4942 140.209 25.785C141.032 24.1852 141.706 22.5132 142.223 20.79C142.695 20.925 143.662 20.79 143.629 20.8912C144.163 21.2058 144.608 21.651 144.923 22.185C145.429 22.9725 144.979 23.4562 144.27 23.9625H144.214ZM145.553 17.6625C145.794 19.0999 145.794 20.5676 145.553 22.005C145.187 21.3405 144.651 20.7852 144 20.3962C143.557 20.3 143.101 20.2734 142.65 20.3175C143.775 15.9975 142.83 11.025 139.5 8.13371C143.539 10.2037 145.035 13.2075 145.609 17.6625H145.553ZM142.256 19.9912C142.222 19.5409 142.112 19.0997 141.93 18.6862C141.65 18.2379 141.265 17.8644 140.808 17.5978C140.352 17.3313 139.837 17.1797 139.309 17.1562C140.074 13.8487 139.714 9.85496 137.632 7.48121C141.57 10.2712 142.763 15.4012 142.312 19.9912H142.256ZM138.881 12.8025C139.111 14.1653 139.111 15.5571 138.881 16.92C136.294 13.0162 131.006 13.545 129.308 14.5462C130.095 11.3062 132.075 7.70621 135.225 6.77246C137.576 7.78496 138.623 10.395 138.994 12.8025H138.881ZM133.875 6.52496C130.984 8.17871 129.577 11.3625 129.094 14.6812C127.789 13.5562 125.899 14.2762 124.594 15.1087C126.202 9.17996 130.568 6.26621 133.875 6.52496ZM123.525 10.4512C125.225 8.76218 127.327 7.53472 129.634 6.88496C126.473 8.35871 124.549 11.5987 124.11 15.4912C123.829 15.7275 124.11 15.615 123.098 15.4912C121.958 15.6124 120.908 16.1637 120.161 17.0325C120.789 14.6305 121.916 12.388 123.469 10.4512H123.525ZM85.95 141.559C86.0916 141.48 86.2107 141.366 86.2961 141.228C86.3815 141.09 86.4305 140.933 86.4384 140.771C86.4463 140.609 86.4128 140.447 86.3411 140.302C86.2695 140.156 86.162 140.031 86.0288 139.939C88.0088 139.939 88.0762 138.701 87.1538 138.049C87.3001 137.941 87.4258 137.807 87.525 137.655C104.299 134.55 104.085 134.28 104.209 134.032C104.816 132.817 104.996 113.704 104.963 105.255C105.029 105.176 105.065 105.077 105.064 104.974C105.064 101.261 105.064 101.149 104.805 100.969C104.231 100.597 81.54 97.02 81.54 96.9075C79.3688 96.6375 64.3275 99 57.375 100.271C56.2215 99.6662 55.0214 99.1546 53.7863 98.7412C53.4936 98.215 53.0756 97.7692 52.5692 97.4434C52.0629 97.1176 51.4839 96.9219 50.8838 96.8737L50.7713 94.995C51.9424 94.3949 52.9945 93.5867 53.8762 92.61C54.2948 92.2414 54.5973 91.7592 54.7471 91.222C54.8969 90.6848 54.8875 90.1157 54.72 89.5837C54.3034 88.6502 53.9793 87.678 53.7525 86.6812C53.7525 86.3775 54.9675 85.8037 54.5737 85.0275C53.6199 84.0696 52.5323 83.2549 51.345 82.6087C50.7357 81.9519 50.2515 81.1894 49.9163 80.3587C50.0182 80.2815 50.1037 80.1847 50.1676 80.0739C50.2315 79.9631 50.2726 79.8407 50.2883 79.7137C50.304 79.5868 50.2942 79.458 50.2592 79.335C50.2243 79.212 50.1651 79.0972 50.085 78.9975C50.19 78.8205 50.2445 78.6182 50.2425 78.4125C50.2425 77.5574 49.5675 77.5687 49.6013 77.4112C49.7138 76.7475 49.4438 76.6912 48.825 76.455V76.365C49.2413 76.4437 49.68 76.5675 49.95 76.14C50.9288 74.1825 51.3338 72.27 50.2875 70.3575C49.1625 68.2312 45.4163 68.3437 42.9525 71.2687C41.0513 71.0437 36.1463 71.0212 34.8975 71.955C32.2538 73.9687 29.0475 80.9549 29.34 81.7875C29.9838 83.5169 30.782 85.1849 31.725 86.7712C32.0738 87.2662 32.6138 87.3225 32.7488 87.6037C32.7488 87.6712 32.6588 88.4812 32.67 88.6275C32.7646 89.5275 33.0902 90.3877 33.615 91.125C33.8832 91.4644 34.2506 91.7118 34.6659 91.8327C35.0812 91.9537 35.524 91.9423 35.9325 91.8C36.0338 93.4312 36.6075 94.8262 38.1825 95.0512C38.7675 95.072 39.3529 95.0229 39.9263 94.905C40.0764 94.8971 40.2235 94.8592 40.3587 94.7935C40.494 94.7278 40.6147 94.6356 40.7137 94.5225C40.9612 94.2075 40.95 94.815 41.5012 94.7362C41.67 96.3225 41.7375 97.3687 41.7825 98.1112C41.0322 98.6057 40.4389 99.3044 40.0725 100.125C36.8775 102.589 33.3225 107.381 32.5125 112.174C30.6788 122.929 32.8388 134.021 40.4438 141.66C44.8875 146.16 45.2925 147.555 48.9263 147.555C48.7688 154.012 50.5013 169.639 50.85 173.059C50.535 174.375 32.31 199.125 32.0625 199.687C31.8938 200.081 32.4675 200.992 32.76 201.476C30.7013 203.085 27.6975 205.56 26.8988 207.281C25.9425 209.407 30.8813 217.935 34.2225 219.127C36.1575 219.825 37.0463 218.992 36.7875 217.215C36.4725 214.965 35.4263 212.895 34.9988 210.814C34.8525 210.195 36.945 207.866 37.3612 207.439C38.4187 208.395 38.6325 208.361 39.6112 207.776C43.92 205.267 60.4125 191.261 64.485 187.2C66.5755 184.966 68.3164 182.428 69.6488 179.674C72.1462 173.317 70.4812 156.499 70.5037 155.632C70.5137 155.594 70.5362 155.559 70.5677 155.535C70.5993 155.51 70.6382 155.497 70.6781 155.497C70.7181 155.497 70.7569 155.51 70.7885 155.535C70.8201 155.559 70.8426 155.594 70.8525 155.632C71.4653 158.41 71.7597 161.248 71.73 164.092C73.485 167.242 76.815 173.689 76.23 176.377C75.4762 179.606 61.8075 203.377 64.8112 204.671C65.2452 204.816 65.6944 204.91 66.15 204.952C66.0712 205.875 66.0037 207.022 66.0037 208.17C65.6751 209.824 65.7916 211.536 66.3413 213.131C67.3988 215.167 78.5362 216.09 81.585 214.11C82.71 213.367 82.71 212.614 81.9338 211.736C80.4263 210.094 74.7337 208.935 74.2387 208.215C74.0853 207.251 74.0101 206.277 74.0137 205.301C75.015 205.2 76.1287 204.975 76.4325 204.334C77.0513 203.017 94.2637 178.537 94.8713 173.959C96.1312 164.227 87.9863 149.782 82.89 141.412C84.0938 141.75 85.3763 141.952 85.95 141.559ZM34.7625 209.767C32.9963 207.832 31.3875 205.841 31.1063 203.602C31.7588 202.984 32.4225 202.399 33.0075 201.892C34.1784 203.761 35.5313 205.51 37.0463 207.112C36.2057 207.926 35.4412 208.815 34.7625 209.767ZM66.5325 207.517V204.952C68.8499 205.235 71.1854 205.34 73.5187 205.267C73.4612 206.137 73.4612 207.008 73.5187 207.877C72.2587 208.012 67.8262 208.192 66.5325 207.517ZM81.4387 97.2675C81.4387 97.38 93.8925 99.3037 102.893 101.25C101.486 101.565 98.9212 102.161 94.1513 103.174C93.3344 102.706 92.4932 102.281 91.6312 101.902C91.5277 101.878 91.4198 101.878 91.3162 101.902C88.9726 102.348 86.6553 102.923 84.375 103.624C84.375 103.624 84.24 103.624 84.2512 103.792C84.2625 103.961 84.8925 104.164 86.13 104.85L78.48 106.414L71.5275 104.726C72.3056 104.537 73.0602 104.261 73.7775 103.905C73.8629 103.848 73.9232 103.76 73.9461 103.659C73.9691 103.559 73.9531 103.454 73.9013 103.365C73.3275 102.431 66.1838 101.576 66.1838 101.464C64.8272 101.393 63.4824 101.747 62.3363 102.476L56.5425 101.07C62.8312 99.8212 79.3125 97.0087 81.4387 97.2562V97.2675ZM104.13 101.846V104.647C101.88 105.176 98.505 105.919 94.7812 106.695C94.7812 105.784 94.6575 104.625 94.545 103.939C98.1225 103.185 101.588 102.431 104.13 101.835V101.846ZM86.9512 108.315L78.57 110.025C77.0175 109.676 73.7437 108.9 70.0537 108.079C70.0857 107.078 70.2367 106.085 70.5037 105.12C74.835 106.245 78.3787 107.179 78.5362 107.156C78.6937 107.134 82.125 106.459 86.8725 105.502C87.0927 106.424 87.1195 107.382 86.9512 108.315ZM62.2012 102.937C62.0662 103.522 61.83 105.48 61.7625 106.132C58.5 105.367 55.6875 104.625 54.2362 104.254C54.2362 103.129 54.3375 102.15 54.3713 101.554C54.6075 101.486 55.0912 101.374 55.7663 101.227L62.2012 102.937ZM56.7337 100.395C55.98 100.53 55.3612 100.654 54.9 100.755C54.692 100.241 54.4437 99.7446 54.1575 99.27C55.0349 99.5916 55.8916 99.9673 56.7225 100.395H56.7337ZM54.2137 104.692C55.9012 105.21 58.635 105.93 61.695 106.706C61.5262 108.292 61.3687 109.98 61.3912 110.779C61.3912 112.657 64.1362 110.182 65.07 109.946C66.5212 110.756 68.7262 113.13 69.3675 112.286C69.7861 111.163 69.9995 109.975 69.9975 108.776C73.6312 109.665 76.8263 110.419 78.3563 110.79C78.3563 114.964 78.0413 120.195 78.12 129.667C78.12 129.712 78.1378 129.755 78.1694 129.787C78.2011 129.818 78.244 129.836 78.2887 129.836C78.3335 129.836 78.3764 129.818 78.4081 129.787C78.4397 129.755 78.4575 129.712 78.4575 129.667C79.0213 123.391 79.1191 117.081 78.75 110.79C79.6162 110.644 82.8675 110.014 86.9062 109.192C86.7122 110.256 86.7896 111.351 87.1312 112.376C87.1631 112.426 87.2045 112.468 87.2532 112.502C87.3018 112.535 87.3566 112.558 87.4144 112.569C87.4721 112.581 87.5316 112.581 87.5892 112.569C87.6469 112.557 87.7016 112.533 87.75 112.5C88.7954 111.56 89.9001 110.688 91.0575 109.89C93.7688 110.767 95.0625 113.625 94.86 107.539C98.415 106.796 101.835 106.054 104.276 105.48C104.209 113.715 103.894 131.557 103.455 133.537C102.173 133.976 93.69 135.63 87.5475 136.766C87.0862 135.967 85.6912 135.641 84.8025 135.416C84.735 135.202 84.645 134.989 84.555 134.775C85.0508 134.582 85.4859 134.259 85.815 133.841C90.5475 133.335 95.2363 132.481 99.8438 131.287C100.249 131.164 100.969 130.95 101.126 130.59C101.644 129.544 101.948 120.757 101.61 119.779C101.475 119.374 100.935 119.385 100.485 119.385C96.975 119.385 82.485 121.297 81.9 122.152C81.4613 121.702 81.4387 130.545 81.6637 132.997C81.3936 133.138 81.1308 133.292 80.8762 133.459C79.6387 133.042 61.065 126.844 60.1763 125.977C59.4013 125.187 58.6762 124.349 58.005 123.469C58.5715 123.056 59.0338 122.517 59.355 121.894C59.355 121.826 59.5912 121.781 59.8837 121.894C64.4579 122.514 69.072 122.792 73.6875 122.726C73.7323 122.726 73.7752 122.708 73.8068 122.677C73.8385 122.645 73.8563 122.602 73.8563 122.557C73.8563 122.513 73.8385 122.47 73.8068 122.438C73.7752 122.406 73.7323 122.389 73.6875 122.389C72.7537 122.265 62.145 121.151 59.8162 121.432H59.3213C58.9793 120.66 58.553 119.928 58.05 119.25C57.51 118.631 56.925 116.156 56.5088 115.2C55.7325 113.659 54.855 112.084 53.8988 110.565C54 108.304 54.1238 106.301 54.2025 104.692H54.2137ZM100.339 130.162C100.204 131.434 85.9613 133.076 85.7138 133.099C85.3313 132.559 83.9813 132.064 82.215 132.727C82.0013 130.477 81.675 122.895 82.08 122.366C82.485 121.837 97.83 120.116 100.778 120.251C101.036 122.04 100.283 130.275 100.35 130.162H100.339ZM53.6063 103.32L53.2238 109.462C52.5713 108.472 51.8737 107.494 51.1425 106.582C51.975 105.739 51.1425 103.601 51.975 102.814C52.5335 102.931 53.0796 103.1 53.6063 103.32ZM42.525 71.82C41.9726 72.6184 41.4944 73.4657 41.0962 74.3512C39.9712 73.2262 36.2025 72.6525 35.37 72.6075C36 72.09 38.7 71.64 42.525 71.775V71.82ZM32.4 86.2987C31.5157 84.7952 30.7629 83.218 30.15 81.585C31.0797 78.7402 32.4915 76.0764 34.3238 73.71C33.9053 75.1184 33.5673 76.5494 33.3113 77.9962C33.5192 78.9671 33.8284 79.9135 34.2338 80.82C34.5686 81.5893 34.9442 82.3404 35.3588 83.07C34.245 84.06 33.255 85.185 32.4 86.2537V86.2987ZM35.64 82.6762C35.2575 81.5512 34.2788 78.4012 34.1888 78.0412C34.1888 77.9287 35.1225 73.035 35.01 72.99C39.6675 74.6662 39.2962 73.8337 40.7362 75.1725C40.1815 76.4748 39.7265 77.8174 39.375 79.1887C38.0772 80.2776 36.8309 81.4264 35.64 82.6312V82.6762ZM39.735 79.2C40.0938 78.1333 40.5069 77.0857 40.9725 76.0612C42.2662 73.5187 43.4138 71.0212 46.0688 70.02C47.3063 69.5587 48.9038 69.6375 49.5225 70.7737C49.8882 71.5371 50.0561 72.3802 50.0109 73.2255C49.9657 74.0708 49.7088 74.8911 49.2638 75.6112C46.215 75.195 41.76 77.2875 39.735 79.155V79.2ZM41.625 88.065C42.0413 88.4362 42.1987 88.4025 42.525 88.2562C42.5943 88.4093 42.7173 88.5316 42.8707 88.6C43.0241 88.6684 43.1973 88.6782 43.3575 88.6275C43.74 89.3362 44.7413 88.8975 44.9213 88.3575C45.1013 87.8175 44.7638 87.48 44.4038 87.12C44.0438 86.76 44.1788 86.985 44.2463 86.67C44.37 86.1412 44.145 85.7475 43.4363 85.6575C43.4851 85.454 43.4763 85.2409 43.4107 85.0421C43.3451 84.8434 43.2254 84.6669 43.065 84.5325C43.5037 83.9812 43.56 83.9475 43.5825 83.6212C44.4263 83.6212 44.7075 83.5425 45.5962 82.5637C46.035 82.7325 47.9587 82.4512 48.2738 81.5962C48.5194 81.7132 48.7992 81.7372 49.0613 81.6637C49.3358 81.6196 49.5843 81.4753 49.7588 81.2587C50.0295 81.9841 50.4829 82.6273 51.075 83.1262C52.1309 83.7516 53.1122 84.4952 54 85.3425C54 85.455 53.0888 86.0175 53.0775 86.6812C53.2467 87.756 53.5568 88.8038 54 89.7975C54.2025 90.5287 54.1687 91.0912 53.2913 92.0475C52.6342 92.7615 51.8761 93.3755 51.0413 93.87C50.2087 94.3537 49.9163 94.3762 49.9163 94.7587C49.9163 94.635 50.0738 97.7962 50.1075 97.9087C50.1413 98.0212 50.8838 100.597 51.1538 101.891C49.5563 101.34 44.2913 99.3712 42.7275 98.775C42.7275 98.055 42.4913 96.0187 42.3338 94.6012C42.9975 95.13 44.2462 94.1737 44.37 94.0612C44.6493 93.6919 44.8625 93.277 45 92.835C45.0443 92.5462 45.0103 92.2508 44.9015 91.9797C44.7926 91.7086 44.613 91.4717 44.3813 91.2937C44.8538 90.0675 43.0425 90.765 42.84 90.6637C41.7038 90.0787 40.7138 89.8312 41.625 88.065ZM49.77 105.48C52.2454 108.511 54.3107 111.855 55.9125 115.425C56.34 116.325 56.6888 118.305 57.24 119.317C53.0663 121.567 46.62 126.067 44.6737 127.327C43.1387 127.006 41.7583 126.173 40.7588 124.965C36.765 119.824 33.3 110.936 36.8212 105.75C39.6337 101.542 47.0812 102.375 49.7925 105.48H49.77ZM47.25 146.565C45.54 146.284 42.2438 142.29 41.0288 141.064C33.5363 133.605 31.4662 122.625 33.1537 112.275C33.8512 107.876 37.0463 103.275 40.005 100.8C40.0715 101.133 40.2056 101.448 40.3992 101.727C40.5927 102.006 40.8415 102.241 41.13 102.42C31.7813 103.995 33.3788 116.865 40.0838 125.494C41.1911 126.842 42.7212 127.778 44.4263 128.149C44.7851 128.715 45.2752 129.185 45.855 129.521C46.4128 129.781 47.0488 129.817 47.6325 129.622C49.365 132.277 51.8288 135.754 53.2575 136.44C56.3063 137.88 65.9475 139.05 73.125 139.736C56.25 142.099 54 147.679 47.25 146.565ZM53.5163 135.911C52.2113 135.326 49.7812 132.03 48.0487 129.487C51.4184 127.896 54.6217 125.974 57.6112 123.75C58.278 124.656 58.9993 125.52 59.7713 126.337C60.84 127.462 79.2788 133.796 80.775 134.302C81.2025 134.449 81.4163 133.785 83.025 133.357C83.3552 133.245 83.7045 133.2 84.0523 133.226C84.4001 133.251 84.7393 133.345 85.05 133.504C84.465 134.089 82.125 134.629 82.6425 135.697C82.9237 136.26 83.9925 136.091 84.2062 136.147C85.41 136.451 87.5812 137.059 86.4562 137.452C86.3437 137.452 84.4988 137.216 84.3862 137.194C84.2834 137.21 84.1898 137.263 84.1222 137.342C84.0546 137.422 84.0175 137.523 84.0175 137.627C84.0175 137.731 84.0546 137.832 84.1222 137.911C84.1898 137.991 84.2834 138.043 84.3862 138.06C86.6362 138.487 87.9187 139.185 85.8262 139.061C84.555 139.061 84.8925 138.892 83.5762 138.51C83.4736 138.484 83.365 138.497 83.2713 138.546C83.1776 138.595 83.1056 138.678 83.0691 138.777C83.0327 138.877 83.0345 138.986 83.0742 139.084C83.1138 139.182 83.1885 139.262 83.2837 139.309C84.4087 139.702 86.5462 140.929 85.185 140.906C83.6506 140.664 82.1582 140.206 80.7525 139.545C80.3812 139.5 58.2413 138.049 53.5275 135.911H53.5163Z" fill="#B32318"/>
</svg>
