<svg width="225" height="225" viewBox="0 0 225 225" fill="none" xmlns="http://www.w3.org/2000/svg">
<path fill-rule="evenodd" clip-rule="evenodd" d="M121.156 215.029C82.1576 197.003 53.8751 162.843 43.56 121.307C41.3145 112.265 40.0106 102.996 38.8935 93.6889C23.9029 101.746 9.57825 96.2393 6.88388 94.6609C6.07838 94.1884 5.9985 93.3255 7.2945 93.4302C13.8983 93.9634 20.3096 87.3732 19.314 77.7555C18.6885 71.7143 16.254 66.3908 12.7935 58.8218C11.556 56.115 10.1869 53.1214 8.721 49.7048C2.21513 34.5218 7.83225 26.5838 13.7273 24.6803C14.1424 24.5453 14.5564 24.4418 14.9693 24.3653C15.5209 24.173 16.0793 24.0004 16.6433 23.8478L16.704 23.832C41.409 16.974 78.1515 9.54791 78.9019 9.69754C97.5735 13.4348 100.971 42.1673 104.411 71.2722C104.841 74.9059 105.271 78.5475 105.732 82.1453L104.663 82.6594C104.185 78.8927 103.726 75.1235 103.286 71.352C99.891 42.6555 96.5587 14.4844 78.7871 10.8214C50.6655 16.0875 21.3548 23.49 15.2055 25.443C23.6858 25.4498 29.6168 37.9305 32.0738 46.0497C36.063 59.2324 37.6313 72.9135 39.1973 86.589C40.5248 98.1777 41.8523 109.763 44.6524 121.035C54.8741 162.198 82.8866 196.059 121.515 213.956C149.479 210.939 176.947 198.929 195.214 181.762C178.091 178.734 159.218 170.76 143.274 158.181L144.46 157.692C160.377 170.109 179.179 177.92 196.164 180.785H196.467C196.579 180.785 196.688 180.819 196.781 180.882C196.874 180.944 196.946 181.033 196.988 181.137C197.03 181.241 197.04 181.355 197.017 181.465C196.993 181.575 196.938 181.675 196.857 181.753C178.424 199.528 150.279 211.986 121.569 215.08L121.508 215.082C121.399 215.085 121.284 215.09 121.156 215.031V215.029ZM112.961 160.766C113.281 161.081 113.607 161.39 113.938 161.693C104.045 165.53 87.9277 171.505 87.1718 171.505C86.9029 171.505 86.715 171.089 86.9355 170.868C87.138 170.657 102.132 164.914 110.771 161.604H110.773L110.782 161.601L112.961 160.766ZM105.074 150.666C105.306 151.025 105.54 151.381 105.776 151.738C96.6319 155.546 84.5393 160.437 80.613 161.48C80.2856 161.696 80.0201 161.012 80.3689 160.931C81.1688 160.532 94.8251 154.889 105.074 150.666ZM98.0651 139.111C98.2789 139.487 98.496 139.866 98.7176 140.247L92.7484 142.41C74.8215 148.91 72.3341 149.812 72.0202 149.322C71.9696 149.243 71.9753 149.128 71.982 148.994L71.9843 148.962V148.93C71.9876 148.835 71.9899 148.764 72.0833 148.719C74.6179 147.513 88.6511 142.467 98.0651 139.111ZM92.5841 128.81C92.7416 129.129 92.8991 129.448 93.06 129.77L91.8214 130.176H91.8203C86.6841 131.86 81.5529 133.559 76.4269 135.273C67.6609 138.201 66.2906 138.657 66.0713 138.157C65.9981 137.989 66.1208 137.784 66.4369 137.867C68.7755 136.706 71.222 135.776 73.7415 135.091C77.94 133.598 82.0159 132.272 85.9793 130.983C88.1843 130.269 90.3859 129.545 92.5841 128.81ZM86.6689 115.134C86.8208 115.541 86.9749 115.952 87.1324 116.366C76.1749 119.697 61.0571 124.245 60.4845 124.245C60.1898 124.245 59.6498 124.21 59.6498 123.73C59.6498 123.402 59.7341 123.212 60.1684 123.212C60.2587 123.209 60.347 123.239 60.4159 123.298C63.0788 122.372 76.6024 118.213 86.6689 115.134ZM82.7989 103.017L82.8045 103.033C82.9204 103.41 83.0317 103.775 83.1319 104.12C72.1654 107.696 58.2334 112.145 56.2106 112.145C56.0385 112.145 55.9969 112.118 55.8585 111.979C55.5379 111.659 55.6425 111.621 82.7989 103.017ZM74.7968 22.8837C75.2974 22.8938 75.5843 23.238 75.5843 23.3989H75.5865C75.5886 23.5504 75.5482 23.6994 75.4698 23.8291C75.3915 23.9587 75.2783 24.0638 75.1432 24.1324C73.2848 24.7062 40.5788 34.0437 39.8003 34.0437C39.645 34.0437 39.3188 33.7399 39.3379 33.4665C39.3424 33.3934 39.3818 33.2157 39.6304 33.1324C40.6823 32.6937 41.2819 32.5238 44.1664 31.707C45.315 31.3808 49.2874 30.2299 54.0101 28.8608C62.7064 26.3397 73.9463 23.0794 74.7968 22.8837ZM74.0542 36.6357C69.7702 37.9125 63.9967 39.6338 56.2219 41.9164C47.8789 44.3644 43.7063 45.7583 43.7051 46.0958C43.7051 46.7798 44.9336 46.4175 62.721 41.1795L68.4833 39.4842C71.5536 38.5813 74.6256 37.6839 77.6993 36.792H77.7015C85.2435 34.6005 86.1649 34.3305 86.2774 33.867C86.2931 33.8029 86.2931 33.7343 86.2931 33.6555V33.642C86.2931 32.9862 85.3256 33.2753 74.0554 36.6345L74.0542 36.6357ZM74.718 52.0448C73.9969 52.2867 73.2769 52.5274 72.5614 52.7738C69.559 53.8093 66.5571 54.8461 63.5558 55.8844C51.867 59.9232 51.822 59.9389 48.3368 60.8108C48.0206 60.8862 47.8148 60.3383 48.2231 60.1448C50.7926 58.9185 53.4622 58.0579 56.0419 57.2265C70.695 52.5027 75.3806 50.7814 77.4686 50.0153C78.7804 49.5315 79.0661 49.4269 80.1574 49.1907C80.7491 49.1907 80.874 49.7835 80.4971 49.9714C78.6184 50.7398 76.6643 51.3934 74.718 52.0448ZM65.7968 68.9558C68.7791 68.1784 71.1833 67.4438 74.907 66.3053C76.977 65.673 79.4543 64.9159 82.665 63.9585L83.7653 63.63C88.362 62.2587 88.9853 62.073 89.5624 61.794C89.6524 61.7513 89.7424 61.704 89.8459 61.6523C89.9359 61.6062 90.036 61.5544 90.1564 61.4948C90.2993 61.4183 90.5119 61.0414 90.3589 60.8119C90.3161 60.5937 90.054 60.5914 89.9494 60.5937C88.7344 60.7039 87.4654 61.0212 86.1908 61.5319L86.0366 61.5792C83.5695 62.3363 52.7951 71.7784 49.8881 72.8168C49.7385 72.8382 49.6373 72.9934 49.6395 73.2162C49.6395 73.3275 49.7678 73.4108 49.8668 73.3737C50.1075 73.4592 54.4646 72.1969 58.7261 70.9617C61.5218 70.1517 64.2724 69.3529 65.7968 68.9558ZM79.5791 77.8872C79.1066 78.0492 78.6296 78.2123 78.1481 78.3799C74.0242 79.8163 69.9044 81.2645 65.7889 82.7247C58.7498 85.2165 55.0193 86.5373 54.2318 86.5373C53.739 86.5373 53.5354 86.0119 53.8796 85.6677C54.0473 85.4989 81.0056 76.0354 85.6069 74.5695C86.1638 74.3873 86.5091 75.2839 85.9444 75.4718C83.8564 76.4213 81.7627 77.139 79.5791 77.8872ZM88.1528 89.2069C88.8219 88.9986 89.492 88.7934 90.1631 88.5915C92.5256 87.8772 94.8701 87.1684 97.1179 86.1795C97.47 86.0637 97.4936 85.6114 97.2214 85.3695C96.939 85.1187 96.5475 85.2469 93.0971 86.382L93.0341 86.4034C85.5058 88.8722 77.9613 91.2917 70.4014 93.6619C62.2946 96.2179 57.0105 97.884 55.4355 98.6715C55.323 98.7278 55.2161 98.9528 55.2926 99.1373C55.3076 99.1803 55.3288 99.2208 55.3556 99.2577C55.5773 99.5277 56.4806 99.2397 64.8709 96.5644H64.872C69.7095 95.022 77.0355 92.6865 88.1528 89.2069Z" fill="#B32318"/>
<path fill-rule="evenodd" clip-rule="evenodd" d="M141.355 158.966C140.976 159.708 140.607 160.456 140.248 161.209C137.36 167.276 134.421 173.859 134 180.576C125.294 178.163 117.915 178.501 110.334 180.065C107.676 180.613 105.091 181.498 105.677 184.139C106.346 186.144 108.076 186.747 111.661 187.993C113.11 188.498 114.861 189.108 116.969 189.959C118.481 190.569 118.619 190.615 120.741 191.33C123.248 192.174 128.525 193.949 142.11 198.688C143.39 199.387 144.903 199.62 146.416 199.503C148.744 199.037 149.786 196.941 150.026 194.731C150.125 193.817 150.032 192.819 149.946 191.883L149.909 191.472C149.592 187.839 151.145 179.677 152.12 175.176C152.458 173.617 152.75 172.028 153.043 170.436C153.404 168.477 153.765 166.511 154.215 164.584C155.824 157.689 157.028 154.302 157.924 151.917C152.442 154.361 146.918 156.711 141.355 158.966Z" fill="#B32318"/>
<path d="M217.807 108.539C213.49 97.317 204.969 80.3914 200.801 73.2465C197.478 67.5517 193.599 61.6747 190.442 56.4862C189.099 54.2779 187.41 52.2754 185.27 50.6115C183.075 49.1152 180.358 49.0331 176.965 50.3606C162.53 55.9744 131.843 69.2674 101.995 83.7709C94.6744 87.2955 95.103 87.2921 91.2791 89.181C88.8154 90.396 86.2684 91.6549 83.9363 93.2085C80.2485 95.5957 81.6829 100.302 82.7303 103.736C86.454 115.908 90.567 126.647 98.7795 140.922C103.525 149.169 108.417 157.369 114.994 163.198C116.928 164.911 118.797 166.612 121.372 166.963C124.187 167.287 126.797 166.129 129.349 164.962C133.556 163.039 153.599 155.348 165.115 149.604C165.268 149.527 165.243 149.569 165.211 149.443C166.706 148.76 168.272 148.197 169.775 147.39C171.129 146.661 172.562 145.98 174.427 145.18C177.399 143.694 180.471 142.157 183.623 140.641C187.823 138.54 208.738 127.539 210.286 126.668C215.742 123.6 216.128 123.394 217.663 121.859C220.797 118.144 219.387 112.789 217.808 108.537L217.807 108.539ZM83.9543 104.121C83.2611 102.176 82.7959 100.158 82.5683 98.1056C82.4636 97.164 82.6425 96.2696 83.115 95.3179C83.9475 94.2469 84.9803 93.4819 86.2065 93.033C98.9123 85.9185 148.821 62.5905 176.754 51.8332C178.027 51.1976 179.494 50.8117 181.101 50.6857C182.523 50.6857 183.848 51.1684 184.827 52.038C187.007 54.0889 188.632 56.1667 189.807 58.41C195.718 67.4707 200.861 76.3301 205.765 85.9725C174.607 102.909 133.628 121.783 98.6119 138.508C90.4106 123.964 86.5339 113.683 83.9565 104.121H83.9543ZM215.799 121.62C211.338 125.19 164.63 148.428 164.512 148.482C164.396 148.44 164.269 148.441 164.154 148.486C148.327 155.555 133.333 161.458 128.54 163.617C126.197 164.671 123.542 165.864 120.95 165.465C118.783 165.169 117.116 163.668 115.504 162.217C111.362 158.482 108.523 154.788 105.185 149.535C110.044 147.246 211.221 97.4362 211.389 97.3541C213.23 101.211 214.917 105.139 216.448 109.129C217.408 111.411 217.952 113.703 218.064 115.94C218.18 118.138 217.373 120.159 215.8 121.619L215.799 121.62Z" fill="#B32318"/>
<path d="M149.481 136.618C136.575 143.378 122.417 149.56 119.682 151.053C119.478 151.162 119.357 151.719 119.646 151.719C119.658 151.719 119.688 151.729 119.71 151.737C119.843 151.781 119.962 151.792 120.078 151.703C121.442 151.326 122.77 150.676 123.791 150.191C133.011 145.809 139.586 143.115 150.089 137.741C150.91 137.41 150.246 136.16 149.482 136.619L149.481 136.618Z" fill="#B32318"/>
<path d="M144.187 145.794C143.226 145.915 142.373 146.279 141.688 146.857C123.362 155.688 124.143 155.247 123.135 155.97C122.858 156.244 123.337 156.679 123.65 156.601C124.723 156.294 123.696 156.69 143.314 147.408C143.775 147.292 144.158 147.063 144.556 146.664C144.853 146.368 144.642 145.795 144.186 145.795L144.187 145.794Z" fill="#B32318"/>
<path d="M185.176 71.9359C184.651 70.8852 180.927 63.0259 179.241 61.344C178.542 60.8783 177.727 61.5769 177.146 61.8098L171.326 64.836C168.705 66.1455 169.003 66.2311 168.649 66.3492C168.593 66.3775 168.544 66.4178 168.506 66.4673C168.446 66.4763 168.429 66.5145 168.444 66.5618C168.356 66.7505 168.346 66.9664 168.416 67.1625C170.395 70.4217 172.141 73.7967 173.537 77.2875C173.603 77.4889 173.785 77.7544 174.352 77.7544C177.96 76.1254 181.452 74.3794 184.944 72.7482C185.177 72.6323 185.293 72.2836 185.177 71.9348L185.176 71.9359Z" fill="#B32318"/>
<path d="M116.479 91.323C115.64 91.4423 114.804 91.7955 114.211 92.2736C105.127 97.2259 102.203 98.1146 96.1729 101.234C95.265 101.689 96.1414 102.566 96.5711 102.229C101.689 100.245 109.817 96.0998 114.583 93.627C115.521 93.276 116.235 92.8103 116.972 92.0745C117.088 91.9586 117.224 91.3185 116.479 91.323Z" fill="#B32318"/>
</svg>
