<svg width="225" height="225" viewBox="0 0 225 225" fill="none" xmlns="http://www.w3.org/2000/svg">
<path fill-rule="evenodd" clip-rule="evenodd" d="M122.238 136.288L126.019 134.883C125.081 134.836 124.269 134.808 123.597 134.784L123.082 134.766L90.5625 146.87C89.1596 147.301 87.7208 146.632 87.2156 145.321C83.0239 133.891 77.9006 119.599 72.8325 105.34C72.7054 105.768 72.6311 106.207 72.5963 106.654C75.3103 114.226 78.0407 121.792 80.7874 129.352C80.6558 129.521 80.5174 129.684 80.3745 129.843C82.2955 135.137 84.2252 140.427 86.1638 145.714C86.8883 147.599 88.9279 148.551 90.9248 147.933C104.77 142.779 114.858 139.031 122.21 136.298L122.236 136.289L122.238 136.288ZM130.672 127.651C127.033 127.069 123.445 126.201 119.943 125.054C119.745 128.171 117.361 131.176 114.028 131.176C109.571 131.176 107.163 126.406 108.111 122.372C108.192 121.641 108.443 120.94 108.845 120.324C107.248 119.474 105.684 118.561 104.157 117.589L88.2158 123.506C86.9164 119.967 83.4458 110.22 79.3159 98.5871C78.4969 99.5321 77.5868 100.41 76.5878 101.2H76.5855C75.8131 101.662 75.1002 102.216 74.4626 102.851C81.5108 122.901 87.5768 140.076 87.7939 140.653L87.9806 141.157C88.7884 143.343 89.1956 144.45 91.7426 143.631C91.7663 143.623 112.312 135.962 126.97 130.492L130.436 127.833L130.672 127.651ZM139.636 109.69C127.937 76.2873 110.586 32.904 106.648 23.7352C106.535 23.4714 106.426 23.2062 106.32 22.9398C105.319 20.4592 104.835 19.2577 98.3486 20.6943C93.4943 21.7698 70.3643 29.5638 58.4764 34.3833C56.5425 35.1078 54.5546 36.1012 52.9245 37.3702C51.6218 38.385 49.6913 40.4212 49.5169 42.7038C49.5113 42.7781 57.0476 64.6436 67.77 94.7643C68.1345 94.563 68.5046 94.3728 68.8781 94.194C59.2099 66.879 50.7341 42.5643 50.7341 42.5643L50.7859 42.4136C51.1403 41.3775 51.5621 40.1433 52.4475 39.3592C52.4599 40.0095 61.9054 67.0803 71.028 93.0723L76.3639 90.2711L72.5794 79.5971L72.5625 79.5476L72.5355 79.4711C65.8688 60.6667 59.5013 42.7083 58.6823 40.5888C59.346 40.347 62.6805 39.1938 67.2266 37.6245C78.8265 33.6172 98.3059 26.8897 101.364 25.6207C102.639 28.9428 103.913 32.2425 105.193 35.5578C112.98 55.7223 120.998 76.4876 131.145 106.838C133.882 108.046 136.724 109.001 139.636 109.69ZM109.979 120.915C109.565 121.611 109.3 122.385 109.203 123.189C108.528 127.899 112.542 131.53 116.261 129.214C117.846 128.023 118.564 126.298 118.589 124.595C115.64 123.561 112.764 122.332 109.979 120.915Z" fill="#B32318"/>
<path d="M109.834 81.8842C109.834 81.7031 109.69 81.4308 109.552 81.2823C109.03 80.1978 108.64 78.7916 108.226 78.5778C107.953 78.4417 107.86 78.4091 107.669 78.5936C107.182 78.6723 106.713 78.7893 106.274 78.9344C106.216 78.2786 106.049 77.7194 105.785 77.2863C105.528 76.5202 105.151 75.7631 104.897 75.0026C104.381 73.7617 103.772 72.5073 103.16 71.2766C103.566 71.0845 103.953 70.8572 104.319 70.5971C104.381 70.6137 104.446 70.6179 104.51 70.6094C104.573 70.6009 104.635 70.5799 104.69 70.5476C104.842 70.4722 105.245 70.2697 105.031 69.8501C104.853 69.1391 103.908 67.3334 103.803 67.1613C103.965 66.9352 103.943 66.4751 103.65 66.4413C102.574 65.9185 101.419 65.5782 100.232 65.4344C99.432 65.2567 93.285 63.8426 90.6502 63.4882C89.4161 63.3239 89.5466 63.3329 88.8941 64.0732C88.2349 64.8236 82.2994 73.8134 81.999 74.8169C81.9448 74.8457 81.8908 74.875 81.837 74.9047C81.6896 74.9351 81.594 75.0948 81.594 75.3209C81.594 75.6123 82.4996 78.1109 82.6076 78.5013C82.5896 78.7173 82.638 78.8579 82.8934 78.8917C83.115 79.0211 83.3884 78.8939 83.565 78.7511C84.0937 78.5992 84.6259 78.4439 85.1557 78.2786C85.7925 80.0448 85.9894 80.8143 86.5316 82.0788C86.8972 82.9327 87.0502 83.6246 87.4102 84.3378C87.8524 85.6642 87.9255 85.9162 88.0729 86.1896C87.7159 86.3761 87.3682 86.58 87.0311 86.8004C86.5687 86.7611 86.4337 87.4417 86.6531 87.8737C86.967 88.8063 87.1301 89.3328 87.1504 89.3756C87.1695 89.8166 87.5014 90.5669 88.0459 90.4736C88.1066 90.5101 88.179 90.5222 88.2484 90.5073C91.746 89.5083 91.917 88.9739 98.8639 86.4641C109.827 82.5041 109.712 82.6132 109.718 82.1778C109.787 82.0954 109.827 81.9927 109.833 81.8853L109.834 81.8842ZM98.4757 69.5474C100.233 69.0457 101.748 68.4539 103.21 67.6979C103.247 67.7812 103.287 67.8633 103.328 67.9454C103.438 68.1648 103.456 68.4629 103.569 68.6688L103.786 69.5294C102.575 69.7241 101.316 70.4396 93.4357 73.3983L87.894 75.9183C86.4006 76.4563 84.9446 77.0929 83.5357 77.8241C83.376 77.4382 83.2477 77.0231 83.0599 76.6541C82.7449 75.7181 82.8484 75.9757 82.6031 75.4841C84.807 74.8001 84.0386 74.7978 98.4757 69.5474ZM102.05 78.7556C102.147 79.3383 102.387 79.8468 102.67 80.3441L99.0056 81.7537C98.6974 80.2496 97.1359 76.7126 96.822 75.7709C96.6329 75.1879 96.3876 74.6246 96.0896 74.0891L99.8831 72.5703L102.051 78.7567L102.05 78.7556ZM91.134 84.2084C91.0136 83.8462 90.8876 83.3456 90.7616 82.9664C89.9167 80.4307 89.3441 78.8804 88.4002 77.0647L92.1791 75.6168C92.5481 76.9983 93.0341 78.2831 93.4717 79.5374C94.8217 83.4131 94.5326 82.9304 94.7407 83.4434C91.5829 84.6832 91.8495 84.6213 91.4119 84.8092C91.3532 84.5942 91.2593 84.3904 91.134 84.2062V84.2084ZM92.8012 75.3794L95.0062 74.5211C95.4315 75.9217 95.7566 77.1727 96.3754 78.4012L97.1257 80.6489C97.2135 81.1743 97.4227 81.7211 97.7344 82.2419C96.5914 82.6807 97.173 82.4703 95.9299 82.9721C95.6644 81.9438 94.0455 77.5338 92.8012 75.3794ZM103.732 79.9357C103.641 79.3511 103.437 78.79 103.13 78.2842C101.367 74.0047 101.412 74.1149 101.367 74.0024C101.181 73.4467 100.965 72.8538 100.649 72.2722C101.168 72.0787 101.836 71.8469 102.46 71.5882C103.302 74.2319 103.344 73.9327 104.575 77.6182C104.682 78.2617 104.964 78.8163 105.271 79.3428L103.732 79.9357ZM87.7297 77.3549C88.1426 78.6667 88.4846 80.0201 88.9279 81.3104C90.2036 85.0229 90.0371 84.8463 90.3071 85.2513C89.3869 85.6113 89.9111 85.4493 89.046 85.7576C88.9833 85.5518 88.8753 85.3626 88.7299 85.2041C88.0909 83.2882 86.1019 78.1076 86.0467 77.9894C86.615 77.7988 87.1771 77.5871 87.7297 77.3549ZM99.765 66.6438C100.33 66.8317 100.883 66.9858 101.442 67.1084C99.3544 67.7924 86.8095 72.4409 83.4334 74.0879C83.7337 73.6829 89.3464 65.7551 90.0371 64.1148C93.5325 65.2589 94.941 65.4862 99.765 66.6438ZM89.6591 86.5867C89.8549 86.5023 106.617 80.0347 107.671 79.4024C107.736 79.6117 108.178 80.3756 108.613 81.6626C108.615 81.7301 108.625 81.7908 108.64 81.8459C107.941 82.0259 107.253 82.3376 106.575 82.6109C101.508 84.6618 101.055 84.6134 98.4915 85.6428C91.6211 88.3979 91.332 88.2191 88.497 89.6793C88.497 89.4858 88.488 89.4644 88.416 89.3216C88.3951 89.2859 88.3799 89.2472 88.371 89.2068C88.3708 89.1888 88.3678 89.171 88.362 89.1539L88.101 88.3743C88.101 88.3743 87.6049 87.3832 87.5464 87.2774C88.2783 87.1427 88.9886 86.9096 89.658 86.5844L89.6591 86.5867Z" fill="#B32318"/>
<path fill-rule="evenodd" clip-rule="evenodd" d="M162.951 145.098C158.927 147.535 154.932 150.02 150.966 152.551C150.826 152.641 150.718 152.773 150.657 152.928C150.597 153.083 150.587 153.253 150.629 153.414C158.168 182.316 174.998 201.157 196.803 205.104H196.802C196.916 205.125 197.034 205.12 197.146 205.09C197.258 205.06 197.362 205.005 197.451 204.93C206.085 197.62 213.533 188.772 219.585 178.633C219.652 178.521 219.69 178.394 219.696 178.264C219.702 178.134 219.675 178.004 219.619 177.887C219.562 177.769 219.477 177.668 219.372 177.591C219.266 177.515 219.143 177.466 219.014 177.449C204.669 175.525 193.748 164.555 186.563 151.818C186.186 152.215 185.812 152.614 185.441 153.017C192.645 165.597 203.463 176.437 217.627 178.832C211.843 188.291 204.814 196.58 196.719 203.488C175.858 199.536 159.703 181.38 152.299 153.57C156.352 150.99 160.436 148.457 164.549 145.973C164.019 145.677 163.486 145.385 162.951 145.098Z" fill="#B32318"/>
<path fill-rule="evenodd" clip-rule="evenodd" d="M130.029 127.545C126.986 129.892 123.937 132.289 121.202 134.628C121.028 134.694 121.013 134.948 121.195 135.089C121.223 135.109 121.233 135.111 121.237 135.117C121.24 135.123 121.238 135.132 121.238 135.16C121.238 135.631 121.566 135.96 122.038 135.96C139.444 135.96 156.025 141.473 170.553 151.083C174.315 153.571 176.938 157.134 177.801 161.325C177.945 162.055 178.874 162.065 179.235 161.522C187.232 151.238 192.632 146.964 197.378 143.208C199.521 141.511 201.531 139.921 203.587 137.929C203.868 137.649 203.921 137.329 203.74 136.968V136.97C201.651 133.418 198.37 131.265 193.626 128.235C187.986 124.631 182.712 121.689 175.113 119.472C173.382 118.931 171.63 118.462 169.86 118.065L168.425 119.16C178.572 121.27 187.858 125.739 196.567 132.151C198.771 133.429 200.633 135.22 201.995 137.373C200.221 138.994 198.479 140.353 196.65 141.779C191.991 145.413 186.765 149.491 178.981 159.483C177.936 156.21 176.022 153.276 173.274 151.063L173.273 151.062C165.121 144.498 151.298 137.958 136.965 135.499C132.819 134.755 128.258 134.308 123.048 134.138C125.95 132.075 128.816 129.962 131.645 127.8C131.105 127.721 130.566 127.637 130.029 127.545Z" fill="#B32318"/>
<path d="M184.359 106.215C175.161 108.768 165.83 110.253 156.625 110.627C142.318 111.031 129.21 107.52 118.86 97.8772C119.306 97.6713 119.751 97.4317 120.219 97.1853C120.888 96.8321 120.292 95.8106 119.716 95.9895C118.242 96.4327 118.438 96.5463 112.506 98.8976C106.142 101.421 94.4505 105.567 90.6458 107.305C89.4139 107.866 89.9201 108.684 90.7718 108.684C91.0316 108.684 91.1801 108.605 91.5278 108.456C107.085 124.704 134.087 133.21 157.535 127.502C158.399 127.379 159.236 127.112 160.011 126.712L184.581 108C185.858 107.634 185.218 105.759 184.356 106.216L184.359 106.215ZM158.7 125.919C158.348 126.036 157.984 126.155 157.602 126.16C153.339 127.107 152.647 127.345 147.147 127.924C128.342 129.426 109.059 122.952 94.8758 110.287C94.0545 109.584 93.2085 108.858 92.4818 108.036C98.1371 105.537 98.7379 105.31 117.593 98.3992C123.695 104.88 131.119 109.123 140.941 111.087C151.704 113.152 163.843 113.175 180.935 108.972L158.699 125.918L158.7 125.919Z" fill="#B32318"/>
<path d="M135.547 112.731C134.939 111.669 133.977 110.789 132.851 110.195L133.393 109.169C133.43 109.103 133.453 109.031 133.461 108.957C133.469 108.882 133.462 108.807 133.441 108.735C133.42 108.664 133.384 108.597 133.337 108.539C133.289 108.481 133.231 108.433 133.165 108.398C133.098 108.363 133.026 108.342 132.951 108.335C132.877 108.329 132.802 108.337 132.73 108.36C132.659 108.383 132.593 108.42 132.536 108.468C132.479 108.517 132.433 108.576 132.399 108.643L131.816 109.745C130.984 109.465 130.109 109.336 129.232 109.365C126.81 109.428 124.588 112.265 126.454 114.442C128.277 116.523 132.265 115.865 133.37 118.561C133.993 120.059 132.291 121.387 131.317 121.875C127.363 123.455 122.974 121.864 121.178 119.178C120.804 118.43 120.549 117.666 120.294 116.905C120.22 116.757 120.026 116.367 119.594 116.562C119.392 116.586 119.216 116.774 119.217 116.964C119.149 117.621 119.218 118.285 119.42 118.914C119.621 119.543 119.951 120.124 120.388 120.619C121.609 122.188 122.87 122.628 124.072 123.165L123.537 124.234C123.471 124.367 123.46 124.522 123.507 124.663C123.554 124.805 123.656 124.922 123.789 124.989C123.923 125.055 124.077 125.066 124.219 125.019C124.361 124.972 124.478 124.87 124.544 124.737L125.129 123.567C129.433 124.929 133.788 123.128 134.563 120.039C135.182 117.576 132.966 115.777 130.549 115.053C129.327 114.649 127.243 114.16 127.129 112.804C127.019 111.03 129.234 110.44 130.85 110.708C132.151 110.908 133.614 111.867 134.763 113.272C135.245 113.861 135.919 113.379 135.548 112.728L135.547 112.731Z" fill="#B32318"/>
<path d="M172.944 126.633C172.389 125.386 171.438 124.388 170.359 123.911C170.137 123.764 169.909 123.627 169.675 123.5L170.457 122.355C170.541 122.232 170.573 122.08 170.545 121.933C170.517 121.787 170.432 121.657 170.309 121.573C170.186 121.489 170.034 121.457 169.888 121.485C169.741 121.512 169.612 121.597 169.527 121.72L168.627 123.039C164.268 121.518 161.712 124.411 162.53 127.134C163.563 130.232 166.876 130.753 168.616 132.992C169.498 134.125 169.646 135.742 168.415 136.529C166.012 137.862 162.98 137.33 160.782 135.793C159.739 134.866 158.841 133.764 158.042 132.435C157.875 132.099 157.528 132.061 157.185 132.234C157.169 132.242 157.154 132.252 157.141 132.265C157.006 132.4 156.839 132.567 156.841 132.916C157.188 135.119 159.251 136.864 161.188 137.851L160.074 139.521C160.018 139.606 159.985 139.704 159.98 139.806C159.976 139.908 159.998 140.009 160.046 140.098C160.094 140.188 160.166 140.263 160.253 140.315C160.34 140.368 160.44 140.395 160.542 140.395C160.947 140.395 160.941 140.248 162.231 138.314C164.482 139.159 167.392 139.167 169.358 137.692C171.725 135.823 170.645 132.711 168.33 130.976C166.952 130.15 165.729 129.265 164.701 128.35C162.214 125.863 164.084 122.646 168.316 124.337C169.844 124.848 170.404 125.444 172.304 126.961C172.334 126.984 172.371 126.997 172.41 126.997C172.666 126.997 172.956 126.997 172.956 126.702C172.957 126.678 172.952 126.654 172.942 126.632L172.944 126.633Z" fill="#B32318"/>
<path d="M188.305 166.272L189.686 165.25C189.746 165.206 189.796 165.151 189.834 165.088C189.872 165.024 189.897 164.954 189.908 164.881C189.919 164.808 189.916 164.733 189.898 164.661C189.88 164.59 189.848 164.522 189.804 164.463C189.76 164.403 189.705 164.353 189.642 164.315C189.578 164.277 189.508 164.251 189.435 164.24C189.362 164.23 189.287 164.233 189.216 164.251C189.144 164.269 189.076 164.301 189.017 164.345L187.615 165.382C183.71 160.972 178.852 163.956 179.188 168.137C179.466 169.941 180.176 171.584 181.238 172.882C182.262 174.286 183.604 175.752 183.604 177.453C183.604 180.65 179.985 183.057 176.759 181.713C172.458 180.196 171.479 175.285 171.945 171.552C172.118 170.683 170.75 170.646 170.603 171.495C170.021 174.839 170.755 177.969 172.345 180.152L170.813 181.295C170.752 181.338 170.701 181.394 170.662 181.457C170.622 181.521 170.596 181.592 170.584 181.666C170.573 181.739 170.576 181.815 170.594 181.888C170.612 181.96 170.644 182.028 170.689 182.088C170.734 182.148 170.79 182.199 170.854 182.237C170.919 182.275 170.99 182.3 171.064 182.31C171.138 182.32 171.214 182.315 171.286 182.296C171.358 182.277 171.426 182.243 171.485 182.197L173.07 181.015C173.185 181.132 173.303 181.247 173.424 181.357C175.755 183.824 179.534 184.239 182.092 182.774C183.304 182.081 184.257 180.815 184.821 179.262C185.214 177.689 184.936 176.115 184.043 174.84C182.338 172.083 178.701 168.498 181.62 165.58C183.084 164.116 185.327 164.971 186.68 166.458C188.096 167.992 189.016 169.917 189.413 172.152C189.413 172.674 190.142 172.461 190.128 171.773C190.092 169.972 189.431 167.924 188.305 166.272Z" fill="#B32318"/>
<path d="M77.4495 101.334C78.5993 100.44 79.5026 99.4072 80.3768 98.4082C82.1735 96.3731 83.4415 93.927 84.069 91.2858C84.4481 90.2756 84.2366 88.9424 83.5256 87.9502C82.5829 87.0074 81.252 86.7532 80.0663 87.2797C78.4125 87.8816 77.1165 88.5296 76.0073 89.3081C69.0334 92.8901 66.7249 93.7372 63.477 96.3989C61.1888 98.2732 59.967 101.117 58.7486 103.827C57.5314 106.54 55.323 111.585 54.2745 114.424C50.2088 114.914 53.4578 114.426 13.2885 122.116C10.7899 122.595 8.20689 123.087 5.68801 123.898C5.25938 124.113 5.48438 124.756 5.90288 124.722C9.82014 124.409 41.5789 118.287 48.9623 116.894C50.6284 116.673 52.1865 116.259 53.829 115.818C53.8628 116.032 54.4748 116.227 54.7414 115.963C55.1138 115.572 58.8904 107.561 58.9444 107.449C60.1549 104.49 61.4329 102.012 62.9584 99.6648C64.68 97.5645 66.8664 95.8933 69.345 94.7834L77.5676 90.4814C78.7478 89.7066 80.0413 89.1198 81.4016 88.7422C82.6695 88.6364 82.881 89.8481 82.6155 91.0507C81.4264 95.0118 78.9098 98.3002 76.2491 100.298C75.3446 100.863 74.3591 101.677 73.3084 102.729C70.3845 106.071 72.5096 110.223 72.5096 114.202C72.5096 118.124 70.6703 121.876 67.1468 124.419C66.4774 124.922 67.0129 126.062 67.8353 125.586C69.291 124.744 71.2148 123.376 72.828 119.959C73.9044 117.645 74.3496 115.088 74.1184 112.547L80.1349 129.189C79.3699 129.604 78.5801 130.777 77.0141 131.602C75.8891 132.196 74.7506 132.86 73.5086 133.357C70.6069 134.319 67.6331 135.048 64.6155 135.537C63.8888 135.656 64.161 135.565 63.6424 135.828C59.9929 137.68 58.7621 138.894 55.2859 141.207C54.7954 141.533 48.9555 145.54 46.4479 147.393C19.3613 166.412 22.4021 162.568 18.7886 165.581C18.6401 165.706 18.7763 166.384 19.0226 166.384C20.0059 166.306 21.2861 165.532 22.3211 164.977C32.0344 159.735 41.5924 152.731 54.8483 143.63C62.685 138.25 62.7266 138.395 64.4254 136.708C69.3439 136.491 74.0059 135.078 77.6903 133.03C78.4991 132.545 80.613 131.296 80.9899 130.432C81.0798 130.431 81.1681 130.409 81.2474 130.367C81.3268 130.324 81.3949 130.264 81.446 130.19C81.4971 130.116 81.5298 130.031 81.5412 129.942C81.5527 129.853 81.5426 129.762 81.5119 129.678C78.7733 122.143 76.0516 114.603 73.3466 107.056C73.3658 105.955 73.6166 104.901 74.322 103.96C75.087 103.088 76.1074 102.23 77.4551 101.331L77.4495 101.334Z" fill="#B32318"/>
</svg>
