<svg width="200" height="200" viewBox="0 0 200 200" fill="none" xmlns="http://www.w3.org/2000/svg">
<path d="M150.38 48.734C149.548 46.426 148.622 44.134 147.608 41.906C145.588 37.472 145.124 33.27 142.286 29.562" stroke="#CCDDE2" stroke-width="1.448" stroke-miterlimit="10"/>
<path d="M135.708 25.3116C133.266 22.8276 130.982 20.1576 126.832 18.1636C118.062 13.9636 106.848 13.5376 92.5342 19.4776" stroke="#CCDDE2" stroke-width="1.448" stroke-miterlimit="10"/>
<path d="M32.3564 188.096C18.4864 168.49 14.0004 146.324 16.3184 123.654" stroke="#CCDDE2" stroke-width="1.448" stroke-miterlimit="10"/>
<path d="M158.184 91.5781V91.8201C158.048 96.2201 162.114 114.46 173.646 120.254C185.178 126.048 193.4 151.48 167.4 161.458C141.4 171.436 142.816 188.096 142.816 188.096" stroke="#CCDDE2" stroke-width="1.448" stroke-miterlimit="10"/>
<path d="M92.532 38.3098V16.7618C92.5284 15.2814 91.9386 13.8627 90.8918 12.816C89.845 11.7692 88.4264 11.1795 86.946 11.1758H15.586C14.1056 11.1795 12.687 11.7692 11.6402 12.816C10.5934 13.8627 10.0037 15.2814 10 16.7618V118.082C10.0026 119.561 10.5924 120.979 11.6398 122.025C12.6871 123.07 14.1064 123.656 15.586 123.656H86.946C87.6382 123.66 88.3246 123.528 88.966 123.268" stroke="black" stroke-width="1.448" stroke-linecap="round" stroke-linejoin="round"/>
<path d="M85.0359 14.5898H17.4959C14.74 14.5898 12.5059 16.8239 12.5059 19.5798V115.262C12.5059 118.018 14.74 120.252 17.4959 120.252H85.0359C87.7919 120.252 90.0259 118.018 90.0259 115.262V19.5798C90.0259 16.8239 87.7919 14.5898 85.0359 14.5898Z" fill="#84ADFF"/>
<path d="M83.8143 22.7656H19.5663C18.1878 22.7656 17.0703 23.8832 17.0703 25.2616V40.0536C17.0703 41.4322 18.1878 42.5496 19.5663 42.5496H83.8143C85.1929 42.5496 86.3103 41.4322 86.3103 40.0536V25.2616C86.3103 23.8832 85.1929 22.7656 83.8143 22.7656Z" fill="#84ADFF"/>
<path d="M51.2657 31.0983C52.3957 31.0983 53.3117 30.1823 53.3117 29.0523C53.3117 27.9223 52.3957 27.0063 51.2657 27.0063C50.1357 27.0063 49.2197 27.9223 49.2197 29.0523C49.2197 30.1823 50.1357 31.0983 51.2657 31.0983Z" fill="#D7E8F0"/>
<path d="M45.5479 38.3103C45.5479 36.7937 46.1503 35.3393 47.2227 34.2671C48.2949 33.1947 49.7492 32.5923 51.2658 32.5923C52.7824 32.5923 54.2366 33.1947 55.309 34.2671C56.3814 35.3393 56.9839 36.7937 56.9839 38.3103H45.5479Z" fill="#D7E8F0"/>
<path d="M51.6823 63.7476C49.5011 63.7464 47.3685 64.3922 45.5543 65.6034C43.7401 66.8144 42.3261 68.5364 41.4907 70.5514C40.6555 72.5664 40.4367 74.7838 40.8619 76.9232C41.2871 79.0626 42.3373 81.0278 43.8797 82.5702C45.4221 84.1126 47.3873 85.1628 49.5267 85.588C51.6661 86.0134 53.8835 85.7944 55.8985 84.9592C57.9135 84.124 59.6355 82.7098 60.8465 80.8956C62.0577 79.0814 62.7035 76.949 62.7023 74.7676C62.7007 71.8454 61.5391 69.0434 59.4729 66.9772C57.4065 64.9108 54.6045 63.7492 51.6823 63.7476ZM51.6823 83.1296C51.2555 83.1296 50.8463 82.9602 50.5445 82.6584C50.2429 82.3566 50.0733 81.9474 50.0733 81.5206C50.0733 81.094 50.2429 80.6846 50.5445 80.383C50.8463 80.0812 51.2555 79.9116 51.6823 79.9116C52.1091 79.9116 52.5183 80.0812 52.8201 80.383C53.1217 80.6846 53.2913 81.094 53.2913 81.5206C53.2913 81.9474 53.1217 82.3566 52.8201 82.6584C52.5183 82.9602 52.1091 83.1296 51.6823 83.1296ZM53.7243 70.7296C53.3783 73.1176 53.0863 75.6356 52.3843 77.9576C52.2123 78.5096 51.1643 78.5096 50.9843 77.9576C50.4811 76.21 50.0951 74.4306 49.8283 72.6316C49.6123 71.3236 48.8463 69.2076 49.5803 67.9316C50.2183 66.7976 52.0323 66.6576 53.0803 67.2516C54.3823 67.9996 53.8743 69.5496 53.7243 70.7376V70.7296Z" fill="#D7E8F0"/>
<path d="M23.9941 51.3818H77.8321" stroke="white" stroke-width="1.448" stroke-miterlimit="10"/>
<path d="M23.9941 56.6797H77.8321" stroke="white" stroke-width="1.448" stroke-miterlimit="10"/>
<path d="M23.9941 90.8062H77.8321" stroke="white" stroke-width="1.448" stroke-miterlimit="10"/>
<path d="M36.5 95.8179H65.326" stroke="white" stroke-width="1.448" stroke-miterlimit="10"/>
<path d="M29.7139 128.64C29.7139 128.64 39.2939 90.5718 69.1319 81.2738L81.2599 78.3798C81.2599 78.3798 83.1779 69.8138 82.4719 68.9138C81.7659 68.0138 80.3159 66.1698 77.6599 66.5698C75.0039 66.9698 68.1379 67.0978 66.3799 58.7038C64.6219 50.3098 71.1179 30.3578 87.9999 27.3738C104.882 24.3898 105.276 36.7858 105.276 36.7858L92.8759 65.5198L94.7999 88.6998L95.0419 123.23L29.7139 128.64Z" fill="white"/>
<path d="M132.824 99.2324C132.624 99.2904 130.072 100.032 129.068 101.8C128.877 101.396 128.575 101.054 128.197 100.814C127.818 100.575 127.38 100.448 126.932 100.448H96.9624C96.4292 100.447 95.9114 100.628 95.494 100.959C95.0764 101.291 94.784 101.755 94.6644 102.274L88.7624 127.58C88.3624 127.502 87.9624 127.454 87.5464 127.414L73.6184 123.938C73.021 123.788 72.389 123.867 71.8462 124.158C71.3032 124.449 70.8884 124.932 70.6824 125.512C70.5896 125.773 70.5436 126.048 70.5464 126.324C70.5464 126.952 70.7846 127.557 71.2128 128.017C71.6412 128.476 72.2278 128.756 72.8544 128.8L79.4404 129.224C73.0964 132.21 65.3784 137.898 58.9364 143.124C52.6684 133.31 58.5504 123.498 62.9744 118.214C62.4044 112.39 59.5164 98.8682 45.1064 99.2362C50.0704 92.8702 56.2604 87.4144 63.9304 83.7622C90.2024 112.882 120.258 89.0742 120.896 88.5622C125.391 91.4942 129.413 95.0936 132.824 99.2362" fill="#2E2E2E"/>
<path d="M130.095 182.768V187.8H43.333V180.672C46.713 180.872 50.269 180.072 53.503 178.614C57.597 176.75 61.133 173.854 64.157 170.55C67.267 167.13 68.975 162.388 70.957 158.264C73.933 152.054 77.875 147.63 84.131 145.756L83.731 147.476C83.6508 147.823 83.6496 148.183 83.7276 148.529C83.8056 148.876 83.9608 149.201 84.1816 149.479C84.4024 149.758 84.6832 149.983 85.003 150.138C85.323 150.293 85.6736 150.374 86.029 150.374H116.149C115.549 155.574 113.019 183.974 130.095 182.774" fill="#2E2E2E"/>
<path d="M116.163 50.426C116.138 53.1166 115.788 55.794 115.119 58.4C114.813 59.6356 114.158 60.7566 113.231 61.629C112.305 62.5014 111.146 63.0878 109.895 63.318C109.845 61.502 109.073 59.908 107.895 58.918C108.002 57.3806 107.987 55.837 107.849 54.302C107.771 53.288 107.649 52.342 107.521 51.492C107.444 51.0082 107.334 50.5304 107.191 50.062C106.789 49.6302 106.315 49.2708 105.791 49C103.937 47.956 100.121 46.846 93.0506 48.478C91.8962 48.7424 90.8102 49.2458 89.8626 49.956C89.8416 49.9692 89.8228 49.9852 89.8066 50.004C89.1686 50.592 88.3566 51.336 87.5166 51.722C86.6466 52.122 85.7386 52.138 84.9766 51.192C84.9566 51.172 84.9466 51.154 84.9286 51.134C84.5286 50.612 84.1466 49.934 83.4406 49.8C81.9526 49.52 81.2286 51 81.0406 52.244C80.8766 53.394 81.2146 54.408 81.7086 55.374C82.1224 56.1594 82.663 56.871 83.3086 57.48C83.4744 57.6404 83.6262 57.8142 83.7626 58C83.7006 58.011 83.6396 58.0278 83.5806 58.05C83.4438 58.096 83.3102 58.1508 83.1806 58.214C81.3806 59.024 80.0986 61.054 80.0706 63.43C80.0706 63.504 77.0526 63.46 76.6706 63.43C75.1986 63.294 73.7486 62.87 72.7126 61.76C69.7726 58.61 69.7866 53.936 70.9946 50.28C72.1386 46.81 73.5946 43.422 75.5026 40.3C79.6366 33.544 86.0506 28.56 94.1706 28.112C96.118 28.0142 98.07 28.1282 99.9926 28.452C100.902 28.5954 101.802 28.7958 102.687 29.052C110.965 32.664 116.219 40.852 116.171 50.426" fill="#2E2E2E"/>
<path d="M111.369 127.446C110.391 129.956 108.063 131.392 106.169 130.646C104.275 129.9 103.531 127.276 104.507 124.766C105.483 122.256 107.813 120.818 109.707 121.566C111.601 122.314 112.347 124.938 111.369 127.448" fill="#84ADFF"/>
<path d="M116.401 149.862C116.401 149.862 111.089 186.892 132.337 182.788C153.469 178.702 161.467 92.7322 100.299 80.3682" stroke="black" stroke-width="1.448" stroke-miterlimit="10"/>
<path d="M66.6526 114.212C66.6526 114.212 49.5086 128.671 58.7466 143.131" stroke="black" stroke-width="1.448" stroke-miterlimit="10"/>
<path d="M116.786 139.576C116.492 139.594 116.072 139.398 115.786 139.32C115.424 139.224 115.064 139.122 114.708 139.012C112.62 138.362 110.654 137.367 108.894 136.068C108.494 135.782 107.782 135.598 107.294 135.786C107.023 135.886 106.783 136.057 106.6 136.281C106.417 136.505 106.297 136.774 106.254 137.06C106.104 138.092 106.832 139.102 107.626 139.764C108.568 140.552 109.546 141.278 110.688 141.75C111.791 142.193 112.928 142.543 114.088 142.796C114.614 142.918 115.148 142.996 115.67 143.13" stroke="black" stroke-width="1.448" stroke-miterlimit="10"/>
<path d="M123.367 129.558C123.583 130.698 123.741 131.882 123.633 133.04C123.543 134.02 123.191 135.164 122.101 135.402C121.894 135.456 121.679 135.476 121.465 135.46C117.361 135.218 113.979 133.8 110.117 131.008C106.255 128.216 104.895 134.646 108.423 135.786" stroke="black" stroke-width="1.448" stroke-miterlimit="10"/>
<path d="M108.57 140.54C108.476 140.462 108.386 140.379 108.301 140.29C106.379 138.28 106.03 142.318 108.048 143.506L108.308 143.66C108.444 143.718 108.59 143.786 108.734 143.86C108.802 143.878 108.878 143.908 108.948 143.928M108.948 143.928C110.772 144.728 112.715 145.24 114.627 145.762C112.735 145.144 110.848 144.536 108.948 143.928ZM108.948 143.928C108.784 143.86 108.629 143.792 108.465 143.714C108.414 143.693 108.362 143.677 108.308 143.666C108.274 143.651 108.237 143.644 108.2 143.648C108.163 143.651 108.127 143.665 108.096 143.686C108.051 143.724 108.018 143.774 108.001 143.83C107.691 144.574 107.943 145.512 108.339 146.178C108.755 146.882 109.468 147.424 110.172 147.81C112.066 148.872 114.268 149.5 116.394 149.876C116.789 149.958 117.193 149.984 117.594 149.954" stroke="black" stroke-width="1.448" stroke-miterlimit="10"/>
<path d="M134.745 154.536C134.745 154.536 128.227 143.428 127.501 133.77C127.057 127.792 125.301 126.526 124.045 126.44" stroke="black" stroke-width="1.448" stroke-miterlimit="10"/>
<path d="M122.101 135.4L123.369 129.558L124.045 126.438L129.057 103.306C129.131 102.961 129.127 102.605 129.046 102.262C128.964 101.919 128.807 101.599 128.586 101.325C128.365 101.05 128.085 100.829 127.767 100.677C127.449 100.525 127.101 100.446 126.749 100.446H96.7767C96.2437 100.445 95.7261 100.626 95.3087 100.957C94.8913 101.289 94.5987 101.752 94.4787 102.272L88.5767 127.58L84.2687 146.046L83.8687 147.776C83.7891 148.122 83.7885 148.482 83.8671 148.828C83.9455 149.175 84.1009 149.499 84.3219 149.777C84.5427 150.056 84.8235 150.28 85.1433 150.435C85.4629 150.59 85.8135 150.671 86.1687 150.672H116.287" stroke="black" stroke-width="1.448" stroke-miterlimit="10"/>
<path d="M84.9404 50.5265C84.9404 50.5265 86.5264 43.8005 95.4824 42.9085C104.438 42.0165 106.682 48.7085 106.682 48.7085L106.4 49.3825C106.4 49.3825 94.6264 44.6585 88.1244 51.4005C88.1244 51.4005 85.7824 52.4625 84.9404 50.5305" fill="#84ADFF"/>
<path d="M87.3564 127.414L73.4264 123.934C73.0942 123.852 72.7484 123.84 72.4112 123.898C72.074 123.957 71.7526 124.085 71.4674 124.274C71.1824 124.463 70.9398 124.71 70.755 124.998C70.5704 125.287 70.4478 125.61 70.3948 125.948C70.342 126.286 70.36 126.632 70.4478 126.963C70.5356 127.294 70.6912 127.603 70.9048 127.87C71.1184 128.137 71.3854 128.358 71.6886 128.516C71.992 128.675 72.325 128.769 72.6664 128.792L79.2524 129.226" stroke="black" stroke-width="1.448" stroke-miterlimit="10"/>
<path d="M120.716 88.5524C120.716 88.5524 90.2902 113.2 63.7422 83.7622" stroke="black" stroke-width="1.448" stroke-miterlimit="10"/>
<path d="M62.7882 118.21C62.2182 112.386 59.3322 98.8539 44.9102 99.2319" stroke="black" stroke-width="1.448" stroke-miterlimit="10"/>
<path d="M132.643 99.228C132.643 99.228 129.925 99.976 128.883 101.804" stroke="black" stroke-width="1.448" stroke-miterlimit="10"/>
<path d="M22.2246 188.1H151.407" stroke="black" stroke-width="1.448" stroke-miterlimit="10"/>
<path d="M107.894 58.9258C109.112 59.9498 109.894 61.6218 109.894 63.5138C109.894 66.6538 107.712 69.1938 105.016 69.1938C104.711 69.1922 104.408 69.1566 104.11 69.0878C107.25 66.6878 107.886 58.9258 107.886 58.9258" fill="#84ADFF"/>
<path d="M90.1324 71.6003C91.646 72.3535 93.3024 72.7767 94.9918 72.8419C96.6812 72.9071 98.3652 72.6127 99.9324 71.9783C108.768 68.2883 108.43 57.4123 107.512 51.5003C107.439 51.0207 107.335 50.5463 107.2 50.0803V50.0703C106.186 46.6903 103.54 43.9363 100.054 43.1543C93.3024 41.6283 87.1284 45.4563 84.5664 50.6103" stroke="black" stroke-width="1.448" stroke-miterlimit="10"/>
<path d="M107.284 50.1862C107.284 50.1862 107.256 50.1462 107.198 50.0802V50.0702C106.598 49.3942 103.124 46.1682 93.0683 48.4862C91.9145 48.75 90.8289 49.2536 89.8823 49.9642C89.8599 49.977 89.8397 49.9932 89.8223 50.0122" stroke="black" stroke-width="1.448" stroke-miterlimit="10"/>
<path d="M80.4808 66.5702H75.5068C71.9168 66.5702 69.0708 63.2822 67.8328 60.1962C66.0928 55.8562 67.2068 51.4142 68.7728 47.1962C70.0848 43.6662 71.7528 40.2362 73.9468 37.1662C78.8588 30.2962 86.2748 26.4042 94.7988 27.1242C95.5548 27.1882 96.3074 27.2814 97.0568 27.4042C108.503 29.2602 116.221 38.8302 116.163 50.4202C116.139 53.1126 115.788 55.7922 115.119 58.4002C114.811 59.6348 114.155 60.7548 113.228 61.6268C112.302 62.4988 111.144 63.0858 109.893 63.3182" stroke="black" stroke-width="1.448" stroke-miterlimit="10"/>
<path d="M83.7668 58C83.6298 57.814 83.478 57.6394 83.3128 57.478C82.6668 56.87 82.126 56.159 81.7128 55.374C81.2188 54.408 80.8808 53.394 81.0448 52.244C81.2288 51.008 81.9528 49.52 83.4448 49.8C84.1508 49.936 84.5268 50.612 84.9328 51.134C86.4768 53.134 88.6028 51.124 89.9068 49.916" stroke="black" stroke-width="1.448" stroke-miterlimit="10"/>
<path d="M107.894 58.9258C109.112 59.9498 109.894 61.6218 109.894 63.5138C109.894 66.6538 107.712 69.1938 105.016 69.1938C104.711 69.1922 104.408 69.1566 104.11 69.0878" stroke="black" stroke-width="1.448" stroke-miterlimit="10"/>
<path d="M97.457 62.7806C98.549 63.5146 101.187 64.1166 100.657 61.9406C100.021 59.3626 99.165 53.8546 104.407 53.4346C104.407 53.4346 106.715 53.5326 107.855 54.3166" stroke="black" stroke-width="1.448" stroke-miterlimit="10"/>
<path d="M99.4304 67.0902C99.4304 67.0902 96.7904 68.4902 95.4824 65.7002" stroke="black" stroke-width="1.448" stroke-miterlimit="10"/>
<path d="M94.0764 57.2001C93.9744 58.0861 94.3204 58.8521 94.8504 58.9141C95.3804 58.9761 95.8924 58.3141 95.9964 57.4221C96.1004 56.5301 95.7504 55.7721 95.2224 55.7101C94.6944 55.6481 94.1784 56.3101 94.0764 57.2001Z" fill="black"/>
<path d="M102.673 57.7218C102.571 58.6058 102.917 59.3738 103.447 59.4358C103.977 59.4978 104.489 58.8358 104.591 57.9438C104.693 57.0518 104.347 56.2918 103.819 56.2318C103.291 56.1718 102.775 56.8318 102.673 57.7218Z" fill="black"/>
<path d="M97.4567 54.0005C97.4567 54.0005 95.8407 51.5085 92.1787 53.8725" stroke="black" stroke-width="1.448" stroke-miterlimit="10"/>
<path d="M100.297 71.814V85.638" stroke="black" stroke-width="1.448" stroke-miterlimit="10"/>
<path d="M45.6445 154.536C45.6445 154.536 51.3425 149.136 58.7425 143.136C65.1845 137.91 72.9105 132.212 79.2565 129.228C80.0685 128.85 80.8565 128.512 81.6225 128.228C83.4503 127.531 85.4119 127.258 87.3605 127.428C87.7685 127.462 88.1743 127.516 88.5765 127.592" stroke="black" stroke-width="1.448" stroke-miterlimit="10"/>
<path d="M84.2685 146.046C78.0105 147.92 74.0685 152.344 71.0945 158.554C69.1165 162.678 67.4045 167.42 64.2945 170.84C61.2725 174.142 57.7365 177.04 53.6425 178.904C46.2145 182.284 37.0685 182.024 32.2425 174.674C28.9785 169.69 27.6945 163.498 27.0425 157.674C25.9225 147.552 29.4585 119.02 44.9105 99.2304C49.8745 92.8644 56.0665 87.4084 63.7345 83.7564C69.1165 81.2004 75.2005 79.5284 82.0965 79.0544L84.0285 69.0884" stroke="black" stroke-width="1.448" stroke-miterlimit="10"/>
<path d="M130.232 183.104V188.1" stroke="black" stroke-width="1.448" stroke-miterlimit="10"/>
<path d="M43.4707 181.32V188.1" stroke="black" stroke-width="1.448" stroke-miterlimit="10"/>
<path d="M89.8122 63.5145C89.8312 65.0139 89.2988 66.4679 88.3162 67.6005C87.7652 67.8553 87.1652 67.9869 86.5582 67.9865C83.8642 67.9865 81.6802 65.4465 81.6802 62.3065C81.6608 60.8073 82.1942 59.3535 83.1782 58.2225C83.7288 57.9663 84.3288 57.8339 84.9362 57.8345C87.6302 57.8345 89.8122 60.3765 89.8122 63.5145Z" fill="#84ADFF"/>
<path d="M84.9404 69.1945C87.6312 69.1945 89.8124 66.6515 89.8124 63.5145C89.8124 60.3775 87.6312 57.8345 84.9404 57.8345C82.2496 57.8345 80.0684 60.3775 80.0684 63.5145C80.0684 66.6515 82.2496 69.1945 84.9404 69.1945Z" stroke="black" stroke-width="1.448" stroke-miterlimit="10"/>
<path d="M142.864 13.8763C139.862 12.9815 136.663 12.9969 133.67 13.9205C130.677 14.8441 128.026 16.6344 126.05 19.065C124.075 21.4957 122.865 24.4575 122.573 27.5759C122.281 30.6943 122.92 33.8293 124.41 36.5845C125.899 39.3395 128.173 41.5911 130.942 43.0541C133.711 44.5173 136.852 45.1263 139.968 44.8045C143.083 44.4825 146.033 43.2439 148.445 41.2453C150.856 39.2467 152.621 36.5779 153.516 33.5763C154.716 29.5513 154.267 25.2147 152.27 21.5201C150.272 17.8257 146.889 15.0761 142.864 13.8763ZM134.908 40.5643C134.617 40.4773 134.345 40.3339 134.109 40.1421C133.874 39.9503 133.678 39.7139 133.534 39.4465C133.389 39.1791 133.298 38.8859 133.267 38.5835C133.236 38.2811 133.265 37.9755 133.352 37.6843C133.439 37.3931 133.582 37.1217 133.774 36.8859C133.966 36.6501 134.202 36.4543 134.47 36.3099C135.01 36.0181 135.644 35.9527 136.232 36.1283C136.82 36.3039 137.314 36.7059 137.606 37.2461C137.898 37.7861 137.963 38.4201 137.788 39.0083C137.612 39.5965 137.21 40.0909 136.67 40.3827C136.13 40.6745 135.496 40.7399 134.908 40.5643ZM142.908 24.3763C142.874 24.4563 142.842 24.5343 142.812 24.6103C141.514 27.8027 139.9 30.8573 137.994 33.7283C137.532 34.4283 136.084 33.9963 136.08 33.1563C136.107 30.5459 136.307 27.9401 136.68 25.3563C136.912 23.4683 136.732 20.2363 138.258 18.7843C139.612 17.4843 142.166 18.0423 143.37 19.2903C144.7 20.6763 143.548 22.8543 142.902 24.3763H142.908Z" fill="#D7E8F0"/>
<path d="M153.82 104.68C152.721 105.798 151.978 107.216 151.685 108.755C151.393 110.294 151.563 111.886 152.175 113.329C152.787 114.771 153.812 116 155.123 116.86C156.433 117.719 157.969 118.171 159.536 118.157C161.103 118.144 162.63 117.666 163.926 116.784C165.221 115.902 166.226 114.656 166.813 113.203C167.4 111.75 167.543 110.156 167.224 108.622C166.905 107.088 166.138 105.683 165.02 104.584C163.522 103.113 161.5 102.296 159.4 102.314C157.3 102.332 155.293 103.183 153.82 104.68ZM163.756 114.446C163.54 114.666 163.247 114.79 162.94 114.793C162.632 114.795 162.337 114.676 162.118 114.46C161.899 114.245 161.774 113.952 161.772 113.644C161.769 113.337 161.888 113.042 162.104 112.822C162.21 112.714 162.337 112.628 162.477 112.568C162.617 112.509 162.768 112.478 162.92 112.476C163.072 112.475 163.223 112.504 163.364 112.561C163.505 112.618 163.633 112.702 163.742 112.808C163.85 112.915 163.937 113.042 163.996 113.182C164.055 113.322 164.087 113.472 164.088 113.625C164.089 113.777 164.061 113.928 164.004 114.069C163.947 114.21 163.862 114.338 163.756 114.446ZM158.428 107.156C159.482 108.536 160.628 109.956 161.456 111.484C161.656 111.852 161.126 112.392 160.754 112.196C159.605 111.574 158.499 110.875 157.444 110.104C156.664 109.56 155.192 108.882 154.908 107.868C154.65 106.964 155.494 105.966 156.328 105.726C157.352 105.434 157.896 106.48 158.428 107.156Z" fill="#84ADFF"/>
<path d="M184.88 41.2303C185.67 40.2595 186.153 39.0763 186.27 37.8307C186.387 36.5851 186.132 35.3327 185.537 34.2321C184.942 33.1315 184.034 32.2321 182.928 31.6473C181.822 31.0627 180.567 30.8191 179.322 30.9475C178.078 31.0759 176.899 31.5705 175.936 32.3685C174.973 33.1667 174.267 34.2325 173.91 35.4315C173.552 36.6303 173.558 37.9083 173.926 39.1039C174.295 40.2995 175.01 41.3589 175.98 42.1483C176.625 42.6725 177.367 43.0645 178.163 43.3021C178.959 43.5397 179.794 43.6181 180.621 43.5327C181.447 43.4475 182.249 43.2003 182.98 42.8053C183.71 42.4101 184.356 41.8749 184.88 41.2303ZM176.246 34.2123C176.323 34.1179 176.417 34.0397 176.524 33.9819C176.631 33.9241 176.748 33.8879 176.869 33.8753C176.99 33.8627 177.112 33.8741 177.228 33.9089C177.345 33.9435 177.453 34.0007 177.547 34.0773C177.642 34.1539 177.72 34.2483 177.778 34.3551C177.836 34.4619 177.872 34.5789 177.884 34.6999C177.897 34.8207 177.886 34.9427 177.851 35.0591C177.816 35.1755 177.759 35.2839 177.682 35.3783C177.528 35.5687 177.304 35.6899 177.06 35.7153C176.816 35.7405 176.572 35.6679 176.381 35.5133C176.191 35.3587 176.07 35.1347 176.044 34.8907C176.019 34.6467 176.092 34.4027 176.246 34.2123ZM181.032 39.6123C180.09 38.5943 179.076 37.5583 178.298 36.3983C178.11 36.1203 178.498 35.6523 178.802 35.7803C179.766 36.1909 180.7 36.6653 181.6 37.2003C182.26 37.5743 183.482 38.0003 183.784 38.7883C184.056 39.4863 183.46 40.3443 182.814 40.5883C182.016 40.8963 181.504 40.1063 181.032 39.6003V39.6123Z" fill="#84ADFF"/>
<path d="M122 82.9384C124.232 86.7384 124.13 89.4444 123.55 93.8304C123.318 95.5004 125.116 96.6304 126.574 95.7904C139.456 88.3904 151.48 94.2424 166.84 90.6144C172.48 89.2904 179.512 86.5464 184.332 82.1344C185.931 79.7596 186.786 76.9616 186.786 74.0984C186.786 62.0984 170.386 52.3564 150.16 52.3564C137.198 52.3564 125.81 56.3564 119.3 62.3824C119.3 62.3824 119.3 62.3824 119.282 62.4004C117.63 64.8744 116.722 67.5784 116.722 70.4004C116.712 74.7064 119.914 79.3744 122 82.9384Z" fill="#D7E8F0"/>
<path d="M116.77 70.4C116.77 70.5 116.77 70.6 116.77 70.704C116.842 74.904 118.95 78.818 121.446 82.204C123.118 84.468 125.102 86.984 124.632 89.76C124.432 90.984 123.742 92.094 123.57 93.322C123.398 94.55 124.052 96.082 125.292 96.146C126.08 96.186 126.75 95.626 127.374 95.146C131.064 92.286 135.86 91.216 140.524 91.028C145.188 90.84 149.846 91.456 154.512 91.588C161.24 91.788 168.074 90.94 174.288 88.36C179.856 86.052 184.958 82.264 188.308 77.204C191.6 72.236 189.654 65.022 186.142 60.702C182.85 56.648 178.08 54.054 173.188 52.226C160.03 47.314 145.012 47.426 132.036 52.808C128.184 54.408 124.458 56.488 121.57 59.498C118.756 62.43 116.8 66.338 116.77 70.4Z" stroke="black" stroke-width="1.448" stroke-miterlimit="10"/>
<path d="M170.758 75.1797C173.548 75.1797 175.81 72.9179 175.81 70.1277C175.81 67.3375 173.548 65.0757 170.758 65.0757C167.968 65.0757 165.706 67.3375 165.706 70.1277C165.706 72.9179 167.968 75.1797 170.758 75.1797Z" fill="white"/>
<path d="M154.418 75.1797C157.208 75.1797 159.47 72.9179 159.47 70.1277C159.47 67.3375 157.208 65.0757 154.418 65.0757C151.628 65.0757 149.366 67.3375 149.366 70.1277C149.366 72.9179 151.628 75.1797 154.418 75.1797Z" fill="white"/>
<path d="M137.76 75.1797C140.55 75.1797 142.812 72.9179 142.812 70.1277C142.812 67.3375 140.55 65.0757 137.76 65.0757C134.97 65.0757 132.708 67.3375 132.708 70.1277C132.708 72.9179 134.97 75.1797 137.76 75.1797Z" fill="white"/>
</svg>
