<svg width="225" height="225" viewBox="0 0 225 225" fill="none" xmlns="http://www.w3.org/2000/svg">
<path fill-rule="evenodd" clip-rule="evenodd" d="M144.056 64.305C145.477 64.971 147.024 65.3264 148.594 65.3478C150.163 65.3691 151.719 65.0558 153.158 64.4288C155.956 62.9917 158.107 60.5477 159.176 57.5888C160.296 54.7832 160.261 51.6485 159.079 48.8686C157.897 46.0887 155.663 43.8892 152.865 42.75C146.273 40.0388 140.164 41.9963 136.71 49.005C134.235 54.09 137.318 61.5938 144.056 64.305ZM137.453 49.3088C138.608 46.4266 140.839 44.1068 143.674 42.84C148.68 40.7925 156.049 42.705 158.535 49.0163C159.5 51.7376 159.449 54.7158 158.393 57.4029C157.337 60.09 155.346 62.3053 152.786 63.6413C148.196 65.7563 141.053 63.5513 137.993 57.7238C137.258 56.4584 136.827 55.0399 136.733 53.5798C136.64 52.1196 136.886 50.6577 137.453 49.3088Z" fill="#B32318"/>
<path fill-rule="evenodd" clip-rule="evenodd" d="M142.808 58.59C143.363 58.9153 143.942 59.1974 144.54 59.4338C143.415 60.6488 143.73 63.0788 144.731 60.9638C144.92 60.5721 145.035 60.1486 145.069 59.715C145.069 59.58 144.922 59.715 146.857 60.3C146.776 60.3926 146.701 60.4903 146.632 60.5925C146.431 60.9447 146.279 61.3234 146.183 61.7175C145.901 63.6975 147.431 61.8638 147.409 60.4688C147.965 60.6546 148.538 60.7901 149.119 60.8738C152.089 61.0313 153.743 57.0038 151.931 54.8213C152.897 54.2924 153.681 53.4848 154.181 52.5038C155.115 50.6138 154.598 48.555 152.055 47.2725C152.22 47.115 152.353 46.928 152.449 46.7213C153.416 44.685 152.28 44.2575 151.627 46.4063C151.357 47.3175 152.156 47.1038 149.76 46.4063C150.097 45.9958 150.329 45.5092 150.435 44.9888C150.761 42.9975 149.164 44.8875 149.22 46.2488C148.77 46.1363 147.173 45.7313 146.779 45.9675C146.509 45.4275 144.585 50.8725 142.459 56.61C142.031 57.8588 142.031 58.1175 142.808 58.59ZM146.993 46.215C147.51 45.9675 152.303 47.6438 153.27 49.1288C153.567 49.555 153.739 50.0557 153.767 50.5745C153.795 51.0932 153.677 51.6095 153.428 52.065C152.967 52.9778 152.204 53.7017 151.268 54.1125C149.344 53.37 147.071 52.5038 145.136 51.795C146.677 46.26 147.004 46.2938 146.993 46.26V46.215ZM144.743 52.4813C149.614 54.4613 146.655 53.19 151.121 55.0913C152.73 56.6325 151.47 60.0638 149.209 59.94C147.045 59.4531 144.952 58.6972 142.976 57.69C143.438 55.9319 144.016 54.2068 144.709 52.5263L144.743 52.4813ZM64.215 38.4188C70.1775 42.1425 78.0187 40.3313 81.1575 35.7413C82.7964 33.1239 83.4122 29.994 82.887 26.9509C82.3618 23.9078 80.7326 21.1654 78.3113 19.2488C72.8775 15.1988 64.9125 17.3138 61.5037 21.5888C59.8725 23.6363 58.8037 26.5838 59.1187 30.7913C59.3215 32.3698 59.8872 33.88 60.7713 35.2034C61.6555 36.5267 62.8342 37.6273 64.215 38.4188ZM61.965 21.9825C63.9374 19.5651 66.7501 17.982 69.84 17.55C75.465 16.7288 80.9325 20.5313 82.0012 26.9325C82.5167 29.8066 81.9346 32.7696 80.37 35.235C79.5198 36.3941 78.4355 37.3616 77.1874 38.0748C75.9393 38.788 74.5553 39.231 73.125 39.375C66.4537 40.41 60.4012 35.8763 59.94 30.7238C59.4622 27.6531 60.2008 24.5172 61.9987 21.9825H61.965Z" fill="#B32318"/>
<path fill-rule="evenodd" clip-rule="evenodd" d="M68.4788 35.8088C68.9063 36.1463 70.5825 35.91 71.19 35.8088C70.8975 37.17 72.0225 39.1838 72.135 37.26C72.1198 36.8554 72.0517 36.4545 71.9325 36.0675C71.8815 35.9469 71.8213 35.8303 71.7525 35.7188C73.7775 35.4038 73.6425 35.3025 73.62 35.415C73.3275 37.035 74.745 38.79 74.5763 36.54C74.5586 36.098 74.4474 35.6647 74.25 35.2688C74.8242 35.1457 75.3854 34.9687 75.9263 34.74C78.57 33.3675 77.94 29.0588 75.2738 28.1025C75.8507 27.153 76.1254 26.0505 76.0613 24.9413C76.036 24.2642 75.8183 23.6084 75.4338 23.0505C75.0493 22.4926 74.5138 22.0559 73.89 21.7913C73.1495 21.5204 72.3555 21.4279 71.5725 21.5213C71.8875 20.0475 70.7288 17.9888 70.6388 20.0138C70.6473 20.4256 70.7116 20.8343 70.83 21.2288C71.0775 21.825 71.3813 21.3638 69.1425 21.915C69.2356 21.493 69.2123 21.0536 69.075 20.6438C68.4788 18.2138 67.7138 20.6438 68.5913 22.0613C68.1525 22.1738 66.5663 22.6463 66.3413 23.0513C65.835 22.7475 66.9488 28.4513 68.0288 34.4138C68.0544 34.9101 68.2095 35.3911 68.4788 35.8088ZM73.485 22.5C73.9586 22.716 74.3624 23.0601 74.6506 23.4935C74.9389 23.9269 75.1002 24.4323 75.1163 24.9525C75.1822 25.9923 74.8751 27.0215 74.25 27.855C71.3925 28.3388 69.6263 28.6425 67.8038 28.98C67.6913 28.5863 66.3525 23.5913 66.555 23.2425C66.2738 23.04 71.6288 21.6225 73.485 22.5ZM74.61 28.755C76.77 29.25 77.445 32.85 75.42 33.8963C73.3208 34.5861 71.1442 35.0131 68.94 35.1675C68.4446 33.3871 68.0687 31.5756 67.815 29.745C72.9563 29.025 69.885 29.4188 74.6438 28.8L74.61 28.755Z" fill="#B32318"/>
<path fill-rule="evenodd" clip-rule="evenodd" d="M41.535 40.9612C42.8377 41.2636 44.2041 41.121 45.4162 40.5562C45.8207 40.352 46.1985 40.0988 46.5412 39.8025C46.9702 40.2011 47.4554 40.5347 47.9812 40.7925C48.7192 41.0442 49.5203 41.0414 50.2564 40.7844C50.9926 40.5275 51.6214 40.0312 52.0425 39.375C53.7975 40.5 56.1712 38.79 56.97 37.035C57.2206 36.467 57.3581 35.8556 57.375 35.235C60.0075 40.2975 66.6337 43.8525 73.7325 42.7725C81.3487 41.5912 85.32 36.8662 85.8825 30.555C86.117 31.1588 86.4644 31.7125 86.9062 32.1862C88.2562 33.615 91.0575 34.4362 92.3287 32.8162C92.9404 33.2952 93.695 33.5554 94.4719 33.5554C95.2488 33.5554 96.0033 33.2952 96.615 32.8162C97.0416 32.4367 97.4061 31.9925 97.695 31.5C98.1187 31.6671 98.5604 31.7841 99.0112 31.8487C100.342 31.9942 101.684 31.6934 102.825 30.9937C103.246 30.729 103.575 30.3403 103.767 29.881C103.958 29.4216 104.003 28.9143 103.894 28.4287C103.624 27.0675 100.755 27.1012 99.63 26.325C96.3337 24.075 95.4 18.0675 90.63 17.0775C89.5657 16.8172 88.4566 16.7983 87.3841 17.0222C86.3115 17.246 85.3026 17.707 84.4312 18.3712C83.8585 18.8177 83.3102 19.2946 82.7887 19.8C81.2479 17.848 79.2163 16.3402 76.9017 15.431C74.587 14.5217 72.0724 14.2436 69.615 14.625C64.08 15.4237 58.95 18.45 57.0262 24.0187C56.3254 23.6599 55.5998 23.3516 54.855 23.0962C53.8155 22.7504 52.7122 22.6397 51.6246 22.772C50.5371 22.9043 49.4925 23.2763 48.5662 23.8612C44.3925 26.3362 45.4612 32.2425 43.0537 35.4937C42.2437 36.6187 39.5212 37.485 39.6787 38.8687C39.7301 39.368 39.9368 39.8385 40.2699 40.2139C40.6029 40.5894 41.0454 40.8508 41.535 40.9612ZM84.7687 18.7312C85.5993 18.1623 86.5447 17.7828 87.538 17.6196C88.5314 17.4563 89.5485 17.5132 90.5175 17.7862C93.2287 18.4162 94.5675 21.0487 96.0637 23.4112C98.8312 27.8437 99.9112 27.2812 102.262 28.08C102.442 28.1475 102.982 28.3387 103.027 28.5412C103.399 30.33 100.777 31.1962 99.1012 31.0162C96.5812 30.78 93.6112 28.1137 92.4862 25.8975C92.4654 25.8542 92.4281 25.821 92.3828 25.8052C92.3374 25.7894 92.2876 25.7922 92.2444 25.8131C92.2011 25.834 92.1679 25.8712 92.1521 25.9166C92.1363 25.9619 92.1391 26.0117 92.16 26.055C93.2508 28.3053 95.0542 30.1323 97.29 31.2525C96.8804 31.9262 96.2282 32.4174 95.4675 32.625C92.6887 33.3675 90.2925 29.4075 88.7175 27C88.605 26.82 88.4925 26.6062 88.335 26.775C88.1775 26.9437 88.245 26.8987 88.335 26.9887C89.0523 29.1192 90.3217 31.0213 92.0137 32.5012C91.492 32.8205 90.8766 32.9515 90.27 32.8725C88.506 32.416 86.9841 31.3008 86.0175 29.7562C86.1828 26.2875 85.1588 22.8662 83.115 20.0587C83.64 19.5845 84.1922 19.1412 84.7687 18.7312ZM59.76 20.3962C62.2891 17.4428 65.8174 15.5245 69.6712 15.0075C71.428 14.7563 73.2171 14.8541 74.9361 15.295C76.6551 15.736 78.2702 16.5116 79.6892 17.5774C81.1082 18.6431 82.3031 19.9782 83.2056 21.5063C84.108 23.0343 84.7004 24.7253 84.9487 26.4825C85.5904 30.0682 84.8248 33.7632 82.8112 36.7987C81.09 39.2062 78.2212 41.175 73.6312 41.8725C65.1375 43.1887 57.6112 37.5187 57.06 31.23C56.5987 26.2912 57.8362 22.8262 59.76 20.3962ZM43.785 36.0562C46.3162 32.6025 45.27 26.8312 48.96 24.5362C49.7945 23.9758 50.7411 23.604 51.7339 23.4467C52.7267 23.2893 53.7418 23.3501 54.7087 23.625C57.2175 24.3787 56.8012 24.525 56.9025 24.4012C56.2513 26.6381 56.0299 28.9781 56.25 31.2975C56.3424 32.4155 56.6199 33.5104 57.0712 34.5375C56.8838 35.4036 56.523 36.2229 56.0107 36.9459C55.4983 37.669 54.845 38.281 54.09 38.745C53.5426 39.0146 52.9197 39.09 52.3237 38.9587C53.4157 37.0259 53.9929 34.8449 54 32.625C54 32.5125 54 32.4337 53.8762 32.4225C53.7525 32.4112 53.64 32.5575 53.5837 32.76C52.8862 35.5275 51.885 40.0725 49.0162 40.2525C48.2332 40.3078 47.4591 40.0579 46.8562 39.555C48.6142 37.7782 49.7305 35.4666 50.0287 32.985C50.0355 32.9584 50.0362 32.9306 50.0306 32.9037C50.025 32.8769 50.0134 32.8516 49.9966 32.83C49.9797 32.8083 49.9582 32.7907 49.9335 32.7787C49.9089 32.7666 49.8818 32.7603 49.8544 32.7603C49.8269 32.7603 49.7998 32.7666 49.7752 32.7787C49.7506 32.7907 49.729 32.8083 49.7122 32.83C49.6953 32.8516 49.6837 32.8769 49.6781 32.9037C49.6725 32.9306 49.6732 32.9584 49.68 32.985C49.32 35.4487 47.3625 38.925 45.0562 39.96C43.4812 40.68 40.77 40.6912 40.5562 38.835C40.5 38.25 43.0875 37.0012 43.785 36.0562ZM176.951 204.39C180.866 204.491 186.581 203.839 186.469 199.89C186.345 195.66 173.419 196.2 170.64 196.965C164.092 198.776 165.24 204.086 176.951 204.39ZM170.73 197.325C170.584 196.774 185.501 196.594 185.58 199.924C185.692 204.266 175.207 203.906 171.202 202.849C169.864 202.511 167.49 201.724 167.276 200.385C167.062 199.046 169.29 197.764 170.73 197.325Z" fill="#B32318"/>
<path fill-rule="evenodd" clip-rule="evenodd" d="M188.82 198.9C188.614 198.318 188.257 197.801 187.785 197.404C184.41 194.321 174.049 194.333 169.931 195.413C169.931 195.244 162.608 197.235 164.486 201.645C164.548 202.647 164.788 203.63 165.195 204.548C165.859 206.033 168.075 207.191 170.944 207.855C174.214 208.57 177.586 208.696 180.9 208.226C184.882 207.653 189.607 205.886 189.36 201.87C189.293 200.633 189.439 199.766 188.82 198.9ZM170.021 195.75C174.274 194.715 187.391 195.221 188.021 199.508C188.112 200.244 187.994 200.992 187.68 201.665C187.365 202.337 186.868 202.907 186.244 203.31C183.409 205.436 178.042 205.808 174.499 205.56C172.756 205.514 171.03 205.203 169.38 204.638C168.197 204.177 167.098 203.523 166.129 202.703C163.046 199.935 165.713 196.875 170.021 195.75ZM167.423 205.965C166.81 205.69 166.276 205.268 165.868 204.736C165.459 204.204 165.19 203.579 165.083 202.916C164.768 201.791 164.981 203.603 169.11 205.436C170.839 206.056 172.652 206.405 174.488 206.471C178.988 206.764 186.401 206.145 188.471 202.151C188.449 208.294 172.958 208.924 167.423 205.976V205.965ZM72 102.971C46.7325 102.42 44.82 142.695 67.6575 145.631C95.5125 149.175 92.1487 103.421 72 102.971ZM67.7812 144.731C46.1475 141.986 47.5312 102.78 72 103.343C91.125 103.781 94.3762 148.129 67.815 144.731H67.7812Z" fill="#B32318"/>
<path fill-rule="evenodd" clip-rule="evenodd" d="M71.1675 109.125C66.1163 108.99 62.5725 111.881 60.5925 116.021C59.7821 115.994 58.9769 116.161 58.2447 116.51C57.5125 116.858 56.8747 117.377 56.385 118.024C54.3375 120.6 54.135 124.864 54.945 128.025C55.7213 130.883 57.4988 132.975 60.435 133.009C61.1167 134.687 62.2151 136.164 63.6265 137.3C65.038 138.436 66.7157 139.193 68.5013 139.5C85.68 142.065 83.4975 109.451 71.1675 109.125ZM61.9425 131.94C58.6688 132.671 56.6775 130.961 55.7775 127.8C54.945 124.898 55.0238 120.848 56.835 118.373C57.2165 117.833 57.7033 117.377 58.2659 117.031C58.8285 116.685 59.4554 116.456 60.1088 116.359C60.9669 116.41 61.7947 116.695 62.5026 117.183C63.2106 117.67 63.7716 118.343 64.125 119.126C65.25 121.275 65.3738 124.301 65.1938 126.731C65.025 128.453 63.6525 131.625 61.9425 131.951V131.94ZM69.0075 131.636C68.4675 132.041 63.9 132.255 63.27 132.289C64.8403 130.86 65.8128 128.891 65.9925 126.776C66.195 123.064 65.6775 118.429 62.4375 116.651C64.7099 116.778 66.9677 117.094 69.1875 117.596C71.7188 118.361 73.4625 128.34 69.0075 131.625V131.636Z" fill="#B32318"/>
<path fill-rule="evenodd" clip-rule="evenodd" d="M199.868 129.094C197.618 125.156 199.53 118.541 195.199 115.245C194.235 114.461 193.11 113.901 191.904 113.605C190.697 113.309 189.44 113.285 188.224 113.535C187.403 113.722 186.592 113.951 185.794 114.221C184.342 107.651 178.796 102.42 170.404 101.599C170.122 81.0563 169.076 69.705 168.851 69.5363C169.121 69.4125 169.38 69.2775 169.571 69.165C170.115 69.8812 170.826 70.4535 171.642 70.8319C172.457 71.2104 173.353 71.3835 174.251 71.3363C174.753 71.3279 175.24 71.1629 175.643 70.8644C176.046 70.5658 176.347 70.1487 176.501 69.6713C176.962 68.355 174.476 66.9375 173.902 65.7C172.226 62.0438 174.465 56.4413 170.899 53.1788C170.112 52.4134 169.165 51.8326 168.126 51.4785C167.087 51.1244 165.982 51.0058 164.891 51.1313C164.745 51.1313 163.406 51.3563 162.754 51.5363C162.411 49.0682 161.418 46.7357 159.876 44.7784C158.333 42.8211 156.298 41.3095 153.979 40.3988C148.781 38.25 142.875 38.25 138.375 42.0863C137.95 41.4212 137.48 40.786 136.969 40.185C136.247 39.3577 135.352 38.7005 134.346 38.2609C133.34 37.8213 132.25 37.6101 131.153 37.6425C126.304 37.6425 124.211 43.2675 120.499 44.8538C119.216 45.405 116.449 44.7525 115.898 46.0463C115.688 46.4999 115.627 47.0078 115.722 47.4983C115.816 47.9888 116.063 48.4372 116.426 48.78C117.392 49.7024 118.64 50.273 119.97 50.4C121.916 50.535 120.983 49.7475 121.736 51.3675C122.147 52.1146 122.826 52.6783 123.636 52.9454C124.445 53.2126 125.326 53.1633 126.101 52.8075C126.702 53.46 127.487 53.9149 128.351 54.1125C129.261 54.2017 130.178 54.039 131.001 53.6421C131.825 53.2453 132.523 52.6296 133.02 51.8625C132.952 53.4126 133.158 54.9625 133.628 56.4413C123.536 56.25 105.525 56.25 105.525 56.3513C105.525 55.3613 105.458 54.7875 105.435 54.675C104.839 51.525 90.6975 55.8 87.6038 56.7338C81.765 56.9138 32.94 58.4888 29.1038 62.8313C23.1413 69.5025 27.0563 178.774 29.7225 188.033C29.9475 188.809 30.15 189.158 31.3763 189.574L32.625 193.984C29.8688 194.141 26.2238 194.693 24.2325 196.605C23.6685 197.082 23.2678 197.724 23.0862 198.44C22.9047 199.156 22.9515 199.911 23.22 200.599C23.22 201.116 23.3325 201.6 23.3213 201.555C17.0775 202.478 14.3213 205.211 16.8975 211.016C17.5613 212.513 19.7775 213.66 22.635 214.324C26.3093 215.133 30.1092 215.19 33.8063 214.493C33.8678 214.673 33.9391 214.849 34.02 215.021C36.45 220.455 58.7025 220.939 58.185 212.344C58.185 211.894 58.185 211.14 58.095 210.533C57.8693 209.525 57.353 208.606 56.61 207.889C54.2813 205.774 49.23 205.301 46.08 205.245C46.6499 204.822 47.1347 204.296 47.5088 203.693L51.6938 203.299C51.7912 203.294 51.8839 203.256 51.9559 203.19C52.0278 203.124 52.0744 203.035 52.0875 202.939L53.2125 196.886C78.1763 196.718 115.088 196.414 142.673 196.121L144.923 203.456C145.001 203.726 144.607 203.648 152.482 203.648C152.548 203.643 152.609 203.615 152.656 203.57C152.704 203.525 152.734 203.465 152.741 203.4L153.866 195.638L162.158 195.12C162.382 195.12 162.214 195.503 163.856 188.426C164.879 188.289 165.853 187.903 166.691 187.301C169.391 183.926 170.314 138.454 170.393 134.179C173.138 134.34 175.872 133.707 178.266 132.354C180.661 131.001 182.614 128.986 183.893 126.551C183.831 127.341 183.918 128.135 184.151 128.891C184.871 131.074 187.312 133.2 189.405 132.143C189.782 132.935 190.413 133.578 191.198 133.969C191.983 134.361 192.877 134.478 193.736 134.303C194.376 134.082 194.978 133.767 195.525 133.369C195.86 133.748 196.237 134.088 196.65 134.381C197.938 135.166 199.449 135.502 200.947 135.338C201.488 135.262 201.993 135.023 202.395 134.653C202.797 134.284 203.077 133.8 203.197 133.268C203.625 131.816 200.644 130.5 199.868 129.094ZM28.8675 194.828C33.1425 193.871 46.2488 194.614 46.8675 198.923C47.7788 205.493 32.6813 205.774 28.1363 203.738C21.0263 200.655 22.8938 196.155 28.8225 194.828H28.8675ZM23.3888 201.971C23.4779 202.384 23.5944 202.789 23.7375 203.186C21.4875 203.479 18.1125 204.75 18.36 206.944C18.5625 208.676 21.015 209.61 22.68 210.094C26.0635 210.913 29.5714 211.085 33.0188 210.6C32.9881 210.979 33.0301 211.361 33.1425 211.725C29.9025 212.355 23.9963 212.434 21.1163 211.219C19.35 210.476 16.9763 209.16 16.6163 207.293C15.9075 204.244 20.0025 202.331 23.3438 201.971H23.3888ZM23.9063 203.603C25.2675 206.505 31.4888 207.506 34.7175 207.664C34.0414 208.176 33.5198 208.865 33.21 209.655C29.835 210.319 22.9725 210.06 20.0813 208.226C17.5838 206.64 19.62 204.57 22.4213 203.805C22.8952 203.704 23.377 203.643 23.8613 203.625L23.9063 203.603ZM22.7813 213.66C21.0038 213.311 18.1125 212.456 17.3138 210.825C17.0357 210.244 16.828 209.632 16.695 209.003C17.804 210.301 19.2191 211.302 20.8125 211.916C23.8838 213.255 29.8688 213.233 33.345 212.558C33.3908 212.936 33.4584 213.312 33.5475 213.683C29.9703 214.352 26.2994 214.344 22.725 213.66H22.7813ZM36.2813 216.461C35.669 216.184 35.1349 215.759 34.7266 215.225C34.3183 214.692 34.0485 214.065 33.9413 213.401C33.6375 212.276 33.8625 214.11 37.9688 215.921C39.6964 216.546 41.5105 216.899 43.3463 216.968C47.8463 217.26 55.26 216.63 57.33 212.636C57.2175 218.779 41.715 219.375 36.1913 216.461H36.2813ZM56.8688 210.375C56.9813 216.799 42.4238 216.979 38.1938 215.179C32.6813 212.929 32.5688 209.756 35.4938 207.709C36.6959 207.73 37.8981 207.678 39.0938 207.551C37.395 208.035 35.235 209.194 35.4375 210.926C35.64 212.659 38.0925 213.593 39.7575 214.076C43.6785 215.055 47.7742 215.101 51.7163 214.211C53.8538 213.548 55.2938 212.321 55.2375 210.353C55.125 206.629 45.5288 206.696 41.7375 207.056C42.9138 206.795 44.0492 206.375 45.1125 205.808C48.735 205.931 56.8013 206.753 56.8688 210.375ZM54.3488 210.375C54.45 214.684 44.0663 214.38 39.9713 213.3C38.6325 212.963 36.2588 212.175 36.045 210.836C35.8313 209.498 38.0588 208.204 39.4988 207.776C39.2963 207.259 54.27 207 54.3488 210.375ZM26.0325 204.953C25.4328 204.661 24.914 204.226 24.5216 203.686C24.1293 203.147 23.8755 202.519 23.7825 201.859C23.49 200.734 23.6925 202.556 27.7538 204.446C29.4692 205.098 31.276 205.478 33.1088 205.571C37.6088 205.954 45.0338 205.47 47.1825 201.51C47.0025 207.709 31.5 208.035 26.0325 204.986V204.953ZM37.035 189.664C36.0788 189.563 31.41 189.011 30.735 188.246C28.0575 185.411 24.4013 81.1238 28.935 65.0138C29.3963 63.36 29.6663 63.1238 30.8588 62.6513C40.1513 58.9388 84.915 57.4763 85.1513 57.4088C80.5613 58.7588 40.1513 71.3138 39.7688 73.6988C39.1358 77.6078 38.704 81.5467 38.475 85.5C37.755 85.5 35.8875 85.4325 35.4375 85.995C34.2113 87.525 34.3125 93.5775 35.0325 95.2538C35.3363 95.9625 37.1588 95.9738 38.0138 95.9738V97.2338C37.3725 97.2338 35.8875 97.2338 35.4938 97.74C34.2675 99.27 34.3688 105.311 35.0888 106.999C35.3813 107.696 37.125 107.719 37.8788 107.73C37.8788 118.181 38.0025 130.084 38.2838 140.85C37.7325 140.85 36.6188 140.929 36.2813 141.356C35.055 142.886 35.1563 148.928 35.8763 150.615C36.1575 151.301 37.845 151.335 38.5988 151.346V152.606C37.9913 152.606 36.63 152.606 36.2475 153.113C35.0213 154.654 35.1788 160.706 35.8538 162.371C36.1575 163.114 38.1825 163.103 39.0488 163.091C39.105 164.385 39.7575 179.314 40.59 180.146C41.9513 181.519 88.8075 190.44 92.6663 191.183C69.75 191.34 47.7338 190.935 37.035 189.698V189.664ZM97.74 191.048C96.48 191.048 44.1675 180.923 41.22 179.471C40.6013 177.581 39.96 165.026 39.8588 162.99C41.4113 162.889 41.5238 162.754 41.6813 161.494C41.8838 159.773 41.9963 154.181 41.3325 153.124C41.1075 152.696 39.87 152.584 39.3863 152.55V151.256C39.87 151.256 41.13 151.256 41.4225 150.84C41.9963 150.098 42.1088 142.538 41.4225 141.379C41.1638 140.895 39.6113 140.794 39.0713 140.783C38.7338 130.005 38.5088 118.553 38.5088 107.64C39.067 107.641 39.6242 107.592 40.1738 107.494C40.3311 107.48 40.4797 107.415 40.5973 107.31C40.715 107.204 40.7953 107.064 40.8263 106.909C41.2538 105.469 41.2988 98.82 40.635 97.7625C40.3988 97.3125 39.0825 97.2 38.5875 97.1775V95.895C39.1048 95.8869 39.6205 95.8342 40.1288 95.7375C40.2881 95.7259 40.4393 95.6624 40.5591 95.5568C40.679 95.4512 40.761 95.3092 40.7925 95.1525C41.2088 93.7013 41.2538 87.0638 40.59 86.0063C40.3875 85.635 39.465 85.5 38.9813 85.455C39.1791 81.5358 39.5884 77.6301 40.2075 73.755C40.41 72 88.605 56.1825 97.875 54.9C97.0875 151.583 97.7513 178.763 97.74 191.081V191.048ZM162.776 51.885C163.487 51.7504 164.204 51.6528 164.925 51.5925C165.93 51.5245 166.939 51.6787 167.878 52.0442C168.817 52.4098 169.664 52.9776 170.359 53.7075C173.497 56.7113 171.281 62.1225 173.059 66.0825C173.565 67.2075 175.804 68.895 175.635 69.4575C175.039 71.19 172.361 70.5825 171 69.5925C168.964 68.1075 167.749 64.3163 167.906 61.8188C167.906 61.771 167.887 61.7253 167.854 61.6915C167.82 61.6577 167.774 61.6388 167.726 61.6388C167.679 61.6388 167.633 61.6577 167.599 61.6915C167.565 61.7253 167.546 61.771 167.546 61.8188C167.337 64.3114 167.958 66.8032 169.312 68.9063C168.869 69.0879 168.404 69.2127 167.929 69.2775C165.938 69.2775 165.038 67.725 164.554 65.7675C164.256 64.0807 164.095 62.3727 164.07 60.66C164.07 60.4913 163.969 60.4575 163.868 60.4913C163.766 60.525 163.755 60.4913 163.721 60.5925C163.665 61.6388 162.979 64.4063 164.081 67.23C161.066 67.6688 160.38 61.9313 160.312 61.8188C162.246 58.8993 163.115 55.4037 162.776 51.9188V51.885ZM142.526 40.3088C146.197 39.0497 150.203 39.1899 153.776 40.7025C155.416 41.3803 156.907 42.3748 158.162 43.629C159.417 44.8833 160.413 46.3727 161.092 48.0121C161.771 49.6515 162.12 51.4087 162.12 53.1833C162.119 54.9578 161.769 56.7148 161.089 58.3538C159.827 61.7696 157.29 64.5637 154.012 66.15C151.301 67.3425 147.825 67.59 143.516 65.8575C135.54 62.6625 131.94 53.955 134.674 48.2625C136.823 43.8075 139.658 41.4563 142.549 40.3425L142.526 40.3088ZM133.02 51.1088C132.416 51.759 131.687 52.2813 130.878 52.6446C130.068 53.0079 129.194 53.2049 128.306 53.2238C127.697 53.1746 127.122 52.9208 126.675 52.5038C127.987 51.8409 129.138 50.9003 130.05 49.7475C130.264 49.4775 131.636 47.7788 131.434 47.6325C131.209 47.2838 130.669 48.3413 128.475 50.2088C126.979 51.48 125.01 52.785 123.266 51.8963C122.563 51.5518 122.022 50.9463 121.759 50.2088C124.175 49.5592 126.313 48.1368 127.845 46.1588C127.873 46.12 127.885 46.0715 127.878 46.0241C127.87 45.9766 127.844 45.934 127.806 45.9057C127.767 45.8773 127.718 45.8655 127.671 45.8729C127.623 45.8803 127.581 45.9062 127.553 45.945C125.989 47.8913 122.535 49.8713 120.026 49.59C118.305 49.4213 115.965 48.0375 116.651 46.3613C116.73 46.1813 117.304 46.1025 117.495 46.08C119.959 45.7763 120.87 46.5413 124.515 42.7725C126.473 40.7363 128.329 38.4413 131.108 38.3738C132.119 38.3044 133.134 38.459 134.079 38.8265C135.024 39.1941 135.876 39.7655 136.575 40.5C138.038 42.075 138.026 42.39 138.071 42.2775C138.004 42.5813 133.673 46.125 133.043 51.1425L133.02 51.1088ZM133.718 56.9363C134.522 59.1399 135.785 61.1482 137.421 62.8293C139.058 64.5104 141.031 65.8261 143.213 66.69C150.345 69.5475 156.173 67.5113 159.885 62.3588C159.766 63.0115 159.784 63.6819 159.939 64.3271C160.094 64.9722 160.382 65.5778 160.785 66.105C161.016 66.4952 161.324 66.8347 161.689 67.1034C162.054 67.372 162.47 67.5643 162.911 67.6688C163.353 67.7864 163.82 67.7668 164.25 67.6125C164.548 68.4492 165.164 69.1346 165.965 69.52C166.765 69.9054 167.685 69.9597 168.525 69.6713C168.469 70.4363 169.65 76.0163 169.864 101.554C165.987 101.152 162.099 102.202 158.951 104.501C158.895 100.665 158.67 73.44 155.689 71.1338C150.851 67.3988 111.814 67.8713 105.761 67.9613C105.75 63 105.615 59.175 105.536 56.925C115.425 56.7788 125.1 56.7788 133.74 56.97L133.718 56.9363ZM159.019 110.036C162.495 105.098 168.199 103.849 173.644 105.536C175.202 106.023 176.644 106.822 177.884 107.883C179.124 108.945 180.135 110.248 180.855 111.713C182.237 114.703 182.491 118.092 181.571 121.255C180.651 124.418 178.619 127.142 175.849 128.925C171.011 131.704 163.226 130.151 158.974 124.571C159.053 119.689 159.075 114.75 159.041 110.07L159.019 110.036ZM106.763 135.158C107.263 135.397 107.777 135.603 108.304 135.776C110.091 135.944 111.888 135.99 113.681 135.911C114.031 136.31 114.407 136.686 114.806 137.036L115.931 138.296C115.985 138.356 116.055 138.4 116.133 138.422C116.21 138.443 116.293 138.443 116.37 138.42C116.685 138.803 117.203 139.399 117.203 139.399C117.244 139.437 117.298 139.458 117.354 139.458C117.411 139.458 117.465 139.437 117.506 139.399C118.567 138.761 119.572 138.035 120.51 137.228C121.365 137.903 121.95 137.734 123.019 137.79C123.247 137.77 123.475 137.834 123.66 137.97C125.089 139.399 126.428 141.795 128.16 143.595C131.929 147.6 132.964 144.788 136.035 146.835C137.576 147.848 137.835 155.374 141.48 154.71C143.246 154.395 143.55 152.978 147.803 154.586C148.735 154.882 149.686 155.119 150.649 155.295C152.584 157.185 153.889 159.795 156.926 160.009C156.836 161.741 155.993 176.456 154.901 177.806C153.056 180.056 109.901 181.181 106.909 181.181C107.066 168.446 106.875 148.005 106.763 135.158ZM120.859 129.431C122.591 132.311 119.025 135.619 116.246 137.486L115.65 136.834C118.294 135.259 121.478 132.649 119.858 130.084C118.001 127.114 109.08 132.525 107.089 134.876L106.751 134.741V133.819C109.519 131.4 118.98 126.338 120.859 129.431ZM106.74 133.211V130.523C107.516 130.86 108.214 131.198 108.99 131.49C108.206 132.018 107.455 132.593 106.74 133.211ZM122.22 131.209C123.345 133.864 119.666 137.261 117.326 138.938L116.64 138.251C119.025 136.688 122.108 134.066 122.22 131.209ZM115.065 136.193C114.761 135.866 114.469 135.563 114.154 135.259C113.839 134.955 113.749 135.124 113.31 135.146C108.979 135.394 109.001 135.551 107.471 134.978C109.08 133.324 117.866 128.531 119.093 130.478C120.319 132.424 117.124 135 115.065 136.193ZM151.785 144.529C153.124 147.105 150.885 152.021 149.141 154.485L148.41 154.226C150.379 151.751 152.471 147.611 151.785 144.529ZM147.713 153.911C147.398 153.81 147.083 153.709 146.768 153.63C149.186 151.11 152.269 145.89 149.591 143.663C147.184 141.649 142.92 149.153 142.369 151.335C142.16 152.139 142.118 152.978 142.245 153.799C141.965 153.918 141.675 154.012 141.379 154.08C141.347 153.091 141.508 152.105 141.851 151.178C142.729 148.59 147.274 141.413 149.636 142.751C152.73 144.9 150.008 150.874 147.713 153.911ZM146.025 153.461C144.912 153.139 143.723 153.203 142.65 153.641C142.604 152.909 142.703 152.175 142.943 151.481C143.483 149.783 147.679 143.19 149.051 144.349C151.155 146.138 147.904 151.414 146.025 153.461ZM150.941 155.003C150.728 154.778 150.098 154.733 149.636 154.643C152.258 151.335 154.766 145.406 151.605 142.92C149.794 141.514 148.511 141.041 146.306 143.01C144.101 144.979 140.546 150.311 141.007 154.114C138.431 154.114 138.24 147.431 136.429 146.239C134.044 144.641 132.289 145.609 130.804 144.81C132.188 144.18 134.483 144.158 134.73 143.393C134.778 142.432 134.71 141.468 134.528 140.524C135.34 140.213 136.186 139.998 137.048 139.883C141.435 139.14 141.683 139.624 141.919 139.151C143.393 136.238 143.359 135.878 146.633 135.889C147.704 135.761 148.79 135.826 149.839 136.08C150.638 136.485 150.289 138.51 151.065 139.298C151.272 139.446 151.519 139.528 151.774 139.534C152.494 139.658 155.554 140.063 155.768 140.209C156.422 140.852 157.031 141.54 157.59 142.268C157.421 148.105 157.177 153.941 156.859 159.773C154.012 159.514 152.809 156.904 150.941 155.003ZM105.435 191.003C98.1113 191.138 98.685 191.003 98.685 191.16C98.685 191.048 98.7975 62.8088 98.8538 54.8775C100.091 54.6638 103.14 54.225 104.31 54.6638C104.456 54.6638 104.591 54.7538 104.614 54.8775C105.48 59.6813 105.93 182.25 106.043 182.25C106.043 183.735 105.908 189.09 105.626 190.541C105.57 190.868 105.593 190.845 105.435 190.969V191.003ZM167.175 181.35C167.051 182.25 166.556 186.154 165.982 186.863C165.409 187.571 160.549 188.179 159.671 188.291C149.299 189.619 128.171 190.541 105.953 190.991C106.335 189.956 106.493 183.555 106.515 182.396C110.183 182.318 153.36 181.463 155.666 178.594C158.107 175.545 158.861 133.988 158.929 130.016C162.027 132.433 165.767 133.888 169.684 134.201C169.245 153.923 168.323 172.283 167.175 181.316V181.35ZM177.548 131.749C171.788 134.933 163.845 133.065 158.94 128.88V126.011C163.226 130.905 170.91 132.851 176.243 129.746C179.253 127.84 181.431 124.866 182.34 121.421C183.333 118.13 182.981 114.58 181.361 111.548C179.742 108.516 176.987 106.249 173.7 105.244C168.345 103.59 162.709 104.456 158.996 108.911V105.401C165.87 99.63 178.819 101.059 183.746 110.441C187.774 118.125 184.208 128.025 177.548 131.715V131.749ZM202.298 133.11C201.791 135.191 198.664 134.809 196.976 133.774C194.49 132.289 192.746 128.149 192.679 125.246C192.679 125.199 192.66 125.153 192.626 125.119C192.592 125.085 192.546 125.066 192.499 125.066C192.451 125.066 192.405 125.085 192.371 125.119C192.338 125.153 192.319 125.199 192.319 125.246C192.342 128.106 193.315 130.876 195.086 133.121C194.323 133.632 193.392 133.829 192.488 133.673C187.83 132.851 188.831 122.625 187.886 124.301C187.886 126.439 187.616 129.026 189.011 131.816C188.286 131.913 187.55 131.754 186.93 131.366C185.307 130.032 184.277 128.112 184.061 126.023C185.924 122.542 186.539 118.528 185.805 114.649C186.61 114.408 187.429 114.216 188.257 114.075C189.393 113.893 190.554 113.962 191.66 114.277C192.766 114.592 193.79 115.145 194.659 115.898C198.562 119.003 196.605 125.381 199.012 129.6C199.8 130.793 202.5 132.435 202.342 133.076L202.298 133.11Z" fill="#B32318"/>
<path fill-rule="evenodd" clip-rule="evenodd" d="M127.789 168.019C129.78 164.644 115.706 155.644 113.693 159.739C113.074 161.055 114.356 162.788 115.324 163.879C118.125 166.984 125.55 171.821 127.789 168.019ZM121.41 161.325C122.963 162.349 127.98 165.949 127.035 167.558C125.561 170.044 120.713 167.141 118.384 165.431C116.798 164.377 115.455 162.996 114.446 161.381C113.456 159.356 115.673 157.5 121.41 161.325Z" fill="#B32318"/>
<path fill-rule="evenodd" clip-rule="evenodd" d="M128.936 170.629C129.341 170.086 129.627 169.463 129.774 168.802C129.921 168.141 129.927 167.456 129.791 166.793C128.756 163.136 121.545 158.749 118.215 157.646C115.436 156.724 112.05 156.803 111.645 159.694C111.275 160.397 111.027 161.158 110.914 161.944C110.25 166.928 125.55 176.828 128.936 170.629ZM112.5 159.221C113.22 157.241 116.111 157.32 118.125 157.995C121.624 159.12 130.376 165.353 128.925 168.413C127.868 170.663 125.066 170.438 122.715 169.661C118.946 168.424 115.02 165.443 113.906 163.856C112.995 162.608 111.915 160.673 112.5 159.221ZM111.375 162C111.423 161.557 111.513 161.12 111.645 160.695C111.89 162.006 112.428 163.244 113.22 164.318C115.268 167.31 123.581 172.676 127.845 170.64C124.493 174.758 110.948 166.118 111.375 162ZM183.96 183.375C187.594 183.465 192.836 182.858 192.735 179.213C192.611 175.253 180.641 175.838 178.166 176.524C172.181 178.144 173.16 183.049 183.96 183.375ZM178.268 176.873C178.121 176.366 191.768 176.209 191.846 179.246C191.959 184.14 175.646 182.993 175.118 179.663C174.904 178.29 176.951 177.233 178.268 176.839V176.873Z" fill="#B32318"/>
<path fill-rule="evenodd" clip-rule="evenodd" d="M194.884 178.245C194.682 177.716 194.354 177.245 193.928 176.872C191.756 174.915 187.065 174.488 184.14 174.443C181.918 174.349 179.693 174.553 177.525 175.05C174.375 175.759 171.236 177.874 172.519 180.833C172.577 181.737 172.794 182.624 173.16 183.454C173.779 184.826 175.815 185.884 178.448 186.503C181.451 187.165 184.548 187.287 187.594 186.863C191.284 186.323 195.604 184.691 195.379 180.979C195.311 179.696 195.469 179.066 194.884 178.245ZM177.615 175.41C181.485 174.465 193.489 174.938 194.119 178.785C195.098 184.77 181.238 185.276 177.075 183.51C170.483 180.799 172.373 176.681 177.615 175.41ZM175.241 184.736C174.681 184.486 174.192 184.099 173.819 183.612C173.446 183.125 173.2 182.552 173.104 181.946C172.98 181.485 172.969 181.721 173.599 182.318C174.535 183.149 175.603 183.818 176.76 184.298C180.371 185.873 191.824 186.12 194.49 181.406C194.209 186.863 180.225 187.38 175.241 184.736ZM182.734 155.16C184.849 158.119 184.658 159.221 185.333 159.176C186.008 159.131 185.648 158.051 187.335 155.104C188.921 152.347 190.013 152.111 189.968 151.594C189.962 151.532 189.942 151.472 189.909 151.419C189.875 151.366 189.83 151.322 189.776 151.29C188.924 150.742 188.165 150.063 187.526 149.276C185.411 146.801 185.074 145.249 184.77 145.26C184.466 145.271 184.5 146.227 182.52 148.702C181.709 149.729 180.784 150.662 179.764 151.481C179.717 151.521 179.679 151.571 179.654 151.628C179.629 151.684 179.616 151.746 179.618 151.807C179.595 152.336 180.731 152.37 182.734 155.16ZM184.759 145.89C185.685 148.114 187.113 150.093 188.933 151.673C187.245 153.315 185.972 155.336 185.22 157.568C184.153 155.298 182.574 153.307 180.608 151.751C182.391 150.114 183.806 148.116 184.759 145.89ZM101.025 17.0775C101.061 17.1567 101.118 17.224 101.191 17.2711C101.264 17.3183 101.349 17.3434 101.436 17.3434C101.522 17.3434 101.607 17.3183 101.68 17.2711C101.753 17.224 101.811 17.1567 101.846 17.0775C102.386 15.3467 103.381 13.7926 104.726 12.5775C104.776 12.5362 104.815 12.4831 104.84 12.4231C104.865 12.363 104.874 12.2977 104.867 12.2332C104.861 12.1686 104.838 12.1066 104.802 12.0529C104.765 11.9991 104.716 11.9552 104.659 11.925C102.375 10.5075 101.329 7.875 101.014 7.875C100.699 7.875 100.721 8.595 99.3375 10.125C97.7738 11.8913 97.2113 11.7788 97.2338 12.24C97.2563 12.7013 98.7863 12.7688 101.025 17.0775ZM101.025 8.505C101.662 9.92827 102.608 11.1924 103.793 12.2063C102.722 13.1909 101.884 14.4014 101.34 15.75C100.596 14.353 99.5507 13.1388 98.28 12.195C99.4468 11.1714 100.386 9.91429 101.036 8.505H101.025ZM57.5888 44.7188C57.5702 44.691 57.5451 44.6683 57.5157 44.6526C57.4862 44.6369 57.4534 44.6287 57.42 44.6287C57.1838 44.6287 57.1275 45.36 55.7438 46.8787C54.18 48.645 53.6175 48.5325 53.6288 48.9937C53.6343 49.0589 53.6543 49.1221 53.6874 49.1785C53.7205 49.235 53.7658 49.2833 53.82 49.32C54.6145 49.8568 55.314 50.5222 55.89 51.2887C57.42 53.28 57.2625 54.0675 57.8588 54.0225C58.455 53.9775 58.1513 53.235 59.3888 51.2437C59.8617 50.4727 60.4498 49.7784 61.1325 49.185C61.1793 49.1404 61.2157 49.086 61.239 49.0257C61.2624 48.9654 61.2721 48.9007 61.2675 48.8363C61.2113 48.375 59.7488 48.5662 57.5888 44.7188ZM57.7463 52.5938C57.0022 51.1936 55.9572 49.9756 54.6863 49.0275C55.8503 47.9881 56.7884 46.7206 57.4425 45.3037C58.0888 46.7185 59.0328 47.9771 60.21 48.9937C59.137 49.9784 58.2956 51.1887 57.7463 52.5375V52.5938ZM193.635 105.232C193.676 105.31 193.738 105.373 193.814 105.416C193.89 105.458 193.977 105.478 194.064 105.472C194.151 105.466 194.234 105.435 194.304 105.382C194.374 105.33 194.427 105.258 194.456 105.176C194.993 103.447 195.984 101.893 197.325 100.676C197.376 100.636 197.415 100.583 197.441 100.524C197.466 100.464 197.477 100.399 197.471 100.335C197.466 100.27 197.444 100.208 197.409 100.154C197.374 100.1 197.326 100.055 197.269 100.024C195.019 98.775 193.894 96.0863 193.624 96.0975C193.354 96.1087 193.331 96.8175 191.948 98.3475C190.564 99.8775 189.821 100.024 189.833 100.463C189.844 100.901 191.385 100.924 193.635 105.232ZM193.635 96.66C194.275 98.0816 195.22 99.3451 196.403 100.361C195.324 101.359 194.482 102.585 193.939 103.95C193.195 102.553 192.149 101.339 190.879 100.395C192.053 99.3583 192.996 98.0856 193.646 96.66H193.635ZM164.014 124.166C164.697 124.475 165.4 124.738 166.118 124.954C164.993 126.529 165.499 129.06 166.354 126.686C166.53 126.226 166.625 125.739 166.635 125.246C166.635 124.988 166.365 125.123 168.885 125.696C168.787 125.821 168.704 125.957 168.638 126.101C168.446 126.527 168.313 126.978 168.244 127.44C168.075 129.69 169.538 127.44 169.369 125.809C170.033 125.972 170.711 126.07 171.394 126.101C174.769 125.977 176.175 121.23 173.869 119.014C174.941 118.322 175.774 117.316 176.254 116.134C176.464 115.643 176.574 115.115 176.579 114.582C176.583 114.048 176.481 113.519 176.279 113.024C176.077 112.53 175.779 112.081 175.402 111.704C175.025 111.326 174.576 111.027 174.083 110.824C172.8 110.183 173.486 110.993 173.914 109.035C174.341 107.077 173.486 107.651 173.07 108.799C172.874 109.229 172.785 109.7 172.811 110.171C172.811 110.441 172.811 110.171 170.618 109.699C170.768 109.505 170.886 109.289 170.966 109.058C171.207 108.486 171.293 107.861 171.214 107.246C171.36 106.706 170.505 107.021 170.089 108.81C170.036 109.07 170.036 109.338 170.089 109.597C169.571 109.507 167.693 109.193 167.276 109.496C166.826 108.844 163.271 122.996 163.271 123.143C163.226 123.548 163.283 123.806 164.014 124.166ZM167.456 109.8C167.265 109.406 173.475 110.599 174.926 112.433C175.315 112.893 175.566 113.454 175.652 114.051C175.737 114.647 175.654 115.256 175.41 115.808C174.987 116.904 174.19 117.817 173.16 118.384C170.449 117.608 168.424 117.045 165.915 116.37C165.971 115.875 167.063 110.081 167.456 109.8ZM165.521 117.09C171.54 118.912 167.456 117.607 173.048 119.408C175.084 121.005 173.993 125.111 171.349 125.201C168.824 124.889 166.353 124.239 164.003 123.266C164.003 123.154 163.631 123.559 165.521 117.09ZM87.9975 217.53C91.9125 217.631 97.6275 216.979 97.5263 213.03C97.5263 211.208 95.1075 210.409 93.3188 210.037C76.6575 206.651 71.0663 217.125 87.9975 217.53ZM96.6375 213.03C96.7388 217.339 86.355 217.035 82.2488 215.955C80.9213 215.618 78.5475 214.83 78.3338 213.491C77.5125 208.395 96.5588 209.779 96.6375 213.064V213.03Z" fill="#B32318"/>
<path fill-rule="evenodd" clip-rule="evenodd" d="M98.8425 210.544C93.9825 206.145 72.1688 206.854 75.5325 214.785C75.6035 215.786 75.8431 216.767 76.2413 217.687C76.9163 219.172 79.1213 220.331 81.99 220.984C85.2585 221.711 88.6316 221.84 91.9463 221.366C95.94 220.792 100.654 219.026 100.418 214.999C100.486 214.187 100.381 213.37 100.11 212.602C99.8384 211.833 99.4063 211.132 98.8425 210.544ZM81.0788 208.901C85.3313 207.866 98.4375 208.372 99.0788 212.647C99.1668 213.386 99.047 214.134 98.733 214.807C98.419 215.481 97.9231 216.054 97.3013 216.461C94.4663 218.587 89.1225 218.97 85.545 218.711C82.5075 218.531 79.5038 217.957 77.175 215.854C74.1038 213.075 76.77 209.959 81.0788 208.901ZM78.48 219.116C77.8677 218.839 77.3336 218.414 76.9253 217.88C76.517 217.346 76.2472 216.72 76.14 216.056C75.825 214.931 76.05 216.765 80.1563 218.587C84.2625 220.41 96.84 220.477 99.5175 215.302C99.5063 221.434 83.9925 222.064 78.48 219.116ZM35.5838 203.625C39.5213 203.805 45.225 203.254 45.1913 199.316C45.1913 195.086 32.2088 195.379 29.4413 196.099C22.905 197.707 23.8163 203.051 35.5838 203.625ZM44.3025 199.327C44.3025 203.67 33.84 203.107 29.8575 201.982C28.53 201.611 26.1788 200.801 25.9875 199.44C25.2675 194.254 44.28 195.975 44.3025 199.282V199.327Z" fill="#B32318"/>
</svg>
