<svg width="225" height="225" viewBox="0 0 225 225" fill="none" xmlns="http://www.w3.org/2000/svg">
<path fill-rule="evenodd" clip-rule="evenodd" d="M62.0691 87.6437C62.2733 87.7394 62.4945 87.7937 62.7199 87.8033C62.9452 87.813 63.1703 87.7778 63.3819 87.6999C63.4233 87.6897 63.46 87.6659 63.4862 87.6323C63.5124 87.5988 63.5267 87.5574 63.5267 87.5149C63.5267 87.4723 63.5124 87.431 63.4862 87.3974C63.46 87.3639 63.4233 87.3401 63.3819 87.3298C62.5096 86.9547 61.7677 86.33 61.2495 85.5343C61.236 85.4933 61.2091 85.4581 61.173 85.4344C61.137 85.4107 61.094 85.4 61.051 85.4039C61.008 85.4078 60.9677 85.4262 60.9365 85.456C60.9053 85.4858 60.8852 85.5253 60.8794 85.5681C60.8251 85.9964 60.9118 86.4308 61.1265 86.8054C61.3411 87.1801 61.672 87.474 62.0691 87.6437ZM146.514 60.2511C136.414 61.5639 129.771 62.4954 129.771 62.4954C129.592 62.4954 129.659 62.6749 129.659 62.8543V112.724C129.659 112.814 129.939 112.893 130.04 112.904C138.355 113.847 150.609 114.789 163.167 115.631C171.695 116.192 212.936 118.414 212.936 118.414C213.052 118.414 213.165 118.37 213.25 118.291C213.295 118.252 213.332 118.204 213.357 118.15C213.382 118.095 213.395 118.036 213.396 117.976C213.463 113.768 214.271 53.7761 214.271 53.7761C214.27 53.7131 214.257 53.6508 214.232 53.5929C214.207 53.535 214.171 53.4827 214.125 53.4392C214.079 53.3948 214.025 53.3601 213.965 53.3371C213.905 53.314 213.842 53.303 213.778 53.3047C200.525 54.135 185.408 55.6166 171.685 57.1652C162.303 58.2536 153.561 59.3308 146.514 60.2511ZM213.34 54.3032L212.51 117.538C210.333 117.448 171.741 115.541 163.201 115.036C150.734 114.295 138.513 113.453 130.22 112.589V63.2132C132.06 62.955 171.224 58.1074 180.191 57.1759C191.311 56.0087 202.881 54.954 213.34 54.3032Z" fill="#B32318"/>
<path fill-rule="evenodd" clip-rule="evenodd" d="M147.916 86.544C147.892 92.2161 150.115 97.6669 154.099 101.704C156.071 103.711 158.423 105.304 161.017 106.392C163.611 107.48 166.396 108.04 169.209 108.04C172.022 108.04 174.807 107.48 177.402 106.392C179.996 105.304 182.348 103.711 184.319 101.704C187.323 98.6656 189.35 94.7984 190.139 90.5994C190.929 86.4003 190.446 82.061 188.752 78.1385C190.277 78.1438 191.772 77.7131 193.06 76.8972C194.349 76.0812 195.377 74.914 196.024 73.5331C196.672 72.1522 196.911 70.6151 196.713 69.1028C196.516 67.5905 195.891 66.1661 194.911 64.9974C193.931 63.8287 192.638 62.9643 191.183 62.5062C189.729 62.048 188.173 62.0151 186.701 62.4114C185.228 62.8077 183.899 63.6166 182.871 64.7429C181.843 65.8691 181.158 67.2658 180.897 68.7684C177.686 66.6743 173.971 65.4844 170.141 65.324C166.311 65.1635 162.509 66.0384 159.135 67.8565C155.76 69.6747 152.938 72.3688 150.966 75.6555C148.994 78.9421 147.944 82.6997 147.927 86.5327L147.916 86.544ZM186.654 68.4433L187.989 71.4735L190.727 64.5609L192.254 65.5149L189.089 74.0661L186.845 74.2792L184.959 70.1606L186.654 68.4433ZM169.204 65.705C173.359 65.7166 177.408 67.014 180.796 69.4192V70.16C180.796 72.1334 181.526 74.0369 182.846 75.5039C184.166 76.9708 185.982 77.8975 187.944 78.1054C189.617 81.9174 190.106 86.1435 189.35 90.237C188.594 94.3304 186.626 98.1026 183.702 101.065C181.812 102.979 179.561 104.499 177.079 105.536C174.596 106.573 171.933 107.107 169.243 107.107C166.553 107.107 163.89 106.573 161.408 105.536C158.925 104.499 156.674 102.979 154.784 101.065C150.96 97.19 148.808 91.9701 148.789 86.5258C148.77 81.0816 150.886 75.8469 154.682 71.9449C156.563 69.9878 158.818 68.4274 161.312 67.3558C163.806 66.2842 166.489 65.7231 169.203 65.7056L169.204 65.705Z" fill="#B32318"/>
<path fill-rule="evenodd" clip-rule="evenodd" d="M157.197 78.363L160.956 78.4643C161.023 78.9919 163.2 93.4228 163.2 93.4228C163.216 93.5309 163.27 93.6298 163.353 93.7017C163.435 93.7736 163.54 93.8139 163.649 93.8154L176.689 93.5347C176.73 93.5245 176.767 93.5007 176.793 93.4671C176.82 93.4336 176.834 93.3923 176.834 93.3497C176.834 93.3071 176.82 93.2658 176.793 93.2322C176.767 93.1987 176.73 93.1749 176.689 93.1646C176.689 93.1646 170.169 92.9514 168.834 92.9289H164.008C163.941 92.4688 163.806 91.6273 163.638 90.5614C164.76 90.5614 175.578 90.2919 175.578 90.2919C175.686 90.2901 175.79 90.2494 175.87 90.1772C175.951 90.1051 176.002 90.0065 176.016 89.8993L177.138 81.954C177.145 81.8897 177.138 81.8246 177.119 81.7629C177.1 81.7011 177.068 81.644 177.025 81.5951C176.982 81.5456 176.929 81.506 176.869 81.4789C176.809 81.4519 176.744 81.438 176.678 81.4382C176.678 81.4382 163.212 81.7414 162.191 81.7858C161.506 77.9816 161.551 77.8804 161.192 77.8804L157.152 78.0261C157.101 78.0261 157.053 78.0461 157.017 78.0819C156.981 78.1177 156.961 78.1662 156.961 78.2168C156.961 78.2673 156.981 78.3158 157.017 78.3516C157.053 78.3873 157.101 78.4074 157.152 78.4074L157.197 78.363ZM171.706 89.1247V89.5511C171.348 89.5511 168.239 89.7756 167.128 89.8656C167.13 88.7108 167.033 87.5581 166.836 86.4202L171.83 86.3078C171.71 87.2415 171.669 88.1836 171.706 89.1242V89.1247ZM172.986 82.9524V82.3129H176.206L175.758 85.5669H174.815C174.276 85.5669 173.603 85.5107 172.862 85.4994C172.958 84.6537 172.999 83.8034 172.986 82.9524ZM172.772 86.319C173.558 86.2627 174.265 86.1958 174.826 86.1396L175.69 86.0496L175.23 89.4161L172.211 89.5731C172.211 89.4718 172.211 89.3599 172.29 89.2361C172.528 88.2589 172.689 87.2646 172.772 86.2622V86.319ZM172.48 82.3691C172.218 83.386 172.035 84.4214 171.93 85.4663L166.712 85.6119C166.557 84.4724 166.313 83.3467 165.982 82.2454C168.395 82.2791 170.067 82.3016 172.48 82.3129L172.48 82.3691ZM166.679 89.955L163.638 90.1794C163.447 89.0572 163.234 87.7219 163.01 86.364L164.233 86.4315H165.917C166.072 87.6071 166.327 88.7673 166.68 89.8993L166.679 89.955ZM165.557 82.2679C165.565 83.3956 165.659 84.521 165.837 85.6344L164.266 85.7689L162.976 85.8921C162.886 85.32 162.46 82.8174 162.348 82.1666C162.909 82.2004 164.121 82.2004 165.512 82.2004L165.557 82.2679Z" fill="#B32318"/>
<path fill-rule="evenodd" clip-rule="evenodd" d="M218.962 48.7486C218.915 48.7057 218.861 48.6728 218.801 48.6516C218.741 48.6304 218.678 48.6215 218.615 48.6254C203.869 49.5794 187.048 51.2736 171.775 53.0466C161.327 54.2588 125.125 59.1402 125.125 59.1402C124.946 59.1402 125.035 59.3196 125.035 59.4991V116.652C125.035 116.742 125.327 116.82 125.428 116.831C134.551 117.886 147.962 118.953 161.742 119.895C162.034 121.017 163.257 125.506 163.852 128.962C164.061 130.011 164.163 131.079 164.155 132.149C164.164 132.342 164.117 132.533 164.021 132.699C162.898 133.822 156.513 135.785 156.322 135.864C156.227 135.892 156.145 135.952 156.09 136.034C156.035 136.116 156.01 136.215 156.019 136.313L156.198 138.49C156.204 138.59 156.245 138.686 156.315 138.758C156.385 138.83 156.479 138.874 156.58 138.882C182.828 142.383 181.268 142.328 181.504 142.249C183.794 141.284 186.014 140.159 188.147 138.882C188.806 138.476 189.413 137.99 189.953 137.435C190.259 137.136 190.446 136.738 190.481 136.312C190.232 134.714 189.856 133.138 189.359 131.599C188.237 127.818 186.677 122.958 186.183 121.5L217.672 123.172C217.732 123.177 217.792 123.168 217.849 123.147C217.905 123.126 217.956 123.092 217.997 123.049C218.041 123.009 218.076 122.961 218.1 122.906C218.123 122.852 218.134 122.793 218.132 122.734C218.211 117.909 219.108 49.1637 219.108 49.1637C219.118 49.088 219.11 49.0111 219.084 48.939C219.059 48.867 219.017 48.8018 218.963 48.7486H218.962ZM169.036 139.646L157.039 138.03L156.916 136.56H157.017C157.949 136.694 164.929 137.592 166.321 137.75C169.34 138.087 180.179 139.175 180.909 139.242C180.746 139.921 180.746 140.628 180.909 141.307L169.036 139.646ZM188.696 131.723C189.148 133.19 189.478 134.691 189.684 136.212C189.644 136.428 189.528 136.623 189.358 136.762C188.853 137.252 188.292 137.682 187.686 138.041C185.762 139.186 183.764 140.202 181.705 141.082C181.797 140.412 181.744 139.731 181.548 139.084C182.131 138.837 184.14 137.962 185.936 137.098C186.958 136.635 187.938 136.083 188.864 135.448C188.882 135.432 188.896 135.412 188.905 135.389C188.914 135.367 188.919 135.343 188.919 135.319C188.919 135.295 188.914 135.271 188.905 135.249C188.896 135.227 188.882 135.207 188.864 135.19C188.829 135.155 188.78 135.134 188.73 135.134C188.679 135.134 188.631 135.155 188.595 135.19C187.899 135.626 187.167 136.001 186.407 136.312C184.353 137.199 181.682 138.198 181.132 138.4C180.638 138.4 159.059 136.267 157.993 136.155C164.726 133.81 164.726 133.159 164.827 132.149C164.815 131.016 164.684 129.888 164.435 128.783C163.784 125.416 162.493 121.152 162.1 119.805L186.171 121.478H185.779C186.171 122.723 187.687 127.818 188.696 131.745V131.723ZM217.256 122.173C214.933 122.072 171.83 119.929 162.325 119.289C148.444 118.425 134.843 117.46 125.596 116.462V59.8248C127.56 59.5441 171.247 53.9669 181.223 52.8897C193.567 51.5543 206.528 50.3309 218.176 49.5907L217.256 122.173Z" fill="#B32318"/>
<path fill-rule="evenodd" clip-rule="evenodd" d="M181.257 132.946C180.651 132.946 172.492 132.542 171.74 132.531C170.988 132.52 166.971 132.531 166.971 132.531C166.946 132.53 166.921 132.533 166.897 132.541C166.873 132.55 166.851 132.562 166.833 132.579C166.814 132.596 166.799 132.616 166.788 132.638C166.777 132.661 166.77 132.686 166.769 132.711C166.769 132.759 166.787 132.806 166.821 132.842C166.854 132.877 166.9 132.898 166.948 132.901C167.431 132.901 173.625 133.676 181.222 133.777H185.992C186.016 133.78 186.04 133.778 186.063 133.771C186.086 133.764 186.107 133.752 186.126 133.736C186.144 133.72 186.158 133.7 186.168 133.678C186.178 133.656 186.183 133.633 186.182 133.608C186.184 133.583 186.181 133.558 186.172 133.535C186.164 133.511 186.151 133.489 186.135 133.47C186.118 133.451 186.098 133.436 186.075 133.425C186.053 133.414 186.028 133.408 186.003 133.406C186.003 133.406 182.356 133.036 181.256 132.946H181.257ZM201.411 90.6177L202.634 92.862L203.611 92.155L202.432 90.1238L204.262 89.2373L199.369 84.9167L199.65 91.4704L201.412 90.6177H201.411ZM195.934 97.3058C195.923 97.3278 195.917 97.3518 195.915 97.3764C195.914 97.401 195.917 97.4257 195.926 97.4489C195.934 97.472 195.947 97.4932 195.964 97.5111C195.981 97.529 196.002 97.5431 196.024 97.5527C196.415 97.8354 196.819 98.0977 197.237 98.3385C197.708 98.608 198.785 99.0906 199.29 99.2925C199.594 99.4157 201.333 100.056 201.467 99.7639C201.478 99.7419 201.485 99.7179 201.487 99.6933C201.488 99.6687 201.484 99.644 201.476 99.6208C201.468 99.5977 201.454 99.5765 201.437 99.5586C201.42 99.5407 201.4 99.5266 201.377 99.517L200.895 99.18C199.655 98.3882 198.305 97.7832 196.888 97.3845C196.451 97.2614 196.181 97.2163 196.181 97.2163C196.137 97.1968 196.086 97.1953 196.04 97.212C195.994 97.2288 195.956 97.262 195.934 97.3058ZM191.536 107.069C190.889 106.019 189.975 105.16 188.887 104.578C188.871 104.561 188.85 104.547 188.828 104.538C188.806 104.529 188.782 104.524 188.758 104.524C188.734 104.524 188.711 104.529 188.689 104.538C188.666 104.547 188.646 104.561 188.629 104.578C188.612 104.595 188.599 104.615 188.59 104.637C188.581 104.659 188.576 104.683 188.576 104.707C188.576 104.731 188.581 104.755 188.59 104.777C188.599 104.799 188.612 104.819 188.629 104.836C188.704 104.995 188.791 105.149 188.887 105.296C189.533 106.304 190.425 107.13 191.479 107.697C191.495 107.716 191.515 107.732 191.537 107.742C191.56 107.752 191.584 107.758 191.609 107.758C191.633 107.758 191.658 107.752 191.68 107.742C191.702 107.732 191.722 107.716 191.738 107.697C191.77 107.662 191.788 107.616 191.788 107.568C191.788 107.521 191.77 107.474 191.738 107.439L191.536 107.069ZM144.224 92.8733C144.197 92.8326 144.156 92.8032 144.108 92.7908C144.061 92.7784 144.01 92.7837 143.966 92.8058C141.629 93.6771 139.449 94.9243 137.514 96.498C137.473 96.5255 137.444 96.5669 137.431 96.6144C137.419 96.6619 137.424 96.7123 137.446 96.7562C137.472 96.799 137.513 96.83 137.562 96.8427C137.61 96.8553 137.661 96.8485 137.705 96.8237C140.036 95.9407 142.214 94.6946 144.157 93.1315C144.198 93.104 144.227 93.0626 144.239 93.0151C144.252 92.9676 144.247 92.9172 144.224 92.8733ZM149.532 102.109C148.455 102.746 147.45 103.498 146.536 104.353C143.068 107.372 143.966 107.439 144.157 107.26C144.157 107.26 144.471 107.08 144.953 106.755C146.744 105.514 148.369 104.051 149.79 102.4C149.827 102.369 149.85 102.324 149.855 102.276C149.859 102.227 149.844 102.179 149.812 102.142C149.781 102.105 149.736 102.082 149.688 102.077C149.639 102.073 149.591 102.088 149.554 102.12L149.532 102.109ZM167.05 153.169C166.151 152.556 165.163 152.086 164.121 151.777C164.082 151.588 164.005 151.408 163.896 151.249C163.697 150.98 163.445 150.755 163.155 150.587C162.168 150.027 161.075 149.68 159.946 149.566C158.539 149.391 157.111 149.572 155.793 150.094C153.683 150.969 148.51 154.145 142.742 156.21C139.784 157.357 136.646 157.972 133.473 158.028C129.147 158.05 124.834 158.512 120.601 159.408C115.091 160.53 110.165 162.011 108.403 163.1L104.89 157.983H104.992C105.774 157.681 106.525 157.305 107.236 156.861C107.754 156.584 108.209 156.201 108.572 155.739C108.596 155.698 108.609 155.652 108.609 155.604C108.609 155.557 108.596 155.51 108.572 155.469C108.533 155.399 108.469 155.347 108.392 155.324C108.273 155.248 108.145 155.187 108.011 155.143C106.627 155.089 105.241 155.112 103.859 155.211C100.869 147.646 97.0446 140.438 92.4576 133.721C89.7465 129.739 86.7458 125.962 83.4801 122.42C84.7817 119.974 86.2521 117.068 88.7434 111.49C89.6572 111.044 90.4443 110.376 91.0325 109.547C91.6207 108.717 91.9912 107.753 92.1099 106.743C93.4566 107.26 94.3543 105.329 94.635 103.781C96.363 104.454 99.4826 105.644 101.245 106.205C101.532 106.309 101.829 106.385 102.131 106.429C103.332 106.429 107.742 99.9765 108.528 98.5737C108.758 98.2017 108.903 97.7842 108.955 97.3502C108.942 97.2048 108.896 97.0642 108.82 96.9396C108.744 96.8149 108.641 96.7096 108.517 96.6319C106.789 95.3078 99.1581 93.5573 96.2516 93.1197C93.7378 92.7495 93.8166 92.839 92.2793 94.792C91.6959 95.5328 91.0558 96.408 90.5062 97.1708C89.487 97.206 88.4746 97.3528 87.4873 97.6084C84.0533 98.5062 82.9986 99.7408 82.4153 101.839C81.9296 103.477 81.7061 105.181 81.7532 106.889C78.9699 109.639 76.9056 111.815 74.6944 114.206C68.9286 109.396 62.6112 105.29 55.8754 101.973L56.5487 97.4847C60.4091 97.4847 65.7394 96.3625 67.1085 92.7377C67.7446 90.9494 68.2252 89.1096 68.5451 87.2387C68.9828 84.7812 69.1622 82.638 69.2184 81.8972L71.3953 80.8763C71.4896 80.8323 71.565 80.7561 71.6082 80.6615C71.6514 80.5669 71.6595 80.4599 71.631 80.3599C71.631 80.3599 68.9265 70.2602 68.7583 69.5644C70.1612 69.25 71.2046 68.9586 71.2046 68.9586C71.2046 51.0036 54.3718 47.2444 54.3718 47.2444C54.3718 47.2444 59.6908 40.5113 60.3197 36.157C60.9486 31.8027 55.6065 30.3441 48.5927 32.2183C41.5789 34.0926 46.1576 46.4592 46.1576 46.4592C42.9593 45.7521 36.9219 49.3656 36.9219 49.3656C32.4332 25.9678 20.1454 35.7868 18.9669 42.7112C17.7885 49.6356 33.3872 51.2174 33.3872 51.2174C22.9399 55.5936 19.2701 90.8978 19.2701 90.8978C21.6714 92.7495 26.4521 93.883 31.6142 94.5675C21.8755 101.435 14.4114 111.056 10.1801 122.196C8.3255 127 7.06314 132.012 6.42094 137.121C5.22813 147.342 5.98978 157.697 8.66531 167.633C10.3633 174.242 12.6156 180.694 15.3984 186.924C15.408 186.946 15.4218 186.966 15.4391 186.983C15.4564 187 15.4769 187.013 15.4993 187.022C15.5217 187.031 15.5456 187.035 15.5697 187.035C15.5938 187.034 15.6176 187.029 15.6398 187.019C15.6619 187.01 15.6819 186.996 15.6987 186.979C15.7155 186.961 15.7287 186.941 15.7375 186.919C15.7464 186.896 15.7508 186.872 15.7504 186.848C15.7501 186.824 15.7449 186.8 15.7354 186.778C13.0512 180.536 10.885 174.084 9.25875 167.487C6.70113 157.602 6.02357 147.324 7.26131 137.188C7.91988 132.151 9.18201 127.212 11.0205 122.477C15.2514 111.405 22.7358 101.875 32.4883 95.1396C50.7015 97.6984 75.5466 110.85 91.8855 134.113C96.5193 140.77 100.4 147.921 103.455 155.435C99.3542 159.212 94.8363 162.51 89.9888 165.265C87.5576 166.654 85.0387 167.884 82.4479 168.946C79.868 170.014 77.2026 170.862 74.4801 171.482C72.4601 168.609 62.7086 151.777 62.6299 151.687C62.6192 151.665 62.6043 151.645 62.586 151.63C62.5676 151.614 62.5463 151.602 62.5232 151.595C62.5001 151.587 62.4758 151.585 62.4517 151.587C62.4276 151.589 62.4042 151.596 62.3829 151.608C62.3596 151.618 62.3389 151.634 62.322 151.653C62.3051 151.672 62.2925 151.695 62.285 151.719C62.2776 151.744 62.2754 151.769 62.2787 151.795C62.282 151.82 62.2907 151.844 62.3042 151.866C62.3042 151.866 62.7531 152.854 63.5164 154.414C66.0971 159.677 70.3395 167.24 74.1437 171.707C73.0215 173.513 71.0691 177.542 73.2009 177.374C74.5363 177.272 76.2086 175.567 76.5675 175.354C81.6636 180.767 87.5054 185.426 93.9167 189.19C98.4729 191.726 103.466 193.578 108.348 193.679H108.416C114.958 192.557 121.882 188.876 128.301 184.309C139.197 176.555 148.713 166.354 152.821 162.213C153.499 161.533 154.223 160.899 154.986 160.316C156.213 160.531 157.455 160.647 158.7 160.664C159.635 160.68 160.57 160.62 161.495 160.484C163.087 160.299 164.62 159.767 165.984 158.924C166.713 158.479 167.356 157.905 167.88 157.23C168.28 156.731 168.494 156.108 168.486 155.468C168.469 155.072 168.353 154.686 168.149 154.346C167.87 153.88 167.495 153.478 167.05 153.168V153.169ZM37.3134 95.1508C45.3482 95.7679 52.7884 95.5885 52.7884 95.5885C52.3845 92.9177 48.771 80.1473 48.771 80.1473C45.9546 80.3717 43.4858 78.3518 45.225 74.4351C46.9643 70.5184 51.0266 73.3129 51.0266 73.3129C54.4034 72.1658 57.4474 70.2084 59.8922 67.612C60.2292 68.553 60.7651 69.4104 61.4632 70.1258C62.1816 70.8553 65.7276 70.227 68.3308 69.6544C68.5103 70.6422 68.8134 72.112 69.1498 73.638C69.3968 74.8165 70.5302 79.6528 70.6646 80.2142L68.5547 81.0782C68.0383 81.3139 68.5547 81.7065 67.5894 86.9698C67.2841 88.7857 66.8261 90.5725 66.2203 92.3113C65.9284 92.9924 65.5044 93.6089 64.9729 94.1252C64.4415 94.6415 63.813 95.0475 63.1238 95.3196C60.9355 96.2117 58.6067 96.7093 56.2449 96.7894C56.1664 96.7863 56.0896 96.8138 56.031 96.8662C55.9723 96.9185 55.9363 96.9917 55.9305 97.0701L54.7521 101.436C49.1999 98.6779 43.3484 96.5691 37.3134 95.1508ZM92.3006 105.991C91.7392 105.991 92.5588 103.276 92.5926 103.107L94.0404 103.669C93.8273 104.443 93.1764 105.981 92.3012 105.992L92.3006 105.991ZM94.0174 93.7148C96.7444 93.838 106.586 96.3068 107.809 97.4627C107.574 98.6412 103.96 103.399 102.58 104.892C101.682 105.846 103.702 106.34 90.045 101.682C90.7408 100.627 91.8068 98.7419 90.6171 98.3155C90.4481 98.2686 90.2696 98.2686 90.1007 98.3155C91.2993 96.6811 92.6237 95.1429 94.0618 93.7148H94.0174ZM91.6942 102.692C91.5036 103.332 91.2116 105.217 90.6396 104.937C90.0675 104.656 90.3026 103.007 90.5608 102.255L91.6942 102.692ZM76.1293 115.451L75.0071 114.497C75.6579 113.914 79.4959 110.401 79.8435 110.009C81.3246 108.583 82.548 107.383 82.548 107.383C82.5964 107.335 82.6336 107.277 82.6568 107.213C82.6801 107.149 82.6888 107.081 82.6824 107.013C82.5802 105.361 82.7316 103.704 83.1313 102.098C83.3439 101.075 83.9226 100.165 84.7586 99.5389C86.3739 98.5449 88.1771 97.8953 90.0551 97.6309L89.4381 98.5062C87.1937 99.7183 84.4104 103.724 84.321 103.836C84.3055 103.855 84.2938 103.876 84.2866 103.899C84.2793 103.922 84.2767 103.946 84.2788 103.97C84.2809 103.994 84.2877 104.017 84.2988 104.039C84.3099 104.06 84.3251 104.079 84.3435 104.095C84.3619 104.11 84.3832 104.122 84.4062 104.129C84.4291 104.136 84.4533 104.139 84.4773 104.137C84.5012 104.135 84.5246 104.128 84.5459 104.117C84.5673 104.106 84.5862 104.091 84.6017 104.072C85.0281 103.668 89.6962 98.8988 90.3139 99.1457C90.9315 99.3927 86.9473 104.555 87.3174 104.858C87.6876 105.161 89.6631 102.333 89.8762 102.008L90.2464 102.153C89.6181 103.377 89.1242 105.049 90.3364 105.733C90.4842 105.815 90.6502 105.857 90.819 105.857C90.9878 105.857 91.1538 105.815 91.3016 105.733C91.3354 105.978 91.4236 106.212 91.5598 106.418C91.339 107.713 90.6623 108.888 89.6518 109.728C87.4074 111.714 88.7991 108.426 84.7817 117.853C84.4228 118.683 84.0971 119.491 83.8164 120.187C83.5358 120.883 83.2331 121.657 83.0756 122.073C80.8724 119.751 78.554 117.541 76.1293 115.451ZM73.5593 176.33C73.4244 176.393 73.2806 176.435 73.1329 176.453C73.4801 174.985 74.0556 173.58 74.8384 172.29C77.5449 171.654 80.195 170.799 82.7623 169.732C85.3755 168.627 87.9101 167.345 90.3482 165.894C95.2063 163.019 99.7076 159.58 103.758 155.648C105.134 155.565 106.513 155.565 107.888 155.648C107.571 155.915 107.229 156.152 106.867 156.355C106.186 156.755 105.468 157.089 104.724 157.354C104.514 157.399 104.317 157.491 104.148 157.623C103.978 157.756 103.842 157.925 103.748 158.118C103.489 158.78 104.017 159.363 103.355 160.362C102.457 161.675 101.212 160.957 99.6407 161.327C97.7664 161.765 98.5185 164.694 97.3963 165.659C96.2741 166.624 93.9623 164.918 92.9076 166.489C92.3243 167.376 92.6156 168.824 92.0998 169.631C91.584 170.439 88.9014 168.195 87.3191 169.811C86.7984 170.603 86.3298 171.427 85.9163 172.28C85.1417 173.469 84.0083 172.01 82.5497 171.932C79.8564 171.798 81.9996 178.171 78.3866 175.299C78.0407 175.005 77.6645 174.749 77.2644 174.535C75.9628 173.806 75.5702 175.489 73.5615 176.331L73.5593 176.33ZM152.112 161.506C148.027 165.591 138.556 175.791 127.739 183.557C121.443 188.046 114.688 191.76 108.258 192.894C103.499 192.894 98.6181 191.076 94.1631 188.652C87.9106 185.054 82.1857 180.61 77.1508 175.444C77.4363 175.624 77.7099 175.823 77.9698 176.038C82.2679 179.405 81.7627 172.795 82.6605 172.84C84.2991 172.919 85.6569 175.477 87.6319 171.235C87.7478 170.941 87.9108 170.669 88.1145 170.427C89.3154 169.193 91.8624 171.887 92.9959 170.09C93.7592 168.867 93.2316 166.858 94.1181 166.724C95.0046 166.589 95.8123 167.038 96.7551 166.892C99.7403 166.454 98.3599 162.403 99.8409 162.056C100.398 161.939 100.967 161.89 101.535 161.91C101.975 161.921 102.413 161.849 102.826 161.697C103.288 161.501 103.68 161.168 103.948 160.743C104.7 159.621 104.217 158.79 104.363 158.375C104.385 158.32 104.424 158.272 104.475 158.241L108.145 163.796C108.16 163.819 108.179 163.84 108.202 163.856C108.226 163.871 108.252 163.881 108.28 163.886C108.333 163.907 108.394 163.907 108.448 163.886C110.008 162.831 115.046 161.204 120.691 160.149C124.883 159.261 129.153 158.795 133.439 158.757C136.703 158.736 139.937 158.132 142.988 156.973C148.778 154.942 153.985 151.8 156.107 150.936C157.287 150.474 158.564 150.316 159.821 150.476C160.696 150.575 161.549 150.818 162.346 151.194C162.641 151.319 162.902 151.511 163.109 151.755C163.149 151.818 163.179 151.886 163.199 151.957H162.975C162.617 151.791 162.24 151.67 161.853 151.598C160.324 151.317 158.758 151.317 157.229 151.598C157.11 151.616 157.003 151.681 156.932 151.777C156.86 151.874 156.83 151.995 156.848 152.114C156.866 152.233 156.93 152.341 157.027 152.412C157.124 152.484 157.245 152.514 157.364 152.496C158.445 152.345 159.539 152.296 160.629 152.35H161.212C161.44 152.387 161.665 152.439 161.886 152.507C162.47 152.636 162.987 152.971 163.345 153.45C161.526 153.17 159.668 153.273 157.891 153.753H157.756C157.65 153.794 157.563 153.872 157.51 153.973C157.457 154.073 157.442 154.19 157.468 154.3C157.494 154.411 157.559 154.509 157.651 154.575C157.743 154.642 157.856 154.673 157.97 154.662H158.127C159.274 154.413 160.442 154.27 161.616 154.236H162.435C162.786 154.266 163.132 154.334 163.468 154.438C163.586 154.48 163.699 154.537 163.804 154.606C163.859 154.64 163.92 154.663 163.984 154.673C164.099 154.734 164.199 154.818 164.278 154.921C164.358 155.024 164.414 155.142 164.444 155.268L164.298 155.336C164.098 155.413 163.892 155.473 163.681 155.515C161.752 155.858 159.87 156.423 158.07 157.199C155.849 158.262 153.841 159.722 152.145 161.508L152.112 161.506ZM167.127 156.569C166.653 157.185 166.067 157.707 165.399 158.106C164.15 158.871 162.755 159.367 161.303 159.565C160.416 159.72 159.52 159.817 158.621 159.857C157.571 159.913 156.518 159.913 155.468 159.857C156.073 159.431 156.657 159.071 157.229 158.735C159.53 157.588 161.982 156.775 164.513 156.322C165.197 156.098 165.444 155.728 165.399 155.29C165.363 155.013 165.263 154.749 165.107 154.517C164.951 154.285 164.744 154.093 164.501 153.955C164.412 153.416 164.152 152.921 163.761 152.54L163.895 152.406C163.957 152.324 164.006 152.233 164.041 152.137C164.624 152.401 165.187 152.708 165.724 153.057C166.381 153.458 166.935 154.007 167.34 154.662C167.508 154.96 167.581 155.303 167.549 155.644C167.517 155.985 167.381 156.308 167.161 156.57L167.127 156.569Z" fill="#B32318"/>
<path fill-rule="evenodd" clip-rule="evenodd" d="M91.7286 99.864C94.9915 101.276 98.3707 102.402 101.828 103.231C105.015 103.983 102.715 102.625 96.2173 100.594C93.8717 99.864 92.0987 99.4714 91.9305 99.4714C91.9058 99.4588 91.8786 99.4518 91.8509 99.4508C91.8232 99.4498 91.7957 99.4549 91.7701 99.4656C91.7446 99.4764 91.7217 99.4925 91.703 99.5131C91.6844 99.5336 91.6704 99.5579 91.6621 99.5843C91.6538 99.6108 91.6514 99.6387 91.655 99.6662C91.6586 99.6937 91.6682 99.72 91.683 99.7434C91.6979 99.7669 91.7176 99.7868 91.7409 99.8017C91.7642 99.8167 91.7905 99.8265 91.818 99.8303L91.7286 99.864ZM96.6887 95.4765L94.3431 94.9151L93.3441 95.9811L95.9361 96.6656L96.6881 95.4759L96.6887 95.4765ZM165.243 95.6672C164.66 95.6672 164.188 96.318 164.188 97.1263C164.188 97.9346 164.66 98.5742 165.243 98.5742C165.826 98.5742 166.286 97.9234 166.286 97.1263C166.286 96.3293 165.86 95.6672 165.243 95.6672ZM175.433 95.6672C174.849 95.6672 174.378 96.318 174.378 97.1263C174.378 97.9346 174.849 98.5742 175.433 98.5742C176.016 98.5742 176.476 97.9234 176.476 97.1263C176.476 96.3293 176.005 95.6672 175.433 95.6672ZM64.6723 77.4765C64.772 77.4781 64.8709 77.4594 64.963 77.4213C65.0551 77.3832 65.1385 77.3267 65.2079 77.2551C65.2773 77.1836 65.3313 77.0986 65.3666 77.0054C65.4019 76.9122 65.4178 76.8128 65.4131 76.7132C65.4131 76.1968 65.4131 75.6923 65.4694 75.1759C65.4895 74.9705 65.4313 74.765 65.3065 74.6007C65.1816 74.4363 64.9993 74.3251 64.7961 74.2894C63.8083 74.155 63.9321 75.5348 63.9321 76.6463C63.9283 76.8525 64.0025 77.0526 64.1398 77.2065C64.2772 77.3604 64.467 77.4568 64.6723 77.4765Z" fill="#B32318"/>
</svg>
