<svg width="317" height="316" viewBox="0 0 317 316" fill="none" xmlns="http://www.w3.org/2000/svg">
<path d="M80.7089 281.372C80.7057 281.369 80.7025 281.319 80.6994 281.224C80.6968 281.115 80.6937 280.978 80.6893 280.807C80.6836 280.424 80.676 279.89 80.6659 279.206C80.6532 277.802 80.6355 275.783 80.6134 273.237L80.7089 273.333C73.688 273.347 62.5224 273.369 49.9621 273.394C50.0316 273.324 49.8041 273.55 50.1169 273.237V273.239V273.244V273.252V273.268V273.301V273.366V273.497V273.759V274.28C50.1169 274.627 50.1169 274.973 50.1169 275.318C50.1169 276.007 50.1163 276.692 50.1163 277.371C50.1156 278.728 50.1144 280.063 50.1137 281.372L49.9608 281.219C58.7165 281.247 66.3783 281.271 71.8729 281.288C74.6101 281.307 76.8063 281.322 78.3408 281.332C79.0871 281.341 79.6711 281.347 80.0895 281.352C80.2778 281.356 80.4282 281.36 80.5471 281.362C80.6507 281.365 80.7051 281.368 80.7089 281.372C80.712 281.375 80.664 281.378 80.5667 281.382C80.4529 281.384 80.3088 281.388 80.1281 281.392C79.7179 281.397 79.1447 281.403 78.4122 281.412C76.8865 281.422 74.7017 281.437 71.9797 281.456C66.4579 281.473 58.7589 281.497 49.9608 281.525L49.8078 281.526V281.372C49.8072 280.064 49.806 278.729 49.8053 277.371C49.8053 276.692 49.8047 276.008 49.8047 275.318C49.8047 274.974 49.8047 274.628 49.8047 274.281V273.759V273.498V273.367V273.302V273.269V273.252V273.244V273.24V273.238C50.1182 272.924 49.8925 273.151 49.9633 273.081C62.5237 273.106 73.6892 273.129 80.7101 273.142H80.8062L80.8056 273.238C80.7828 275.808 80.7651 277.846 80.7531 279.263C80.743 279.938 80.7354 280.465 80.7297 280.843C80.7253 281.007 80.7221 281.139 80.7196 281.243C80.7152 281.331 80.712 281.375 80.7089 281.372Z" fill="#E0E0E0"/>
<path d="M84.878 273.237C84.8742 273.233 84.8704 273.181 84.866 273.082C84.8628 272.965 84.8584 272.824 84.854 272.651C84.847 272.251 84.8375 271.707 84.8262 271.02C84.8116 269.593 84.7908 267.579 84.7655 265.102L84.878 265.215C80.0919 265.226 73.581 265.242 66.4046 265.259C66.2637 265.399 66.5936 265.068 66.5601 265.103V265.105V265.109V265.118V265.134V265.168V265.235V265.368V265.635V266.166C66.5601 266.52 66.5601 266.871 66.5595 267.221C66.5588 267.92 66.5582 268.611 66.5582 269.291C66.5563 270.652 66.5544 271.972 66.5525 273.236L66.4034 273.087C71.7368 273.115 76.3283 273.14 79.6191 273.157C81.2421 273.174 82.5428 273.188 83.4686 273.198C83.9009 273.206 84.2454 273.212 84.507 273.217C84.7453 273.224 84.8717 273.231 84.878 273.237C84.8843 273.243 84.7693 273.249 84.5424 273.255C84.289 273.26 83.9546 273.266 83.535 273.274C82.6173 273.284 81.328 273.298 79.7196 273.315C76.4035 273.333 71.7773 273.358 66.4034 273.386L66.2542 273.387V273.237C66.2523 271.973 66.2504 270.653 66.2485 269.293C66.2479 268.612 66.2473 267.921 66.2473 267.222C66.2473 266.873 66.2473 266.521 66.2466 266.167V265.636V265.369V265.236V265.169V265.135V265.119V265.111V265.106V265.104C66.2125 265.137 66.5437 264.807 66.4046 264.947C73.581 264.964 80.0919 264.98 84.878 264.991H84.9917L84.9905 265.104C84.9652 267.61 84.9443 269.647 84.9298 271.09C84.9178 271.766 84.9083 272.302 84.902 272.696C84.8938 273.058 84.8862 273.245 84.878 273.237Z" fill="#E0E0E0"/>
<path d="M92.8571 24.6484H62.1084V32.7829H92.8571V24.6484Z" fill="#EBEBEB"/>
<path d="M79.8553 41.3502C79.8522 41.3471 79.849 41.2972 79.8459 41.2024C79.8433 41.0937 79.8402 40.9565 79.8357 40.7852C79.8301 40.4022 79.8225 39.8688 79.813 39.1844C79.8004 37.7801 79.7827 35.7615 79.7605 33.2158L79.856 33.3112C72.8351 33.3251 61.6695 33.3479 49.1092 33.3725C49.1787 33.303 48.9512 33.5286 49.264 33.2164V33.2183V33.2227V33.2309V33.2474V33.2802V33.346V33.4768V33.7384V34.2598C49.264 34.6068 49.264 34.9531 49.264 35.2976C49.264 35.9871 49.2634 36.6715 49.2634 37.3503C49.2627 38.7079 49.2615 40.0433 49.2609 41.3515L49.1079 41.1986C57.8636 41.2264 65.5254 41.251 71.02 41.2681C73.7572 41.2864 75.9534 41.3016 77.4879 41.3117C78.2343 41.3205 78.8182 41.3269 79.2366 41.3319C79.4249 41.3363 79.5754 41.3395 79.6942 41.342C79.7978 41.3439 79.8522 41.3471 79.8553 41.3502C79.8585 41.3534 79.8105 41.3566 79.7131 41.3604C79.5994 41.3629 79.4553 41.366 79.2745 41.3705C78.8644 41.3755 78.2905 41.3818 77.5587 41.3907C76.033 41.4008 73.8482 41.416 71.1262 41.4343C65.6044 41.452 57.9053 41.476 49.1073 41.5038L48.9543 41.5044V41.3509C48.9537 40.0426 48.9524 38.7072 48.9518 37.3497C48.9518 36.6709 48.9512 35.9865 48.9512 35.2969C48.9512 34.9525 48.9512 34.6062 48.9512 34.2592V33.7378V33.4762V33.3453V33.2796V33.2467V33.2303V33.2221V33.2183V33.2164C49.2646 32.9029 49.039 33.1292 49.1098 33.0597C61.6702 33.0849 72.8357 33.1071 79.8566 33.121H79.9527L79.952 33.2164C79.9293 35.7861 79.9116 37.8237 79.8996 39.2419C79.8895 39.9169 79.8819 40.444 79.8762 40.8213C79.8724 40.9856 79.8686 41.117 79.8661 41.2219C79.8617 41.3104 79.8585 41.354 79.8553 41.3502Z" fill="#E0E0E0"/>
<path d="M284.823 47.3897C284.82 47.3866 284.817 47.3366 284.814 47.2418C284.811 47.1331 284.808 46.996 284.804 46.8247C284.798 46.4417 284.79 45.9083 284.78 45.2239C284.767 43.8196 284.75 41.801 284.728 39.2553L284.823 39.3507C277.802 39.3646 266.637 39.3867 254.076 39.412C254.146 39.3425 253.918 39.5681 254.231 39.2553V39.2572V39.2616V39.2698V39.2862V39.3191V39.3848V39.5156V39.7773V40.2987C254.231 40.6457 254.231 40.992 254.231 41.3364C254.231 42.0259 254.231 42.7104 254.231 43.3892C254.23 44.7467 254.229 46.0821 254.228 47.3904L254.075 47.2374C262.831 47.2652 270.493 47.2899 275.987 47.3069C278.724 47.3253 280.921 47.3404 282.455 47.3505C283.201 47.3594 283.785 47.3657 284.204 47.3708C284.392 47.3746 284.543 47.3777 284.661 47.3803C284.765 47.3834 284.82 47.3866 284.823 47.3897C284.826 47.3929 284.778 47.3961 284.681 47.3998C284.567 47.4024 284.423 47.4055 284.242 47.41C283.832 47.415 283.258 47.4213 282.526 47.4302C281.001 47.4403 278.816 47.4555 276.094 47.4738C270.572 47.4915 262.873 47.5155 254.075 47.5433L253.922 47.5439V47.3904C253.921 46.0821 253.92 44.7467 253.92 43.3892C253.92 42.7104 253.919 42.0259 253.919 41.3364C253.919 40.992 253.919 40.6457 253.919 40.2987V39.7773V39.5156V39.3848V39.3191V39.2862V39.2698V39.2616V39.2572V39.2553C254.232 38.9418 254.007 39.1687 254.078 39.0985C266.638 39.1238 277.803 39.1459 284.824 39.1598H284.92L284.92 39.2553C284.897 41.825 284.879 43.8632 284.867 45.2807C284.857 45.9557 284.85 46.4828 284.844 46.8601C284.84 47.0244 284.836 47.1559 284.834 47.2608C284.829 47.3493 284.826 47.3929 284.823 47.3897Z" fill="#E0E0E0"/>
<path d="M288.992 39.2558C288.988 39.252 288.985 39.1995 288.98 39.1009C288.977 38.984 288.973 38.8424 288.968 38.6699C288.961 38.2699 288.952 37.7257 288.94 37.0387C288.926 35.6123 288.905 33.5981 288.88 31.1213L288.992 31.2338C284.206 31.2452 277.695 31.261 270.519 31.278C270.378 31.4177 270.708 31.0872 270.674 31.1219V31.1238V31.1282V31.1365V31.1535V31.187V31.254V31.388V31.6547V32.1862C270.674 32.5395 270.674 32.8915 270.674 33.241C270.673 33.94 270.673 34.6308 270.672 35.3115C270.671 36.6722 270.669 37.9918 270.667 39.2558L270.518 39.1066C275.851 39.1351 280.443 39.1597 283.733 39.1774C285.356 39.1951 286.657 39.2084 287.583 39.2185C288.015 39.2261 288.36 39.2324 288.621 39.2374C288.859 39.2438 288.986 39.2501 288.992 39.2558C288.999 39.2621 288.884 39.2678 288.657 39.2741C288.403 39.2785 288.069 39.2848 287.649 39.2931C286.732 39.3032 285.442 39.3171 283.834 39.3341C280.518 39.3518 275.892 39.3765 270.518 39.4049L270.368 39.4056V39.2558C270.367 37.9918 270.365 36.6722 270.363 35.3115C270.362 34.6308 270.362 33.94 270.362 33.241C270.362 32.8915 270.362 32.5395 270.361 32.1862V31.6547V31.388V31.254V31.187V31.1535V31.1365V31.1282V31.1238V31.1219C270.327 31.1548 270.658 30.8243 270.519 30.9646C277.695 30.9816 284.206 30.9974 288.992 31.0088H289.106L289.105 31.1213C289.079 33.6272 289.059 35.6647 289.044 37.1076C289.032 37.7838 289.023 38.3191 289.016 38.7135C289.007 39.0769 289 39.264 288.992 39.2558Z" fill="#E0E0E0"/>
<path d="M47.996 123.566C47.9928 123.562 47.9896 123.512 47.9865 123.418C47.984 123.309 47.9808 123.172 47.9764 123C47.9707 122.618 47.9631 122.084 47.953 121.4C47.9404 119.995 47.9227 117.977 47.9005 115.431L47.996 115.526C40.9751 115.54 29.8095 115.562 17.2492 115.588C17.3187 115.518 17.0912 115.744 17.404 115.431V115.433V115.437V115.446V115.462V115.495V115.561V115.691V115.953V116.474C17.404 116.821 17.404 117.168 17.404 117.512C17.404 118.202 17.4034 118.886 17.4034 119.565C17.4027 120.922 17.4015 122.258 17.4008 123.566L17.2479 123.413C26.0036 123.441 33.6654 123.466 39.16 123.483C41.8972 123.501 44.0934 123.516 45.6279 123.526C46.3743 123.535 46.9589 123.541 47.3766 123.547C47.5649 123.55 47.7154 123.554 47.8342 123.557C47.9378 123.559 47.9928 123.562 47.996 123.566C47.9991 123.569 47.9511 123.572 47.8538 123.576C47.74 123.578 47.5959 123.581 47.4152 123.586C47.005 123.591 46.4311 123.597 45.6993 123.606C44.1736 123.616 41.9888 123.631 39.2668 123.65C33.745 123.667 26.046 123.691 17.2479 123.719L17.095 123.72V123.566C17.0943 122.258 17.0931 120.922 17.0924 119.565C17.0924 118.886 17.0918 118.202 17.0918 117.512C17.0918 117.168 17.0918 116.821 17.0918 116.474V115.953V115.691V115.561V115.495V115.462V115.446V115.437V115.433V115.431C17.4053 115.118 17.1796 115.344 17.2504 115.274C29.8108 115.3 40.9763 115.322 47.9972 115.336H48.0933L48.0927 115.431C48.0699 118.001 48.0522 120.038 48.0402 121.457C48.0301 122.132 48.0225 122.658 48.0168 123.036C48.0124 123.2 48.0092 123.332 48.0067 123.437C48.0023 123.525 47.9991 123.569 47.996 123.566Z" fill="#E0E0E0"/>
<path d="M52.1651 115.43C52.1613 115.426 52.1575 115.374 52.1531 115.275C52.1499 115.158 52.1455 115.017 52.1411 114.844C52.1341 114.444 52.1246 113.9 52.1133 113.213C52.0987 111.787 52.0779 109.773 52.0526 107.296L52.1651 107.408C47.379 107.42 40.8681 107.435 33.6917 107.452C33.5508 107.592 33.8807 107.262 33.8472 107.296V107.298V107.303V107.311V107.328V107.361V107.428V107.562V107.829V108.361C33.8472 108.715 33.8472 109.067 33.8466 109.416C33.8459 110.115 33.8459 110.806 33.8453 111.487C33.8434 112.847 33.8415 114.167 33.8396 115.431L33.6905 115.282C39.0239 115.31 43.6154 115.335 46.9062 115.352C48.5292 115.37 49.8299 115.383 50.7557 115.394C51.188 115.401 51.5325 115.407 51.7941 115.413C52.0317 115.418 52.1588 115.424 52.1651 115.43C52.1714 115.437 52.0564 115.442 51.8295 115.449C51.5761 115.453 51.2417 115.459 50.8221 115.468C49.9044 115.478 48.6151 115.492 47.0067 115.509C43.6906 115.526 39.0644 115.551 33.6905 115.579L33.5413 115.58V115.43C33.5394 114.166 33.5375 112.847 33.5356 111.486C33.535 110.805 33.535 110.114 33.5344 109.415C33.5344 109.066 33.5344 108.714 33.5337 108.361V107.829V107.562V107.428V107.361V107.327V107.31V107.302V107.298V107.296C33.4996 107.329 33.8308 106.998 33.6917 107.138C40.8681 107.155 47.379 107.171 52.1651 107.183L52.2789 107.183L52.2776 107.296C52.2523 109.802 52.2315 111.839 52.2169 113.282C52.2049 113.958 52.1954 114.494 52.1891 114.888C52.1803 115.251 52.1727 115.438 52.1651 115.43Z" fill="#E0E0E0"/>
<path d="M253.093 242.034C250.648 240.499 247.848 239.535 244.977 239.24C243.651 239.104 242.201 239.143 241.138 239.946C240.912 240.117 240.692 240.369 240.743 240.647C240.78 240.852 240.953 241 241.118 241.127C244.419 243.646 249.414 243.964 253.093 242.034Z" fill="#E0E0E0"/>
<path d="M252.884 241.804C251.047 240.37 249.198 238.927 247.642 237.192C246.085 235.457 244.82 233.397 244.355 231.114C244.214 230.421 244.171 229.63 244.615 229.08C248.794 232.344 252.076 236.564 252.884 241.804Z" fill="#E0E0E0"/>
<path d="M253.05 242.001C252.735 239.715 252.622 237.365 253.147 235.119C253.672 232.872 254.894 230.721 256.813 229.439C257.535 231.127 257.225 233.072 256.716 234.835C255.93 237.561 254.697 240.158 253.081 242.489" fill="#E0E0E0"/>
<path d="M257.146 249.342C254.66 249.644 252.494 250.955 250.637 252.636C248.78 254.318 247.461 256.583 246.914 259.028C249.353 258.877 251.422 257.157 252.923 255.228C254.424 253.299 255.464 251.183 257.112 249.38" fill="#E0E0E0"/>
<path d="M258.035 250.515C256.032 245.582 256.758 239.637 259.889 235.33C261.306 240.369 260.786 246.061 258.035 250.515Z" fill="#E0E0E0"/>
<path d="M263.448 256.961C261.191 256.821 258.897 257.359 256.937 258.487C254.977 259.615 253.361 261.329 252.348 263.351C252.21 263.626 252.089 263.975 252.274 264.221C252.433 264.435 252.743 264.455 253.01 264.438C255.197 264.296 257.136 262.98 258.736 261.481C260.335 259.983 261.729 258.251 263.497 256.956" fill="#E0E0E0"/>
<path d="M263.275 256.609C262.111 252.884 262.038 248.825 263.069 245.061C263.476 243.574 264.158 242.009 265.533 241.312C265.65 241.253 265.787 241.2 265.91 241.246C266.027 241.29 266.095 241.41 266.148 241.522C266.637 242.544 266.78 243.704 266.729 244.835C266.679 245.966 266.444 247.081 266.21 248.189C265.777 250.239 265.547 252.442 264.423 254.21C264.156 254.629 263.921 255.082 263.708 255.532C263.495 255.981 263.494 256.139 263.299 256.497" fill="#E0E0E0"/>
<path d="M277.602 258.745C276.541 254.707 277.667 249.813 280.211 246.502C280.399 246.258 280.647 245.997 280.953 246.026C281.422 246.069 281.544 246.693 281.522 247.163C281.338 251.289 279.962 255.355 277.602 258.745Z" fill="#E0E0E0"/>
<path d="M278.894 259.627C283.799 260.904 289.426 259.663 293.506 256.655C291.088 255.429 288.238 255.08 285.595 255.684C282.953 256.288 280.538 257.473 278.894 259.627Z" fill="#E0E0E0"/>
<path d="M279.982 256.938C282.73 252.459 287.997 249.536 293.244 249.27C292.639 251.404 290.886 253.063 288.907 254.065C286.928 255.068 284.719 255.504 282.541 255.927C281.694 256.092 280.532 256.273 279.982 256.938Z" fill="#E0E0E0"/>
<path d="M277.875 243.893C278.619 241.344 279.367 238.773 279.571 236.126C279.775 233.479 279.398 230.715 278.024 228.443C275.458 233.409 275.198 239.211 277.798 244.159" fill="#E0E0E0"/>
<path d="M286.515 239.527C289.516 234.073 295.638 229.716 301.834 229.105C299.444 235.056 292.926 239.655 286.515 239.527Z" fill="#E0E0E0"/>
<path d="M284.627 240.597C289.103 241.278 292.916 244.137 297.098 245.87C297.992 246.24 298.958 246.536 299.918 246.41C300.878 246.284 301.825 245.64 302.04 244.696C302.219 243.912 301.862 243.08 301.299 242.505C300.737 241.931 299.993 241.572 299.251 241.263C294.696 239.366 289.811 239.319 285.012 240.469" fill="#E0E0E0"/>
<path d="M282.036 243.734C283.049 244.024 283.396 244.549 284.198 245.232C286.92 247.55 290.185 249.228 293.655 250.09C294.017 250.18 294.491 250.216 294.67 249.889C294.826 249.604 294.628 249.259 294.425 249.005C292.971 247.186 290.897 245.942 288.715 245.128C286.533 244.316 284.642 243.336 282.037 243.547" fill="#E0E0E0"/>
<path d="M279.114 224.775C282.754 228.172 287.88 229.917 292.836 229.444C293.061 229.423 293.307 229.386 293.46 229.22C293.805 228.844 293.391 228.264 292.989 227.951C288.954 224.804 284.068 223.501 279.114 224.775Z" fill="#E0E0E0"/>
<path d="M282.579 223.507C287.39 219.9 293.987 218.812 299.701 220.682C297.545 222.808 294.554 223.951 291.542 224.264C288.531 224.578 285.516 224.244 282.579 223.507Z" fill="#E0E0E0"/>
<path d="M281.202 214.796C280.805 210.769 281.063 207.59 280.783 203.545C280.761 203.222 280.692 202.832 280.389 202.716C279.968 202.554 279.617 203.071 279.479 203.501C278.28 207.23 278.935 211.507 281.196 214.707" fill="#E0E0E0"/>
<path d="M280.912 215.241C283.641 213.553 285.689 211.349 287.582 208.758C288.899 206.955 290.01 204.796 289.711 202.583C287.861 202.546 286.103 203.566 284.899 204.972C283.696 206.378 282.981 208.135 282.447 209.907C281.913 211.679 281.539 213.5 280.912 215.241Z" fill="#E0E0E0"/>
<path d="M287.465 213.419C293.455 211.204 299.043 207.91 303.88 203.74C301.919 202.95 299.674 203.423 297.714 204.214C293.235 206.022 289.576 209.074 287.38 213.376" fill="#E0E0E0"/>
<path d="M282.755 217.443C285.785 217.774 288.863 217.99 291.87 217.488C294.825 216.994 297.617 215.822 300.379 214.66C300.608 214.564 300.857 214.448 300.957 214.221C301.066 213.975 300.95 213.674 300.75 213.493C300.55 213.313 300.284 213.226 300.024 213.153C297.022 212.313 293.783 212.706 290.829 213.703C287.875 214.699 285.454 215.882 282.755 217.443Z" fill="#E0E0E0"/>
<path d="M265.452 224.912C263.385 220.739 263.519 215.869 265.305 211.568C266.562 213.484 266.716 215.923 266.486 218.203C266.255 220.483 265.562 222.829 265.517 225.12" fill="#E0E0E0"/>
<path d="M257.193 220.747C252.032 220.649 246.868 222.848 243.363 226.639C245.939 227.043 248.593 226.379 250.937 225.235C253.28 224.091 255.362 222.485 257.426 220.891" fill="#E0E0E0"/>
<path d="M251.641 218.892C249.116 218.687 246.686 218.374 244.258 219.119C241.83 219.862 239.621 221.551 238.631 223.89C240.993 224.156 243.387 223.563 245.553 222.583C247.716 221.602 249.685 220.243 251.641 218.892Z" fill="#E0E0E0"/>
<path d="M259.862 218.976C257.59 217.488 255.257 215.972 252.613 215.356C249.968 214.739 246.902 215.194 245.058 217.188C247.199 218.445 249.796 218.593 252.279 218.591C254.761 218.589 257.805 218.562 260.145 219.39" fill="#E0E0E0"/>
<path d="M259.875 219.096C255.992 215.283 254.52 208.432 256.082 203.219C259.135 207.857 260.502 213.58 259.875 219.096Z" fill="#E0E0E0"/>
<path d="M270.555 208.29C271.287 206.588 271.802 204.801 272.46 203.068C273.117 201.335 273.933 199.629 275.175 198.252C276.417 196.876 278.134 195.851 279.985 195.76C278.826 201.007 275.341 205.695 270.65 208.318" fill="#E0E0E0"/>
<path d="M268.622 210.541C267.41 208.873 266.009 206.608 264.366 205.363C262.722 204.118 260.582 203.364 258.576 203.843C260.616 207.489 264.471 210.06 268.622 210.541Z" fill="#E0E0E0"/>
<path d="M269.008 208.429C268.213 206.41 267.413 204.37 267.092 202.225C266.771 200.079 266.966 197.787 268.063 195.916C270.195 199.946 270.881 204.272 269.117 208.475" fill="#E0E0E0"/>
<path d="M270.574 195.915C271.782 191.921 275.439 188.979 279.389 187.63C279.887 187.46 280.414 187.318 280.934 187.398C281.454 187.478 281.964 187.834 282.073 188.349C282.217 189.028 281.656 189.637 281.127 190.088C278.052 192.718 274.438 194.714 270.574 195.915Z" fill="#E0E0E0"/>
<path d="M270.617 192.649C270.77 190.073 270.931 187.461 271.769 185.021C272.607 182.58 274.221 180.291 276.57 179.223C276.97 181.824 275.822 184.412 274.438 186.651C273.054 188.889 271.385 191.002 270.554 193.499" fill="#E0E0E0"/>
<path d="M270.554 194.422C269.556 191.511 269.453 187.813 267.709 185.277C266.491 183.504 264.539 182.296 263.49 180.418C262.792 182.172 263.005 184.193 263.735 185.933C264.465 187.674 265.671 189.172 266.961 190.55C268.25 191.929 269.355 192.965 270.554 194.422Z" fill="#E0E0E0"/>
<path d="M270.574 280.16C270.496 280.16 270.429 260.738 270.423 236.786C270.418 212.826 270.476 193.408 270.554 193.408C270.632 193.408 270.699 212.826 270.704 236.786C270.709 260.738 270.651 280.16 270.574 280.16Z" fill="#E0E0E0"/>
<path d="M287.546 221.982C287.552 222.001 287.291 222.097 286.816 222.256C286.292 222.433 285.617 222.66 284.806 222.934C283.112 223.511 280.784 224.347 278.258 225.383C275.756 226.456 273.397 227.327 272.054 228.491C271.383 229.065 270.997 229.687 270.807 230.14C270.614 230.596 270.58 230.875 270.554 230.87C270.545 230.869 270.548 230.799 270.562 230.667C270.585 230.536 270.619 230.34 270.705 230.1C270.869 229.621 271.244 228.956 271.922 228.342C272.597 227.727 273.537 227.174 274.614 226.67C275.69 226.167 276.884 225.643 278.151 225.122C280.685 224.084 283.031 223.275 284.745 222.745C285.601 222.477 286.3 222.281 286.784 222.15C287.27 222.025 287.541 221.963 287.546 221.982Z" fill="#E0E0E0"/>
<path d="M293.108 208.319C293.115 208.327 293.044 208.401 292.904 208.538C292.738 208.693 292.532 208.887 292.28 209.123C291.701 209.649 290.914 210.364 289.954 211.236C287.945 213.025 285.221 215.451 282.21 218.131C279.187 220.822 276.575 223.393 274.764 225.329C273.858 226.296 273.144 227.096 272.657 227.655C272.43 227.915 272.244 228.127 272.095 228.298C271.965 228.443 271.892 228.517 271.884 228.511C271.877 228.505 271.934 228.419 272.051 228.262C272.168 228.106 272.339 227.874 272.573 227.586C273.035 227.003 273.729 226.181 274.618 225.195C276.396 223.219 278.994 220.618 282.023 217.922C285.056 215.237 287.817 212.826 289.823 211.088C290.807 210.243 291.615 209.55 292.208 209.041C292.474 208.82 292.692 208.64 292.866 208.495C293.019 208.373 293.102 208.311 293.108 208.319Z" fill="#E0E0E0"/>
<path d="M278.947 220.867C278.868 220.831 279.5 219.373 280.128 217.53C280.764 215.686 281.062 214.13 281.143 214.143C281.216 214.15 281.037 215.752 280.394 217.619C280.078 218.551 279.729 219.371 279.454 219.953C279.179 220.535 278.982 220.882 278.947 220.867Z" fill="#E0E0E0"/>
<path d="M270.591 232.622C270.575 232.633 270.41 232.439 270.125 232.081C269.809 231.675 269.409 231.162 268.932 230.55C267.93 229.255 266.544 227.466 264.991 225.509C263.437 223.552 262.009 221.796 260.975 220.526C260.487 219.922 260.079 219.416 259.756 219.016C259.471 218.657 259.32 218.453 259.335 218.44C259.349 218.427 259.528 218.608 259.839 218.946C260.15 219.283 260.59 219.779 261.127 220.398C262.2 221.637 263.654 223.375 265.211 225.335C266.766 227.294 268.128 229.104 269.09 230.431C269.572 231.095 269.955 231.636 270.213 232.015C270.471 232.395 270.607 232.61 270.591 232.622Z" fill="#E0E0E0"/>
<path d="M266.87 227.843C266.824 227.893 265.831 226.715 265.311 224.925C264.927 223.663 264.91 222.51 264.957 221.982L265.081 221.992C265.026 222.217 264.985 222.335 264.963 222.332C264.941 222.328 264.94 222.203 264.958 221.973L265.082 221.983C265.127 222.506 265.206 223.62 265.58 224.845C266.082 226.579 266.945 227.796 266.87 227.843Z" fill="#E0E0E0"/>
<path d="M262.066 221.801C262.03 221.84 261.71 221.437 260.978 221.169C260.25 220.888 259.156 220.826 257.955 220.929C256.754 221.017 255.68 221.231 254.912 221.42C254.144 221.61 253.675 221.76 253.66 221.72C253.648 221.687 254.095 221.47 254.859 221.228C255.623 220.988 256.711 220.738 257.935 220.648C259.149 220.543 260.301 220.637 261.052 220.984C261.813 221.322 262.091 221.794 262.066 221.801Z" fill="#E0E0E0"/>
<path d="M260.927 220.336C260.906 220.38 260.294 220.082 259.26 219.729C258.228 219.373 256.758 219.001 255.099 218.872C253.439 218.748 251.93 218.894 250.856 219.088C249.781 219.28 249.13 219.481 249.115 219.435C249.109 219.417 249.266 219.351 249.558 219.247C249.847 219.139 250.278 219.016 250.817 218.893C251.894 218.646 253.43 218.466 255.121 218.592C256.81 218.724 258.301 219.135 259.328 219.542C259.842 219.744 260.249 219.932 260.519 220.083C260.79 220.229 260.936 220.318 260.927 220.336Z" fill="#E0E0E0"/>
<path d="M270.555 214.143C270.479 214.162 269.935 212.271 269.339 209.919C268.742 207.566 268.319 205.644 268.394 205.625C268.47 205.606 269.014 207.497 269.61 209.85C270.207 212.202 270.629 214.124 270.555 214.143Z" fill="#E0E0E0"/>
<path d="M270.632 214.142C270.548 214.169 270.198 212.905 269.284 211.613C268.394 210.293 267.258 209.631 267.3 209.565C267.314 209.535 267.628 209.651 268.066 209.96C268.505 210.265 269.047 210.782 269.514 211.452C270.462 212.796 270.7 214.137 270.632 214.142Z" fill="#E0E0E0"/>
<path d="M270.574 269.806C270.544 269.811 270.487 269.339 270.267 268.514C270.051 267.69 269.644 266.52 268.97 265.152C267.628 262.41 265.186 258.933 262.084 255.451C260.547 253.695 259.054 252.038 257.788 250.451C256.521 248.867 255.479 247.357 254.718 246.021C253.954 244.687 253.457 243.542 253.167 242.734C253.025 242.329 252.92 242.013 252.863 241.795C252.801 241.577 252.774 241.462 252.783 241.459C252.808 241.451 252.949 241.903 253.27 242.695C253.589 243.487 254.11 244.61 254.89 245.922C255.667 247.234 256.718 248.721 257.991 250.289C259.262 251.859 260.756 253.507 262.295 255.266C265.406 258.758 267.842 262.278 269.149 265.066C269.806 266.457 270.188 267.649 270.374 268.488C270.463 268.909 270.524 269.237 270.545 269.463C270.573 269.687 270.583 269.805 270.574 269.806Z" fill="#E0E0E0"/>
<path d="M285.91 252.484C285.92 252.505 285.626 252.653 285.106 252.935C284.59 253.225 283.859 253.671 283.021 254.314C282.183 254.955 281.246 255.798 280.283 256.811C279.322 257.826 278.332 259.006 277.322 260.269C275.302 262.803 273.413 265.046 272.282 266.837C271.707 267.725 271.289 268.474 271.016 268.999C270.74 269.523 270.594 269.817 270.574 269.808C270.565 269.804 270.591 269.726 270.649 269.58C270.709 269.435 270.789 269.218 270.918 268.95C271.163 268.408 271.557 267.639 272.114 266.731C273.213 264.897 275.087 262.624 277.104 260.093C278.116 258.827 279.118 257.646 280.097 256.633C281.078 255.621 282.04 254.783 282.903 254.155C283.766 253.526 284.521 253.101 285.056 252.839C285.322 252.705 285.54 252.624 285.684 252.562C285.829 252.502 285.906 252.475 285.91 252.484Z" fill="#E0E0E0"/>
<path d="M286.21 258.103C286.213 258.144 285.562 258.223 284.511 258.349C283.465 258.485 282.008 258.66 280.482 259.143C278.962 259.639 277.698 260.393 276.875 261.037C276.043 261.679 275.651 262.211 275.613 262.18C275.599 262.17 275.68 262.025 275.864 261.789C276.046 261.55 276.343 261.233 276.75 260.882C277.56 260.184 278.836 259.385 280.397 258.876C281.961 258.381 283.437 258.238 284.492 258.152C285.551 258.075 286.207 258.066 286.21 258.103Z" fill="#E0E0E0"/>
<path d="M276.109 261.563C276.02 261.513 276.785 260.343 277.38 258.77C277.937 257.183 278.067 255.791 278.168 255.807C278.204 255.811 278.202 256.159 278.139 256.718C278.073 257.275 277.939 258.05 277.644 258.866C277.347 259.68 276.957 260.361 276.658 260.835C276.355 261.309 276.14 261.582 276.109 261.563Z" fill="#E0E0E0"/>
<path d="M290.877 237.396C290.881 237.405 290.787 237.455 290.605 237.541C290.394 237.636 290.131 237.756 289.807 237.903C289.458 238.053 289.033 238.243 288.555 238.496C288.074 238.743 287.514 238.998 286.931 239.349C286.635 239.517 286.326 239.693 286.004 239.876C285.683 240.061 285.364 240.28 285.026 240.492C284.343 240.907 283.659 241.417 282.928 241.938C281.498 243.023 279.995 244.308 278.548 245.79C277.115 247.288 275.882 248.834 274.847 250.3C274.351 251.048 273.864 251.75 273.474 252.447C273.274 252.793 273.065 253.118 272.892 253.445C272.72 253.772 272.555 254.088 272.397 254.389C272.067 254.984 271.831 255.553 271.6 256.041C271.364 256.527 271.189 256.958 271.051 257.312C270.915 257.641 270.804 257.908 270.715 258.122C270.636 258.307 270.589 258.402 270.58 258.399C270.57 258.396 270.599 258.294 270.661 258.103C270.737 257.884 270.832 257.609 270.948 257.273C271.071 256.911 271.233 256.473 271.455 255.978C271.674 255.481 271.898 254.904 272.219 254.3C272.372 253.994 272.533 253.674 272.701 253.341C272.871 253.009 273.076 252.679 273.273 252.329C273.658 251.622 274.141 250.911 274.634 250.153C275.666 248.668 276.902 247.104 278.347 245.595C279.805 244.1 281.326 242.811 282.774 241.73C283.514 241.21 284.209 240.703 284.902 240.295C285.245 240.086 285.568 239.87 285.895 239.689C286.221 239.511 286.535 239.339 286.836 239.174C287.429 238.833 287.998 238.589 288.487 238.354C288.974 238.115 289.407 237.938 289.764 237.803C290.097 237.675 290.368 237.571 290.585 237.488C290.774 237.419 290.874 237.387 290.877 237.396Z" fill="#E0E0E0"/>
<path d="M278.739 245.528C278.714 245.524 278.85 245.053 279.406 244.534C279.95 244.016 280.941 243.537 282.096 243.502C283.246 243.472 284.244 243.793 284.926 244.055C285.611 244.324 286.009 244.542 285.996 244.575C285.98 244.614 285.553 244.46 284.861 244.242C284.17 244.031 283.195 243.752 282.105 243.782C281.019 243.815 280.08 244.234 279.537 244.684C278.98 245.133 278.784 245.555 278.739 245.528Z" fill="#E0E0E0"/>
<path d="M276.925 247.401C276.848 247.358 277.532 246.354 277.688 244.916C277.868 243.481 277.432 242.347 277.517 242.323C277.548 242.31 277.7 242.574 277.833 243.046C277.965 243.517 278.053 244.201 277.967 244.949C277.879 245.696 277.636 246.342 277.398 246.769C277.161 247.199 276.952 247.42 276.925 247.401Z" fill="#E0E0E0"/>
<path d="M257.16 272.588C257.579 280.01 259.815 287.558 263.255 295.19H278.215C281.496 287.634 283.578 280.097 283.948 272.588H257.16Z" fill="#E0E0E0"/>
<path d="M281.524 284.599C281.524 284.677 276.598 284.74 270.524 284.74C264.447 284.74 259.522 284.677 259.522 284.599C259.522 284.522 264.447 284.459 270.524 284.459C276.598 284.459 281.524 284.522 281.524 284.599Z" fill="#FAFAFA"/>
<path d="M281.189 287.287C281.189 287.365 276.572 287.427 270.877 287.427C265.18 287.427 260.563 287.365 260.563 287.287C260.563 287.21 265.18 287.146 270.877 287.146C276.572 287.146 281.189 287.21 281.189 287.287Z" fill="#FAFAFA"/>
<path d="M263.497 277.463C263.574 277.463 263.637 279.006 263.637 280.909C263.637 282.812 263.574 284.355 263.497 284.355C263.42 284.355 263.356 282.812 263.356 280.909C263.356 279.006 263.419 277.463 263.497 277.463Z" fill="#FAFAFA"/>
<path d="M271.512 277.463C271.59 277.463 271.653 279.061 271.653 281.031C271.653 283.002 271.59 284.6 271.512 284.6C271.435 284.6 271.372 283.002 271.372 281.031C271.372 279.061 271.435 277.463 271.512 277.463Z" fill="#FAFAFA"/>
<path d="M279.037 277.4C279.115 277.4 279.177 279.03 279.177 281.04C279.177 283.05 279.115 284.68 279.037 284.68C278.959 284.68 278.896 283.05 278.896 281.04C278.896 279.03 278.96 277.4 279.037 277.4Z" fill="#FAFAFA"/>
<path d="M283.474 277.463C283.474 277.54 277.696 277.603 270.572 277.603C263.445 277.603 257.669 277.54 257.669 277.463C257.669 277.385 263.445 277.322 270.572 277.322C277.696 277.322 283.474 277.385 283.474 277.463Z" fill="#FAFAFA"/>
<path d="M294.236 295.19C294.236 295.281 232.328 295.354 155.979 295.354C79.6029 295.354 17.708 295.28 17.708 295.19C17.708 295.099 79.6029 295.025 155.979 295.025C232.328 295.025 294.236 295.099 294.236 295.19Z" fill="#263238"/>
<path d="M233.042 51.9258H112.451V295.189H233.042V51.9258Z" fill="#455A64"/>
<path d="M233.043 51.926C233.043 53.3594 233.107 153.248 233.198 295.189V295.345H233.043C195.755 295.348 154.962 295.351 112.469 295.354H112.451H112.287V295.19C112.304 201.246 112.319 115.63 112.329 51.9267V51.8047H112.451C186.814 51.8793 232.074 51.9248 233.043 51.926C232.076 51.9273 186.814 51.9728 112.451 52.048L112.573 51.926C112.585 115.629 112.599 201.246 112.616 295.189L112.451 295.025H112.469C154.962 295.028 195.755 295.031 233.043 295.034L232.888 295.19C232.978 153.248 233.041 53.3581 233.043 51.926Z" fill="#263238"/>
<path d="M222.198 63.0957H123.759V295.19H222.198V63.0957Z" fill="#E0E0E0"/>
<path d="M123.759 295.19L201.526 281.397V63.0957H123.759V295.19Z" fill="#F5F5F5"/>
<path d="M124.877 295.189L193.842 281.396H222.199V295.189H124.877Z" fill="#F5F5F5"/>
<path d="M132.297 182.753C131.453 182.753 130.768 182.069 130.768 181.224V162.094C130.768 161.25 131.452 160.564 132.297 160.564C133.141 160.564 133.826 161.249 133.826 162.094V181.224C133.826 182.069 133.142 182.753 132.297 182.753Z" fill="#E0E0E0"/>
<path d="M197.36 182.753C196.515 182.753 195.83 182.069 195.83 181.224V162.094C195.83 161.25 196.515 160.564 197.36 160.564C198.204 160.564 198.889 161.249 198.889 162.094V181.224C198.889 182.069 198.204 182.753 197.36 182.753Z" fill="#E0E0E0"/>
<path d="M198.466 181.589H131.349V168.326H133.245V179.693H196.57V168.326H198.466V181.589Z" fill="white"/>
<path d="M201.527 63.0957C201.527 63.0957 201.538 63.3548 201.544 63.8604C201.547 64.373 201.552 65.1225 201.56 66.1047C201.567 68.0841 201.578 70.9913 201.591 74.734C201.604 82.2346 201.621 93.0759 201.643 106.472C201.656 133.276 201.673 170.294 201.691 211.18C201.684 236.738 201.678 260.782 201.672 281.398V281.519L201.552 281.541C178.649 285.637 159.485 289.065 146.04 291.47C139.323 292.661 134.035 293.598 130.42 294.24C128.619 294.554 127.236 294.795 126.296 294.959C125.833 295.038 125.481 295.097 125.237 295.138C124.999 295.177 124.877 295.191 124.877 295.191C124.877 295.191 124.996 295.162 125.233 295.116C125.475 295.069 125.827 295.002 126.288 294.914C127.227 294.74 128.607 294.484 130.404 294.15C134.016 293.491 139.299 292.527 146.01 291.301C159.451 288.868 178.607 285.4 201.502 281.256L201.383 281.398C201.377 260.783 201.37 236.739 201.363 211.18C201.382 170.294 201.4 133.277 201.412 106.472C201.434 93.0759 201.451 82.2346 201.464 74.734C201.477 70.9913 201.488 68.0841 201.495 66.1047C201.502 65.1225 201.508 64.3723 201.511 63.8604C201.516 63.3548 201.527 63.0957 201.527 63.0957Z" fill="#263238"/>
<path d="M222.198 295.189C222.197 293.715 222.132 197.842 222.041 63.0946L222.197 63.2514C191.572 63.2539 158.29 63.2564 123.774 63.259H123.758L123.923 63.0946C123.904 153.618 123.887 235.629 123.875 295.189L123.758 295.072C184.551 295.144 221.282 295.188 222.198 295.189C221.282 295.19 184.551 295.234 123.759 295.306H123.642V295.188C123.63 235.628 123.613 153.617 123.595 63.094V62.9297H123.76H123.775C158.292 62.9322 191.573 62.9347 222.199 62.9373H222.356V63.0946C222.264 197.842 222.199 293.716 222.198 295.189Z" fill="#263238"/>
<path d="M112.451 51.9251C112.515 51.8606 115.099 54.3083 118.221 57.3919C121.344 60.4767 123.824 63.0287 123.76 63.0938C123.696 63.1582 121.113 60.7111 117.99 57.6263C114.867 54.5422 112.388 51.9895 112.451 51.9251Z" fill="#263238"/>
<path d="M232.799 52.0403C232.865 52.1035 230.545 54.6289 227.618 57.6809C224.69 60.7341 222.264 63.1571 222.199 63.0946C222.133 63.0314 224.452 60.5065 227.38 57.4533C230.307 54.4008 232.733 51.9771 232.799 52.0403Z" fill="#263238"/>
<path d="M196.4 44.4233H143.033C140.781 44.4233 138.955 42.5975 138.955 40.345V17.672C138.955 15.4196 140.781 13.5938 143.033 13.5938H196.4C198.653 13.5938 200.478 15.4196 200.478 17.672V40.3444C200.478 42.5975 198.653 44.4233 196.4 44.4233Z" fill="white"/>
<path d="M196.4 44.4238C196.388 44.3815 197.055 44.4934 198.132 43.9972C198.659 43.7463 199.265 43.3027 199.746 42.591C199.981 42.2333 200.177 41.8105 200.295 41.334C200.422 40.8562 200.423 40.3323 200.415 39.7679C200.402 35.2611 200.385 28.7591 200.363 20.7264C200.36 19.7215 200.358 18.6932 200.356 17.6416C200.355 16.6196 199.925 15.5813 199.156 14.8437C198.393 14.0948 197.311 13.6834 196.193 13.7263C195.053 13.7276 193.891 13.7295 192.709 13.7308C187.982 13.7358 182.931 13.7409 177.618 13.7459C166.987 13.7497 155.302 13.7541 143.037 13.7592C141.554 13.7453 140.134 14.6503 139.512 15.9712C139.176 16.6304 139.098 17.3483 139.119 18.101C139.119 18.8531 139.119 19.6027 139.118 20.3497C139.117 23.3372 139.116 26.2804 139.116 29.1731C139.114 32.0651 139.113 34.9066 139.112 37.6886C139.111 38.3845 139.111 39.0765 139.11 39.7641C139.109 40.1104 139.106 40.4524 139.134 40.7759C139.181 41.1008 139.24 41.4269 139.365 41.7303C139.816 42.9652 140.925 43.9024 142.176 44.1755C142.793 44.3265 143.458 44.2564 144.116 44.2741C144.772 44.2747 145.424 44.2753 146.071 44.276C147.366 44.2772 148.644 44.2785 149.903 44.2797C152.42 44.2829 154.865 44.2854 157.229 44.288C161.955 44.2949 166.358 44.3019 170.378 44.3082C178.411 44.3303 184.912 44.348 189.418 44.3606C191.659 44.3739 193.401 44.3847 194.595 44.3916C195.18 44.3986 195.628 44.4043 195.941 44.408C196.245 44.4125 196.4 44.4238 196.4 44.4238C196.4 44.4238 196.245 44.4352 195.941 44.4409C195.628 44.4447 195.18 44.4504 194.595 44.4573C193.401 44.4643 191.659 44.475 189.418 44.4883C184.912 44.5009 178.411 44.5186 170.378 44.5408C166.358 44.5471 161.955 44.5534 157.229 44.561C154.865 44.5635 152.42 44.5667 149.903 44.5692C148.644 44.5705 147.366 44.5717 146.071 44.573C145.424 44.5736 144.772 44.5743 144.116 44.5749C143.467 44.5572 142.794 44.6337 142.11 44.4725C140.761 44.1805 139.566 43.1731 139.076 41.8409C138.942 41.5135 138.875 41.1621 138.826 40.8113C138.794 40.453 138.798 40.1079 138.799 39.766C138.798 39.0778 138.798 38.3857 138.798 37.6905C138.796 34.9078 138.795 32.067 138.794 29.1749C138.793 26.2829 138.792 23.3391 138.791 20.3516C138.791 19.6046 138.791 18.855 138.791 18.1029C138.767 17.3591 138.853 16.5293 139.217 15.8296C139.89 14.3982 141.431 13.416 143.037 13.4318C155.302 13.4363 166.987 13.4407 177.618 13.4451C182.931 13.4502 187.982 13.4558 192.709 13.4603C193.891 13.4622 195.052 13.4634 196.193 13.4647C197.357 13.4211 198.53 13.8654 199.333 14.6642C200.149 15.4511 200.602 16.5583 200.599 17.6422C200.598 18.6945 200.596 19.7234 200.595 20.7289C200.573 28.7616 200.555 35.2636 200.543 39.7704C200.547 40.3279 200.54 40.8758 200.404 41.3643C200.278 41.8535 200.071 42.2852 199.827 42.6486C199.326 43.3722 198.701 43.8152 198.16 44.0604C197.617 44.3113 197.161 44.3828 196.86 44.4163C196.555 44.4314 196.4 44.4238 196.4 44.4238Z" fill="#263238"/>
<path d="M196.281 41.6854H143.152C142.416 41.6854 141.819 41.0888 141.819 40.3525V17.6669C141.819 16.9306 142.416 16.334 143.152 16.334H196.281C197.017 16.334 197.614 16.9306 197.614 17.6669V40.3525C197.614 41.0888 197.017 41.6854 196.281 41.6854Z" fill="#E42312"/>
<path d="M155.663 32.7643V34.5535H148.366V24.9199H155.488V26.7091H150.533V28.801H154.909V30.5352H150.533V32.7643H155.663Z" fill="white"/>
<path d="M163.24 34.5529L160.964 31.209L158.73 34.5529H156.226L159.712 29.6542L156.401 24.9199H158.878L161.045 28.0439L163.172 24.9199H165.528L162.243 29.5714L165.757 34.5529H163.24Z" fill="white"/>
<path d="M166.616 24.9199H168.797V34.5529H166.616V24.9199Z" fill="white"/>
<path d="M172.983 26.7369H169.968V24.9199H178.18V26.7369H175.164V34.5529H172.983V26.7369Z" fill="white"/>
<path d="M182.298 30.381V27.8346H189.3L185.799 24.334H189.618L194.392 29.1075L189.538 33.9612H185.958L189.247 30.5396L182.298 30.381Z" fill="white"/>
<path d="M90.2531 111.186C90.2531 111.277 82.5383 111.35 73.0242 111.35C63.5069 111.35 55.7939 111.276 55.7939 111.186C55.7939 111.095 63.5069 111.021 73.0242 111.021C82.5383 111.021 90.2531 111.095 90.2531 111.186Z" fill="#263238"/>
<path d="M73.0239 113.598C73.0239 113.689 67.4693 113.763 60.619 113.763C53.7663 113.763 48.2129 113.689 48.2129 113.598C48.2129 113.507 53.7663 113.434 60.619 113.434C67.4693 113.434 73.0239 113.508 73.0239 113.598Z" fill="#263238"/>
<path d="M50.8562 219.119C50.8562 219.21 45.5329 219.284 38.9683 219.284C32.4012 219.284 27.0791 219.21 27.0791 219.119C27.0791 219.029 32.4012 218.955 38.9683 218.955C45.5335 218.954 50.8562 219.028 50.8562 219.119Z" fill="#263238"/>
<path d="M51.5459 214.985C51.5459 215.076 47.9201 215.149 43.4481 215.149C38.9748 215.149 35.3496 215.075 35.3496 214.985C35.3496 214.894 38.9748 214.82 43.4481 214.82C47.9201 214.82 51.5459 214.894 51.5459 214.985Z" fill="#263238"/>
<path d="M290.708 70.1719H242.254V160.941H290.708V70.1719Z" fill="#E42312"/>
<path d="M290.724 160.957H242.237V70.1562H290.724V160.957ZM242.27 160.925H290.691V70.1872H242.27V160.925Z" fill="#263238"/>
<path d="M284.734 76.8711H247.717V154.847H284.734V76.8711Z" fill="#EBEBEB"/>
<path d="M284.735 154.847C284.735 154.847 284.728 154.714 284.725 154.461C284.723 154.201 284.719 153.829 284.716 153.341C284.711 152.351 284.705 150.9 284.696 149.019C284.686 145.247 284.671 139.758 284.653 132.849C284.635 119.041 284.609 99.569 284.578 76.8707L284.734 77.0262C273.27 77.0287 260.749 77.0319 247.722 77.035H247.716L247.881 76.8707C247.864 107.069 247.848 134.544 247.836 154.846L247.716 154.726C259.123 154.753 268.361 154.775 274.758 154.791C277.958 154.804 280.444 154.814 282.14 154.821C282.981 154.827 283.625 154.831 284.068 154.834C284.504 154.839 284.735 154.847 284.735 154.847C284.735 154.847 284.522 154.855 284.094 154.86C283.656 154.863 283.02 154.867 282.188 154.873C280.498 154.88 278.02 154.89 274.833 154.903C268.419 154.918 259.155 154.94 247.717 154.968H247.596V154.847C247.585 134.545 247.569 107.07 247.553 76.8714V76.707H247.718H247.723C260.75 76.7102 273.271 76.7134 284.735 76.7159H284.891V76.8714C284.861 99.612 284.835 119.12 284.817 132.954C284.798 139.848 284.784 145.325 284.774 149.089C284.766 150.956 284.759 152.396 284.754 153.379C284.75 153.858 284.747 154.224 284.745 154.48C284.741 154.726 284.735 154.847 284.735 154.847Z" fill="#263238"/>
<path d="M271.085 89.5996V90.6949H268.328L271.085 89.5996Z" fill="#E42312"/>
<path d="M271.085 91.7363H268.924V94.6985H271.085V91.7363Z" fill="#E0E0E0"/>
<path d="M268.924 91.7363H267.732V93.0168H268.924V91.7363Z" fill="#E0E0E0"/>
<path d="M272.276 92.5762H271.085V93.8572H272.276V92.5762Z" fill="#E0E0E0"/>
<path d="M267.733 91.375H266.443V93.3765H267.733V91.375Z" fill="#E0E0E0"/>
<path d="M266.442 91.7363H265.913V93.0168H266.442V91.7363Z" fill="#263238"/>
<path d="M265.914 91.4668H265.021V93.2882H265.914V91.4668Z" fill="#263238"/>
<path d="M278.209 90.6953H268.329V91.7356H279.356C279.355 91.1617 278.841 90.6953 278.209 90.6953Z" fill="#E42312"/>
<path d="M270.031 96.7422C265.712 96.7422 262.21 99.9199 262.21 103.84V148.366H277.852V103.84C277.852 99.9199 274.351 96.7422 270.031 96.7422Z" fill="#E42312"/>
<path d="M274.685 107.398H265.376V129.742H274.685V107.398Z" fill="white"/>
<g opacity="0.3">
<path d="M270.031 99.971V98.3164C266.67 98.3164 263.945 100.79 263.945 103.84H265.768C265.768 101.703 267.677 99.971 270.031 99.971Z" fill="white"/>
</g>
<path d="M260.379 148.365H251.029L253.734 129.74H257.674L260.379 148.365Z" fill="#263238"/>
<path d="M256.894 127.926H254.514V129.74H256.894V127.926Z" fill="#263238"/>
<path d="M276.919 86.1466L267.869 89.7427L268.329 90.6958L278.43 86.6826C278.175 86.1555 277.499 85.9153 276.919 86.1466Z" fill="#E42312"/>
<path d="M271.623 94.6992H268.438V96.9049H271.623V94.6992Z" fill="#E42312"/>
<path d="M255.105 100.832V127.927H256.302V100.832C256.302 96.4691 260.213 92.9198 265.02 92.9198V91.834C259.553 91.834 255.105 95.8699 255.105 100.832Z" fill="#263238"/>
<path d="M277.852 144.711C277.852 144.802 274.35 144.876 270.032 144.876C265.711 144.876 262.21 144.802 262.21 144.711C262.21 144.62 265.711 144.547 270.032 144.547C274.35 144.547 277.852 144.62 277.852 144.711Z" fill="#263238"/>
<path d="M277.852 141.803C277.852 141.894 274.35 141.967 270.032 141.967C265.711 141.967 262.21 141.893 262.21 141.803C262.21 141.713 265.711 141.639 270.032 141.639C274.35 141.639 277.852 141.713 277.852 141.803Z" fill="#263238"/>
<path d="M281.104 92.5981C281.169 92.6613 274.98 99.1602 267.281 107.111C259.58 115.065 253.286 121.46 253.221 121.397C253.156 121.334 259.344 114.837 267.045 106.883C274.743 98.9308 281.039 92.5349 281.104 92.5981Z" fill="white"/>
<path d="M274.59 94.5303C274.652 94.596 271.135 98.024 266.736 102.186C262.335 106.349 258.718 109.669 258.655 109.602C258.593 109.536 262.108 106.109 266.51 101.946C270.91 97.7851 274.527 94.4645 274.59 94.5303Z" fill="white"/>
<path d="M287.9 157.605C287.9 157.605 287.654 157.614 287.161 157.621C286.66 157.626 285.927 157.635 284.968 157.645C283.027 157.661 280.178 157.684 276.515 157.714C269.151 157.764 258.516 157.835 245.403 157.922L245.28 157.923V157.8C245.269 135.716 245.254 106.149 245.238 73.7354V73.6317V73.4668H245.403C260.39 73.47 274.766 73.4738 287.9 73.4763H288.054V73.6311C288.024 98.1729 287.998 119.181 287.98 134.063C287.961 141.481 287.947 147.371 287.937 151.415C287.929 153.423 287.923 154.971 287.919 156.026C287.914 156.543 287.911 156.936 287.909 157.209C287.906 157.475 287.9 157.605 287.9 157.605C287.9 157.605 287.894 157.462 287.891 157.192C287.889 156.914 287.886 156.515 287.881 155.99C287.877 154.928 287.87 153.369 287.862 151.348C287.852 147.296 287.838 141.394 287.819 133.96C287.801 119.104 287.775 98.1319 287.745 73.6317L287.9 73.7866C274.766 73.7898 260.39 73.7929 245.403 73.7961L245.567 73.6317V73.7354C245.551 106.149 245.536 135.716 245.525 157.8L245.402 157.677C258.484 157.645 269.093 157.618 276.439 157.601C280.115 157.597 282.972 157.594 284.92 157.592C285.889 157.594 286.629 157.595 287.135 157.595C287.637 157.598 287.9 157.605 287.9 157.605Z" fill="#263238"/>
<path d="M246.421 88.377H244.438V96.7408H246.421V88.377Z" fill="#263238"/>
<path d="M246.421 132.002H244.438V140.366H246.421V132.002Z" fill="#263238"/>
<path d="M247.636 76.915C247.562 76.9681 247.004 76.3184 246.389 75.4646C245.774 74.6101 245.336 73.8745 245.409 73.8214C245.483 73.7683 246.042 74.418 246.656 75.2725C247.271 76.1263 247.71 76.8626 247.636 76.915Z" fill="#263238"/>
<path d="M287.96 73.6921C288.022 73.7585 287.327 74.5137 286.407 75.3795C285.487 76.2454 284.691 76.8938 284.629 76.8274C284.566 76.7611 285.262 76.0058 286.182 75.14C287.101 74.2742 287.898 73.6264 287.96 73.6921Z" fill="#263238"/>
<path d="M287.901 157.603C287.841 157.672 287.08 157.108 286.202 156.344C285.323 155.58 284.659 154.904 284.719 154.836C284.778 154.767 285.539 155.331 286.418 156.095C287.296 156.86 287.961 157.535 287.901 157.603Z" fill="#263238"/>
<path d="M247.635 154.902C247.706 154.959 247.259 155.637 246.638 156.415C246.016 157.194 245.455 157.78 245.384 157.723C245.314 157.666 245.76 156.989 246.381 156.21C247.003 155.431 247.564 154.846 247.635 154.902Z" fill="#263238"/>
<path d="M82.8361 91.2163L77.0331 91.9159C75.1251 94.5065 72.5004 96.6186 69.2987 97.9117C60.0904 101.631 49.61 97.1817 45.8907 87.9735C42.1713 78.7652 46.6206 68.2848 55.8289 64.5655C65.0371 60.8461 75.5176 65.2954 79.2369 74.5043C80.7897 78.3494 80.9142 82.4144 79.867 86.1186L79.872 86.1097L82.8361 91.2163Z" fill="white"/>
<path d="M82.8364 91.2172C82.8364 91.2172 82.7846 91.1123 82.6639 90.8955C82.5331 90.6616 82.3523 90.3381 82.1191 89.9209C81.6167 89.0317 80.8874 87.7424 79.9419 86.0708C79.9204 86.0329 79.8717 86.019 79.8338 86.0405C79.8212 86.0474 79.8111 86.0588 79.8041 86.0702L79.7991 86.079L79.945 86.1409C80.5891 83.903 81.0131 80.7873 80.2225 77.2436C79.8452 75.4772 79.1197 73.64 78.0497 71.8622C76.9829 70.0844 75.5362 68.3735 73.7085 66.9471C71.8858 65.5194 69.6864 64.3793 67.2456 63.7233C64.8086 63.0647 62.1302 62.8972 59.4594 63.351C56.7886 63.7985 54.1531 64.9152 51.847 66.5944C49.5414 68.2718 47.5677 70.5419 46.2822 73.2254C45.5864 74.5469 45.168 75.9759 44.8115 77.3903C44.5398 78.8249 44.354 80.2703 44.421 81.7018C44.4949 84.5635 45.2508 87.3272 46.5097 89.7288C47.7876 92.1247 49.5642 94.1452 51.5834 95.669C53.6027 97.1978 55.8564 98.2349 58.1044 98.8012C62.6257 99.9362 67.0055 99.1943 70.2432 97.6326C73.5265 96.0829 75.734 93.8457 77.0985 91.9636L77.0442 91.9952C78.9288 91.7462 80.3824 91.5547 81.3847 91.4226C81.8543 91.3581 82.2171 91.3088 82.4806 91.2728C82.7221 91.2393 82.8364 91.2172 82.8364 91.2172C82.8364 91.2172 82.6974 91.226 82.4427 91.2519C82.1728 91.2804 81.8012 91.3189 81.3203 91.3695C80.328 91.4776 78.889 91.6343 77.0239 91.8378C77.0018 91.8403 76.9816 91.853 76.9696 91.8694C75.5925 93.7167 73.388 95.9053 70.1389 97.4108C66.9328 98.9288 62.62 99.6316 58.1815 98.4991C55.9745 97.9341 53.7644 96.9071 51.7875 95.401C49.8107 93.9 48.0733 91.9149 46.8244 89.5632C45.5946 87.2052 44.8583 84.4958 44.7881 81.6929C44.723 80.2905 44.907 78.8748 45.173 77.4693C45.5238 76.0839 45.9327 74.6834 46.6153 73.3891C49.1452 68.0967 54.3054 64.5866 59.5207 63.7012C62.1378 63.2518 64.765 63.4092 67.1584 64.0488C69.5562 64.6852 71.7202 65.7975 73.517 67.193C75.3188 68.5878 76.7496 70.2632 77.8089 72.0075C78.8713 73.7518 79.5993 75.5581 79.983 77.298C80.7875 80.7866 80.3995 83.8702 79.7908 86.0973C79.7788 86.1397 79.8028 86.1839 79.8452 86.1966C79.8806 86.2067 79.9185 86.1902 79.9368 86.1599L79.9419 86.1511L79.8041 86.1504C80.7742 87.7797 81.5225 89.0361 82.0382 89.902C82.2898 90.3204 82.4844 90.6446 82.6254 90.879C82.7587 91.0996 82.8364 91.2172 82.8364 91.2172Z" fill="#263238"/>
<path d="M65.4602 73.2343L64.5141 82.4767C64.437 83.2326 63.8081 83.8121 63.0485 83.8279C62.2471 83.8443 61.574 83.23 61.5165 82.4306L60.8497 73.0789C60.7992 72.371 61.3806 71.7788 62.0897 71.8161L64.3485 71.9356C65.0222 71.971 65.5291 72.5631 65.4602 73.2343Z" fill="#E42312"/>
<path d="M60.3907 88.9436C60.7383 90.1444 61.9928 90.8358 63.1936 90.4882C64.3944 90.1406 65.0858 88.8861 64.7382 87.6853C64.3906 86.4845 63.1361 85.7931 61.9353 86.1407C60.7345 86.4883 60.0431 87.7434 60.3907 88.9436Z" fill="#E42312"/>
<path d="M93.3886 267.553L83.0371 283.298L107.635 297.673C108.864 295.239 98.8953 283.085 98.8953 283.085L104.359 274.462L93.3886 267.553Z" fill="#263238"/>
<path d="M91.9124 277.574C91.36 277.426 90.7186 277.769 90.5479 278.314C90.3773 278.86 90.7205 279.515 91.2703 279.673C91.8195 279.83 92.6026 279.442 92.7106 278.881C92.8193 278.32 92.3738 277.572 91.8031 277.551" fill="#E0E0E0"/>
<path d="M83.0371 283.298L84.2278 281.209L107.353 295.934C107.353 295.934 108.163 297.056 107.583 297.751L83.0371 283.298Z" fill="#E0E0E0"/>
<path d="M99.3678 283.194C99.2939 283.311 98.6613 283.015 97.8447 283.056C97.0269 283.076 96.4183 283.418 96.3355 283.306C96.2382 283.218 96.8373 282.604 97.827 282.572C98.8161 282.531 99.4582 283.099 99.3678 283.194Z" fill="#E0E0E0"/>
<path d="M101.324 285.768C101.284 285.9 100.644 285.8 99.9396 286.07C99.2267 286.319 98.8026 286.808 98.6863 286.733C98.5625 286.686 98.8905 285.934 99.7727 285.615C100.652 285.289 101.388 285.652 101.324 285.768Z" fill="#E0E0E0"/>
<path d="M100.984 289.712C100.86 289.674 101.044 288.976 101.736 288.498C102.426 288.016 103.144 288.088 103.136 288.217C103.146 288.356 102.576 288.495 102.012 288.896C101.441 289.283 101.111 289.769 100.984 289.712Z" fill="#E0E0E0"/>
<path d="M100.845 280.167C100.731 280.247 100.276 279.759 99.5709 279.409C98.8719 279.044 98.2109 278.963 98.2083 278.823C98.1894 278.696 98.9649 278.553 99.7909 278.977C100.619 279.395 100.959 280.107 100.845 280.167Z" fill="#E0E0E0"/>
<path d="M101.965 276.907C101.937 276.958 101.42 276.754 100.737 276.181C100.398 275.895 100.025 275.512 99.6797 275.032C99.5072 274.792 99.3416 274.528 99.1918 274.243C99.121 274.104 99.0294 273.952 98.9895 273.736C98.9295 273.534 99.0401 273.171 99.3081 273.065C99.5444 272.95 99.8149 272.998 99.9951 273.098C100.18 273.198 100.305 273.321 100.42 273.432C100.655 273.658 100.858 273.899 101.032 274.142C101.377 274.631 101.601 275.124 101.732 275.552C101.995 276.414 101.927 276.976 101.872 276.975C101.794 276.983 101.736 276.445 101.411 275.669C101.248 275.283 101.009 274.842 100.674 274.408C100.505 274.191 100.312 273.978 100.094 273.776C99.8737 273.556 99.6532 273.424 99.5185 273.501C99.4686 273.531 99.4553 273.546 99.4648 273.654C99.48 273.757 99.5451 273.888 99.6146 274.026C99.7492 274.295 99.8958 274.546 100.048 274.778C100.353 275.242 100.678 275.627 100.972 275.93C101.561 276.539 102.005 276.843 101.965 276.907Z" fill="#E0E0E0"/>
<path d="M101.708 276.988C101.655 276.982 101.668 276.412 102.078 275.608C102.283 275.211 102.596 274.767 103.034 274.358C103.254 274.155 103.505 273.962 103.785 273.793C104.071 273.635 104.437 273.412 104.934 273.63C105.183 273.764 105.274 274.071 105.248 274.274C105.232 274.489 105.165 274.64 105.11 274.8C104.988 275.114 104.818 275.392 104.626 275.63C104.243 276.108 103.774 276.419 103.357 276.595C102.503 276.951 101.918 276.802 101.932 276.756C101.927 276.671 102.481 276.685 103.207 276.287C103.565 276.091 103.959 275.787 104.274 275.357C104.431 275.143 104.568 274.899 104.667 274.632C104.781 274.348 104.806 274.08 104.693 274.049C104.571 273.976 104.249 274.051 104.026 274.201C103.771 274.348 103.539 274.514 103.331 274.69C102.917 275.045 102.601 275.431 102.374 275.78C101.918 276.484 101.784 277.008 101.708 276.988Z" fill="#E0E0E0"/>
<path d="M29.863 270.68L17.0518 284.498L38.9348 302.74C40.5495 300.544 32.7273 286.909 32.7273 286.909L39.5415 279.307L29.863 270.68Z" fill="#263238"/>
<path d="M26.7496 280.32C26.2295 280.083 25.54 280.315 25.2815 280.825C25.023 281.335 25.253 282.038 25.7688 282.284C26.2845 282.53 27.1212 282.277 27.3203 281.741C27.52 281.205 27.2047 280.394 26.6447 280.279" fill="#E0E0E0"/>
<path d="M17.0508 284.498L18.5701 282.635L38.9433 300.98C38.9433 300.98 39.5563 302.22 38.8699 302.81L17.0508 284.498Z" fill="#E0E0E0"/>
<path d="M33.1746 287.093C33.0817 287.197 32.5072 286.8 31.695 286.705C30.8855 286.589 30.2288 286.826 30.1656 286.702C30.0847 286.599 30.7761 286.093 31.7576 286.225C32.7391 286.348 33.2788 287.014 33.1746 287.093Z" fill="#E0E0E0"/>
<path d="M34.6782 289.955C34.6162 290.079 34.0019 289.875 33.2625 290.024C32.5186 290.152 32.0193 290.564 31.917 290.471C31.8026 290.404 32.2507 289.717 33.1734 289.549C34.0948 289.372 34.761 289.851 34.6782 289.955Z" fill="#E0E0E0"/>
<path d="M33.6912 293.79C33.5756 293.732 33.8713 293.074 34.6335 292.718C35.3938 292.356 36.0897 292.545 36.0606 292.672C36.0473 292.81 35.4615 292.854 34.8402 293.156C34.2126 293.443 33.8062 293.869 33.6912 293.79Z" fill="#E0E0E0"/>
<path d="M35.1307 284.354C35.0049 284.414 34.6371 283.858 33.9994 283.396C33.3705 282.92 32.7316 282.731 32.7525 282.593C32.755 282.464 33.5437 282.451 34.2876 283.006C35.0352 283.556 35.2533 284.314 35.1307 284.354Z" fill="#E0E0E0"/>
<path d="M36.774 281.322C36.7386 281.367 36.2615 281.081 35.6826 280.403C35.395 280.065 35.091 279.625 34.8294 279.095C34.6992 278.829 34.5791 278.542 34.4786 278.236C34.4318 278.087 34.3667 277.922 34.363 277.702C34.337 277.493 34.5064 277.153 34.7877 277.093C35.0398 277.019 35.2983 277.111 35.4595 277.239C35.6251 277.368 35.7287 277.51 35.8229 277.639C36.0175 277.901 36.1787 278.172 36.3095 278.441C36.5693 278.98 36.7083 279.503 36.7671 279.947C36.8834 280.84 36.7235 281.384 36.6698 281.374C36.592 281.369 36.6236 280.828 36.4309 280.009C36.3342 279.602 36.1711 279.128 35.9126 278.643C35.7818 278.403 35.627 278.159 35.4449 277.925C35.2642 277.671 35.0683 277.505 34.9229 277.558C34.8686 277.58 34.8528 277.593 34.8445 277.701C34.8426 277.805 34.885 277.945 34.9311 278.092C35.0196 278.38 35.1226 278.652 35.2345 278.906C35.4582 279.413 35.7154 279.847 35.9556 280.195C36.4365 280.892 36.8246 281.266 36.774 281.322Z" fill="#E0E0E0"/>
<path d="M36.5078 281.359C36.4559 281.344 36.5634 280.785 37.1012 280.06C37.3692 279.701 37.7515 279.315 38.2508 278.985C38.5011 278.821 38.7804 278.673 39.0844 278.552C39.3928 278.442 39.791 278.283 40.2448 278.582C40.4685 278.754 40.5071 279.073 40.4477 279.268C40.3965 279.477 40.3048 279.616 40.2252 279.764C40.0527 280.053 39.8384 280.299 39.6103 280.503C39.1533 280.911 38.6395 281.14 38.1984 281.245C37.2978 281.455 36.7454 281.211 36.7669 281.168C36.7757 281.084 37.3205 281.189 38.1017 280.916C38.4866 280.782 38.9258 280.547 39.3069 280.175C39.4971 279.991 39.6735 279.773 39.815 279.525C39.9743 279.264 40.0438 279.004 39.937 278.955C39.8296 278.863 39.4984 278.884 39.2544 278.995C38.9789 279.097 38.7217 279.224 38.4878 279.363C38.0208 279.644 37.646 279.973 37.3635 280.279C36.7991 280.896 36.5798 281.391 36.5078 281.359Z" fill="#E0E0E0"/>
<path d="M109.379 104.592L106.334 129.676C105.728 133.949 104.852 140.279 111.652 140.929C117.595 141.049 119.866 135.703 120.428 131.714C120.694 129.822 120.92 128.245 120.961 128.052C120.961 128.052 127.443 128.358 128.803 122.092C129.461 119.064 130.307 112.717 131.006 106.967C131.757 100.79 127.63 95.075 121.535 93.8306L120.929 93.7068C114.315 92.7537 110.149 97.9538 109.379 104.592Z" fill="#FFCBB3"/>
<path d="M120.977 128.053C120.977 128.053 116.97 127.476 113.292 123.965C113.292 123.965 114.35 128.96 120.734 129.675L120.977 128.053Z" fill="#E42312"/>
<path d="M120.023 109.102C119.878 109.121 119.311 108.558 118.319 108.16C117.331 107.753 116.473 107.735 116.396 107.626C116.357 107.576 116.529 107.505 116.905 107.508C117.276 107.509 117.865 107.603 118.482 107.854C119.099 108.106 119.561 108.439 119.801 108.686C120.046 108.936 120.093 109.096 120.023 109.102Z" fill="#263238"/>
<path d="M118.198 110.228C118.122 110.679 117.678 110.987 117.205 110.916C116.734 110.846 116.411 110.424 116.486 109.973C116.562 109.522 117.007 109.213 117.479 109.283C117.951 109.353 118.274 109.776 118.198 110.228Z" fill="#263238"/>
<path d="M121.711 115.911C121.717 115.855 122.339 115.873 123.337 115.948C123.588 115.973 123.831 115.971 123.907 115.812C124.002 115.646 123.953 115.359 123.892 115.048C123.782 114.404 123.667 113.729 123.546 113.022C123.08 110.142 122.796 107.796 122.912 107.777C123.028 107.76 123.5 110.079 123.967 112.958C124.076 113.666 124.181 114.343 124.279 114.989C124.315 115.288 124.411 115.638 124.209 115.982C124.106 116.153 123.897 116.249 123.731 116.26C123.563 116.275 123.424 116.25 123.3 116.232C122.311 116.086 121.703 115.967 121.711 115.911Z" fill="#263238"/>
<path d="M115.169 103.717C115.24 103.468 116.112 103.53 117.122 103.34C118.136 103.172 118.938 102.813 119.086 103.023C119.152 103.124 119.024 103.363 118.707 103.619C118.393 103.875 117.881 104.132 117.275 104.24C116.668 104.347 116.102 104.281 115.723 104.148C115.339 104.014 115.139 103.834 115.169 103.717Z" fill="#263238"/>
<path d="M126.164 106.227C126.303 106.052 127.099 106.384 128.096 106.561C129.091 106.755 129.944 106.729 130.02 106.944C130.052 107.047 129.863 107.194 129.491 107.296C129.123 107.397 128.572 107.437 127.974 107.326C127.377 107.215 126.87 106.979 126.554 106.75C126.236 106.52 126.102 106.312 126.164 106.227Z" fill="#263238"/>
<path d="M108.932 109.435C108.828 109.367 104.617 107.282 103.96 111.838C103.302 116.394 108.011 116.115 108.038 115.985C108.066 115.856 108.932 109.435 108.932 109.435Z" fill="#FFCBB3"/>
<path d="M106.896 114.06C106.878 114.042 106.809 114.104 106.666 114.146C106.526 114.187 106.295 114.196 106.07 114.073C105.615 113.827 105.32 113.004 105.416 112.18C105.464 111.764 105.608 111.381 105.802 111.076C105.989 110.763 106.238 110.561 106.487 110.553C106.737 110.533 106.888 110.702 106.924 110.839C106.967 110.974 106.925 111.062 106.948 111.073C106.959 111.086 107.056 111.011 107.047 110.817C107.041 110.724 107.003 110.608 106.909 110.505C106.812 110.401 106.658 110.332 106.487 110.326C106.132 110.299 105.769 110.577 105.556 110.912C105.323 111.247 105.151 111.675 105.097 112.142C104.994 113.064 105.34 113.992 105.971 114.277C106.28 114.407 106.561 114.349 106.714 114.261C106.872 114.169 106.911 114.071 106.896 114.06Z" fill="#E42312"/>
<path d="M129.476 109.557C129.361 109.645 128.589 109.474 127.533 109.648C126.477 109.813 125.731 110.229 125.61 110.179C125.551 110.158 125.662 110.015 125.986 109.828C126.305 109.644 126.859 109.424 127.517 109.318C128.175 109.213 128.741 109.251 129.072 109.332C129.41 109.412 129.533 109.517 129.476 109.557Z" fill="#263238"/>
<path d="M127.317 111.655C127.241 112.107 126.797 112.415 126.324 112.344C125.853 112.274 125.53 111.852 125.606 111.401C125.681 110.949 126.126 110.641 126.598 110.711C127.071 110.781 127.393 111.204 127.317 111.655Z" fill="#263238"/>
<path d="M140.323 102.387C140.287 102.123 140.129 101.889 139.918 101.726C139.46 101.369 138.884 101.334 138.332 101.254C136.961 101.054 135.643 100.526 134.499 99.7463C134.954 99.5851 135.387 99.3734 135.77 99.0789C136.56 98.4709 137.1 97.454 136.901 96.477C136.864 96.2937 136.785 96.0965 136.615 96.0194C136.345 95.8968 136.063 96.1407 135.838 96.3348C135.1 96.9718 134.464 97.2044 133.515 96.9826C132.925 96.8448 132.363 96.6362 131.932 96.2829C131.915 96.2608 131.901 96.2374 131.885 96.2153C131.69 95.9537 131.499 95.7034 131.31 95.4607C131.31 95.4607 131.309 95.4594 131.308 95.4582L131.309 95.4595C129.889 93.633 128.633 92.3323 127.265 91.5651C125.261 90.4407 121.769 89.6387 119.49 89.932C117.21 90.2259 115 91.7578 114.401 93.9768C113.3 92.7716 111.443 92.5409 109.859 92.9517L109.824 92.9302C108.07 93.3113 106.888 94.9595 106.172 96.6059C106.133 96.6956 106.097 96.7879 106.059 96.8783C105.376 97.7037 104.506 98.3742 103.518 98.7907C103.344 98.864 103.143 98.9557 103.099 99.1396C103.055 99.3216 103.192 99.4954 103.329 99.6231C103.694 99.9631 104.138 100.213 104.613 100.363C104.407 100.749 104.177 101.121 103.906 101.469C103.675 101.765 103.4 102.12 103.523 102.475C103.617 102.749 103.931 102.897 104.222 102.893C104.512 102.888 104.785 102.763 105.048 102.641C104.802 103.064 104.558 103.488 104.313 103.912C104.906 104.096 105.54 104.129 106.152 104.026C106.302 105.671 106.49 107.552 106.762 108.689C107.464 108.778 108.099 108.911 108.481 109.355C108.999 109.959 109.134 110.987 110.159 110.736C110.68 110.608 111.268 109.624 111.5 109.14C113.037 105.924 113.868 102.374 113.923 98.8109C114.713 98.16 115.63 97.6632 116.607 97.3567L116.523 97.4149C118.373 97.0287 120.454 96.6824 122.027 97.7309C123.247 98.5442 123.839 99.9953 124.674 101.201C126.256 103.484 128.356 104.873 131.094 105.348C131.095 107.292 130.577 109.69 130.44 111.486L132.461 108.822L132.461 108.837C132.61 108.644 132.739 108.446 132.865 108.247L132.907 108.188L132.908 108.18C133.108 107.861 133.3 107.54 133.541 107.23C133.546 107.236 133.551 107.241 133.556 107.248C134.412 108.225 136.005 107.105 135.377 105.968C135.253 105.742 135.095 105.535 134.908 105.357C135.296 105.829 135.93 106.112 136.532 106.009C137.134 105.906 137.659 105.378 137.687 104.768C137.706 104.351 137.459 103.944 137.108 103.733C137.881 103.894 138.701 103.827 139.432 103.527C139.909 103.331 140.402 102.968 140.323 102.387Z" fill="#263238"/>
<path d="M116.302 94.9648C116.312 94.9825 116.015 95.0982 115.591 95.4641C115.171 95.8288 114.667 96.4924 114.346 97.4429C114.183 97.915 114.051 98.4491 113.976 99.033C113.898 99.6164 113.864 100.247 113.823 100.912C113.781 101.576 113.738 102.278 113.602 102.996C113.534 103.355 113.443 103.717 113.318 104.074C113.191 104.425 113.046 104.805 112.733 105.08C112.483 105.305 112.105 105.37 111.8 105.265C111.49 105.168 111.23 104.963 111.054 104.706C110.707 104.178 110.683 103.561 110.651 103.016L110.782 103.049C110.503 103.499 110.219 103.943 109.839 104.277C109.465 104.615 108.982 104.808 108.52 104.789C108.289 104.78 108.064 104.714 107.881 104.59C107.694 104.467 107.57 104.283 107.494 104.095C107.422 103.905 107.398 103.704 107.432 103.516C107.467 103.329 107.563 103.16 107.699 103.049L107.759 103.118C107.198 103.612 106.643 103.844 106.265 103.964C106.074 104.023 105.924 104.054 105.822 104.073C105.72 104.09 105.667 104.095 105.666 104.091C105.665 104.087 105.717 104.073 105.817 104.049C105.916 104.022 106.064 103.983 106.25 103.917C106.619 103.784 107.158 103.542 107.698 103.051L107.757 103.12C107.515 103.318 107.451 103.713 107.594 104.056C107.666 104.225 107.78 104.389 107.945 104.495C108.109 104.603 108.314 104.662 108.525 104.668C108.951 104.681 109.401 104.499 109.752 104.178C110.11 103.858 110.386 103.425 110.663 102.974L110.78 102.783L110.793 103.008C110.826 103.552 110.86 104.146 111.176 104.622C111.334 104.852 111.573 105.038 111.844 105.122C112.114 105.212 112.42 105.158 112.637 104.966C112.91 104.729 113.055 104.37 113.179 104.025C113.302 103.676 113.392 103.322 113.459 102.969C113.595 102.263 113.641 101.566 113.687 100.903C113.731 100.24 113.77 99.6063 113.854 99.016C113.935 98.4257 114.075 97.8853 114.247 97.4075C114.585 96.4469 115.114 95.777 115.553 95.4205C115.996 95.0609 116.302 94.9648 116.302 94.9648Z" fill="#455A64"/>
<path d="M135.111 103.665C135.113 103.667 135.094 103.679 135.055 103.702C135.008 103.727 134.952 103.758 134.882 103.796C134.806 103.839 134.71 103.889 134.591 103.933C134.474 103.982 134.339 104.042 134.179 104.086C133.554 104.29 132.575 104.446 131.404 104.224C130.243 104.007 128.893 103.411 127.761 102.317C126.612 101.242 125.674 99.7579 124.964 98.1046C124.603 97.2773 124.328 96.4424 124.008 95.6619C123.691 94.882 123.323 94.1508 122.841 93.5491C122.366 92.9455 121.786 92.4696 121.158 92.2048C120.846 92.0664 120.522 92.0026 120.21 91.9697C119.895 91.9457 119.591 91.971 119.306 92.0254C118.736 92.1379 118.256 92.3831 117.881 92.6498C117.505 92.9196 117.237 93.2217 117.046 93.4853C116.683 94.0307 116.619 94.4023 116.596 94.3935C116.594 94.3928 116.598 94.3707 116.61 94.3277C116.625 94.2765 116.643 94.214 116.665 94.1375C116.718 93.9719 116.823 93.7349 116.998 93.453C117.185 93.1794 117.452 92.8653 117.832 92.5828C118.211 92.3028 118.698 92.0449 119.284 91.9217C119.577 91.8623 119.891 91.8332 120.218 91.8547C120.542 91.885 120.883 91.9502 121.206 92.0911C121.858 92.361 122.459 92.8489 122.948 93.4638C123.444 94.0775 123.821 94.8213 124.142 95.6069C124.467 96.3925 124.742 97.2261 125.101 98.0458C125.805 99.6865 126.729 101.155 127.855 102.217C128.965 103.3 130.282 103.892 131.423 104.121C132.573 104.353 133.539 104.215 134.162 104.031C134.79 103.844 135.103 103.645 135.111 103.665Z" fill="#455A64"/>
<path d="M136.048 100.953C136.052 100.963 135.964 101.008 135.8 101.082C135.638 101.159 135.392 101.249 135.083 101.337C134.774 101.428 134.396 101.501 133.972 101.549C133.547 101.589 133.077 101.599 132.586 101.554C132.095 101.504 131.635 101.404 131.226 101.283C130.819 101.155 130.462 101.011 130.176 100.862C129.89 100.715 129.666 100.58 129.522 100.474C129.375 100.37 129.297 100.309 129.303 100.301C129.319 100.277 129.646 100.502 130.222 100.767C130.509 100.902 130.863 101.033 131.265 101.152C131.668 101.263 132.12 101.357 132.6 101.406C133.081 101.449 133.542 101.444 133.959 101.413C134.375 101.374 134.748 101.312 135.056 101.235C135.673 101.086 136.037 100.927 136.048 100.953Z" fill="#455A64"/>
<path d="M128.435 225.669C127.14 223.758 125.4 221.384 123.104 218.592C119.172 213.812 113.544 207.825 111.148 205.308C108.525 202.068 101.421 192.012 99.0016 189.245C95.9251 185.727 90.8988 182.395 90.8988 182.395L60.7935 185.728L58.8975 187.49C59.3026 189.92 60.5685 197.615 63.2633 201.096C66.556 205.349 75.1993 213.174 79.4539 214.405C82.0173 215.147 84.8569 216.246 87.4139 217.333C92.1824 220.631 108.065 231.685 109.308 233.472C109.575 233.855 109.305 234.116 109.305 234.116C109.305 234.116 103.01 240.659 99.8871 247.207C96.2227 254.888 87.7211 272.368 87.7211 272.368L102.82 280.084C102.82 280.084 122.091 248.956 124.644 245.062C125.649 243.529 127.589 239.721 129.185 236.489C130.906 233.01 130.612 228.882 128.435 225.669Z" fill="#263238"/>
<path d="M90.6837 195.909L68.4866 188.248C68.4866 188.248 69.0175 197.544 70.3466 199.895L56.3244 230.852C56.3244 230.852 42.524 249.606 38.5791 254.724C33.4643 261.359 25.084 275.159 25.084 275.159L37.3549 284.096L67.7705 247.871C67.7705 247.871 71.1328 246.402 72.3563 244.444L95.4161 215.826L90.6837 195.909Z" fill="#263238"/>
<path d="M157.872 144.143L157.369 139.853L159.797 136.878C159.797 136.878 162.409 135.4 162.739 134.965C162.739 134.965 163.203 135.33 163.026 136.096C163.026 136.096 163.865 135.024 164.424 135.085C164.984 135.146 165.36 136.106 165.502 136.777C165.502 136.777 166.055 137.006 166.621 137.515C167.187 138.024 167.306 138.666 167.306 138.666L167.149 139.529C167.149 139.529 167.853 139.417 168.193 140.051C168.533 140.685 168.398 141.645 168.398 141.645C168.398 141.645 169.066 141.277 169.385 141.815C169.705 142.353 169.795 142.677 169.652 143.133C169.508 143.588 167.361 147.195 166.622 147.758C165.884 148.32 159.741 153.135 159.741 153.135L154.412 147.545L157.872 144.143Z" fill="#FFCBB3"/>
<path d="M168.863 143.338C168.888 143.359 168.577 143.796 167.939 144.38C167.62 144.671 167.218 144.994 166.739 145.306C166.506 145.457 166.212 145.648 165.843 145.628C165.491 145.611 165.133 145.393 164.974 145.047C164.806 144.709 164.857 144.293 165.046 144.008C165.23 143.719 165.479 143.526 165.705 143.352C166.16 143.01 166.588 142.728 166.957 142.507C167.697 142.067 168.189 141.863 168.205 141.894C168.224 141.93 167.766 142.195 167.062 142.671C166.71 142.91 166.299 143.204 165.859 143.553C165.642 143.725 165.419 143.912 165.276 144.149C165.129 144.38 165.099 144.673 165.222 144.929C165.338 145.182 165.598 145.342 165.86 145.359C166.119 145.38 166.368 145.239 166.603 145.093C167.078 144.799 167.483 144.499 167.813 144.233C168.47 143.697 168.831 143.31 168.863 143.338Z" fill="#E42312"/>
<path d="M165.669 136.846C165.696 136.879 165.249 137.254 164.598 137.926C164.274 138.263 163.9 138.676 163.518 139.16C163.325 139.402 163.135 139.659 162.937 139.937C162.74 140.209 162.469 140.531 162.05 140.621C161.845 140.667 161.611 140.628 161.437 140.507C161.26 140.388 161.148 140.213 161.08 140.036C160.938 139.672 161.021 139.281 161.155 138.99C161.29 138.689 161.468 138.444 161.62 138.215C161.772 137.993 161.916 137.781 162.053 137.579C162.587 136.803 162.932 136.333 162.965 136.354C162.996 136.375 162.708 136.882 162.216 137.685C161.986 138.089 161.636 138.556 161.388 139.089C161.273 139.36 161.22 139.662 161.332 139.94C161.435 140.22 161.697 140.425 161.995 140.351C162.297 140.289 162.527 140.041 162.721 139.776C162.92 139.505 163.122 139.239 163.322 138.999C163.722 138.516 164.117 138.111 164.463 137.787C165.157 137.142 165.649 136.819 165.669 136.846Z" fill="#E42312"/>
<path d="M166.921 139.317C166.944 139.35 166.608 139.626 166.125 140.137C165.634 140.629 165.004 141.423 164.072 142.009C163.842 142.165 163.652 142.33 163.394 142.456C163.266 142.517 163.104 142.557 162.945 142.521C162.791 142.479 162.688 142.413 162.581 142.342C162.479 142.269 162.376 142.195 162.3 142.073C162.238 141.968 162.187 141.861 162.155 141.754C162.085 141.539 162.072 141.329 162.088 141.142C162.12 140.766 162.269 140.489 162.396 140.33C162.525 140.169 162.627 140.113 162.637 140.124C162.681 140.15 162.301 140.466 162.281 141.152C162.279 141.318 162.302 141.501 162.37 141.68C162.401 141.77 162.448 141.858 162.503 141.941C162.544 142.008 162.631 142.073 162.72 142.131C162.808 142.188 162.917 142.244 163 142.264C163.083 142.281 163.178 142.261 163.278 142.212C163.478 142.113 163.694 141.934 163.91 141.786C164.82 141.216 165.448 140.468 165.987 139.998C166.515 139.515 166.902 139.287 166.921 139.317Z" fill="#E42312"/>
<path d="M168.351 141.499C168.373 141.53 167.879 141.912 167.063 142.505C166.63 142.814 166.147 143.161 165.622 143.536C165.348 143.718 165.079 143.958 164.693 144.087C164.499 144.148 164.283 144.167 164.069 144.105C163.854 144.047 163.655 143.873 163.572 143.66C163.392 143.23 163.562 142.775 163.78 142.473C164.003 142.162 164.241 141.913 164.463 141.66C164.913 141.163 165.35 140.74 165.744 140.417C166.136 140.092 166.483 139.866 166.73 139.725C166.977 139.584 167.125 139.529 167.133 139.543C167.156 139.583 166.61 139.889 165.871 140.564C165.502 140.9 165.087 141.327 164.653 141.828C164.441 142.079 164.199 142.344 164.003 142.624C163.807 142.9 163.698 143.25 163.826 143.553C163.938 143.854 164.31 143.931 164.613 143.831C164.923 143.735 165.2 143.508 165.48 143.328C166.016 142.971 166.511 142.641 166.954 142.346C167.797 141.793 168.33 141.467 168.351 141.499Z" fill="#E42312"/>
<path d="M163.083 136.026C163.177 136.064 162.658 137.19 161.656 138.307C161.529 138.446 161.404 138.58 161.27 138.701C161.21 138.762 161.125 138.823 161.075 138.871C161.054 138.892 161.031 138.912 161.008 138.93C160.999 138.944 160.99 138.964 160.986 138.992C160.985 139.268 160.976 139.606 160.926 139.838C160.832 140.329 160.676 140.599 160.646 140.586C160.606 140.573 160.693 140.284 160.734 139.812C160.759 139.565 160.745 139.323 160.736 138.96C160.741 138.908 160.756 138.848 160.79 138.793L160.899 138.677C160.969 138.608 161.024 138.569 161.086 138.505C161.209 138.389 161.329 138.258 161.452 138.124C161.936 137.578 162.339 137.047 162.62 136.658C162.902 136.269 163.046 136.011 163.083 136.026Z" fill="#E42312"/>
<path d="M162.308 142.514C162.268 142.524 162.195 142.337 161.994 142.091C161.795 141.85 161.475 141.516 161.121 141.184C160.762 140.852 160.381 140.643 160.079 140.558C159.778 140.468 159.574 140.48 159.569 140.438C159.56 140.406 159.77 140.319 160.12 140.368C160.467 140.409 160.923 140.625 161.305 140.98C161.683 141.336 161.975 141.685 162.155 141.982C162.332 142.282 162.342 142.508 162.308 142.514Z" fill="#E42312"/>
<path d="M42.8129 157.648C42.8129 157.648 43.2262 161.13 43.0486 162.15C42.8717 163.17 41.7732 166.325 41.9312 167.743C41.9312 167.743 40.932 168.377 40.5762 167.168C40.2204 165.958 40.1926 164.11 40.3854 163.263C40.5781 162.416 39.9265 162.351 39.45 162.769C38.9735 163.188 36.2559 166.546 36.2559 166.546C36.2559 166.546 33.7424 170.811 33.1066 170.92C32.4708 171.028 32.2477 170.262 32.1188 169.981C31.9899 169.7 34.0041 165.832 34.0041 165.832L35.299 164.053C35.299 164.053 30.8845 169.363 30.1956 169.421C29.5067 169.479 29.3317 168.996 29.3216 168.59C29.3115 168.184 31.2833 165.86 31.2833 165.86L33.7178 162.549L28.2364 167.982C28.2364 167.982 27.6531 168.429 27.2366 168.034C26.8207 167.638 27.1639 166.777 27.1639 166.777L32.3299 160.675C32.3299 160.675 26.5155 161.882 26.2431 161.623C25.9707 161.365 25.6756 160.926 25.996 160.755C26.3164 160.584 32.4266 158.074 32.4266 158.074L37.7272 154.082L39.122 153.031L43.5624 156.777L42.8129 157.648Z" fill="#FFCBB3"/>
<path d="M36.4502 152.465L50.6114 132.088C52.3494 129.693 55.0765 128.212 58.0311 128.059L84.0765 126.701C84.0765 126.701 87.8198 122.204 90.0444 122.668C92.2691 123.133 95.7192 125.387 94.7674 129.526C93.8156 133.664 88.1636 142.056 81.647 142.841L59.7761 142.777L44.6637 158.412L36.4502 152.465Z" fill="#455A64"/>
<path d="M86.21 185.223L99.0016 189.245C100.656 187.498 105.016 177.656 105.016 177.656L86.21 185.223Z" fill="#E0E0E0"/>
<path d="M104.681 124.87L90.1264 123.348L82.3313 141.137L75.9671 167.536C75.9671 167.536 54.7382 180.335 50.5986 185.833C48.5187 188.596 54.8962 195.724 54.8962 195.724C54.8962 195.724 61.5019 205.309 67.837 204.127C74.1722 202.946 88.5616 192.321 95.7127 187.161C97.8204 185.641 101.553 182.891 103.853 179.511C107.465 174.205 109.115 167.811 109.115 167.811L104.681 124.87Z" fill="#455A64"/>
<path d="M120.373 131.922L127.102 139.543C127.425 140.089 122.127 158.968 119.635 163.662C118.664 165.491 111.727 173.383 108.069 180.071V201.104L99.0029 189.246L100.389 187.217L109.116 167.813L120.946 153.976L120.583 141.372L120.373 131.922Z" fill="#455A64"/>
<path d="M144.492 152.598L128.371 142.673L127.102 139.543L119.167 162.538C119.167 162.538 142.183 168.228 146.73 166.193C151.278 164.157 164.644 152.076 164.644 152.076L156.417 144.377L144.492 152.598Z" fill="#455A64"/>
<path d="M104.682 124.871L106.15 122.875C106.15 122.875 110.225 126.355 112.963 129.897C114.785 132.254 117.18 136.587 117.18 136.587L120.51 132.16L120.946 153.975L109.116 167.812L104.826 126.263L104.682 124.871Z" fill="#E0E0E0"/>
<path d="M106.017 165.668C106.005 165.671 105.96 165.529 105.882 165.256C105.797 164.951 105.688 164.555 105.551 164.063C105.267 163.027 104.821 161.536 104.246 159.702C103.654 157.859 102.955 155.682 102.18 153.269C101.406 150.846 100.555 148.178 99.8325 145.326C99.4849 143.896 99.1385 142.501 98.99 141.103C98.8326 139.707 99.0128 138.331 99.361 137.097C100.091 134.621 101.311 132.646 102.125 130.915C102.987 129.2 103.47 127.719 103.666 126.668C103.71 126.409 103.75 126.175 103.786 125.967C103.801 125.77 103.815 125.598 103.827 125.447C103.852 125.166 103.87 125.018 103.882 125.018C103.894 125.018 103.897 125.166 103.894 125.45C103.891 125.603 103.887 125.778 103.883 125.977C103.856 126.189 103.825 126.427 103.792 126.69C103.635 127.76 103.176 129.278 102.336 131.015C101.542 132.768 100.349 134.755 99.6536 137.179C99.3218 138.389 99.1543 139.71 99.3111 141.071C99.459 142.43 99.8059 143.825 100.152 145.246C100.871 148.084 101.711 150.751 102.469 153.178C103.231 155.603 103.922 157.788 104.469 159.634C105.016 161.48 105.428 162.983 105.675 164.032C105.807 164.554 105.888 164.964 105.946 165.242C106.003 165.519 106.027 165.666 106.017 165.668Z" fill="#263238"/>
<path d="M81.2803 162.087C81.2582 162.081 81.2992 161.828 81.3921 161.376C81.5002 160.855 81.6323 160.215 81.7884 159.462C82.1196 157.847 82.5386 155.608 82.8894 153.117C83.2382 150.626 83.4512 148.358 83.5782 146.713C83.6364 145.946 83.685 145.295 83.7255 144.765C83.7615 144.305 83.7918 144.05 83.8146 144.051C83.8374 144.051 83.85 144.307 83.8538 144.77C83.8588 145.233 83.8456 145.902 83.8108 146.728C83.7426 148.381 83.5656 150.662 83.2155 153.164C82.8634 155.664 82.4065 157.906 82.0159 159.513C81.8213 160.317 81.65 160.964 81.5173 161.407C81.3852 161.85 81.3024 162.092 81.2803 162.087Z" fill="#455A64"/>
<path d="M86.2969 157.714C86.2135 157.762 85.4424 156.52 84.3503 155.097C83.2633 153.669 82.2647 152.602 82.3324 152.534C82.3905 152.471 83.5079 153.447 84.612 154.897C85.7205 156.343 86.3721 157.674 86.2969 157.714Z" fill="#455A64"/>
<path d="M88.562 152.464C88.562 152.545 87.0565 152.492 85.3508 151.815C83.6406 151.148 82.503 150.161 82.5586 150.101C82.6167 150.019 83.8106 150.863 85.4715 151.509C87.1267 152.168 88.5752 152.364 88.562 152.464Z" fill="#455A64"/>
<path d="M107.127 170.118C107.133 170.128 107.045 170.188 106.872 170.293C106.697 170.394 106.445 170.558 106.102 170.731C105.424 171.096 104.411 171.57 103.108 172.024C100.522 172.938 96.6507 173.651 92.4605 172.988C88.2685 172.341 84.7887 170.525 82.5653 168.92C81.4429 168.118 80.6011 167.383 80.0462 166.85C79.7643 166.588 79.5633 166.366 79.4224 166.22C79.284 166.072 79.2151 165.992 79.2233 165.983C79.2416 165.964 79.5557 166.251 80.1321 166.755C80.7104 167.256 81.5693 167.959 82.6981 168.729C84.936 170.271 88.3823 172.025 92.5105 172.663C96.6368 173.315 100.454 172.652 103.034 171.803C104.333 171.381 105.353 170.945 106.044 170.616C106.736 170.289 107.114 170.094 107.127 170.118Z" fill="#455A64"/>
<path d="M104.557 174.671C104.571 174.688 104.408 174.836 104.102 175.09C103.798 175.346 103.335 175.689 102.747 176.088C101.571 176.886 99.8497 177.863 97.8133 178.632C95.7764 179.4 93.8355 179.802 92.4237 179.965C91.7177 180.049 91.1426 180.09 90.7451 180.093C90.3475 180.1 90.1282 180.093 90.127 180.07C90.1238 180.015 90.9991 179.958 92.3908 179.735C93.7818 179.514 95.6867 179.081 97.6971 178.323C99.7068 177.565 101.423 176.633 102.622 175.892C103.82 175.151 104.523 174.627 104.557 174.671Z" fill="#263238"/>
<path d="M107.731 181.339C107.634 181.336 107.628 179.917 107.366 178.197C107.114 176.476 106.7 175.117 106.792 175.086C106.871 175.055 107.433 176.391 107.691 178.149C107.958 179.904 107.814 181.346 107.731 181.339Z" fill="#455A64"/>
<path d="M86.5098 141.519C86.4719 141.463 87.4863 140.9 88.8065 139.615C90.123 138.348 91.6935 136.26 92.5227 133.577C93.3506 130.894 93.2305 128.282 92.857 126.494C92.4904 124.689 91.9703 123.652 92.0329 123.627C92.0506 123.619 92.1934 123.869 92.4026 124.346C92.613 124.823 92.8696 125.536 93.0845 126.445C93.5225 128.248 93.6855 130.923 92.8368 133.674C91.9874 136.424 90.3454 138.54 88.9664 139.784C88.2763 140.414 87.6626 140.858 87.2202 141.133C86.779 141.409 86.5193 141.536 86.5098 141.519Z" fill="#263238"/>
<path d="M108.067 180.07C108.058 180.064 108.131 179.927 108.28 179.671C108.431 179.416 108.649 179.038 108.95 178.563C109.547 177.611 110.433 176.248 111.548 174.577C113.758 171.225 116.922 166.66 119.998 161.371C120.388 160.712 120.749 160.049 121.1 159.393C121.465 158.743 121.782 158.083 122.101 157.437C122.436 156.799 122.684 156.137 122.968 155.507C123.116 155.193 123.202 154.863 123.321 154.547C123.422 154.227 123.563 153.919 123.629 153.599C123.98 152.34 124.076 151.074 124.124 149.904C124.166 148.73 124.126 147.634 124.056 146.635C123.91 144.638 123.668 143.03 123.516 141.919C123.443 141.388 123.384 140.963 123.339 140.637C123.301 140.344 123.287 140.189 123.298 140.188C123.309 140.186 123.345 140.337 123.404 140.627C123.465 140.95 123.544 141.373 123.642 141.898C123.832 143.005 124.111 144.61 124.288 146.617C124.373 147.62 124.427 148.725 124.397 149.912C124.36 151.099 124.276 152.369 123.922 153.677C123.855 154.008 123.716 154.318 123.614 154.646C123.495 154.967 123.408 155.306 123.259 155.622C122.977 156.261 122.726 156.932 122.392 157.575C122.072 158.226 121.754 158.893 121.389 159.546C121.037 160.206 120.675 160.873 120.284 161.533C117.196 166.841 114 171.387 111.742 174.706C110.624 176.34 109.713 177.673 109.058 178.631C108.759 179.076 108.52 179.432 108.337 179.705C108.17 179.95 108.077 180.076 108.067 180.07Z" fill="#263238"/>
<path d="M127.705 145.998C127.746 146.015 127.524 146.678 127.113 147.73C126.703 148.782 126.1 150.222 125.384 151.789C124.667 153.357 123.973 154.755 123.447 155.754C122.92 156.753 122.564 157.355 122.525 157.335C122.483 157.314 122.765 156.675 123.237 155.651C123.754 154.531 124.386 153.164 125.084 151.652C125.77 150.135 126.39 148.764 126.898 147.64C127.364 146.612 127.662 145.981 127.705 145.998Z" fill="#263238"/>
<path d="M129.969 150.226C130 150.265 129.488 150.721 128.684 151.481C127.879 152.239 126.793 153.314 125.675 154.574C124.557 155.836 123.621 157.043 122.965 157.933C122.307 158.823 121.915 159.386 121.874 159.359C121.838 159.337 122.161 158.729 122.774 157.8C123.385 156.87 124.301 155.629 125.428 154.356C126.557 153.084 127.679 152.026 128.528 151.308C129.377 150.587 129.943 150.194 129.969 150.226Z" fill="#263238"/>
<path d="M146.096 159.717C146.007 159.735 145.658 158.377 145.315 156.684C144.972 154.991 144.768 153.604 144.857 153.586C144.946 153.568 145.295 154.925 145.638 156.618C145.98 158.312 146.185 159.699 146.096 159.717Z" fill="#263238"/>
<path d="M147.51 159.051C147.417 159.071 147.062 157.664 146.477 155.98C145.899 154.293 145.311 152.966 145.397 152.925C145.473 152.885 146.202 154.162 146.789 155.873C147.381 157.581 147.595 159.036 147.51 159.051Z" fill="#263238"/>
<path d="M56.3752 135.634C56.4397 135.581 57.6266 136.975 58.7041 138.949C59.7899 140.919 60.3284 142.67 60.2487 142.695C60.1571 142.73 59.4878 141.051 58.4153 139.108C57.3529 137.16 56.2968 135.694 56.3752 135.634Z" fill="#263238"/>
<path d="M58.2244 133.664C58.3123 133.64 58.8697 135.383 59.4701 137.556C60.0705 139.73 60.4864 141.512 60.3985 141.536C60.3107 141.56 59.7533 139.817 59.1529 137.643C58.5531 135.471 58.1372 133.688 58.2244 133.664Z" fill="#263238"/>
<path d="M80.1729 175.986C80.171 175.963 80.5167 175.913 81.143 175.841C81.8274 175.764 82.7192 175.664 83.793 175.542C86.0296 175.286 89.1138 174.889 92.5019 174.33C95.8907 173.768 98.9388 173.149 101.139 172.672C102.194 172.441 103.071 172.249 103.744 172.102C104.359 171.968 104.703 171.904 104.708 171.926C104.714 171.948 104.382 172.054 103.775 172.226C103.169 172.401 102.286 172.631 101.191 172.899C99.0008 173.435 95.952 174.092 92.5556 174.655C89.1599 175.216 86.0631 175.577 83.817 175.774C82.6939 175.874 81.7838 175.939 81.1537 175.97C80.5236 176.001 80.1748 176.008 80.1729 175.986Z" fill="#263238"/>
<path d="M89.6741 167.537C89.6924 167.491 90.4142 167.745 91.5846 168.136C92.7551 168.528 94.3793 169.044 96.197 169.53C98.0152 170.015 99.6805 170.378 100.891 170.621C102.1 170.865 102.853 171.005 102.846 171.053C102.841 171.095 102.076 171.037 100.85 170.85C99.6243 170.664 97.9407 170.336 96.1116 169.848C94.2833 169.359 92.6603 168.804 91.5056 168.355C90.3503 167.906 89.6583 167.576 89.6741 167.537Z" fill="#263238"/>
<path d="M79.2236 184.909L73.7928 187.671L63.6221 177.309L69.317 175.682" fill="#455A64"/>
<path d="M69.317 175.681C69.3207 175.695 69.1836 175.749 68.9213 175.837C68.6135 175.936 68.2356 176.056 67.7787 176.202C66.7314 176.517 65.3284 176.938 63.6587 177.44L63.7187 177.212C65.2096 178.72 66.9792 180.51 68.8828 182.435C70.725 184.326 72.4409 186.086 73.8907 187.574L73.7296 187.548C75.338 186.756 76.6905 186.09 77.6985 185.594C78.1454 185.384 78.5157 185.21 78.8153 185.068C79.075 184.951 79.216 184.895 79.2229 184.908C79.2292 184.921 79.1009 185.002 78.8538 185.143C78.5631 185.303 78.2048 185.499 77.7712 185.737C76.7764 186.259 75.4423 186.96 73.8553 187.794L73.7662 187.841L73.6936 187.767C72.233 186.29 70.5045 184.542 68.6483 182.665C66.7593 180.726 65.0029 178.923 63.5234 177.404L63.3604 177.236L63.5835 177.176C65.2658 176.719 66.6803 176.336 67.7351 176.05C68.1996 175.933 68.5851 175.836 68.8979 175.757C69.1684 175.694 69.3132 175.668 69.317 175.681Z" fill="#263238"/>
<path d="M79.223 184.907C79.1604 184.973 77.248 183.263 74.9513 181.088C72.654 178.912 70.8433 177.095 70.9059 177.029C70.9684 176.963 72.8809 178.673 75.1776 180.849C77.4742 183.024 79.2856 184.841 79.223 184.907Z" fill="#263238"/>
<path d="M107.278 171.97L107.446 171.995C106.922 171.739 106.217 172.074 106.052 172.656C105.888 173.237 106.297 173.919 106.868 174.019C107.438 174.119 108.035 173.619 108.073 173.014C108.104 172.515 107.733 172.099 107.278 171.97Z" fill="#263238"/>
<path d="M100.388 183.308C100.349 183.265 101.108 182.568 102.117 181.249C103.138 179.943 104.391 178.015 105.595 175.788C106.786 173.551 107.694 171.439 108.215 169.865C108.752 168.295 108.914 167.276 108.972 167.285C108.995 167.288 108.968 167.545 108.899 168.009C108.823 168.47 108.681 169.135 108.436 169.935C107.967 171.543 107.084 173.69 105.885 175.943C104.672 178.188 103.376 180.112 102.297 181.395C101.766 182.041 101.292 182.528 100.951 182.848C100.602 183.161 100.403 183.325 100.388 183.308Z" fill="#263238"/>
<path d="M98.7603 249.56C98.7534 249.557 98.8014 249.443 98.9019 249.226C99.0137 248.99 99.1642 248.674 99.355 248.272C99.7589 247.441 100.39 246.242 101.247 244.753C102.119 243.273 103.23 241.509 104.625 239.577C105.329 238.615 106.094 237.606 106.942 236.577C107.368 236.064 107.809 235.541 108.276 235.021C108.511 234.762 108.75 234.501 108.992 234.238C109.11 234.105 109.255 233.979 109.315 233.86C109.382 233.735 109.35 233.664 109.25 233.606L109.214 233.585L109.191 233.559C108.424 232.696 107.391 231.937 106.397 231.135C105.381 230.346 104.319 229.548 103.224 228.737C101.034 227.118 98.7097 225.455 96.3113 223.752C93.1696 221.524 90.1266 219.4 87.3255 217.462L87.3546 217.478C85.6634 216.787 84.1927 215.825 82.693 215.132C81.2021 214.408 79.6512 214.069 78.1969 213.672C75.267 212.903 72.9001 211.506 71.2468 210.044C69.5644 208.608 68.411 207.275 67.652 206.345C67.2779 205.874 67.0023 205.502 66.8241 205.245C66.7444 205.126 66.6793 205.03 66.6263 204.951C66.5833 204.884 66.5631 204.848 66.5669 204.846C66.5706 204.843 66.5978 204.874 66.6484 204.935C66.7072 205.01 66.7792 205.101 66.8671 205.214C67.0592 205.46 67.3474 205.82 67.7323 206.279C68.5134 207.184 69.6851 208.491 71.372 209.895C72.2157 210.593 73.1915 211.316 74.3493 211.913C75.5103 212.516 76.8173 213.041 78.2664 213.414C79.7074 213.798 81.2937 214.136 82.8156 214.866C84.345 215.565 85.8132 216.517 87.4728 217.188L87.488 217.194L87.5019 217.203C90.3111 219.133 93.3573 221.253 96.5009 223.484C98.9006 225.187 101.224 226.854 103.414 228.48C104.508 229.294 105.569 230.096 106.586 230.892C107.591 231.713 108.594 232.439 109.425 233.384L109.366 233.336C109.488 233.396 109.58 233.487 109.624 233.626C109.663 233.766 109.622 233.9 109.57 233.995C109.457 234.195 109.315 234.3 109.2 234.434C108.959 234.695 108.721 234.953 108.484 235.208C108.017 235.723 107.575 236.24 107.149 236.749C106.298 237.767 105.528 238.767 104.819 239.719C103.414 241.633 102.286 243.378 101.394 244.842C100.518 246.315 99.8644 247.498 99.4353 248.314C99.228 248.707 99.0643 249.016 98.9423 249.246C98.8305 249.457 98.7679 249.564 98.7603 249.56Z" fill="#455A64"/>
<path d="M118.171 135.568L116.459 135.516L115.551 136.991L116.172 138.563L117.854 138.78L118.807 136.766L118.171 135.568Z" fill="#E42312"/>
<path d="M115.956 137.157L112.968 135.471C112.968 135.471 114.012 133.704 116.532 135.471L115.956 137.157Z" fill="#E42312"/>
<path d="M116.533 135.471C116.522 135.486 116.347 135.386 116.039 135.191C115.72 135.039 115.237 134.735 114.583 134.782C114.263 134.813 113.918 134.911 113.588 135.12C113.261 135.331 112.933 135.602 112.617 135.932C111.972 136.575 111.334 137.409 110.4 138.079L110.206 138.218L110.158 137.98C109.954 136.963 109.632 135.874 109.235 134.765C108.202 131.922 106.958 129.464 106.08 127.682C105.66 126.835 105.307 126.127 105.031 125.571C104.787 125.071 104.662 124.788 104.682 124.778C104.702 124.767 104.866 125.029 105.144 125.511C105.421 125.994 105.816 126.697 106.287 127.575C107.219 129.334 108.501 131.782 109.545 134.655C109.946 135.774 110.267 136.88 110.465 137.919L110.223 137.82C111.107 137.201 111.757 136.387 112.429 135.742C112.759 135.412 113.111 135.133 113.468 134.917C113.83 134.703 114.221 134.603 114.575 134.585C115.303 134.567 115.784 134.918 116.094 135.101C116.391 135.329 116.544 135.457 116.533 135.471Z" fill="#263238"/>
<path d="M120.509 137.079C120.542 137.081 120.565 137.355 120.398 137.77C120.238 138.177 119.843 138.725 119.168 139.021L118.94 139.122L118.945 138.865C118.949 138.68 118.952 138.488 118.938 138.292C118.85 136.682 118.072 135.551 118.16 135.506C118.193 135.481 118.432 135.727 118.694 136.211C118.954 136.692 119.216 137.427 119.266 138.272C119.281 138.48 119.276 138.684 119.267 138.881L119.044 138.724C119.63 138.483 120.015 138.029 120.21 137.679C120.411 137.324 120.463 137.071 120.509 137.079Z" fill="#263238"/>
<path d="M116.533 137.949C116.544 137.951 116.538 138.059 116.516 138.261C116.486 138.502 116.448 138.794 116.403 139.147C116.299 139.915 116.133 141.025 115.91 142.392C115.464 145.128 114.788 148.901 113.814 153.021C112.835 157.141 111.698 160.81 110.728 163.41C110.246 164.711 109.827 165.753 109.509 166.461C109.362 166.785 109.24 167.053 109.141 167.275C109.053 167.459 109.002 167.554 108.991 167.55C108.981 167.545 109.012 167.442 109.079 167.249C109.163 167.023 109.266 166.746 109.39 166.413C109.671 165.692 110.056 164.64 110.509 163.333C111.419 160.72 112.517 157.055 113.493 152.945C114.465 148.836 115.177 145.076 115.68 142.353C115.925 141.029 116.127 139.939 116.277 139.127C116.346 138.778 116.403 138.489 116.451 138.251C116.493 138.052 116.522 137.947 116.533 137.949Z" fill="#263238"/>
<g opacity="0.3">
<path d="M117.021 138.236C115.981 139.157 115.369 140.474 114.38 141.448C112.025 143.769 108.191 143.606 105.008 142.711C101.825 141.815 98.6896 140.335 95.3899 140.544C91.62 140.783 88.3766 143.172 85.3758 145.466C83.835 146.644 82.0326 147.665 80.4918 148.843L78.9756 155.057C81.5314 155.674 84.3609 153.912 86.1848 152.018C88.0088 150.124 89.5281 147.844 91.814 146.546C94.0431 145.281 96.736 145.116 99.2881 145.358C101.839 145.6 104.347 146.215 106.904 146.397C109.46 146.578 112.161 146.28 114.294 144.858C116.427 143.437 117.804 140.676 117.021 138.236Z" fill="black"/>
</g>
<path d="M115.551 136.99C115.836 138.095 114.807 138.67 113.829 139.258C112.85 139.846 111.328 139.758 110.19 139.678C104.709 139.295 100.246 134.985 94.77 134.547C90.9603 134.243 86.9186 136.061 83.6657 138.068C80.4135 140.075 77.6169 142.739 74.472 144.91C66.9538 150.101 65.2638 149.301 57.7695 150.757L55.3604 156.366L61.6924 157.935C61.6924 157.935 76.7902 153.988 81.5681 149.111C86.4364 144.142 89.1831 139.745 92.7014 138.864C100.221 136.982 108.321 143.362 112.814 142.445C117.104 141.569 118.248 137.949 118.248 137.949L115.551 136.99Z" fill="#E42312"/>
<g opacity="0.3">
<path d="M65.4067 179.127L62.5703 180.071L71.4221 189.262L78.328 185.364L73.9166 187.308L65.4067 179.127Z" fill="black"/>
</g>
<g opacity="0.3">
<path d="M102.771 174.084C96.3862 177.33 89.055 178.031 81.9229 178.677C87.9919 180.071 96.6099 178.88 102.771 174.084Z" fill="black"/>
</g>
<path d="M120.972 118.205C120.675 118.007 120.373 117.807 120.033 117.697C119.694 117.587 119.306 117.577 118.994 117.751C118.565 117.989 118.16 118.621 118.16 119.243C118.863 120.221 119.504 120.256 120.581 120.217C120.724 119.659 121.076 118.88 121.073 118.304" fill="#E42312"/>
<path d="M120.652 120.32C120.662 120.354 120.271 120.495 119.633 120.366C119.319 120.299 118.952 120.158 118.603 119.904C118.434 119.776 118.25 119.633 118.114 119.405C117.968 119.18 117.965 118.845 118.071 118.605C118.274 118.128 118.617 117.757 119.038 117.571C119.464 117.387 119.896 117.454 120.195 117.576C120.805 117.84 121.009 118.216 120.981 118.231C120.944 118.275 120.676 117.972 120.118 117.796C119.844 117.715 119.49 117.689 119.163 117.847C118.84 118 118.541 118.338 118.378 118.724C118.198 119.108 118.473 119.421 118.786 119.662C119.088 119.902 119.41 120.051 119.691 120.141C120.26 120.317 120.648 120.266 120.652 120.32Z" fill="#263238"/>
<path d="M120.945 162.961C120.947 162.955 121.028 162.965 121.186 162.991C121.36 163.02 121.591 163.06 121.886 163.11C122.519 163.225 123.421 163.388 124.573 163.595C126.925 164.017 130.296 164.621 134.455 165.367C136.543 165.718 138.832 166.13 141.299 166.417C142.531 166.539 143.824 166.687 145.11 166.485C146.402 166.29 147.567 165.541 148.759 164.82C149.959 164.104 151.09 163.237 152.246 162.334C153.4 161.432 154.554 160.478 155.728 159.508C158.07 157.557 160.467 155.503 162.904 153.38C163.452 152.901 163.996 152.424 164.536 151.952L164.532 152.195C161.68 149.523 158.922 146.939 156.309 144.491L156.506 144.506C152.126 147.514 148.096 150.282 144.567 152.706L144.496 152.754L144.423 152.709C139.536 149.673 135.52 147.177 132.709 145.431C131.328 144.562 130.243 143.881 129.487 143.406C129.132 143.177 128.854 142.998 128.649 142.867C128.461 142.744 128.37 142.672 128.37 142.672C128.37 142.672 128.476 142.721 128.67 142.834C128.879 142.956 129.164 143.124 129.529 143.339C130.293 143.8 131.39 144.461 132.787 145.304C135.613 147.027 139.649 149.489 144.561 152.485L144.417 152.489C147.937 150.052 151.958 147.27 156.327 144.247L156.431 144.175L156.524 144.261C159.14 146.706 161.9 149.286 164.756 151.955L164.888 152.079L164.752 152.198C164.211 152.671 163.667 153.149 163.119 153.628C160.68 155.752 158.28 157.806 155.933 159.755C154.755 160.726 153.598 161.679 152.439 162.581C151.281 163.48 150.126 164.36 148.915 165.079C147.725 165.793 146.522 166.567 145.155 166.77C143.807 166.975 142.505 166.815 141.267 166.688C138.784 166.387 136.501 165.962 134.412 165.596C130.24 164.843 126.872 164.184 124.546 163.722C123.399 163.487 122.501 163.304 121.871 163.176C121.579 163.112 121.349 163.062 121.177 163.024C121.024 162.988 120.944 162.967 120.945 162.961Z" fill="#263238"/>
</svg>
