<svg width="249" height="249" viewBox="0 0 249 249" fill="none" xmlns="http://www.w3.org/2000/svg">
<path d="M170.393 54.6754C175.124 52.0435 182.497 57.4144 185.756 60.4298C189.566 63.9357 192.639 68.3978 195.002 72.9918C205.731 93.8481 211.371 118.661 202.554 141.26C199.585 148.911 194.952 155.806 188.991 161.447C185.639 164.601 178.742 167.577 177.736 172.403C177.52 173.601 177.606 174.834 177.985 175.991C179.317 180.413 183.339 183.478 186.411 186.698C201.164 202.188 190.497 226.202 174.723 236.55" stroke="#CCDDE2" stroke-miterlimit="10"/>
<path d="M54.6978 135.999C59.3043 131.106 65.1906 127.8 71.1093 124.757C77.5186 121.463 83.8258 118.146 89.6524 113.868C93.1996 111.269 96.5556 108.419 99.6945 105.34" stroke="#CCDDE2" stroke-miterlimit="10"/>
<path d="M47.2204 197.973C41.3341 182.766 39.8401 165.336 45.9804 150.147" stroke="#CCDDE2" stroke-miterlimit="10"/>
<path d="M124.353 40.7767V24.4771C124.353 23.3545 123.907 22.2778 123.114 21.484C122.32 20.6901 121.243 20.2441 120.12 20.2441H66.1446C65.0219 20.2441 63.9452 20.6901 63.1514 21.484C62.3576 22.2778 61.9116 23.3545 61.9116 24.4771V101.124C61.9164 102.244 62.3643 103.316 63.1576 104.106C63.9509 104.896 65.0251 105.34 66.1446 105.34H120.128C120.652 105.344 121.172 105.244 121.657 105.046" stroke="black" stroke-linecap="round" stroke-linejoin="round"/>
<path d="M118.407 22.833H67.8676C65.6301 22.833 63.8164 24.6468 63.8164 26.8842V98.7132C63.8164 100.951 65.6301 102.764 67.8676 102.764H118.407C120.645 102.764 122.458 100.951 122.458 98.7132V26.8842C122.458 24.6468 120.645 22.833 118.407 22.833Z" fill="#BEE3DE"/>
<path d="M117.62 29.0186H69.2944C68.1749 29.0186 67.2676 29.9259 67.2676 31.0454V41.9566C67.2676 43.0761 68.1749 43.9835 69.2944 43.9835H117.62C118.74 43.9835 119.647 43.0761 119.647 41.9566V31.0454C119.647 29.9259 118.74 29.0186 117.62 29.0186Z" fill="#BEE3DE"/>
<path d="M93.1362 35.3241C93.9915 35.3241 94.685 34.6307 94.685 33.7753C94.685 32.92 93.9915 32.2266 93.1362 32.2266C92.2809 32.2266 91.5874 32.92 91.5874 33.7753C91.5874 34.6307 92.2809 35.3241 93.1362 35.3241Z" fill="#D7E8F0"/>
<path d="M88.811 40.7763C88.811 39.6292 89.2667 38.5291 90.0777 37.7178C90.8889 36.9068 91.989 36.4512 93.1362 36.4512C94.2833 36.4512 95.3834 36.9068 96.1944 37.7178C97.0056 38.5291 97.4613 39.6292 97.4613 40.7763H88.811Z" fill="#D7E8F0"/>
<path d="M93.4524 60.0215C91.8023 60.0205 90.1887 60.509 88.8163 61.4251C87.4438 62.3414 86.3738 63.6439 85.7418 65.1686C85.1099 66.6929 84.9443 68.3705 85.266 69.989C85.5877 71.6077 86.3823 73.0945 87.5491 74.2613C88.7159 75.4281 90.2027 76.2227 91.8212 76.5444C93.4399 76.8661 95.1174 76.7005 96.6418 76.0685C98.1662 75.4366 99.469 74.3666 100.385 72.9941C101.301 71.6216 101.79 70.0081 101.789 68.358C101.788 66.1471 100.91 64.0272 99.3465 62.4639C97.7832 60.9007 95.6632 60.022 93.4524 60.0215ZM93.4524 74.6826C93.1294 74.6826 92.8197 74.5544 92.5913 74.326C92.363 74.0975 92.2348 73.7879 92.2348 73.465C92.2348 73.142 92.363 72.8323 92.5913 72.604C92.8197 72.3756 93.1294 72.2474 93.4524 72.2474C93.7753 72.2474 94.0851 72.3756 94.3134 72.604C94.5418 72.8323 94.67 73.142 94.67 73.465C94.67 73.7879 94.5418 74.0975 94.3134 74.326C94.0851 74.5544 93.7753 74.6826 93.4524 74.6826ZM94.9962 65.3078C94.7347 67.1155 94.5131 69.0203 93.9828 70.7858C93.8533 71.2041 93.059 71.2041 92.9295 70.7858C92.5485 69.4636 92.2557 68.1177 92.053 66.7569C91.8912 65.7609 91.306 64.1673 91.8663 63.2012C92.3493 62.3447 93.7213 62.2376 94.5131 62.6858C95.4942 63.246 95.1182 64.4089 94.9962 65.3078Z" fill="#D7E8F0"/>
<path d="M93.4525 74.6823C94.125 74.6823 94.6701 74.1372 94.6701 73.4647C94.6701 72.7924 94.125 72.2471 93.4525 72.2471C92.7799 72.2471 92.2349 72.7924 92.2349 73.4647C92.2349 74.1372 92.7799 74.6823 93.4525 74.6823Z" fill="white"/>
<path d="M94.9959 65.3075C94.7344 67.1152 94.5128 69.0201 93.9825 70.7855C93.853 71.2038 93.0587 71.2038 92.9292 70.7855C92.5482 69.4636 92.2554 68.1177 92.0527 66.7567C91.8909 65.7607 91.3057 64.1671 91.866 63.201C92.349 62.3444 93.721 62.2373 94.5128 62.6855C95.4939 63.2458 95.1179 64.4086 94.9959 65.3075Z" fill="white"/>
<path d="M72.5063 50.667H113.233" stroke="white" stroke-miterlimit="10"/>
<path d="M72.5063 54.6729H113.233" stroke="white" stroke-miterlimit="10"/>
<path d="M72.5063 80.4893H113.233" stroke="white" stroke-miterlimit="10"/>
<path d="M123.148 90.8213C123.302 90.9408 123.571 40.598 123.571 40.598L108.25 34.6768C108.25 34.6768 96.8609 62.5921 97.5506 62.8735L100.626 64.1185C100.626 64.1185 101.385 63.5184 103.146 67.8535C104.906 72.1886 117.595 86.5509 123.148 90.8213Z" fill="white"/>
<path d="M81.9658 84.2812H103.773" stroke="white" stroke-miterlimit="10"/>
<path d="M184.454 113.472C184.255 115.643 181.576 140.548 184.173 145.411C185.114 147.171 175.771 145.486 175.209 145.356C166.743 143.364 158.815 139.691 151.394 135.224C143.974 130.757 137.418 124.878 129.682 120.917C128.252 120.185 125.088 118.581 126.024 116.482C127.617 112.907 129.575 107.971 129.729 103.606L129.682 97.8794C129.682 97.8794 128.551 94.2838 132.239 97.4336C135.927 100.583 152.801 108.888 163.725 99.2663C174.648 89.6449 175.296 82.0355 175.296 82.0355C175.296 82.0355 168.301 64.9192 148.389 75.3897L155.423 57.2127C155.423 57.2127 154.46 55.9901 157.507 56.2167C160.555 56.4433 166.207 54.9368 166.907 49.3517C166.907 49.3517 166.962 47.5291 170.186 50.9752C173.411 54.4214 188.65 67.8798 184.454 113.472Z" fill="#2E2E2E"/>
<path d="M145.307 48.9955C147.015 47.7425 148.929 46.7963 150.961 46.1992" stroke="black" stroke-miterlimit="10"/>
<path d="M137.737 133.979L124.042 183.491L111.592 228.515L103.664 229.262C101.846 229.429 100.156 230.27 98.9256 231.618C97.695 232.966 97.012 234.725 97.0103 236.55H121.529L139.288 205.943L152.497 183.172L173.149 147.565C173.747 146.527 174.327 145.488 174.892 144.428C174.902 144.415 174.907 144.401 174.907 144.385" stroke="black" stroke-miterlimit="10"/>
<path d="M183.946 117.28C184.133 116.07 184.297 114.86 184.444 113.642C184.444 113.585 184.444 113.535 184.459 113.478C185.297 106.104 185.476 98.6698 184.992 91.2643C184.995 91.2429 184.995 91.221 184.992 91.1996C184.444 83.1395 182.965 74.6735 180.012 66.4191C179.155 64.0384 178.094 61.7357 176.842 59.5368C176.75 59.355 176.646 59.1757 176.531 58.9964C176.138 58.3092 175.714 57.6394 175.286 56.977C174.706 56.103 174.091 55.254 173.446 54.4447C172.484 53.2159 171.418 52.0727 170.259 51.0284C170.251 51.0257 170.244 51.0215 170.239 51.016C170.233 51.0102 170.229 51.0035 170.226 50.9961C169.365 50.2334 168.45 49.5344 167.487 48.9045C167.308 48.7824 167.129 48.6679 166.947 48.5534C166.919 48.5317 166.889 48.5125 166.857 48.4961" stroke="black" stroke-miterlimit="10"/>
<path d="M152.497 183.172L171.755 236.55H143.967C143.967 234.816 144.596 233.141 145.738 231.836C146.881 230.531 148.458 229.685 150.177 229.456L156.225 228.647C156.225 228.647 148.093 217.94 139.293 205.94" stroke="black" stroke-miterlimit="10"/>
<path d="M155.914 55.95L147.567 77.5034C147.316 78.154 146.937 78.7482 146.453 79.2509C145.969 79.7539 145.39 80.1552 144.749 80.4321C144.109 80.7093 143.42 80.8559 142.722 80.8639C142.024 80.8719 141.332 80.7411 140.685 80.479L120.915 72.4761C120.905 72.4492 120.896 72.4218 120.89 72.3939C120.641 71.3979 118.086 61.8513 114.988 61.8513C112.61 61.8513 113.743 66.5599 114.739 69.2241C114.854 69.5105 114.961 69.7794 115.058 70.0085L114.904 69.9438L99.4233 63.6341L109.187 37.8975L128.248 45.2604L155.914 55.95Z" fill="#D7E8F0"/>
<path d="M115.053 70.0099C114.015 67.6319 112.361 61.8526 114.991 61.8526C118.088 61.8526 120.641 71.4068 120.892 72.3953L120.917 72.4774L140.685 80.4828C141.333 80.7445 142.026 80.8747 142.725 80.866C143.423 80.857 144.113 80.7094 144.754 80.4313C145.395 80.1531 145.974 79.7502 146.457 79.246C146.941 78.742 147.319 78.1467 147.57 77.4948L156.87 53.4663L127.309 42.0397L108.25 34.6768L97.5435 62.8735L115.053 70.0099Z" stroke="black" stroke-miterlimit="10"/>
<path d="M176.329 69.4035C176.922 79.737 174.614 92.9564 161.439 100.738C141.95 112.261 116.156 86.1537 106.607 73.4846C105.029 71.404 103.696 69.148 102.635 66.7616C102.314 66.0672 102.044 65.3498 101.829 64.6152" stroke="black" stroke-miterlimit="10"/>
<path d="M129.51 95.6484C129.51 95.6484 131.004 106.532 126.398 115.785L126.418 115.76C126.418 115.76 126.418 115.778 126.403 115.785C119.331 129.049 109.207 150.209 114.854 165.585C116.774 170.814 120.083 177.039 124.04 183.493" stroke="black" stroke-miterlimit="10"/>
<path d="M163.8 32.5773L163.815 32.647C163.935 34.1049 163.47 35.5506 162.525 36.6661C161.578 37.7817 160.228 38.4759 158.77 38.5956C157.837 38.6766 156.899 38.5127 156.049 38.1201C155.805 38.0167 155.571 37.8927 155.349 37.749C155.258 37.6858 155.184 37.6014 155.132 37.5033C155.081 37.4049 155.054 37.2959 155.054 37.1851C155.054 37.0743 155.081 36.9652 155.132 36.8671C155.184 36.7687 155.258 36.6843 155.349 36.6211C156.42 35.8492 157.398 34.7735 157.677 33.5136C157.761 33.1261 157.768 32.726 157.697 32.3358C157.621 31.8385 157.416 31.3702 157.102 30.977C156.788 30.5838 156.377 30.2795 155.909 30.0948C155.763 30.0515 155.611 30.0271 155.458 30.0226C155.028 29.9877 154.462 30.0425 154.35 30.3612C154.9 28.8162 154.923 27.1324 154.415 25.5729C154.099 24.6081 153.567 23.7283 152.859 23.0008C152.891 23.2827 152.861 23.5681 152.77 23.8369C152.679 24.1057 152.53 24.3512 152.334 24.5559C152.138 24.7607 151.899 24.9196 151.634 25.0214C151.369 25.123 151.085 25.1651 150.802 25.1447C148.608 25.07 148.195 22.9784 148.195 22.9784C148.195 22.9784 148.195 23.0033 148.195 23.0183C147.239 25.4011 144.46 25.4659 142.468 24.4077C141.762 24.0452 141.141 23.5358 140.648 22.9137C140.083 20.471 142.097 18.1105 144.42 17.7718C144.47 16.2181 145.603 14.5547 147.132 14.4277C147.664 14.3822 148.2 14.4804 148.681 14.7121C149.163 14.9438 149.574 15.3005 149.871 15.7449C149.913 15.8122 149.96 15.8844 149.998 15.9591C150.623 15.0527 151.646 14.0592 152.737 13.9671C153.493 13.914 154.248 14.0948 154.898 14.485C155.549 14.8751 156.063 15.4558 156.372 16.1483C156.372 16.0413 157.331 15.603 157.428 15.5632C158.323 15.2228 159.306 15.19 160.223 15.4699C161.139 15.7499 161.936 16.3267 162.488 17.1095C162.543 17.3259 162.58 17.5466 162.597 17.7693C162.652 18.4353 162.55 19.1048 162.298 19.724C162.652 19.8249 162.983 19.9941 163.272 20.222C163.898 20.6799 164.317 21.3662 164.44 22.1318C164.452 22.209 164.46 22.2862 164.465 22.3634C164.515 22.9468 164.39 23.5319 164.106 24.0441C164.842 24.2545 165.511 24.6534 166.046 25.2014C166.581 25.7495 166.964 26.4278 167.156 27.169C167.217 27.4143 167.258 27.6643 167.278 27.916C167.363 28.983 167.057 30.0442 166.417 30.902C165.777 31.7596 164.847 32.3552 163.8 32.5773Z" fill="#BEE3DE"/>
<path d="M163.8 32.5768L163.814 32.6465C163.934 34.1044 163.47 35.5501 162.524 36.6656C161.578 37.7812 160.228 38.4754 158.77 38.5951C157.837 38.6761 156.899 38.5122 156.048 38.1196C157.119 37.3477 158.097 36.2695 158.374 35.0095C158.472 34.5412 158.461 34.0564 158.342 33.5927C158.224 33.1291 158 32.6991 157.689 32.3353C157.613 31.8383 157.408 31.3697 157.094 30.9765C156.78 30.5833 156.369 30.279 155.901 30.0943C155.755 30.051 155.603 30.0266 155.451 30.0221C155.598 28.4648 155.232 26.9019 154.407 25.5724C154.092 24.6077 153.559 23.7278 152.851 23.0003C152.883 23.2822 152.853 23.5677 152.762 23.8365C152.671 24.1053 152.523 24.3508 152.326 24.5555C152.13 24.7602 151.891 24.9191 151.626 25.0209C151.361 25.1225 151.077 25.1648 150.794 25.1442C148.601 25.0695 148.187 22.9779 148.187 22.9779C148.187 22.9779 148.187 23.0028 148.187 23.0178C147.231 25.4006 144.452 25.4654 142.46 24.4072C141.754 24.0447 141.133 23.5353 140.64 22.9132C140.075 20.4705 142.089 18.11 144.412 17.7713C144.462 16.2176 145.595 14.5543 147.124 14.4273C147.657 14.3818 148.192 14.4799 148.674 14.7116C149.155 14.9433 149.566 15.3 149.863 15.7445C149.905 15.8117 149.953 15.8839 149.99 15.9586C150.615 15.0523 151.638 14.0588 152.729 13.9666C153.487 13.9119 154.243 14.092 154.895 14.4823C155.546 14.8725 156.062 15.4541 156.372 16.1479C156.372 16.0408 157.331 15.6026 157.428 15.5627C158.323 15.2223 159.306 15.1895 160.222 15.4695C161.138 15.7494 161.935 16.3262 162.487 17.109C162.543 17.3254 162.579 17.5462 162.597 17.7689C162.652 18.4348 162.549 19.1043 162.298 19.7235C162.652 19.8244 162.983 19.9936 163.272 20.2215C163.226 20.5636 163.136 20.8983 163.005 21.2175C163.558 21.3792 164.054 21.6913 164.439 22.1189C164.452 22.1961 164.459 22.2733 164.464 22.3505C164.514 22.9339 164.389 23.5189 164.106 24.0312C164.476 24.1369 164.831 24.291 165.162 24.4894C165.108 24.8534 164.99 25.2049 164.813 25.5276C165.754 25.7926 166.58 26.366 167.156 27.1561C167.217 27.4013 167.258 27.6513 167.278 27.9031C167.366 28.972 167.062 30.0365 166.421 30.8968C165.781 31.7571 164.849 32.3545 163.8 32.5768Z" fill="#BEE3DE"/>
<path d="M144.45 27.5869C144.45 27.5869 147.607 27.6317 148.332 30.296" stroke="black" stroke-miterlimit="10"/>
<path d="M143.636 35.5702C142.918 35.7475 142.172 35.7838 141.44 35.6773C141.302 35.6536 141.172 35.5971 141.061 35.5124C140.95 35.4275 140.862 35.3172 140.803 35.1907C140.744 35.0642 140.716 34.9253 140.723 34.7859C140.729 34.6464 140.769 34.5105 140.84 34.3899C141.497 33.2769 142.174 32.1763 142.911 31.1181C143.027 30.9834 143.098 30.8165 143.115 30.64C143.115 30.64 142.812 27.3457 143.477 24.8184" stroke="black" stroke-miterlimit="10"/>
<path d="M146.12 30.3908C146.187 29.86 145.875 29.3836 145.423 29.3269C144.972 29.2701 144.551 29.6543 144.485 30.1849C144.418 30.7158 144.73 31.1921 145.182 31.2489C145.633 31.3057 146.053 30.9214 146.12 30.3908Z" fill="black"/>
<path d="M161.038 37.8955C161.105 38.5554 164.066 43.1245 166.743 48.1693C166.741 48.1775 166.741 48.1859 166.743 48.1941C166.792 48.3012 166.842 48.4158 166.9 48.5303" stroke="black" stroke-linecap="round" stroke-linejoin="round"/>
<path d="M150.359 42.7266L151.29 49.3549" stroke="black" stroke-miterlimit="10"/>
<path d="M142.495 35.7363C142.495 35.7363 143.845 42.3 147.164 43.2935C150.483 44.287 153.364 40.1461 153.364 40.1461" stroke="black" stroke-linecap="round" stroke-linejoin="round"/>
<path d="M143.402 38.6973C143.843 38.955 144.341 39.0987 144.852 39.1151C145.362 39.1315 145.868 39.0205 146.325 38.7919" stroke="black" stroke-linecap="round" stroke-linejoin="round"/>
<path d="M149.634 15.6595C149.594 15.1504 149.423 14.6603 149.136 14.2377C148.771 13.6778 148.229 13.2563 147.597 13.0407C146.964 12.825 146.278 12.8277 145.647 13.0482C145.016 13.2687 144.477 13.6944 144.116 14.2571C143.756 14.8199 143.595 15.4872 143.658 16.1525" stroke="black" stroke-miterlimit="10" stroke-linecap="round"/>
<path d="M148.35 20.1916C148.287 19.4723 148.05 18.7791 147.66 18.1718C147.269 17.5645 146.737 17.0613 146.109 16.7056C142.944 14.9352 138.888 18.3739 140.02 21.7802C140.419 22.9655 141.368 23.827 142.448 24.3997C144.44 25.458 147.229 25.3957 148.175 23.0103L148.19 22.9729C148.19 22.9729 148.603 25.0621 150.797 25.1393C151.081 25.1592 151.365 25.1166 151.63 25.0148C151.895 24.9127 152.134 24.7536 152.331 24.5488C152.527 24.344 152.677 24.0985 152.768 23.8296C152.859 23.5607 152.89 23.2751 152.859 22.9929C154.746 24.9351 155.239 27.8384 154.353 30.3558C154.515 29.9026 155.598 29.9848 155.912 30.0894C157.261 30.56 157.981 32.1561 157.682 33.5106C157.401 34.7781 156.422 35.8488 155.356 36.6256C155.265 36.6886 155.191 36.7728 155.14 36.8706C155.089 36.9688 155.062 37.0778 155.062 37.1884C155.062 37.2989 155.089 37.408 155.14 37.5058C155.191 37.604 155.265 37.6881 155.356 37.7511C156.371 38.4032 157.573 38.701 158.775 38.5977C160.233 38.4777 161.583 37.784 162.529 36.669C163.475 35.5539 163.939 34.109 163.82 32.6516L163.805 32.5819C164.767 32.3804 165.634 31.8628 166.267 31.1113C166.901 30.3598 167.264 29.4178 167.3 28.4358C167.336 27.4537 167.042 26.4876 166.465 25.692C165.888 24.8966 165.061 24.3171 164.116 24.0461C164.4 23.5339 164.525 22.9488 164.475 22.3654C164.406 21.5739 164.028 20.8416 163.421 20.3285C162.814 19.8153 162.03 19.5629 161.238 19.6264" stroke="black" stroke-linecap="round" stroke-linejoin="round"/>
<path d="M149.507 14.1183C150.105 13.1223 150.765 12.5645 151.997 12.4624C152.762 12.3999 153.527 12.5781 154.186 12.9718C154.844 13.3656 155.363 13.9553 155.67 14.6586C155.628 14.5615 156.629 14.1058 156.731 14.066C157.13 13.9134 157.55 13.8211 157.976 13.7921C159.113 13.7309 160.23 14.1111 161.093 14.8534C161.956 15.5958 162.5 16.6428 162.61 17.7761C162.664 18.442 162.562 19.1115 162.311 19.7307" stroke="black" stroke-linecap="square" stroke-linejoin="round"/>
<path d="M166.743 48.1719C166.743 48.1719 169.069 55.9058 155.772 56.3241" stroke="black" stroke-miterlimit="10"/>
<path d="M97.608 125.657C97.5856 120.003 103.143 118.481 105.805 118.531C122.301 118.845 124.789 92.167 124.789 92.167" stroke="black" stroke-linecap="round" stroke-linejoin="round"/>
<path d="M183.946 117.279C183.946 117.279 181.999 136.487 183.946 142.951C185.893 149.415 174.696 144.343 174.696 144.343" stroke="black" stroke-miterlimit="10"/>
<path d="M72.3869 131.756H59.4414" stroke="black" stroke-linecap="round" stroke-linejoin="round"/>
<path d="M118.771 131.756H94" stroke="black" stroke-linecap="round" stroke-linejoin="round"/>
<path d="M90.447 131.756H75.8232" stroke="black" stroke-linecap="round" stroke-linejoin="round"/>
<path d="M90.0708 125.657H75.6113" stroke="black" stroke-linecap="round" stroke-linejoin="round"/>
<path d="M101.592 125.657H93.7861" stroke="black" stroke-linecap="round" stroke-linejoin="round"/>
<path d="M121.435 125.657H106.358" stroke="black" stroke-linecap="round" stroke-linejoin="round"/>
<path d="M71.9986 125.657H69.4414" stroke="black" stroke-linecap="round" stroke-linejoin="round"/>
<path d="M89.5928 125.11H92.9368C92.9368 125.11 96.769 128.728 92.9368 132.869V135.763H89.5928" stroke="black" stroke-linecap="round" stroke-linejoin="round"/>
<path d="M74.8667 125.11C74.8667 125.11 78.6988 128.728 74.8667 132.869V135.763" stroke="black" stroke-linecap="round" stroke-linejoin="round"/>
<path d="M74.867 135.763H71.5229V132.869C75.3575 128.728 71.5229 125.11 71.5229 125.11H74.867" stroke="black" stroke-linecap="round" stroke-linejoin="round"/>
<path d="M89.5928 125.11C89.5928 125.11 93.4274 128.728 89.5928 132.869V135.763" stroke="black" stroke-linecap="round" stroke-linejoin="round"/>
<path d="M71.5229 132.869H74.867" stroke="black" stroke-linecap="round" stroke-linejoin="round"/>
<path d="M89.5928 132.869H92.9368" stroke="black" stroke-linecap="round" stroke-linejoin="round"/>
<path d="M102.483 123.811C102.057 124.355 101.752 124.985 101.592 125.658C101.381 126.652 101.301 127.669 101.355 128.683C101.37 129.679 101.495 130.7 102.441 131.223C103.863 132.018 105.571 130.882 105.646 129.254C105.727 128.03 105.967 126.821 106.358 125.658C106.373 125.601 106.39 125.551 106.405 125.504" stroke="black" stroke-linecap="round" stroke-linejoin="round"/>
<path d="M106.405 125.497C107.591 125.248 109.356 124.598 110.255 122.922" stroke="black" stroke-linecap="round" stroke-linejoin="round"/>
<path d="M98.3179 131.756C98.3179 131.756 99.2491 134.211 101.592 134.51C103.935 134.809 102.454 131.756 102.454 131.756C102.454 131.756 103.425 133.907 104.6 133.979C105.775 134.052 106.791 132.983 106.385 131.756C106.385 131.756 106.744 133.73 108.482 133.514C110.22 133.297 109.503 131.756 109.503 131.756" stroke="black" stroke-linecap="round" stroke-linejoin="round"/>
<g opacity="0.54">
<path opacity="0.54" d="M71.5898 166.728L69.9091 191C68.9977 192.648 67.9718 194.108 67.058 195.009C66.936 194.964 66.809 194.919 66.692 194.865C66.4679 194.787 66.2463 194.698 66.0346 194.616C62.6283 193.122 60.0586 190.34 59.2867 187.2C58.6094 184.439 59.222 181.456 57.9073 178.861C56.3037 175.667 51.9313 173.662 51.4059 170.054C50.9079 166.68 53.9432 163.58 53.4527 160.278C52.8849 156.543 48.2984 154.322 47.4418 150.67C46.9064 148.399 47.3845 145.794 47.1928 143.449C46.9662 140.835 46.5237 138.245 45.8706 135.705C52.6409 135.207 59.5332 138.942 61.7269 144.288C63.5197 148.663 62.4391 153.775 65.2453 157.761C66.7692 159.92 69.309 161.533 70.6212 163.794C71.0258 164.499 71.3189 165.261 71.4902 166.055C71.5027 166.11 71.5027 166.167 71.5126 166.21C71.5251 166.299 71.535 166.366 71.545 166.434C71.5674 166.628 71.5898 166.728 71.5898 166.728Z" fill="#BEE3DE"/>
<path opacity="0.54" d="M71.6022 166.719H71.5897C71.5897 166.719 71.5673 166.619 71.5449 166.43C71.5661 166.506 71.581 166.585 71.5897 166.664C71.6022 166.684 71.6022 166.706 71.6022 166.719Z" fill="#BEE3DE"/>
</g>
<path d="M93.9704 157.254C93.0789 160.404 88.2931 162.319 87.713 165.549C87.2 168.41 90.3623 171.081 89.8394 173.987C89.2842 177.107 84.7399 178.833 83.0716 181.594C81.7121 183.835 82.347 186.402 81.6449 188.785C80.8331 191.492 78.1588 193.907 74.5857 195.187C74.3641 195.267 74.1524 195.344 73.9283 195.411C73.8063 195.443 73.6793 195.488 73.5499 195.521C72.3696 194.552 71.0225 192.849 69.9194 191.011L71.6002 166.739H71.6126C72.9149 165.636 74.4064 164.622 75.4423 163.397C76.5677 162.073 77.0906 160.626 77.4343 159.112H77.4392V158.945C77.9372 156.55 77.9746 154.045 79.1001 151.774C81.3809 147.152 88.5397 143.935 95.5889 144.359C94.9243 146.541 94.4691 148.781 94.2293 151.049C94.0251 153.056 94.5281 155.305 93.9704 157.254Z" fill="#BEE3DE"/>
<path d="M77.439 158.925V159.091H77.4067C77.4241 159.034 77.439 158.979 77.439 158.925Z" fill="#BEE3DE"/>
<path d="M77.439 158.924C77.439 158.979 77.4166 159.033 77.4066 159.091C77.073 160.605 76.5501 162.051 75.4146 163.376C74.3788 164.601 72.8873 165.617 71.585 166.718C71.585 166.718 71.585 166.683 71.5725 166.673C71.5638 166.594 71.5489 166.515 71.5277 166.439C71.5277 166.371 71.5078 166.304 71.4954 166.215C71.4954 166.172 71.4954 166.115 71.473 166.06C71.3016 165.266 71.0086 164.504 70.6039 163.799C69.2917 161.538 66.7519 159.925 65.228 157.766C65.228 157.766 65.9178 146.387 71.7394 142.923C77.2697 139.649 77.439 157.029 77.439 158.924Z" fill="#BEE3DE"/>
<path d="M77.439 158.925V159.091H77.4067C77.4241 159.034 77.439 158.979 77.439 158.925Z" fill="#BEE3DE"/>
<path d="M71.5902 166.674V166.728C71.5902 166.728 71.5678 166.629 71.5454 166.439C71.5666 166.516 71.5815 166.594 71.5902 166.674Z" fill="#BEE3DE"/>
<path d="M71.0723 166.731C72.3696 165.626 73.8735 164.6 74.9144 163.377C77.8326 159.931 76.7097 155.529 78.5821 151.751C80.8605 147.135 88.0441 143.918 95.0759 144.341C94.4051 146.522 93.9482 148.763 93.7114 151.032C93.5022 153.051 94.0027 155.302 93.4624 157.257C92.566 160.404 87.7827 162.314 87.2 165.546C86.6846 168.404 89.8544 171.076 89.329 173.982C88.7712 177.102 84.232 178.825 82.5587 181.586C81.1966 183.827 81.8366 186.395 81.1294 188.783C80.2729 191.661 77.3023 194.206 73.4104 195.403C73.2859 195.446 73.1614 195.488 73.027 195.521C71.8467 194.552 70.4996 192.851 69.394 191.011" stroke="black" stroke-miterlimit="10"/>
<path d="M90.7729 147.961C80.2676 159.268 75.3349 183.11 73.4052 195.408C73.2483 196.446 73.1064 197.4 72.9844 198.251" stroke="black" stroke-miterlimit="10"/>
<path d="M91.7417 205.176L86.9012 233.696C86.7869 234.478 86.3989 235.194 85.8061 235.717C85.2132 236.239 84.4543 236.535 83.6642 236.55H58.4255C57.629 236.532 56.8648 236.231 56.2712 235.699C55.6776 235.168 55.2936 234.441 55.1885 233.651L50.7314 205.176H91.7417Z" stroke="black" stroke-miterlimit="10"/>
<path d="M96.3333 201.999C96.1964 203.797 94.7721 205.182 93.064 205.182H49.489C47.7982 205.182 46.3864 203.827 46.2246 202.049C46.0378 200.017 47.5542 198.257 49.489 198.257H93.064C94.9813 198.257 96.4902 199.982 96.3333 201.999Z" stroke="black" stroke-miterlimit="10"/>
<path d="M66.5404 195.014C68.4104 193.156 70.6987 189.023 71.7147 185.644C72.5488 182.858 71.0772 179.992 70.7411 177.136C70.2132 172.654 72.4368 167.851 70.0937 163.797C68.7889 161.536 66.2491 159.927 64.7252 157.761C61.9165 153.777 62.9947 148.673 61.1994 144.298C59.0132 138.942 52.1208 135.219 45.353 135.705C45.9999 138.248 46.4379 140.841 46.6628 143.456C46.8645 145.794 46.3814 148.399 46.9118 150.677C47.7708 154.33 52.3624 156.541 52.9251 160.283C53.4231 163.593 50.3803 166.688 50.8808 170.057C51.4187 173.67 55.7737 175.667 57.3847 178.866C58.692 181.466 58.0794 184.444 58.7592 187.203C59.6108 190.649 62.6237 193.677 66.5404 195.014Z" stroke="black" stroke-miterlimit="10"/>
<path d="M49.4839 139.903C59.5684 153.001 64.3143 180.615 66.1669 194.87C66.3262 196.115 66.4682 197.238 66.5802 198.251" stroke="black" stroke-miterlimit="10"/>
<path d="M64.7251 157.762C64.7251 157.762 65.4173 146.382 71.2364 142.921C77.0556 139.46 76.941 158.862 76.941 158.862" stroke="black" stroke-miterlimit="10"/>
<path d="M71.0722 166.731C71.0722 166.731 69.882 160.22 71.9662 153.82" stroke="black" stroke-miterlimit="10"/>
<path d="M205.009 131.756H183.224" stroke="black" stroke-linecap="round" stroke-linejoin="round"/>
<path d="M205.363 125.657H183.921" stroke="black" stroke-linecap="round" stroke-linejoin="round"/>
<path d="M52.4966 236.55H191.234" stroke="black" stroke-miterlimit="10"/>
</svg>
