<svg width="196" height="154" viewBox="0 0 196 154" fill="none" xmlns="http://www.w3.org/2000/svg">
<circle opacity="0.2" cx="3.5" cy="3.5" r="3.5" fill="#7A271A"/>
<circle opacity="0.2" cx="3.5" cy="24.5" r="3.5" fill="#7A271A"/>
<circle opacity="0.2" cx="3.5" cy="45.5" r="3.5" fill="#7A271A"/>
<circle opacity="0.2" cx="3.5" cy="66.5" r="3.5" fill="#7A271A"/>
<circle opacity="0.2" cx="3.5" cy="87.5" r="3.5" fill="#7A271A"/>
<circle opacity="0.2" cx="3.5" cy="108.5" r="3.5" fill="#7A271A"/>
<circle opacity="0.2" cx="3.5" cy="129.5" r="3.5" fill="#7A271A"/>
<circle opacity="0.2" cx="3.5" cy="150.5" r="3.5" fill="#7A271A"/>
<circle opacity="0.2" cx="24.5" cy="3.5" r="3.5" fill="#7A271A"/>
<circle opacity="0.2" cx="24.5" cy="24.5" r="3.5" fill="#7A271A"/>
<circle opacity="0.2" cx="24.5" cy="45.5" r="3.5" fill="#7A271A"/>
<circle opacity="0.2" cx="24.5" cy="66.5" r="3.5" fill="#7A271A"/>
<circle opacity="0.2" cx="24.5" cy="87.5" r="3.5" fill="#7A271A"/>
<circle opacity="0.2" cx="24.5" cy="108.5" r="3.5" fill="#7A271A"/>
<circle opacity="0.2" cx="24.5" cy="129.5" r="3.5" fill="#7A271A"/>
<circle opacity="0.2" cx="24.5" cy="150.5" r="3.5" fill="#7A271A"/>
<circle opacity="0.2" cx="45.5" cy="3.5" r="3.5" fill="#7A271A"/>
<circle opacity="0.2" cx="45.5" cy="24.5" r="3.5" fill="#7A271A"/>
<circle opacity="0.2" cx="45.5" cy="45.5" r="3.5" fill="#7A271A"/>
<circle opacity="0.2" cx="45.5" cy="66.5" r="3.5" fill="#7A271A"/>
<circle opacity="0.2" cx="45.5" cy="87.5" r="3.5" fill="#7A271A"/>
<circle opacity="0.2" cx="45.5" cy="108.5" r="3.5" fill="#7A271A"/>
<circle opacity="0.2" cx="45.5" cy="129.5" r="3.5" fill="#7A271A"/>
<circle opacity="0.2" cx="45.5" cy="150.5" r="3.5" fill="#7A271A"/>
<circle opacity="0.2" cx="66.5" cy="3.5" r="3.5" fill="#7A271A"/>
<circle opacity="0.2" cx="66.5" cy="24.5" r="3.5" fill="#7A271A"/>
<circle opacity="0.2" cx="66.5" cy="45.5" r="3.5" fill="#7A271A"/>
<circle opacity="0.2" cx="66.5" cy="66.5" r="3.5" fill="#7A271A"/>
<circle opacity="0.2" cx="66.5" cy="87.5" r="3.5" fill="#7A271A"/>
<circle opacity="0.2" cx="66.5" cy="108.5" r="3.5" fill="#7A271A"/>
<circle opacity="0.2" cx="66.5" cy="129.5" r="3.5" fill="#7A271A"/>
<circle opacity="0.2" cx="66.5" cy="150.5" r="3.5" fill="#7A271A"/>
<circle opacity="0.2" cx="87.5" cy="3.5" r="3.5" fill="#7A271A"/>
<circle opacity="0.2" cx="87.5" cy="24.5" r="3.5" fill="#7A271A"/>
<circle opacity="0.2" cx="87.5" cy="45.5" r="3.5" fill="#7A271A"/>
<circle opacity="0.2" cx="87.5" cy="66.5" r="3.5" fill="#7A271A"/>
<circle opacity="0.2" cx="87.5" cy="87.5" r="3.5" fill="#7A271A"/>
<circle opacity="0.2" cx="87.5" cy="108.5" r="3.5" fill="#7A271A"/>
<circle opacity="0.2" cx="87.5" cy="129.5" r="3.5" fill="#7A271A"/>
<circle opacity="0.2" cx="87.5" cy="150.5" r="3.5" fill="#7A271A"/>
<circle opacity="0.2" cx="108.5" cy="3.5" r="3.5" fill="#7A271A"/>
<circle opacity="0.2" cx="108.5" cy="24.5" r="3.5" fill="#7A271A"/>
<circle opacity="0.2" cx="108.5" cy="45.5" r="3.5" fill="#7A271A"/>
<circle opacity="0.2" cx="108.5" cy="66.5" r="3.5" fill="#7A271A"/>
<circle opacity="0.2" cx="108.5" cy="87.5" r="3.5" fill="#7A271A"/>
<circle opacity="0.2" cx="108.5" cy="108.5" r="3.5" fill="#7A271A"/>
<circle opacity="0.2" cx="108.5" cy="129.5" r="3.5" fill="#7A271A"/>
<circle opacity="0.2" cx="108.5" cy="150.5" r="3.5" fill="#7A271A"/>
<circle opacity="0.2" cx="129.5" cy="3.5" r="3.5" fill="#7A271A"/>
<circle opacity="0.2" cx="129.5" cy="24.5" r="3.5" fill="#7A271A"/>
<circle opacity="0.2" cx="129.5" cy="45.5" r="3.5" fill="#7A271A"/>
<circle opacity="0.2" cx="129.5" cy="66.5" r="3.5" fill="#7A271A"/>
<circle opacity="0.2" cx="129.5" cy="87.5" r="3.5" fill="#7A271A"/>
<circle opacity="0.2" cx="129.5" cy="108.5" r="3.5" fill="#7A271A"/>
<circle opacity="0.2" cx="129.5" cy="129.5" r="3.5" fill="#7A271A"/>
<circle opacity="0.2" cx="129.5" cy="150.5" r="3.5" fill="#7A271A"/>
<circle opacity="0.2" cx="150.5" cy="3.5" r="3.5" fill="#7A271A"/>
<circle opacity="0.2" cx="150.5" cy="24.5" r="3.5" fill="#7A271A"/>
<circle opacity="0.2" cx="150.5" cy="45.5" r="3.5" fill="#7A271A"/>
<circle opacity="0.2" cx="150.5" cy="66.5" r="3.5" fill="#7A271A"/>
<circle opacity="0.2" cx="150.5" cy="87.5" r="3.5" fill="#7A271A"/>
<circle opacity="0.2" cx="150.5" cy="108.5" r="3.5" fill="#7A271A"/>
<circle opacity="0.2" cx="150.5" cy="129.5" r="3.5" fill="#7A271A"/>
<circle opacity="0.2" cx="150.5" cy="150.5" r="3.5" fill="#7A271A"/>
<circle opacity="0.2" cx="171.5" cy="3.5" r="3.5" fill="#7A271A"/>
<circle opacity="0.2" cx="171.5" cy="24.5" r="3.5" fill="#7A271A"/>
<circle opacity="0.2" cx="171.5" cy="45.5" r="3.5" fill="#7A271A"/>
<circle opacity="0.2" cx="171.5" cy="66.5" r="3.5" fill="#7A271A"/>
<circle opacity="0.2" cx="171.5" cy="87.5" r="3.5" fill="#7A271A"/>
<circle opacity="0.2" cx="171.5" cy="108.5" r="3.5" fill="#7A271A"/>
<circle opacity="0.2" cx="171.5" cy="129.5" r="3.5" fill="#7A271A"/>
<circle opacity="0.2" cx="171.5" cy="150.5" r="3.5" fill="#7A271A"/>
<circle opacity="0.2" cx="192.5" cy="3.5" r="3.5" fill="#7A271A"/>
<circle opacity="0.2" cx="192.5" cy="24.5" r="3.5" fill="#7A271A"/>
<circle opacity="0.2" cx="192.5" cy="45.5" r="3.5" fill="#7A271A"/>
<circle opacity="0.2" cx="192.5" cy="66.5" r="3.5" fill="#7A271A"/>
<circle opacity="0.2" cx="192.5" cy="87.5" r="3.5" fill="#7A271A"/>
<circle opacity="0.2" cx="192.5" cy="108.5" r="3.5" fill="#7A271A"/>
<circle opacity="0.2" cx="192.5" cy="129.5" r="3.5" fill="#7A271A"/>
<circle opacity="0.2" cx="192.5" cy="150.5" r="3.5" fill="#7A271A"/>
</svg>
