<svg width="249" height="249" viewBox="0 0 249 249" fill="none" xmlns="http://www.w3.org/2000/svg">
<path d="M170.395 54.6754C175.126 52.0435 182.498 57.4144 185.758 60.4298C189.568 63.9357 192.64 68.3978 195.003 72.9918C205.733 93.8481 211.372 118.661 202.555 141.26C199.586 148.911 194.953 155.806 188.992 161.447C185.641 164.601 178.743 167.577 177.738 172.403C177.522 173.601 177.607 174.834 177.987 175.991C179.319 180.413 183.34 183.478 186.413 186.698C201.166 202.188 190.499 226.202 174.725 236.55" stroke="#CCDDE2" stroke-miterlimit="10"/>
<path d="M54.6992 135.999C59.3057 131.106 65.1921 127.799 71.1108 124.757C77.5201 121.462 83.8272 118.146 89.6538 113.868C93.2011 111.269 96.5571 108.419 99.696 105.34" stroke="#CCDDE2" stroke-miterlimit="10"/>
<path d="M47.2209 197.972C41.3346 182.766 39.8406 165.336 45.9809 150.147" stroke="#CCDDE2" stroke-miterlimit="10"/>
<path d="M124.354 40.7765V24.4769C124.354 23.3542 123.908 22.2776 123.114 21.4837C122.32 20.6899 121.244 20.2439 120.121 20.2439H66.1451C65.0224 20.2439 63.9457 20.6899 63.1519 21.4837C62.3581 22.2776 61.9121 23.3542 61.9121 24.4769V101.124C61.9168 102.244 62.3648 103.316 63.1581 104.106C63.9514 104.896 65.0256 105.34 66.1451 105.34H120.128C120.652 105.344 121.172 105.244 121.657 105.046" stroke="black" stroke-linecap="round" stroke-linejoin="round"/>
<path d="M118.407 22.833H67.8676C65.6301 22.833 63.8164 24.6468 63.8164 26.8842V98.7132C63.8164 100.951 65.6301 102.764 67.8676 102.764H118.407C120.645 102.764 122.458 100.951 122.458 98.7132V26.8842C122.458 24.6468 120.645 22.833 118.407 22.833Z" fill="#BEE3DE"/>
<path d="M117.62 29.0182H69.2944C68.1749 29.0182 67.2676 29.9255 67.2676 31.045V41.9562C67.2676 43.0757 68.1749 43.9831 69.2944 43.9831H117.62C118.74 43.9831 119.647 43.0757 119.647 41.9562V31.045C119.647 29.9255 118.74 29.0182 117.62 29.0182Z" fill="#BEE3DE"/>
<path d="M93.1367 35.3236C93.992 35.3236 94.6855 34.6302 94.6855 33.7749C94.6855 32.9195 93.992 32.2261 93.1367 32.2261C92.2814 32.2261 91.5879 32.9195 91.5879 33.7749C91.5879 34.6302 92.2814 35.3236 93.1367 35.3236Z" fill="#D7E8F0"/>
<path d="M88.8105 40.7764C88.8105 39.6293 89.2662 38.5292 90.0772 37.718C90.8884 36.907 91.9885 36.4513 93.1357 36.4513C94.2828 36.4513 95.3829 36.907 96.1939 37.718C97.0051 38.5292 97.4608 39.6293 97.4608 40.7764H88.8105Z" fill="#D7E8F0"/>
<path d="M93.4519 60.0216C91.8018 60.0206 90.1883 60.5092 88.8158 61.4252C87.4433 62.3415 86.3733 63.6441 85.7414 65.1687C85.1094 66.6931 84.9438 68.3706 85.2655 69.9891C85.5872 71.6078 86.3818 73.0946 87.5486 74.2614C88.7154 75.4282 90.2022 76.2228 91.8207 76.5445C93.4394 76.8662 95.117 76.7006 96.6413 76.0687C98.1657 75.4367 99.4685 74.3667 100.385 72.9943C101.301 71.6218 101.789 70.0083 101.788 68.3581C101.788 66.1473 100.909 64.0273 99.346 62.4641C97.7827 60.9008 95.6628 60.0221 93.4519 60.0216ZM93.4519 74.6827C93.1289 74.6827 92.8192 74.5545 92.5908 74.3262C92.3625 74.0976 92.2343 73.7881 92.2343 73.4651C92.2343 73.1422 92.3625 72.8324 92.5908 72.6041C92.8192 72.3757 93.1289 72.2475 93.4519 72.2475C93.7748 72.2475 94.0846 72.3757 94.3129 72.6041C94.5413 72.8324 94.6695 73.1422 94.6695 73.4651C94.6695 73.7881 94.5413 74.0976 94.3129 74.3262C94.0846 74.5545 93.7748 74.6827 93.4519 74.6827ZM94.9957 65.3079C94.7342 67.1156 94.5126 69.0205 93.9823 70.7859C93.8528 71.2042 93.0585 71.2042 92.929 70.7859C92.548 69.4637 92.2552 68.1178 92.0525 66.7571C91.8907 65.7611 91.3055 64.1675 91.8658 63.2013C92.3488 62.3448 93.7208 62.2377 94.5126 62.6859C95.4937 63.2462 95.1177 64.409 94.9957 65.3079Z" fill="#D7E8F0"/>
<path d="M93.452 74.682C94.1245 74.682 94.6696 74.137 94.6696 73.4644C94.6696 72.7921 94.1245 72.2468 93.452 72.2468C92.7794 72.2468 92.2344 72.7921 92.2344 73.4644C92.2344 74.137 92.7794 74.682 93.452 74.682Z" fill="white"/>
<path d="M94.9964 65.3076C94.7349 67.1154 94.5133 69.0202 93.983 70.7856C93.8535 71.2039 93.0592 71.2039 92.9297 70.7856C92.5487 69.4637 92.2559 68.1178 92.0532 66.7568C91.8914 65.7608 91.3062 64.1672 91.8665 63.2011C92.3495 62.3445 93.7215 62.2375 94.5133 62.6857C95.4944 63.2459 95.1184 64.4087 94.9964 65.3076Z" fill="white"/>
<path d="M72.5078 50.6665H113.234" stroke="white" stroke-miterlimit="10"/>
<path d="M72.5078 54.6729H113.234" stroke="white" stroke-miterlimit="10"/>
<path d="M72.5078 80.4893H113.234" stroke="white" stroke-miterlimit="10"/>
<path d="M123.149 90.8207C123.303 90.9402 123.572 40.5974 123.572 40.5974L108.251 34.6761C108.251 34.6761 96.8619 62.5915 97.5516 62.8729L100.627 64.1179C100.627 64.1179 101.386 63.5178 103.147 67.8529C104.907 72.188 117.596 86.5503 123.149 90.8207Z" fill="white"/>
<path d="M81.9668 84.2815H103.774" stroke="white" stroke-miterlimit="10"/>
<path d="M184.454 113.472C184.255 115.643 181.576 140.548 184.173 145.411C185.114 147.171 175.771 145.486 175.209 145.356C166.743 143.364 158.815 139.691 151.394 135.224C143.974 130.757 137.418 124.878 129.682 120.917C128.252 120.185 125.088 118.581 126.024 116.482C127.617 112.907 129.575 107.971 129.729 103.606L129.682 97.8794C129.682 97.8794 128.551 94.2838 132.239 97.4336C135.927 100.583 152.801 108.888 163.725 99.2663C174.648 89.6449 175.296 82.0355 175.296 82.0355C175.296 82.0355 168.301 64.9192 148.389 75.3897L155.423 57.2127C155.423 57.2127 154.46 55.9901 157.507 56.2167C160.555 56.4433 166.207 54.9368 166.907 49.3517C166.907 49.3517 166.962 47.5291 170.186 50.9752C173.411 54.4214 188.65 67.8798 184.454 113.472Z" fill="#2E2E2E"/>
<path d="M145.307 48.9955C147.015 47.7425 148.929 46.7963 150.961 46.1992" stroke="black" stroke-miterlimit="10"/>
<path d="M137.738 133.979L124.043 183.491L111.593 228.515L103.665 229.262C101.847 229.429 100.158 230.269 98.927 231.617C97.6965 232.966 97.0135 234.725 97.0117 236.55H121.531L139.289 205.943L152.499 183.172L173.151 147.565C173.749 146.526 174.329 145.488 174.894 144.427C174.903 144.415 174.909 144.401 174.909 144.385" stroke="black" stroke-miterlimit="10"/>
<path d="M183.946 117.279C184.133 116.069 184.297 114.859 184.444 113.642C184.444 113.584 184.444 113.535 184.459 113.477C185.297 106.103 185.476 98.6695 184.992 91.264C184.995 91.2426 184.995 91.2206 184.992 91.1992C184.444 83.1391 182.965 74.6731 180.012 66.4188C179.155 64.0381 178.094 61.7353 176.842 59.5364C176.75 59.3546 176.646 59.1753 176.531 58.9961C176.138 58.3088 175.714 57.639 175.286 56.9767C174.706 56.1027 174.091 55.2536 173.446 54.4443C172.484 53.2155 171.418 52.0724 170.259 51.0281C170.251 51.0253 170.244 51.0211 170.239 51.0156C170.233 51.0099 170.229 51.0032 170.226 50.9957C169.365 50.233 168.45 49.5341 167.487 48.9041C167.308 48.7821 167.129 48.6675 166.947 48.553C166.919 48.5313 166.889 48.5122 166.857 48.4957" stroke="black" stroke-miterlimit="10"/>
<path d="M152.497 183.172L171.755 236.55H143.967C143.967 234.815 144.596 233.14 145.738 231.835C146.881 230.531 148.458 229.685 150.177 229.456L156.225 228.646C156.225 228.646 148.093 217.939 139.293 205.94" stroke="black" stroke-miterlimit="10"/>
<path d="M155.914 55.95L147.568 77.5034C147.316 78.154 146.937 78.7482 146.453 79.2509C145.969 79.7539 145.39 80.1552 144.75 80.4321C144.109 80.7093 143.42 80.8559 142.722 80.8639C142.025 80.8719 141.332 80.7411 140.686 80.479L120.915 72.4761C120.905 72.4492 120.897 72.4218 120.89 72.3939C120.641 71.3979 118.086 61.8513 114.989 61.8513C112.611 61.8513 113.744 66.5599 114.74 69.2241C114.854 69.5105 114.961 69.7794 115.059 70.0085L114.904 69.9438L99.4238 63.6341L109.187 37.8975L128.248 45.2604L155.914 55.95Z" fill="#D7E8F0"/>
<path d="M115.053 70.0092C114.014 67.6313 112.361 61.852 114.99 61.852C118.088 61.852 120.64 71.4061 120.892 72.3947L120.917 72.4768L140.685 80.4822C141.332 80.7439 142.026 80.8741 142.724 80.8654C143.423 80.8564 144.112 80.7088 144.753 80.4306C145.394 80.1525 145.973 79.7496 146.457 79.2454C146.94 78.7414 147.319 78.1461 147.57 77.4942L156.87 53.4657L127.308 42.0391L108.25 34.6761L97.543 62.8729L115.053 70.0092Z" stroke="black" stroke-miterlimit="10"/>
<path d="M176.331 69.4038C176.924 79.7373 174.615 92.9567 161.441 100.738C141.951 112.262 116.158 86.154 106.608 73.4849C105.03 71.4042 103.698 69.1483 102.637 66.7619C102.315 66.0674 102.045 65.35 101.83 64.6155" stroke="black" stroke-miterlimit="10"/>
<path d="M129.51 95.6481C129.51 95.6481 131.004 106.532 126.398 115.785L126.418 115.76C126.418 115.76 126.418 115.777 126.403 115.785C119.331 129.049 109.207 150.209 114.854 165.585C116.774 170.814 120.083 177.039 124.04 183.493" stroke="black" stroke-miterlimit="10"/>
<path d="M163.801 32.5768L163.816 32.6465C163.936 34.1044 163.471 35.5501 162.525 36.6657C161.579 37.7812 160.229 38.4754 158.771 38.5952C157.838 38.6761 156.9 38.5122 156.05 38.1196C155.806 38.0162 155.572 37.8922 155.35 37.7486C155.259 37.6853 155.185 37.6009 155.133 37.5028C155.082 37.4044 155.055 37.2954 155.055 37.1846C155.055 37.0738 155.082 36.9647 155.133 36.8666C155.185 36.7682 155.259 36.6838 155.35 36.6206C156.421 35.8487 157.399 34.773 157.678 33.5131C157.762 33.1256 157.769 32.7255 157.698 32.3353C157.622 31.838 157.417 31.3697 157.103 30.9765C156.789 30.5833 156.378 30.2791 155.91 30.0943C155.764 30.051 155.612 30.0266 155.459 30.0221C155.029 29.9872 154.463 30.042 154.351 30.3607C154.901 28.8157 154.924 27.1319 154.416 25.5725C154.1 24.6076 153.568 23.7278 152.86 23.0003C152.892 23.2822 152.862 23.5677 152.771 23.8365C152.68 24.1053 152.531 24.3507 152.335 24.5554C152.139 24.7602 151.9 24.9191 151.635 25.0209C151.37 25.1225 151.086 25.1646 150.803 25.1442C148.609 25.0695 148.196 22.9779 148.196 22.9779C148.196 22.9779 148.196 23.0028 148.196 23.0178C147.24 25.4007 144.461 25.4654 142.469 24.4072C141.763 24.0447 141.142 23.5353 140.649 22.9132C140.084 20.4705 142.098 18.11 144.421 17.7713C144.471 16.2176 145.604 14.5542 147.133 14.4272C147.665 14.3817 148.201 14.4799 148.682 14.7116C149.164 14.9433 149.575 15.3 149.872 15.7445C149.914 15.8117 149.961 15.8839 149.999 15.9586C150.624 15.0522 151.647 14.0587 152.738 13.9666C153.494 13.9135 154.249 14.0943 154.899 14.4845C155.55 14.8746 156.064 15.4553 156.373 16.1478C156.373 16.0408 157.332 15.6025 157.429 15.5627C158.324 15.2223 159.307 15.1895 160.223 15.4695C161.14 15.7494 161.937 16.3262 162.489 17.109C162.544 17.3254 162.581 17.5461 162.598 17.7688C162.653 18.4348 162.551 19.1043 162.299 19.7235C162.653 19.8244 162.984 19.9936 163.273 20.2215C163.898 20.6794 164.318 21.3657 164.441 22.1313C164.453 22.2085 164.461 22.2857 164.466 22.3629C164.516 22.9463 164.391 23.5314 164.107 24.0436C164.843 24.254 165.512 24.6529 166.047 25.201C166.582 25.749 166.965 26.4273 167.157 27.1685C167.218 27.4138 167.259 27.6638 167.279 27.9155C167.364 28.9825 167.058 30.0438 166.418 30.9016C165.778 31.7591 164.848 32.3547 163.801 32.5768Z" fill="#BEE3DE"/>
<path d="M163.801 32.5763L163.815 32.646C163.935 34.1039 163.471 35.5496 162.525 36.6652C161.579 37.7807 160.229 38.4749 158.771 38.5947C157.838 38.6756 156.899 38.5117 156.049 38.1191C157.12 37.3472 158.098 36.269 158.375 35.0091C158.473 34.5407 158.462 34.0559 158.343 33.5922C158.225 33.1286 158.001 32.6986 157.69 32.3348C157.614 31.8378 157.409 31.3692 157.095 30.976C156.781 30.5828 156.37 30.2786 155.902 30.0938C155.756 30.0505 155.604 30.0261 155.452 30.0216C155.599 28.4643 155.233 26.9014 154.408 25.572C154.093 24.6072 153.56 23.7273 152.852 22.9999C152.884 23.2817 152.854 23.5672 152.763 23.836C152.672 24.1048 152.524 24.3503 152.327 24.555C152.131 24.7597 151.892 24.9186 151.627 25.0204C151.362 25.122 151.078 25.1643 150.795 25.1437C148.602 25.069 148.188 22.9774 148.188 22.9774C148.188 22.9774 148.188 23.0023 148.188 23.0173C147.232 25.4001 144.453 25.4649 142.461 24.4067C141.755 24.0442 141.134 23.5348 140.641 22.9127C140.076 20.47 142.09 18.1095 144.413 17.7709C144.463 16.2171 145.596 14.5538 147.125 14.4268C147.658 14.3813 148.193 14.4794 148.675 14.7111C149.156 14.9428 149.567 15.2995 149.864 15.744C149.906 15.8112 149.954 15.8834 149.991 15.9581C150.616 15.0518 151.639 14.0583 152.73 13.9661C153.488 13.9115 154.244 14.0915 154.896 14.4818C155.547 14.872 156.063 15.4536 156.373 16.1474C156.373 16.0403 157.331 15.6021 157.429 15.5622C158.324 15.2218 159.307 15.189 160.223 15.469C161.139 15.749 161.936 16.3258 162.488 17.1085C162.544 17.3249 162.58 17.5457 162.598 17.7684C162.653 18.4343 162.55 19.1039 162.299 19.723C162.653 19.8239 162.984 19.9931 163.273 20.221C163.227 20.5631 163.137 20.8978 163.006 21.217C163.558 21.3787 164.055 21.6908 164.44 22.1184C164.453 22.1956 164.46 22.2728 164.465 22.35C164.515 22.9334 164.39 23.5184 164.107 24.0307C164.477 24.1364 164.832 24.2905 165.163 24.4889C165.109 24.8529 164.991 25.2044 164.814 25.5271C165.755 25.7921 166.581 26.3655 167.157 27.1556C167.218 27.4009 167.259 27.6509 167.279 27.9026C167.367 28.9715 167.063 30.036 166.422 30.8963C165.782 31.7566 164.85 32.354 163.801 32.5763Z" fill="#BEE3DE"/>
<path d="M144.451 27.5864C144.451 27.5864 147.608 27.6312 148.333 30.2955" stroke="black" stroke-miterlimit="10"/>
<path d="M143.637 35.5701C142.919 35.7474 142.173 35.7837 141.441 35.6772C141.303 35.6535 141.173 35.597 141.062 35.5123C140.951 35.4274 140.863 35.3171 140.804 35.1906C140.745 35.0641 140.717 34.9252 140.724 34.7857C140.73 34.6463 140.77 34.5103 140.841 34.3898C141.498 33.2768 142.175 32.1762 142.912 31.118C143.028 30.9833 143.099 30.8164 143.116 30.6399C143.116 30.6399 142.813 27.3456 143.478 24.8182" stroke="black" stroke-miterlimit="10"/>
<path d="M146.121 30.3901C146.188 29.8592 145.876 29.3829 145.424 29.3261C144.973 29.2693 144.552 29.6536 144.486 30.1842C144.419 30.715 144.731 31.1914 145.183 31.2482C145.634 31.3049 146.054 30.9207 146.121 30.3901Z" fill="black"/>
<path d="M161.039 37.8955C161.106 38.5554 164.067 43.1245 166.744 48.1693C166.742 48.1775 166.742 48.1859 166.744 48.1941C166.793 48.3012 166.843 48.4158 166.901 48.5303" stroke="black" stroke-linecap="round" stroke-linejoin="round"/>
<path d="M150.359 42.7258L151.291 49.3542" stroke="black" stroke-miterlimit="10"/>
<path d="M142.496 35.7365C142.496 35.7365 143.846 42.3001 147.165 43.2936C150.484 44.2871 153.365 40.1462 153.365 40.1462" stroke="black" stroke-linecap="round" stroke-linejoin="round"/>
<path d="M143.402 38.697C143.843 38.9547 144.342 39.0984 144.852 39.1148C145.362 39.1313 145.869 39.0202 146.326 38.7916" stroke="black" stroke-linecap="round" stroke-linejoin="round"/>
<path d="M149.634 15.6595C149.594 15.1504 149.423 14.6603 149.136 14.2377C148.771 13.6778 148.229 13.2563 147.597 13.0407C146.964 12.825 146.278 12.8277 145.647 13.0482C145.016 13.2687 144.477 13.6944 144.116 14.2571C143.756 14.8199 143.595 15.4872 143.658 16.1525" stroke="black" stroke-miterlimit="10" stroke-linecap="round"/>
<path d="M148.35 20.1919C148.287 19.4726 148.05 18.7794 147.66 18.172C147.269 17.5647 146.737 17.0615 146.109 16.7059C142.944 14.9355 138.888 18.3742 140.02 21.7805C140.419 22.9657 141.368 23.8273 142.448 24.4C144.44 25.4582 147.229 25.396 148.175 23.0105L148.19 22.9732C148.19 22.9732 148.603 25.0623 150.797 25.1395C151.081 25.1594 151.365 25.1168 151.63 25.015C151.895 24.9129 152.134 24.7538 152.331 24.5491C152.527 24.3443 152.677 24.0987 152.768 23.8299C152.859 23.561 152.89 23.2753 152.859 22.9931C154.746 24.9353 155.239 27.8387 154.353 30.3561C154.515 29.9029 155.598 29.985 155.912 30.0896C157.261 30.5602 157.981 32.1563 157.682 33.5109C157.401 34.7783 156.422 35.849 155.356 36.6259C155.265 36.6889 155.191 36.773 155.14 36.8709C155.089 36.969 155.062 37.0781 155.062 37.1886C155.062 37.2992 155.089 37.4082 155.14 37.5061C155.191 37.6042 155.265 37.6884 155.356 37.7514C156.371 38.4035 157.573 38.7013 158.775 38.598C160.233 38.4779 161.583 37.7842 162.529 36.6692C163.475 35.5542 163.939 34.1092 163.82 32.6518L163.805 32.5821C164.767 32.3807 165.634 31.863 166.267 31.1115C166.901 30.36 167.264 29.4181 167.3 28.436C167.336 27.454 167.042 26.4878 166.465 25.6923C165.888 24.8968 165.061 24.3173 164.116 24.0464C164.4 23.5341 164.525 22.949 164.475 22.3656C164.406 21.5741 164.028 20.8419 163.421 20.3287C162.814 19.8156 162.03 19.5632 161.238 19.6266" stroke="black" stroke-linecap="round" stroke-linejoin="round"/>
<path d="M149.508 14.118C150.105 13.122 150.765 12.5643 151.998 12.4622C152.762 12.3997 153.528 12.5778 154.186 12.9716C154.845 13.3653 155.364 13.9551 155.671 14.6584C155.628 14.5612 156.629 14.1056 156.731 14.0657C157.13 13.9131 157.55 13.8208 157.976 13.7918C159.113 13.7307 160.23 14.1109 161.093 14.8532C161.957 15.5955 162.5 16.6425 162.61 17.7758C162.665 18.4418 162.563 19.1113 162.311 19.7305" stroke="black" stroke-linecap="square" stroke-linejoin="round"/>
<path d="M166.744 48.1718C166.744 48.1718 169.07 55.9057 155.773 56.324" stroke="black" stroke-miterlimit="10"/>
<path d="M97.6094 125.657C97.587 120.002 103.145 118.481 105.807 118.531C122.303 118.845 124.79 92.1667 124.79 92.1667" stroke="black" stroke-linecap="round" stroke-linejoin="round"/>
<path d="M183.948 117.279C183.948 117.279 182 136.487 183.948 142.951C185.895 149.415 174.697 144.343 174.697 144.343" stroke="black" stroke-miterlimit="10"/>
<path d="M72.3869 131.756H59.4414" stroke="black" stroke-linecap="round" stroke-linejoin="round"/>
<path d="M118.771 131.756H94" stroke="black" stroke-linecap="round" stroke-linejoin="round"/>
<path d="M90.448 131.756H75.8242" stroke="black" stroke-linecap="round" stroke-linejoin="round"/>
<path d="M90.0708 125.657H75.6113" stroke="black" stroke-linecap="round" stroke-linejoin="round"/>
<path d="M101.593 125.657H93.7871" stroke="black" stroke-linecap="round" stroke-linejoin="round"/>
<path d="M121.436 125.657H106.359" stroke="black" stroke-linecap="round" stroke-linejoin="round"/>
<path d="M71.9986 125.657H69.4414" stroke="black" stroke-linecap="round" stroke-linejoin="round"/>
<path d="M89.5938 125.11H92.9378C92.9378 125.11 96.7699 128.728 92.9378 132.869V135.762H89.5938" stroke="black" stroke-linecap="round" stroke-linejoin="round"/>
<path d="M74.8672 125.11C74.8672 125.11 78.6993 128.728 74.8672 132.869V135.762" stroke="black" stroke-linecap="round" stroke-linejoin="round"/>
<path d="M74.8675 135.762H71.5234V132.869C75.358 128.728 71.5234 125.11 71.5234 125.11H74.8675" stroke="black" stroke-linecap="round" stroke-linejoin="round"/>
<path d="M89.5938 125.11C89.5938 125.11 93.4284 128.728 89.5938 132.869V135.762" stroke="black" stroke-linecap="round" stroke-linejoin="round"/>
<path d="M71.5234 132.869H74.8675" stroke="black" stroke-linecap="round" stroke-linejoin="round"/>
<path d="M89.5938 132.869H92.9378" stroke="black" stroke-linecap="round" stroke-linejoin="round"/>
<path d="M102.484 123.81C102.058 124.355 101.753 124.985 101.593 125.658C101.382 126.652 101.302 127.669 101.356 128.683C101.371 129.679 101.496 130.7 102.442 131.223C103.864 132.017 105.572 130.882 105.647 129.253C105.728 128.029 105.968 126.821 106.359 125.658C106.374 125.6 106.391 125.551 106.406 125.503" stroke="black" stroke-linecap="round" stroke-linejoin="round"/>
<path d="M106.406 125.496C107.591 125.247 109.357 124.597 110.256 122.921" stroke="black" stroke-linecap="round" stroke-linejoin="round"/>
<path d="M98.3184 131.756C98.3184 131.756 99.2496 134.211 101.593 134.51C103.936 134.809 102.454 131.756 102.454 131.756C102.454 131.756 103.425 133.907 104.601 133.98C105.776 134.052 106.792 132.984 106.386 131.756C106.386 131.756 106.745 133.731 108.483 133.514C110.221 133.297 109.503 131.756 109.503 131.756" stroke="black" stroke-linecap="round" stroke-linejoin="round"/>
<g opacity="0.54">
<path opacity="0.54" d="M71.5903 166.728L69.9096 191C68.9982 192.649 67.9723 194.108 67.0585 195.009C66.9365 194.964 66.8095 194.919 66.6925 194.865C66.4684 194.787 66.2468 194.698 66.0351 194.616C62.6288 193.122 60.0591 190.34 59.2872 187.2C58.6099 184.439 59.2225 181.456 57.9078 178.861C56.3042 175.667 51.9318 173.662 51.4064 170.054C50.9084 166.68 53.9437 163.58 53.4531 160.279C52.8854 156.544 48.2988 154.322 47.4423 150.67C46.9069 148.399 47.385 145.794 47.1933 143.449C46.9667 140.835 46.5242 138.245 45.8711 135.705C52.6414 135.207 59.5337 138.942 61.7274 144.288C63.5202 148.663 62.4396 153.775 65.2458 157.761C66.7697 159.92 69.3095 161.534 70.6217 163.794C71.0263 164.499 71.3194 165.261 71.4907 166.055C71.5031 166.11 71.5032 166.167 71.5131 166.21C71.5256 166.299 71.5355 166.367 71.5455 166.434C71.5679 166.628 71.5903 166.728 71.5903 166.728Z" fill="#BEE3DE"/>
<path opacity="0.54" d="M71.6022 166.718H71.5897C71.5897 166.718 71.5673 166.619 71.5449 166.429C71.5661 166.506 71.581 166.584 71.5897 166.663C71.6022 166.683 71.6022 166.706 71.6022 166.718Z" fill="#BEE3DE"/>
</g>
<path d="M93.9708 157.254C93.0794 160.404 88.2936 162.319 87.7135 165.548C87.2005 168.409 90.3628 171.081 89.8399 173.987C89.2847 177.107 84.7404 178.832 83.0721 181.594C81.7126 183.835 82.3475 186.402 81.6453 188.785C80.8336 191.491 78.1593 193.907 74.5862 195.187C74.3646 195.266 74.1529 195.343 73.9288 195.411C73.8068 195.443 73.6798 195.488 73.5503 195.52C72.3701 194.552 71.023 192.848 69.9199 191.011L71.6007 166.738H71.6131C72.9154 165.635 74.4069 164.622 75.4427 163.397C76.5682 162.072 77.0911 160.625 77.4347 159.111H77.4397V158.945C77.9377 156.549 77.9751 154.044 79.1006 151.773C81.3814 147.152 88.5401 143.935 95.5893 144.358C94.9248 146.54 94.4696 148.78 94.2298 151.049C94.0256 153.056 94.5286 155.304 93.9708 157.254Z" fill="#BEE3DE"/>
<path d="M77.4385 158.924V159.09H77.4062C77.4236 159.033 77.4385 158.979 77.4385 158.924Z" fill="#BEE3DE"/>
<path d="M77.4395 158.924C77.4395 158.978 77.4171 159.033 77.4071 159.091C77.0734 160.604 76.5505 162.051 75.4151 163.376C74.3793 164.601 72.8878 165.617 71.5855 166.717C71.5855 166.717 71.5855 166.683 71.573 166.673C71.5643 166.594 71.5494 166.515 71.5282 166.438C71.5282 166.371 71.5083 166.304 71.4958 166.214C71.4958 166.172 71.4958 166.115 71.4734 166.06C71.3021 165.266 71.009 164.504 70.6044 163.799C69.2922 161.538 66.7524 159.925 65.2285 157.766C65.2285 157.766 65.9182 146.387 71.7399 142.923C77.2702 139.649 77.4395 157.029 77.4395 158.924Z" fill="#BEE3DE"/>
<path d="M77.4385 158.924V159.09H77.4062C77.4236 159.033 77.4385 158.979 77.4385 158.924Z" fill="#BEE3DE"/>
<path d="M71.5897 166.673V166.728C71.5897 166.728 71.5673 166.628 71.5449 166.439C71.5661 166.516 71.581 166.594 71.5897 166.673Z" fill="#BEE3DE"/>
<path d="M71.0728 166.731C72.3701 165.625 73.874 164.599 74.9149 163.377C77.8331 159.93 76.7101 155.528 78.5826 151.751C80.861 147.134 88.0446 143.917 95.0764 144.34C94.4056 146.521 93.9487 148.762 93.7119 151.031C93.5027 153.05 94.0032 155.301 93.4629 157.256C92.5665 160.403 87.7832 162.313 87.2005 165.545C86.6851 168.404 89.8549 171.076 89.3295 173.981C88.7717 177.101 84.2324 178.824 82.5592 181.586C81.1971 183.827 81.8371 186.394 81.1299 188.782C80.2733 191.66 77.3028 194.205 73.4109 195.403C73.2864 195.445 73.1619 195.488 73.0274 195.52C71.8472 194.551 70.5001 192.851 69.3945 191.011" stroke="black" stroke-miterlimit="10"/>
<path d="M90.7729 147.96C80.2676 159.268 75.3349 183.109 73.4052 195.407C73.2483 196.446 73.1064 197.399 72.9844 198.251" stroke="black" stroke-miterlimit="10"/>
<path d="M91.7427 205.176L86.9022 233.696C86.7879 234.478 86.3999 235.194 85.8071 235.717C85.2142 236.24 84.4552 236.535 83.6652 236.55H58.4265C57.63 236.533 56.8658 236.231 56.2722 235.699C55.6786 235.168 55.2946 234.441 55.1895 233.652L50.7324 205.176H91.7427Z" stroke="black" stroke-miterlimit="10"/>
<path d="M96.3333 201.999C96.1964 203.797 94.7721 205.181 93.064 205.181H49.489C47.7982 205.181 46.3864 203.827 46.2246 202.049C46.0378 200.017 47.5542 198.256 49.489 198.256H93.064C94.9813 198.256 96.4902 199.982 96.3333 201.999Z" stroke="black" stroke-miterlimit="10"/>
<path d="M66.5409 195.014C68.4109 193.157 70.6992 189.023 71.7151 185.644C72.5493 182.858 71.0777 179.992 70.7416 177.136C70.2137 172.654 72.4372 167.851 70.0942 163.797C68.7894 161.536 66.2496 159.927 64.7257 157.761C61.917 153.777 62.9952 148.673 61.1999 144.298C59.0137 138.942 52.1213 135.219 45.3535 135.705C46.0004 138.249 46.4384 140.841 46.6633 143.456C46.8649 145.794 46.3819 148.399 46.9123 150.677C47.7713 154.33 52.3629 156.541 52.9256 160.284C53.4236 163.593 50.3808 166.688 50.8813 170.057C51.4192 173.67 55.7742 175.667 57.3852 178.866C58.6924 181.466 58.0799 184.444 58.7597 187.203C59.6113 190.649 62.6242 193.677 66.5409 195.014Z" stroke="black" stroke-miterlimit="10"/>
<path d="M49.4844 139.903C59.5689 153 64.3148 180.614 66.1674 194.87C66.3267 196.115 66.4687 197.238 66.5807 198.251" stroke="black" stroke-miterlimit="10"/>
<path d="M64.7266 157.762C64.7266 157.762 65.4188 146.382 71.2379 142.921C77.057 139.46 76.9425 158.862 76.9425 158.862" stroke="black" stroke-miterlimit="10"/>
<path d="M71.0727 166.73C71.0727 166.73 69.8825 160.219 71.9666 153.82" stroke="black" stroke-miterlimit="10"/>
<path d="M205.01 131.756H183.225" stroke="black" stroke-linecap="round" stroke-linejoin="round"/>
<path d="M205.363 125.657H183.922" stroke="black" stroke-linecap="round" stroke-linejoin="round"/>
<path d="M52.498 236.55H191.236" stroke="black" stroke-miterlimit="10"/>
</svg>
