<svg width="200" height="129" viewBox="0 0 200 129" fill="none" xmlns="http://www.w3.org/2000/svg">
<path d="M188.437 126.955H125.844H130.181L169.768 126.496C177.087 125.86 182.244 118.682 179.464 111.886C178.983 110.712 179.485 110.385 178.891 109.252C172.667 97.534 161.877 87.9882 149.65 82.4428C149.953 82.3858 150.258 82.3441 150.569 82.3024C148.292 81.1622 145.947 80.1632 143.547 79.3114C142.274 78.8571 140.986 78.4467 139.7 78.0869C133.378 76.305 124.835 77.1191 122.145 84.1194C119.882 89.9961 122.886 97.0951 128.537 99.6692L138.686 103.549C138.601 103.422 138.524 103.294 138.445 103.161L147.271 106.533C147.446 106.656 147.58 106.829 147.654 107.03C147.727 107.231 147.738 107.449 147.685 107.656C147.631 107.863 147.515 108.049 147.353 108.188C147.191 108.328 146.99 108.414 146.777 108.436L125.342 110.777C122.252 111.089 118.383 112.382 116.106 114.508C114.444 116.044 113.044 118.135 113.057 120.782C111.657 120.888 110.264 121.083 108.888 121.368C106.788 121.82 104.651 122.599 104.499 123.878C104.201 126.446 107.85 126.968 110.15 126.968L95.5963 126.911C97.1587 126.911 97.3518 126.898 98.3876 125.866C99.4234 124.835 100.582 124.041 100.582 122.478L100.709 117.471C100.709 116.439 100.955 115.605 99.9237 115.605H90.707C91.0823 115.616 91.4525 115.517 91.7735 115.323C92.0946 115.128 92.3529 114.846 92.5174 114.508C92.5245 114.5 92.5291 114.49 92.5306 114.48C92.9914 113.624 93.0968 112.393 93.0112 111.227L93.1187 110.846L93.3952 109.827L99.25 106.382C99.2939 106.357 99.3365 106.329 99.3773 106.299C102.432 104.431 102.814 101.093 101.767 98.109C101.745 98.0519 101.732 98.0014 101.71 97.9532C101.662 97.8259 101.618 97.7052 101.563 97.5845C101.283 96.904 100.937 96.2527 100.529 95.6402C99.0174 93.279 96.8229 91.3545 94.7382 90.8519C94.1534 90.7198 93.5559 90.6536 92.9563 90.6544C100.211 83.8517 108.57 77.806 118.443 75.7959C127.081 74.0113 136.014 74.2442 144.548 76.4761C154.519 79.1292 163.499 84.6373 170.62 92.0764C180.205 102.077 184.688 113.76 188.437 126.955Z" fill="#353642"/>
<path d="M90.917 96.8887C90.573 97.5664 90.0099 98.1075 89.3195 98.4248C88.7298 98.7213 88.1055 98.9425 87.4608 99.0832C86.3987 99.2609 86.0234 98.5894 85.3454 97.9311C84.9587 97.5576 84.5141 97.2493 84.0287 97.0182C83.7377 96.8753 83.4188 96.7988 83.0949 96.7939C82.7708 96.7889 82.4498 96.8558 82.1546 96.9897C81.9549 97.0788 81.7851 97.2238 81.6659 97.4071C81.5468 97.5905 81.4833 97.8047 81.4831 98.0232C81.527 98.8286 82.6374 99.465 83.265 99.7985C84.0844 100.186 84.9361 100.5 85.8106 100.738C87.9545 101.396 84.3842 102.768 83.6337 102.853C82.0285 103.071 80.3991 103.032 78.8059 102.739C79.2632 103.761 79.6141 104.827 79.8527 105.921C80.1006 106.968 80.3903 108.227 80.1862 109.281C79.9382 110.518 79.1022 111.438 78.0708 112.061L74.0615 95.3351C75.5399 94.6309 77.1478 94.2398 78.7844 94.186C80.421 94.1325 82.0511 94.4176 83.5722 95.0234C84.0796 95.2106 84.6297 95.2479 85.1577 95.1312C85.6857 95.0144 86.1689 94.7487 86.5501 94.3651L86.9605 93.9679C87.5319 93.8437 88.1275 93.8909 88.6721 94.104C89.6443 94.4704 91.4437 95.6489 90.917 96.8887Z" fill="#84ADFF"/>
<path d="M95.0333 115.592H78.4784C78.311 117.153 77.5721 118.598 76.4038 119.648C75.2355 120.697 73.7202 121.278 72.1496 121.278H16.4941C16.4977 122.783 17.0972 124.225 18.1615 125.289C19.2258 126.354 20.6682 126.953 22.1734 126.957H95.0289C96.5341 126.952 97.9763 126.352 99.0412 125.288C100.106 124.224 100.708 122.783 100.715 121.278V117.459C100.715 116.964 100.518 116.489 100.168 116.139C99.8176 115.788 99.3425 115.592 98.8472 115.592H95.0333Z" stroke="black" stroke-width="1.05992" stroke-miterlimit="10"/>
<path d="M69.4674 78.4661C69.9566 79.1398 70.3077 79.9035 70.501 80.7132L78.344 113.41C78.5173 114.12 78.5625 114.855 78.4778 115.581C78.3104 117.143 77.5715 118.587 76.4032 119.637C75.2349 120.686 73.7196 121.267 72.149 121.267H15.46C14.0287 121.266 12.6392 120.783 11.5156 119.897C10.3918 119.01 9.5991 117.771 9.26504 116.38L1.43087 83.6823C1.2046 82.7457 1.19398 81.7698 1.39982 80.8284C1.60564 79.8872 2.02256 79.0048 2.61912 78.2482C3.21568 77.4913 3.9763 76.88 4.84358 76.4602C5.71087 76.0401 6.66219 75.8227 7.62579 75.824H64.3061C65.2372 75.8227 66.1571 76.0268 67.0002 76.4215C67.8435 76.8163 68.5892 77.3924 69.1843 78.1084L69.4674 78.4661Z" stroke="black" stroke-width="1.05992" stroke-miterlimit="10"/>
<path d="M41.9661 107.511C45.1944 106.493 46.8841 102.726 45.7401 99.0982C44.5962 95.4699 41.0517 93.3538 37.8232 94.3715C34.595 95.3895 32.9053 99.1559 34.0492 102.784C35.1932 106.412 38.7377 108.529 41.9661 107.511Z" fill="#D7E8F0"/>
<path d="M150.88 82.1112C145.879 82.9472 142.034 85.2338 139.453 89.9673C137.142 94.2025 136.873 99.3705 139.337 103.573L129.275 99.715C123.449 97.0466 121.4 91.1172 123.734 85.0276C126.51 77.7727 135.319 76.9301 141.839 78.7778C143.166 79.1508 144.492 79.5766 145.804 80.0462C147.518 80.6606 149.21 81.349 150.88 82.1112Z" fill="#353642"/>
<path d="M33.7021 75.8287C37.6938 70.6707 43.1982 66.8896 49.4451 65.0145C48.613 62.7794 47.9529 60.4838 47.4701 58.1481C42.2868 32.9383 58.4972 8.29247 83.7004 3.09383C108.904 -2.10481 133.558 14.099 138.755 39.3022C139.335 42.1264 139.659 44.9976 139.72 47.8802C141.521 47.2414 143.363 46.7282 145.235 46.3441C167.26 41.7907 188.81 55.9624 193.357 77.9924C194.64 84.1867 194.461 90.5949 192.833 96.7075C191.205 102.82 188.174 108.469 183.98 113.204" stroke="#9F9F9F" stroke-width="1.05992" stroke-miterlimit="10"/>
<path d="M88.6406 115.594H90.1965C90.6437 115.605 91.0874 115.511 91.4923 115.321C91.8972 115.131 92.2522 114.848 92.5292 114.497C92.5364 114.489 92.5417 114.479 92.5445 114.468C93.1026 113.705 93.3567 112.762 93.2577 111.822L93.1305 110.832L93.0251 110.033L93.407 109.814L99.389 106.285L99.7928 106.053C102.714 104.334 102.924 101.13 101.779 98.0955C101.759 98.0406 101.744 97.9902 101.724 97.9397C101.673 97.8124 101.623 97.6939 101.575 97.5732C101.282 96.8991 100.936 96.2491 100.541 95.6289C99.0291 93.2655 96.8369 91.3432 94.75 90.8407C94.1654 90.7075 93.5676 90.6412 92.9681 90.6432C91.7172 90.6432 90.3347 90.8823 89.6084 91.6043C97.3679 83.9698 106.433 76.805 117.337 74.582C125.979 72.8006 134.916 73.0378 143.451 75.2755C153.423 77.9285 162.411 83.4434 169.532 90.8826C169.907 91.2732 170.274 91.668 170.629 92.0717C179.554 101.881 185.247 114.271 188.843 126.95" stroke="black" stroke-width="1.05992" stroke-miterlimit="10"/>
<path d="M91.376 126.958H198.75" stroke="black" stroke-width="1.05992" stroke-miterlimit="10"/>
<path d="M118.408 126.955H130.592" stroke="black" stroke-width="0.706611" stroke-miterlimit="10"/>
<path d="M128.592 99.6113C122.94 97.0373 119.938 89.9382 122.198 84.0637C124.893 77.0612 133.436 76.2471 139.753 78.029C141.044 78.3904 142.326 78.7986 143.6 79.2535C157.805 84.3007 170.713 94.7792 177.761 108.056C178.356 109.179 178.83 110.333 179.31 111.51C179.958 113.09 180.226 114.8 180.09 116.503C179.955 118.205 179.422 119.852 178.533 121.31C177.644 122.768 176.424 123.997 174.973 124.897C173.521 125.797 171.879 126.343 170.177 126.491L130.592 126.954H118.408C117.332 126.954 116.282 126.617 115.407 125.991C114.532 125.364 113.875 124.48 113.528 123.461C112.191 119.511 113.918 116.531 116.102 114.501C118.379 112.385 121.351 111.176 124.441 110.864L146.679 108.617C146.892 108.596 147.093 108.509 147.256 108.37C147.418 108.23 147.534 108.045 147.588 107.838C147.643 107.631 147.632 107.412 147.559 107.211C147.485 107.01 147.352 106.836 147.177 106.713L128.592 99.6113Z" stroke="black" stroke-width="1.05992" stroke-miterlimit="10"/>
<path d="M121.963 115.179C119.933 116.347 117.846 118.175 117.148 120.49C116.345 123.156 118.23 125.579 120.372 126.966" stroke="black" stroke-width="1.05992" stroke-miterlimit="10"/>
<path d="M124.141 118.239C122.247 120.04 120.605 122.325 121.701 125.041C122.014 125.787 122.501 126.446 123.123 126.964" stroke="black" stroke-width="1.05992" stroke-miterlimit="10"/>
<path d="M127.855 121.763C127.855 121.763 123.494 125.004 126.264 126.948" stroke="black" stroke-width="1.05992" stroke-miterlimit="10"/>
<path d="M116.664 126.645L116.741 126.957H109.705C107.405 126.957 104.219 126.604 104.52 124.036C104.82 121.469 113.056 120.769 113.056 120.769" stroke="black" stroke-width="1.05992" stroke-miterlimit="10"/>
<path d="M104.044 45.9091L89.071 48.1496L91.6802 49.9886L96.5606 53.8969C97.3243 54.4345 97.1334 55.7029 97.5569 56.4732C97.7178 57.6358 97.535 58.8199 97.0313 59.88C96.5277 60.94 95.725 61.8296 94.7221 62.4392C93.7193 63.049 92.5599 63.3521 91.387 63.3113C90.2143 63.2702 89.0789 62.8873 88.1208 62.2094L76.3476 53.9276C75.048 53.0303 74.005 51.8095 73.3215 50.3858C72.3581 45.5909 75.314 40.2584 81.002 39.4135L97.3682 36.9558L94.9543 35.0817L87.5217 29.2972C86.8851 28.8043 86.3538 28.1885 85.9593 27.4867C85.794 26.2987 85.9874 25.0882 86.5145 24.0105C87.0418 22.933 87.8787 22.0375 88.9185 21.4389C89.958 20.8402 91.1526 20.5657 92.3493 20.6506C93.5459 20.7353 94.6899 21.1757 95.6346 21.915L108.893 32.2289C109.978 33.0617 110.854 34.1341 111.454 35.3626C112.358 39.9973 109.466 45.095 104.044 45.9091Z" fill="#84ADFF"/>
<path d="M93.027 110.031C93.027 110.031 92.5705 106.015 91.0234 104.6" stroke="black" stroke-width="1.05992" stroke-miterlimit="10"/>
<path d="M73.9062 95.6164C75.4002 94.8826 77.0314 94.4702 78.6945 94.4059C80.3577 94.3416 82.0158 94.6269 83.5618 95.2433C84.0698 95.4307 84.6208 95.4683 85.1495 95.3515C85.6781 95.2348 86.1622 94.9688 86.5441 94.585L89.6009 91.5918" stroke="black" stroke-width="1.05992" stroke-miterlimit="10"/>
<path d="M83.623 112.675L86.1752 113.823C86.232 113.846 86.293 113.857 86.3545 113.856C86.4159 113.854 86.4763 113.84 86.5318 113.813C86.5871 113.787 86.6365 113.749 86.6762 113.702C86.7161 113.655 86.7457 113.601 86.7633 113.542L87.1649 112.633" stroke="black" stroke-width="1.05992" stroke-miterlimit="10"/>
<path d="M84.04 107.606C84.2539 108.097 84.3281 108.637 84.2546 109.168C84.1809 109.698 83.9625 110.198 83.623 110.612" stroke="black" stroke-width="0.706611" stroke-miterlimit="10"/>
<path d="M89.8298 115.592C90.2314 114.997 90.2292 113.559 90.1261 112.982C90.0602 112.616 89.4436 112.484 89.3778 112.853C89.1978 113.882 88.037 115.464 86.9639 115.592" stroke="black" stroke-width="1.05992" stroke-miterlimit="10"/>
<path d="M84.6767 111.712C86.4862 111.712 87.953 110.245 87.953 108.436C87.953 106.626 86.4862 105.159 84.6767 105.159C82.8672 105.159 81.4004 106.626 81.4004 108.436C81.4004 110.245 82.8672 111.712 84.6767 111.712Z" stroke="black" stroke-width="1.05992" stroke-miterlimit="10"/>
<path d="M83.5791 111.521L82.9954 113.162C82.59 113.018 82.1601 112.954 81.7305 112.976C81.3008 112.998 80.8795 113.104 80.4908 113.289C80.1022 113.473 79.7537 113.733 79.4654 114.052C79.177 114.372 78.9545 114.745 78.8105 115.15" stroke="black" stroke-width="1.05992" stroke-miterlimit="10"/>
<path opacity="0.53" d="M84.6771 111.209C86.209 111.209 87.4509 109.968 87.4509 108.436C87.4509 106.904 86.209 105.662 84.6771 105.662C83.1452 105.662 81.9033 106.904 81.9033 108.436C81.9033 109.968 83.1452 111.209 84.6771 111.209Z" fill="white"/>
<path d="M78.0566 112.276C79.088 111.653 79.9219 110.74 80.1699 109.498C80.3762 108.443 80.0865 107.185 79.8385 106.138C79.6002 105.044 79.2495 103.978 78.7918 102.956C80.3849 103.249 82.0145 103.286 83.6196 103.068C84.3679 102.985 87.9404 101.62 85.7964 100.955C84.9222 100.718 84.0712 100.403 83.2531 100.014C82.6211 99.6867 81.5129 99.0503 81.4734 98.2428C81.4708 98.0246 81.5315 97.8103 81.6483 97.6259C81.7653 97.4418 81.9331 97.2954 82.1317 97.2048C82.4271 97.0716 82.7484 97.0053 83.0725 97.011C83.3964 97.0167 83.7152 97.0942 84.0058 97.2377C84.4925 97.4666 84.9375 97.7751 85.3224 98.1506C86.0027 98.8089 86.3736 99.4673 87.4401 99.2983C88.0839 99.1596 88.7072 98.9382 89.2944 98.64C89.9863 98.3233 90.5509 97.7819 90.8963 97.1039C91.4274 95.8684 89.6236 94.69 88.6448 94.3367C88.1011 94.1231 87.5066 94.0742 86.9354 94.1962" stroke="black" stroke-width="1.05992" stroke-miterlimit="10"/>
<path d="M104.043 45.9092L89.0703 48.1497L91.6795 49.9887L95.0546 52.3587C95.7171 52.8074 96.2834 53.3837 96.721 54.0537C97.1584 54.7236 97.4579 55.4741 97.6021 56.2611C97.746 57.0482 97.732 57.856 97.5606 58.6376C97.389 59.4191 97.0636 60.1586 96.603 60.813C96.1426 61.4674 95.5562 62.0234 94.8786 62.4487C94.2007 62.874 93.4452 63.16 92.6556 63.2901C91.866 63.42 91.0585 63.3915 90.2803 63.206C89.502 63.0204 88.7684 62.6818 88.1223 62.2095L76.3491 53.9277C75.0496 53.0304 74.0065 51.8096 73.323 50.3859C70.8191 45.1872 73.7465 38.2638 80.2881 37.2872L93.2727 35.343L94.9536 35.0818L87.521 29.2973C86.8969 28.8116 86.3747 28.2077 85.984 27.5202C85.5934 26.8327 85.3419 26.0747 85.2441 25.29C85.1464 24.5055 85.2041 23.7091 85.4139 22.9465C85.6239 22.1842 85.9821 21.4706 86.4677 20.8465C86.9533 20.2226 87.5572 19.7003 88.245 19.3095C88.9325 18.9189 89.6902 18.6674 90.475 18.5697C91.2597 18.4718 92.0561 18.5296 92.8184 18.7396C93.5808 18.9494 94.2944 19.3075 94.9185 19.7931L108.177 30.107C109.875 31.3978 111.037 33.2677 111.445 35.3605C112.358 39.9974 109.465 45.0951 104.043 45.9092Z" stroke="black" stroke-width="1.05992" stroke-miterlimit="10"/>
<path d="M71.1794 71.3628L71.0346 67.5379L69.3383 69.2759C69.0506 69.5699 68.6578 69.7378 68.2466 69.7428C67.8351 69.7477 67.4386 69.5892 67.1438 69.3022C66.8498 69.0145 66.6819 68.6217 66.6769 68.2105C66.672 67.799 66.8305 67.4025 67.1175 67.1078L70.1568 64.0048C70.47 63.6842 70.8705 63.4626 71.3082 63.3673C71.7463 63.2721 72.2025 63.3072 72.6205 63.4687C73.0386 63.63 73.4002 63.9105 73.6605 64.2754C73.9207 64.6401 74.0682 65.0733 74.0849 65.5212L74.2275 69.4229L75.4783 68.0119C75.6135 67.8587 75.7777 67.7338 75.9613 67.6445C76.1448 67.555 76.3443 67.5025 76.5481 67.4902C76.752 67.478 76.9563 67.5063 77.1494 67.5732C77.3423 67.6401 77.5203 67.7444 77.6728 67.8802C77.8257 68.0154 77.9506 68.1795 78.0401 68.363C78.1297 68.5464 78.1821 68.7459 78.1946 68.9498C78.2069 69.1534 78.179 69.3577 78.1126 69.5508C78.0461 69.7437 77.942 69.9219 77.8066 70.0746L75.3423 72.855C75.0278 73.2138 74.6129 73.4697 74.1509 73.5893C73.6892 73.7091 73.202 73.6869 72.7528 73.5258C72.3039 73.365 71.9137 73.0725 71.633 72.6867C71.3523 72.3009 71.1943 71.8396 71.1794 71.3628Z" fill="#D7E8F0"/>
<path d="M83.8938 78.2623L85.6998 77.8585L84.7233 77.2002C84.5578 77.0885 84.4433 76.916 84.4046 76.7204C84.366 76.5247 84.4064 76.3215 84.517 76.1556C84.6285 75.9899 84.8012 75.8754 84.9969 75.8372C85.1929 75.799 85.3959 75.84 85.5616 75.9515L87.3039 77.1168C87.4845 77.2372 87.6256 77.4082 87.7099 77.6083C87.7942 77.8084 87.8179 78.029 87.7779 78.2423C87.7378 78.4558 87.6362 78.6527 87.4852 78.8089C87.3342 78.9649 87.1407 79.0731 86.9287 79.1203L85.0788 79.5372L85.8622 80.009C85.9467 80.0599 86.0204 80.1271 86.0788 80.2063C86.1374 80.2858 86.1797 80.376 86.2034 80.4718C86.2269 80.5677 86.2315 80.6671 86.2166 80.7648C86.2019 80.8622 86.1679 80.9559 86.1167 81.0404C86.0138 81.2109 85.8475 81.3338 85.6542 81.3819C85.4608 81.4299 85.2563 81.3994 85.0854 81.2972L83.5492 80.3689C83.3517 80.2509 83.1942 80.076 83.0972 79.8673C83.0002 79.6586 82.9682 79.4255 83.0052 79.1984C83.0423 78.9713 83.147 78.7604 83.3054 78.5936C83.4639 78.4266 83.6688 78.3112 83.8938 78.2623Z" fill="#D7E8F0"/>
<path d="M79.3278 88.8109L79.4748 87.6039L78.8538 88.0648C78.8018 88.1036 78.7428 88.1317 78.6798 88.1475C78.6168 88.1635 78.5514 88.1668 78.4873 88.1576C78.423 88.1482 78.3614 88.1262 78.3056 88.0929C78.2499 88.0597 78.2014 88.0158 78.1626 87.9638C78.0849 87.8585 78.0517 87.7268 78.0706 87.5974C78.0895 87.4679 78.1588 87.3511 78.2635 87.2726L79.3607 86.4497C79.4751 86.3645 79.6118 86.3147 79.7542 86.3064C79.8964 86.2982 80.0381 86.332 80.1615 86.4034C80.2848 86.4749 80.3844 86.5811 80.4481 86.7086C80.5117 86.8361 80.5365 86.9796 80.5194 87.1212L80.3702 88.3544L80.8332 87.9726C80.8832 87.9313 80.9412 87.9004 81.0033 87.8813C81.0654 87.8624 81.1305 87.8561 81.1951 87.8622C81.2598 87.8686 81.3226 87.8877 81.3798 87.9182C81.4369 87.9489 81.4876 87.9904 81.5288 88.0406C81.5701 88.0907 81.601 88.1484 81.6199 88.2105C81.639 88.2726 81.6454 88.338 81.639 88.4025C81.6328 88.4672 81.6138 88.5298 81.5833 88.587C81.5525 88.6443 81.5111 88.695 81.4608 88.7363L80.5479 89.4868C80.4312 89.5796 80.2894 89.636 80.1406 89.6483C79.9918 89.6608 79.8426 89.6287 79.7121 89.5563C79.5815 89.4841 79.4753 89.3746 79.4068 89.2419C79.3386 89.1091 79.3109 88.9592 79.3278 88.8109Z" fill="#D7E8F0"/>
<path d="M150.88 82.2627L150.788 82.4185C150.718 82.3746 150.645 82.3366 150.568 82.3044L150.88 82.2627Z" fill="#353642"/>
</svg>
