<svg width="272" height="189" viewBox="0 0 272 189" fill="none" xmlns="http://www.w3.org/2000/svg">
<path d="M248.137 20.2812H193.987C191.23 20.2812 188.995 22.5162 188.995 25.2732V102.706C188.995 105.463 191.23 107.698 193.987 107.698H248.137C250.894 107.698 253.129 105.463 253.129 102.706V25.2732C253.129 22.5162 250.894 20.2812 248.137 20.2812Z" stroke="#9ED5CF" stroke-miterlimit="10"/>
<path d="M245.8 29.2871H196.981C195.603 29.2871 194.485 30.4046 194.485 31.7831V42.1661C194.485 43.5446 195.603 44.6621 196.981 44.6621H245.8C247.179 44.6621 248.296 43.5446 248.296 42.1661V31.7831C248.296 30.4046 247.179 29.2871 245.8 29.2871Z" stroke="#9ED5CF" stroke-miterlimit="10"/>
<path d="M221.062 35.764C221.94 35.764 222.652 35.0521 222.652 34.174C222.652 33.2959 221.94 32.584 221.062 32.584C220.184 32.584 219.472 33.2959 219.472 34.174C219.472 35.0521 220.184 35.764 221.062 35.764Z" fill="#BEE3DE"/>
<path d="M216.619 41.3688C216.619 40.1904 217.087 39.0603 217.921 38.2272C218.754 37.3938 219.884 36.9258 221.062 36.9258C222.241 36.9258 223.371 37.3938 224.204 38.2272C225.037 39.0603 225.505 40.1904 225.505 41.3688H216.619Z" fill="#BEE3DE"/>
<path d="M221.386 61.1426C219.692 61.1432 218.036 61.646 216.628 62.5874C215.22 63.5288 214.123 64.8668 213.475 66.4319C212.827 67.997 212.658 69.719 212.989 71.3804C213.32 73.0415 214.136 74.5673 215.334 75.7649C216.532 76.9625 218.058 77.7779 219.719 78.1082C221.381 78.4385 223.103 78.2687 224.667 77.6201C226.232 76.9718 227.57 75.8741 228.511 74.4656C229.452 73.0571 229.954 71.4014 229.954 69.7076C229.954 68.5826 229.732 67.4684 229.302 66.4292C228.871 65.3897 228.24 64.4453 227.444 63.65C226.649 62.8547 225.704 62.2238 224.665 61.7936C223.625 61.3634 222.511 61.142 221.386 61.1426ZM221.386 76.2056C221.064 76.1897 220.761 76.0508 220.539 75.8177C220.317 75.5846 220.193 75.275 220.193 74.9531C220.193 74.6309 220.317 74.3213 220.539 74.0882C220.761 73.8551 221.064 73.7162 221.386 73.7006C221.708 73.7162 222.011 73.8551 222.233 74.0882C222.455 74.3213 222.579 74.6309 222.579 74.9531C222.579 75.275 222.455 75.5846 222.233 75.8177C222.011 76.0508 221.708 76.1897 221.386 76.2056ZM222.967 66.5726C222.703 68.4296 222.481 70.3796 221.926 72.1856C221.794 72.6206 220.978 72.6206 220.846 72.1856C220.455 70.8278 220.154 69.4457 219.946 68.0486C219.775 67.0316 219.181 65.3846 219.748 64.3976C220.249 63.4976 221.659 63.4076 222.478 63.8696C223.483 64.4366 223.087 65.6486 222.967 66.5726Z" fill="#BEE3DE"/>
<path d="M127.669 37.6372C124.666 36.7417 121.465 36.757 118.471 37.6807C115.477 38.6047 112.824 40.3957 110.847 42.8275C108.871 45.2593 107.66 48.2224 107.368 51.3424C107.076 54.4621 107.715 57.5986 109.206 60.355C110.696 63.1114 112.971 65.3641 115.741 66.8278C118.512 68.2915 121.654 68.9008 124.771 68.5786C127.888 68.2561 130.84 67.0168 133.252 65.017C135.665 63.0175 137.43 60.3472 138.325 57.3442C138.92 55.3504 139.116 53.2591 138.902 51.1897C138.688 49.1203 138.069 47.1133 137.079 45.2833C136.09 43.4533 134.749 41.8363 133.135 40.5244C131.52 39.2122 129.663 38.2312 127.669 37.6372ZM119.71 64.3372C119.138 64.1482 118.662 63.7438 118.383 63.2095C118.104 62.6755 118.045 62.0536 118.217 61.4761C118.389 60.8986 118.779 60.4111 119.305 60.1168C119.831 59.8225 120.451 59.7448 121.033 59.9002C121.333 59.98 121.613 60.1192 121.857 60.3091C122.102 60.4993 122.306 60.7366 122.457 61.0069C122.608 61.2772 122.704 61.5754 122.738 61.8832C122.772 62.191 122.744 62.5027 122.656 62.7997C122.567 63.0964 122.42 63.3727 122.223 63.6118C122.026 63.8506 121.783 64.0477 121.508 64.1911C121.233 64.3345 120.933 64.4212 120.624 64.4464C120.315 64.4713 120.004 64.4344 119.71 64.3372ZM127.6 48.0952C126.151 51.2482 124.723 54.5872 122.8 57.4942C122.338 58.1962 120.889 57.7642 120.886 56.9242C120.911 54.3136 121.111 51.7078 121.486 49.1242C121.72 47.2372 121.537 44.0032 123.064 42.5512C124.42 41.2522 126.964 41.8102 128.179 43.0582C129.64 44.5822 128.302 46.5232 127.6 48.0952Z" fill="#9ED5CF"/>
<path d="M83.419 72.7154C82.3204 73.8335 81.5779 75.2522 81.2857 76.7921C80.9932 78.332 81.1639 79.9241 81.7765 81.3671C82.3888 82.8101 83.4151 84.0389 84.7261 84.8984C86.0368 85.7579 87.5728 86.2097 89.1403 86.1962C90.7078 86.1827 92.236 85.7051 93.532 84.8231C94.8277 83.9411 95.833 82.6949 96.4204 81.2417C97.0081 79.7885 97.1515 78.1937 96.8329 76.6589C96.5143 75.1241 95.7475 73.7186 94.63 72.6194C93.1303 71.1458 91.1071 70.328 89.0047 70.346C86.9023 70.364 84.8932 71.2163 83.419 72.7154ZM93.361 82.4864C93.2545 82.595 93.1276 82.6814 92.9875 82.7408C92.8474 82.8005 92.6971 82.8317 92.545 82.8332C92.3929 82.8344 92.242 82.8059 92.101 82.7489C91.96 82.6922 91.8316 82.6079 91.723 82.5014C91.6144 82.3949 91.528 82.268 91.4686 82.1279C91.4089 81.9881 91.3777 81.8375 91.3762 81.6854C91.375 81.5333 91.4035 81.3824 91.4605 81.2414C91.5172 81.1004 91.6015 80.972 91.708 80.8634C91.9231 80.6441 92.2168 80.5196 92.524 80.5166C92.8312 80.5139 93.1267 80.6333 93.346 80.8484C93.5653 81.0635 93.6898 81.3572 93.6928 81.6644C93.6955 81.9716 93.5761 82.2671 93.361 82.4864ZM88.03 75.1994C89.083 76.5794 90.226 77.9924 91.057 79.5284C91.258 79.8974 90.73 80.4284 90.358 80.2424C89.2123 79.6169 88.1098 78.9155 87.058 78.1424C86.275 77.5994 84.805 76.9214 84.52 75.9044C84.262 75.0044 85.12 74.0024 85.942 73.7654C86.953 73.4714 87.496 74.5184 88.03 75.1994Z" fill="#9ED5CF"/>
<path d="M199.867 51.5273H241.708" stroke="#9ED5CF" stroke-miterlimit="10"/>
<path d="M199.867 55.6465H241.708" stroke="#9ED5CF" stroke-miterlimit="10"/>
<path d="M199.867 82.166H241.708" stroke="#9ED5CF" stroke-miterlimit="10"/>
<path d="M209.584 86.0625H231.988" stroke="#9ED5CF" stroke-miterlimit="10"/>
<path d="M253.132 76.7598C256.822 81.3978 260.332 87.1458 263.506 94.2288C282.832 137.387 258.676 159.29 258.676 159.29" stroke="#9F9F9F" stroke-miterlimit="10"/>
<path d="M51.277 110.981C51.277 110.981 22.6 78.4521 58.36 62.3451C94.12 46.2381 101.2 44.0002 98.62 27.2452C96.04 10.4902 116.32 -6.57085 148.213 4.70315C180.106 15.9771 180.745 37.2231 178.483 53.6481C177.199 63.0111 182.512 65.2612 188.983 64.7902" stroke="#9F9F9F" stroke-miterlimit="10"/>
<path d="M251.11 173.328C251.037 175.123 250.572 176.881 249.748 178.479C249.716 178.558 249.677 178.635 249.634 178.71C248.188 181.307 246.165 183.539 243.721 185.232L243.634 185.292C241.428 186.767 238.946 187.783 236.338 188.277H264.1C264.1 188.277 260.386 135.312 226.252 109.542C193.219 84.6056 162.292 96.6236 160.33 97.4276C160.938 99.1436 161.21 100.961 161.131 102.78C161.131 102.78 163.615 104.073 164.029 108.702C164.443 113.331 165.307 126.201 157 128.625C157 128.625 149.542 128.442 147.571 125.58C145.6 122.718 145.126 123.3 144.352 124.026C143.752 124.575 140.131 126.537 138.46 127.437C138.671 127.447 138.881 127.476 139.087 127.524C139.087 127.524 140.044 135.6 151.753 148.257C152.15 148.674 152.524 149.113 152.875 149.571C154.643 151.116 156.63 152.694 158.836 154.305L172.198 164.082C172.499 164.338 172.857 164.52 173.242 164.613C173.99 164.801 174.771 164.808 175.522 164.634C177.076 164.334 187.687 163.251 194.554 162.567C194.71 162.567 194.875 162.537 195.028 162.519L195.928 162.432C196.072 162.432 196.228 162.402 196.354 162.393L197.164 162.315C197.56 162.276 197.917 162.237 198.247 162.21L199.147 162.123C199.942 162.045 200.413 161.997 200.452 161.997C202.088 161.95 203.719 161.792 205.333 161.523C206.878 161.223 208.288 160.74 208.654 159.939C208.723 159.77 208.749 159.586 208.729 159.405C208.646 158.895 208.433 158.415 208.111 158.013C206.701 156.12 203.425 154.497 203.185 154.38C203.178 154.377 203.171 154.377 203.164 154.38L203.098 154.332L183.598 139.182H183.577C183.577 139.182 186.514 107.85 213.277 115.56C213.277 115.56 213.403 115.647 213.634 115.839C214.678 116.643 217.963 119.307 222.793 124.284C222.919 124.419 223.054 124.554 223.189 124.698C223.702 125.22 224.206 125.763 224.707 126.294C228.097 129.918 232.108 134.535 236.533 140.292L236.563 140.322C241.633 146.922 245.287 152.97 247.663 158.322V158.34C250.234 164.157 251.317 169.14 251.104 173.115C251.111 173.185 251.113 173.256 251.11 173.328ZM170.389 119.475C169.597 110.346 174.04 107.04 174.289 106.857C167.971 118.287 179.689 135.807 180.1 136.485C179.764 136.203 171.181 128.601 170.389 119.475Z" fill="#353642"/>
<path d="M153.607 117.684C153.278 117.925 152.936 118.148 152.581 118.35L150.523 114.75C155.269 112.323 156.601 108.045 154.513 105.696C153.929 105.053 153.177 104.587 152.341 104.352C150.241 103.716 148.786 104.652 147.799 105.909C146.994 107.001 146.403 108.237 146.059 109.551L145.057 97.9947L144.979 97.0947C144.979 97.0947 142.795 96.0117 136.879 96.9777C130.963 97.9437 129.874 101.211 127.333 99.7617C124.792 98.3127 123.352 98.4297 123.352 98.4297C122.629 101.085 120.694 101.085 120.694 101.085C120.236 101.029 119.785 100.92 119.353 100.758C116.608 98.2347 115.864 93.8577 115.864 93.8577C118.744 93.5007 118.966 90.7287 118.636 88.4577C120.232 89.4057 122.482 89.4717 125.641 87.4437C134.704 81.6477 143.998 84.7857 147.265 85.2687C148.723 85.4817 150.319 84.9687 151.642 84.3687C151.813 84.675 152.051 84.9384 152.338 85.1397C154.543 86.676 156.362 88.7031 157.651 91.0617C166.156 106.959 156.832 115.401 153.607 117.684Z" fill="#344054"/>
<path d="M119.656 188.282H123.076C124.539 188.28 125.941 187.698 126.975 186.664C128.009 185.63 128.591 184.227 128.593 182.765V178.937C128.593 178.588 128.524 178.242 128.39 177.92C128.257 177.597 128.061 177.305 127.814 177.058C127.567 176.811 127.274 176.616 126.952 176.483C126.629 176.349 126.284 176.281 125.935 176.282H105.481C105.482 177.096 105.322 177.903 105.01 178.656C104.699 179.409 104.242 180.093 103.665 180.669C103.089 181.245 102.405 181.702 101.652 182.013C100.899 182.324 100.092 182.484 99.277 182.483H25.366C25.3669 184.02 25.978 185.495 27.0655 186.582C28.1527 187.67 29.6272 188.281 31.165 188.282H131.365C131.496 188.282 131.626 188.256 131.747 188.207C131.867 188.157 131.978 188.083 132.07 187.991C132.163 187.898 132.236 187.788 132.286 187.667C132.336 187.546 132.361 187.416 132.361 187.286V181.073C132.361 179.865 132.84 178.708 133.694 177.855C134.547 177.001 135.705 176.522 136.912 176.522C138.119 176.522 139.277 177.001 140.13 177.855C140.984 178.708 141.463 179.865 141.463 181.073V187.286C141.463 187.416 141.488 187.546 141.538 187.667C141.587 187.787 141.66 187.897 141.753 187.99C141.845 188.082 141.955 188.156 142.075 188.206C142.196 188.256 142.325 188.282 142.456 188.282H264.1C264.1 188.282 260.386 135.305 226.252 109.538C193.219 84.6017 162.292 96.6197 160.33 97.4237L160.234 97.4597" stroke="black" stroke-miterlimit="10"/>
<path d="M126.127 110.389C126.126 110.722 126.026 111.048 125.84 111.324C125.654 111.6 125.391 111.816 125.083 111.942C124.775 112.069 124.436 112.102 124.109 112.036C123.783 111.971 123.483 111.81 123.248 111.575C123.012 111.339 122.852 111.038 122.787 110.712C122.722 110.385 122.756 110.047 122.883 109.739C123.01 109.431 123.226 109.168 123.503 108.983C123.779 108.797 124.105 108.698 124.438 108.697C124.568 108.698 124.698 108.714 124.825 108.745C124.65 108.8 124.498 108.91 124.39 109.058C124.282 109.206 124.224 109.384 124.225 109.567C124.224 109.682 124.246 109.796 124.289 109.903C124.333 110.009 124.397 110.106 124.478 110.187C124.558 110.269 124.655 110.334 124.76 110.378C124.866 110.423 124.98 110.446 125.095 110.446C125.305 110.442 125.507 110.365 125.666 110.227C125.825 110.09 125.931 109.901 125.965 109.693C126.068 109.911 126.124 110.148 126.127 110.389Z" fill="black"/>
<path d="M137.83 110.861C137.831 111.196 137.732 111.523 137.546 111.802C137.361 112.08 137.097 112.298 136.788 112.426C136.479 112.555 136.138 112.589 135.81 112.524C135.481 112.459 135.18 112.298 134.943 112.062C134.706 111.825 134.544 111.524 134.479 111.195C134.413 110.867 134.447 110.527 134.574 110.217C134.703 109.908 134.919 109.644 135.198 109.458C135.476 109.271 135.803 109.172 136.138 109.172C136.219 109.171 136.299 109.181 136.378 109.199C136.228 109.268 136.102 109.378 136.013 109.517C135.924 109.656 135.877 109.817 135.877 109.982C135.867 110.213 135.948 110.438 136.104 110.609C136.26 110.779 136.477 110.881 136.708 110.891C136.939 110.901 137.164 110.82 137.335 110.664C137.505 110.508 137.607 110.291 137.617 110.06C137.756 110.304 137.829 110.58 137.83 110.861Z" fill="black"/>
<path d="M151.327 81.9922C151.132 83.3062 151.375 84.4582 152.341 85.1422C154.546 86.6785 156.365 88.7056 157.654 91.0642C167.8 110.021 152.581 118.364 152.581 118.364L150.523 114.764C156.448 111.74 157.054 105.818 152.341 104.366C147.628 102.914 146.059 109.565 146.059 109.565L144.979 97.1002C144.979 97.1002 142.795 96.0172 136.879 96.9832C130.963 97.9492 129.874 101.216 127.333 99.7672C124.792 98.3182 123.352 98.4352 123.352 98.4352C122.629 101.09 120.694 101.09 120.694 101.09C115.024 100.367 113.692 92.5222 113.692 92.5222C116.569 92.1622 116.791 89.3902 116.464 87.1222C118.057 88.0702 120.31 88.1392 123.469 86.1082C132.532 80.3122 141.826 83.4532 145.09 83.9362C147.346 84.2632 149.935 82.8832 151.327 81.9922Z" stroke="black" stroke-linecap="round" stroke-linejoin="round"/>
<path d="M156.559 176L158.8 175.1L160.48 179.633L160.216 187.859L157.945 188.27L149.326 187.898C149.326 187.898 149.926 182.882 151.759 180.497C153.592 178.112 156.559 176 156.559 176Z" fill="#9ED5CF"/>
<path d="M117.316 103.862C117.316 103.862 119.611 99.743 124.441 100.172" stroke="black" stroke-miterlimit="10"/>
<path d="M133.9 100.171C133.9 100.171 139.42 98.9321 141.352 102.001" stroke="black" stroke-miterlimit="10"/>
<path d="M142.453 118.82C142.453 118.82 139.153 116.909 136.738 120.122" stroke="black" stroke-miterlimit="10"/>
<path d="M121.6 100.832C121.6 100.832 119.251 128.465 136.768 127.955C139.768 127.868 142.75 125.897 145.6 122.726" stroke="black" stroke-miterlimit="10"/>
<path d="M152.581 125.24L145.6 122.726C145.6 122.726 147.331 128.258 155.905 128.681C164.479 129.104 167.356 109.427 161.056 101.51" stroke="black" stroke-linejoin="round"/>
<path d="M179.875 180.674C179.875 180.674 173.476 185.867 177.823 188.282" stroke="black" stroke-miterlimit="10"/>
<path d="M174.925 175.84C174.925 175.84 163.825 182.122 173.356 188.281" stroke="black" stroke-miterlimit="10"/>
<path d="M171.181 171.012C171.181 171.012 156.448 177.912 167.8 188.283" stroke="black" stroke-miterlimit="10"/>
<path d="M233.137 188.281C233.137 188.281 251.011 188.281 251.251 171.01C251.491 153.739 216.592 110.371 194.008 104.338C171.424 98.3047 170.455 114.838 170.455 115.516C170.455 116.194 169.129 123.316 174.925 130.915C179.401 136.789 199.171 151.453 207.943 157.825C208.265 158.059 208.509 158.386 208.641 158.762C208.772 159.138 208.787 159.545 208.681 159.929C208.576 160.314 208.356 160.657 208.052 160.913C207.747 161.17 207.371 161.327 206.974 161.365L168.178 165.091H168.154C167.788 165.157 154.096 167.683 149.926 171.973C149.926 171.973 147.589 173.704 148.798 176.362C150.007 179.02 153.721 178.144 153.823 178.045" stroke="black" stroke-miterlimit="10"/>
<path opacity="0.26" d="M136.141 113.998C138.809 113.998 140.971 111.835 140.971 109.168C140.971 106.5 138.809 104.338 136.141 104.338C133.473 104.338 131.311 106.5 131.311 109.168C131.311 111.835 133.473 113.998 136.141 113.998Z" fill="white"/>
<path opacity="0.26" d="M123.883 113.521C126.551 113.521 128.713 111.359 128.713 108.691C128.713 106.024 126.551 103.861 123.883 103.861C121.215 103.861 119.053 106.024 119.053 108.691C119.053 111.359 121.215 113.521 123.883 113.521Z" fill="white"/>
<path d="M165.634 175.239C163.936 174.765 161.161 174.339 158.302 175.257C156.904 175.707 155.614 176.441 154.513 177.414C154.273 177.624 154.042 177.837 153.82 178.05C153.341 178.519 152.89 179.014 152.467 179.535C152.411 179.603 152.332 179.649 152.245 179.664C151.18 179.811 144.169 180.921 144.205 184.464C144.238 187.647 147.724 188.169 148.924 188.253C148.973 188.257 149.023 188.251 149.07 188.236C149.117 188.22 149.161 188.195 149.198 188.161C149.235 188.128 149.264 188.088 149.285 188.042C149.306 187.997 149.316 187.948 149.317 187.899C149.317 186.765 149.575 183.21 152.38 179.634" stroke="black" stroke-miterlimit="10"/>
<path d="M102.466 150.232C103.288 156.859 98.1371 159.856 92.5061 160.3" stroke="black" stroke-miterlimit="10"/>
<path d="M84.3221 158.918C82.175 157.758 80.4359 155.967 79.34 153.786C78.2444 151.605 77.8451 149.141 78.1961 146.726C79.0961 140.351 84.4961 135.461 89.7821 132.359C100.882 125.846 125.896 130.559 130.099 131.519C133.321 132.257 136.015 129.737 137.107 128.519C137.154 128.467 137.214 128.43 137.281 128.412C137.347 128.393 137.418 128.394 137.485 128.415C137.551 128.435 137.61 128.474 137.655 128.527C137.699 128.58 137.728 128.645 137.737 128.714C140.044 142.214 166.837 160.538 173.035 164.639" stroke="black" stroke-miterlimit="10"/>
<path d="M109.225 145.65L100.354 151.155C99.8253 151.484 99.2334 151.699 98.6169 151.785C98.0001 151.872 97.3722 151.828 96.7734 151.656C96.1746 151.485 95.6184 151.19 95.1408 150.791C94.6629 150.391 94.2744 149.896 93.9999 149.337C93.5052 148.333 93.4071 147.179 93.7251 146.106C94.0431 145.033 94.7541 144.119 95.7159 143.547L109.216 135.504" stroke="black" stroke-miterlimit="10"/>
<path d="M136.141 113.998C138.809 113.998 140.971 111.835 140.971 109.168C140.971 106.5 138.809 104.338 136.141 104.338C133.473 104.338 131.311 106.5 131.311 109.168C131.311 111.835 133.473 113.998 136.141 113.998Z" stroke="black" stroke-miterlimit="10"/>
<path d="M123.883 112.798C126.151 112.798 127.99 110.959 127.99 108.691C127.99 106.423 126.151 104.584 123.883 104.584C121.615 104.584 119.776 106.423 119.776 108.691C119.776 110.959 121.615 112.798 123.883 112.798Z" stroke="white" stroke-miterlimit="10"/>
<path d="M123.883 113.521C126.551 113.521 128.713 111.359 128.713 108.691C128.713 106.024 126.551 103.861 123.883 103.861C121.215 103.861 119.053 106.024 119.053 108.691C119.053 111.359 121.215 113.521 123.883 113.521Z" stroke="black" stroke-miterlimit="10"/>
<path d="M131.335 108.691H128.713" stroke="black" stroke-miterlimit="10"/>
<path d="M131.335 115.516H129.607C129.498 115.516 129.391 115.493 129.293 115.447C129.194 115.4 129.107 115.333 129.038 115.249C128.968 115.165 128.918 115.068 128.891 114.962C128.864 114.857 128.861 114.747 128.881 114.64L130.024 108.691" stroke="black" stroke-miterlimit="10"/>
<path d="M96.664 132.002C96.664 132.002 90.505 133.331 88.333 142.631C87.013 148.277 85.201 155.48 83.983 160.268C83.8267 160.882 83.8129 161.524 83.9422 162.144C84.0718 162.765 84.3415 163.347 84.7303 163.848C85.1194 164.348 85.6174 164.753 86.1865 165.031C86.7559 165.31 87.3811 165.455 88.015 165.455C88.9612 165.455 89.8795 165.133 90.6178 164.541C91.3564 163.949 91.8709 163.123 92.077 162.2L94.654 150.638" stroke="black" stroke-miterlimit="10"/>
<path d="M102.295 153.741C102.295 153.741 108.76 149.877 121.495 153.741C134.23 157.605 148.87 160.227 153.7 149.979" stroke="black" stroke-miterlimit="10"/>
<path d="M158.305 175.256C158.305 175.256 162.805 180.392 160.069 188.282" stroke="black" stroke-miterlimit="10"/>
<path d="M9.60402 111.389H80.704C82.9942 111.386 85.2187 112.153 87.0193 113.568C88.8199 114.983 90.0922 116.963 90.631 119.189L101.95 166.067C102.255 167.331 102.27 168.649 101.992 169.92C101.715 171.192 101.152 172.384 100.347 173.406C99.5422 174.429 98.5159 175.255 97.3453 175.823C96.1747 176.391 94.8904 176.687 93.589 176.687H22.672C20.3863 176.689 18.166 175.923 16.3675 174.513C14.5691 173.102 13.2965 171.128 12.754 168.908L1.25202 122.039C0.941429 120.772 0.922769 119.452 1.19742 118.178C1.47207 116.903 2.03286 115.708 2.83737 114.682C3.64191 113.656 4.66914 112.827 5.84139 112.256C7.01367 111.685 8.30028 111.389 9.60402 111.389Z" fill="#9ED5CF"/>
<path d="M12.1931 113.404H78.9011C81.05 113.407 83.1359 114.131 84.8246 115.46C86.5136 116.788 87.7079 118.645 88.2161 120.733L98.8421 164.71C99.1289 165.897 99.143 167.133 98.8826 168.326C98.6225 169.518 98.0951 170.637 97.34 171.596C96.5849 172.555 95.6222 173.33 94.5239 173.863C93.4256 174.396 92.2208 174.673 91.0001 174.673H24.4541C22.3118 174.669 20.2325 173.948 18.5474 172.625C16.862 171.303 15.6676 169.454 15.1541 167.374L4.35413 123.394C4.0625 122.206 4.04492 120.967 4.30274 119.771C4.56053 118.575 5.08697 117.454 5.84219 116.491C6.59741 115.529 7.56164 114.751 8.66192 114.216C9.76223 113.681 10.9698 113.403 12.1931 113.404Z" fill="#9ED5CF"/>
<path d="M9.60402 111.389H80.704C82.9942 111.386 85.2187 112.153 87.0193 113.568C88.8199 114.983 90.0922 116.963 90.631 119.189L101.95 166.067C102.255 167.331 102.27 168.649 101.992 169.92C101.715 171.192 101.152 172.384 100.347 173.406C99.5422 174.429 98.5159 175.255 97.3453 175.823C96.1747 176.391 94.8904 176.687 93.589 176.687H22.672C20.3863 176.689 18.166 175.923 16.3675 174.513C14.5691 173.102 13.2965 171.128 12.754 168.908L1.25202 122.039C0.941429 120.772 0.922769 119.452 1.19742 118.178C1.47207 116.903 2.03286 115.708 2.83737 114.682C3.64191 113.656 4.66914 112.827 5.84139 112.256C7.01367 111.685 8.30028 111.389 9.60402 111.389Z" stroke="black" stroke-miterlimit="10"/>
<path d="M82.8999 148.759C82.899 149.12 82.7553 149.466 82.5 149.721C82.245 149.976 81.8988 150.12 81.5379 150.121H74.3079C73.2069 149.017 72.8709 147.466 73.5339 146.344H79.8999C80.5062 146.344 81.099 146.52 81.6072 146.851C82.1151 147.182 82.5162 147.653 82.7619 148.207C82.845 148.38 82.8918 148.567 82.8999 148.759Z" fill="#9ED5CF"/>
<path d="M86.2211 157.099C86.2178 157.461 86.0723 157.807 85.8155 158.062C85.5587 158.317 85.2119 158.461 84.8501 158.462H32.2841C32.9561 157.334 32.6201 155.789 31.5161 154.688H83.2391C83.8457 154.687 84.4394 154.864 84.947 155.196C85.4549 155.528 85.8548 156.001 86.0981 156.556C86.1758 156.727 86.2178 156.912 86.2211 157.099Z" fill="#9ED5CF"/>
<path d="M36.9221 166.7H28.6001C27.9941 166.699 27.401 166.523 26.8931 166.192C26.3852 165.861 25.9841 165.391 25.7381 164.837C25.6556 164.669 25.6085 164.486 25.6001 164.3C25.601 163.937 25.7453 163.59 26.0018 163.333C26.258 163.077 26.6054 162.933 26.9681 162.932H36.1391C35.5001 164.066 35.8271 165.608 36.9221 166.7Z" fill="#9ED5CF"/>
<circle cx="126.5" cy="54" r="20" fill="#7FC8BF"/>
<g clip-path="url(#clip0_7604_100960)">
<path d="M117.5 52C117.5 52.9193 117.682 53.8295 118.033 54.6788C118.385 55.5281 118.901 56.2997 119.551 56.9497C120.201 57.5998 120.972 58.1154 121.822 58.4672C122.671 58.8189 123.581 59 124.5 59C125.42 59 126.33 58.8189 127.179 58.4672C128.029 58.1154 128.8 57.5998 129.45 56.9497C130.1 56.2997 130.616 55.5281 130.968 54.6788C131.319 53.8295 131.5 52.9193 131.5 52C131.5 51.0807 131.319 50.1705 130.968 49.3212C130.616 48.4719 130.1 47.7003 129.45 47.0503C128.8 46.4002 128.029 45.8846 127.179 45.5328C126.33 45.1811 125.42 45 124.5 45C123.581 45 122.671 45.1811 121.822 45.5328C120.972 45.8846 120.201 46.4002 119.551 47.0503C118.901 47.7003 118.385 48.4719 118.033 49.3212C117.682 50.1705 117.5 51.0807 117.5 52Z" stroke="white" stroke-width="5" stroke-linecap="round" stroke-linejoin="round"/>
<path d="M135.5 63L129.5 57" stroke="white" stroke-width="5" stroke-linecap="round" stroke-linejoin="round"/>
</g>
<circle cx="87.5005" cy="79" r="12" fill="#7FC8BF"/>
<g clip-path="url(#clip1_7604_100960)">
<path d="M82.1006 77.8016C82.1006 78.3531 82.2092 78.8993 82.4203 79.4088C82.6314 79.9184 82.9407 80.3814 83.3307 80.7714C83.7207 81.1614 84.1837 81.4708 84.6933 81.6819C85.2029 81.8929 85.749 82.0016 86.3006 82.0016C86.8521 82.0016 87.3983 81.8929 87.9079 81.6819C88.4174 81.4708 88.8804 81.1614 89.2704 80.7714C89.6604 80.3814 89.9698 79.9184 90.1809 79.4088C90.3919 78.8993 90.5006 78.3531 90.5006 77.8016C90.5006 77.25 90.3919 76.7039 90.1809 76.1943C89.9698 75.6847 89.6604 75.2217 89.2704 74.8317C88.8804 74.4417 88.4174 74.1323 87.9079 73.9213C87.3983 73.7102 86.8521 73.6016 86.3006 73.6016C85.749 73.6016 85.2029 73.7102 84.6933 73.9213C84.1837 74.1323 83.7207 74.4417 83.3307 74.8317C82.9407 75.2217 82.6314 75.6847 82.4203 76.1943C82.2092 76.7039 82.1006 77.25 82.1006 77.8016Z" stroke="white" stroke-width="3" stroke-linecap="round" stroke-linejoin="round"/>
<path d="M92.9005 84.4008L89.3005 80.8008" stroke="white" stroke-width="3" stroke-linecap="round" stroke-linejoin="round"/>
</g>
<circle cx="221.5" cy="70" r="10" fill="#9ED5CF"/>
<g clip-path="url(#clip2_7604_100960)">
<path d="M217 69C217 69.4596 217.091 69.9148 217.267 70.3394C217.443 70.764 217.7 71.1499 218.025 71.4749C218.35 71.7999 218.736 72.0577 219.161 72.2336C219.585 72.4095 220.041 72.5 220.5 72.5C220.96 72.5 221.415 72.4095 221.84 72.2336C222.264 72.0577 222.65 71.7999 222.975 71.4749C223.3 71.1499 223.558 70.764 223.734 70.3394C223.91 69.9148 224 69.4596 224 69C224 68.5404 223.91 68.0852 223.734 67.6606C223.558 67.236 223.3 66.8501 222.975 66.5251C222.65 66.2001 222.264 65.9423 221.84 65.7664C221.415 65.5905 220.96 65.5 220.5 65.5C220.041 65.5 219.585 65.5905 219.161 65.7664C218.736 65.9423 218.35 66.2001 218.025 66.5251C217.7 66.8501 217.443 67.236 217.267 67.6606C217.091 68.0852 217 68.5404 217 69Z" stroke="white" stroke-width="3" stroke-linecap="round" stroke-linejoin="round"/>
<path d="M226 74.5L223 71.5" stroke="white" stroke-width="3" stroke-linecap="round" stroke-linejoin="round"/>
</g>
<defs>
<clipPath id="clip0_7604_100960">
<rect width="24" height="24" fill="white" transform="translate(114.5 42)"/>
</clipPath>
<clipPath id="clip1_7604_100960">
<rect width="14.4" height="14.4" fill="white" transform="translate(80.3005 71.8008)"/>
</clipPath>
<clipPath id="clip2_7604_100960">
<rect width="12" height="12" fill="white" transform="translate(215.5 64)"/>
</clipPath>
</defs>
</svg>
