<svg width="250" height="148" viewBox="0 0 250 148" fill="none" xmlns="http://www.w3.org/2000/svg">
<path d="M159.196 21.1631L158.628 20.2329C153.865 12.3755 145.239 7.64342 136.159 8.21775C134.99 8.2919 133.827 8.45088 132.681 8.69342C124.419 10.4552 117.231 16.7094 114.253 24.7113C112.492 29.4152 112.009 34.8343 108.686 38.5693C104.359 43.4282 97.0092 43.5832 90.5507 43.3788C84.0921 43.1745 76.7385 43.3507 72.4328 48.2307C69.7338 51.2856 68.8776 55.6301 69.096 59.7244C69.6703 70.5627 77.2212 80.2524 86.8263 85.0655C96.4314 89.8786 107.735 90.3261 118.242 88.212C132.967 85.2452 146.966 77.0953 155.383 64.5058C163.801 51.9163 165.929 34.7498 159.196 21.1631Z" fill="#EBEBEB"/>
<path d="M90.9312 31.0043C95.7572 31.0043 99.6695 27.092 99.6695 22.266C99.6695 17.4399 95.7572 13.5276 90.9312 13.5276C86.1051 13.5276 82.1929 17.4399 82.1929 22.266C82.1929 27.092 86.1051 31.0043 90.9312 31.0043Z" fill="#EBEBEB"/>
<path d="M34.3893 118.363C35.0834 118.559 35.7308 118.893 36.2927 119.345C36.8545 119.797 37.3193 120.359 37.6592 120.995C38.3309 122.273 38.7009 123.688 38.7409 125.131C38.8959 127.911 37.8177 130.927 36.5246 133.387C33.8855 131.777 32.7615 128.376 32.2964 126.611C31.5635 123.828 31.944 118.349 34.3858 118.363" fill="#A19E9E"/>
<path d="M39.9601 137.432C39.6707 136.679 39.5851 135.864 39.7119 135.067C39.8388 134.271 40.1735 133.523 40.6824 132.897C41.2028 132.282 41.8403 131.778 42.5577 131.412C43.2751 131.046 44.0582 130.826 44.8613 130.765C45.6012 130.695 46.4257 130.765 46.9472 131.304C47.174 131.568 47.3263 131.887 47.3883 132.229C47.4502 132.571 47.4196 132.923 47.2995 133.249C47.054 133.904 46.6394 134.481 46.098 134.923C44.3363 136.509 42.3138 137.721 39.9495 137.432" fill="#A19E9E"/>
<path d="M38.4485 146.29C38.4289 146.099 38.4289 145.907 38.4485 145.716C38.4485 145.31 38.4485 144.785 38.4661 144.155C38.5014 142.847 38.519 140.984 39.2025 139.053C39.7523 137.4 40.7311 135.922 42.039 134.772C42.44 134.433 42.8786 134.143 43.3462 133.905C43.5118 133.817 43.6492 133.771 43.7373 133.732C43.8254 133.693 43.8782 133.679 43.8782 133.686C43.2525 134.025 42.6623 134.425 42.1165 134.881C40.8609 136.037 39.9169 137.491 39.3717 139.109C38.7057 140.998 38.667 142.844 38.5894 144.151C38.5613 144.807 38.5366 145.342 38.5084 145.709C38.5041 145.904 38.4841 146.098 38.4485 146.29Z" fill="#263238"/>
<path d="M34.4775 122.559C34.5099 122.636 34.5335 122.716 34.548 122.799L34.71 123.503C34.8475 124.109 35.0342 124.987 35.2562 126.072C35.7001 128.243 36.271 131.252 36.8277 134.588C37.3844 137.925 37.8178 140.959 38.0997 143.158C38.2441 144.257 38.3498 145.145 38.4168 145.761C38.445 146.054 38.4696 146.29 38.4872 146.466C38.4951 146.549 38.4951 146.633 38.4872 146.716C38.4612 146.636 38.4435 146.553 38.4344 146.47C38.4062 146.29 38.371 146.054 38.3252 145.765C38.23 145.127 38.1032 144.246 37.9446 143.168C37.624 140.977 37.1694 137.95 36.6127 134.617C36.056 131.283 35.5099 128.274 35.1011 126.093C34.9003 125.036 34.7488 124.148 34.6184 123.514C34.5656 123.225 34.5268 122.993 34.4916 122.809C34.4779 122.727 34.4732 122.643 34.4775 122.559Z" fill="#263238"/>
<path d="M36.2745 139.768C35.7148 138.164 34.7812 136.716 33.5509 135.545C32.3205 134.373 30.8288 133.511 29.1993 133.031C28.3677 132.795 27.3248 132.728 26.7927 133.405C26.2607 134.081 26.5778 135.085 27.0217 135.825C27.9758 137.357 29.3621 138.571 31.0057 139.315C32.6493 140.06 34.4765 140.301 36.2568 140.008" fill="#A19E9E"/>
<path d="M30.0131 135.554C30.1908 135.578 30.3655 135.621 30.5346 135.681C30.7392 135.736 30.9404 135.803 31.1371 135.882C31.3626 135.977 31.634 136.058 31.9123 136.202C32.2209 136.341 32.522 136.497 32.8143 136.667C33.1553 136.858 33.4847 137.069 33.8009 137.298C35.2671 138.338 36.4543 139.724 37.2575 141.332C37.432 141.681 37.5862 142.04 37.7191 142.407C37.8418 142.725 37.9454 143.049 38.0291 143.38C38.1207 143.676 38.156 143.957 38.2088 144.197C38.2507 144.404 38.2801 144.614 38.2969 144.824C38.3218 145.003 38.3324 145.183 38.3286 145.363C38.2828 145.363 38.23 144.599 37.8917 143.418C37.8008 143.095 37.6914 142.778 37.564 142.467C37.428 142.105 37.2703 141.752 37.0919 141.41C36.6838 140.631 36.1923 139.898 35.6261 139.225C35.0466 138.563 34.3982 137.964 33.6917 137.439C33.3835 137.211 33.0636 136.999 32.7333 136.805C32.4469 136.629 32.1517 136.468 31.8489 136.322C30.7425 135.779 29.999 135.596 30.0131 135.554Z" fill="#263238"/>
<path d="M189.808 43.9919C189.836 43.9461 190.805 44.5099 192.098 44.975C193.391 45.4401 194.498 45.6339 194.487 45.6797C194.241 45.6889 193.994 45.664 193.754 45.6057C193.169 45.4965 192.594 45.3397 192.035 45.1371C191.477 44.9357 190.938 44.6882 190.421 44.3971C190.197 44.2942 189.99 44.1575 189.808 43.9919Z" fill="#455A64"/>
<path d="M187.451 45.1301C187.707 45.0506 187.972 45.0044 188.24 44.9926C188.882 44.9312 189.527 44.917 190.171 44.9504C190.814 44.9826 191.453 45.0639 192.084 45.1935C192.349 45.2297 192.607 45.302 192.852 45.4084C192.852 45.4648 191.651 45.2076 190.16 45.1336C188.67 45.0596 187.458 45.1864 187.451 45.1301Z" fill="#455A64"/>
<path d="M181.14 141.857C181.14 141.857 182.948 147.033 183.286 146.949C183.624 146.864 194.508 146.949 194.508 146.949C194.508 146.949 194.093 145.68 191.517 145.68C188.941 145.68 187.081 145.85 187.081 145.85L185.985 143.246L181.14 141.857Z" fill="#263238"/>
<path d="M189.297 146.593C189.297 146.593 193.134 145.293 194.093 145.645C195.051 145.998 196.298 146.875 195.854 146.97C195.438 147.023 195.016 147.023 194.6 146.97L189.001 146.589" fill="#263238"/>
<path d="M178.571 55.5456C178.571 55.5456 173.367 60.0556 172.543 62.138C171.718 64.2204 168.093 71.4154 167.515 73.4978C166.937 75.5802 162.934 81.5702 162.934 90.1288C162.934 98.6874 162.473 109.448 164.671 119.744C166.87 130.04 166.521 131.541 165.376 135.473C164.231 139.405 153.703 147.055 153.703 147.055C153.703 147.055 171.169 148.559 177.532 143.816C177.777 143.547 178.085 143.342 178.427 143.219C178.77 143.096 179.138 143.06 179.498 143.112C180.654 143.344 184.124 145.888 185.164 144.962C186.203 144.035 187.363 143.457 186.901 141.607C186.439 139.757 185.513 139.18 186.323 137.33C187.134 135.48 192.222 131.312 194.536 123.68C196.851 116.048 200.896 99.3886 201.013 94.9912C201.129 90.5939 200.78 75.5591 200.551 71.0314C200.322 66.5037 198.004 59.6962 196.615 58.7696C196.615 58.7696 198.462 56.1093 201.421 55.5315C204.381 54.9536 208.278 54.1221 212.017 55.9895C212.017 55.9895 212.485 55.9402 212.33 55.6372C212.175 55.3341 210.216 53.146 207.084 52.0009C203.951 50.8558 202.563 50.4435 201.992 49.8198C201.421 49.1962 196.855 45.3168 192.07 45.1477C184.748 44.8905 181.436 49.3724 178.571 55.5456Z" fill="#455A64"/>
<path d="M197.313 57.9592C197.313 57.9592 193.62 57.3989 192.176 55.8204C190.731 54.2419 193.49 53.1919 192.57 50.4294C191.651 47.667 185.601 49.5098 183.628 50.4294C181.655 51.3491 181.655 53.1919 181.788 56.215C181.922 59.2382 188.363 59.1078 191.654 60.4221C194.945 61.7364 191.859 74.9953 191.908 79.4984C191.957 84.0014 185.869 112.76 185.869 112.76C183.529 114.314 181.073 116.005 179.932 118.571C178.917 120.85 179.107 123.458 179.315 125.938C179.703 130.526 180.088 135.113 180.471 139.701C180.552 140.652 180.548 141.79 179.766 142.333C178.86 142.957 177.652 142.315 176.743 141.685L173.628 139.507C173.41 139.324 173.147 139.203 172.867 139.155C172.668 139.165 172.474 139.216 172.296 139.306C172.119 139.395 171.961 139.52 171.835 139.673C170.496 140.991 169.777 142.844 168.431 144.158C167.258 145.307 165.63 146.026 164.463 147.132C169.315 146.843 174.608 145.983 177.539 143.799C177.784 143.53 178.092 143.325 178.434 143.202C178.777 143.079 179.145 143.042 179.505 143.094C180.661 143.327 181.933 145.138 183.318 145.275C186.242 145.568 187.37 143.439 186.908 141.59C186.447 139.74 185.52 139.162 186.33 137.312C187.141 135.462 192.229 131.294 194.544 123.662C196.859 116.03 200.72 100.055 201.02 94.9736C201.397 88.5538 200.787 75.5415 200.558 71.0138C200.329 66.486 198.011 59.6786 196.622 58.7519C196.838 58.4612 197.074 58.1858 197.327 57.9274L197.313 57.9592Z" fill="#E0E0E0"/>
<path d="M212.115 55.7463C209.596 53.5195 205.202 52.5153 203.306 52.6703C202.648 52.7232 201.925 52.9029 201.562 53.4596C201.532 53.4952 201.512 53.5377 201.503 53.5832C201.494 53.6288 201.496 53.6759 201.509 53.7203C201.531 53.7532 201.56 53.7811 201.593 53.8023C201.627 53.8236 201.664 53.8376 201.703 53.8436C202.103 53.9255 202.513 53.9457 202.919 53.9035C204.769 53.826 207.672 53.3715 212.129 55.7463" fill="#A19E9E"/>
<path d="M188.007 49.1961C187.786 49.2743 187.583 49.3969 187.41 49.5564C187.238 49.7159 187.099 49.9089 187.004 50.1237C186.909 50.3384 186.858 50.5703 186.856 50.8052C186.853 51.0402 186.899 51.2732 186.989 51.4899C187.341 52.2158 188.131 52.5893 188.687 53.1671C189.244 53.745 189.537 54.5096 189.977 55.1755C190.569 56.067 191.566 56.821 192.627 56.6836C192.705 56.683 192.783 56.6623 192.851 56.6234C192.92 56.5846 192.977 56.5289 193.018 56.4616C193.124 56.215 192.831 56.0035 192.63 55.8274C191.993 55.2636 192.095 54.2347 192.394 53.4349C192.694 52.6351 193.145 51.8317 193.025 50.9685C192.88 49.9713 191.94 49.2349 190.957 49.0094C189.974 48.7839 188.945 48.9636 187.951 49.1398" fill="#A19E9E"/>
<path d="M211.921 56.148C211.921 56.1797 211.361 55.8274 210.424 55.387C209.2 54.8199 207.902 54.4273 206.569 54.2207C205.235 54.0169 203.881 53.9685 202.535 54.0762C202.017 54.1114 201.598 54.1537 201.309 54.1854C201.16 54.2125 201.009 54.2232 200.858 54.2171C201.001 54.1685 201.148 54.1343 201.298 54.115C201.587 54.0621 202.003 53.9987 202.524 53.9458C203.88 53.8011 205.249 53.8319 206.597 54.0374C207.945 54.2472 209.252 54.6632 210.473 55.2707C210.837 55.4542 211.19 55.6589 211.53 55.8838C211.67 55.9575 211.801 56.0461 211.921 56.148Z" fill="#263238"/>
<path d="M195.329 91.436C194.951 89.9976 194.48 88.5853 193.92 87.2077C192.158 82.4087 192.042 77.0706 192.451 72.2293L182.458 76.084C181.258 78.275 180.643 80.7382 180.673 83.236C180.703 85.7338 181.376 88.1818 182.627 90.3437C183.406 91.6544 184.417 92.8912 184.72 94.3851C184.956 95.5514 184.72 96.7741 184.981 97.9368C185.203 98.9727 185.788 99.9029 186.017 100.935C186.316 102.274 185.996 103.663 185.721 105.005C185.086 108.13 184.748 111.601 186.425 114.314C186.541 114.531 186.708 114.716 186.912 114.853C187.349 115.11 187.905 114.934 188.356 114.698C190.47 113.574 191.735 111.34 192.873 109.226C193.657 107.884 194.306 106.468 194.811 104.998C195.336 103.268 195.456 101.446 195.572 99.6422C195.766 96.8903 195.939 94.1068 195.329 91.436Z" fill="#455A64"/>
<mask id="mask0_3462_387281" style="mask-type:luminance" maskUnits="userSpaceOnUse" x="180" y="72" width="16" height="43">
<path d="M182.465 76.0876C181.265 78.2785 180.65 80.7418 180.68 83.2396C180.71 85.7374 181.383 88.1853 182.634 90.3472C183.413 91.658 184.424 92.8947 184.727 94.3887C184.963 95.555 184.727 96.7776 184.988 97.9404C185.21 98.9763 185.795 99.9065 186.024 100.939C186.323 102.278 186.003 103.666 185.728 105.009C185.094 108.134 184.755 111.605 186.432 114.318C186.548 114.535 186.715 114.72 186.919 114.857C187.356 115.114 187.912 114.938 188.363 114.702C190.477 113.578 191.742 111.344 192.88 109.23C193.664 107.887 194.313 106.471 194.818 105.001C195.343 103.271 195.463 101.45 195.579 99.6458C195.759 96.908 195.932 94.1244 195.322 91.4536C194.944 90.0153 194.473 88.6029 193.913 87.2254C192.151 82.4264 192.035 77.0882 192.444 72.2469" fill="white"/>
</mask>
<g mask="url(#mask0_3462_387281)">
<path d="M185.696 112.249C187.408 108.686 188.275 104.775 188.229 100.821C188.182 96.8677 187.224 92.9783 185.428 89.4557C185.002 88.6383 184.371 87.7468 183.462 87.694C182.479 87.6341 181.7 88.6277 181.588 89.6072C181.475 90.5868 181.831 91.5487 182.102 92.4965C183.226 96.4534 182.888 100.664 183.476 104.73C183.833 107.193 184.528 109.595 185.541 111.869" fill="#EBEBEB"/>
</g>
<path d="M192.458 72.2328C192.458 72.2328 192.458 72.3104 192.458 72.4584C192.458 72.6063 192.433 72.8318 192.415 73.1173C192.387 73.6986 192.331 74.5548 192.317 75.6577C192.222 78.7742 192.551 81.8891 193.293 84.9175C193.74 86.8413 194.727 88.7933 195.319 91.0519C195.911 93.3105 195.911 95.8474 195.752 98.4513C195.668 99.755 195.608 101.09 195.438 102.454C195.283 103.85 194.921 105.216 194.364 106.506C193.793 107.817 193.085 109.078 192.377 110.382C191.685 111.715 190.768 112.919 189.667 113.941C189.379 114.189 189.071 114.414 188.747 114.614C188.425 114.826 188.067 114.98 187.69 115.068C187.493 115.109 187.289 115.101 187.095 115.047C186.9 114.987 186.727 114.87 186.598 114.712C186.477 114.566 186.371 114.407 186.281 114.24C186.196 114.075 186.091 113.919 186.017 113.75C185.398 112.422 185.093 110.969 185.125 109.505C185.139 108.103 185.292 106.707 185.583 105.336C185.844 103.997 186.182 102.679 186.017 101.393C185.851 100.107 185.076 99.0221 184.875 97.7677C184.674 96.5133 184.896 95.3013 184.6 94.1914C184.304 93.0815 183.673 92.1372 183.096 91.2316C182.52 90.3675 182.035 89.4465 181.647 88.4833C180.998 86.8109 180.659 85.0342 180.647 83.2403C180.64 81.8933 180.816 80.5517 181.168 79.2517C181.389 78.4306 181.687 77.632 182.056 76.8663C182.19 76.6161 182.296 76.4223 182.366 76.2849C182.437 76.1475 182.479 76.0876 182.479 76.0876C182.479 76.0876 182.451 76.158 182.384 76.2919L182.088 76.8839C181.734 77.6529 181.448 78.451 181.232 79.2693C180.895 80.5656 180.731 81.901 180.745 83.2403C180.774 85.0138 181.124 86.7675 181.778 88.4163C182.166 89.3701 182.652 90.2816 183.226 91.1365C183.804 92.0385 184.463 92.9863 184.759 94.135C185.055 95.2836 184.843 96.5204 185.044 97.7219C185.245 98.9234 186.027 100.016 186.196 101.355C186.365 102.694 186.024 104.018 185.766 105.35C185.48 106.711 185.329 108.097 185.315 109.487C185.285 110.924 185.585 112.349 186.193 113.652C186.263 113.817 186.365 113.969 186.45 114.131C186.533 114.289 186.633 114.437 186.746 114.575C186.857 114.705 187.002 114.802 187.165 114.854C187.328 114.907 187.503 114.912 187.669 114.871C188.022 114.787 188.358 114.64 188.659 114.437C188.975 114.245 189.274 114.027 189.554 113.786C190.64 112.773 191.544 111.581 192.225 110.262C192.93 108.98 193.634 107.715 194.205 106.418C194.753 105.143 195.11 103.794 195.262 102.415C195.431 101.062 195.495 99.7268 195.579 98.4231C195.745 95.8263 195.749 93.3211 195.167 91.0731C194.586 88.8251 193.606 86.8766 193.162 84.9386C192.431 81.8971 192.121 78.7695 192.243 75.6436C192.303 73.4449 192.458 72.2328 192.458 72.2328Z" fill="#263238"/>
<path d="M192.979 69.0335C192.964 68.9166 192.964 68.7981 192.979 68.6812C193.007 68.4063 193.042 68.0751 193.081 67.6875C193.216 66.603 193.246 65.5079 193.169 64.4177C193.086 63.3298 192.77 62.2725 192.243 61.317C192.005 60.9324 191.744 60.5628 191.46 60.2106C191.46 60.2106 191.57 60.2811 191.739 60.4502C191.971 60.6949 192.178 60.9629 192.355 61.2501C192.927 62.2088 193.268 63.2871 193.353 64.4001C193.433 65.5035 193.386 66.6126 193.212 67.7051C193.152 68.1244 193.095 68.4592 193.05 68.6917C193.039 68.8079 193.015 68.9225 192.979 69.0335Z" fill="#263238"/>
<path d="M177.419 76.0876C177.488 75.6405 177.616 75.2045 177.8 74.7909C177.929 74.3589 178.114 73.9455 178.35 73.5612C178.285 74.0078 178.158 74.4431 177.972 74.8543C177.846 75.2889 177.659 75.7038 177.419 76.0876Z" fill="#263238"/>
<path d="M178.219 77.2891C178.322 76.4635 178.545 75.6575 178.882 74.8967C178.78 75.7225 178.557 76.5287 178.219 77.2891Z" fill="#263238"/>
<path d="M178.885 79.0086C178.839 78.6505 178.853 78.2872 178.927 77.9339C178.94 77.5711 179.017 77.2134 179.153 76.8768C179.185 77.5917 179.095 78.3068 178.885 78.9909V79.0086Z" fill="#263238"/>
<path d="M168.251 112.76C168.009 112.166 167.824 111.55 167.698 110.921C167.515 110.307 167.389 109.677 167.321 109.039C167.753 110.246 168.065 111.492 168.251 112.76Z" fill="#263238"/>
<path d="M169.315 112.76C169.075 112.306 168.889 111.824 168.762 111.326C168.577 110.846 168.45 110.346 168.385 109.836C168.626 110.29 168.811 110.772 168.938 111.27C169.124 111.75 169.25 112.25 169.315 112.76Z" fill="#263238"/>
<path d="M170.489 113.433C170.27 113.094 170.104 112.723 169.999 112.334C169.834 111.967 169.726 111.577 169.678 111.178C169.898 111.516 170.064 111.886 170.171 112.274C170.333 112.643 170.44 113.033 170.489 113.433Z" fill="#263238"/>
<path d="M170.679 134.539C170.297 133.832 170.025 133.07 169.872 132.281C170.09 132.62 170.255 132.991 170.362 133.38C170.528 133.747 170.635 134.138 170.679 134.539Z" fill="#263238"/>
<path d="M172.37 135.216C172.009 134.898 171.717 134.51 171.512 134.076C171.306 133.641 171.192 133.17 171.176 132.689C171.232 132.689 171.345 133.302 171.68 133.996C172.014 134.691 172.412 135.177 172.37 135.216Z" fill="#263238"/>
<path d="M173.97 135.744C173.66 135.518 173.421 135.207 173.283 134.849C173.089 134.518 173 134.136 173.025 133.753C173.078 133.753 173.187 134.229 173.448 134.772C173.709 135.314 174.012 135.705 173.97 135.744Z" fill="#263238"/>
<path d="M188.871 141.72C188.871 141.72 188.779 141.72 188.624 141.692C188.402 141.639 188.186 141.56 187.983 141.456C187.296 141.117 186.745 140.553 186.421 139.859C186.098 139.164 186.021 138.38 186.203 137.636C186.254 137.414 186.33 137.199 186.432 136.995C186.464 136.916 186.511 136.845 186.57 136.784C186.602 136.784 186.429 137.111 186.33 137.661C186.19 138.377 186.28 139.12 186.589 139.781C186.897 140.443 187.407 140.99 188.046 141.343C188.529 141.618 188.881 141.688 188.871 141.72Z" fill="#EBEBEB"/>
<path d="M172.057 58.2833C172.057 58.2516 172.497 58.3538 173.202 58.3643C174.122 58.3826 175.035 58.2073 175.883 57.8499C176.727 57.4862 177.487 56.951 178.113 56.2784C178.593 55.7605 178.818 55.3764 178.846 55.394C178.818 55.4954 178.771 55.5908 178.709 55.6759C178.562 55.9242 178.395 56.1599 178.209 56.3806C177.594 57.0964 176.821 57.6598 175.952 58.0266C175.082 58.3934 174.14 58.5537 173.198 58.4947C172.915 58.4798 172.633 58.4409 172.356 58.3784C172.252 58.3609 172.151 58.3289 172.057 58.2833Z" fill="#455A64"/>
<path d="M172.286 59.3615C172.97 59.2264 173.647 59.0523 174.312 58.84C174.955 58.5701 175.585 58.2667 176.197 57.931C175.679 58.4243 175.056 58.7941 174.375 59.0127C173.715 59.289 173 59.4084 172.286 59.3615Z" fill="#455A64"/>
<path d="M198.529 50.3977L198.384 50.3695C198.112 50.3359 197.838 50.4091 197.619 50.5738C197.4 50.7385 197.254 50.9818 197.211 51.2524C197.167 51.523 197.231 51.7997 197.388 52.0242C197.545 52.2488 197.783 52.4036 198.052 52.4561C198.321 52.5085 198.6 52.4545 198.83 52.3055C199.059 52.1564 199.222 51.9239 199.284 51.657C199.346 51.3901 199.302 51.1096 199.161 50.8747C199.02 50.6398 198.793 50.4687 198.529 50.3977Z" fill="white"/>
<path d="M197.87 50.7148C197.68 50.7424 197.507 50.8387 197.383 50.9855C197.26 51.1323 197.195 51.3194 197.2 51.5111C197.206 51.7086 197.268 51.9005 197.377 52.0649C197.487 52.2293 197.64 52.3597 197.82 52.4413C197.923 52.4925 198.037 52.5192 198.152 52.5192C198.267 52.5192 198.38 52.4925 198.483 52.4413C198.652 52.3303 198.777 52.1631 198.835 51.9691C198.887 51.8485 198.914 51.7184 198.914 51.5868C198.914 51.4553 198.887 51.3252 198.835 51.2045C198.78 51.0867 198.7 50.9817 198.602 50.8962C198.504 50.8107 198.389 50.7465 198.264 50.7077C198.086 50.6634 197.899 50.6707 197.725 50.7289" fill="#263238"/>
<path d="M198.923 51.0672C198.923 51.1165 198.761 51.1799 198.571 51.2715C198.381 51.3631 198.218 51.4512 198.19 51.4125C198.162 51.3737 198.271 51.2116 198.493 51.1059C198.715 51.0002 198.92 51.0178 198.923 51.0672Z" fill="white"/>
<path d="M196.386 57.8534C195.941 57.9799 195.468 57.9799 195.023 57.8534C194.564 57.7847 194.134 57.5881 193.782 57.2862C193.807 57.2403 194.343 57.5187 195.061 57.6737C195.78 57.8288 196.383 57.7971 196.386 57.8534Z" fill="#455A64"/>
<path d="M197.598 61.5461C197.35 61.1097 197.08 60.6863 196.788 60.2776C196.27 59.6293 195.689 59.2629 195.731 59.2206C196.201 59.4405 196.615 59.7649 196.94 60.1692C197.266 60.5735 197.495 61.0469 197.609 61.5531L197.598 61.5461Z" fill="#455A64"/>
<path d="M183.762 59.291C183.529 59.2706 183.305 59.1997 183.103 59.0831C182.594 58.8313 182.148 58.4704 181.795 58.026C181.44 57.5869 181.184 57.0761 181.045 56.5286C180.971 56.3015 180.949 56.0605 180.982 55.8239C181.01 55.8239 181.045 56.0811 181.172 56.4792C181.508 57.519 182.217 58.3975 183.163 58.9457C183.522 59.1747 183.772 59.2628 183.762 59.291Z" fill="white"/>
<path d="M184.618 60.0239C184.134 60.0706 183.645 60.0192 183.181 59.8727C182.718 59.7262 182.288 59.4876 181.919 59.1712C181.947 59.1254 182.493 59.4637 183.237 59.6962C183.98 59.9288 184.618 59.9816 184.618 60.0239Z" fill="white"/>
<path d="M185.974 89.269C185.625 88.7955 185.246 88.3448 184.84 87.9195C184.394 87.5363 183.923 87.1832 183.43 86.8625C184.02 87.0196 184.555 87.3352 184.977 87.7751C185.438 88.1746 185.782 88.6906 185.974 89.269Z" fill="white"/>
<path d="M186.059 87.7856C186.01 87.8138 185.682 87.2536 185.079 86.7532C184.696 86.4719 184.297 86.2119 183.885 85.9745C184.377 86.0481 184.834 86.2707 185.196 86.6123C185.595 86.9076 185.896 87.3165 186.059 87.7856Z" fill="white"/>
<path d="M165.615 90.6362C165.551 90.303 165.522 89.9641 165.527 89.6249C165.499 88.9977 165.492 88.1274 165.527 87.1585C165.563 86.1895 165.63 85.3368 165.7 84.692C165.72 84.3526 165.774 84.0161 165.862 83.6878C165.877 84.0264 165.867 84.3656 165.83 84.7026C165.795 85.3298 165.746 86.193 165.711 87.1479C165.675 88.1028 165.665 88.966 165.658 89.5932C165.672 89.9414 165.657 90.2902 165.615 90.6362Z" fill="#263238"/>
<path d="M166.69 91.7355C166.593 91.4772 166.531 91.207 166.507 90.9321C166.407 90.2754 166.351 89.6126 166.341 88.9484C166.328 88.2845 166.361 87.6205 166.44 86.9611C166.455 86.6853 166.507 86.4127 166.595 86.1507C166.651 86.1507 166.496 87.4015 166.525 88.9448C166.553 90.4881 166.743 91.7355 166.69 91.7355Z" fill="#263238"/>
<path d="M167.8 93.4303C167.682 93.1916 167.596 92.938 167.546 92.6762C167.394 92.0552 167.295 91.4221 167.25 90.7841C167.207 90.1453 167.22 89.5039 167.289 88.8673C167.299 88.6017 167.348 88.3391 167.437 88.0886C167.494 88.0886 167.328 89.2937 167.437 90.77C167.546 92.2464 167.857 93.4162 167.8 93.4303Z" fill="#263238"/>
<path d="M178.571 55.5455C178.571 55.5455 178.674 55.3165 178.882 54.8725C179.089 54.4286 179.407 53.7803 179.861 52.9417C180.414 51.9013 181.048 50.9058 181.757 49.9643C182.719 48.6659 183.914 47.5572 185.28 46.6945C187.039 45.6734 189.032 45.127 191.066 45.1089C192.225 45.0575 193.385 45.1846 194.505 45.4859C195.711 45.8203 196.874 46.2932 197.972 46.8953C199.151 47.5373 200.27 48.2863 201.312 49.1327C201.584 49.3525 201.843 49.5878 202.087 49.8374C202.347 50.0687 202.644 50.2556 202.965 50.3906C203.606 50.6866 204.29 50.9297 204.98 51.1799C206.347 51.6943 207.82 52.1136 209.166 52.9417C209.849 53.3376 210.497 53.7927 211.1 54.3017C211.408 54.562 211.703 54.8384 211.981 55.1298C212.119 55.2705 212.246 55.4226 212.358 55.5843C212.391 55.6373 212.41 55.6981 212.411 55.7605C212.412 55.7949 212.404 55.829 212.39 55.8601C212.375 55.8913 212.354 55.9187 212.327 55.9402C212.236 56.0143 212.126 56.0597 212.01 56.0705H211.988C210.819 55.5004 209.558 55.1425 208.264 55.0135C206.904 54.8857 205.533 54.9283 204.184 55.1403C203.479 55.2355 202.799 55.3623 202.098 55.4927C201.39 55.5976 200.698 55.793 200.04 56.0741C198.709 56.702 197.554 57.6498 196.679 58.833L196.658 58.7273C196.806 58.8449 196.939 58.9797 197.056 59.1289L197.228 59.3474L197.376 59.58C197.573 59.8932 197.751 60.218 197.908 60.5524C198.233 61.2184 198.504 61.909 198.765 62.6102C199.276 64.0375 199.698 65.4956 200.026 66.9758C200.199 67.7228 200.333 68.4874 200.449 69.259C200.565 70.0307 200.632 70.8164 200.657 71.6022C200.727 73.1772 200.777 74.7733 200.826 76.3836C200.92 79.6111 200.996 82.9103 201.055 86.2811C201.076 87.97 201.097 89.6731 201.118 91.3902C201.118 92.2499 201.118 93.1167 201.118 93.9835C201.124 94.8588 201.07 95.7335 200.956 96.6015C200.491 100.083 199.716 103.567 198.923 107.102C198.13 110.636 197.239 114.205 196.281 117.809C195.801 119.61 195.305 121.421 194.766 123.229C194.232 125.058 193.515 126.828 192.627 128.514C191.713 130.213 190.652 131.828 189.456 133.341C188.864 134.106 188.247 134.853 187.634 135.603C187.331 135.98 187.024 136.357 186.757 136.755C186.624 136.951 186.506 137.156 186.404 137.368C186.31 137.588 186.232 137.814 186.172 138.045C186.082 138.373 186.061 138.716 186.108 139.053C186.169 139.39 186.269 139.719 186.408 140.032C186.708 140.672 186.944 141.34 187.112 142.027C187.167 142.377 187.167 142.733 187.112 143.084C187.049 143.439 186.912 143.777 186.711 144.077C186.51 144.376 186.248 144.629 185.943 144.821C185.644 145.014 185.315 145.157 184.97 145.243C184.624 145.332 184.27 145.382 183.913 145.391C183.556 145.386 183.203 145.313 182.874 145.177C182.241 144.888 181.644 144.528 181.094 144.102C180.816 143.905 180.541 143.704 180.252 143.528C179.978 143.348 179.67 143.228 179.347 143.175C179.02 143.145 178.691 143.191 178.385 143.309C178.079 143.428 177.805 143.616 177.585 143.859C176.716 144.478 175.768 144.977 174.766 145.342C173.785 145.711 172.78 146.01 171.757 146.237C170.742 146.477 169.72 146.653 168.699 146.794C167.677 146.935 166.658 147.048 165.64 147.125C161.659 147.421 157.662 147.421 153.681 147.125H153.445L153.636 146.984C155.112 145.899 156.539 144.775 157.92 143.63C159.301 142.485 160.64 141.297 161.888 140.053C162.511 139.43 163.11 138.792 163.667 138.119C164.226 137.466 164.7 136.745 165.076 135.973C165.238 135.578 165.372 135.172 165.478 134.758C165.594 134.345 165.707 133.93 165.806 133.517C166.007 132.695 166.125 131.854 166.158 131.009C166.19 129.339 166.061 127.671 165.774 126.026C165.517 124.395 165.196 122.792 164.876 121.21C164.71 120.42 164.544 119.638 164.396 118.852C164.248 118.067 164.1 117.292 163.974 116.513C163.72 114.962 163.533 113.419 163.371 111.897C162.769 105.805 162.786 100.033 162.828 94.6847C162.828 93.3493 162.828 92.035 162.853 90.7489C162.853 90.1076 162.878 89.4699 162.892 88.8392C162.906 88.2085 162.987 87.5848 163.04 86.9717C163.325 84.6261 163.873 82.3201 164.675 80.0973C165.045 79.0403 165.471 78.029 165.901 77.053C166.331 76.077 166.785 75.1503 167.173 74.2342C167.801 72.4433 168.535 70.6914 169.372 68.9877L171.45 64.5587C171.764 63.8822 172.067 63.2303 172.335 62.6066L172.529 62.1415L172.744 61.6941L173.001 61.2888C173.089 61.155 173.184 61.0316 173.272 60.9083C173.936 60.0505 174.656 59.2382 175.428 58.4771C176.087 57.8111 176.665 57.2685 177.13 56.8351C178.068 55.9684 178.579 55.5455 178.579 55.5455L178.226 55.8767C177.987 56.0952 177.627 56.4194 177.169 56.8563C176.711 57.2932 176.133 57.8393 175.478 58.5088C174.712 59.2726 173.998 60.086 173.339 60.9435C173.251 61.0669 173.156 61.1902 173.068 61.3206L172.818 61.7258C172.747 61.8702 172.677 62.0147 172.606 62.1662L172.412 62.6313C172.145 63.2585 171.845 63.9103 171.531 64.5904C170.9 65.9505 170.213 67.428 169.47 69.0229C168.652 70.7214 167.936 72.4675 167.328 74.2518C166.94 75.1785 166.482 76.1087 166.059 77.0706C165.637 78.0326 165.21 79.0509 164.844 80.1114C164.048 82.3264 163.506 84.6242 163.227 86.9611C163.174 87.5707 163.103 88.1908 163.082 88.818C163.061 89.4452 163.036 90.083 163.043 90.7242C163.043 92.0092 163.036 93.3222 163.022 94.6635C162.987 100.009 162.976 105.777 163.582 111.858C163.748 113.377 163.935 114.917 164.192 116.463C164.315 117.239 164.449 118.017 164.611 118.796C164.773 119.575 164.928 120.364 165.094 121.153C165.418 122.735 165.735 124.324 165.996 125.977C166.288 127.632 166.419 129.311 166.387 130.991C166.352 131.847 166.234 132.698 166.035 133.531C165.936 133.947 165.823 134.363 165.707 134.779C165.599 135.2 165.462 135.614 165.295 136.015C164.91 136.805 164.423 137.54 163.847 138.204C163.286 138.88 162.684 139.525 162.057 140.148C160.806 141.399 159.463 142.583 158.082 143.735C156.701 144.888 155.263 146.012 153.791 147.1L153.745 146.942C157.716 147.236 161.704 147.236 165.675 146.942C166.69 146.864 167.708 146.755 168.723 146.611C169.738 146.466 170.76 146.294 171.768 146.057C172.781 145.829 173.778 145.533 174.752 145.169C175.733 144.808 176.661 144.316 177.511 143.707C177.749 143.442 178.047 143.237 178.379 143.108C178.711 142.979 179.069 142.929 179.424 142.964C179.774 143.023 180.106 143.157 180.4 143.355C180.696 143.535 180.974 143.739 181.253 143.936C181.79 144.355 182.374 144.709 182.993 144.993C183.301 145.121 183.63 145.189 183.962 145.194C184.3 145.183 184.636 145.135 184.963 145.05C185.291 144.971 185.604 144.836 185.886 144.652C186.169 144.47 186.409 144.229 186.591 143.947C186.776 143.667 186.903 143.353 186.964 143.024C187.019 142.69 187.019 142.35 186.964 142.016C186.807 141.342 186.579 140.687 186.284 140.06C186.142 139.732 186.039 139.388 185.978 139.035C185.925 138.675 185.946 138.308 186.041 137.957C186.104 137.716 186.185 137.48 186.284 137.252C186.393 137.028 186.519 136.812 186.661 136.607C186.94 136.199 187.246 135.822 187.549 135.441C188.166 134.691 188.783 133.947 189.371 133.183C190.556 131.677 191.608 130.071 192.514 128.384C193.394 126.708 194.102 124.948 194.628 123.13C195.171 121.322 195.664 119.511 196.143 117.711C197.102 114.112 197.984 110.546 198.789 107.013C199.582 103.49 200.357 99.9946 200.822 96.531C200.936 95.6701 200.99 94.8025 200.984 93.9342C200.984 93.0639 200.984 92.2006 200.984 91.3444C200.963 89.6249 200.943 87.9219 200.925 86.2353C200.868 82.8668 200.794 79.5688 200.703 76.3413C200.565 73.1208 200.66 69.9426 199.913 66.9582C199.57 65.4988 199.137 64.062 198.617 62.656C198.37 61.9609 198.087 61.2788 197.771 60.6123C197.616 60.2825 197.44 59.9624 197.246 59.6539L197.105 59.4249L196.94 59.2135C196.835 59.0834 196.717 58.9652 196.587 58.8612L196.531 58.8048L196.566 58.7554C197.016 58.1521 197.538 57.6056 198.12 57.1276C198.688 56.651 199.318 56.255 199.994 55.9507C200.663 55.6648 201.365 55.4659 202.084 55.3588C202.789 55.2249 203.493 55.098 204.177 55.0064C205.537 54.7972 206.918 54.7558 208.289 54.8831C209.6 55.0194 210.876 55.3868 212.059 55.9684H212.02C212.109 55.9588 212.194 55.926 212.267 55.8732C212.323 55.8239 212.316 55.7569 212.267 55.6759C212.154 55.5151 212.028 55.3643 211.89 55.2249C211.614 54.9362 211.322 54.6633 211.016 54.4074C210.419 53.9012 209.779 53.4485 209.103 53.0544C207.774 52.2546 206.312 51.8317 204.938 51.3173C204.251 51.0636 203.567 50.8205 202.915 50.5175C202.584 50.376 202.278 50.1808 202.01 49.9396C201.766 49.6918 201.51 49.4565 201.242 49.2349C200.204 48.3843 199.089 47.6318 197.912 46.9869C196.822 46.3866 195.667 45.9137 194.47 45.5775C193.358 45.275 192.206 45.1467 191.055 45.197C189.037 45.2085 187.056 45.7453 185.308 46.7544C183.944 47.6092 182.749 48.7095 181.785 49.9995C181.074 50.9357 180.437 51.9252 179.879 52.9593C179.421 53.7943 179.096 54.4427 178.885 54.8831C178.674 55.3236 178.571 55.5455 178.571 55.5455Z" fill="#263238"/>
<path d="M135.588 146.565C135.034 146.435 134.466 146.367 133.897 146.364C133.309 146.4 132.72 146.386 132.135 146.322C131.842 146.289 131.561 146.186 131.316 146.022C131.071 145.859 130.869 145.639 130.726 145.381L128.087 145.998C128.069 146.272 128.051 146.547 128.03 146.826C128.017 146.915 128.032 147.006 128.072 147.086C128.146 147.199 128.301 147.21 128.425 147.213L131.596 147.27C132.519 147.27 133.446 147.305 134.369 147.301C134.782 147.318 135.196 147.278 135.599 147.181C135.761 147.136 135.951 147.03 135.951 146.861C135.951 146.692 135.757 146.604 135.588 146.565Z" fill="#263238"/>
<path d="M116.212 144.461C115.186 145.357 114.002 146.054 112.721 146.515C111.754 146.916 110.693 147.032 109.662 146.85C109.5 146.811 109.31 146.713 109.31 146.547C109.328 146.469 109.373 146.399 109.437 146.35C110.451 145.367 111.776 144.63 112.41 143.369L115.152 140.945L116.212 144.461Z" fill="#263238"/>
<path d="M142.921 99.452C142.921 99.452 141.546 98.1413 140.496 97.8805C139.446 97.6198 136.434 96.309 134.207 96.5064C132.938 96.6343 131.708 97.0196 130.593 97.6388C129.477 98.2579 128.5 99.0979 127.72 100.107C126.015 102.338 125.099 103.515 125.426 108.233C125.426 108.233 117.431 114.194 115.599 119.307C115.599 119.307 113.175 122.32 113.961 122.059C114.431 121.9 114.843 121.603 115.141 121.206C115.141 121.206 113.238 123.828 113.436 124.73C113.436 124.73 111.928 129.906 111.928 132.46V135.737C111.928 135.737 110.166 139.081 110.814 138.686C111.226 138.433 111.6 138.125 111.928 137.77C111.928 137.77 111.537 142.552 112.192 143.535L113.954 142.552C113.954 142.552 112.382 144.546 115.462 145.744C118.541 146.942 119.588 145.744 119.588 145.744L121.424 146.276L126.075 145.434C126.075 145.434 129.154 146.79 130.335 146.276C131.515 145.761 133.805 145.043 135.511 141.569C137.216 138.094 138.787 127.876 138.721 124.797C138.654 121.717 142.455 116.146 141.733 112.02C141.011 107.894 139.179 105.992 139.179 105.992L139.637 105.139C139.637 105.139 140.817 104.082 141.145 103.377C141.145 103.377 143.897 101.348 144.813 100.886C145.729 100.424 146.321 100.756 146.123 100.365C145.926 99.9735 144.707 99.0609 142.921 99.452Z" fill="#EBEBEB"/>
<path d="M138.22 99.8854C138.146 99.8479 138.065 99.8265 137.982 99.8226C137.9 99.8187 137.817 99.8323 137.74 99.8626C137.663 99.8929 137.593 99.9391 137.535 99.9983C137.476 100.057 137.432 100.128 137.403 100.206C137.319 100.323 137.277 100.464 137.283 100.608C137.306 100.713 137.354 100.811 137.424 100.893C137.479 100.967 137.541 101.034 137.611 101.094C137.707 101.166 137.822 101.209 137.942 101.22C138.062 101.231 138.183 101.208 138.291 101.154C138.398 101.097 138.488 101.014 138.554 100.912C138.619 100.81 138.657 100.693 138.664 100.572C138.671 100.468 138.654 100.363 138.615 100.265C138.576 100.167 138.516 100.08 138.439 100.009C138.36 99.9399 138.265 99.8925 138.162 99.8709C138.06 99.8493 137.954 99.8543 137.854 99.8854" fill="#263238"/>
<path d="M138.654 105.935C138.694 105.911 138.728 105.877 138.752 105.837C138.771 105.793 138.775 105.745 138.766 105.698C138.757 105.652 138.733 105.609 138.699 105.576C138.534 105.426 138.317 105.346 138.093 105.354C137.495 105.312 136.895 105.312 136.296 105.354C135.795 105.423 135.285 105.409 134.788 105.312C134.65 105.281 134.522 105.214 134.418 105.118C134.278 104.941 134.202 104.72 134.203 104.494C134.134 103.792 134.117 103.085 134.154 102.38C134.179 102.208 134.162 102.033 134.105 101.869C134.016 101.717 133.909 101.577 133.788 101.45C133.588 101.153 133.512 100.79 133.576 100.439C133.641 100.092 133.753 99.755 133.907 99.4379C134.034 99.0679 134.239 98.73 134.51 98.4478C134.698 98.2966 134.91 98.1775 135.137 98.0954C136.379 97.606 137.755 97.5823 139.013 98.0285C139.27 98.112 139.514 98.2306 139.739 98.3808C139.976 98.5651 140.186 98.7822 140.363 99.0256C140.926 99.7303 141.42 100.632 141.243 101.524L143.435 100.164L143.206 99.4167C143.114 99.4167 143.026 99.4449 142.931 99.4661C142.931 99.4661 141.589 98.0144 140.553 97.7043C139.401 97.3696 136.448 96.1434 134.21 96.3865C132.093 96.6102 130.119 97.5646 128.629 99.0855L128.203 100.009C129.443 99.8078 129.147 101.471 129.147 101.471C130.204 101.672 129.94 102.317 129.94 102.317C131.057 102.391 130.645 103.782 130.645 103.782C131.938 103.458 131.913 104.55 131.913 104.55C132.907 104.825 133.129 106.686 133.129 106.686L133.252 106.735C134.059 107.056 133.555 108.063 133.555 108.063C133.749 107.642 134.032 107.267 134.383 106.964C134.723 106.737 135.099 106.571 135.497 106.474C136.079 106.272 136.688 106.154 137.304 106.122C137.759 106.101 138.266 106.182 138.654 105.935Z" fill="#455A64"/>
<path d="M142.921 99.452C142.921 99.452 141.412 101.193 141.124 101.358C140.835 101.524 140.067 101.411 140.042 101.802C140.017 102.193 140.412 102.736 141.479 102.62C142.25 102.485 142.979 102.175 143.611 101.714C144.06 101.363 144.551 101.069 145.073 100.84C145.489 100.682 146.204 100.646 146.264 100.53C146.324 100.414 145.514 98.8318 142.921 99.452Z" fill="#263238"/>
<path d="M119.003 131.851C118.776 131.584 118.621 131.263 118.555 130.919C118.489 130.575 118.513 130.22 118.626 129.888C118.679 129.888 118.626 130.346 118.735 130.885C118.844 131.424 119.049 131.822 119.003 131.851Z" fill="#263238"/>
<path d="M119.69 132.71C119.461 132.287 119.319 131.821 119.274 131.342C119.229 130.863 119.28 130.379 119.426 129.92C119.479 129.92 119.384 130.558 119.457 131.329C119.531 132.101 119.725 132.689 119.69 132.71Z" fill="#263238"/>
<path d="M121.431 115.48C121.516 115.119 121.685 114.782 121.924 114.497C122.114 114.177 122.374 113.903 122.685 113.698C122.292 114.309 121.873 114.904 121.431 115.48Z" fill="#263238"/>
<path d="M121.882 116.4C122.096 115.647 122.429 114.934 122.868 114.286C122.789 114.67 122.65 115.04 122.456 115.382C122.318 115.749 122.124 116.092 121.882 116.4Z" fill="#263238"/>
<path d="M122.674 117.587C122.638 117.069 122.728 116.549 122.935 116.072C122.971 116.591 122.882 117.111 122.674 117.587Z" fill="#263238"/>
<path d="M123.08 143.531C122.502 143.067 122.067 142.449 121.825 141.748C122.276 142.319 122.695 142.914 123.08 143.531Z" fill="#263238"/>
<path d="M123.936 143.387C123.602 143.313 123.3 143.138 123.069 142.886C122.797 142.678 122.593 142.394 122.484 142.069C122.53 142.041 122.794 142.389 123.189 142.749C123.45 142.947 123.7 143.159 123.936 143.387Z" fill="#263238"/>
<path d="M138.777 111.587C138.724 111.587 138.639 111.104 138.329 110.593C138.019 110.082 137.625 109.776 137.667 109.73C138.025 109.88 138.316 110.154 138.488 110.502C138.715 110.815 138.818 111.202 138.777 111.587Z" fill="#263238"/>
<path d="M139.39 110.981C139.351 111.013 139.094 110.724 138.823 110.343C138.551 109.963 138.358 109.638 138.4 109.596C138.442 109.554 138.696 109.853 138.971 110.237C139.163 110.452 139.306 110.706 139.39 110.981Z" fill="#263238"/>
<path d="M130.553 103.877C130.651 103.697 130.725 103.503 130.772 103.303C130.792 103.196 130.787 103.087 130.757 102.982C130.728 102.878 130.675 102.781 130.602 102.701C130.515 102.604 130.396 102.542 130.266 102.526C130.136 102.51 130.005 102.542 129.898 102.616L129.545 102.916L129.75 102.51C129.803 102.404 129.827 102.284 129.817 102.165C129.807 102.046 129.765 101.932 129.695 101.835C129.625 101.738 129.529 101.662 129.419 101.616C129.309 101.57 129.188 101.555 129.07 101.573L128.827 101.608L128.989 101.425C129.082 101.315 129.147 101.184 129.177 101.043C129.207 100.903 129.202 100.757 129.161 100.618C129.129 100.507 129.074 100.403 128.999 100.315C128.925 100.226 128.832 100.154 128.728 100.104C128.53 100.016 128.313 99.981 128.097 100.002C128.202 99.9461 128.319 99.9171 128.437 99.9171C128.556 99.9171 128.672 99.9461 128.777 100.002C128.902 100.053 129.015 100.131 129.107 100.23C129.198 100.329 129.268 100.447 129.309 100.576C129.362 100.74 129.372 100.915 129.34 101.084C129.307 101.254 129.232 101.412 129.123 101.545L129.041 101.397C129.192 101.374 129.346 101.392 129.486 101.45C129.627 101.509 129.749 101.605 129.838 101.728C129.928 101.851 129.982 101.996 129.994 102.148C130.007 102.3 129.977 102.452 129.908 102.588L129.771 102.482C129.842 102.424 129.925 102.383 130.014 102.362C130.103 102.342 130.196 102.342 130.285 102.362C130.389 102.383 130.486 102.425 130.573 102.486C130.659 102.546 130.732 102.624 130.786 102.714C130.841 102.804 130.876 102.904 130.89 103.009C130.904 103.113 130.896 103.22 130.867 103.321C130.832 103.48 130.762 103.629 130.662 103.758C130.613 103.846 130.56 103.885 130.553 103.877Z" fill="#263238"/>
<path d="M133.566 108.011C133.578 107.837 133.6 107.664 133.633 107.493C133.649 107.313 133.609 107.133 133.516 106.978C133.464 106.888 133.385 106.817 133.29 106.776C133.195 106.735 133.089 106.725 132.988 106.749L132.868 106.791V106.665C132.868 106.517 132.868 106.365 132.868 106.21C132.889 105.924 132.853 105.637 132.762 105.364C132.678 105.149 132.54 104.96 132.361 104.815C132.172 104.71 131.969 104.634 131.758 104.589C131.758 104.589 131.821 104.561 131.941 104.565C132.115 104.567 132.285 104.616 132.435 104.706C132.648 104.853 132.816 105.058 132.917 105.297C133.027 105.589 133.072 105.9 133.051 106.21V106.665L132.931 106.576C133.004 106.553 133.081 106.546 133.156 106.553C133.232 106.561 133.306 106.585 133.372 106.622C133.488 106.687 133.585 106.78 133.654 106.894C133.756 107.079 133.791 107.295 133.752 107.503C133.733 107.685 133.669 107.86 133.566 108.011Z" fill="#263238"/>
<path d="M128.918 106.534C128.971 106.534 129.01 106.721 129.01 106.954C129.01 107.186 128.971 107.373 128.918 107.373C128.865 107.373 128.827 107.186 128.827 106.954C128.827 106.721 128.869 106.534 128.918 106.534Z" fill="#263238"/>
<path d="M129.492 106.224C129.545 106.224 129.605 106.474 129.63 106.791C129.654 107.109 129.63 107.369 129.581 107.373C129.531 107.376 129.471 107.123 129.447 106.806C129.422 106.488 129.443 106.231 129.492 106.224Z" fill="#263238"/>
<path d="M125.655 123.895C125.884 125.276 125.324 126.661 124.648 127.887C123.971 129.113 123.154 130.283 122.787 131.632C122.421 132.982 122.618 134.606 123.696 135.508C124.542 136.213 125.761 136.297 126.808 135.991C127.844 135.634 128.794 135.065 129.598 134.321C131.413 132.791 133.034 130.92 133.752 128.658C134.27 127.034 134.298 125.272 134.936 123.69C135.768 121.625 137.6 119.959 137.885 117.75C138.016 116.749 137.734 115.614 136.895 115.054C135.944 114.42 134.651 114.73 133.622 115.23C131.288 116.374 129.452 118.332 128.46 120.734" fill="#E0E0E0"/>
<path d="M128.742 117.249L126.822 118.866C126.395 119.19 126.021 119.579 125.715 120.019C125.155 120.928 125.233 122.087 125.433 123.137C125.634 124.187 125.937 125.251 125.768 126.308C125.462 128.239 123.679 129.599 122.999 131.435C122.713 132.203 122.664 133.158 123.224 133.757C123.48 134.015 123.806 134.193 124.161 134.268C125.058 134.441 125.987 134.255 126.748 133.75C127.498 133.247 128.171 132.636 128.745 131.939C129.337 131.276 129.914 130.601 130.476 129.913C131.222 128.993 131.959 128.028 132.322 126.9C132.579 126.097 132.635 125.241 132.833 124.434C133.122 123.188 133.741 122.044 134.626 121.122C135.095 120.639 135.637 120.227 136.081 119.712C136.645 119.022 137.069 118.228 137.329 117.376C137.681 116.319 137.836 115.033 137.107 114.205C136.55 113.557 135.627 113.366 134.771 113.32C133.51 113.296 132.25 113.391 131.008 113.602" fill="#EBEBEB"/>
<path d="M131.008 113.581C131.05 113.567 131.094 113.557 131.138 113.553L131.533 113.49C131.885 113.44 132.385 113.363 133.044 113.303C133.847 113.21 134.658 113.21 135.461 113.303C135.97 113.368 136.454 113.56 136.871 113.86C137.094 114.042 137.279 114.267 137.415 114.522C137.551 114.776 137.634 115.056 137.66 115.343C137.715 115.972 137.641 116.605 137.442 117.203C137.25 117.853 136.976 118.476 136.628 119.057C136.439 119.362 136.221 119.648 135.976 119.909C135.726 120.174 135.451 120.42 135.176 120.667C134.606 121.162 134.118 121.744 133.728 122.39C133.325 123.073 133.036 123.817 132.872 124.592C132.752 125.425 132.579 126.249 132.354 127.059C132.039 127.878 131.598 128.642 131.046 129.324C130.511 130.029 129.912 130.684 129.33 131.378C128.77 132.078 128.151 132.729 127.481 133.323C126.816 133.915 125.988 134.294 125.106 134.409C124.671 134.456 124.23 134.402 123.82 134.25C123.405 134.099 123.066 133.792 122.875 133.394C122.71 133.004 122.656 132.576 122.72 132.157C122.777 131.756 122.896 131.366 123.073 131.001C123.777 129.571 124.87 128.51 125.402 127.235C125.532 126.925 125.627 126.601 125.684 126.269C125.73 125.949 125.742 125.624 125.719 125.3C125.661 124.687 125.562 124.079 125.423 123.479C125.176 122.33 125.088 121.196 125.49 120.308C125.679 119.903 125.952 119.543 126.29 119.251C126.589 118.976 126.878 118.75 127.132 118.546L128.309 117.58L128.619 117.334C128.653 117.304 128.689 117.277 128.728 117.253C128.698 117.287 128.665 117.319 128.629 117.348L128.333 117.609L127.178 118.602C126.927 118.817 126.638 119.05 126.346 119.325C126.023 119.609 125.763 119.958 125.585 120.35C125.208 121.21 125.296 122.316 125.55 123.458C125.693 124.063 125.797 124.678 125.86 125.297C125.887 125.63 125.878 125.966 125.832 126.298C125.773 126.641 125.676 126.976 125.543 127.298C124.996 128.613 123.89 129.68 123.224 131.079C123.049 131.425 122.93 131.798 122.872 132.182C122.812 132.568 122.861 132.963 123.013 133.323C123.097 133.501 123.216 133.66 123.363 133.791C123.509 133.922 123.68 134.023 123.865 134.088C124.249 134.23 124.661 134.279 125.067 134.233C125.915 134.116 126.708 133.748 127.343 133.175C128.005 132.586 128.616 131.942 129.172 131.252C130.317 129.877 131.589 128.584 132.16 126.992C132.386 126.193 132.559 125.379 132.678 124.557C132.849 123.763 133.147 123.003 133.562 122.305C133.96 121.642 134.462 121.047 135.049 120.544C135.603 120.095 136.084 119.564 136.476 118.969C136.821 118.4 137.093 117.79 137.286 117.154C137.481 116.574 137.557 115.96 137.508 115.35C137.486 115.077 137.41 114.812 137.282 114.57C137.155 114.328 136.98 114.114 136.769 113.941C136.37 113.649 135.905 113.461 135.416 113.394C134.622 113.29 133.82 113.274 133.023 113.345C132.364 113.394 131.853 113.458 131.508 113.5L131.113 113.542C131.079 113.558 131.044 113.571 131.008 113.581Z" fill="#263238"/>
<path d="M142.921 99.452L143.076 99.4203C143.229 99.3886 143.384 99.3662 143.541 99.3533C144.159 99.3128 144.777 99.4342 145.334 99.7057C145.528 99.8019 145.71 99.9201 145.877 100.058C145.969 100.132 146.051 100.219 146.12 100.315C146.157 100.368 146.182 100.428 146.194 100.491C146.197 100.511 146.195 100.532 146.188 100.55C146.18 100.569 146.168 100.585 146.152 100.597C146.121 100.615 146.088 100.627 146.053 100.632C145.795 100.657 145.54 100.701 145.288 100.763C145.019 100.846 144.762 100.964 144.524 101.115C143.52 101.728 142.41 102.524 141.18 103.434V103.416C141.002 103.754 140.779 104.067 140.517 104.346C140.253 104.639 139.971 104.924 139.665 105.206L139.207 106.059V105.999C139.667 106.536 140.06 107.127 140.377 107.76C140.724 108.432 141.014 109.133 141.243 109.853C141.493 110.61 141.685 111.386 141.818 112.172C141.839 112.38 141.863 112.588 141.885 112.795C141.906 113.003 141.885 113.218 141.885 113.433C141.882 113.648 141.866 113.862 141.839 114.075C141.814 114.289 141.797 114.504 141.751 114.719C141.458 116.446 140.803 118.169 140.13 119.952C139.795 120.843 139.443 121.756 139.164 122.704C139.024 123.182 138.916 123.669 138.844 124.162C138.823 124.413 138.812 124.659 138.805 124.913C138.798 125.167 138.805 125.431 138.805 125.688C138.756 126.724 138.65 127.77 138.516 128.831C138.382 129.892 138.231 130.97 138.055 132.059C137.701 134.305 137.23 136.531 136.645 138.729C136.349 139.88 135.93 140.996 135.394 142.058C134.828 143.141 134.05 144.099 133.108 144.877C132.622 145.266 132.094 145.599 131.533 145.867C131.251 146.001 130.965 146.128 130.676 146.244C130.533 146.312 130.384 146.37 130.232 146.417C130.154 146.44 130.074 146.456 129.993 146.463C129.912 146.471 129.83 146.471 129.75 146.463C129.112 146.451 128.479 146.345 127.872 146.149C127.26 145.97 126.66 145.755 126.075 145.504H126.127L121.452 146.382H121.431H121.413L119.577 145.85L119.672 145.821C119.455 146.024 119.191 146.17 118.904 146.248C118.625 146.331 118.336 146.376 118.045 146.382C117.459 146.387 116.876 146.305 116.315 146.138C115.739 145.986 115.185 145.761 114.666 145.469L114.472 145.356L114.292 145.215C114.232 145.166 114.169 145.124 114.112 145.071L113.954 144.905C113.848 144.79 113.756 144.664 113.679 144.528C113.605 144.389 113.551 144.241 113.517 144.088C113.467 143.813 113.474 143.532 113.539 143.261C113.604 142.989 113.725 142.735 113.894 142.513L114.014 142.65L112.252 143.633L112.171 143.679L112.129 143.602C111.915 143.144 111.795 142.648 111.776 142.143C111.73 141.65 111.727 141.163 111.723 140.677C111.723 139.701 111.766 138.739 111.84 137.781L111.998 137.848C111.717 138.151 111.403 138.422 111.061 138.655L110.931 138.739C110.88 138.774 110.824 138.802 110.765 138.82C110.74 138.82 110.723 138.82 110.687 138.82C110.653 138.81 110.624 138.787 110.606 138.757C110.588 138.718 110.578 138.676 110.578 138.633C110.582 138.576 110.591 138.52 110.606 138.464C110.658 138.265 110.725 138.071 110.807 137.883C111.121 137.132 111.48 136.421 111.864 135.712V135.755V132.89C111.859 131.944 111.945 131 112.122 130.071C112.44 128.268 112.849 126.481 113.348 124.719V124.761C113.327 124.408 113.397 124.055 113.552 123.736C113.685 123.426 113.834 123.124 114 122.83C114.322 122.254 114.675 121.695 115.057 121.157L115.198 121.252C114.935 121.602 114.587 121.879 114.186 122.055L114.035 122.115C113.976 122.14 113.912 122.154 113.848 122.154C113.82 122.153 113.793 122.144 113.77 122.128C113.748 122.112 113.731 122.089 113.721 122.062C113.71 122.023 113.71 121.982 113.721 121.943C113.732 121.885 113.75 121.83 113.774 121.777C113.863 121.585 113.965 121.401 114.081 121.224C114.535 120.519 115.032 119.885 115.532 119.254V119.279C116.028 118.028 116.703 116.857 117.537 115.801C118.311 114.779 119.152 113.809 120.053 112.898C121.721 111.201 123.506 109.624 125.395 108.176L125.37 108.236C125.294 107.268 125.287 106.295 125.349 105.326C125.406 104.399 125.626 103.489 125.997 102.637C126.381 101.853 126.854 101.115 127.407 100.439C127.885 99.7706 128.444 99.1636 129.07 98.631C130.204 97.685 131.541 97.0133 132.977 96.6684C133.61 96.5098 134.263 96.4386 134.915 96.457C135.508 96.485 136.098 96.5664 136.677 96.7001C137.64 96.9279 138.589 97.209 139.52 97.5422C139.926 97.6832 140.299 97.803 140.648 97.8946C140.96 98.0022 141.257 98.149 141.532 98.3315C141.903 98.5758 142.256 98.8454 142.589 99.1384C142.818 99.3392 142.924 99.4485 142.924 99.4485C142.924 99.4485 142.808 99.3463 142.572 99.156C142.23 98.8698 141.87 98.6061 141.494 98.3667C141.22 98.1879 140.926 98.0446 140.616 97.9404C140.264 97.8452 139.887 97.7254 139.482 97.588C138.552 97.2622 137.605 96.987 136.645 96.7635C136.074 96.6364 135.493 96.5586 134.908 96.531C134.263 96.5189 133.62 96.5923 132.995 96.7494C131.568 97.0946 130.241 97.7665 129.119 98.712C128.502 99.2421 127.951 99.8442 127.477 100.506C126.934 101.179 126.469 101.91 126.089 102.687C125.726 103.525 125.512 104.421 125.458 105.333C125.401 106.296 125.41 107.263 125.486 108.226V108.261L125.458 108.285C123.576 109.729 121.799 111.304 120.141 113C119.246 113.908 118.411 114.874 117.643 115.893C116.819 116.936 116.153 118.095 115.666 119.332C115.169 119.959 114.673 120.604 114.229 121.287C114.118 121.456 114.02 121.632 113.936 121.816C113.916 121.856 113.902 121.899 113.894 121.943C113.894 121.943 113.894 121.985 113.894 121.974H113.869C113.869 121.974 113.869 121.953 113.869 121.957C113.908 121.952 113.946 121.941 113.982 121.925L114.123 121.869C114.493 121.706 114.816 121.451 115.06 121.129L115.198 121.224C114.816 121.757 114.463 122.31 114.141 122.88C113.978 123.179 113.831 123.485 113.7 123.799C113.562 124.088 113.496 124.406 113.506 124.726V124.768C113 126.524 112.582 128.305 112.255 130.103C112.084 131.022 112 131.955 112.005 132.89V135.779V135.8C111.653 136.505 111.279 137.21 110.973 137.953C110.894 138.134 110.829 138.32 110.779 138.51C110.754 138.595 110.761 138.729 110.73 138.647L110.832 138.588L110.955 138.507C111.284 138.283 111.587 138.023 111.857 137.731L112.037 137.534L112.016 137.798C111.945 138.75 111.903 139.712 111.9 140.681C111.9 141.163 111.9 141.646 111.956 142.129C111.97 142.603 112.074 143.071 112.262 143.506L112.143 143.475L113.904 142.492L114.257 142.294L114.014 142.629C113.807 142.88 113.679 143.185 113.643 143.508C113.607 143.831 113.666 144.157 113.813 144.447C113.884 144.573 113.968 144.691 114.063 144.8L114.211 144.955C114.264 145.004 114.324 145.043 114.38 145.088L114.549 145.219L114.736 145.328C115.241 145.612 115.78 145.831 116.339 145.98C116.882 146.142 117.446 146.221 118.013 146.216C118.288 146.212 118.56 146.169 118.823 146.089C119.085 146.025 119.327 145.898 119.528 145.719L119.57 145.677H119.62L121.455 146.209H121.413L126.068 145.367H126.092H126.117C126.691 145.614 127.279 145.827 127.879 146.005C128.468 146.193 129.082 146.298 129.7 146.315C130.002 146.307 130.298 146.231 130.567 146.093C130.853 145.973 131.134 145.85 131.413 145.719C131.961 145.455 132.479 145.131 132.956 144.754C133.882 143.986 134.645 143.04 135.201 141.974C135.73 140.925 136.145 139.821 136.437 138.683C137.025 136.493 137.495 134.274 137.847 132.034C138.026 130.945 138.199 129.874 138.315 128.813C138.432 127.753 138.558 126.699 138.604 125.681C138.625 125.424 138.604 125.17 138.622 124.916C138.639 124.663 138.639 124.398 138.664 124.145C138.738 123.644 138.847 123.15 138.992 122.665C139.274 121.703 139.63 120.794 139.968 119.902C140.644 118.12 141.296 116.407 141.592 114.698C141.632 114.487 141.661 114.274 141.677 114.06C141.707 113.85 141.724 113.638 141.726 113.426C141.726 113.218 141.726 113.01 141.726 112.803L141.663 112.189C141.54 111.401 141.356 110.624 141.113 109.864C140.889 109.148 140.605 108.453 140.264 107.785C139.953 107.159 139.567 106.574 139.115 106.041L139.09 106.013V105.981C139.256 105.682 139.415 105.386 139.552 105.132C139.855 104.857 140.14 104.572 140.401 104.283C140.68 104.011 140.92 103.701 141.113 103.363C142.353 102.461 143.463 101.668 144.474 101.055C144.718 100.904 144.981 100.785 145.257 100.703C145.51 100.642 145.768 100.599 146.028 100.576C146.088 100.576 146.137 100.544 146.123 100.495C146.114 100.44 146.092 100.389 146.06 100.343C145.993 100.252 145.915 100.169 145.827 100.097C145.665 99.9596 145.488 99.8414 145.299 99.7444C144.752 99.4779 144.145 99.3566 143.537 99.3921C143.381 99.4002 143.226 99.4179 143.072 99.4449C142.973 99.4484 142.921 99.452 142.921 99.452Z" fill="#263238"/>
<path d="M60.9778 144.26C60.252 145.444 58.8637 146.022 57.5741 146.512C57.8419 146.931 58.388 147.065 58.8813 147.115C60.4907 147.266 62.1042 146.872 63.4619 145.994L60.9778 144.26Z" fill="#263238"/>
<path d="M87.2738 146.17C87.1993 146.115 87.1094 146.084 87.0165 146.082C86.0229 145.951 85.0352 145.779 84.0533 145.568C83.8309 145.538 83.6192 145.455 83.4367 145.325C83.3393 145.235 83.2612 145.126 83.2073 145.004C83.1534 144.883 83.1247 144.752 83.1231 144.62C83.1202 144.358 83.1546 144.097 83.2253 143.845L78.0809 146.663C78.761 147.1 80.0576 147.016 80.8645 146.981C82.8518 146.868 84.8813 147.252 86.8192 146.801C86.9798 146.779 87.1305 146.71 87.2526 146.604C87.3113 146.548 87.3463 146.472 87.3503 146.391C87.3542 146.31 87.3268 146.231 87.2738 146.17Z" fill="#263238"/>
<path d="M95.1171 117.598C95.1474 117.378 95.1474 117.155 95.1171 116.936C95.0713 116.555 91.5443 113.458 90.1173 112.411C89.1212 111.738 87.9934 111.284 86.8087 111.08C85.8748 110.941 84.9209 111.056 84.0462 111.411C84.0462 111.39 84.0462 111.365 84.0251 111.34H84.166C83.1894 111.053 82.1657 110.961 81.1534 111.069C81.0481 111.074 80.9449 111.1 80.8504 111.147C80.8028 111.169 80.7623 111.205 80.7331 111.249C80.7039 111.293 80.6873 111.344 80.6848 111.397C80.6848 111.573 80.8927 111.668 81.0618 111.717C81.5939 111.869 82.1189 111.971 82.6756 112.07L82.6122 112.108C81.8309 112.072 81.0488 112.163 80.2972 112.38C80.1662 112.408 80.0447 112.47 79.9449 112.559C79.8964 112.607 79.8663 112.67 79.8599 112.738C79.8534 112.806 79.8711 112.873 79.9096 112.929C79.9966 113 80.1079 113.035 80.2197 113.025L81.1112 113.053C79.9428 113.175 78.8267 113.6 77.8731 114.286C77.7356 114.388 77.5841 114.54 77.637 114.702C77.6898 114.864 77.9083 114.903 78.0845 114.896C78.1761 114.896 78.2712 114.896 78.3628 114.874C77.8449 115.181 77.3516 115.449 76.8195 115.738L76.8442 115.72C75.885 115.485 74.8865 115.458 73.9162 115.643C73.8381 115.649 73.7652 115.684 73.7118 115.741C73.592 115.9 73.8386 116.094 74.0395 116.094C74.2403 116.094 74.4834 116.065 74.5927 116.234C73.7657 116.191 72.9414 116.359 72.1967 116.721C72.0452 116.795 71.8725 116.929 71.9148 117.073C71.9571 117.218 72.0804 117.256 72.2002 117.299L73.3489 117.704L73.2925 117.736C72.8292 117.718 72.3719 117.845 71.9829 118.097C71.5939 118.349 71.292 118.715 71.1185 119.145L70.8155 119.353C69.1785 119.074 67.4978 119.454 66.1398 120.41C66.7001 120.639 67.3219 120.669 67.9015 120.494C67.2135 120.678 66.5482 120.938 65.9178 121.27C65.6802 121.369 65.4673 121.519 65.2941 121.71C65.2134 121.808 65.1657 121.929 65.1581 122.055C65.1505 122.182 65.1834 122.308 65.2519 122.415C65.3068 122.479 65.3831 122.522 65.4668 122.535C65.1248 122.692 64.8341 122.942 64.6282 123.257C64.371 123.704 64.5013 124.398 64.9805 124.55L64.8889 124.687C63.1806 126.355 61.8723 128.389 61.0624 130.635C61.0059 130.735 60.9762 130.848 60.9762 130.963C60.9762 131.078 61.0059 131.19 61.0624 131.29C61.0963 131.322 61.139 131.343 61.185 131.35C61.2309 131.357 61.2779 131.35 61.3196 131.329C60.3592 133.254 60.0112 135.427 60.3225 137.555C59.9346 138.58 59.7693 139.675 59.8373 140.769C59.9053 141.862 60.2052 142.929 60.7171 143.898C60.7735 144 60.8334 144.102 60.8933 144.204C61.0659 146.043 62.0173 146.632 62.0173 146.632H78.2254L83.0843 144.296C83.0843 144.296 83.4649 143.774 84.085 141.392C84.7051 139.01 84.0357 135.772 84.085 134.817C84.1273 133.93 85.4557 130.561 85.6353 130.107C85.8554 130.393 86.1085 130.652 86.3894 130.878C86.4401 130.933 86.5037 130.974 86.5745 130.998C86.6453 131.022 86.7209 131.028 86.7946 131.016C86.8661 130.982 86.9227 130.923 86.9538 130.85C86.985 130.778 86.9885 130.696 86.9637 130.621C86.9108 130.472 86.8253 130.338 86.7135 130.226C86.6033 130.114 86.5275 129.972 86.4951 129.818C86.8512 130.069 87.2575 130.241 87.686 130.321C87.748 130.341 87.8139 130.346 87.8782 130.336C87.9425 130.326 88.0035 130.3 88.056 130.262C88.0942 130.216 88.1171 130.159 88.1215 130.1C88.1259 130.041 88.1116 129.981 88.0807 129.93C88.0199 129.827 87.9338 129.741 87.8305 129.68C87.5697 129.497 87.2914 129.328 87.0448 129.127C87.8587 128.51 88.8065 127.661 89.2293 126.77C90.0397 125.054 90.5612 122.147 90.5612 122.147C90.5612 122.147 93.3236 120.861 93.8486 120.53C94.3757 120.143 94.876 119.722 95.3461 119.268L95.6104 119.148C96.2305 118.86 97.5659 118.909 97.5659 118.909C97.3545 117.746 95.1171 117.598 95.1171 117.598Z" fill="#EBEBEB"/>
<path d="M86.8016 111.073C87.986 111.278 89.1135 111.732 90.1102 112.404C91.5407 113.461 95.0642 116.548 95.1136 116.929C95.1417 117.15 95.1417 117.373 95.1136 117.595C95.1136 117.595 97.351 117.739 97.5413 118.93C97.5413 118.93 96.2094 118.884 95.5892 119.17L95.325 119.289C95.2369 119.37 94.8317 119.751 94.423 120.096L94.0389 120.05C93.6094 120.03 93.1922 119.9 92.8268 119.673C92.7507 119.625 92.6852 119.562 92.6343 119.487C92.5835 119.413 92.5483 119.329 92.5308 119.24C92.4745 118.831 92.9501 118.578 93.1545 118.222C93.4646 117.69 93.1334 117.031 92.8022 116.509C92.5291 115.965 92.1077 115.51 91.5865 115.195C91.2667 115.053 90.9179 114.988 90.5682 115.005C89.7942 115.009 89.0523 115.315 88.5 115.857C88.3395 116.071 88.2409 116.325 88.2148 116.591C88.1887 116.857 88.2361 117.125 88.352 117.366C88.352 117.366 88.426 118.874 87.383 117.852C86.4775 116.967 84.3915 115.819 84.24 114.089C84.1425 113.175 84.1425 112.254 84.24 111.34C84.24 111.34 85.7199 110.762 86.8016 111.073Z" fill="#263238"/>
<path d="M90.6035 117.852C90.9246 117.852 91.1849 117.591 91.1849 117.27C91.1849 116.949 90.9246 116.689 90.6035 116.689C90.2824 116.689 90.0221 116.949 90.0221 117.27C90.0221 117.591 90.2824 117.852 90.6035 117.852Z" fill="#263238"/>
<path d="M69.1594 134.701C69.8537 135.105 70.6244 135.361 71.4227 135.452C72.221 135.543 73.0295 135.467 73.797 135.229C74.5644 134.991 75.2741 134.597 75.8811 134.07C76.4882 133.544 76.9793 132.897 77.3233 132.171C77.7708 131.227 77.9717 130.149 78.6235 129.328C79.2754 128.507 80.3606 128.024 81.2556 127.39C82.1505 126.756 82.9469 125.709 82.665 124.652C82.3831 123.595 81.1111 123.063 80.0118 123.148C77.8166 123.317 76.1359 125.16 74.9767 127.023C73.8175 128.887 72.8626 130.987 71.0691 132.284C70.5548 132.601 70.0732 132.968 69.6315 133.38C69.4125 133.589 69.2574 133.856 69.1844 134.15C69.1114 134.444 69.1235 134.752 69.2193 135.039" fill="#E0E0E0"/>
<path d="M74.8288 122.069C74.5436 122.58 74.1523 123.023 73.6812 123.37C73.2102 123.716 72.6703 123.958 72.098 124.078C71.7069 124.155 71.2031 124.272 71.1537 124.666C71.1514 124.822 71.1852 124.976 71.2524 125.117C71.4557 125.74 71.551 126.393 71.5343 127.048C71.5678 127.642 71.5023 128.237 71.3405 128.81C70.8437 130.36 69.2264 131.364 68.7719 132.925C68.6344 133.394 68.6415 133.982 69.0256 134.278C69.2538 134.429 69.5238 134.504 69.7972 134.493C71.0903 134.525 72.3059 133.908 73.3841 133.2C74.2692 132.657 75.0478 131.958 75.6815 131.135C76.5482 129.927 76.9041 128.398 77.8343 127.238C78.7011 126.153 79.9766 125.498 81.1922 124.828C81.8969 124.441 82.6651 123.933 82.7672 123.137C82.7992 122.733 82.7044 122.329 82.4959 121.981C82.0781 121.241 81.4304 120.657 80.6508 120.318C79.8712 119.979 79.0024 119.904 78.1761 120.103" fill="#EBEBEB"/>
<path d="M78.176 120.1C78.306 120.057 78.4391 120.025 78.5742 120.005C78.9647 119.936 79.3641 119.936 79.7546 120.005C80.3743 120.111 80.9613 120.358 81.4705 120.727C81.7888 120.957 82.0684 121.237 82.2985 121.555C82.5718 121.907 82.7545 122.321 82.8306 122.76C82.8585 123.008 82.8275 123.259 82.7399 123.493C82.6524 123.727 82.5108 123.937 82.3267 124.106C81.9422 124.463 81.5078 124.762 81.0371 124.994C80.0179 125.493 79.0757 126.136 78.2395 126.904C77.8134 127.345 77.457 127.849 77.1824 128.398C76.897 128.954 76.6504 129.55 76.3509 130.142C76.0588 130.752 75.6763 131.315 75.2163 131.812C74.732 132.308 74.1957 132.751 73.6166 133.133C73.0499 133.533 72.4443 133.874 71.8091 134.151C71.185 134.427 70.5111 134.573 69.8288 134.578C69.6546 134.592 69.4793 134.571 69.3135 134.516C69.1476 134.461 68.9945 134.373 68.8634 134.257C68.7564 134.127 68.6776 133.975 68.6321 133.813C68.5867 133.65 68.5754 133.48 68.5991 133.313C68.7056 132.686 68.9672 132.096 69.3602 131.597C70.0649 130.617 70.9317 129.811 71.2594 128.796C71.4023 128.306 71.4688 127.798 71.4567 127.288C71.4655 126.816 71.4361 126.345 71.3686 125.878C71.3327 125.662 71.2809 125.449 71.2136 125.241C71.1092 125.042 71.0709 124.814 71.1044 124.592C71.1455 124.491 71.2095 124.401 71.2915 124.329C71.3734 124.257 71.471 124.204 71.5765 124.176C71.756 124.116 71.9397 124.069 72.1262 124.036C72.7284 123.907 73.2936 123.643 73.7787 123.264C74.1959 122.936 74.5535 122.54 74.8357 122.091C74.7796 122.214 74.7124 122.332 74.6349 122.443C74.4137 122.771 74.1454 123.064 73.8386 123.313C73.3511 123.711 72.7783 123.991 72.1649 124.131C71.9842 124.164 71.8064 124.211 71.6329 124.272C71.5442 124.296 71.4623 124.341 71.3934 124.402C71.3244 124.463 71.2702 124.539 71.2347 124.624C71.2098 124.821 71.2493 125.022 71.3475 125.195C71.4212 125.409 71.4766 125.63 71.5131 125.854C71.5873 126.329 71.6215 126.81 71.6153 127.291C71.6309 127.816 71.5655 128.34 71.4215 128.845C71.0691 129.902 70.2094 130.737 69.5153 131.699C69.144 132.175 68.8959 132.736 68.7929 133.331C68.7706 133.476 68.7787 133.624 68.817 133.766C68.8552 133.908 68.9226 134.041 69.0149 134.155C69.1302 134.252 69.2637 134.326 69.4077 134.371C69.5516 134.417 69.7032 134.433 69.8535 134.419C70.5107 134.413 71.1597 134.272 71.7597 134.004C72.3854 133.731 72.9816 133.396 73.5391 133.003C74.1073 132.629 74.6331 132.194 75.1071 131.706C75.5567 131.224 75.9309 130.676 76.217 130.082C76.5094 129.5 76.7596 128.901 77.052 128.338C77.3256 127.777 77.6819 127.26 78.1091 126.805C78.9607 126.03 79.9196 125.382 80.9561 124.881C81.4155 124.659 81.8404 124.372 82.2175 124.028C82.3886 123.876 82.5212 123.685 82.6045 123.471C82.6878 123.257 82.7194 123.027 82.6967 122.799C82.6249 122.379 82.4534 121.983 82.1964 121.643C81.9745 121.333 81.7072 121.059 81.4036 120.829C80.9091 120.462 80.3382 120.212 79.7334 120.096C79.3514 120.022 78.9602 120.009 78.5742 120.057C78.317 120.075 78.1796 120.11 78.176 120.1Z" fill="#263238"/>
<path d="M66.2173 124.726C66.3337 124.424 66.5058 124.147 66.7247 123.909C67.0453 123.489 67.3378 123.172 67.38 123.204C67.2627 123.505 67.0907 123.783 66.8727 124.021C66.552 124.441 66.2596 124.758 66.2173 124.726Z" fill="#263238"/>
<path d="M66.3159 125.984C66.3015 125.644 66.3667 125.305 66.5061 124.994C66.6456 124.683 66.8555 124.41 67.1193 124.194C67.1616 124.229 66.8902 124.582 66.6753 125.071C66.4604 125.561 66.3688 125.991 66.3159 125.984Z" fill="#263238"/>
<path d="M86.3647 126.879C86.3487 126.61 86.3945 126.341 86.4986 126.093C86.6219 125.674 86.7628 125.343 86.8122 125.36C86.8237 125.629 86.7768 125.897 86.6747 126.146C86.6262 126.41 86.5204 126.66 86.3647 126.879Z" fill="#263238"/>
<path d="M86.8121 126.879C86.7628 126.861 86.8121 126.587 86.9495 126.266C87.087 125.945 87.2103 125.699 87.2596 125.716C87.3089 125.734 87.2596 126.009 87.1187 126.333C86.9777 126.657 86.8579 126.9 86.8121 126.879Z" fill="#263238"/>
<path d="M80.276 140.843C80.291 140.558 80.3204 140.275 80.3641 139.993C80.3484 139.709 80.3484 139.425 80.3641 139.141C80.525 139.398 80.5887 139.704 80.5438 140.004C80.5588 140.307 80.4636 140.605 80.276 140.843Z" fill="#263238"/>
<path d="M80.8116 140.931C80.8333 140.602 80.8757 140.275 80.9385 139.951C80.9396 139.62 80.9607 139.29 81.0019 138.961C81.1139 139.284 81.1549 139.627 81.122 139.967C81.0892 140.307 80.9833 140.636 80.8116 140.931Z" fill="#263238"/>
<path d="M66.2243 142.453C66.0189 142.136 65.8977 141.772 65.872 141.396C65.7764 141.034 65.7764 140.654 65.872 140.293C65.957 140.64 66.0147 140.994 66.0446 141.35C66.1336 141.712 66.1936 142.081 66.2243 142.453Z" fill="#263238"/>
<path d="M65.2201 141.738C65.1672 141.738 65.1073 141.424 65.0862 141.033C65.0455 140.798 65.0624 140.556 65.1355 140.328C65.2852 140.79 65.3143 141.283 65.2201 141.759V141.738Z" fill="#263238"/>
<path d="M64.4378 141.019C64.2857 140.748 64.1977 140.446 64.1806 140.135C64.1635 139.825 64.2177 139.515 64.3392 139.229C64.3675 139.527 64.3758 139.828 64.3638 140.127C64.4111 140.422 64.4359 140.72 64.4378 141.019Z" fill="#263238"/>
<path d="M84.7474 131.815C84.7758 132.219 84.9229 132.605 85.1703 132.925C85.1997 132.974 85.2398 133.015 85.2874 133.045C85.335 133.076 85.3889 133.095 85.4451 133.102C85.6565 133.102 85.7058 132.802 85.6882 132.587L85.4451 129.751" fill="#EBEBEB"/>
<path d="M79.7758 116.858C79.5886 117.013 79.3749 117.132 79.145 117.21C78.9053 117.308 78.6592 117.389 78.4086 117.454C78.2677 117.492 78.1162 117.524 77.9612 117.552C77.8694 117.572 77.7745 117.572 77.6828 117.552C77.6219 117.539 77.5675 117.505 77.5289 117.456C77.4903 117.408 77.47 117.347 77.4714 117.284C77.4934 117.19 77.5365 117.102 77.5976 117.027C77.6586 116.952 77.736 116.892 77.8237 116.851C77.9576 116.763 78.0845 116.682 78.2113 116.608C78.4333 116.477 78.6627 116.36 78.8984 116.256C79.1086 116.142 79.3359 116.064 79.5714 116.023C79.3783 116.161 79.1717 116.279 78.9548 116.375C78.7645 116.478 78.5425 116.608 78.2994 116.763C78.1796 116.837 78.0563 116.922 77.9259 117.01C77.8657 117.052 77.808 117.098 77.7533 117.147C77.7081 117.188 77.6783 117.242 77.6687 117.302C77.6687 117.387 77.7955 117.411 77.9435 117.383C78.0915 117.355 78.243 117.327 78.384 117.299C78.6623 117.235 78.909 117.161 79.1169 117.098C79.3301 117.001 79.5504 116.921 79.7758 116.858Z" fill="#263238"/>
<path d="M86.8721 132.538C86.8343 133.101 86.9294 133.665 87.1497 134.185C87.3701 134.704 87.7095 135.165 88.1406 135.529C88.2381 134.764 88.0887 133.987 87.7142 133.313C87.5099 132.939 87.2949 132.541 86.8721 132.538Z" fill="#EBEBEB"/>
<path d="M62.8735 125.142C62.3125 125.077 61.7441 125.145 61.2138 125.339C60.6834 125.532 60.2056 125.848 59.8186 126.259C60.5784 126.396 61.3622 126.288 62.056 125.949C62.4401 125.762 62.8488 125.568 62.8735 125.142Z" fill="#EBEBEB"/>
<path d="M83.9898 114.17C84.0233 113.921 84.0233 113.668 83.9898 113.419C83.9898 113.165 84.1625 112.873 84.4162 112.891C84.6699 112.908 84.7474 113.113 84.8284 113.299C85.1114 113.932 85.2888 114.607 85.3534 115.297C85.376 115.109 85.445 114.93 85.5543 114.776C85.6128 114.702 85.6965 114.652 85.7894 114.636C85.8823 114.619 85.978 114.638 86.0581 114.688C86.1501 114.783 86.204 114.908 86.2096 115.04C86.2836 115.456 86.3576 115.875 86.4351 116.291C86.4256 116.212 86.4336 116.132 86.4587 116.056C86.4837 115.981 86.5252 115.912 86.5801 115.854C86.635 115.796 86.702 115.752 86.7762 115.723C86.8504 115.694 86.9301 115.683 87.0095 115.688C87.1701 115.712 87.3209 115.78 87.4453 115.885C87.5696 115.989 87.6627 116.126 87.7142 116.28C87.8126 116.59 87.8532 116.915 87.834 117.239C87.834 117.609 87.834 117.982 87.834 118.356C87.8583 118.569 87.8058 118.784 87.686 118.962C87.608 119.038 87.5103 119.091 87.4038 119.115C87.2973 119.138 87.1864 119.132 87.0835 119.096C86.8768 119.021 86.69 118.901 86.5373 118.743C85.1843 117.521 84.4232 115.787 83.7185 114.11" fill="#EBEBEB"/>
<path d="M87.2174 121.604C87.1076 121.613 86.997 121.605 86.8897 121.58C86.588 121.537 86.2892 121.475 85.9948 121.396C85.7836 121.345 85.5772 121.276 85.3782 121.189C85.2518 121.13 85.1524 121.025 85.0998 120.896C85.0794 120.817 85.0868 120.734 85.1209 120.66C85.1549 120.586 85.2134 120.526 85.2865 120.491C85.4143 120.424 85.5526 120.38 85.6953 120.36C85.8371 120.333 85.9808 120.317 86.1251 120.311C86.4351 120.297 86.7455 120.331 87.0448 120.413L86.9708 120.572C86.6251 120.328 86.2944 120.063 85.9807 119.779C85.697 119.527 85.4276 119.258 85.1738 118.976C85.0958 118.904 85.0381 118.814 85.0066 118.713C84.975 118.612 84.9707 118.505 84.9941 118.401C85.013 118.347 85.0451 118.298 85.0875 118.258C85.1299 118.219 85.1813 118.191 85.2372 118.176C85.3324 118.155 85.431 118.155 85.5261 118.176C86.1223 118.313 86.6724 118.604 87.1223 119.018C87.423 119.293 87.6713 119.62 87.8552 119.983C87.9289 120.113 87.9813 120.253 88.0102 120.399C87.7682 119.913 87.4371 119.477 87.0342 119.113C86.5993 118.732 86.0761 118.466 85.512 118.338C85.357 118.31 85.209 118.338 85.1773 118.458C85.1643 118.531 85.1711 118.607 85.1972 118.677C85.2232 118.747 85.2674 118.809 85.3253 118.856C85.5762 119.132 85.8408 119.396 86.1181 119.645C86.4265 119.923 86.75 120.185 87.0871 120.427L87.4958 120.72L87.0131 120.586C86.4775 120.427 85.9056 120.441 85.3782 120.625C85.3342 120.643 85.2979 120.675 85.2754 120.717C85.2529 120.759 85.2456 120.807 85.2548 120.854C85.2953 120.947 85.3677 121.024 85.4592 121.069C85.6459 121.158 85.8405 121.23 86.0406 121.284C86.7629 121.513 87.2245 121.58 87.2174 121.604Z" fill="#263238"/>
<path d="M75.0577 128.225C75.0217 128.32 74.9665 128.406 74.8956 128.479C74.8232 128.576 74.7336 128.66 74.6314 128.725C74.4871 128.817 74.313 128.85 74.1451 128.817C74.0419 128.797 73.9485 128.742 73.8809 128.662C73.8078 128.573 73.7668 128.463 73.7646 128.348C73.7748 128.125 73.8224 127.904 73.9055 127.696C74.0648 127.223 74.2838 126.772 74.5574 126.354C74.649 126.21 74.7512 126.069 74.8498 125.942L74.9661 126.076C74.7639 126.208 74.5306 126.284 74.2896 126.298C74.1653 126.3 74.0439 126.26 73.9458 126.183C73.8477 126.107 73.7787 125.999 73.7505 125.878C73.7512 125.673 73.8179 125.473 73.9408 125.307C74.0275 125.168 74.1228 125.034 74.2262 124.906C74.3741 124.725 74.5406 124.559 74.723 124.413C74.8533 124.31 74.9309 124.268 74.9379 124.275C74.945 124.282 74.6666 124.515 74.3213 124.98C74.2284 125.108 74.1437 125.242 74.0676 125.381C73.9684 125.519 73.9142 125.684 73.9126 125.854C73.9357 125.935 73.986 126.007 74.0552 126.056C74.1243 126.105 74.2083 126.13 74.2931 126.125C74.5023 126.105 74.7033 126.034 74.878 125.917L75.2621 125.702L74.9943 126.054C74.8992 126.181 74.8005 126.315 74.7089 126.456C74.4458 126.864 74.2295 127.3 74.0641 127.756C73.9855 127.945 73.9356 128.145 73.9161 128.348C73.9134 128.428 73.9377 128.506 73.985 128.57C74.0323 128.634 74.1 128.68 74.1768 128.701C74.3007 128.721 74.4277 128.708 74.5448 128.663C74.6619 128.617 74.7647 128.542 74.8428 128.443C74.9767 128.299 75.0471 128.214 75.0577 128.225Z" fill="#263238"/>
<path d="M95.1171 117.598C95.3685 117.612 95.6183 117.646 95.8641 117.7C96.1681 117.763 96.4637 117.861 96.745 117.993C96.9273 118.085 97.0947 118.203 97.2418 118.345C97.4104 118.508 97.5258 118.718 97.573 118.948V118.979H97.5413C97.1884 118.973 96.8355 118.987 96.4842 119.022C96.0831 119.049 95.692 119.16 95.3356 119.346C95.0572 119.606 94.7577 119.881 94.43 120.16C94.2679 120.297 94.0953 120.434 93.9085 120.565C93.7145 120.694 93.5133 120.811 93.306 120.917C92.4674 121.347 91.5443 121.788 90.5471 122.256L90.5753 122.221C90.3486 123.465 90.033 124.69 89.631 125.889C89.5218 126.21 89.3949 126.527 89.2505 126.844C89.0943 127.166 88.8978 127.466 88.6656 127.739C88.1841 128.299 87.6403 128.803 87.0447 129.24V129.141C87.2527 129.305 87.4691 129.458 87.6931 129.599C87.8211 129.672 87.9395 129.761 88.0454 129.863C88.105 129.924 88.1436 130.001 88.1557 130.085C88.1677 130.169 88.1525 130.254 88.1124 130.329C88.0864 130.364 88.0532 130.395 88.015 130.417C87.9768 130.439 87.9344 130.454 87.8904 130.459C87.8122 130.471 87.7325 130.471 87.6543 130.459C87.5102 130.431 87.3678 130.394 87.228 130.35C86.9449 130.252 86.6768 130.116 86.4316 129.944L86.5338 129.885C86.5585 130.082 86.7382 130.237 86.8862 130.438C86.9717 130.544 87.0189 130.675 87.0201 130.811C87.0241 130.888 87.0028 130.964 86.9596 131.028C86.9163 131.091 86.8534 131.139 86.7805 131.164C86.7088 131.177 86.6351 131.173 86.565 131.154C86.4948 131.134 86.4299 131.099 86.3753 131.051C86.2696 130.97 86.1744 130.889 86.0793 130.801C85.89 130.624 85.7145 130.433 85.5543 130.23L85.6741 130.212C85.2759 131.231 84.8743 132.291 84.5149 133.383C84.4233 133.658 84.3387 133.94 84.2647 134.222C84.1779 134.499 84.134 134.788 84.1343 135.078C84.159 135.667 84.2365 136.269 84.2894 136.882C84.4321 138.134 84.4321 139.397 84.2894 140.649C84.1846 141.291 84.0327 141.925 83.8348 142.545C83.6658 143.19 83.4296 143.816 83.1301 144.412H83.109L78.2501 146.752H78.2324H62.0243H61.9926H61.975C61.228 146.181 60.9179 145.198 60.8087 144.253V144.292C60.2178 143.291 59.858 142.17 59.7556 141.012C59.6532 139.854 59.8107 138.687 60.2167 137.598V137.559V137.605C59.903 135.458 60.2547 133.266 61.2245 131.326L61.3372 131.449C61.2831 131.474 61.223 131.484 61.1638 131.476C61.1046 131.469 61.0486 131.445 61.0025 131.407C60.9234 131.33 60.8756 131.227 60.8686 131.118C60.8624 130.932 60.8985 130.748 60.9743 130.579C61.0941 130.255 61.2209 129.937 61.3584 129.624C61.6357 129 61.9511 128.394 62.3027 127.809C63.0009 126.659 63.8401 125.601 64.8008 124.659V124.677L64.8924 124.536L64.9382 124.67C64.8203 124.628 64.714 124.558 64.6282 124.467C64.5424 124.376 64.4796 124.265 64.445 124.145C64.3728 123.915 64.3728 123.669 64.445 123.44C64.6361 123.015 64.9792 122.677 65.4069 122.492L65.4315 122.658C65.3289 122.641 65.2355 122.588 65.1673 122.51C65.1058 122.431 65.0658 122.337 65.051 122.239C65.0293 122.05 65.0783 121.861 65.1884 121.706C65.4198 121.451 65.7084 121.254 66.0305 121.132C66.6138 120.831 67.2282 120.595 67.8628 120.427L67.9086 120.597C67.3137 120.775 66.6758 120.744 66.101 120.508L65.9565 120.449L66.0834 120.357C67.4621 119.394 69.1652 119.014 70.8225 119.3H70.7591L71.0656 119.096L71.0339 119.134C71.2127 118.687 71.5259 118.305 71.9304 118.043C72.3348 117.78 72.8107 117.649 73.2925 117.669H73.2432L73.296 117.637V117.785L72.1967 117.397C72.0944 117.366 71.998 117.319 71.9113 117.256C71.8607 117.215 71.8254 117.158 71.8107 117.094C71.796 117.03 71.8029 116.963 71.8302 116.904C71.9542 116.734 72.1315 116.61 72.3341 116.552C73.0385 116.245 73.8046 116.108 74.5715 116.15L74.501 116.27C74.4341 116.157 74.2368 116.168 74.0536 116.168C73.9448 116.17 73.8379 116.139 73.747 116.079C73.6922 116.05 73.6472 116.006 73.6177 115.951C73.5882 115.897 73.5756 115.835 73.5814 115.773C73.6013 115.715 73.6375 115.664 73.6856 115.626C73.7337 115.588 73.7917 115.564 73.8527 115.558L74.1276 115.512C74.3108 115.484 74.4799 115.466 74.6772 115.452C75.4023 115.401 76.131 115.463 76.8371 115.635L77.0063 115.678L76.8618 115.773L76.8336 115.791L76.7561 115.66C77.2952 115.361 77.8131 115.079 78.2994 114.797L78.3452 114.934C78.127 114.983 77.8991 114.967 77.6898 114.888C77.6269 114.857 77.577 114.805 77.5493 114.74C77.5215 114.676 77.5176 114.603 77.5383 114.536C77.5849 114.432 77.6624 114.345 77.7603 114.286C78.0906 114.038 78.4447 113.823 78.8173 113.645C79.5356 113.295 80.3095 113.073 81.1041 112.989V113.127L80.5333 113.109H80.2479C80.1444 113.111 80.0416 113.093 79.9449 113.056C79.8913 113.028 79.8476 112.985 79.8198 112.931C79.7921 112.877 79.7816 112.817 79.7898 112.757C79.796 112.702 79.8136 112.648 79.8415 112.6C79.8694 112.553 79.907 112.511 79.9519 112.478C80.1164 112.378 80.2979 112.309 80.4875 112.274C81.1835 112.097 81.9019 112.025 82.6192 112.059H82.584L82.6474 112.024L82.6685 112.14L81.1429 111.788C81.01 111.767 80.8836 111.716 80.7729 111.64C80.7069 111.598 80.6595 111.532 80.6405 111.456C80.6215 111.38 80.6323 111.299 80.6707 111.231C80.7103 111.172 80.7624 111.123 80.8233 111.086C80.8842 111.049 80.9524 111.027 81.0231 111.02C81.1499 110.999 81.2697 110.991 81.393 110.981C82.3349 110.911 83.2815 111.013 84.1872 111.28L84.4831 111.369H84.1731H84.0321L84.0779 111.291L84.1026 111.372L84.0286 111.333C85.0059 110.936 86.0796 110.84 87.1117 111.058C88.0154 111.247 88.8827 111.58 89.6803 112.045C90.031 112.256 90.3666 112.492 90.6845 112.75C90.9946 112.996 91.287 113.236 91.5654 113.472C92.1174 113.942 92.6142 114.374 93.0559 114.769C93.7404 115.356 94.3865 115.987 94.9903 116.657C95.0882 116.756 95.1439 116.888 95.1453 117.027C95.1504 117.125 95.1504 117.222 95.1453 117.32C95.1436 117.398 95.1341 117.476 95.1171 117.552C95.121 117.475 95.121 117.397 95.1171 117.32C95.1171 117.242 95.1171 117.144 95.1171 117.027C95.1126 116.894 95.0571 116.768 94.9621 116.675C94.3488 116.016 93.697 115.393 93.01 114.811C92.5731 114.461 92.0704 114.051 91.502 113.581C91.2201 113.349 90.9276 113.109 90.6176 112.877C90.3003 112.619 89.966 112.384 89.6169 112.172C88.8253 111.718 87.9666 111.394 87.0729 111.21C86.0597 110.999 85.0064 111.097 84.0498 111.492L83.9934 111.513V111.453L83.9758 111.39L83.9581 111.319H84.0216H84.1625V111.428C83.2703 111.166 82.3377 111.069 81.4107 111.143C81.1781 111.168 80.8892 111.143 80.7835 111.333C80.7716 111.354 80.764 111.377 80.7611 111.401C80.7582 111.425 80.7601 111.45 80.7667 111.473C80.7732 111.496 80.7843 111.518 80.7993 111.537C80.8143 111.556 80.8328 111.572 80.8539 111.583C80.9518 111.651 81.0639 111.696 81.1816 111.714L82.7003 112.049L82.8588 112.084L82.7179 112.165L82.6544 112.2H82.6333C81.9288 112.167 81.2234 112.24 80.5403 112.415C80.3686 112.446 80.2039 112.508 80.0541 112.598C79.9273 112.683 79.8955 112.894 80.0259 112.951C80.2005 112.989 80.3794 113.004 80.558 112.996L81.1288 113.014V113.151C80.3512 113.235 79.5941 113.453 78.8913 113.796C78.5326 113.973 78.1905 114.181 77.8695 114.42C77.7986 114.472 77.7447 114.545 77.7145 114.628C77.7055 114.662 77.7091 114.699 77.7246 114.731C77.7401 114.764 77.7664 114.789 77.7991 114.804C77.9826 114.862 78.178 114.872 78.3663 114.832L78.7187 114.804L78.4262 114.97L76.8794 115.836L76.8019 115.706L76.8266 115.688L76.8512 115.826C76.16 115.657 75.4467 115.598 74.7371 115.65C74.5574 115.65 74.3848 115.681 74.2015 115.709C74.0183 115.738 73.7928 115.752 73.7858 115.847C73.7858 115.882 73.8175 115.949 73.8809 115.991C73.9469 116.034 74.0245 116.055 74.1029 116.051C74.1991 116.044 74.2956 116.044 74.3918 116.051C74.4499 116.055 74.5063 116.072 74.5569 116.101C74.6076 116.129 74.6511 116.169 74.6843 116.217L74.7653 116.347H74.6138C73.8721 116.308 73.1315 116.442 72.4504 116.738C72.2812 116.812 72.098 116.886 72.0275 117.017C71.9571 117.147 72.1156 117.235 72.3024 117.288L73.3982 117.676L73.5638 117.732L73.4158 117.824L73.363 117.855H73.3383H73.3136C72.8673 117.84 72.427 117.962 72.0525 118.205C71.678 118.448 71.3876 118.801 71.2207 119.215V119.24H71.196L70.893 119.444L70.8648 119.466H70.8331C69.2176 119.198 67.5616 119.578 66.2243 120.523L66.2067 120.375C66.7452 120.591 67.3412 120.62 67.898 120.456L67.9438 120.625C67.3204 120.786 66.7167 121.015 66.1433 121.308C65.8494 121.419 65.5852 121.596 65.3716 121.826C65.2888 121.944 65.2513 122.088 65.2659 122.231C65.2754 122.298 65.3021 122.361 65.3434 122.415C65.3859 122.461 65.4433 122.491 65.5055 122.499L65.7557 122.549L65.5302 122.665C65.1439 122.83 64.8326 123.133 64.6564 123.514C64.5295 123.884 64.6564 124.398 65.0334 124.518L65.1461 124.553L65.0827 124.652L64.9911 124.79C64.0427 125.721 63.2141 126.768 62.5246 127.904C62.1764 128.483 61.8657 129.083 61.5944 129.701C61.4535 130.008 61.3302 130.325 61.2139 130.646C61.1472 130.789 61.1134 130.946 61.1152 131.104C61.1199 131.167 61.146 131.226 61.1892 131.273C61.2121 131.286 61.2383 131.294 61.265 131.294C61.2917 131.294 61.3178 131.286 61.3407 131.273L61.5592 131.188L61.4535 131.4C60.5012 133.307 60.1569 135.46 60.4669 137.569V137.594V137.619V137.654C60.072 138.716 59.9186 139.853 60.018 140.981C60.1173 142.11 60.4669 143.203 61.0412 144.179V144.236C61.0804 144.695 61.1885 145.145 61.3619 145.571C61.5234 145.972 61.7841 146.324 62.1194 146.597H62.0736H78.2818H78.243L83.0456 144.236L83.0138 144.264C83.3075 143.682 83.5435 143.073 83.7186 142.446C83.9127 141.833 84.0646 141.208 84.1731 140.575C84.3123 139.334 84.3123 138.081 84.1731 136.84C84.1202 136.23 84.0427 135.635 84.0181 135.029C84.0187 134.724 84.065 134.421 84.1555 134.13C84.233 133.844 84.3175 133.562 84.4092 133.285C84.7615 132.178 85.1773 131.118 85.579 130.114L85.6248 130.001L85.7023 130.096C85.8564 130.296 86.0261 130.483 86.2097 130.656C86.3894 130.808 86.5937 131.03 86.777 130.987C86.8204 130.968 86.8571 130.937 86.8822 130.896C86.9073 130.856 86.9198 130.809 86.9179 130.762C86.9159 130.656 86.8787 130.555 86.8122 130.473C86.6853 130.293 86.4598 130.121 86.4387 129.856L86.4176 129.708L86.5409 129.793C86.7758 129.959 87.0333 130.091 87.3055 130.184C87.4393 130.228 87.5759 130.263 87.7142 130.29C87.8446 130.314 87.9855 130.311 88.0384 130.226C88.0634 130.176 88.0718 130.118 88.0623 130.063C88.0528 130.007 88.0259 129.956 87.9855 129.916C87.8916 129.822 87.7863 129.741 87.6719 129.673C87.4445 129.528 87.2246 129.372 87.013 129.205L86.9531 129.155L87.0166 129.109C87.6047 128.678 88.1435 128.183 88.6233 127.633C88.8489 127.368 89.0396 127.076 89.1906 126.763C89.335 126.453 89.4619 126.136 89.5746 125.818C89.9779 124.627 90.2958 123.408 90.526 122.172V122.147H90.5471C91.5443 121.682 92.4709 121.245 93.3095 120.822C93.515 120.721 93.7149 120.609 93.9085 120.487C94.0872 120.364 94.259 120.231 94.423 120.089C94.7507 119.818 95.0501 119.547 95.3285 119.286C95.516 119.19 95.7133 119.114 95.9169 119.06C96.1092 119.014 96.3047 118.982 96.5018 118.965C96.8532 118.933 97.2062 118.922 97.5589 118.933L97.5307 118.962C97.4861 118.743 97.3783 118.542 97.2206 118.384C97.0771 118.25 96.9144 118.138 96.7379 118.053C96.4614 117.916 96.1691 117.814 95.8676 117.75C95.628 117.693 95.4413 117.665 95.3144 117.647L95.1171 117.598Z" fill="#263238"/>
<path d="M250 146.974C250 147.023 194.029 147.065 125.007 147.065C55.985 147.065 0 147.023 0 146.974C0 146.924 55.9568 146.882 125.007 146.882C194.057 146.882 250 146.921 250 146.974Z" fill="#263238"/>
</svg>
