<svg width="241" height="222" viewBox="0 0 241 222" fill="none" xmlns="http://www.w3.org/2000/svg">
<path d="M115.047 55.7378C117.715 55.7378 119.877 53.5751 119.877 50.907C119.877 48.2391 117.715 46.0762 115.047 46.0762C112.379 46.0762 110.216 48.2391 110.216 50.907C110.216 53.5751 112.379 55.7378 115.047 55.7378Z" fill="#D7E8F0"/>
<path d="M127.563 55.3081C130.231 55.3081 132.394 53.1451 132.394 50.4773C132.394 47.8092 130.231 45.6465 127.563 45.6465C124.895 45.6465 122.732 47.8092 122.732 50.4773C122.732 53.1451 124.895 55.3081 127.563 55.3081Z" fill="#D7E8F0"/>
<path d="M32.858 128.38C30.5346 126.265 28.4008 123.95 26.4802 121.464C20.4102 113.339 17.6857 103.196 18.8674 93.1236C20.1908 82.24 26.3216 70.9274 36.3108 65.8938C46.9708 60.5248 60.1762 61.635 69.6506 53.6738C77.552 47.0152 80.334 36.1992 86.1164 27.8454C91.0564 20.7292 97.0364 14.237 104.288 9.42703C123.894 -3.57297 147.968 -0.302174 168.692 8.23883C178.858 12.4326 186.583 17.8016 192.423 23.7764" stroke="#CCDDE2" stroke-miterlimit="10"/>
<path d="M199.575 32.7031C216.189 58.3729 206.816 89.3831 206.816 89.3831" stroke="#CCDDE2" stroke-miterlimit="10"/>
<path d="M54.8982 154.645C62.5864 181.718 52.5868 193.164 52.5868 193.164" stroke="#CCDDE2" stroke-miterlimit="10"/>
<path d="M179.342 78.2989C178.483 75.1576 176.849 72.2825 174.589 69.9373C170.169 65.2391 163.635 62.4831 157.169 62.6833C152.606 62.8289 146.676 63.8845 142.945 60.5435C140.992 58.8067 140.579 55.9805 139.825 53.6275C138.993 50.9706 138.299 48.2726 137.745 45.5441C137.251 42.9488 136.313 40.4578 134.973 38.1809C133.526 35.7161 131.478 33.6588 129.019 32.2009C124.401 29.5333 117.956 29.2863 113.315 32.0215C112.654 32.4173 112.028 32.8678 111.443 33.3683C111.306 33.4812 111.175 33.6008 111.05 33.7271C107.026 37.4373 105.086 43.4355 105.187 48.7941C105.187 48.7941 105.187 49.1295 105.187 49.7119C105.187 50.0265 105.187 50.3073 105.187 50.5543C105.2 51.0353 105.211 51.6177 105.2 52.2573C105.414 55.4059 105.918 68.9701 100.076 76.2345C102.912 75.3505 105.796 74.5549 108.697 73.8945C108.705 73.8971 108.713 73.8971 108.721 73.8945C109.022 73.7255 111.916 72.1915 113.856 72.8545C114.224 72.9785 114.556 73.1904 114.823 73.4718C115.09 73.7531 115.285 74.0955 115.39 74.4691C115.39 74.4899 115.39 74.5029 115.413 74.5133C115.437 74.6043 115.47 74.7031 115.491 74.8045C115.512 74.8994 115.539 74.9933 115.569 75.0853C115.813 75.8336 116.148 76.5489 116.568 77.2147C116.624 77.3193 116.692 77.4167 116.77 77.5059C117.182 78.0472 117.665 78.5301 118.206 78.9411C118.003 78.7409 117.79 78.5147 117.566 78.2911C116.819 77.5493 116.251 76.6469 115.905 75.6526C115.559 74.6584 115.444 73.5984 115.569 72.5529C115.569 72.5529 116.053 73.1353 117.038 72.5737C118.024 72.0121 116.534 67.1605 116.165 65.7123C116.029 65.1741 116.825 65.2417 118.06 65.5459C117.16 64.9321 116.339 64.2087 115.616 63.3931C115.113 62.8367 114.655 62.24 114.248 61.6095C112.475 58.8535 111.804 56.7345 111.446 54.1111C110.617 53.1866 110.18 51.9755 110.229 50.7345C110.277 49.4935 110.807 48.3201 111.706 47.4629C111.725 47.4343 111.747 47.4081 111.773 47.3849C112.332 46.6673 113.476 46.3969 114.217 45.8717C115.008 45.2768 115.709 44.5699 116.297 43.7735C116.981 42.8765 118.117 41.5557 118.013 40.3441C118.315 43.6279 121.162 45.8041 124.313 45.8925C125.073 45.8907 125.832 45.8499 126.588 45.7703C126.588 45.7703 126.588 45.7703 126.611 45.7703C126.932 45.7022 127.259 45.6681 127.586 45.6689C128.361 45.6674 129.124 45.8533 129.811 46.2105C130.499 46.5678 131.089 47.0857 131.533 47.7203C131.578 47.7773 131.619 47.8373 131.655 47.8997C131.713 47.9881 131.767 48.0895 131.824 48.1909C132.01 48.4723 132.164 48.7731 132.285 49.0879C133.002 50.9261 132.945 52.9879 132.833 54.9275C132.664 57.7875 132.004 60.7905 130.413 63.2345C130.485 63.17 130.57 63.1217 130.662 63.0926C130.755 63.0635 130.852 63.0543 130.948 63.0655C132.183 63.2787 131.31 71.2607 132.675 71.6767C134.04 72.0927 133.975 73.1561 133.975 73.1561C133.975 73.3459 133.954 73.5253 133.93 73.7047C134.055 73.0477 134.1 72.3782 134.066 71.7105C134.469 71.7313 134.872 71.7755 135.275 71.8327C137.563 71.0527 142.035 73.5019 142.035 73.5019C142.041 73.5092 142.049 73.5139 142.058 73.5149C152.796 77.6515 160.118 88.0203 162.598 99.5877C163.501 103.751 163.971 107.996 163.999 112.255V90.9609C163.999 90.696 164.051 90.4334 164.152 90.1885C164.254 89.9435 164.402 89.721 164.59 89.5335C164.777 89.3461 165 89.1976 165.245 89.0962C165.489 88.9951 165.752 88.9431 166.017 88.9433H179.839C179.61 85.3397 180.283 81.8323 179.342 78.2989ZM123.796 81.4397C124.165 81.5385 124.547 81.6295 124.929 81.6997C125.174 81.6997 125.421 81.6763 125.668 81.6555C127.525 81.4514 129.276 80.6891 130.691 79.4689C129.31 80.4439 127.571 81.0497 125.545 81.2889C124.882 81.3721 124.3 81.4163 123.796 81.4397ZM129.279 64.6463C127.957 66.0048 126.218 66.881 124.339 67.1345C124.692 67.1941 125.048 67.2279 125.405 67.2359C127.272 67.2697 128.416 65.8449 129.279 64.6463Z" fill="#9ED5CF"/>
<path d="M158.246 137.098C157.572 138.889 157.112 139.9 157.112 139.9C157.291 148.421 152.078 167.921 152.078 167.921C145.118 168.537 138.951 168.404 133.481 167.72C147.417 157.261 154.288 145.909 158.246 137.098Z" fill="#2E2E2E"/>
<path d="M163.344 113.791C146.036 107.291 135.431 116.726 135.431 116.726C135.41 142.131 113.65 156.199 108.807 159C96.4774 150.729 93.0792 139.9 93.0792 139.9L94.1894 138.6C94.9694 136.426 96.9688 129.666 97.6214 123.153C98.2376 116.999 97.5408 111.058 97.4966 109.386C97.3952 105.947 95.8378 106.732 94.01 107.392C92.1822 108.053 83.7192 108.255 83.7192 108.255C93.1 102.972 88.238 80.5602 88.238 80.5602L108.684 73.912C108.684 73.912 114.469 70.6516 115.478 74.809C116.487 78.9664 120.512 80.789 124.916 81.725C129.321 82.661 133.392 77.5884 133.941 73.4856C134.489 69.3828 142.001 73.4856 142.001 73.4856C160.51 82.6948 164.231 99.431 163.344 113.791Z" fill="#2E2E2E"/>
<path d="M23.9764 196.16C23.9764 196.16 39.8988 194.416 42.647 196.16C42.647 196.16 43.1514 199.774 40.7204 204.257C38.2894 208.739 35.302 205.658 19.2366 206.688C19.2366 206.688 6.17674 207.728 6.02594 202.954C5.87514 198.18 11.9617 197.515 15.5055 197.476C19.0494 197.437 23.9764 196.16 23.9764 196.16Z" fill="#9ED5CF"/>
<path d="M84 191.543H83.8206" stroke="black" stroke-miterlimit="10"/>
<path d="M76.1428 89.3644C81.8264 86.9204 85.9058 80.709 89.4028 75.8886C91.7428 72.6828 94.6028 68.5254 96.9428 65.3404C99.2308 62.2464 103.794 56.7604 105.016 53.1204C105.07 52.9644 105.115 52.8084 105.161 52.6602" stroke="black" stroke-miterlimit="10"/>
<path d="M97.026 106.842C90.513 108.186 61.6478 112.918 58.3276 91.8629C54.5732 68.1093 92.6762 59.0743 95.804 51.8879C98.9318 44.7015 95.7 36.8807 103.932 33.2407C107.572 31.6261 110.13 31.9641 111.006 33.7347" stroke="black" stroke-miterlimit="10"/>
<path d="M42.66 197.708C45.741 183.114 52.8598 153.508 62.5344 139.158" stroke="black" stroke-miterlimit="10"/>
<path d="M95.895 102.705C98.56 110.843 99.912 123.687 93.2664 141.154" stroke="black" stroke-miterlimit="10"/>
<path d="M45.6734 210.981H36.5032C35.0979 210.969 33.7537 210.406 32.7597 209.412C31.7657 208.419 31.2015 207.075 31.1888 205.67C31.1906 205.425 31.2098 205.181 31.246 204.939C31.4225 204.51 31.5499 204.063 31.6256 203.605C31.7842 202.732 31.818 202.214 33.3858 201.398C34.386 200.889 35.4159 200.439 36.4694 200.051C36.6696 199.983 36.8724 199.895 37.096 199.817C37.9384 199.502 39.0694 199.076 40.4032 198.572C40.7412 198.449 41.087 198.312 41.4432 198.179C41.7994 198.046 42.2388 197.877 42.6548 197.719C48.7986 195.433 57.519 192.181 63.2364 190.041H63.2702C63.5546 189.986 63.8437 189.96 64.1334 189.963C65.4557 189.964 66.7238 190.489 67.6587 191.425C68.5939 192.36 69.1194 193.628 69.1202 194.95C69.1202 194.95 34.4622 204.817 45.6734 210.981Z" fill="#9ED5CF"/>
<path d="M59.56 144.162C63.6628 154.978 66.32 168.436 78.4386 184.881" stroke="black" stroke-miterlimit="10"/>
<path d="M135.197 112.178C137.069 130.305 127.698 149.675 103.326 162.017C95.6376 165.917 88.4616 171.117 83.09 177.914C81.6046 179.812 80.2513 181.81 79.0392 183.894C78.1188 185.454 75.9998 188.314 76.9956 190.214C77.5156 191.21 78.3736 191.561 79.4422 191.561C82.3594 191.561 85.3208 184.164 87.6088 180.865" stroke="black" stroke-miterlimit="10"/>
<path d="M92.8946 182.887C92.8946 182.887 87.64 191.451 84 191.55C80.36 191.649 82.934 188.737 82.934 188.737" stroke="black" stroke-miterlimit="10"/>
<path d="M117.831 72.2227C106.308 73.7697 94.8056 77.5475 84.5954 82.1235" stroke="black" stroke-miterlimit="10"/>
<path d="M96.6334 185.748C96.6115 185.785 96.5855 185.819 96.5554 185.849C96.1186 186.442 95.648 187.071 95.1306 187.669C93.8982 189.162 92.476 190.563 90.669 191.156C89.2234 191.64 86.288 191.27 87.9572 189.216" stroke="black" stroke-miterlimit="10"/>
<path d="M87.6998 189.594C87.6426 189.594 87.575 189.628 87.5204 189.638" stroke="black" stroke-miterlimit="10"/>
<path d="M131.991 183.799C126.162 183.82 120.691 184.111 115.611 184.579C110.957 185.005 108.591 185.276 104.584 185.959" stroke="black" stroke-miterlimit="10"/>
<path d="M95.1799 187.742C95.0211 187.766 94.8638 187.8 94.7094 187.844" stroke="black" stroke-miterlimit="10"/>
<path d="M82.3516 191.196C78.301 192.467 74.3394 194.006 70.493 195.803C70.364 195.869 70.2215 195.903 70.077 195.904C69.8229 195.903 69.5801 195.8 69.4017 195.619C69.2234 195.438 69.1241 195.194 69.1254 194.94C69.1241 193.617 68.5978 192.349 67.6623 191.414C66.7269 190.479 65.4586 189.954 64.136 189.953C63.8463 189.95 63.5572 189.976 63.2728 190.031H63.239C62.9436 190.09 62.6545 190.177 62.3758 190.291L42.66 197.709C42.244 197.867 41.841 198.024 41.4484 198.169C41.0558 198.315 40.7438 198.429 40.4084 198.562C39.0746 199.066 37.9436 199.493 37.1012 199.807C36.8776 199.885 36.6748 199.973 36.4746 200.041L35.12 200.545C34.4921 200.711 33.9021 200.998 33.3832 201.388C32.5977 201.941 31.987 202.707 31.623 203.595C31.4272 204.017 31.299 204.467 31.2434 204.929C31.2072 205.171 31.188 205.415 31.1862 205.66C31.1992 207.065 31.7631 208.409 32.7571 209.402C33.7511 210.396 35.0953 210.959 36.5006 210.972H161.041C163.835 210.965 166.556 210.08 168.821 208.443C171.085 206.806 172.778 204.498 173.66 201.847C174.542 199.195 174.568 196.334 173.736 193.666C172.903 190.999 171.254 188.66 169.02 186.981L155.536 176.457C153.181 174.616 151.129 170.736 152.071 167.913C155.076 158.863 156.773 149.43 157.112 139.9" stroke="black" stroke-miterlimit="10"/>
<path d="M31.22 206.24H9.7206C9.2325 206.241 8.74893 206.146 8.29757 205.96C7.84623 205.774 7.43598 205.501 7.09036 205.157C6.74474 204.812 6.47052 204.403 6.28343 203.952C6.0963 203.501 6 203.018 6 202.53C6 200.71 7.872 198.684 9.666 198.37L25.24 195.962C24.2312 157.084 31.22 126.347 39.1188 112.749C41.5108 108.625 45.3406 105.729 49.68 104.13C59.43 100.555 70.3526 104.702 75.862 113.503L82.6376 124.329L91.1604 137.943C91.2332 138.055 91.3086 138.167 91.3866 138.273L94.868 142.938" stroke="black" stroke-miterlimit="10"/>
<path d="M100.086 76.2254C106.027 71.8054 105.143 48.8059 105.143 48.8059C105.042 43.2783 107.104 37.0668 111.399 33.38C111.984 32.8793 112.61 32.429 113.271 32.0333C117.912 29.2981 124.357 29.5451 128.975 32.2127C131.433 33.6705 133.482 35.7279 134.929 38.1927C136.273 40.4656 137.217 42.9527 137.719 45.5455C138.272 48.2742 138.966 50.9722 139.799 53.6288C140.54 55.9688 140.953 58.8081 142.903 60.5449C146.637 63.8859 152.567 62.8302 157.13 62.6846C163.591 62.4792 170.112 65.2456 174.55 69.9386C176.805 72.2862 178.439 75.1594 179.303 78.2976C180.239 81.8362 179.563 85.3462 179.805 88.9394" stroke="black" stroke-miterlimit="10"/>
<path d="M118.926 76.9776L117.527 70.9196L115.6 63.3848" stroke="black" stroke-miterlimit="10"/>
<path d="M122.735 62.3795C123.754 62.3795 124.581 61.553 124.581 60.5335C124.581 59.514 123.754 58.6875 122.735 58.6875C121.715 58.6875 120.889 59.514 120.889 60.5335C120.889 61.553 121.715 62.3795 122.735 62.3795Z" stroke="black" stroke-miterlimit="10"/>
<path d="M207.516 143.652C207.518 144.38 207.376 145.101 207.098 145.775C206.821 146.448 206.414 147.06 205.9 147.575C205.385 148.091 204.774 148.499 204.102 148.778C203.429 149.057 202.708 149.201 201.98 149.2C201.309 149.203 200.644 149.081 200.017 148.842C199.244 148.066 198.719 147.079 198.507 146.005C198.295 144.931 198.405 143.818 198.825 142.807C199.245 141.796 199.955 140.932 200.865 140.324C201.775 139.716 202.846 139.391 203.941 139.391C204.607 139.389 205.268 139.511 205.891 139.749C206.406 140.26 206.815 140.868 207.094 141.538C207.373 142.208 207.516 142.926 207.516 143.652Z" fill="#D7E8F0"/>
<path d="M207.516 108.25C207.516 108.978 207.374 109.698 207.096 110.37C206.818 111.042 206.41 111.652 205.896 112.167C205.382 112.681 204.771 113.089 204.099 113.367C203.428 113.646 202.707 113.789 201.98 113.788C201.43 113.856 200.872 113.785 200.356 113.582C199.841 113.379 199.385 113.051 199.029 112.626C198.673 112.201 198.429 111.694 198.319 111.151C198.209 110.608 198.237 110.046 198.4 109.517C198.4 108.789 198.543 108.069 198.821 107.397C199.099 106.725 199.507 106.114 200.021 105.6C200.536 105.085 201.146 104.677 201.818 104.399C202.49 104.121 203.21 103.978 203.938 103.979C204.613 103.975 205.283 104.101 205.911 104.348C206.941 105.385 207.518 106.788 207.516 108.25Z" fill="#D7E8F0"/>
<path d="M207.516 180.98C207.516 181.707 207.374 182.428 207.096 183.1C206.818 183.772 206.41 184.382 205.896 184.897C205.382 185.411 204.772 185.819 204.099 186.097C203.428 186.375 202.707 186.518 201.98 186.518C201.309 186.522 200.644 186.4 200.017 186.159C199.245 185.384 198.721 184.397 198.509 183.323C198.297 182.25 198.408 181.137 198.828 180.127C199.248 179.116 199.957 178.253 200.867 177.645C201.777 177.037 202.846 176.712 203.941 176.711C204.607 176.708 205.269 176.83 205.891 177.07C206.407 177.581 206.817 178.19 207.096 178.862C207.375 179.533 207.518 180.253 207.516 180.98Z" fill="#D7E8F0"/>
<path d="M207.516 143.652C207.518 144.38 207.376 145.101 207.098 145.775C206.821 146.448 206.414 147.06 205.9 147.575C205.385 148.091 204.774 148.499 204.102 148.778C203.429 149.057 202.708 149.201 201.98 149.2C201.309 149.203 200.644 149.081 200.017 148.842C199.244 148.066 198.719 147.079 198.507 146.005C198.295 144.931 198.405 143.818 198.825 142.807C199.245 141.796 199.955 140.932 200.865 140.324C201.775 139.716 202.846 139.391 203.941 139.391C204.607 139.389 205.268 139.511 205.891 139.749C206.406 140.26 206.815 140.868 207.094 141.538C207.373 142.208 207.516 142.926 207.516 143.652Z" fill="#D7E8F0"/>
<path d="M207.516 108.25C207.516 108.978 207.374 109.698 207.096 110.37C206.818 111.042 206.41 111.652 205.896 112.167C205.382 112.681 204.771 113.089 204.099 113.367C203.428 113.646 202.707 113.789 201.98 113.788C201.43 113.856 200.872 113.785 200.356 113.582C199.841 113.379 199.385 113.051 199.029 112.626C198.673 112.201 198.429 111.694 198.319 111.151C198.209 110.608 198.237 110.046 198.4 109.517C198.4 108.789 198.543 108.069 198.821 107.397C199.099 106.725 199.507 106.114 200.021 105.6C200.536 105.085 201.146 104.677 201.818 104.399C202.49 104.121 203.21 103.978 203.938 103.979C204.613 103.975 205.283 104.101 205.911 104.348C206.941 105.385 207.518 106.788 207.516 108.25Z" fill="#D7E8F0"/>
<path d="M207.516 180.98C207.516 181.707 207.374 182.428 207.096 183.1C206.818 183.772 206.41 184.382 205.896 184.897C205.382 185.411 204.772 185.819 204.099 186.097C203.428 186.375 202.707 186.518 201.98 186.518C201.309 186.522 200.644 186.4 200.017 186.159C199.245 185.384 198.721 184.397 198.509 183.323C198.297 182.25 198.408 181.137 198.828 180.127C199.248 179.116 199.957 178.253 200.867 177.645C201.777 177.037 202.846 176.712 203.941 176.711C204.607 176.708 205.269 176.83 205.891 177.07C206.407 177.581 206.817 178.19 207.096 178.862C207.375 179.533 207.518 180.253 207.516 180.98Z" fill="#D7E8F0"/>
<path d="M115.047 55.7378C117.715 55.7378 119.877 53.5751 119.877 50.907C119.877 48.2391 117.715 46.0762 115.047 46.0762C112.379 46.0762 110.216 48.2391 110.216 50.907C110.216 53.5751 112.379 55.7378 115.047 55.7378Z" stroke="black" stroke-miterlimit="10"/>
<path d="M127.563 55.3081C130.231 55.3081 132.394 53.1451 132.394 50.4773C132.394 47.8092 130.231 45.6465 127.563 45.6465C124.895 45.6465 122.732 47.8092 122.732 50.4773C122.732 53.1451 124.895 55.3081 127.563 55.3081Z" stroke="black" stroke-miterlimit="10"/>
<path d="M113.026 50.2734C113.026 50.2734 114.974 52.5068 116.976 50.2734" stroke="black" stroke-miterlimit="10"/>
<path d="M125.6 50.2734C125.6 50.2734 127.545 52.5068 129.549 50.2734" stroke="black" stroke-miterlimit="10"/>
<path d="M119.88 50.9202C119.88 50.9202 120.977 49.1392 122.74 50.4912" stroke="black" stroke-miterlimit="10"/>
<path d="M111.43 54.0977C111.789 56.7211 112.47 58.8505 114.233 61.6065C116.084 64.4665 119.412 67.2121 122.912 67.2355C124.399 67.2639 125.868 66.9087 127.177 66.2044C128.487 65.4998 129.593 64.4697 130.389 63.2133C131.98 60.7719 132.646 57.7767 132.815 54.8933C132.927 52.9563 132.974 50.8945 132.266 49.0537C131.486 47.0413 129.666 45.6737 127.493 45.6997C126.424 45.7153 125.363 45.9129 124.295 45.8791C121.138 45.7829 118.294 43.6145 117.99 40.3281C118.102 41.5319 116.95 42.8553 116.282 43.7601C115.69 44.5484 114.99 45.2489 114.202 45.8401C113.448 46.3939 112.233 46.6591 111.695 47.4313" stroke="black" stroke-miterlimit="10"/>
<path d="M174.342 198.37H237.972C238.508 198.371 239.023 198.159 239.403 197.781C239.783 197.403 239.998 196.889 240 196.353V90.959C240 90.6933 239.947 90.4302 239.846 90.1847C239.743 89.939 239.594 89.7162 239.405 89.5288C239.217 89.3413 238.993 89.1928 238.747 89.0922C238.501 88.9913 238.238 88.9401 237.972 88.9414H165.981C165.716 88.9412 165.453 88.9932 165.208 89.0943C164.963 89.1957 164.741 89.3442 164.553 89.5316C164.366 89.7191 164.217 89.9417 164.116 90.1866C164.015 90.4315 163.963 90.6941 163.963 90.959V183.022" stroke="black" stroke-miterlimit="10"/>
<path d="M239.995 125.199H163.966V162.104H239.995V125.199Z" stroke="black" stroke-miterlimit="10"/>
<path d="M133.982 70.9395C134.58 76.2851 130.839 81.0795 125.629 81.6697C120.418 82.2599 115.72 78.3859 115.112 73.0402" stroke="black" stroke-miterlimit="10"/>
<path d="M131.32 61.5059L132.396 71.5731C132.916 71.5965 133.436 71.6303 133.956 71.6745C149.078 72.8627 159.481 85.3063 162.556 99.5647C163.459 103.728 163.929 107.974 163.958 112.234C163.986 117.678 163.242 123.097 161.748 128.331C160.262 133.439 158.146 138.343 155.448 142.927C152.699 147.585 149.485 151.951 145.857 155.961C142.121 160.076 138.065 163.888 133.728 167.362C130.197 170.196 126.487 172.775 122.743 175.31C119.391 177.572 115.723 179.288 112.228 181.29C108.588 183.37 105.042 185.596 101.599 187.972C99.7612 189.249 97.4966 190.437 95.323 189.205C94.7172 188.869 94.803 188.284 95.1306 187.679C95.5128 186.974 96.2304 186.246 96.5554 185.859" stroke="black" stroke-miterlimit="10"/>
<path d="M201.98 149.193C205.04 149.193 207.521 146.712 207.521 143.652C207.521 140.592 205.04 138.111 201.98 138.111C198.92 138.111 196.44 140.592 196.44 143.652C196.44 146.712 198.92 149.193 201.98 149.193Z" stroke="black" stroke-miterlimit="10"/>
<path d="M201.98 113.786C205.04 113.786 207.521 111.306 207.521 108.246C207.521 105.186 205.04 102.705 201.98 102.705C198.92 102.705 196.44 105.186 196.44 108.246C196.44 111.306 198.92 113.786 201.98 113.786Z" stroke="black" stroke-miterlimit="10"/>
<path d="M201.98 186.521C205.04 186.521 207.521 184.04 207.521 180.98C207.521 177.92 205.04 175.439 201.98 175.439C198.92 175.439 196.44 177.92 196.44 180.98C196.44 184.04 198.92 186.521 201.98 186.521Z" stroke="black" stroke-miterlimit="10"/>
<path d="M161.932 127.646C161.015 130.202 159.881 133.431 158.246 137.097C159.858 132.758 162.741 123.858 163.344 113.791C163.344 113.791 165.263 118.487 161.932 127.646Z" fill="black"/>
<path d="M219.98 33.0164L203.08 35.5462L206.023 37.6262L211.527 42.0332C212.391 42.639 212.175 44.0716 212.653 44.94C212.833 46.2511 212.626 47.586 212.058 48.781C211.489 49.9759 210.584 50.9787 209.453 51.6662C208.322 52.3536 207.015 52.6958 205.693 52.6505C204.37 52.6053 203.09 52.1745 202.009 51.4114L188.728 42.0644C187.262 41.0522 186.085 39.6747 185.314 38.0682C184.227 32.6576 187.563 26.6438 193.97 25.687L212.43 22.918L209.726 20.812L201.341 14.286C200.622 13.7311 200.022 13.0369 199.578 12.245C199.392 10.906 199.61 9.54227 200.204 8.32781C200.799 7.11361 201.742 6.10429 202.913 5.42907C204.084 4.75411 205.43 4.44367 206.778 4.53805C208.127 4.63217 209.416 5.12669 210.482 5.95817L225.44 17.5958C226.663 18.5359 227.651 19.7462 228.329 21.1318C229.34 26.3474 226.087 32.1012 219.98 33.0164Z" fill="#9ED5CF"/>
<path d="M219.98 33.0178L203.08 35.5473L206.023 37.6273L209.84 40.2952C210.578 40.805 211.208 41.4561 211.693 42.2106C212.178 42.9651 212.509 43.8083 212.666 44.6912C212.823 45.5745 212.805 46.4798 212.61 47.3555C212.416 48.2314 212.051 49.0598 211.534 49.7935C211.018 50.5272 210.362 51.1512 209.603 51.6299C208.844 52.1085 207.999 52.4322 207.114 52.5822C206.23 52.7325 205.325 52.7057 204.45 52.5042C203.577 52.3025 202.751 51.9296 202.022 51.4073L188.728 42.0655C187.262 41.0533 186.085 39.6758 185.314 38.0696C182.488 32.2014 185.793 24.4014 193.171 23.2938L207.817 21.0994L209.726 20.8131L201.341 14.2874C200.622 13.7447 200.018 13.0646 199.564 12.2867C199.11 11.5087 198.816 10.6481 198.698 9.7553C198.579 8.86246 198.64 7.95506 198.876 7.08562C199.112 6.21644 199.518 5.40265 200.071 4.69207C200.624 3.98123 201.313 3.38738 202.098 2.94512C202.882 2.50312 203.747 2.22128 204.642 2.1165C205.536 2.01172 206.443 2.08556 207.308 2.33438C208.174 2.58294 208.981 3.00128 209.684 3.56496L224.642 15.2052C226.556 16.6625 227.868 18.7721 228.329 21.1329C229.34 26.3485 226.087 32.1026 219.98 33.0178Z" stroke="black" stroke-miterlimit="10"/>
<path d="M166.706 53.7809L166.485 47.7177L163.794 50.4789C163.568 50.7105 163.299 50.8954 163.002 51.0228C162.705 51.1502 162.385 51.2178 162.062 51.2217C161.739 51.2256 161.418 51.1658 161.118 51.0454C160.817 50.925 160.544 50.7467 160.313 50.5205C160.081 50.2948 159.896 50.0257 159.769 49.7285C159.641 49.4313 159.574 49.1118 159.57 48.7886C159.566 48.4652 159.626 48.1443 159.746 47.844C159.866 47.5437 160.045 47.2705 160.271 47.0391L165.071 42.1225C165.568 41.6137 166.204 41.2619 166.899 41.1106C167.595 40.9592 168.32 41.0151 168.984 41.2715C169.647 41.5276 170.222 41.973 170.635 42.552C171.049 43.1313 171.284 43.819 171.311 44.5301L171.537 50.7155L173.521 48.4769C173.735 48.2351 173.995 48.0377 174.286 47.8963C174.577 47.7549 174.893 47.6722 175.216 47.6529C175.538 47.6337 175.862 47.6781 176.167 47.7837C176.473 47.8895 176.755 48.0544 176.997 48.2689C177.239 48.4834 177.436 48.7434 177.578 49.034C177.72 49.325 177.803 49.6406 177.822 49.9635C177.842 50.2862 177.798 50.6097 177.692 50.9154C177.586 51.2212 177.422 51.503 177.207 51.7451L173.307 56.1495C172.809 56.7207 172.151 57.1284 171.418 57.3192C170.685 57.51 169.911 57.4755 169.198 57.2196C168.485 56.9635 167.865 56.4986 167.421 55.885C166.976 55.2717 166.727 54.5382 166.706 53.7809Z" fill="#D7E8F0"/>
<path d="M144.936 50.7034L147.796 50.0638L146.236 49.0238C145.974 48.8473 145.793 48.5743 145.732 48.2646C145.67 47.9547 145.734 47.6334 145.909 47.3702C146.085 47.1079 146.358 46.9259 146.668 46.8645C146.978 46.8032 147.299 46.8671 147.562 47.0426L150.326 48.8938C150.612 49.0855 150.835 49.3564 150.967 49.6733C151.1 49.9903 151.137 50.3394 151.074 50.6772C151.011 51.0152 150.85 51.3269 150.611 51.5742C150.372 51.8214 150.066 51.9933 149.731 52.0684L146.806 52.721L148.046 53.4672C148.317 53.6308 148.512 53.8949 148.588 54.202C148.665 54.5088 148.617 54.8338 148.454 55.1052C148.29 55.3762 148.026 55.5712 147.719 55.6471C147.412 55.7233 147.087 55.6741 146.816 55.5108L144.395 54.0392C144.084 53.8518 143.835 53.5754 143.683 53.2455C143.529 52.9155 143.479 52.5474 143.537 52.1883C143.595 51.8292 143.759 51.4959 144.009 51.2312C144.258 50.9666 144.581 50.7827 144.936 50.7034Z" fill="#D7E8F0"/>
<path d="M1.86338 217.654L0.552979 221.258" stroke="#CCDDE2" stroke-miterlimit="10"/>
</svg>
