<svg width="201" height="200" viewBox="0 0 201 200" fill="none" xmlns="http://www.w3.org/2000/svg">
<path d="M174.769 159.396H167.213V159.496H174.769V159.396Z" fill="#EBEBEB"/>
<path d="M129.509 158.7H117.721V158.8H129.509V158.7Z" fill="#EBEBEB"/>
<path d="M166.813 155.684H147.969V155.784H166.813V155.684Z" fill="#EBEBEB"/>
<path d="M25.8724 156.356H21.4844V156.456H25.8724V156.356Z" fill="#EBEBEB"/>
<path d="M44.8556 156.356H29.4316V156.456H44.8556V156.356Z" fill="#EBEBEB"/>
<path d="M90.5604 158.044H68.9004V158.144H90.5604V158.044Z" fill="#EBEBEB"/>
<path d="M174.769 159.396H167.213V159.496H174.769V159.396Z" fill="#EBEBEB"/>
<path d="M129.509 158.7H117.721V158.8H129.509V158.7Z" fill="#EBEBEB"/>
<path d="M166.813 155.684H147.969V155.784H166.813V155.684Z" fill="#EBEBEB"/>
<path d="M25.8724 156.356H21.4844V156.456H25.8724V156.356Z" fill="#EBEBEB"/>
<path d="M44.8556 156.356H29.4316V156.456H44.8556V156.356Z" fill="#EBEBEB"/>
<path d="M90.5604 158.044H68.9004V158.144H90.5604V158.044Z" fill="#EBEBEB"/>
<path d="M153.245 66.7959H162.457V64.8839H153.245V66.7959Z" fill="#E6E6E6"/>
<path d="M53.3601 66.7959L153.248 66.7959V64.8839L53.3601 64.8839V66.7959Z" fill="#F0F0F0"/>
<path d="M110.016 33.084H134.432L130.584 64.888H106.168L110.016 33.084Z" fill="#F5F5F5"/>
<path d="M114.461 37.252H128.981L126.145 60.716H111.621L114.461 37.252Z" fill="#FAFAFA"/>
<path d="M74.625 34.5361H104.245L100.573 64.8881H70.957L74.625 34.5361Z" fill="#F5F5F5"/>
<path d="M78.8643 38.5122H99.0403L96.3323 60.9082H76.1562L78.8643 38.5122Z" fill="#FAFAFA"/>
<path d="M125.952 43.9722H146.36L143.832 64.8882H123.42L125.952 43.9722Z" fill="#F0F0F0"/>
<path d="M128.872 46.7119H142.776L140.908 62.1439H127.004L128.872 46.7119Z" fill="#FAFAFA"/>
<path d="M174.64 92.2881H162.024C159.802 92.3206 157.654 93.0901 155.916 94.4758C154.179 95.8615 152.951 97.7849 152.424 99.9441L149.092 113.864L142.244 113.84H142.22C140.638 113.84 139.104 114.392 137.885 115.401C136.666 116.41 135.836 117.813 135.54 119.368L134.628 124.132C133.939 124.237 133.296 124.544 132.781 125.015C132.266 125.486 131.903 126.099 131.736 126.776H136.572L130.9 152.96H132.348L138.036 126.776H142.012L136.304 152.96H137.752L143.44 126.776H159.3L164.988 152.96H166.436L160.748 126.776H164.724L170.412 152.96H171.86L166.172 126.776H165.576C167.799 126.75 169.949 125.983 171.688 124.598C173.426 123.213 174.654 121.289 175.176 119.128L179.976 99.1281C180.192 98.316 180.217 97.465 180.048 96.6418C179.88 95.8186 179.524 95.0455 179.007 94.383C178.49 93.7206 177.827 93.1867 177.069 92.8233C176.312 92.4598 175.481 92.2767 174.64 92.2881ZM147.84 119.032C147.494 120.461 146.682 121.733 145.533 122.65C144.384 123.567 142.962 124.075 141.492 124.096H136.436L137.284 119.696C137.505 118.549 138.118 117.515 139.018 116.771C139.918 116.026 141.049 115.618 142.216 115.616L148.64 115.636L147.84 119.032Z" fill="#E6E6E6"/>
<path d="M78.0132 149.712H91.7852L91.7852 88.8439H78.0132V149.712Z" fill="#F0F0F0"/>
<path d="M28.5205 152.96H89.1445V149.712H28.5205V152.96Z" fill="#F0F0F0"/>
<path d="M78.017 88.8438H25.873V149.712H78.017V88.8438Z" fill="#F5F5F5"/>
<path d="M72.6051 95.1519H31.2891V121.588H72.6051V95.1519Z" fill="#F0F0F0"/>
<path d="M72.6051 126.6H31.2891V143.404H72.6051V126.6Z" fill="#F0F0F0"/>
<path d="M41.2212 96.2002H62.6692C63.2391 96.2002 63.7012 95.7382 63.7012 95.1682V94.9282C63.7012 94.3582 63.2391 93.8962 62.6692 93.8962H41.2212C40.6512 93.8962 40.1892 94.3582 40.1892 94.9282V95.1682C40.1892 95.7382 40.6512 96.2002 41.2212 96.2002Z" fill="#F5F5F5"/>
<path d="M41.2212 127.756H62.6692C63.2391 127.756 63.7012 127.294 63.7012 126.724V126.484C63.7012 125.914 63.2391 125.452 62.6692 125.452H41.2212C40.6512 125.452 40.1892 125.914 40.1892 126.484V126.724C40.1892 127.294 40.6512 127.756 41.2212 127.756Z" fill="#F5F5F5"/>
<path d="M132.205 92.288H119.589C117.367 92.3206 115.219 93.0901 113.481 94.4757C111.744 95.8614 110.515 97.7848 109.989 99.944L106.657 113.864L99.8092 113.84C98.2258 113.839 96.6916 114.391 95.4714 115.4C94.2512 116.409 93.4214 117.813 93.1252 119.368L92.2132 124.132C91.5238 124.238 90.8811 124.545 90.3664 125.016C89.8517 125.486 89.488 126.099 89.3212 126.776H94.1612L88.4492 152.96H89.8932L95.5812 126.776H99.5812L93.8732 152.96H95.3012L100.989 126.776H116.853L122.541 152.96H123.985L118.297 126.776H122.297L127.981 152.96H129.425L123.737 126.776H123.141C125.364 126.749 127.514 125.983 129.253 124.598C130.991 123.213 132.219 121.288 132.741 119.128L137.541 99.128C137.756 98.316 137.78 97.4653 137.611 96.6425C137.443 95.8196 137.086 95.0468 136.57 94.3846C136.053 93.7223 135.39 93.1885 134.633 92.8248C133.876 92.4611 133.045 92.2774 132.205 92.288ZM105.405 119.032C105.057 120.461 104.244 121.733 103.095 122.65C101.945 123.566 100.523 124.075 99.0532 124.096H94.0052L94.8532 119.696C95.0734 118.549 95.6861 117.514 96.5861 116.77C97.4861 116.025 98.6172 115.617 99.7852 115.616L106.213 115.636L105.405 119.032Z" fill="#E6E6E6"/>
<path d="M100.499 171.024C143.332 171.024 178.055 168.997 178.055 166.496C178.055 163.995 143.332 161.968 100.499 161.968C57.6664 161.968 22.9434 163.995 22.9434 166.496C22.9434 168.997 57.6664 171.024 100.499 171.024Z" fill="#F5F5F5"/>
<path d="M60.8727 43.2001C61.1487 38.3641 71.3727 38.8441 73.3807 43.3561C75.3887 47.8681 73.7407 52.0161 79.3127 54.7401C89.1647 59.5401 90.2367 65.9161 86.5127 72.1921C82.7887 78.4681 68.2447 82.8641 60.3327 72.5921C52.5287 62.4521 64.3927 60.1921 58.2527 55.4201C52.9007 51.2361 53.3567 43.7841 60.8727 43.2001Z" fill="#263238"/>
<path d="M56.4999 66.484C56.3679 66.644 56.2959 66.724 56.2039 66.828C56.1119 66.932 56.0239 67.02 55.9359 67.116C55.7559 67.296 55.5759 67.476 55.3959 67.64C55.0319 67.98 54.6599 68.292 54.2839 68.596C53.5282 69.1879 52.736 69.7316 51.9119 70.224C51.1002 70.7099 50.263 71.1519 49.4039 71.548C48.9719 71.74 48.5439 71.948 48.1079 72.108L47.4519 72.36L47.1239 72.484C46.9326 72.5562 46.736 72.6137 46.5359 72.656C46.0402 72.7643 45.5241 72.7335 45.0448 72.5669C44.5655 72.4003 44.1416 72.1044 43.8199 71.712C43.4034 71.1969 43.1032 70.5979 42.9399 69.956C42.6861 68.9839 42.5518 67.9845 42.5399 66.98C42.5138 65.129 42.6705 63.2801 43.0079 61.46L44.7999 61.608C44.858 63.3291 45.0049 65.046 45.2399 66.752C45.3435 67.524 45.5286 68.2829 45.7919 69.016C45.8608 69.2395 45.9814 69.4437 46.1439 69.612C46.1719 69.612 46.1439 69.576 46.0399 69.524C45.9705 69.498 45.8978 69.4819 45.8239 69.476C45.8239 69.476 45.8239 69.476 45.8719 69.448L46.1559 69.308L46.7279 69.036L47.8479 68.46C48.5799 68.06 49.3039 67.64 49.9919 67.18C50.6799 66.72 51.3519 66.248 51.9919 65.736C52.3079 65.484 52.6159 65.224 52.9039 64.936C53.0519 64.804 53.1879 64.668 53.3239 64.536L53.5199 64.344L53.6639 64.188L56.4999 66.484Z" fill="#FFC3BD"/>
<path d="M56.5789 60.8839C55.1109 60.5239 51.3789 65.3559 51.3789 65.3559L53.6469 69.6719C53.6469 69.6719 59.9149 66.1319 59.6789 64.1839C59.4309 62.1519 58.7189 61.4079 56.5789 60.8839Z" fill="#EF7B71"/>
<path opacity="0.2" d="M56.5789 60.8839C55.1109 60.5239 51.3789 65.3559 51.3789 65.3559L53.6469 69.6719C53.6469 69.6719 59.9149 66.1319 59.6789 64.1839C59.4309 62.1519 58.7189 61.4079 56.5789 60.8839Z" fill="black"/>
<path opacity="0.2" d="M55.6079 62.5562L55.9679 68.2082C54.7199 69.0602 53.6439 69.6721 53.6439 69.6721L53.1719 68.7682L55.6079 62.5562Z" fill="black"/>
<path d="M44.5317 62.8001L46.1837 59.1201L42.6717 59.9561C42.6717 59.9561 42.0637 62.1561 43.1357 63.1561L44.5317 62.8001Z" fill="#FFC3BD"/>
<path d="M45.9799 56.4883L42.9639 56.7403L42.6719 59.9603L46.1839 59.1243L45.9799 56.4883Z" fill="#FFC3BD"/>
<path d="M59.8321 161.032L56.2921 161.172L55.6641 152.948L59.2041 152.812L59.8321 161.032Z" fill="#FFC3BD"/>
<path d="M91.3566 130.796L89.0486 133.492L82.0566 129.02L84.3646 126.32L91.3566 130.796Z" fill="#FFC3BD"/>
<path d="M88.2716 133.34L90.3876 129.956C90.4228 129.897 90.4785 129.853 90.5442 129.832C90.6099 129.812 90.6808 129.816 90.7436 129.844L93.6596 131.132C93.7294 131.167 93.7912 131.216 93.8413 131.277C93.8914 131.337 93.9286 131.406 93.9507 131.481C93.9728 131.556 93.9793 131.635 93.9699 131.712C93.9604 131.79 93.9351 131.865 93.8956 131.932C93.1356 133.1 92.6956 133.624 91.7836 135.112C91.2116 136.028 90.2836 137.912 89.4916 139.164C88.6996 140.416 87.4116 139.712 87.6276 139.116C88.5956 136.44 88.3156 135.156 88.1436 133.944C88.1157 133.734 88.1609 133.521 88.2716 133.34Z" fill="#263238"/>
<path d="M56.1752 160.964L60.0152 159.888C60.0812 159.868 60.1524 159.872 60.2151 159.901C60.2779 159.93 60.3278 159.981 60.3552 160.044L61.6432 162.96C61.6722 163.036 61.6847 163.117 61.6798 163.198C61.675 163.279 61.6529 163.359 61.615 163.431C61.5772 163.502 61.5245 163.565 61.4603 163.615C61.3962 163.665 61.3222 163.701 61.2432 163.72C59.8992 164.072 59.2432 164.176 57.5432 164.648C56.5032 164.94 53.4672 166.308 51.9792 166.428C50.4912 166.548 50.2992 165.08 50.9072 164.9C52.865 164.322 54.5473 163.054 55.6432 161.332C55.7707 161.15 55.9595 161.019 56.1752 160.964Z" fill="#263238"/>
<g opacity="0.2">
<path d="M55.6641 152.953L55.9881 157.193L59.5281 157.053L59.2041 152.812L55.6641 152.953Z" fill="black"/>
<path d="M84.3646 126.32L82.0566 129.02L85.6646 131.324L87.9726 128.624L84.3646 126.32Z" fill="black"/>
</g>
<path d="M54.7286 62.3601C54.3846 64.3601 54.0566 69.4401 55.5286 81.2481L69.9286 82.1361C70.0406 76.6161 70.3286 72.1681 73.3166 61.5001C73.3912 61.237 73.4059 60.9604 73.3596 60.6908C73.3134 60.4212 73.2073 60.1653 73.0493 59.9421C72.8912 59.7188 72.6852 59.5337 72.4463 59.4005C72.2073 59.2673 71.9416 59.1893 71.6686 59.1721C70.5726 59.1081 69.1926 59.0641 67.7846 59.1241C65.5668 59.1725 63.3549 59.373 61.1646 59.7241C59.2966 60.0601 57.2526 60.5802 56.0646 60.8962C55.7247 60.9859 55.4179 61.1717 55.181 61.4314C54.944 61.691 54.7869 62.0135 54.7286 62.3601Z" fill="#EF7B71"/>
<path opacity="0.2" d="M54.7286 62.3601C54.3846 64.3601 54.0566 69.4401 55.5286 81.2481L69.9286 82.1361C70.0406 76.6161 70.3286 72.1681 73.3166 61.5001C73.3912 61.237 73.4059 60.9604 73.3596 60.6908C73.3134 60.4212 73.2073 60.1653 73.0493 59.9421C72.8912 59.7188 72.6852 59.5337 72.4463 59.4005C72.2073 59.2673 71.9416 59.1893 71.6686 59.1721C70.5726 59.1081 69.1926 59.0641 67.7846 59.1241C65.5668 59.1725 63.3549 59.373 61.1646 59.7241C59.2966 60.0601 57.2526 60.5802 56.0646 60.8962C55.7247 60.9859 55.4179 61.1717 55.181 61.4314C54.944 61.691 54.7869 62.0135 54.7286 62.3601Z" fill="black"/>
<path d="M55.5285 81.248C55.5285 81.248 51.0485 108.376 50.6125 119.196C50.1605 130.452 55.2245 156.052 55.2245 156.052H60.0245C60.0245 156.052 58.2725 131.612 59.3805 120.6C60.5805 108.6 66.0725 81.8961 66.0725 81.8961L55.5285 81.248Z" fill="#263238"/>
<path d="M60.4406 156.224H54.8086L54.3926 154.428L60.7006 154.208L60.4406 156.224Z" fill="#EF7B71"/>
<path opacity="0.2" d="M61.3202 88.4242C57.3442 95.3162 59.3682 108.464 60.3202 113.368C61.4082 106.168 63.0362 97.3682 64.2842 90.9082C63.9722 87.2002 63.1522 85.2442 61.3202 88.4242Z" fill="black"/>
<path d="M59.332 81.48C59.332 81.48 61.332 113.976 63.812 118.472C67.76 125.6 84.5 131.444 84.5 131.444L87.644 127.764C87.644 127.764 77.172 119.056 71.644 114.108C70.328 105.12 74.98 90.936 69.952 82.136L59.332 81.48Z" fill="#263238"/>
<path d="M70.1925 81.3039L70.4805 82.6159C70.5245 82.7199 70.4005 82.8119 70.2325 82.8039L55.4325 81.8879C55.3005 81.8879 55.1965 81.8079 55.1965 81.7279L55.1445 80.4319C55.1445 80.3399 55.2565 80.2719 55.4005 80.2799L69.9645 81.1999C70.0081 81.1974 70.0517 81.2055 70.0914 81.2236C70.1312 81.2418 70.1659 81.2693 70.1925 81.3039Z" fill="#EF7B71"/>
<path d="M68.1324 82.8L68.5324 82.824C68.6084 82.824 68.6724 82.792 68.6684 82.744L68.5884 81.06C68.5884 81.008 68.5204 80.964 68.4444 80.96L68.0444 80.936C67.9684 80.936 67.9044 80.968 67.9084 81.016L67.9884 82.704C67.9884 82.764 68.0564 82.8 68.1324 82.8Z" fill="#263238"/>
<path d="M56.4996 82.0959L56.8996 82.1199C56.9796 82.1199 57.0396 82.0879 57.0396 82.0399L56.9596 80.3519C56.9596 80.3039 56.8916 80.2599 56.8116 80.2559L56.4116 80.2319C56.3316 80.2319 56.2716 80.2639 56.2756 80.3119L56.3516 81.9959C56.3636 82.0479 56.4276 82.0919 56.4996 82.0959Z" fill="#263238"/>
<path d="M62.3199 82.4559L62.7199 82.4799C62.7959 82.4799 62.8599 82.4479 62.8559 82.3959L62.7759 80.7119C62.7759 80.6639 62.7079 80.6199 62.6319 80.6119L62.2319 80.5879C62.1559 80.5879 62.0919 80.6199 62.0959 80.6719L62.1759 82.3559C62.1759 82.3999 62.2439 82.4479 62.3199 82.4559Z" fill="#263238"/>
<path d="M88.0235 127.348L84.1195 131.916L82.2715 131.176L86.6195 125.596L88.0235 127.348Z" fill="#EF7B71"/>
<path d="M56.5198 73.2199C56.075 73.3173 55.6758 73.5609 55.3857 73.9118C55.0957 74.2628 54.9316 74.7008 54.9198 75.1559C54.8765 75.0644 54.8242 74.9773 54.7638 74.8959C54.6907 74.7849 54.6048 74.6829 54.5078 74.5919C54.4109 74.4979 54.3051 74.4135 54.1918 74.3399C54.0799 74.2673 53.9606 74.207 53.8358 74.1599C53.707 74.1089 53.5728 74.0727 53.4358 74.0519C53.3041 74.026 53.17 74.0139 53.0358 74.0159C52.9014 74.0216 52.7677 74.0376 52.6358 74.0639C52.3728 74.1203 52.1238 74.2291 51.9038 74.3839C51.7937 74.4582 51.6918 74.5441 51.5998 74.6399C51.5082 74.7379 51.4252 74.8437 51.3518 74.9559C51.2779 75.0691 51.2162 75.1898 51.1678 75.3159C51.1207 75.446 51.0846 75.5798 51.0598 75.7159C51.0382 75.8481 51.0288 75.982 51.0318 76.1159C51.0312 76.385 51.0885 76.651 51.1998 76.8959C51.2541 77.0191 51.3197 77.1369 51.3958 77.2479C51.4702 77.3568 51.556 77.4574 51.6518 77.5479C51.7479 77.6429 51.8538 77.7274 51.9678 77.7999C52.0797 77.8726 52.199 77.9329 52.3238 77.9799C52.4533 78.029 52.5872 78.0652 52.7238 78.0879C52.8232 78.1032 52.9233 78.1126 53.0238 78.1159C52.6191 78.3153 52.2921 78.6434 52.0941 79.0488C51.896 79.4542 51.8383 79.9138 51.9298 80.3556C52.0214 80.7973 52.2571 81.1962 52.5999 81.4894C52.9427 81.7827 53.3732 81.9539 53.8238 81.9759C53.4213 82.1806 53.0979 82.5127 52.9041 82.9205C52.7103 83.3284 52.657 83.7889 52.7524 84.2302C52.8479 84.6715 53.0868 85.0688 53.4319 85.36C53.7769 85.6512 54.2087 85.82 54.6598 85.8399C54.2568 86.0461 53.934 86.3806 53.7424 86.7908C53.5507 87.2009 53.5013 87.6631 53.6017 88.1045C53.7022 88.5459 53.9469 88.9412 54.2972 89.228C54.6474 89.5147 55.0833 89.6766 55.5358 89.6879C55.2095 89.852 54.9332 90.1007 54.7358 90.4079C54.5918 90.6346 54.4939 90.8874 54.4478 91.1519C54.423 91.2838 54.4123 91.4179 54.4158 91.5519C54.4138 91.8276 54.4711 92.1004 54.5838 92.3519C54.6374 92.4742 54.703 92.5908 54.7798 92.6999C54.8555 92.8102 54.9427 92.9121 55.0398 93.0039C55.1354 93.099 55.2399 93.1847 55.3518 93.2599C55.8094 93.5495 56.3627 93.6472 56.8918 93.5319C57.0293 93.5053 57.1634 93.4638 57.2918 93.4079C57.4132 93.3543 57.5297 93.29 57.6398 93.2159C57.7491 93.139 57.8509 93.052 57.9438 92.9559C58.0378 92.86 58.121 92.754 58.1918 92.6399C58.2657 92.5268 58.3274 92.4061 58.3758 92.2799C58.4251 92.1506 58.4613 92.0166 58.4838 91.8799C58.5024 91.7796 58.5131 91.678 58.5158 91.5759C58.7167 91.9831 59.0478 92.3116 59.4565 92.5094C59.8652 92.7072 60.3282 92.763 60.7722 92.668C61.2162 92.5729 61.6158 92.3325 61.9077 91.9847C62.1996 91.6369 62.3672 91.2017 62.3838 90.7479C62.5866 91.154 62.9189 91.4809 63.3284 91.6768C63.7378 91.8727 64.2008 91.9265 64.6442 91.8296C65.0877 91.7327 65.4861 91.4908 65.7765 91.142C66.067 90.7932 66.2328 90.3576 66.2478 89.9039C66.4518 90.3089 66.7847 90.6345 67.194 90.8295C67.6034 91.0245 68.0659 91.0779 68.509 90.9813C68.952 90.8846 69.3502 90.6434 69.6411 90.2955C69.932 89.9477 70.099 89.5131 70.1158 89.0599C70.3198 89.4649 70.6527 89.7905 71.062 89.9855C71.4714 90.1805 71.934 90.2339 72.377 90.1373C72.82 90.0406 73.2182 89.7994 73.5091 89.4515C73.8 89.1037 73.967 88.6691 73.9838 88.2159C74.1858 88.6239 74.5187 88.9524 74.9294 89.1489C75.34 89.3455 75.8047 89.3987 76.2492 89.3002C76.6936 89.2016 77.0922 88.9569 77.3813 88.6052C77.6703 88.2535 77.8332 87.8151 77.8438 87.3599C77.8871 87.4515 77.9394 87.5386 77.9998 87.6199C78.0729 87.731 78.1588 87.833 78.2558 87.9239C78.3528 88.019 78.4586 88.1048 78.5718 88.1799C78.6842 88.2517 78.8034 88.312 78.9278 88.3599C79.0573 88.409 79.1912 88.4452 79.3278 88.4679C79.4597 88.4925 79.5937 88.5032 79.7278 88.4999C79.8623 88.4997 79.9964 88.4849 80.1278 88.4559C80.3886 88.3928 80.6363 88.2845 80.8598 88.1359C80.9683 88.058 81.07 87.971 81.1638 87.8759C81.2554 87.778 81.3384 87.6722 81.4118 87.5599C81.486 87.4476 81.5464 87.3267 81.5918 87.1999C81.6412 87.0771 81.6787 86.9499 81.7038 86.8199C81.7264 86.6878 81.7371 86.554 81.7358 86.4199C81.7303 86.1451 81.6733 85.8738 81.5678 85.6199C81.512 85.498 81.4451 85.3815 81.3678 85.2719C81.2935 85.1618 81.2077 85.0599 81.1118 84.9679C81.0137 84.8753 80.908 84.791 80.7958 84.7159C80.6834 84.6442 80.5642 84.5839 80.4398 84.5359C80.3103 84.4869 80.1764 84.4507 80.0398 84.4279C79.9418 84.4127 79.8429 84.4033 79.7438 84.3999C80.1485 84.2006 80.4755 83.8725 80.6736 83.4671C80.8716 83.0617 80.9293 82.6021 80.8378 82.1603C80.7462 81.7186 80.5105 81.3197 80.1677 81.0264C79.8249 80.7331 79.3944 80.562 78.9438 80.5399C79.3445 80.3341 79.666 80.0016 79.8583 79.5942C80.0506 79.1869 80.1029 78.7273 80.0071 78.2871C79.9113 77.847 79.6728 77.4507 79.3286 77.1601C78.9844 76.8694 78.5538 76.7006 78.1038 76.6799C78.5054 76.4728 78.8269 76.1381 79.0177 75.7284C79.2086 75.3188 79.258 74.8573 79.1582 74.4165C79.0584 73.9758 78.8151 73.5806 78.4664 73.2931C78.1178 73.0056 77.6835 72.842 77.2318 72.8279C77.3215 72.7841 77.4083 72.7346 77.4918 72.6799C77.7107 72.5251 77.8992 72.3312 78.0478 72.1079C78.1195 71.9956 78.1798 71.8763 78.2278 71.7519C78.2783 71.623 78.3145 71.4888 78.3358 71.3519C78.3595 71.2199 78.3715 71.0861 78.3718 70.9519C78.3679 70.8174 78.3518 70.6836 78.3238 70.5519C78.207 70.0232 77.8855 69.5623 77.4298 69.27C76.974 68.9776 76.4211 68.8777 75.8918 68.9919C75.7617 69.0218 75.6345 69.0633 75.5118 69.1159C75.3882 69.1694 75.2703 69.2351 75.1598 69.3119C75.0505 69.3873 74.9486 69.473 74.8558 69.5679C74.7654 69.667 74.6825 69.7726 74.6078 69.8839C74.5352 69.9972 74.4748 70.1179 74.4278 70.2439C74.3768 70.3728 74.3405 70.5069 74.3198 70.6439C74.3008 70.7442 74.2901 70.8459 74.2878 70.9479C74.0893 70.5403 73.7607 70.2104 73.3538 70.0103C72.9469 69.8103 72.4849 69.7515 72.0409 69.8432C71.5969 69.935 71.1961 70.172 70.9018 70.5169C70.6075 70.8619 70.4365 71.295 70.4158 71.7479C70.2108 71.345 69.8779 71.0214 69.4694 70.8279C69.0608 70.6343 68.5996 70.5816 68.1579 70.6781C67.7162 70.7745 67.319 71.0147 67.0284 71.361C66.7378 71.7073 66.5702 72.1402 66.5518 72.5919C66.3478 72.187 66.0149 71.8614 65.6056 71.6664C65.1962 71.4713 64.7337 71.418 64.2907 71.5146C63.8476 71.6113 63.4494 71.8525 63.1585 72.2003C62.8676 72.5482 62.7006 72.9828 62.6838 73.4359C62.4788 73.033 62.1459 72.7094 61.7374 72.5159C61.3288 72.3223 60.8676 72.2696 60.4259 72.3661C59.9843 72.4625 59.587 72.7027 59.2964 73.049C59.0058 73.3953 58.8382 73.8282 58.8198 74.2799C58.6114 73.8705 58.271 73.5431 57.8537 73.3508C57.4364 73.1585 56.9665 73.1124 56.5198 73.2199Z" fill="#EF7B71"/>
<path opacity="0.7" d="M56.5198 73.2199C56.075 73.3173 55.6758 73.5609 55.3857 73.9118C55.0957 74.2628 54.9316 74.7008 54.9198 75.1559C54.8765 75.0644 54.8242 74.9773 54.7638 74.8959C54.6907 74.7849 54.6048 74.6829 54.5078 74.5919C54.4109 74.4979 54.3051 74.4135 54.1918 74.3399C54.0799 74.2673 53.9606 74.207 53.8358 74.1599C53.707 74.1089 53.5728 74.0727 53.4358 74.0519C53.3041 74.026 53.17 74.0139 53.0358 74.0159C52.9014 74.0216 52.7677 74.0376 52.6358 74.0639C52.3728 74.1203 52.1238 74.2291 51.9038 74.3839C51.7937 74.4582 51.6918 74.5441 51.5998 74.6399C51.5082 74.7379 51.4252 74.8437 51.3518 74.9559C51.2779 75.0691 51.2162 75.1898 51.1678 75.3159C51.1207 75.446 51.0846 75.5798 51.0598 75.7159C51.0382 75.8481 51.0288 75.982 51.0318 76.1159C51.0312 76.385 51.0885 76.651 51.1998 76.8959C51.2541 77.0191 51.3197 77.1369 51.3958 77.2479C51.4702 77.3568 51.556 77.4574 51.6518 77.5479C51.7479 77.6429 51.8538 77.7274 51.9678 77.7999C52.0797 77.8726 52.199 77.9329 52.3238 77.9799C52.4533 78.029 52.5872 78.0652 52.7238 78.0879C52.8232 78.1032 52.9233 78.1126 53.0238 78.1159C52.6191 78.3153 52.2921 78.6434 52.0941 79.0488C51.896 79.4542 51.8383 79.9138 51.9298 80.3556C52.0214 80.7973 52.2571 81.1962 52.5999 81.4894C52.9427 81.7827 53.3732 81.9539 53.8238 81.9759C53.4213 82.1806 53.0979 82.5127 52.9041 82.9205C52.7103 83.3284 52.657 83.7889 52.7524 84.2302C52.8479 84.6715 53.0868 85.0688 53.4319 85.36C53.7769 85.6512 54.2087 85.82 54.6598 85.8399C54.2568 86.0461 53.934 86.3806 53.7424 86.7908C53.5507 87.2009 53.5013 87.6631 53.6017 88.1045C53.7022 88.5459 53.9469 88.9412 54.2972 89.228C54.6474 89.5147 55.0833 89.6766 55.5358 89.6879C55.2095 89.852 54.9332 90.1007 54.7358 90.4079C54.5918 90.6346 54.4939 90.8874 54.4478 91.1519C54.423 91.2838 54.4123 91.4179 54.4158 91.5519C54.4138 91.8276 54.4711 92.1004 54.5838 92.3519C54.6374 92.4742 54.703 92.5908 54.7798 92.6999C54.8555 92.8102 54.9427 92.9121 55.0398 93.0039C55.1354 93.099 55.2399 93.1847 55.3518 93.2599C55.8094 93.5495 56.3627 93.6472 56.8918 93.5319C57.0293 93.5053 57.1634 93.4638 57.2918 93.4079C57.4132 93.3543 57.5297 93.29 57.6398 93.2159C57.7491 93.139 57.8509 93.052 57.9438 92.9559C58.0378 92.86 58.121 92.754 58.1918 92.6399C58.2657 92.5268 58.3274 92.4061 58.3758 92.2799C58.4251 92.1506 58.4613 92.0166 58.4838 91.8799C58.5024 91.7796 58.5131 91.678 58.5158 91.5759C58.7167 91.9831 59.0478 92.3116 59.4565 92.5094C59.8652 92.7072 60.3282 92.763 60.7722 92.668C61.2162 92.5729 61.6158 92.3325 61.9077 91.9847C62.1996 91.6369 62.3672 91.2017 62.3838 90.7479C62.5866 91.154 62.9189 91.4809 63.3284 91.6768C63.7378 91.8727 64.2008 91.9265 64.6442 91.8296C65.0877 91.7327 65.4861 91.4908 65.7765 91.142C66.067 90.7932 66.2328 90.3576 66.2478 89.9039C66.4518 90.3089 66.7847 90.6345 67.194 90.8295C67.6034 91.0245 68.0659 91.0779 68.509 90.9813C68.952 90.8846 69.3502 90.6434 69.6411 90.2955C69.932 89.9477 70.099 89.5131 70.1158 89.0599C70.3198 89.4649 70.6527 89.7905 71.062 89.9855C71.4714 90.1805 71.934 90.2339 72.377 90.1373C72.82 90.0406 73.2182 89.7994 73.5091 89.4515C73.8 89.1037 73.967 88.6691 73.9838 88.2159C74.1858 88.6239 74.5187 88.9524 74.9294 89.1489C75.34 89.3455 75.8047 89.3987 76.2492 89.3002C76.6936 89.2016 77.0922 88.9569 77.3813 88.6052C77.6703 88.2535 77.8332 87.8151 77.8438 87.3599C77.8871 87.4515 77.9394 87.5386 77.9998 87.6199C78.0729 87.731 78.1588 87.833 78.2558 87.9239C78.3528 88.019 78.4586 88.1048 78.5718 88.1799C78.6842 88.2517 78.8034 88.312 78.9278 88.3599C79.0573 88.409 79.1912 88.4452 79.3278 88.4679C79.4597 88.4925 79.5937 88.5032 79.7278 88.4999C79.8623 88.4997 79.9964 88.4849 80.1278 88.4559C80.3886 88.3928 80.6363 88.2845 80.8598 88.1359C80.9683 88.058 81.07 87.971 81.1638 87.8759C81.2554 87.778 81.3384 87.6722 81.4118 87.5599C81.486 87.4476 81.5464 87.3267 81.5918 87.1999C81.6412 87.0771 81.6787 86.9499 81.7038 86.8199C81.7264 86.6878 81.7371 86.554 81.7358 86.4199C81.7303 86.1451 81.6733 85.8738 81.5678 85.6199C81.512 85.498 81.4451 85.3815 81.3678 85.2719C81.2935 85.1618 81.2077 85.0599 81.1118 84.9679C81.0137 84.8753 80.908 84.791 80.7958 84.7159C80.6834 84.6442 80.5642 84.5839 80.4398 84.5359C80.3103 84.4869 80.1764 84.4507 80.0398 84.4279C79.9418 84.4127 79.8429 84.4033 79.7438 84.3999C80.1485 84.2006 80.4755 83.8725 80.6736 83.4671C80.8716 83.0617 80.9293 82.6021 80.8378 82.1603C80.7462 81.7186 80.5105 81.3197 80.1677 81.0264C79.8249 80.7331 79.3944 80.562 78.9438 80.5399C79.3445 80.3341 79.666 80.0016 79.8583 79.5942C80.0506 79.1869 80.1029 78.7273 80.0071 78.2871C79.9113 77.847 79.6728 77.4507 79.3286 77.1601C78.9844 76.8694 78.5538 76.7006 78.1038 76.6799C78.5054 76.4728 78.8269 76.1381 79.0177 75.7284C79.2086 75.3188 79.258 74.8573 79.1582 74.4165C79.0584 73.9758 78.8151 73.5806 78.4664 73.2931C78.1178 73.0056 77.6835 72.842 77.2318 72.8279C77.3215 72.7841 77.4083 72.7346 77.4918 72.6799C77.7107 72.5251 77.8992 72.3312 78.0478 72.1079C78.1195 71.9956 78.1798 71.8763 78.2278 71.7519C78.2783 71.623 78.3145 71.4888 78.3358 71.3519C78.3595 71.2199 78.3715 71.0861 78.3718 70.9519C78.3679 70.8174 78.3518 70.6836 78.3238 70.5519C78.207 70.0232 77.8855 69.5623 77.4298 69.27C76.974 68.9776 76.4211 68.8777 75.8918 68.9919C75.7617 69.0218 75.6345 69.0633 75.5118 69.1159C75.3882 69.1694 75.2703 69.2351 75.1598 69.3119C75.0505 69.3873 74.9486 69.473 74.8558 69.5679C74.7654 69.667 74.6825 69.7726 74.6078 69.8839C74.5352 69.9972 74.4748 70.1179 74.4278 70.2439C74.3768 70.3728 74.3405 70.5069 74.3198 70.6439C74.3008 70.7442 74.2901 70.8459 74.2878 70.9479C74.0893 70.5403 73.7607 70.2104 73.3538 70.0103C72.9469 69.8103 72.4849 69.7515 72.0409 69.8432C71.5969 69.935 71.1961 70.172 70.9018 70.5169C70.6075 70.8619 70.4365 71.295 70.4158 71.7479C70.2108 71.345 69.8779 71.0214 69.4694 70.8279C69.0608 70.6343 68.5996 70.5816 68.1579 70.6781C67.7162 70.7745 67.319 71.0147 67.0284 71.361C66.7378 71.7073 66.5702 72.1402 66.5518 72.5919C66.3478 72.187 66.0149 71.8614 65.6056 71.6664C65.1962 71.4713 64.7337 71.418 64.2907 71.5146C63.8476 71.6113 63.4494 71.8525 63.1585 72.2003C62.8676 72.5482 62.7006 72.9828 62.6838 73.4359C62.4788 73.033 62.1459 72.7094 61.7374 72.5159C61.3288 72.3223 60.8676 72.2696 60.4259 72.3661C59.9843 72.4625 59.587 72.7027 59.2964 73.049C59.0058 73.3953 58.8382 73.8282 58.8198 74.2799C58.6114 73.8705 58.271 73.5431 57.8537 73.3508C57.4364 73.1585 56.9665 73.1124 56.5198 73.2199Z" fill="white"/>
<path d="M74.9302 72.1373L54.7836 76.53C54.3821 76.6175 54.1276 77.0139 54.2151 77.4154L56.9155 89.8004C57.003 90.2019 57.3995 90.4564 57.8009 90.3689L77.9476 85.9762C78.3491 85.8886 78.6036 85.4922 78.516 85.0908L75.8157 72.7057C75.7281 72.3043 75.3317 72.0498 74.9302 72.1373Z" fill="white"/>
<path d="M73.2988 62.6279C73.9988 64.3879 74.6068 66.1359 75.1628 67.9279C75.7188 69.7199 76.2268 71.5279 76.6348 73.3759C76.6868 73.6079 76.7348 73.8439 76.7828 74.0759L76.8508 74.4239L76.8868 74.5999L76.9148 74.7679C76.9288 74.8406 76.9381 74.9141 76.9428 74.9879C76.9734 75.3817 76.9032 75.7768 76.7388 76.1359C76.5577 76.5159 76.2736 76.8375 75.9188 77.0639C75.6796 77.2137 75.4174 77.3232 75.1428 77.3879C74.9482 77.4334 74.7502 77.4628 74.5508 77.4759C73.966 77.5037 73.3801 77.458 72.8068 77.3399C72.3131 77.2444 71.8245 77.1243 71.3428 76.9799C69.5156 76.4172 67.7442 75.6874 66.0508 74.7999L66.6908 73.1199C68.4468 73.5199 70.2428 73.9479 71.9548 74.2159C72.3828 74.2839 72.8028 74.3319 73.2028 74.3599C73.5383 74.3958 73.877 74.3891 74.2108 74.3399C74.3108 74.3399 74.3628 74.2559 74.1548 74.3639C73.9926 74.4649 73.8634 74.6108 73.7828 74.7839C73.7128 74.9313 73.6772 75.0927 73.6788 75.2559C73.6788 75.2879 73.6788 75.2879 73.6788 75.3039C73.6788 75.3199 73.6788 75.3479 73.6788 75.3039L73.6348 75.1439L73.5468 74.8199C73.4868 74.6079 73.4348 74.3919 73.3668 74.1799C72.8748 72.4639 72.3148 70.7479 71.7308 69.0319C71.1468 67.3159 70.5308 65.6039 69.9068 63.9239L73.2988 62.6279Z" fill="#FFC3BD"/>
<path d="M72.8079 59.3402C74.2199 59.8682 75.6479 64.9402 75.6479 64.9402L69.8039 68.5922C69.8039 68.5922 67.9479 63.6962 68.6679 61.8722C69.4199 59.9682 71.1919 58.7362 72.8079 59.3402Z" fill="#EF7B71"/>
<path opacity="0.2" d="M72.8079 59.3402C74.2199 59.8682 75.6479 64.9402 75.6479 64.9402L69.8039 68.5922C69.8039 68.5922 67.9479 63.6962 68.6679 61.8722C69.4199 59.9682 71.1919 58.7362 72.8079 59.3402Z" fill="black"/>
<path d="M87.6992 135.16H87.6592C87.5799 135.179 87.497 135.178 87.4181 135.157C87.3392 135.136 87.2667 135.096 87.2072 135.04C87.1655 135.01 87.1329 134.969 87.1131 134.922C87.0934 134.875 87.0872 134.823 87.0952 134.772C87.1552 134.324 88.3152 133.776 88.4472 133.716C88.4607 133.707 88.4768 133.702 88.4932 133.702C88.5097 133.702 88.5258 133.707 88.5392 133.716C88.5517 133.727 88.5607 133.741 88.565 133.756C88.5693 133.772 88.5687 133.789 88.5632 133.804C88.3952 134.268 88.0992 135.004 87.6992 135.16ZM88.3352 133.96C87.8752 134.188 87.2912 134.56 87.2592 134.796C87.2571 134.819 87.2611 134.842 87.271 134.862C87.2809 134.883 87.2962 134.9 87.3152 134.912C87.3533 134.95 87.4005 134.978 87.4523 134.993C87.5041 135.007 87.5588 135.009 87.6112 134.996C87.8272 134.948 88.0992 134.564 88.3152 133.976L88.3352 133.96Z" fill="#EF7B71"/>
<path d="M88.383 133.936C87.983 134.092 87.139 134.18 86.871 133.936C86.8232 133.89 86.7925 133.828 86.7838 133.762C86.7751 133.696 86.7889 133.629 86.823 133.572C86.8493 133.513 86.8884 133.461 86.9376 133.42C86.9868 133.378 87.0447 133.348 87.107 133.332C87.603 133.184 88.471 133.732 88.507 133.732C88.5199 133.74 88.5304 133.751 88.5375 133.765C88.5445 133.778 88.5478 133.793 88.547 133.808C88.5467 133.823 88.5425 133.837 88.5347 133.85C88.527 133.863 88.5161 133.873 88.503 133.88L88.383 133.936ZM87.131 133.492C87.0968 133.505 87.0654 133.524 87.0386 133.548C87.0119 133.573 86.9903 133.603 86.975 133.636C86.931 133.736 86.975 133.78 86.975 133.808C87.155 133.976 87.859 133.94 88.267 133.808C87.967 133.644 87.439 133.408 87.143 133.492H87.131Z" fill="#EF7B71"/>
<path d="M55.0593 161.92C54.7743 162.028 54.4609 162.035 54.1713 161.94C54.1028 161.907 54.0433 161.857 53.998 161.796C53.9528 161.735 53.923 161.663 53.9113 161.588C53.9025 161.542 53.9052 161.495 53.9192 161.45C53.9331 161.405 53.9579 161.365 53.9913 161.332C54.3433 160.988 55.9033 161.3 56.0793 161.332C56.096 161.335 56.1114 161.343 56.123 161.355C56.1346 161.367 56.1417 161.383 56.1433 161.4C56.1468 161.418 56.1444 161.436 56.1364 161.452C56.1285 161.468 56.1154 161.48 56.0993 161.488C55.7667 161.664 55.4186 161.809 55.0593 161.92ZM54.2593 161.384C54.2057 161.395 54.156 161.42 54.1153 161.456C54.1015 161.468 54.0916 161.484 54.0866 161.502C54.0816 161.52 54.0819 161.539 54.0873 161.556C54.094 161.606 54.1124 161.653 54.1409 161.694C54.1694 161.735 54.2073 161.769 54.2513 161.792C54.5113 161.92 55.0833 161.792 55.8073 161.456C55.2966 161.343 54.7703 161.319 54.2513 161.384H54.2593Z" fill="#EF7B71"/>
<path d="M56.0989 161.5H56.0669C55.6069 161.428 54.5909 160.92 54.5469 160.512C54.5469 160.416 54.5709 160.284 54.7869 160.2C54.8638 160.166 54.9469 160.149 55.0309 160.149C55.1149 160.149 55.1979 160.166 55.2749 160.2C55.8069 160.44 56.1429 161.336 56.1549 161.376C56.1628 161.388 56.167 161.402 56.167 161.416C56.167 161.43 56.1628 161.444 56.1549 161.456C56.1498 161.467 56.1421 161.477 56.1323 161.485C56.1226 161.493 56.1111 161.498 56.0989 161.5ZM54.8989 160.344H54.8509C54.7069 160.4 54.7109 160.464 54.7149 160.484C54.7429 160.724 55.4509 161.152 55.9389 161.284C55.7969 160.905 55.5412 160.58 55.2069 160.352C55.1086 160.312 54.9991 160.309 54.8989 160.344Z" fill="#EF7B71"/>
<path d="M67.7842 58.9802C65.565 59.0282 63.3518 59.2287 61.1602 59.5802C60.3602 59.7242 59.5322 59.9002 58.7602 60.0802C58.1642 60.7162 57.1282 63.9322 58.2922 66.1082C59.0602 64.8202 60.3522 63.7082 61.2122 63.5802C62.1562 63.8362 63.0882 65.2642 63.3162 66.5242C64.8602 66.2442 68.2002 62.6322 70.1162 59.7242L70.6042 58.9722C69.7002 58.9442 68.7562 58.9402 67.7842 58.9802Z" fill="#EF7B71"/>
<path d="M67.5801 51.8521C67.0321 53.9841 66.3801 57.852 67.7801 59.124C67.7801 59.124 66.4601 61.272 63.1081 61.66C59.4201 62.092 61.1601 59.724 61.1601 59.724C63.5601 58.952 63.6161 57.224 63.3041 55.632L67.5801 51.8521Z" fill="#FFC3BD"/>
<path d="M61.1603 59.7243C61.1603 59.7243 59.6843 61.2803 61.0883 64.1243C64.0563 62.7443 66.9003 61.1083 67.7803 59.1323L61.1603 59.7243Z" fill="#FFC3BD"/>
<path opacity="0.2" d="M65.8367 53.3921L63.3047 55.6321C63.3841 56.0058 63.4283 56.3861 63.4367 56.7681C64.3527 56.5561 65.8647 55.6441 66.0207 54.7041C66.0481 54.2588 65.9855 53.8126 65.8367 53.3921Z" fill="black"/>
<path d="M70.3886 49.2762C69.1326 52.5682 68.6686 53.9882 66.4366 55.1802C63.0726 56.9762 59.3046 54.7122 59.5526 51.1122C59.7766 47.8682 61.7926 43.0282 65.4966 42.7122C66.3147 42.6376 67.1382 42.7742 67.8884 43.109C68.6385 43.4437 69.2902 43.9654 69.7811 44.624C70.272 45.2827 70.5856 46.0563 70.692 46.8708C70.7984 47.6854 70.6939 48.5136 70.3886 49.2762Z" fill="#FFC3BD"/>
<path d="M62.9006 42.7043C64.4046 42.3563 64.9006 44.0723 62.2686 44.6763C59.6366 45.2803 61.6766 42.9923 62.9006 42.7043Z" fill="#263238"/>
<path d="M64.4714 41.7962C62.3234 42.5962 63.2714 45.0642 65.7074 45.7682C68.1434 46.4722 67.3314 50.6042 69.5154 51.5122C71.6994 52.4202 72.8554 45.4722 70.9714 43.5122C69.0874 41.5522 65.9154 41.2522 64.4714 41.7962Z" fill="#263238"/>
<path d="M62.4634 48.3159C62.0251 48.8633 61.5136 49.3478 60.9434 49.7559C61.0517 49.8986 61.1897 50.0161 61.3478 50.1004C61.506 50.1846 61.6805 50.2336 61.8594 50.2439L62.4634 48.3159Z" fill="#ED847E"/>
<path d="M63.016 51.7802C62.8806 51.7578 62.7469 51.7257 62.616 51.6842C62.5949 51.6778 62.5772 51.6632 62.5667 51.6438C62.5562 51.6243 62.5538 51.6015 62.56 51.5802C62.5681 51.5594 62.5836 51.5422 62.6035 51.5318C62.6234 51.5215 62.6463 51.5188 62.668 51.5242C63.0053 51.6381 63.3646 51.671 63.7169 51.6203C64.0692 51.5696 64.4046 51.4366 64.6961 51.2322C64.7039 51.2243 64.7132 51.2179 64.7235 51.2136C64.7338 51.2093 64.7449 51.207 64.756 51.207C64.7672 51.207 64.7783 51.2093 64.7886 51.2136C64.7989 51.2179 64.8082 51.2243 64.816 51.2322C64.8312 51.2485 64.8397 51.27 64.8397 51.2922C64.8397 51.3145 64.8312 51.336 64.816 51.3522C64.5605 51.5416 64.2693 51.6771 63.9599 51.7507C63.6505 51.8242 63.3294 51.8343 63.016 51.7802Z" fill="#263238"/>
<path d="M70.4674 52.2763C70.0468 52.8128 69.4317 53.1621 68.7554 53.2483C67.8594 53.3523 67.5554 52.5163 67.9154 51.7443C68.2474 51.0483 69.1154 50.1443 69.9554 50.4083C70.1386 50.467 70.3042 50.5705 70.4373 50.7093C70.5704 50.8482 70.6667 51.0181 70.7175 51.2036C70.7684 51.3891 70.7721 51.5843 70.7285 51.7716C70.6848 51.959 70.5951 52.1324 70.4674 52.2763Z" fill="#FFC3BD"/>
<path d="M66.6447 48.4002C66.611 48.3905 66.5811 48.3707 66.5589 48.3436C66.5367 48.3164 66.5234 48.2831 66.5207 48.2482C66.4727 47.4682 65.6207 46.9362 65.6127 46.9322C65.5915 46.9219 65.5726 46.9074 65.5574 46.8894C65.5422 46.8714 65.5309 46.8504 65.5243 46.8278C65.5177 46.8052 65.5159 46.7814 65.5191 46.7581C65.5223 46.7347 65.5304 46.7123 65.5428 46.6923C65.5552 46.6723 65.5717 46.6551 65.5912 46.6418C65.6106 46.6286 65.6327 46.6196 65.6559 46.6154C65.6791 46.6113 65.7029 46.612 65.7258 46.6177C65.7487 46.6233 65.7701 46.6337 65.7887 46.6482C65.8327 46.6722 66.7967 47.2762 66.8527 48.2242C66.8549 48.2463 66.8525 48.2687 66.8458 48.29C66.839 48.3112 66.828 48.3309 66.8134 48.3477C66.7988 48.3646 66.7809 48.3783 66.7609 48.388C66.7408 48.3977 66.719 48.4032 66.6967 48.4042L66.6447 48.4002Z" fill="#263238"/>
<path d="M64.8033 48.7999C64.7113 49.0479 64.5033 49.1999 64.3393 49.1439C64.1753 49.0879 64.1153 48.8319 64.2073 48.5799C64.2993 48.3279 64.5073 48.1799 64.6713 48.2359C64.8353 48.2919 64.8993 48.5439 64.8033 48.7999Z" fill="#263238"/>
<path d="M61.7005 47.7042C61.6085 47.9522 61.4005 48.1042 61.2365 48.0482C61.0725 47.9922 61.0125 47.7362 61.1085 47.4842C61.2045 47.2322 61.4084 47.0842 61.5724 47.1402C61.7364 47.1962 61.7965 47.4522 61.7005 47.7042Z" fill="#263238"/>
<path d="M61.6395 47.2003L61.1035 46.8003C61.1035 46.8003 61.2395 47.3683 61.6395 47.2003Z" fill="#263238"/>
<path d="M64.7391 48.2721L64.2031 47.8721C64.2031 47.8721 64.3391 48.4601 64.7391 48.2721Z" fill="#263238"/>
<path d="M60.9914 45.6C60.9621 45.6002 60.9333 45.5925 60.908 45.5777C60.8826 45.5629 60.8617 45.5416 60.8474 45.516C60.8258 45.4773 60.8204 45.4315 60.8324 45.3888C60.8444 45.3461 60.8728 45.3099 60.9114 45.288C61.1397 45.1489 61.398 45.0668 61.6647 45.0487C61.9314 45.0306 62.1985 45.077 62.4434 45.184C62.4832 45.2042 62.5134 45.2393 62.5272 45.2817C62.5411 45.3241 62.5376 45.3702 62.5174 45.41C62.4973 45.4498 62.4621 45.4799 62.4198 45.4938C62.3774 45.5077 62.3312 45.5042 62.2914 45.484C62.0981 45.4041 61.8885 45.3711 61.6799 45.3878C61.4713 45.4044 61.2696 45.4703 61.0914 45.58C61.0619 45.5994 61.0261 45.6066 60.9914 45.6Z" fill="#263238"/>
<path d="M67.1604 73.2881L64.7405 70.3081L64.0645 73.8561C64.0645 73.8561 65.8205 75.3081 67.1845 74.7521L67.1604 73.2881Z" fill="#FFC3BD"/>
<path d="M62.5918 69.8159L61.4238 72.6399L64.0638 73.8559L64.7398 70.3079L62.5918 69.8159Z" fill="#FFC3BD"/>
<path d="M164.48 95.7405L164.102 95.7769L164.594 100.897L164.972 100.861L164.48 95.7405Z" fill="#EF7B71"/>
<path d="M165.15 102.643L164.771 102.68L164.97 104.746L165.348 104.71L165.15 102.643Z" fill="#EF7B71"/>
<path d="M73.8432 146.993L167.213 138.019L161.871 82.4347L68.5008 91.4087L73.8432 146.993Z" fill="#EF7B71"/>
<path opacity="0.1" d="M73.8432 146.993L167.213 138.019L161.871 82.4347L68.5008 91.4087L73.8432 146.993Z" fill="black"/>
<path opacity="0.1" d="M118.1 117.24L68.5 91.4076L161.868 82.4316L118.1 117.24Z" fill="#263238"/>
<path d="M106.8 60.9518L68.5 91.4078L161.868 82.4318L118.468 59.8318C116.623 58.8705 114.539 58.4647 112.468 58.6635C110.397 58.8623 108.428 59.6571 106.8 60.9518Z" fill="#EF7B71"/>
<path opacity="0.2" d="M158.401 82.7677L117.165 61.2917C115.774 60.5662 114.202 60.2598 112.64 60.4096C111.078 60.5594 109.593 61.159 108.365 62.1357L71.9648 91.0717L158.401 82.7677Z" fill="#263238"/>
<path d="M141.157 82.084L153.793 85.46L154.097 88.612L118.101 117.24L77.3092 95.996L76.7012 89.692L141.157 82.084Z" fill="white"/>
<path d="M141.156 82.084L143.544 88.7L153.792 85.46" fill="#E0E0E0"/>
<path d="M141.156 82.084L142.384 87.54L153.792 85.46" fill="#F0F0F0"/>
<path d="M125.56 111.296L167.212 138.02L73.8438 146.992L109.64 112.824C111.738 110.822 114.448 109.583 117.335 109.306C120.222 109.029 123.119 109.729 125.56 111.296Z" fill="#EF7B71"/>
</svg>
