<svg width="200" height="132" viewBox="0 0 200 132" fill="none" xmlns="http://www.w3.org/2000/svg">
<path d="M159.08 79.2629L158.69 82.9809C157.677 85.4024 156.664 87.8224 155.652 90.2409C155.299 91.0901 154.944 91.938 154.587 92.7841C154.426 93.1801 154.197 93.5448 153.91 93.8621C153.896 93.8834 153.877 93.9012 153.855 93.9142C153.833 93.9272 153.808 93.9349 153.782 93.9369C153.696 93.9369 153.666 93.8225 153.659 93.7367C153.61 92.8197 153.501 91.9069 153.331 91.0043C152.383 86.6461 147.323 85.0489 143.354 85.1479C141.767 85.1721 140.202 85.5344 138.765 86.2105C136.693 87.2137 135.885 90.0033 135.775 90.1067L135.687 90.4653L134.266 96.3855C133.967 97.7055 133.738 98.4029 132.519 98.7549C132.48 98.7681 131.265 99.4149 131.226 99.4149C130.755 99.5469 132.044 99.2631 131.534 99.1773L129.917 98.9243L129.228 98.7659L119.181 96.3877C119.57 96.4537 119.968 96.5263 120.373 96.6077L122.705 97.1643L122.089 94.2075C120.485 85.0027 123.143 76.6515 127.67 72.1173C128.863 70.9249 129.455 70.6191 130.845 69.8249L131.626 71.6751C131.626 71.6751 139.616 74.0577 141.5 66.7471C142.261 66.8131 143.724 66.8021 144.478 66.9671C148.412 67.7919 151.964 69.8884 154.587 72.9335C154.818 73.1975 155.045 73.4703 155.269 73.7475L155.388 73.8927C155.527 74.0665 155.674 74.2447 155.813 74.4229L155.912 74.5637C157.062 76.0647 158.12 77.634 159.08 79.2629Z" fill="#353642"/>
<path d="M64.1367 40.7815C65.4039 34.4455 70.7851 28.3075 86.1543 26.9017C120.316 23.7799 101.849 14.3617 112.972 4.05474C124.096 -6.25226 166.153 10.7053 155.151 37.1889C144.149 63.6725 180.468 34.2783 195.851 67.8239C198.079 72.6919 199.152 78.0091 198.986 83.3603C198.792 89.0143 197.336 94.5535 194.724 99.5721C189.812 109.169 180.686 117.718 167.488 123.015C165.541 123.809 163.502 124.522 161.372 125.156" stroke="#CCDDE2" stroke-miterlimit="10"/>
<path d="M172.351 92.8905C172.084 95.9991 169.977 96.5051 169.977 96.5051C168.195 97.5589 165.458 96.4259 164.906 94.4503C164.898 94.4291 164.893 94.4069 164.893 94.3843C164.453 92.6925 163.595 90.5189 162.442 88.1407C160.22 82.7639 157.331 77.3431 153.626 73.0553C151.003 70.0105 147.451 67.9139 143.517 67.0889C143.504 67.0889 143.498 67.0757 143.484 67.0757C138.268 65.5049 135.729 62.2973 134.629 59.2217C134.629 59.2217 134.629 59.2217 134.629 59.2085C134.159 57.2659 133.679 55.3717 133.936 54.2255C134.376 52.2169 134.596 50.0455 134.049 49.6055C133.36 49.0291 132.115 49.4559 128.947 50.0939C126.203 50.6571 124.74 50.3381 124.41 48.6617C124.358 48.4016 124.332 48.137 124.331 47.8719C124.318 48.0391 123.671 47.3747 123.64 47.5331C123.434 48.3889 123.02 48.7321 122.118 49.1083C120.778 49.6649 120.23 51.8143 120.032 53.2465C119.826 54.7711 120.512 56.8743 121.055 58.3065C120.36 57.5123 119.564 57.6047 118.319 58.0865C118.006 58.2053 117.219 58.1723 116.596 57.9545C116.684 57.879 116.788 57.824 116.9 57.7939C117.1 57.7279 115.648 57.0063 115.859 56.9601C117.973 56.4827 119.159 54.7205 118.908 53.1695C118.286 49.2645 119.115 44.6709 121.753 41.6283C124.661 38.2821 129.407 37.5869 133.424 39.1181C136.579 40.3171 139.562 42.7767 140.655 46.0569C140.655 46.0701 140.655 46.0833 140.668 46.0965C140.807 46.5136 140.914 46.9411 140.987 47.3747C141.39 49.8145 140.53 52.2873 140.052 54.6985C139.881 55.5675 140.316 56.5157 140.409 57.2043C140.939 61.3403 145.713 62.5085 149.49 64.2641C157.43 67.9623 163.914 74.2851 168.274 81.9741C171.169 87.0649 172.203 90.5365 172.351 92.8905Z" fill="#9ED5CF"/>
<path d="M130.493 69.0049C130.408 69.0511 130.322 69.0973 130.243 69.1501C128.817 69.9674 127.506 70.9706 126.344 72.1333C121.819 76.6675 119.161 85.0187 120.765 94.2235L121.381 97.1649" stroke="black" stroke-miterlimit="10"/>
<path d="M170.533 130.768C170.534 123.896 169.94 117.037 168.758 110.268C167.967 105.675 166.878 101.139 165.498 96.6874C164.668 93.9836 163.654 91.0664 162.448 88.1382C161.329 85.3978 160.036 82.7319 158.576 80.1566C157.162 77.6347 155.506 75.2556 153.633 73.0528C151.01 70.008 147.457 67.9111 143.524 67.0864C142.77 66.9264 142.006 66.8118 141.238 66.7432" stroke="black" stroke-miterlimit="10"/>
<path d="M89.2167 70.9657L89.1045 70.9459C87.761 70.7208 86.3824 70.8365 85.0952 71.2822C83.808 71.7282 82.6532 72.49 81.7367 73.4979L74.2127 81.6951L73.3327 82.6631C73.2779 82.7225 73.2265 82.7849 73.1787 82.8501" stroke="black" stroke-miterlimit="10"/>
<path d="M78.3516 84.9903L82.481 80.4099L82.4876 80.4033" stroke="black" stroke-miterlimit="10"/>
<path d="M114.272 108.649L133.696 115.493C135.567 116.152 137.557 116.401 139.533 116.222C141.508 116.043 143.422 115.441 145.144 114.457C146.865 113.472 148.355 112.129 149.511 110.517C150.667 108.906 151.463 107.064 151.844 105.118L156.44 81.6569C156.675 80.4522 156.664 79.2125 156.408 78.0119C156.151 76.8116 155.655 75.6755 154.948 74.6719C154.751 74.3892 154.536 74.1188 154.306 73.8623" stroke="black" stroke-miterlimit="10"/>
<path d="M101.418 107.703C98.9455 109.372 97.1283 114.443 96.1625 117.772C95.9971 118.33 95.655 118.82 95.1877 119.167C94.7204 119.515 94.1533 119.701 93.5709 119.699C93.1767 119.699 92.7871 119.614 92.4291 119.448C91.8798 119.191 91.4334 118.756 91.1622 118.213C90.8907 117.671 90.8099 117.053 90.9331 116.459C92.5501 108.552 98.2569 92.9429 117.861 96.3837C118.253 96.4497 118.651 96.5223 119.054 96.6037L121.381 97.1646L127.909 98.7552L129.669 99.1798C130.336 99.3418 131.036 99.3167 131.69 99.1073C131.731 99.0993 131.77 99.0883 131.809 99.0742C132.412 98.8674 132.953 98.5119 133.382 98.0402C133.81 97.5688 134.113 96.9968 134.262 96.377L135.747 90.1995L135.833 89.8409L137.778 81.7646" stroke="black" stroke-miterlimit="10"/>
<path d="M91.8575 82.387H85.2047C84.4462 82.387 83.7188 82.0856 83.1825 81.5495C82.6461 81.0131 82.3447 80.2856 82.3447 79.527C82.3447 78.7684 82.6461 78.0411 83.1825 77.5047C83.7188 76.9684 84.4462 76.667 85.2047 76.667H94.6295" stroke="black" stroke-miterlimit="10"/>
<path d="M86.7506 82.3857C86.656 83.5517 86.2116 84.4141 85.556 85.0103C83.8664 86.5503 80.771 86.3743 78.6172 85.3205" stroke="black" stroke-miterlimit="10"/>
<path d="M74.2223 81.6922C72.3149 79.3866 72.7043 76.2603 74.1849 73.8447C78.3847 66.9895 87.9811 68.3051 94.2049 71.1541C99.2473 73.4553 103.665 76.9137 107.966 80.3633C110.067 82.0485 112.13 83.8041 114.126 85.6433C114.492 85.9749 114.929 86.2191 115.403 86.3572C115.878 86.4956 116.377 86.5244 116.864 86.4419C117.351 86.3594 117.813 86.1674 118.215 85.8805C118.617 85.5936 118.949 85.2192 119.186 84.7854C120.286 82.7548 121.476 80.5393 121.701 79.9255" stroke="black" stroke-miterlimit="10"/>
<path d="M85.5586 85.0098C85.5586 85.0098 95.4828 90.3932 102.855 98.1284" stroke="black" stroke-miterlimit="10"/>
<path d="M98.9963 110.623C97.8963 112.501 98.8423 115.26 100.921 115.92C103.576 116.777 106.384 117.058 109.156 116.745C112.181 116.393 114.192 113.896 115.516 111.036C115.612 110.824 115.662 110.593 115.663 110.36C115.664 110.126 115.616 109.895 115.521 109.682C115.427 109.468 115.289 109.277 115.116 109.12C114.943 108.963 114.739 108.845 114.517 108.772C114.117 108.641 113.682 108.665 113.299 108.84C112.915 109.014 112.612 109.328 112.449 109.716C112.009 110.733 111.329 112.004 110.427 112.576" stroke="black" stroke-miterlimit="10"/>
<path d="M104.177 110.271C104.177 110.271 101.46 113.192 103.603 116.285C103.697 116.415 103.808 116.532 103.933 116.633" stroke="black" stroke-miterlimit="10"/>
<path d="M107.761 110.753C107.761 110.753 105.248 116.407 108.471 116.821" stroke="black" stroke-miterlimit="10"/>
<path d="M196.96 130.772H41.3672" stroke="black" stroke-miterlimit="10"/>
<path d="M102.578 120.117H87.061C86.9035 121.582 86.2096 122.937 85.1129 123.921C84.0162 124.904 82.5943 125.448 81.121 125.446H28.9678C28.9706 126.856 29.5323 128.208 30.5298 129.205C31.527 130.203 32.8789 130.765 34.2896 130.767H102.578C103.99 130.767 105.346 130.207 106.346 129.209C107.347 128.212 107.912 126.858 107.917 125.446V121.868C107.917 121.402 107.732 120.954 107.402 120.624C107.072 120.294 106.624 120.108 106.157 120.108L102.578 120.117Z" stroke="black" stroke-miterlimit="10"/>
<path d="M78.6171 85.3202C79.0742 85.9527 79.4031 86.6688 79.5851 87.4278L86.9353 118.083C87.0976 118.748 87.1401 119.437 87.0607 120.118C86.9031 121.582 86.2093 122.937 85.1126 123.921C84.0159 124.905 82.594 125.448 81.1207 125.446H27.9994C26.6579 125.446 25.3553 124.994 24.3021 124.163C23.2488 123.332 22.506 122.17 22.1936 120.866L14.8566 90.213C14.6457 89.3352 14.6366 88.4213 14.83 87.5396C15.0234 86.6578 15.4141 85.8315 15.9731 85.1227C16.5319 84.4138 17.2443 83.8409 18.0565 83.4474C18.8688 83.0536 19.7598 82.8492 20.6624 82.8496H73.7792C74.6518 82.8479 75.5142 83.0388 76.3044 83.4089C77.0947 83.7789 77.7934 84.3188 78.3508 84.9902L78.6171 85.3202Z" stroke="black" stroke-miterlimit="10"/>
<path d="M70.2976 47.1708C69.9588 46.7726 69.6023 46.3898 69.2306 46.018C67.1443 43.9245 64.6649 42.2637 61.9349 41.1309C59.2049 39.9983 56.278 39.4162 53.3223 39.418H25.4747C22.5199 39.4167 19.5937 39.9979 16.8635 41.1282C14.1333 42.2586 11.6528 43.9159 9.56347 46.0054C7.47415 48.095 5.81711 50.5757 4.68706 53.3059C3.55701 56.0363 2.9761 58.9623 2.97755 61.9174V62.078C2.97471 64.1744 3.50867 66.2368 4.52855 68.0686C5.67464 69.2357 7.04264 70.1619 8.55204 70.7924C10.0614 71.4231 11.6817 71.7452 13.3175 71.7404H40.6195C41.4527 71.7404 42.2517 72.0712 42.8409 72.6604C43.43 73.2496 43.7612 74.0486 43.7612 74.882C43.7622 75.7162 44.0944 76.5157 44.6847 77.1053C45.275 77.6947 46.0751 78.0258 46.9093 78.0258H46.9776L53.7184 77.8542C53.7184 77.7882 53.7051 77.7288 53.7051 77.6694C53.1224 77.4689 52.6168 77.0914 52.2591 76.5898C51.9014 76.088 51.7093 75.4872 51.7098 74.871V74.7258C51.7104 73.8926 52.0415 73.094 52.6305 72.5049C53.2196 71.9159 54.0184 71.5846 54.8513 71.5842H61.4976C64.765 71.5842 67.8987 70.2862 70.2091 67.9757C72.5195 65.6653 73.8176 62.5316 73.8176 59.2642C73.829 54.9788 72.6071 50.7805 70.2976 47.1708ZM22.0736 60.2058C21.0081 60.2062 19.9664 59.8905 19.0805 59.2989C18.1943 58.7071 17.5037 57.8659 17.0958 56.8816C16.6882 55.8973 16.5815 54.8142 16.7894 53.7692C16.9973 52.7242 17.5103 51.7644 18.264 51.0111C19.0175 50.2578 19.9776 49.7452 21.0226 49.5375C22.0676 49.3301 23.1507 49.4372 24.135 49.8455C25.119 50.2538 25.9599 50.9446 26.5512 51.831C27.1426 52.7172 27.4578 53.7591 27.457 54.8246C27.4552 56.2515 26.8874 57.6197 25.8782 58.6284C24.8689 59.6373 23.5005 60.2044 22.0736 60.2058ZM39.6449 60.2058C38.5797 60.2053 37.5385 59.889 36.653 59.2967C35.7675 58.7045 35.0775 57.863 34.6705 56.8785C34.2633 55.8942 34.1573 54.8111 34.3656 53.7664C34.5739 52.7218 35.0876 51.7624 35.8414 51.0095C36.5951 50.2567 37.5549 49.7443 38.5999 49.5373C39.6449 49.3301 40.7278 49.4376 41.7116 49.846C42.6955 50.2543 43.5363 50.9453 44.1274 51.8315C44.7186 52.7176 45.0336 53.7593 45.0327 54.8246C45.0327 55.5316 44.8933 56.2319 44.6224 56.8853C44.3516 57.5387 43.9548 58.132 43.4543 58.6319C42.954 59.1317 42.36 59.5279 41.7063 59.7979C41.0527 60.068 40.3522 60.2066 39.6449 60.2058ZM56.3803 60.2058C55.3151 60.2049 54.2743 59.8881 53.389 59.2956C52.5037 58.7032 51.8142 57.8614 51.4075 56.8769C51.0007 55.8927 50.8949 54.8096 51.1034 53.765C51.3122 52.7205 51.8259 51.7613 52.5796 51.0089C53.3336 50.2563 54.2934 49.7441 55.3384 49.5371C56.3832 49.3303 57.466 49.4377 58.4499 49.8462C59.4335 50.2545 60.2741 50.9455 60.8651 51.8317C61.4562 52.7178 61.7712 53.7593 61.7704 54.8246C61.7704 55.5319 61.6309 56.2323 61.3598 56.8857C61.089 57.5394 60.6917 58.1329 60.1912 58.6328C59.6905 59.1326 59.0962 59.5286 58.4424 59.7985C57.7883 60.0685 57.0876 60.2069 56.3803 60.2058Z" fill="#9ED5CF"/>
<path d="M73.8171 59.2657C73.8171 62.5332 72.5191 65.6669 70.2086 67.9773C67.8982 70.2877 64.7645 71.5857 61.4971 71.5857H54.8553C54.0226 71.5862 53.2242 71.9171 52.6352 72.5058C52.0463 73.0943 51.7148 73.8924 51.7137 74.7251V74.8703C51.7132 75.4866 51.9053 76.0874 52.263 76.5892C52.6207 77.0908 53.1263 77.4683 53.7091 77.6687C54.016 77.7754 54.3389 77.8289 54.6639 77.8271L53.7223 77.8535L46.9771 78.0251H46.9045C46.0707 78.0251 45.271 77.6943 44.6807 77.1053C44.0904 76.5164 43.758 75.7173 43.7563 74.8835C43.7563 74.0502 43.4254 73.2511 42.836 72.662C42.2469 72.0728 41.4478 71.7419 40.6147 71.7419H13.3171C10.0496 71.7419 6.91597 70.4439 4.60551 68.1335C2.29507 65.8231 0.99707 62.6894 0.99707 59.4219V59.2613C0.997356 56.3083 1.57928 53.3845 2.70957 50.6563C3.83987 47.9283 5.49644 45.4495 7.58468 43.3617C9.67292 41.2739 12.152 39.6178 14.8802 38.4881C17.6084 37.3584 20.5326 36.7769 23.4855 36.7773H51.3243C57.2887 36.7778 63.0089 39.1472 67.227 43.3644C71.4448 47.5815 73.8153 53.3011 73.8171 59.2657Z" stroke="black" stroke-miterlimit="10"/>
<path d="M143.517 67.0796C143.504 67.0796 143.498 67.0664 143.484 67.0664C138.268 65.4956 135.729 62.288 134.629 59.2124C134.629 59.2124 134.629 59.2124 134.629 59.1992C133.769 56.8012 133.789 54.4802 134.099 53.0942C134.285 52.36 134.403 51.6105 134.451 50.8546C134.524 48.714 132.953 49.2376 128.461 50.133C126.397 50.551 125.077 49.7678 124.417 48.6546C124.353 48.5576 124.297 48.4552 124.25 48.3488C123.942 47.7009 123.814 46.9819 123.88 46.2676" stroke="black" stroke-miterlimit="10"/>
<path d="M121.295 58.5969C121.216 58.4847 121.135 58.3769 121.055 58.2911C120.36 57.4969 119.564 57.5893 118.319 58.0711C118.006 58.1899 117.219 58.1569 116.596 57.9391C116.072 57.7521 115.681 57.4287 115.859 56.9447C115.905 56.845 115.973 56.7575 116.058 56.6884C116.143 56.6193 116.243 56.5707 116.35 56.5465C116.557 56.4941 116.767 56.4521 116.979 56.4211C119.115 55.9437 118.638 53.4709 118.378 51.9199C117.749 48.0171 118.585 43.4235 121.249 40.3809C124.184 37.0347 128.984 36.3373 133.039 37.8685C136.605 39.2149 139.96 42.1365 140.655 46.0415C140.655 46.0547 140.655 46.0679 140.668 46.0811C140.682 46.0943 140.668 46.1141 140.668 46.1273C141.08 48.5671 140.668 51.2115 140.191 53.6249C139.905 55.0549 140.013 56.2231 140.411 57.1889C141.658 60.3503 145.867 61.4525 149.259 63.0167C157.287 66.7149 163.828 73.0377 168.237 80.7267C171.717 86.8251 172.542 90.5761 172.351 92.8905C172.084 95.9991 169.977 96.5051 169.977 96.5051C168.195 97.5589 165.456 96.4259 164.906 94.4503C164.898 94.4292 164.893 94.4067 164.893 94.3843C164.453 92.6925 163.595 90.5189 162.442 88.1407" stroke="black" stroke-miterlimit="10"/>
<path d="M123.871 46.2676C123.871 47.4446 123.317 48.6062 122.111 49.1012C120.756 49.66 120.206 51.1318 120.008 52.564C119.731 54.6612 120.183 56.7897 121.286 58.5942C122.309 60.2926 123.975 62.1648 126.333 62.1648C130.654 62.1648 132.506 60.0814 132.506 60.0814" stroke="black" stroke-miterlimit="10"/>
<path d="M128.357 53.2401C128.763 53.2401 129.092 52.9112 129.092 52.5053C129.092 52.0996 128.763 51.7705 128.357 51.7705C127.951 51.7705 127.622 52.0996 127.622 52.5053C127.622 52.9112 127.951 53.2401 128.357 53.2401Z" fill="black"/>
<path d="M121.894 53.6688C122.3 53.6688 122.629 53.3399 122.629 52.934C122.629 52.5283 122.3 52.1992 121.894 52.1992C121.488 52.1992 121.159 52.5283 121.159 52.934C121.159 53.3399 121.488 53.6688 121.894 53.6688Z" fill="black"/>
<path d="M125.063 51.8135C125.063 51.8135 124.696 54.7153 124.843 55.1135C124.991 55.5117 125.91 55.0563 125.91 55.0563" stroke="black" stroke-miterlimit="10"/>
<path d="M126.426 57.5955C127.999 58.1741 129.622 57.4371 130.098 56.0225" stroke="black" stroke-miterlimit="10"/>
<path d="M132.161 53.567C133.228 52.0565 132.838 49.9463 131.291 48.8531C129.744 47.7601 127.625 48.0985 126.558 49.609C125.491 51.1193 125.88 53.2298 127.427 54.3227C128.974 55.4157 131.094 55.0773 132.161 53.567Z" stroke="black" stroke-miterlimit="10"/>
<path d="M123.568 53.9987C124.635 52.4881 124.246 50.3777 122.699 49.2847C121.151 48.1918 119.032 48.5301 117.965 50.0406C116.898 51.5509 117.287 53.6614 118.834 54.7544C120.381 55.8473 122.501 55.509 123.568 53.9987Z" stroke="black" stroke-miterlimit="10"/>
<path d="M120.706 49.6869C121.317 49.6851 121.906 49.9146 122.355 50.3291C122.803 50.7438 123.079 51.3127 123.126 51.9221C123.15 52.2248 123.113 52.5293 123.017 52.8173C122.921 53.1053 122.768 53.371 122.567 53.5985C122.363 53.8291 122.115 54.0161 121.838 54.1483C121.56 54.2807 121.259 54.3555 120.952 54.3685H120.829C120.217 54.3703 119.628 54.1406 119.179 53.7254C118.73 53.3103 118.455 52.7407 118.409 52.1311C118.385 51.8284 118.422 51.5237 118.519 51.2357C118.615 50.9477 118.768 50.682 118.97 50.4547C119.173 50.2248 119.421 50.0382 119.698 49.9058C119.975 49.7736 120.276 49.6983 120.582 49.6847H120.706V49.6869ZM120.706 49.1875H120.558C120.187 49.204 119.824 49.2951 119.488 49.4548C119.153 49.6147 118.854 49.8402 118.608 50.1181C118.361 50.396 118.174 50.7205 118.055 51.0722C117.937 51.424 117.89 51.796 117.918 52.1663C117.978 52.8998 118.311 53.584 118.851 54.0836C119.391 54.5832 120.099 54.8615 120.835 54.8635H120.983C121.354 54.8468 121.717 54.7559 122.052 54.596C122.387 54.4363 122.687 54.2105 122.933 53.9329C123.179 53.655 123.367 53.3305 123.486 52.9788C123.604 52.627 123.651 52.2547 123.623 51.8847C123.563 51.1512 123.23 50.467 122.69 49.9674C122.15 49.4678 121.441 49.1895 120.706 49.1875Z" fill="white"/>
<path d="M125.966 51.7676L124.162 51.86" stroke="black" stroke-miterlimit="10"/>
<path opacity="0.53" d="M131.731 53.2629C132.635 51.9839 132.306 50.1966 130.996 49.2713C129.686 48.3459 127.891 48.6326 126.988 49.9117C126.084 51.191 126.413 52.978 127.723 53.9036C129.033 54.8289 130.827 54.5422 131.731 53.2629Z" fill="white"/>
<path opacity="0.53" d="M123.138 53.6956C124.042 52.4166 123.713 50.6293 122.403 49.704C121.093 48.7784 119.298 49.0653 118.395 50.3444C117.491 51.6237 117.82 53.4107 119.13 54.3361C120.44 55.2616 122.235 54.9747 123.138 53.6956Z" fill="white"/>
<path d="M127.62 62.165L131.626 71.6822C131.626 71.6822 139.355 73.7612 141.234 66.4484" stroke="black" stroke-miterlimit="10"/>
<path d="M51.6081 111.491C54.6338 110.537 56.2175 107.008 55.1455 103.608C54.0734 100.208 50.7516 98.2249 47.7262 99.1788C44.7005 100.133 43.1168 103.662 44.1888 107.062C45.2607 110.462 48.5824 112.445 51.6081 111.491Z" fill="#9ED5CF"/>
<path d="M126.551 130.767C126.465 123.021 125.099 115.367 124.47 112.243" stroke="black" stroke-miterlimit="10"/>
</svg>
