<svg width="148" height="147" viewBox="0 0 148 147" fill="none" xmlns="http://www.w3.org/2000/svg">
<path d="M69.5037 52.9977C71.0122 52.9977 72.235 51.7749 72.235 50.2664C72.235 48.758 71.0122 47.5352 69.5037 47.5352C67.9954 47.5352 66.7725 48.758 66.7725 50.2664C66.7725 51.7749 67.9954 52.9977 69.5037 52.9977Z" fill="#D7E8F0"/>
<path d="M76.5799 52.7545C78.0883 52.7545 79.3112 51.5316 79.3112 50.0233C79.3112 48.5147 78.0883 47.292 76.5799 47.292C75.0715 47.292 73.8486 48.5147 73.8486 50.0233C73.8486 51.5316 75.0715 52.7545 76.5799 52.7545Z" fill="#D7E8F0"/>
<path d="M23.0354 94.0679C21.7218 92.8721 20.5154 91.5637 19.4295 90.1578C15.9977 85.5641 14.4572 79.8297 15.1254 74.1348C15.8736 67.9813 19.3399 61.5854 24.9876 58.7394C31.0146 55.7039 38.4807 56.3316 43.8374 51.8304C48.3047 48.0658 49.8776 41.9506 53.1469 37.2275C55.9399 33.2041 59.3209 29.5335 63.4207 26.814C74.506 19.464 88.1167 21.3132 99.8341 26.1422C105.582 28.5133 109.949 31.5488 113.251 34.9269" stroke="#CCDDE2" stroke-miterlimit="10"/>
<path d="M117.295 39.9736C126.688 54.4869 121.389 72.0196 121.389 72.0196" stroke="#CCDDE2" stroke-miterlimit="10"/>
<path d="M35.4963 108.918C39.8431 124.225 34.1895 130.696 34.1895 130.696" stroke="#CCDDE2" stroke-miterlimit="10"/>
<path d="M105.855 65.7533C105.369 63.9772 104.445 62.3517 103.168 61.0258C100.669 58.3695 96.9747 56.8113 93.3188 56.9245C90.7389 57.0068 87.3859 57.6036 85.2764 55.7146C84.1725 54.7327 83.9387 53.1348 83.5124 51.8045C83.0423 50.3023 82.6498 48.7768 82.3364 47.2342C82.0573 45.7669 81.5272 44.3585 80.7694 43.0712C79.9512 41.6776 78.7931 40.5144 77.4031 39.6902C74.7924 38.182 71.1483 38.0423 68.5243 39.5888C68.1508 39.8125 67.7968 40.0672 67.4659 40.3502C67.3884 40.414 67.3143 40.4816 67.2439 40.5531C64.9684 42.6508 63.8718 46.0421 63.9291 49.0717C63.9291 49.0717 63.9291 49.2614 63.9291 49.5906C63.9291 49.7685 63.9291 49.9273 63.9291 50.0669C63.9364 50.3389 63.9423 50.6681 63.9364 51.0298C64.057 52.8099 64.3422 60.4789 61.0391 64.5861C62.6428 64.0863 64.2731 63.6365 65.9136 63.2631C65.9178 63.2646 65.9225 63.2646 65.9268 63.2631C66.0973 63.1675 67.7334 62.3002 68.8301 62.6751C69.0381 62.7452 69.2258 62.865 69.3769 63.0241C69.528 63.1831 69.638 63.3767 69.6974 63.588C69.6974 63.5997 69.6974 63.6071 69.7106 63.613C69.7238 63.6644 69.7429 63.7203 69.7547 63.7776C69.7666 63.8313 69.7815 63.8843 69.7988 63.9364C69.9367 64.3594 70.1263 64.7638 70.3633 65.1403C70.3952 65.1994 70.4337 65.2545 70.4779 65.3049C70.7105 65.611 70.9835 65.884 71.2894 66.1164C71.1747 66.0032 71.0542 65.8753 70.9278 65.7489C70.5054 65.3295 70.1842 64.8192 69.9886 64.2571C69.7929 63.695 69.7281 63.0957 69.7988 62.5046C69.7988 62.5046 70.0722 62.8339 70.6293 62.5163C71.1865 62.1988 70.3442 59.4558 70.1354 58.637C70.059 58.3327 70.5088 58.3709 71.2071 58.5429C70.698 58.1959 70.2339 57.7869 69.8253 57.3258C69.5407 57.0112 69.2821 56.6738 69.052 56.3174C68.0495 54.7591 67.6702 53.5611 67.4674 52.0779C66.9987 51.5551 66.7519 50.8704 66.7793 50.1688C66.8068 49.4671 67.1063 48.8037 67.6144 48.3191C67.6253 48.3029 67.638 48.2881 67.6526 48.275C67.9686 47.8693 68.6154 47.7164 69.0344 47.4194C69.4817 47.0831 69.8779 46.6834 70.2104 46.2331C70.597 45.726 71.2394 44.9792 71.1806 44.2942C71.3511 46.1508 72.9608 47.3812 74.7424 47.4312C75.1721 47.4302 75.6013 47.4071 76.0287 47.3621C76.0287 47.3621 76.0287 47.3621 76.0419 47.3621C76.2231 47.3236 76.4079 47.3043 76.5931 47.3048C77.031 47.3039 77.4626 47.409 77.8512 47.611C78.2397 47.813 78.5737 48.1058 78.8246 48.4646C78.85 48.4968 78.8731 48.5308 78.8937 48.566C78.926 48.616 78.9569 48.6734 78.9892 48.7307C79.0942 48.8897 79.1814 49.0598 79.2494 49.2378C79.6551 50.2771 79.6228 51.4428 79.5596 52.5395C79.464 54.1565 79.0907 55.8543 78.191 57.2361C78.2319 57.1996 78.28 57.1723 78.3321 57.1558C78.3843 57.1394 78.4395 57.1342 78.4938 57.1406C79.1921 57.2611 78.6982 61.774 79.4699 62.0092C80.2417 62.2444 80.2049 62.8456 80.2049 62.8456C80.2049 62.9529 80.1932 63.0544 80.1799 63.1558C80.2503 62.7843 80.2761 62.4058 80.2564 62.0283C80.4842 62.0401 80.7121 62.0651 80.9399 62.0974C82.2335 61.6564 84.7619 63.0411 84.7619 63.0411C84.7653 63.0452 84.77 63.0479 84.7752 63.0485C90.8463 65.3872 94.9858 71.2496 96.3882 77.7896C96.8985 80.1433 97.1642 82.5433 97.1805 84.9515V72.9122C97.1803 72.7624 97.2097 72.6139 97.2669 72.4754C97.3243 72.337 97.4082 72.2111 97.5142 72.1051C97.6202 71.9992 97.746 71.9152 97.8845 71.8579C98.0229 71.8007 98.1714 71.7713 98.3212 71.7715H106.136C106.006 69.734 106.387 67.751 105.855 65.7533ZM74.4499 67.529C74.6586 67.5849 74.8747 67.6364 75.0908 67.676C75.229 67.676 75.3686 67.6628 75.5083 67.651C76.5582 67.5357 77.5485 67.1047 78.3483 66.4148C77.5677 66.966 76.5843 67.3085 75.4392 67.4438C75.0643 67.4908 74.7351 67.5158 74.4499 67.529ZM77.5501 58.0343C76.8026 58.8024 75.8192 59.2978 74.7571 59.4411C74.9564 59.4748 75.1578 59.4939 75.3598 59.4984C76.4153 59.5175 77.0621 58.712 77.5501 58.0343Z" fill="#9ED5CF"/>
<path d="M93.9275 98.9971C93.5468 100.01 93.2866 100.582 93.2866 100.582C93.388 105.399 90.4407 116.424 90.4407 116.424C86.5055 116.772 83.0187 116.697 79.9258 116.311C87.805 110.397 91.6902 103.979 93.9275 98.9971Z" fill="#2E2E2E"/>
<path d="M96.8098 85.8199C87.024 82.1449 81.0278 87.4795 81.0278 87.4795C81.0161 101.843 68.7137 109.797 65.975 111.38C59.0043 106.704 57.083 100.582 57.083 100.582L57.7107 99.8466C58.1517 98.6177 59.2821 94.7957 59.6511 91.1133C59.9995 87.6339 59.6055 84.2749 59.5805 83.3297C59.5232 81.3849 58.6427 81.8288 57.6093 82.2022C56.5759 82.5756 51.791 82.6902 51.791 82.6902C57.0948 79.7032 54.3459 67.0318 54.3459 67.0318L65.906 63.273C65.906 63.273 69.1767 61.4296 69.7471 63.7802C70.3174 66.1307 72.593 67.1612 75.0832 67.6904C77.5733 68.2196 79.8754 65.3516 80.1855 63.0319C80.4957 60.7123 84.7425 63.0319 84.7425 63.0319C95.2075 68.2387 97.311 77.7011 96.8098 85.8199Z" fill="#2E2E2E"/>
<path d="M18.0137 132.39C18.0137 132.39 27.016 131.403 28.5698 132.39C28.5698 132.39 28.855 134.433 27.4805 136.967C26.1061 139.501 24.4171 137.759 15.3339 138.342C15.3339 138.342 7.9501 138.93 7.86484 136.231C7.77958 133.532 11.2208 133.155 13.2245 133.133C15.2281 133.111 18.0137 132.39 18.0137 132.39Z" fill="#9ED5CF"/>
<path d="M51.9501 129.78H51.8486" stroke="black" stroke-miterlimit="10"/>
<path d="M47.5078 72.0088C50.7212 70.627 53.0277 67.1152 55.0048 64.3898C56.3278 62.5773 57.9448 60.2268 59.2678 58.426C60.5614 56.6767 63.1413 53.575 63.8322 51.517C63.863 51.4288 63.888 51.3406 63.9145 51.2568" stroke="black" stroke-miterlimit="10"/>
<path d="M59.3145 81.8911C55.6322 82.651 39.3123 85.3264 37.4351 73.4224C35.3124 59.9925 56.8552 54.8842 58.6236 50.8211C60.3921 46.7581 58.5648 42.3363 63.2189 40.2783C65.2769 39.3654 66.7233 39.5565 67.2187 40.5576" stroke="black" stroke-miterlimit="10"/>
<path d="M28.5771 133.265C30.3191 125.014 34.344 108.275 39.8138 100.162" stroke="black" stroke-miterlimit="10"/>
<path d="M58.6756 79.5518C60.1824 84.1529 60.9468 91.4147 57.1895 101.29" stroke="black" stroke-miterlimit="10"/>
<path d="M30.2812 140.769H25.0965C24.3019 140.762 23.542 140.444 22.98 139.882C22.418 139.321 22.099 138.561 22.0918 137.766C22.0928 137.628 22.1037 137.49 22.1241 137.353C22.224 137.111 22.296 136.858 22.3388 136.599C22.4284 136.105 22.4475 135.812 23.3339 135.351C23.8995 135.063 24.4817 134.809 25.0774 134.589C25.1906 134.551 25.3052 134.501 25.4316 134.457C25.9079 134.279 26.5474 134.038 27.3015 133.753C27.4926 133.684 27.6881 133.606 27.8895 133.531C28.0909 133.456 28.3393 133.361 28.5745 133.271C32.0481 131.979 36.9785 130.14 40.211 128.93H40.2301C40.3909 128.899 40.5544 128.884 40.7182 128.886C41.4658 128.886 42.1827 129.183 42.7113 129.712C43.2401 130.241 43.5372 130.958 43.5376 131.705C43.5376 131.705 23.9425 137.284 30.2812 140.769Z" fill="#9ED5CF"/>
<path d="M38.1318 102.991C40.4515 109.106 41.9538 116.715 48.8055 126.013" stroke="black" stroke-miterlimit="10"/>
<path d="M80.8958 84.9072C81.9542 95.1561 76.6564 106.108 62.8766 113.086C58.5298 115.291 54.4726 118.231 51.4356 122.073C50.5958 123.146 49.8306 124.276 49.1453 125.454C48.6249 126.336 47.4269 127.953 47.9899 129.028C48.2839 129.591 48.769 129.789 49.3732 129.789C51.0225 129.789 52.6968 125.607 53.9904 123.742" stroke="black" stroke-miterlimit="10"/>
<path d="M56.9786 124.885C56.9786 124.885 54.0078 129.727 51.9498 129.783C49.8918 129.839 51.3471 128.192 51.3471 128.192" stroke="black" stroke-miterlimit="10"/>
<path d="M71.0781 62.3174C64.5631 63.192 58.0598 65.3279 52.2871 67.9151" stroke="black" stroke-miterlimit="10"/>
<path d="M59.0927 126.504C59.0804 126.525 59.0657 126.544 59.0486 126.561C58.8016 126.896 58.5356 127.252 58.243 127.59C57.5463 128.434 56.7422 129.226 55.7205 129.562C54.9032 129.835 53.2436 129.626 54.1873 128.465" stroke="black" stroke-miterlimit="10"/>
<path d="M54.0419 128.678C54.0095 128.678 53.9713 128.697 53.9404 128.703" stroke="black" stroke-miterlimit="10"/>
<path d="M79.0832 125.401C75.7874 125.413 72.6945 125.578 69.8222 125.842C67.1909 126.083 65.8532 126.236 63.5879 126.623" stroke="black" stroke-miterlimit="10"/>
<path d="M58.271 127.631C58.1811 127.644 58.0922 127.663 58.0049 127.688" stroke="black" stroke-miterlimit="10"/>
<path d="M51.018 129.583C48.7279 130.302 46.488 131.172 44.3133 132.188C44.2404 132.225 44.1598 132.244 44.0781 132.245C43.9345 132.244 43.7972 132.186 43.6963 132.083C43.5955 131.981 43.5394 131.843 43.5401 131.699C43.5394 130.952 43.2418 130.235 42.7129 129.706C42.184 129.178 41.4669 128.88 40.7192 128.88C40.5554 128.878 40.3919 128.893 40.2311 128.924H40.212C40.045 128.957 39.8815 129.007 39.724 129.071L28.577 133.265C28.3418 133.355 28.1139 133.443 27.8919 133.525C27.67 133.608 27.4936 133.672 27.3039 133.747C26.5498 134.032 25.9104 134.274 25.4341 134.451C25.3077 134.496 25.193 134.545 25.0798 134.584L24.314 134.869C23.9589 134.963 23.6254 135.124 23.332 135.345C22.8879 135.658 22.5426 136.091 22.3368 136.593C22.2261 136.832 22.1536 137.086 22.1222 137.347C22.1018 137.484 22.0909 137.622 22.0898 137.76C22.0972 138.555 22.416 139.315 22.978 139.876C23.54 140.438 24.3 140.757 25.0945 140.764H95.5075C97.0875 140.76 98.6261 140.26 99.9064 139.334C101.187 138.408 102.144 137.104 102.642 135.605C103.141 134.105 103.156 132.488 102.685 130.979C102.215 129.471 101.282 128.149 100.019 127.2L92.3955 121.249C91.0637 120.209 89.9039 118.015 90.436 116.419C92.1352 111.302 93.095 105.969 93.2864 100.581" stroke="black" stroke-miterlimit="10"/>
<path d="M22.1096 138.089H9.95416C9.67819 138.09 9.40479 138.036 9.1496 137.931C8.89442 137.826 8.66247 137.672 8.46706 137.477C8.27165 137.282 8.11661 137.05 8.01083 136.795C7.90503 136.541 7.85059 136.267 7.85059 135.991C7.85059 134.962 8.90899 133.817 9.92329 133.639L18.7286 132.278C18.1582 110.297 22.1096 92.9189 26.5754 85.2308C27.9278 82.8994 30.0932 81.2618 32.5466 80.3578C38.0591 78.3365 44.2346 80.6812 47.3495 85.6571L51.1803 91.7782L55.999 99.4751C56.0401 99.5383 56.0828 99.6016 56.1269 99.6618L58.0952 102.299" stroke="black" stroke-miterlimit="10"/>
<path d="M61.0449 64.5812C64.4039 62.0822 63.9041 49.0786 63.9041 49.0786C63.8467 45.9533 65.0125 42.4415 67.4409 40.357C67.7718 40.0739 68.1258 39.8193 68.4993 39.5956C71.1232 38.0491 74.7674 38.1888 77.3781 39.697C78.7681 40.5212 79.9262 41.6845 80.7444 43.078C81.5045 44.3631 82.0381 45.7693 82.3217 47.2352C82.6344 48.7779 83.027 50.3034 83.4977 51.8054C83.9167 53.1284 84.1504 54.7336 85.2529 55.7156C87.3638 57.6046 90.7169 57.0077 93.2967 56.9254C96.9497 56.8093 100.636 58.3734 103.146 61.0267C104.421 62.354 105.344 63.9785 105.833 65.7528C106.362 67.7534 105.98 69.7379 106.117 71.7695" stroke="black" stroke-miterlimit="10"/>
<path d="M71.6965 65.0064L70.9057 61.5813L69.8164 57.3213" stroke="black" stroke-miterlimit="10"/>
<path d="M73.8503 56.7524C74.4267 56.7524 74.894 56.2851 74.894 55.7087C74.894 55.1324 74.4267 54.665 73.8503 54.665C73.274 54.665 72.8066 55.1324 72.8066 55.7087C72.8066 56.2851 73.274 56.7524 73.8503 56.7524Z" stroke="black" stroke-miterlimit="10"/>
<path d="M121.784 102.702C121.785 103.114 121.705 103.522 121.548 103.902C121.391 104.283 121.161 104.629 120.87 104.92C120.579 105.212 120.234 105.443 119.854 105.601C119.473 105.758 119.066 105.839 118.654 105.839C118.275 105.841 117.898 105.772 117.544 105.636C117.107 105.198 116.81 104.64 116.69 104.033C116.57 103.425 116.633 102.796 116.87 102.224C117.108 101.653 117.509 101.164 118.024 100.82C118.538 100.477 119.143 100.293 119.762 100.293C120.139 100.292 120.513 100.361 120.865 100.496C121.156 100.785 121.387 101.128 121.545 101.507C121.703 101.886 121.784 102.292 121.784 102.702Z" fill="#D7E8F0"/>
<path d="M121.784 82.6877C121.784 83.0989 121.703 83.5061 121.546 83.8861C121.389 84.2659 121.159 84.6112 120.868 84.902C120.577 85.1929 120.232 85.4235 119.852 85.5808C119.472 85.7381 119.065 85.819 118.654 85.8188C118.343 85.8572 118.028 85.817 117.736 85.7022C117.445 85.5876 117.187 85.4016 116.985 85.1614C116.784 84.9214 116.646 84.6347 116.584 84.3276C116.522 84.0207 116.538 83.7029 116.63 83.4036C116.63 82.9923 116.711 82.5851 116.868 82.2051C117.025 81.8251 117.256 81.4798 117.547 81.1891C117.837 80.8983 118.183 80.6676 118.563 80.5104C118.943 80.3531 119.35 80.2722 119.761 80.2725C120.143 80.2706 120.521 80.3414 120.877 80.4812C121.459 81.0678 121.785 81.8611 121.784 82.6877Z" fill="#D7E8F0"/>
<path d="M121.784 123.807C121.785 124.218 121.704 124.626 121.547 125.006C121.39 125.386 121.159 125.731 120.869 126.022C120.578 126.313 120.233 126.543 119.853 126.7C119.473 126.858 119.066 126.939 118.655 126.938C118.275 126.941 117.899 126.872 117.545 126.736C117.108 126.297 116.812 125.739 116.692 125.132C116.572 124.525 116.635 123.896 116.872 123.325C117.11 122.753 117.511 122.265 118.025 121.921C118.54 121.578 119.144 121.394 119.763 121.394C120.14 121.392 120.514 121.461 120.865 121.596C121.158 121.886 121.389 122.23 121.547 122.61C121.705 122.989 121.785 123.396 121.784 123.807Z" fill="#D7E8F0"/>
<path d="M121.784 102.702C121.785 103.114 121.705 103.522 121.548 103.902C121.391 104.283 121.161 104.629 120.87 104.92C120.579 105.212 120.234 105.443 119.854 105.601C119.473 105.758 119.066 105.839 118.654 105.839C118.275 105.841 117.898 105.772 117.544 105.636C117.107 105.198 116.81 104.64 116.69 104.033C116.57 103.425 116.633 102.796 116.87 102.224C117.108 101.653 117.509 101.164 118.024 100.82C118.538 100.477 119.143 100.293 119.762 100.293C120.139 100.292 120.513 100.361 120.865 100.496C121.156 100.785 121.387 101.128 121.545 101.507C121.703 101.886 121.784 102.292 121.784 102.702Z" fill="#D7E8F0"/>
<path d="M121.784 82.6877C121.784 83.0989 121.703 83.5061 121.546 83.8861C121.389 84.2659 121.159 84.6112 120.868 84.902C120.577 85.1929 120.232 85.4235 119.852 85.5808C119.472 85.7381 119.065 85.819 118.654 85.8188C118.343 85.8572 118.028 85.817 117.736 85.7022C117.445 85.5876 117.187 85.4016 116.985 85.1614C116.784 84.9214 116.646 84.6347 116.584 84.3276C116.522 84.0207 116.538 83.7029 116.63 83.4036C116.63 82.9923 116.711 82.5851 116.868 82.2051C117.025 81.8251 117.256 81.4798 117.547 81.1891C117.837 80.8983 118.183 80.6676 118.563 80.5104C118.943 80.3531 119.35 80.2722 119.761 80.2725C120.143 80.2706 120.521 80.3414 120.877 80.4812C121.459 81.0678 121.785 81.8611 121.784 82.6877Z" fill="#D7E8F0"/>
<path d="M121.784 123.807C121.785 124.218 121.704 124.626 121.547 125.006C121.39 125.386 121.159 125.731 120.869 126.022C120.578 126.313 120.233 126.543 119.853 126.7C119.473 126.858 119.066 126.939 118.655 126.938C118.275 126.941 117.899 126.872 117.545 126.736C117.108 126.297 116.812 125.739 116.692 125.132C116.572 124.525 116.635 123.896 116.872 123.325C117.11 122.753 117.511 122.265 118.025 121.921C118.54 121.578 119.144 121.394 119.763 121.394C120.14 121.392 120.514 121.461 120.865 121.596C121.158 121.886 121.389 122.23 121.547 122.61C121.705 122.989 121.785 123.396 121.784 123.807Z" fill="#D7E8F0"/>
<path d="M69.5037 52.9977C71.0122 52.9977 72.235 51.7749 72.235 50.2664C72.235 48.758 71.0122 47.5352 69.5037 47.5352C67.9954 47.5352 66.7725 48.758 66.7725 50.2664C66.7725 51.7749 67.9954 52.9977 69.5037 52.9977Z" stroke="black" stroke-miterlimit="10"/>
<path d="M76.5799 52.7545C78.0883 52.7545 79.3112 51.5316 79.3112 50.0233C79.3112 48.5147 78.0883 47.292 76.5799 47.292C75.0715 47.292 73.8486 48.5147 73.8486 50.0233C73.8486 51.5316 75.0715 52.7545 76.5799 52.7545Z" stroke="black" stroke-miterlimit="10"/>
<path d="M68.3613 49.9082C68.3613 49.9082 69.4624 51.1709 70.5943 49.9082" stroke="black" stroke-miterlimit="10"/>
<path d="M75.4697 49.9082C75.4697 49.9082 76.5693 51.1709 77.7027 49.9082" stroke="black" stroke-miterlimit="10"/>
<path d="M72.2363 50.2742C72.2363 50.2742 72.8567 49.2673 73.8533 50.0317" stroke="black" stroke-miterlimit="10"/>
<path d="M67.459 52.0703C67.6618 53.5535 68.047 54.7574 69.0436 56.3156C70.0903 57.9326 71.9719 59.485 73.9505 59.4982C74.7912 59.5142 75.6219 59.3134 76.3623 58.9152C77.1029 58.5168 77.7283 57.9344 78.1782 57.2241C79.0779 55.8438 79.4542 54.1503 79.5497 52.5201C79.6129 51.4249 79.6394 50.2592 79.2396 49.2185C78.7986 48.0807 77.7696 47.3075 76.5406 47.3222C75.9365 47.331 75.3367 47.4427 74.7325 47.4236C72.948 47.3692 71.3398 46.1432 71.1678 44.2852C71.231 44.9658 70.5798 45.714 70.202 46.2256C69.8677 46.6713 69.4717 47.0673 69.026 47.4016C68.5997 47.7147 67.9132 47.8646 67.6089 48.3012" stroke="black" stroke-miterlimit="10"/>
<path d="M103.028 133.64H139.004C139.307 133.64 139.598 133.521 139.813 133.307C140.028 133.093 140.149 132.802 140.15 132.499V72.9112C140.15 72.761 140.121 72.6122 140.063 72.4735C140.005 72.3346 139.921 72.2086 139.814 72.1026C139.708 71.9966 139.581 71.9127 139.442 71.8558C139.303 71.7987 139.154 71.7698 139.004 71.7705H98.3009C98.1511 71.7704 98.0026 71.7998 97.8641 71.857C97.7257 71.9143 97.5998 71.9982 97.4938 72.1042C97.3879 72.2102 97.3039 72.336 97.2466 72.4745C97.1894 72.613 97.16 72.7614 97.1602 72.9112V124.962" stroke="black" stroke-miterlimit="10"/>
<path d="M140.147 92.2705H97.1611V113.136H140.147V92.2705Z" stroke="black" stroke-miterlimit="10"/>
<path d="M80.2093 61.5928C80.5474 64.6151 78.4321 67.3258 75.4862 67.6595C72.5403 67.9932 69.884 65.8029 69.54 62.7805" stroke="black" stroke-miterlimit="10"/>
<path d="M78.7037 56.2578L79.3123 61.9497C79.6063 61.9629 79.9003 61.982 80.1943 62.007C88.7438 62.6788 94.6253 69.7142 96.3643 77.7757C96.8748 80.1297 97.1403 82.5302 97.1566 84.939C97.1727 88.0164 96.7519 91.0805 95.9071 94.0398C95.0672 96.9279 93.8707 99.7001 92.3453 102.292C90.7909 104.925 88.9742 107.394 86.9225 109.661C84.8104 111.988 82.5173 114.143 80.0649 116.107C78.0687 117.71 75.971 119.168 73.8542 120.601C71.9594 121.88 69.8852 122.85 67.9095 123.982C65.8515 125.158 63.8464 126.416 61.9002 127.76C60.8609 128.482 59.5805 129.154 58.3516 128.457C58.0091 128.267 58.0576 127.936 58.2428 127.594C58.4589 127.196 58.8646 126.784 59.0484 126.565" stroke="black" stroke-miterlimit="10"/>
<path d="M118.654 105.835C120.384 105.835 121.787 104.433 121.787 102.703C121.787 100.973 120.384 99.5703 118.654 99.5703C116.924 99.5703 115.521 100.973 115.521 102.703C115.521 104.433 116.924 105.835 118.654 105.835Z" stroke="black" stroke-miterlimit="10"/>
<path d="M118.654 85.8169C120.384 85.8169 121.787 84.4144 121.787 82.6843C121.787 80.9543 120.384 79.5518 118.654 79.5518C116.924 79.5518 115.521 80.9543 115.521 82.6843C115.521 84.4144 116.924 85.8169 118.654 85.8169Z" stroke="black" stroke-miterlimit="10"/>
<path d="M118.654 126.94C120.384 126.94 121.787 125.537 121.787 123.807C121.787 122.077 120.384 120.675 118.654 120.675C116.924 120.675 115.521 122.077 115.521 123.807C115.521 125.537 116.924 126.94 118.654 126.94Z" stroke="black" stroke-miterlimit="10"/>
<path d="M96.0122 93.653C95.4933 95.098 94.8524 96.9237 93.9277 98.9964C94.8391 96.543 96.4694 91.5112 96.8104 85.8193C96.8104 85.8193 97.8953 88.4742 96.0122 93.653Z" fill="black"/>
<path d="M128.831 40.1516L119.276 41.5819L120.94 42.7579L124.052 45.2495C124.54 45.5921 124.418 46.402 124.689 46.893C124.791 47.6343 124.674 48.389 124.352 49.0646C124.031 49.7403 123.519 50.3072 122.88 50.6959C122.24 51.0846 121.501 51.278 120.754 51.2524C120.006 51.2269 119.282 50.9833 118.671 50.5518L111.162 45.2672C110.333 44.6949 109.668 43.9161 109.232 43.0078C108.617 39.9487 110.503 36.5486 114.126 36.0077L124.563 34.4421L123.034 33.2514L118.293 29.5617C117.887 29.248 117.548 28.8555 117.296 28.4078C117.191 27.6507 117.315 26.8797 117.651 26.1931C117.986 25.5066 118.52 24.9359 119.182 24.5542C119.844 24.1725 120.605 23.997 121.367 24.0504C122.13 24.1036 122.859 24.3832 123.461 24.8533L131.918 31.433C132.61 31.9646 133.169 32.6489 133.552 33.4322C134.123 36.381 132.284 39.6341 128.831 40.1516Z" fill="#9ED5CF"/>
<path d="M128.831 40.1515L119.276 41.5817L120.94 42.7577L123.098 44.266C123.515 44.5543 123.871 44.9224 124.146 45.349C124.42 45.7756 124.607 46.2523 124.696 46.7515C124.785 47.2509 124.774 47.7627 124.664 48.2578C124.555 48.7531 124.348 49.2214 124.056 49.6362C123.764 50.0511 123.393 50.4039 122.964 50.6745C122.535 50.9451 122.057 51.1281 121.557 51.213C121.057 51.2979 120.545 51.2828 120.051 51.1689C119.557 51.0548 119.09 50.844 118.678 50.5487L111.162 45.267C110.333 44.6947 109.667 43.9159 109.232 43.0077C107.634 39.6899 109.502 35.2799 113.674 34.6537L121.954 33.413L123.033 33.2512L118.293 29.5616C117.886 29.2548 117.545 28.8703 117.288 28.4305C117.032 27.9906 116.865 27.5041 116.798 26.9993C116.732 26.4945 116.766 25.9814 116.899 25.4899C117.033 24.9985 117.262 24.5383 117.575 24.1366C117.888 23.7347 118.277 23.3989 118.721 23.1489C119.164 22.899 119.653 22.7397 120.159 22.6804C120.665 22.6212 121.177 22.6629 121.667 22.8036C122.156 22.9441 122.613 23.1807 123.01 23.4993L131.467 30.0805C132.549 30.9045 133.291 32.0972 133.551 33.432C134.123 36.3808 132.284 39.6341 128.831 40.1515Z" stroke="black" stroke-miterlimit="10"/>
<path d="M98.7106 51.8913L98.5856 48.4633L97.0642 50.0244C96.9366 50.1554 96.7844 50.2599 96.6164 50.3319C96.4484 50.404 96.2677 50.4422 96.0849 50.4444C95.9022 50.4466 95.7206 50.4128 95.551 50.3447C95.3812 50.2767 95.2265 50.1758 95.0959 50.0479C94.9649 49.9203 94.8604 49.7682 94.7883 49.6002C94.7163 49.4321 94.6781 49.2515 94.6759 49.0688C94.6737 48.8859 94.7076 48.7045 94.7757 48.5347C94.8436 48.3649 94.9444 48.2104 95.0723 48.0796L97.786 45.2998C98.0673 45.0122 98.4267 44.8133 98.82 44.7277C99.2132 44.6422 99.6229 44.6738 99.9983 44.8187C100.374 44.9635 100.698 45.2153 100.932 45.5427C101.166 45.8702 101.299 46.259 101.314 46.661L101.442 50.1582L102.563 48.8925C102.685 48.7558 102.832 48.6442 102.996 48.5643C103.161 48.4843 103.339 48.4375 103.522 48.4267C103.704 48.4158 103.887 48.4409 104.06 48.5006C104.233 48.5604 104.392 48.6536 104.529 48.7749C104.666 48.8962 104.777 49.0432 104.858 49.2075C104.938 49.372 104.984 49.5505 104.996 49.7331C105.007 49.9155 104.982 50.0984 104.922 50.2712C104.862 50.4441 104.769 50.6034 104.648 50.7403L102.443 53.2305C102.161 53.5534 101.789 53.7839 101.375 53.8918C100.96 53.9997 100.523 53.9802 100.119 53.8355C99.7162 53.6907 99.3661 53.4279 99.1148 53.081C98.8635 52.7342 98.7225 52.3195 98.7106 51.8913Z" fill="#D7E8F0"/>
<path d="M86.4021 50.1511L88.0191 49.7895L87.1371 49.2015C86.9891 49.1017 86.8865 48.9473 86.8518 48.7722C86.8171 48.597 86.8531 48.4153 86.9519 48.2665C87.0514 48.1182 87.2057 48.0153 87.3811 47.9806C87.5563 47.9459 87.7382 47.9821 87.8868 48.0813L89.4494 49.128C89.6108 49.2363 89.7369 49.3895 89.812 49.5687C89.8872 49.7479 89.9082 49.9453 89.8723 50.1362C89.8366 50.3273 89.7455 50.5036 89.6105 50.6434C89.4754 50.7832 89.3024 50.8804 89.1128 50.9228L87.459 51.2918L88.1602 51.7137C88.3134 51.8062 88.4236 51.9555 88.4669 52.1291C88.5102 52.3026 88.4829 52.4863 88.391 52.6398C88.2985 52.793 88.149 52.9032 87.9754 52.9461C87.8018 52.9892 87.6181 52.9614 87.4649 52.8691L86.0963 52.0371C85.9201 51.9311 85.7797 51.7749 85.6932 51.5883C85.6067 51.4018 85.578 51.1936 85.6109 50.9906C85.6439 50.7876 85.7368 50.5991 85.8777 50.4495C86.0189 50.2999 86.2014 50.1959 86.4021 50.1511Z" fill="#D7E8F0"/>
<path d="M5.51139 144.542L4.77051 146.579" stroke="#CCDDE2" stroke-miterlimit="10"/>
</svg>
