<svg width="300" height="183" viewBox="0 0 300 183" fill="none" xmlns="http://www.w3.org/2000/svg">
<g clip-path="url(#clip0_4974_271710)">
<path d="M63.8183 84.0063C63.8183 84.0063 62.0468 84.758 61.6494 89.1156" stroke="#CCDDE2" stroke-width="1.51987" stroke-miterlimit="10"/>
<path d="M177.775 93.1723C178.989 93.1723 179.974 92.1878 179.974 90.9736C179.974 89.759 178.989 88.7749 177.775 88.7749C176.561 88.7749 175.576 89.759 175.576 90.9736C175.576 92.1878 176.561 93.1723 177.775 93.1723Z" fill="#D7E8F0"/>
<path d="M176.845 84.3843C178.875 87.3015 177.775 90.9737 177.775 90.9737C177.775 90.9737 180.901 89.4571 183.692 91.6127" stroke="#CCDDE2" stroke-width="1.01325" stroke-miterlimit="10"/>
<path d="M177.775 98.2051C177.775 98.2051 180.755 92.3309 177.775 90.9733C177.225 90.7216 172.788 88.6951 169.871 91.6123" stroke="#CCDDE2" stroke-width="1.01325" stroke-miterlimit="10"/>
<path d="M215.348 93.5785C216.562 93.5785 217.547 92.5941 217.547 91.3798C217.547 90.1656 216.562 89.1812 215.348 89.1812C214.134 89.1812 213.149 90.1656 213.149 91.3798C213.149 92.5941 214.134 93.5785 215.348 93.5785Z" fill="#D7E8F0"/>
<path d="M209.871 87.6028C213.391 88.0796 215.348 91.3909 215.348 91.3909C215.348 91.3909 216.341 88.063 219.825 87.4736" stroke="#CCDDE2" stroke-width="1.01325" stroke-miterlimit="10"/>
<path d="M210.457 97.626C210.358 95.0995 212.01 93.4141 213.438 92.4406C214.036 92.0204 214.679 91.6674 215.355 91.3876C215.709 91.2396 216.095 91.1866 216.476 91.2343C216.856 91.282 217.217 91.4283 217.524 91.6591C217.894 91.9098 218.229 92.2108 218.517 92.5532" stroke="#CCDDE2" stroke-width="1.01325" stroke-miterlimit="10"/>
<path d="M152.431 131.98C152.164 130.981 152.031 129.951 152.033 128.917V36.6356C152.043 33.4101 153.328 30.3197 155.609 28.0392C157.89 25.7584 160.98 24.473 164.205 24.4634H196.623C227.59 24.4634 252.914 49.8011 252.914 80.7548V104.338" stroke="#CCDDE2" stroke-width="1.51987" stroke-miterlimit="10"/>
<path d="M177.775 59.1156C178.989 59.1156 179.974 58.1312 179.974 56.9169C179.974 55.7027 178.989 54.7183 177.775 54.7183C176.561 54.7183 175.576 55.7027 175.576 56.9169C175.576 58.1312 176.561 59.1156 177.775 59.1156Z" fill="#D7E8F0"/>
<path d="M176.845 50.3311C178.875 53.2483 177.775 56.9205 177.775 56.9205C177.775 56.9205 180.901 55.4039 183.692 57.5562" stroke="#CCDDE2" stroke-width="1.01325" stroke-miterlimit="10"/>
<path d="M177.775 64.1491C177.775 64.1491 180.755 58.2749 177.775 56.9173C177.225 56.6657 172.788 54.6392 169.871 57.5531" stroke="#CCDDE2" stroke-width="1.01325" stroke-miterlimit="10"/>
<path d="M215.348 59.5228C216.562 59.5228 217.547 58.5387 217.547 57.3242C217.547 56.1099 216.562 55.1255 215.348 55.1255C214.134 55.1255 213.149 56.1099 213.149 57.3242C213.149 58.5387 214.134 59.5228 215.348 59.5228Z" fill="#D7E8F0"/>
<path d="M209.871 53.5458C213.391 54.0292 215.348 57.324 215.348 57.324C215.348 57.324 216.341 54.0127 219.825 53.4067" stroke="#CCDDE2" stroke-width="1.01325" stroke-miterlimit="10"/>
<path d="M220.665 62.2253C220.665 62.2253 218.364 56.0564 215.348 57.3246C214.791 57.5597 210.291 59.4505 210.46 63.5697" stroke="#CCDDE2" stroke-width="1.01325" stroke-miterlimit="10"/>
<path d="M122.12 93.1723C123.334 93.1723 124.318 92.1878 124.318 90.9736C124.318 89.759 123.334 88.7749 122.12 88.7749C120.905 88.7749 119.921 89.759 119.921 90.9736C119.921 92.1878 120.905 93.1723 122.12 93.1723Z" fill="#D7E8F0"/>
<path d="M123.053 84.3833C121.023 87.3005 122.119 90.9727 122.119 90.9727C122.119 90.9727 118.993 89.4561 116.205 91.6118" stroke="#CCDDE2" stroke-width="1.01325" stroke-miterlimit="10"/>
<path d="M122.119 98.2051C122.119 98.2051 119.139 92.3309 122.119 90.9733C122.672 90.7216 127.109 88.6951 130.027 91.6123" stroke="#CCDDE2" stroke-width="1.01325" stroke-miterlimit="10"/>
<path d="M46.8911 77.7849C48.1991 47.9637 73.1328 24.4736 103.269 24.4736H133.504C136.729 24.4832 139.819 25.7687 142.1 28.0495C144.381 30.3303 145.666 33.4207 145.676 36.6458V128.917C145.679 129.951 145.545 130.981 145.279 131.98" stroke="#CCDDE2" stroke-width="1.51987" stroke-miterlimit="10"/>
<path d="M122.12 59.1156C123.334 59.1156 124.318 58.1312 124.318 56.9169C124.318 55.7027 123.334 54.7183 122.12 54.7183C120.905 54.7183 119.921 55.7027 119.921 56.9169C119.921 58.1312 120.905 59.1156 122.12 59.1156Z" fill="#D7E8F0"/>
<path d="M123.053 50.3311C121.023 53.2483 122.119 56.9205 122.119 56.9205C122.119 56.9205 118.993 55.4039 116.205 57.5562" stroke="#CCDDE2" stroke-width="1.01325" stroke-miterlimit="10"/>
<path d="M122.119 64.1491C122.119 64.1491 119.139 58.2749 122.119 56.9173C122.672 56.6657 127.109 54.6392 130.027 57.5531" stroke="#CCDDE2" stroke-width="1.01325" stroke-miterlimit="10"/>
<path d="M84.5463 59.5228C85.7606 59.5228 86.745 58.5387 86.745 57.3242C86.745 56.1099 85.7606 55.1255 84.5463 55.1255C83.3321 55.1255 82.3477 56.1099 82.3477 57.3242C82.3477 58.5387 83.3321 59.5228 84.5463 59.5228Z" fill="#D7E8F0"/>
<path d="M90.0235 53.5458C86.5069 54.0292 84.5466 57.324 84.5466 57.324C84.5466 57.324 83.5533 54.0127 80.0698 53.4067" stroke="#CCDDE2" stroke-width="1.01325" stroke-miterlimit="10"/>
<path d="M79.2319 62.2253C79.2319 62.2253 81.5498 56.0564 84.5465 57.3246C85.1061 57.5597 89.6028 59.4505 89.4339 63.5697" stroke="#CCDDE2" stroke-width="1.01325" stroke-miterlimit="10"/>
<path d="M173.58 98.3442C183.583 100.628 192.662 105.882 199.626 113.417C199.739 113.54 199.858 113.662 199.957 113.791C199.957 113.791 190.646 133.42 159 130.963C156.503 130.771 154.182 130.506 152.02 130.195" stroke="#CCDDE2" stroke-width="1.51987" stroke-miterlimit="10"/>
<path d="M199.97 113.8C191.365 110.156 182.277 107.775 172.99 106.731" stroke="#CCDDE2" stroke-width="1.51987" stroke-miterlimit="10"/>
<path d="M123.798 115.385L123.828 115.355" stroke="#CCDDE2" stroke-width="1.51987" stroke-miterlimit="10"/>
<path d="M36.1826 134.199C37.7654 137.467 39.6925 140.49 41.3747 142.192C41.5614 142.131 41.7449 142.061 41.9243 141.98C47.4906 139.851 51.7323 135.358 52.9574 130.265C53.974 126.037 53.0502 121.49 55.0071 117.514C57.3912 112.626 63.8912 109.583 64.6826 104.057C65.4343 98.9142 60.9012 94.1758 61.6396 89.1162C61.6727 88.944 61.7323 88.5864 61.7323 88.5864" stroke="#CCDDE2" stroke-width="1.51987" stroke-miterlimit="10"/>
<path d="M38.5967 91.2153C40.451 89.2551 42.6033 87.4405 44.0934 85.2551C48.2622 79.159 46.6596 71.3478 49.3384 64.6723C52.5934 56.5001 62.8583 50.8081 72.9311 51.5498C71.9722 55.4408 71.3212 59.4011 70.9841 63.3942C70.6894 66.9769 71.398 70.9637 70.6166 74.4206C70.25 75.8428 69.6099 77.1802 68.7324 78.3577" stroke="#CCDDE2" stroke-width="1.51987" stroke-miterlimit="10"/>
<path d="M41.3247 147.02C41.4969 145.51 41.6989 143.825 41.924 141.99C43.838 126.907 49.6691 96.6888 56.9274 76.1821" stroke="#CCDDE2" stroke-width="1.51987" stroke-miterlimit="10"/>
<path d="M66.7721 57.9868C63.4608 62.3775 59.4873 70.0961 56.9277 76.1987" stroke="#CCDDE2" stroke-width="1.51987" stroke-miterlimit="10"/>
<path d="M56.4638 153.125L52.2088 178.235C52.1088 178.922 51.7677 179.552 51.2469 180.012C50.726 180.471 50.0591 180.731 49.3644 180.745H27.1293C26.428 180.73 25.7548 180.465 25.232 179.998C24.7091 179.53 24.3707 178.891 24.2783 178.195L20.3545 153.125H56.4638Z" stroke="#CCDDE2" stroke-width="1.51987" stroke-miterlimit="10"/>
<path d="M60.5067 150.331C60.4677 151.074 60.1498 151.776 59.6163 152.295C59.0829 152.814 58.3733 153.113 57.6292 153.132H19.2617C18.5249 153.114 17.8213 152.821 17.2896 152.311C16.7578 151.8 16.436 151.109 16.3875 150.374C16.2252 148.576 17.5497 147.02 19.2617 147.02H57.616C58.0292 147.029 58.4359 147.125 58.8104 147.301C59.1845 147.476 59.5183 147.727 59.7902 148.039C60.062 148.35 60.266 148.715 60.3895 149.11C60.5127 149.504 60.5528 149.92 60.5067 150.331Z" stroke="#CCDDE2" stroke-width="1.51987" stroke-miterlimit="10"/>
<path d="M38.5036 99.0388C38.5036 96.7673 38.4837 93.5818 38.4639 90.2573L38.5235 90.6216C38.5235 90.7209 38.5433 90.8037 38.5566 90.8732C38.5698 90.9427 38.5864 91.0984 38.5963 91.2043C38.891 93.7441 38.742 96.3832 38.5036 99.0388Z" stroke="#CCDDE2" stroke-width="1.51987" stroke-miterlimit="10"/>
<path d="M26.5859 104.864C28.97 118.526 30.5594 131.476 31.576 141.033V141.059C31.7482 141.142 31.9303 141.221 32.1124 141.304C33.4369 139.688 34.8641 137.122 36.182 134.211C37.5638 131.148 38.6717 127.967 39.4932 124.708C40.6886 119.778 38.5893 114.698 38.1025 109.645C37.9187 107.169 37.9594 104.68 38.225 102.211" stroke="#CCDDE2" stroke-width="1.51987" stroke-miterlimit="10"/>
<path d="M32.1656 147.019C32.0033 145.235 31.8013 143.228 31.5762 141.059" stroke="#CCDDE2" stroke-width="1.51987" stroke-miterlimit="10"/>
<path d="M7.70898 43.7085C16.6659 58.1191 22.6826 82.4502 26.5832 104.861" stroke="#CCDDE2" stroke-width="1.51987" stroke-miterlimit="10"/>
<path d="M29.5098 75.3346C29.5098 75.3346 30.5031 55.1822 38.8276 49.0564C47.1521 42.9306 46.97 77.2816 46.97 77.2816" stroke="#CCDDE2" stroke-width="1.51987" stroke-miterlimit="10"/>
<path d="M38.5927 91.2144C38.5927 91.2144 36.8908 79.6846 39.8742 68.3667" stroke="#CCDDE2" stroke-width="1.51987" stroke-miterlimit="10"/>
<path d="M43.894 51.5043C53.6722 30.4579 75.9636 16.5308 102.172 16.5308H197.682C232.361 16.5308 260.467 44.64 260.467 79.3188" stroke="#CCDDE2" stroke-width="1.51987" stroke-miterlimit="10"/>
<path d="M260.474 79.311V103.658" stroke="#CCDDE2" stroke-width="1.51987" stroke-miterlimit="10"/>
<path d="M38.2415 102.513C38.321 101.457 38.4236 100.404 38.5031 99.3477C38.5031 97.0762 38.4832 93.8907 38.4633 90.5662C38.2405 89.1 37.8137 87.6722 37.1951 86.3245C35.3276 82.3278 31.6885 79.4801 29.5064 75.6457C25.4898 68.5861 27.0329 59.5464 24.4667 51.8046C21.3309 42.3411 11.4833 35.7384 1.79785 36.6093C2.72517 41.1368 3.35126 45.7209 3.67202 50.3311C3.95679 54.4702 3.26805 59.0828 4.02964 63.1026C5.25481 69.5629 11.8277 73.4768 12.6389 80.1093C13.3508 85.9636 8.99653 91.4503 9.70845 97.404C10.3376 102.649 14.629 105.96 17.427 110.099C18.0571 111.008 18.5908 111.98 19.0196 113C20.8872 117.606 20.013 122.881 20.9766 127.758C22.1521 133.672 26.2316 138.887 31.5726 141.361V141.341C30.5792 131.785 28.9667 118.825 26.5826 105.172" stroke="#CCDDE2" stroke-width="1.51987" stroke-miterlimit="10"/>
<path d="M61.1792 110.264C61.8084 110.904 63.0898 112.185 63.6594 112.913C67.2388 117.589 68.9739 123.42 72.9309 127.864C74.0746 129.147 75.4756 130.175 77.0428 130.881C78.6097 131.588 80.308 131.956 82.0269 131.963H198.345C203.202 131.963 208.073 131.93 212.941 131.963C213.964 131.963 214.99 131.963 216.004 131.963C221.126 131.993 224.686 131.443 227.567 126.808C228.438 125.42 229.222 123.98 230.04 122.559C231.736 119.506 233.408 116.473 235.57 113.814C235.57 113.814 235.57 113.814 235.57 113.794C237.098 111.873 238.927 110.212 240.987 108.877C244.629 106.603 248.677 105.059 252.908 104.331C255.397 103.876 257.923 103.649 260.454 103.652C270.191 103.636 279.573 107.305 286.716 113.922C293.858 120.539 298.233 129.613 298.96 139.323C299.687 149.033 296.713 158.658 290.635 166.264C284.557 173.871 275.826 178.897 266.196 180.331C264.302 180.613 262.389 180.751 260.474 180.745H45.6196" stroke="#CCDDE2" stroke-width="1.51987" stroke-miterlimit="10"/>
<path d="M23.9076 177.152C10.4076 170.957 0.834709 157.417 0.993649 141.798C1.02925 138.339 1.54405 134.901 2.52345 131.583C5.01021 123.255 10.434 116.116 17.4241 111.116" stroke="#CCDDE2" stroke-width="1.51987" stroke-miterlimit="10"/>
<path d="M191.024 131.98C189.482 131.686 187.958 131.302 186.461 130.831C186.461 130.831 222.517 114.858 235.653 76.8213C235.653 76.8213 242.054 97.7882 235.593 113.791C235.593 113.791 235.593 113.791 235.593 113.811" stroke="#CCDDE2" stroke-width="1.51987" stroke-miterlimit="10"/>
<path d="M230.053 122.565C229.534 123.129 228.985 123.665 228.41 124.171C223.981 128.016 218.666 130.7 212.943 131.983" stroke="#CCDDE2" stroke-width="1.51987" stroke-miterlimit="10"/>
<path d="M196.593 110.414C198.844 106.957 201.298 103.924 203.755 102.199C212.467 96.1229 232.023 85.3315 235.652 76.8315" stroke="#CCDDE2" stroke-width="1.51987" stroke-miterlimit="10"/>
<path d="M186.461 130.831C186.461 130.831 187.385 128.407 188.934 124.94" stroke="#CCDDE2" stroke-width="1.51987" stroke-miterlimit="10"/>
<path d="M20.3481 44.5666C30.2091 38.3381 41.6097 36.5533 53.5468 37.0401" stroke="#CCDDE2" stroke-width="1.51987" stroke-miterlimit="10"/>
<path d="M13.0037 114.764C13.0037 114.764 -2.62547 87.6118 4.46394 64.731" stroke="#CCDDE2" stroke-width="1.51987" stroke-miterlimit="10"/>
<path d="M260.434 103.497C272.173 88.6557 276.613 68.6624 274.341 50.063C271.62 27.8412 258.818 4.56634 234.722 1.35442C210.626 -1.85751 188.527 12.4869 165.438 16.5299" stroke="#CCDDE2" stroke-width="1.51987" stroke-miterlimit="10"/>
<path d="M154.934 82.3247L84.0732 83.2883C85.5434 86.1393 88.2024 91.9605 88.8415 97.9671L128.808 110.189C128.808 110.189 63.762 135.517 93.6328 169.99L94.4441 169.848L94.6262 169.818L94.6064 169.798C110.308 164.199 120.947 158.328 127.977 153.305C131.894 149.613 135.666 146.02 139.55 142.292C139.609 142.21 139.663 142.125 139.712 142.037C139.735 142.037 139.755 142.037 139.775 142.037C147.908 134.219 156.56 125.788 168.053 114.653C180.202 102.904 171.855 82.3247 154.934 82.3247ZM139.05 141.722C139.153 141.762 139.428 141.914 139.59 142.007C139.4 141.933 139.219 141.837 139.05 141.722Z" fill="#2E2E2E"/>
<path d="M209.096 166.724C209.098 170.554 207.582 174.228 204.881 176.943C202.179 179.657 198.512 181.191 194.682 181.207C170.745 181.32 121.093 181.512 90.8975 181.442C91.2286 177.82 90.7982 173.572 90.4438 171.025C91.278 170.88 92.0988 170.667 92.8975 170.386C93.414 170.204 93.9207 170.032 94.4273 169.846L94.6094 169.817L94.5895 169.797C125.679 158.721 136.901 146.548 139.699 142.035C139.792 142.108 138.927 141.631 139.037 141.704C139.727 142.17 140.567 142.361 141.391 142.24L170.199 138.154C176.383 137.294 182.684 138.075 188.47 140.42C194.257 142.765 199.325 146.59 203.166 151.512C206.427 155.677 208.792 161.429 209.096 166.724Z" fill="#84ADFF"/>
<path d="M90.3975 170.57L94.4438 169.848C93.9372 170.033 93.4306 170.205 92.914 170.387C92.1153 170.668 91.2945 170.882 90.4604 171.026C90.4206 170.861 90.3975 170.712 90.3975 170.57Z" fill="#84ADFF"/>
<path d="M256.871 155.679C256.871 155.679 240.51 175.761 226.907 177.894C226.766 177.747 226.634 177.591 226.513 177.427C225.964 176.695 225.702 175.814 225.328 174.993C225.17 174.644 224.979 174.312 224.758 174L227.781 170.715C228.49 169.937 229.459 169.445 230.505 169.333C231.552 169.221 232.603 169.496 233.46 170.106L234.536 170.861C237.427 172.91 241.109 169.46 238.652 166.579C237.974 165.788 237.194 165.089 236.334 164.5C239.934 163.437 248.255 160.857 246.851 155.665C245.351 150.169 250.626 148.526 250.93 148.712C252.155 149.504 253.269 150.456 254.242 151.543C255.301 152.796 256.185 154.188 256.871 155.679Z" fill="#84ADFF"/>
<path d="M259.619 180.328C259.619 180.328 248.454 180.904 239.242 180.772H239.212C239.129 180.772 239.05 180.772 238.97 180.772C238.371 180.742 237.692 180.722 236.96 180.682C252.003 177.242 259.904 166.298 260.219 165.875C261.699 172.792 261.749 179.471 259.619 180.328Z" fill="#84ADFF"/>
<path d="M118.874 181.453H122.758" stroke="black" stroke-width="1.51987" stroke-miterlimit="10"/>
<path d="M219.746 160.761V152.152C219.744 151.261 219.918 150.379 220.258 149.555C220.598 148.732 221.097 147.984 221.726 147.354C222.355 146.723 223.103 146.223 223.925 145.882C224.748 145.54 225.63 145.364 226.52 145.364H232.481V143.437C232.483 143.331 232.511 143.227 232.563 143.135C232.615 143.042 232.689 142.964 232.779 142.908C232.869 142.851 232.971 142.818 233.077 142.811C233.182 142.804 233.288 142.823 233.385 142.867L239.272 145.695C239.272 145.695 248.269 144.884 254.232 151.549C260.196 158.215 263.279 179.139 259.424 180.672C259.424 180.672 248.431 180.903 239.209 180.771" stroke="black" stroke-width="1.51987" stroke-miterlimit="10"/>
<path d="M203.166 151.509C203.355 151.748 219.742 154.367 219.742 154.367" stroke="black" stroke-width="1.51987" stroke-miterlimit="10"/>
<path d="M239.152 148.52C239.152 148.52 239.851 150.692 239.152 152.235" stroke="black" stroke-width="1.51987" stroke-miterlimit="10"/>
<path d="M256.864 155.678C256.864 155.678 240.308 176.013 226.646 177.936" stroke="black" stroke-width="1.51987" stroke-miterlimit="10"/>
<path d="M236.958 180.672C252.001 177.231 259.901 166.288 260.216 165.864" stroke="black" stroke-width="1.51987" stroke-miterlimit="10"/>
<path d="M240.679 162.89H240.669" stroke="black" stroke-width="1.51987" stroke-miterlimit="10"/>
<path d="M206.451 174.933C210.649 172.42 222.48 168.744 225.325 174.986C225.699 175.811 225.967 176.701 226.51 177.427C228.884 180.605 235.401 180.582 238.964 180.764C241.586 180.897 244.222 180.913 246.841 180.794" stroke="black" stroke-width="1.51987" stroke-miterlimit="10"/>
<path d="M250.917 148.732C250.616 148.533 245.341 150.179 246.838 155.685C248.255 160.877 239.927 163.453 236.328 164.523C237.189 165.11 237.969 165.809 238.646 166.602C241.099 169.483 237.417 172.93 234.533 170.881L233.444 170.122C232.586 169.512 231.535 169.237 230.489 169.349C229.442 169.462 228.473 169.953 227.765 170.732L224.377 174.424" stroke="black" stroke-width="1.51987" stroke-miterlimit="10"/>
<path d="M184.712 153.772L93.6196 169.991" stroke="black" stroke-width="1.51987" stroke-miterlimit="10"/>
<path d="M139.699 142.052C140.233 142.27 140.815 142.339 141.385 142.254L170.193 138.168C176.377 137.308 182.678 138.089 188.464 140.434C194.251 142.778 199.319 146.604 203.16 151.526C206.415 155.695 208.789 161.46 209.084 166.758C209.077 170.576 207.561 174.237 204.868 176.943C202.175 179.65 198.521 181.183 194.703 181.208C170.766 181.321 121.113 181.513 90.918 181.443" stroke="black" stroke-width="1.51987" stroke-miterlimit="10"/>
<path d="M90.9012 181.457C76.9939 181.423 67.2091 181.334 65.9707 181.162C65.9707 179.397 67.8681 177.52 70.1992 175.98C72.5303 174.44 75.2919 173.291 77.027 172.967L90.3846 170.582L93.6197 170.003" stroke="black" stroke-width="1.51987" stroke-miterlimit="10"/>
<path d="M93.6195 169.99C63.7487 135.516 128.808 110.188 128.808 110.188L115.073 105.986C110.374 104.549 105.626 103.268 100.934 101.791C98.5599 101.046 88.8679 97.9664 88.8679 97.9664L84.8579 98.4399C83.3907 98.6137 81.9036 98.476 80.493 98.0363C79.0828 97.5962 77.7808 96.8641 76.6725 95.8869L57.55 78.079C57.2954 77.8406 57.105 77.5415 56.996 77.2101C56.8874 76.8783 56.8639 76.5247 56.9275 76.1816C56.9848 75.8796 57.1089 75.5942 57.2904 75.3459C57.4719 75.0975 57.7063 74.8929 57.9768 74.7469C58.2474 74.6005 58.547 74.5167 58.854 74.5008C59.1613 74.4849 59.4679 74.5376 59.752 74.6551L77.093 81.8273C79.5066 82.8247 82.0977 83.3207 84.7089 83.2843L154.937 82.324C171.868 82.324 180.206 102.903 168.053 114.672C149.573 132.572 138.451 143.48 124.971 156.129" stroke="black" stroke-width="1.51987" stroke-miterlimit="10"/>
<path d="M38.4639 91.5799C38.4649 91.5633 38.4649 91.5468 38.4639 91.5302C38.4652 91.5123 38.4652 91.4948 38.4639 91.4772V91.4375" stroke="#CCDDE2" stroke-width="1.51987" stroke-miterlimit="10"/>
<path d="M38.4443 77.8143V77.7944" stroke="#CCDDE2" stroke-width="1.51987" stroke-miterlimit="10"/>
<path d="M38.5468 103.496L38.2422 103.526" stroke="#CCDDE2" stroke-width="1.51987" stroke-miterlimit="10"/>
</g>
<defs>
<clipPath id="clip0_4974_271710">
<rect width="300" height="182.45" fill="white"/>
</clipPath>
</defs>
</svg>
