<svg width="41" height="40" viewBox="0 0 41 40" fill="none" xmlns="http://www.w3.org/2000/svg">
<rect x="0.5" width="40" height="40" rx="12" fill="#FFFAEB"/>
<path d="M20.4998 21.2999C20.3698 21.2999 20.2398 21.2699 20.1198 21.1999L11.2899 16.0899C10.9299 15.8799 10.8098 15.4199 11.0198 15.0599C11.2298 14.6999 11.6798 14.5799 12.0498 14.7899L20.4998 19.6799L28.8998 14.8199C29.2598 14.6099 29.7198 14.7399 29.9298 15.0899C30.1398 15.4499 30.0098 15.9099 29.6598 16.1199L20.8899 21.1999C20.7599 21.2599 20.6298 21.2999 20.4998 21.2999Z" fill="#F79009"/>
<path d="M20.5 30.36C20.09 30.36 19.75 30.02 19.75 29.61V20.54C19.75 20.13 20.09 19.79 20.5 19.79C20.91 19.79 21.25 20.13 21.25 20.54V29.61C21.25 30.02 20.91 30.36 20.5 30.36Z" fill="#F79009"/>
<path d="M20.4999 30.7502C19.6199 30.7502 18.7399 30.5602 18.0599 30.1702L12.7199 27.2103C11.2699 26.4103 10.1299 24.4802 10.1299 22.8202V17.1602C10.1299 15.5002 11.2699 13.5803 12.7199 12.7703L18.0599 9.81023C19.4199 9.05023 21.5599 9.05023 22.9299 9.81023L28.2699 12.7703C29.7199 13.5703 30.8599 15.5002 30.8599 17.1602V22.8202C30.8599 22.8902 30.8599 22.9902 30.8299 23.1202C30.7699 23.3802 30.5799 23.5902 30.3299 23.6702C30.0799 23.7502 29.7999 23.7003 29.5999 23.5203C28.4599 22.5203 26.6799 22.4802 25.4599 23.4502C24.6899 24.0602 24.2399 24.9902 24.2399 25.9802C24.2399 26.5702 24.3999 27.1503 24.7099 27.6503C24.7899 27.7903 24.8699 27.9002 24.9599 28.0002C25.1099 28.1702 25.1699 28.4002 25.1299 28.6202C25.0899 28.8402 24.9499 29.0403 24.7499 29.1403L22.9199 30.1503C22.2499 30.5603 21.3799 30.7502 20.4999 30.7502ZM20.4999 10.7502C19.8799 10.7502 19.2499 10.8802 18.7999 11.1302L13.4599 14.0903C12.4899 14.6303 11.6499 16.0602 11.6499 17.1602V22.8202C11.6499 23.9202 12.4999 25.3603 13.4599 25.8903L18.7999 28.8502C19.7099 29.3602 21.2999 29.3602 22.2099 28.8502L23.3299 28.2302C22.9599 27.5602 22.7599 26.7802 22.7599 25.9802C22.7599 24.5202 23.4099 23.1703 24.5399 22.2703C25.9099 21.1803 27.8499 20.9502 29.3699 21.6102V17.1503C29.3699 16.0503 28.5199 14.6103 27.5599 14.0803L22.2199 11.1202C21.7499 10.8802 21.1199 10.7502 20.4999 10.7502Z" fill="#F79009"/>
<path d="M27.5 30.75C24.88 30.75 22.75 28.62 22.75 26C22.75 24.54 23.4 23.19 24.53 22.29C25.37 21.62 26.43 21.25 27.5 21.25C30.12 21.25 32.25 23.38 32.25 26C32.25 27.36 31.66 28.66 30.63 29.56C29.76 30.33 28.65 30.75 27.5 30.75ZM27.5 22.75C26.76 22.75 26.06 23 25.47 23.47C24.7 24.08 24.25 25.01 24.25 26C24.25 27.79 25.71 29.25 27.5 29.25C28.28 29.25 29.04 28.96 29.65 28.44C30.35 27.82 30.75 26.94 30.75 26C30.75 24.21 29.29 22.75 27.5 22.75Z" fill="#F79009"/>
<path d="M26.4999 27.75C26.2499 27.75 25.9999 27.62 25.8599 27.39C25.6499 27.03 25.7599 26.57 26.1199 26.36L27.0099 25.83V24.75C27.0099 24.34 27.3499 24 27.7599 24C28.1699 24 28.5099 24.34 28.5099 24.75V26.25C28.5099 26.51 28.3699 26.76 28.1499 26.89L26.8999 27.64C26.7599 27.72 26.6299 27.75 26.4999 27.75Z" fill="#F79009"/>
</svg>
