<svg width="41" height="40" viewBox="0 0 41 40" fill="none" xmlns="http://www.w3.org/2000/svg">
<rect x="0.75" width="40" height="40" rx="12" fill="#F0F9FF"/>
<path d="M20.7498 21.2999C20.6198 21.2999 20.4898 21.2699 20.3698 21.1999L11.5399 16.0899C11.1799 15.8799 11.0598 15.4199 11.2698 15.0599C11.4798 14.6999 11.9298 14.5799 12.2998 14.7899L20.7498 19.6799L29.1498 14.8199C29.5098 14.6099 29.9698 14.7399 30.1798 15.0899C30.3898 15.4499 30.2598 15.9099 29.9098 16.1199L21.1399 21.1999C21.0099 21.2599 20.8798 21.2999 20.7498 21.2999Z" fill="#0BA5EC"/>
<path d="M20.75 30.36C20.34 30.36 20 30.02 20 29.61V20.54C20 20.13 20.34 19.79 20.75 19.79C21.16 19.79 21.5 20.13 21.5 20.54V29.61C21.5 30.02 21.16 30.36 20.75 30.36Z" fill="#0BA5EC"/>
<path d="M20.7499 30.7502C19.8399 30.7502 18.9699 30.5402 18.3099 30.1702L12.9699 27.2103C11.5199 26.4103 10.3799 24.4802 10.3799 22.8202V17.1602C10.3799 15.5002 11.5199 13.5803 12.9699 12.7703L18.3099 9.81023C19.6699 9.05023 21.8099 9.05023 23.1799 9.81023L28.5199 12.7703C29.9699 13.5703 31.1099 15.5002 31.1099 17.1602V20.8202C31.1099 21.2302 30.7699 21.5702 30.3599 21.5702C29.9499 21.5702 29.6099 21.2302 29.6099 20.8202V17.1602C29.6099 16.0602 28.7599 14.6203 27.7999 14.0903L22.4599 11.1302C21.5499 10.6202 19.9599 10.6202 19.0499 11.1302L13.7099 14.0903C12.7399 14.6303 11.8999 16.0602 11.8999 17.1602V22.8202C11.8999 23.9202 12.7499 25.3603 13.7099 25.8903L19.0499 28.8502C19.9299 29.3402 21.5899 29.3402 22.4599 28.8502C22.8199 28.6502 23.2799 28.7803 23.4799 29.1403C23.6799 29.5003 23.5499 29.9602 23.1899 30.1602C22.5299 30.5402 21.6599 30.7502 20.7499 30.7502Z" fill="#0BA5EC"/>
<path d="M27.95 30.15C25.77 30.15 24 28.38 24 26.2C24 24.02 25.77 22.25 27.95 22.25C30.13 22.25 31.9 24.02 31.9 26.2C31.9 28.38 30.13 30.15 27.95 30.15ZM27.95 23.75C26.6 23.75 25.5 24.85 25.5 26.2C25.5 27.55 26.6 28.65 27.95 28.65C29.3 28.65 30.4 27.55 30.4 26.2C30.4 24.85 29.3 23.75 27.95 23.75Z" fill="#0BA5EC"/>
<path d="M31.7499 30.7495C31.5599 30.7495 31.3699 30.6795 31.2199 30.5295L30.2199 29.5295C29.9299 29.2395 29.9299 28.7595 30.2199 28.4695C30.5099 28.1795 30.9899 28.1795 31.2799 28.4695L32.2799 29.4695C32.5699 29.7595 32.5699 30.2395 32.2799 30.5295C32.1299 30.6795 31.9399 30.7495 31.7499 30.7495Z" fill="#0BA5EC"/>
</svg>
