<svg width="41" height="40" viewBox="0 0 41 40" fill="none" xmlns="http://www.w3.org/2000/svg">
<rect x="0.25" width="40" height="40" rx="12" fill="#FEF3F2"/>
<path d="M20.2498 21.2999C20.1198 21.2999 19.9898 21.2699 19.8698 21.1999L11.0399 16.0899C10.6799 15.8799 10.5598 15.4199 10.7698 15.0599C10.9798 14.6999 11.4399 14.5799 11.7899 14.7899L20.2398 19.6799L28.6399 14.8199C28.9999 14.6099 29.4598 14.7399 29.6598 15.0899C29.8698 15.4499 29.7399 15.9099 29.3899 16.1199L20.6198 21.1999C20.5098 21.2599 20.3798 21.2999 20.2498 21.2999Z" fill="#F04438"/>
<path d="M20.25 30.36C19.84 30.36 19.5 30.02 19.5 29.61V20.54C19.5 20.13 19.84 19.79 20.25 19.79C20.66 19.79 21 20.13 21 20.54V29.61C21 30.02 20.66 30.36 20.25 30.36Z" fill="#F04438"/>
<path d="M20.2499 30.7499C19.3699 30.7499 18.4899 30.5599 17.8099 30.1699L12.4699 27.2099C11.0199 26.4099 9.87988 24.4799 9.87988 22.8199V17.1599C9.87988 15.4999 11.0199 13.5799 12.4699 12.7699L17.8099 9.80992C19.1699 9.03992 21.3099 9.03992 22.6799 9.80992L28.0199 12.7699C29.4699 13.5699 30.6099 15.4999 30.6099 17.1599V22.8199C30.6099 22.9199 30.6099 22.9999 30.5899 23.0999C30.5399 23.3599 30.3499 23.5799 30.0999 23.6599C29.8499 23.7499 29.5699 23.6899 29.3599 23.5199C28.2099 22.5199 26.4299 22.4799 25.2199 23.4499C24.4499 24.0599 23.9999 24.9899 23.9999 25.9799C23.9999 26.5699 24.1599 27.1499 24.4699 27.6499C24.5499 27.7899 24.6299 27.8999 24.7199 28.0099C24.8699 28.1799 24.9299 28.4099 24.8899 28.6299C24.8499 28.8499 24.7099 29.0399 24.5099 29.1499L22.6799 30.1599C21.9999 30.5599 21.1299 30.7499 20.2499 30.7499ZM20.2499 10.7499C19.6299 10.7499 18.9999 10.8799 18.5499 11.1299L13.2099 14.09C12.2399 14.62 11.3999 16.0599 11.3999 17.1599V22.8199C11.3999 23.9199 12.2499 25.3599 13.2099 25.8899L18.5499 28.8499C19.4599 29.3599 21.0499 29.3599 21.9599 28.8499L23.0799 28.2299C22.7099 27.5599 22.5099 26.7799 22.5099 25.9799C22.5099 24.5199 23.1599 23.1699 24.2899 22.2699C25.6499 21.1799 27.5999 20.9499 29.1199 21.5999V17.1399C29.1199 16.0399 28.2699 14.5999 27.3099 14.0699L21.9699 11.1099C21.4999 10.8799 20.8699 10.7499 20.2499 10.7499Z" fill="#F04438"/>
<path d="M27.25 30.75C25.59 30.75 24.03 29.87 23.19 28.44C22.74 27.72 22.5 26.87 22.5 26C22.5 24.54 23.15 23.19 24.28 22.29C25.12 21.62 26.18 21.25 27.25 21.25C29.87 21.25 32 23.38 32 26C32 26.87 31.76 27.72 31.31 28.45C31.07 28.87 30.74 29.25 30.36 29.57C29.53 30.33 28.42 30.75 27.25 30.75ZM27.25 22.75C26.51 22.75 25.81 23 25.22 23.47C24.45 24.08 24 25.01 24 26C24 26.59 24.16 27.17 24.47 27.67C25.06 28.67 26.1 29.25 27.25 29.25C28.04 29.25 28.8 28.96 29.38 28.44C29.64 28.22 29.86 27.96 30.02 27.68C30.34 27.17 30.5 26.59 30.5 26C30.5 24.21 29.04 22.75 27.25 22.75Z" fill="#F04438"/>
<path d="M28.3199 27.7901C28.1299 27.7901 27.9399 27.7201 27.7899 27.5701L25.6799 25.4601C25.3899 25.1701 25.3899 24.6901 25.6799 24.4001C25.9699 24.1101 26.4499 24.1101 26.7399 24.4001L28.8499 26.5101C29.1399 26.8001 29.1399 27.2801 28.8499 27.5701C28.6999 27.7201 28.5099 27.7901 28.3199 27.7901Z" fill="#F04438"/>
<path d="M26.1801 27.8204C25.9901 27.8204 25.8001 27.7504 25.6501 27.6004C25.3601 27.3104 25.3601 26.8304 25.6501 26.5404L27.7601 24.4304C28.0501 24.1404 28.5301 24.1404 28.8201 24.4304C29.1101 24.7204 29.1101 25.2004 28.8201 25.4904L26.7101 27.6004C26.5601 27.7504 26.3701 27.8204 26.1801 27.8204Z" fill="#F04438"/>
</svg>
