<svg width="40" height="40" viewBox="0 0 40 40" fill="none" xmlns="http://www.w3.org/2000/svg">
<rect width="40" height="40" rx="12" fill="#ECFDF3"/>
<path d="M27.0001 30.7502C25.3801 30.7502 23.8501 29.9102 22.9901 28.5302C22.5301 27.8202 22.2701 26.9701 22.2501 26.1001C22.2201 24.6401 22.8401 23.2801 23.9501 22.3601C24.7801 21.6701 25.8201 21.2802 26.8901 21.2502C28.1901 21.2402 29.3601 21.6902 30.2801 22.5702C31.2001 23.4502 31.7201 24.6302 31.7401 25.9002C31.7601 26.7702 31.5401 27.6202 31.1001 28.3702C30.8601 28.7902 30.5501 29.1802 30.1801 29.5102C29.3601 30.2802 28.2601 30.7302 27.0901 30.7502C27.0701 30.7502 27.0401 30.7502 27.0001 30.7502ZM27.0001 22.7502C26.9801 22.7502 26.9501 22.7502 26.9301 22.7502C26.1901 22.7702 25.4901 23.0302 24.9101 23.5102C24.1501 24.1402 23.7301 25.0702 23.7501 26.0702C23.7601 26.6602 23.9401 27.2401 24.2501 27.7301C24.8601 28.7101 25.9201 29.3102 27.0601 29.2502C27.8501 29.2302 28.6001 28.9302 29.1701 28.4002C29.4301 28.1702 29.6401 27.9102 29.8001 27.6302C30.1001 27.1102 30.2501 26.5302 30.2401 25.9402C30.2201 25.0702 29.8701 24.2601 29.2401 23.6601C28.6401 23.0701 27.8401 22.7502 27.0001 22.7502Z" fill="#12B76A"/>
<path d="M26.4499 27.7497C26.2599 27.7497 26.0799 27.6797 25.9299 27.5397L24.9199 26.5797C24.6199 26.2897 24.6099 25.8197 24.8999 25.5197C25.1899 25.2197 25.6599 25.2097 25.9599 25.4997L26.4499 25.9697L28.0199 24.4497C28.3199 24.1597 28.7899 24.1697 29.0799 24.4697C29.3699 24.7697 29.3599 25.2397 29.0599 25.5297L26.9699 27.5497C26.8199 27.6797 26.6299 27.7497 26.4499 27.7497Z" fill="#12B76A"/>
<path d="M19.9998 21.2999C19.8698 21.2999 19.7398 21.2699 19.6198 21.1999L10.7899 16.0899C10.4299 15.8799 10.3098 15.4199 10.5198 15.0599C10.7298 14.6999 11.1899 14.5799 11.5399 14.7899L19.9898 19.6799L28.3899 14.8199C28.7499 14.6099 29.2098 14.7399 29.4098 15.0899C29.6198 15.4499 29.4899 15.9099 29.1399 16.1199L20.3698 21.1999C20.2598 21.2599 20.1298 21.2999 19.9998 21.2999Z" fill="#12B76A"/>
<path d="M20 30.36C19.59 30.36 19.25 30.02 19.25 29.61V20.54C19.25 20.13 19.59 19.79 20 19.79C20.41 19.79 20.75 20.13 20.75 20.54V29.61C20.75 30.02 20.41 30.36 20 30.36Z" fill="#12B76A"/>
<path d="M19.9999 30.7499C19.1199 30.7499 18.2399 30.5599 17.5599 30.1699L12.2199 27.2099C10.7699 26.4099 9.62988 24.4799 9.62988 22.8199V17.1599C9.62988 15.4999 10.7699 13.5799 12.2199 12.7699L17.5599 9.80992C18.9199 9.03992 21.0599 9.03992 22.4299 9.80992L27.7699 12.7699C29.2199 13.5699 30.3599 15.4999 30.3599 17.1599V22.8199C30.3599 22.9199 30.3599 22.9999 30.3399 23.0999C30.2899 23.3599 30.0999 23.5799 29.8499 23.6599C29.5999 23.7499 29.3199 23.6899 29.1099 23.5199C27.9599 22.5199 26.1799 22.4799 24.9699 23.4499C24.1999 24.0599 23.7499 24.9899 23.7499 25.9799C23.7499 26.5699 23.9099 27.1499 24.2199 27.6499C24.2999 27.7899 24.3799 27.8999 24.4699 28.0099C24.6199 28.1799 24.6799 28.4099 24.6399 28.6299C24.5999 28.8499 24.4599 29.0399 24.2599 29.1499L22.4299 30.1599C21.7499 30.5599 20.8799 30.7499 19.9999 30.7499ZM19.9999 10.7499C19.3799 10.7499 18.7499 10.8799 18.2999 11.1299L12.9599 14.09C11.9899 14.62 11.1499 16.0599 11.1499 17.1599V22.8199C11.1499 23.9199 11.9999 25.3599 12.9599 25.8899L18.2999 28.8499C19.2099 29.3599 20.7999 29.3599 21.7099 28.8499L22.8299 28.2299C22.4599 27.5599 22.2599 26.7799 22.2599 25.9799C22.2599 24.5199 22.9099 23.1699 24.0399 22.2699C25.3999 21.1799 27.3399 20.9499 28.8699 21.5999V17.1399C28.8699 16.0399 28.0199 14.5999 27.0599 14.0699L21.7199 11.1099C21.2499 10.8799 20.6199 10.7499 19.9999 10.7499Z" fill="#12B76A"/>
</svg>
